<?xml version="1.0" encoding="UTF-8" standalone="no"?>
<svg
   xmlns:dc="http://purl.org/dc/elements/1.1/"
   xmlns:cc="http://creativecommons.org/ns#"
   xmlns:rdf="http://www.w3.org/1999/02/22-rdf-syntax-ns#"
   xmlns:svg="http://www.w3.org/2000/svg"
   xmlns="http://www.w3.org/2000/svg"
   id="svg4"
   version="1.1"
   width="512"
   height="512">
  <metadata
     id="metadata10">
    <rdf:RDF>
      <cc:Work
         rdf:about="">
        <dc:format>image/svg+xml</dc:format>
        <dc:type
           rdf:resource="http://purl.org/dc/dcmitype/StillImage" />
        <dc:title></dc:title>
      </cc:Work>
    </rdf:RDF>
  </metadata>
  <defs
     id="defs8" />
  <path
     id="path836"
     d="m 101.46178,164.37448 a 91.306116,91.311595 0 0 0 -91.306194,91.31106 91.306116,91.311595 0 0 0 91.306194,91.31188 91.306116,91.311595 0 0 0 91.30618,-91.31188 91.306116,91.311595 0 0 0 -91.30618,-91.31106 z m 18.88002,48.63185 a 42.550735,42.744737 0 0 1 42.55063,42.74431 42.550735,42.744737 0 0 1 -42.55063,42.74513 42.550735,42.744737 0 0 1 -37.904082,-23.42161 v 21.50601 H 56.043452 v -42.43264 c -8.128412,3.16931 -15.181702,3.40343 -15.99932,3.32909 v -26.75557 c 0,0 14.372285,-1.6e-4 15.99932,-15.99931 h 26.394266 v 21.61017 A 42.550735,42.744737 0 0 1 120.3418,213.00633 Z m 0,26.56922 a 16.102025,16.175437 0 0 0 -16.10266,16.17509 16.102025,16.175437 0 0 0 16.10266,16.1759 16.102025,16.175437 0 0 0 16.10184,-16.1759 16.102025,16.175437 0 0 0 -16.10184,-16.17509 z"
     style="opacity:1;fill:#000000;fill-opacity:1;stroke:none;stroke-width:1.95638418;stroke-linecap:butt;stroke-linejoin:bevel;stroke-miterlimit:4;stroke-dasharray:none;stroke-opacity:1" />
  <g
     id="g98"
     transform="matrix(0.50693785,0,0,0.50693785,185.52189,148.2303)"
     style="fill:#000000">
    <path
       style="fill:#000000"
       d="m 56.587862,130.8033 v 162.747 H 156.86686 c 3.235,0 5.603,-1.088 7.247,-2.874 l 20.728,-20.647 c 2.754,-2.729 4.534,-5.317 4.534,-8.38 v -28.501 c 0,-2.455 -1.451,-4.445 -3.239,-6.478 l -14.25,-14.25 12.955,-12.955 c 3.101,-3.034 4.603,-5.893 4.534,-8.623 v -25.06 c 0,-5.112 -1.039,-7.33 -3.279,-9.757 l -19.392,-19.271 c -3.808,-3.32 -6.375,-5.951 -11.659,-5.951 z m 28.501,29.149 h 59.592998 c 4.145,0 5.547,1.431 7.449,3.401 l 5.506,5.465 c 1.479,1.48 2.591,3.293 2.591,4.899 v 7.044 c 0,1.943 -0.759,3.2 -1.943,4.615 l -9.716,9.635 c -1.714,1.617 -2.956,3.32 -6.477,3.32 H 85.089862 v -38.379 z m 0,66.718 h 57.001998 c 3.522,0 4.764,1.703 6.477,3.32 l 9.716,9.635 c 1.185,1.416 1.943,2.672 1.943,4.615 v 7.044 c 0,1.605 -1.112,3.418 -2.591,4.899 l -5.506,5.465 c -1.902,1.97 -3.304,3.401 -7.449,3.401 H 85.087862 v -38.379 z"
       class="st0"
       id="path5243" />
    <path
       style="fill:#000000"
       d="m 245.73086,130.8033 c -5.285,0 -7.852,2.631 -11.659,5.951 l -19.392,19.271 c -2.24,2.426 -3.279,4.645 -3.279,9.757 v 95.867 c 0,3.063 1.78,5.652 4.534,8.38 l 20.728,20.647 c 1.644,1.787 4.011,2.874 7.247,2.874 h 67.771 c 3.235,0 5.603,-1.088 7.247,-2.874 l 20.728,-20.647 c 2.754,-2.729 4.534,-5.317 4.534,-8.38 v -95.867 c 0,-5.112 -1.04,-7.331 -3.279,-9.757 l -19.392,-19.271 c -3.808,-3.32 -6.375,-5.951 -11.659,-5.951 z m 9.716,29.149 h 44.695 c 4.145,0 5.547,1.431 7.449,3.401 l 5.506,5.465 c 1.479,1.48 2.591,3.293 2.591,4.899 v 77.568 c 0,1.605 -1.112,3.418 -2.591,4.899 l -5.506,5.465 c -1.902,1.97 -3.304,3.401 -7.449,3.401 h -44.695 c -4.145,0 -5.547,-1.43 -7.449,-3.401 l -5.506,-5.465 c -1.479,-1.48 -2.591,-3.293 -2.591,-4.899 v -77.568 c 0,-1.605 1.112,-3.418 2.591,-4.899 l 5.506,-5.465 c 1.902,-1.971 3.304,-3.401 7.449,-3.401 z"
       class="st0"
       id="path5587" />
    <path
       style="fill:#000000"
       id="path20-3"
       d="m 621.33786,156.0253 -19.392,-19.271 c -3.808,-3.32 -6.375,-5.951 -11.659,-5.951 h -98.458 v 162.746 h 100.28 c 3.235,0 5.603,-1.088 7.247,-2.874 l 20.728,-20.647 c 2.754,-2.729 4.534,-5.317 4.534,-8.38 v -95.867 c -10e-4,-5.111 -1.04,-7.33 -3.28,-9.756 z m -25.869,95.26 c 0,1.605 -1.112,3.418 -2.591,4.899 l -5.506,5.465 c -1.902,1.97 -3.304,3.401 -7.449,3.401 h -59.593 v -105.098 0 h 59.593 c 4.145,0 5.547,1.431 7.449,3.401 l 5.506,5.465 c 1.479,1.48 2.591,3.293 2.591,4.899 z"
       class="st0" />
    <path
       style="fill:#000000"
       id="path22-6"
       d="m 394.99086,130.8033 h -28.825 v 162.746 h 103.788 v -28.501 h -75.287 z"
       class="st0" />
  </g>
</svg>
