<?xml version="1.0" encoding="UTF-8" standalone="no"?>
<svg
   xmlns:dc="http://purl.org/dc/elements/1.1/"
   xmlns:cc="http://creativecommons.org/ns#"
   xmlns:rdf="http://www.w3.org/1999/02/22-rdf-syntax-ns#"
   xmlns:svg="http://www.w3.org/2000/svg"
   xmlns="http://www.w3.org/2000/svg"
   height="512"
   width="512"
   version="1.1"
   id="svg4">
  <metadata
     id="metadata10">
    <rdf:RDF>
      <cc:Work
         rdf:about="">
        <dc:format>image/svg+xml</dc:format>
        <dc:type
           rdf:resource="http://purl.org/dc/dcmitype/StillImage" />
        <dc:title></dc:title>
      </cc:Work>
    </rdf:RDF>
  </metadata>
  <defs
     id="defs8" />
  <path
     id="path14"
     d="M 101.50195 164.67578 C 64.349133 165.03209 32.730377 184.69294 17.283203 219.28711 C 13.588223 227.89521 11.98589 233.71028 10.230469 244.88086 C 9.7057416 248.22012 9.8088321 263.77686 10.382812 267.86523 C 14.533819 290.38308 23.292749 307.21958 36.904297 320.83008 C 62.036046 341.56012 86.696057 351.35736 117.89844 345.92773 C 151.37797 339.78649 178.81001 315.36859 188.88477 282.73828 C 189.99667 279.13762 190.72921 276.04146 191.66406 271.01953 C 192.51457 266.44861 192.55078 265.83798 192.55078 255.95508 C 192.55078 246.07219 192.51519 245.45959 191.66602 240.88867 C 188.59138 224.34206 182.83917 211.49289 172.83008 198.81445 C 157.64883 180.26009 132.33372 167.03591 113.19922 165.18945 C 109.24916 164.80828 105.34535 164.63892 101.50195 164.67578 z M 120.3418 212.62891 A 43 43 0 0 1 163.3418 255.62891 A 43 43 0 0 1 120.3418 298.62891 A 43 43 0 0 1 82.689453 276.38086 L 82.689453 296.96875 L 55.373047 296.96875 L 55.373047 254.3418 C 52.843127 255.58046 47.896374 257.28868 39.806641 257.23438 L 39.806641 230.47852 C 49.90877 229.38556 55.500266 223.44381 55.535156 214.2793 L 82.689453 214.2793 L 82.689453 234.95703 A 43 43 0 0 1 120.3418 212.62891 z M 120.3418 239.45898 A 16.170511 16.170511 0 0 0 104.17188 255.62891 A 16.170511 16.170511 0 0 0 120.3418 271.80078 A 16.170511 16.170511 0 0 0 136.51367 255.62891 A 16.170511 16.170511 0 0 0 120.3418 239.45898 z "
     style="fill:#000000;fill-opacity:1;fill-rule:nonzero;stroke:none;stroke-width:0.13333337" />
  <g
     style="fill:#000000"
     transform="matrix(0.50693785,0,0,0.50693785,185.52189,148.2303)"
     id="g98">
    <path
       id="path5243"
       class="st0"
       d="m 56.587862,130.8033 v 162.747 H 156.86686 c 3.235,0 5.603,-1.088 7.247,-2.874 l 20.728,-20.647 c 2.754,-2.729 4.534,-5.317 4.534,-8.38 v -28.501 c 0,-2.455 -1.451,-4.445 -3.239,-6.478 l -14.25,-14.25 12.955,-12.955 c 3.101,-3.034 4.603,-5.893 4.534,-8.623 v -25.06 c 0,-5.112 -1.039,-7.33 -3.279,-9.757 l -19.392,-19.271 c -3.808,-3.32 -6.375,-5.951 -11.659,-5.951 z m 28.501,29.149 h 59.592998 c 4.145,0 5.547,1.431 7.449,3.401 l 5.506,5.465 c 1.479,1.48 2.591,3.293 2.591,4.899 v 7.044 c 0,1.943 -0.759,3.2 -1.943,4.615 l -9.716,9.635 c -1.714,1.617 -2.956,3.32 -6.477,3.32 H 85.089862 v -38.379 z m 0,66.718 h 57.001998 c 3.522,0 4.764,1.703 6.477,3.32 l 9.716,9.635 c 1.185,1.416 1.943,2.672 1.943,4.615 v 7.044 c 0,1.605 -1.112,3.418 -2.591,4.899 l -5.506,5.465 c -1.902,1.97 -3.304,3.401 -7.449,3.401 H 85.087862 v -38.379 z"
       style="fill:#000000" />
    <path
       id="path5587"
       class="st0"
       d="m 245.73086,130.8033 c -5.285,0 -7.852,2.631 -11.659,5.951 l -19.392,19.271 c -2.24,2.426 -3.279,4.645 -3.279,9.757 v 95.867 c 0,3.063 1.78,5.652 4.534,8.38 l 20.728,20.647 c 1.644,1.787 4.011,2.874 7.247,2.874 h 67.771 c 3.235,0 5.603,-1.088 7.247,-2.874 l 20.728,-20.647 c 2.754,-2.729 4.534,-5.317 4.534,-8.38 v -95.867 c 0,-5.112 -1.04,-7.331 -3.279,-9.757 l -19.392,-19.271 c -3.808,-3.32 -6.375,-5.951 -11.659,-5.951 z m 9.716,29.149 h 44.695 c 4.145,0 5.547,1.431 7.449,3.401 l 5.506,5.465 c 1.479,1.48 2.591,3.293 2.591,4.899 v 77.568 c 0,1.605 -1.112,3.418 -2.591,4.899 l -5.506,5.465 c -1.902,1.97 -3.304,3.401 -7.449,3.401 h -44.695 c -4.145,0 -5.547,-1.43 -7.449,-3.401 l -5.506,-5.465 c -1.479,-1.48 -2.591,-3.293 -2.591,-4.899 v -77.568 c 0,-1.605 1.112,-3.418 2.591,-4.899 l 5.506,-5.465 c 1.902,-1.971 3.304,-3.401 7.449,-3.401 z"
       style="fill:#000000" />
    <path
       class="st0"
       d="m 621.33786,156.0253 -19.392,-19.271 c -3.808,-3.32 -6.375,-5.951 -11.659,-5.951 h -98.458 v 162.746 h 100.28 c 3.235,0 5.603,-1.088 7.247,-2.874 l 20.728,-20.647 c 2.754,-2.729 4.534,-5.317 4.534,-8.38 v -95.867 c -10e-4,-5.111 -1.04,-7.33 -3.28,-9.756 z m -25.869,95.26 c 0,1.605 -1.112,3.418 -2.591,4.899 l -5.506,5.465 c -1.902,1.97 -3.304,3.401 -7.449,3.401 h -59.593 v -105.098 0 h 59.593 c 4.145,0 5.547,1.431 7.449,3.401 l 5.506,5.465 c 1.479,1.48 2.591,3.293 2.591,4.899 z"
       id="path20-3"
       style="fill:#000000" />
    <path
       class="st0"
       d="m 394.99086,130.8033 h -28.825 v 162.746 h 103.788 v -28.501 h -75.287 z"
       id="path22-6"
       style="fill:#000000" />
  </g>
</svg>
