<?xml version="1.0" encoding="UTF-8" standalone="no"?>
<svg
   xmlns:dc="http://purl.org/dc/elements/1.1/"
   xmlns:cc="http://creativecommons.org/ns#"
   xmlns:rdf="http://www.w3.org/1999/02/22-rdf-syntax-ns#"
   xmlns:svg="http://www.w3.org/2000/svg"
   xmlns="http://www.w3.org/2000/svg"
   id="svg4"
   version="1.1"
   width="512"
   height="512">
  <metadata
     id="metadata10">
    <rdf:RDF>
      <cc:Work
         rdf:about="">
        <dc:format>image/svg+xml</dc:format>
        <dc:type
           rdf:resource="http://purl.org/dc/dcmitype/StillImage" />
        <dc:title></dc:title>
      </cc:Work>
    </rdf:RDF>
  </metadata>
  <defs
     id="defs8" />
  <path
     id="path836"
     d="M 256,10.805415 A 245.1802,245.19491 0 0 0 10.819616,255.99891 245.1802,245.19491 0 0 0 256,501.19459 245.1802,245.19491 0 0 0 501.18038,255.99891 245.1802,245.19491 0 0 0 256,10.805415 Z M 306.69766,141.39435 A 114.25957,114.78052 0 0 1 420.95697,256.17372 114.25957,114.78052 0 0 1 306.69766,370.95528 114.25957,114.78052 0 0 1 204.91556,308.0623 v 57.74913 H 134.04022 V 251.86897 c -21.82685,8.51041 -40.766709,9.13905 -42.962225,8.93946 v -71.84555 c 0,0 38.593235,-4.4e-4 42.962225,-42.96224 h 70.87534 v 58.02885 a 114.25957,114.78052 0 0 1 101.7821,-62.63514 z m 0,71.34514 a 43.238041,43.435173 0 0 0 -43.23975,43.43423 43.238041,43.435173 0 0 0 43.23975,43.43641 43.238041,43.435173 0 0 0 43.23756,-43.43641 43.238041,43.435173 0 0 0 -43.23756,-43.43423 z"
     style="opacity:1;fill:#000000;fill-opacity:1;stroke:none;stroke-width:5.25339031;stroke-linecap:butt;stroke-linejoin:bevel;stroke-miterlimit:4;stroke-dasharray:none;stroke-opacity:1" />
</svg>
