<?xml version="1.0" encoding="UTF-8" standalone="no"?>
<svg
   xmlns:dc="http://purl.org/dc/elements/1.1/"
   xmlns:cc="http://creativecommons.org/ns#"
   xmlns:rdf="http://www.w3.org/1999/02/22-rdf-syntax-ns#"
   xmlns:svg="http://www.w3.org/2000/svg"
   xmlns="http://www.w3.org/2000/svg"
   id="svg4"
   version="1.1"
   width="512"
   height="512">
  <metadata
     id="metadata10">
    <rdf:RDF>
      <cc:Work
         rdf:about="">
        <dc:format>image/svg+xml</dc:format>
        <dc:type
           rdf:resource="http://purl.org/dc/dcmitype/StillImage" />
        <dc:title></dc:title>
      </cc:Work>
    </rdf:RDF>
  </metadata>
  <defs
     id="defs8" />
  <g
     id="g944"
     transform="matrix(1.9496309,0,0,1.9496309,-1029.6756,-2618.6751)">
    <path
       style="opacity:1;fill:#000000;fill-opacity:1;stroke:none;stroke-width:0.9632113;stroke-linecap:butt;stroke-linejoin:bevel;stroke-miterlimit:4;stroke-dasharray:none;stroke-opacity:1"
       d="m 578.07656,1429.5149 a 44.95389,44.956586 0 0 0 -44.95392,44.9564 44.95389,44.956586 0 0 0 44.95392,44.9567 44.95389,44.956586 0 0 0 44.95394,-44.9567 44.95389,44.956586 0 0 0 -44.95394,-44.9564 z m 9.29545,23.9436 a 20.949539,21.045055 0 0 1 20.94949,21.0448 20.949539,21.045055 0 0 1 -20.94949,21.0453 20.949539,21.045055 0 0 1 -18.6618,-11.5315 v 10.5884 h -12.99502 v -20.8915 c -4.00196,1.5605 -7.4746,1.6757 -7.87714,1.6391 v -13.1729 c 0,0 7.07609,-10e-5 7.87714,-7.8772 h 12.99502 v 10.6397 a 20.949539,21.045055 0 0 1 18.6618,-11.4842 z m 0,13.0812 a 7.9277126,7.9638566 0 0 0 -7.92803,7.9636 7.9277126,7.9638566 0 0 0 7.92803,7.9641 7.9277126,7.9638566 0 0 0 7.92761,-7.9641 7.9277126,7.9638566 0 0 0 -7.92761,-7.9636 z"
       id="path836" />
    <path
       style="fill:#000000;fill-opacity:1;stroke:none"
       d="m 630.11978,1454.1542 v 1.6079 h 3.34652 v 37.3043 h -3.34652 v 1.6079 h 17.20499 v -1.6079 h -3.37668 v -12.8636 h 2.7737 c 11.58644,0 16.9437,-4.6677 16.9437,-12.6323 0,-9.8476 -6.85104,-13.4163 -16.42112,-13.4163 z m 13.82831,1.6079 c 5.55023,0 9.25573,2.0874 9.25573,11.4265 0,9.2429 -2.67776,11.4063 -9.25573,11.4063 z"
       id="path2998" />
    <path
       style="fill:#000000;fill-opacity:1;stroke:none"
       d="m 677.43352,1465.1585 c -8.39786,0 -13.72782,6.0349 -13.72782,15.6675 0,9.7203 5.75552,14.5016 15.00413,14.5016 7.56726,0 10.35029,-2.9421 12.01937,-5.4369 l -1.27633,-0.8241 c -1.0934,1.3505 -3.99051,3.7586 -7.60758,3.7586 -5.07175,0 -8.42731,-4.2412 -8.63263,-11.0144 h 18.00897 c 0,-12.8671 -7.08541,-16.6523 -13.78811,-16.6523 z m 0.0704,1.5778 c 1.77428,0 4.0701,3.7115 4.0701,13.145 v 0.3215 h -8.36131 v -0.3215 c 0,-7.823 1.91834,-13.145 4.29121,-13.145 z"
       id="path3002" />
    <path
       style="fill:#000000;fill-opacity:1;stroke:none"
       d="m 707.37142,1465.1485 c -7.63622,0 -13.09471,3.0531 -13.09471,7.8187 0,2.9073 2.11545,5.0047 4.68315,5.0047 2.46085,0 4.70321,-1.852 4.70321,-4.7033 0,-2.0998 -1.13793,-3.7459 -1.14565,-4.9344 -0.006,-0.9075 0.67586,-1.628 2.834,-1.628 3.70637,0 4.36155,2.7688 4.36155,5.7786 v 6.1101 c -11.30275,1.1257 -16.8231,3.5334 -16.8231,10.3311 0,4.1559 3.29929,6.3815 7.98944,6.3815 4.86994,0 7.07202,-1.6203 9.00448,-3.1556 1.36798,1.8091 2.72138,3.1556 6.32126,3.1556 4.78064,0 6.98448,-2.0702 6.98448,-2.0702 l -0.33163,-0.5126 c -2.11085,0.5041 -3.65807,0 -3.65807,-3.839 v -12.5418 c 0,-7.6868 -3.12533,-11.1954 -11.82841,-11.1954 z m 2.34155,15.0543 v 9.6477 c 0,0 -1.50135,2.03 -3.62792,2.03 -2.08951,0 -4.31129,-2.0622 -4.31129,-5.6378 0,-3.6364 3.46947,-5.6571 7.93921,-6.0399 z"
       id="path3006" />
    <path
       style="fill:#000000;fill-opacity:1;stroke:none"
       d="m 722.31344,1480.1214 c 0,-9.6901 6.19902,-14.9805 15.17893,-14.9805 6.84053,0 12.23861,3.6861 12.23861,9.0661 0,2.8053 -2.01796,4.9907 -4.79009,4.9907 -3.4707,0 -5.06599,-2.3427 -5.06599,-5.3293 0,-2.7162 1.66541,-7.2102 -1.94364,-7.2102 -4.32415,0 -6.06916,5.5387 -6.06916,13.2041 0,8.4021 2.90492,12.9919 8.84112,12.9919 3.35864,0 5.96003,-2.2257 7.27079,-3.9014 l 1.33004,1.0285 c -2.14414,2.5796 -4.46875,5.3556 -11.66876,5.3556 -8.85664,0 -15.32185,-3.9856 -15.32185,-15.2155 z"
       id="path3010" />
    <path
       style="fill:#000000;fill-opacity:1;stroke:none"
       d="m 750.23316,1494.6703 v -1.608 h 3.05508 v -37.3043 h -3.05508 v -1.6079 h 12.63843 v 14.4715 c 1.69107,-1.6484 4.49969,-3.5028 9.11378,-3.5028 5.07981,0 10.6639,2.7637 10.6639,11.0838 v 16.8597 h 3.11942 v 1.608 h -15.66137 v -1.608 h 3.11942 v -18.3305 c 0,-3.2483 -1.20834,-6.7194 -4.87445,-6.7194 -3.48841,0 -5.4807,3.5035 -5.4807,3.5035 v 21.5464 h 2.95861 v 1.608 z"
       id="path3012" />
  </g>
</svg>
