<svg xmlns="http://www.w3.org/2000/svg" height="512" width="512">
    <path d="M369.318 124.368c-72.698 0-131.633 58.934-131.633 131.633 0 21.174 5.01 41.175 13.892 58.897a14.756 14.756 0 006.348-5.67l.082-.115c.044-.065.08-.125.125-.188a19.79 19.79 0 001.925-3.982c.5-1.343.945-2.878 1.357-4.689.06-.3 10.046-54.511 10.645-57.755l-8.72.01 4.277-14.447 6.836-.025.726-3.76c.085-.512.161-1.015.255-1.539l.213-1.224c.401-2.311.864-4.931 1.326-6.787a44.222 44.222 0 011.134-4 45.77 45.77 0 011.803-4.764c1.028-2.255 2.178-4.232 3.52-6.053a33.624 33.624 0 014.822-5.242 34.49 34.49 0 014.301-3.225 33.383 33.383 0 015.257-2.724 35.312 35.312 0 016.222-1.874c2.309-.462 4.694-.7 7.091-.7h.304c2.372 0 4.607.223 6.663.667.816.161 1.579.391 2.305.608l.115.042-4.764 15.276-.198-.107a2.752 2.752 0 00-.295-.164 10.709 10.709 0 00-2.378-.774 13.66 13.66 0 00-2.854-.288h-.1c-1.05 0-2.075.1-3.068.297a14.75 14.75 0 00-2.626.79l-.113.042c-.047.01-.096.02-.14.04-.663.25-1.304.563-1.959.954a14.37 14.37 0 00-1.785 1.317c-1.034.866-1.923 1.89-2.715 3.119-.75 1.17-1.36 2.44-1.883 3.89-.484 1.309-.924 2.813-1.333 4.599-.05.207-.274 1.532-.477 2.699-.17.953-.326 1.817-.364 1.998l-.978 6.903 10.44-.042-4.303 14.522-8.53-.049-7.884 43.692-2.031 10.614c-.479 2.514-.895 4.607-1.498 6.803-.758 2.765-1.596 5.18-2.575 7.364-1.042 2.279-2.213 4.298-3.595 6.17-1.43 1.934-3.045 3.68-4.92 5.34a35.259 35.259 0 01-4.383 3.298 33.526 33.526 0 01-4.095 2.22c23.506 35.916 64.085 59.647 110.213 59.647 72.699 0 131.633-58.932 131.633-131.63 0-18.411-3.781-35.938-10.607-51.849l-.224.053c-.74.134-1.433.345-2.1.617-.672.274-1.318.6-1.939 1.003-.61.402-1.224.891-1.8 1.424-1.078.957-1.982 2.082-2.769 3.344-.771 1.27-1.43 2.67-1.994 4.204-.563 1.519-1.028 3.179-1.464 4.928-.415 1.747-.81 3.606-1.182 5.559-.231 1.162-2.113 12.314-3.634 21.36-.006 0-2.08 11.736-2.08 11.736s-.035.297-.107.739c-.038.217-.101.444-.14.652a41.342 41.342 0 00-.354 2.726c-.05.395-.075.73-.087.987a77.12 77.12 0 00-.053 1.038c.011.052.021.108.035.158-.014.913.021 1.789.158 2.586.198 1.04.528 1.979 1.04 2.78.306.435.635.827 1.025 1.161a5.58 5.58 0 001.286.863 6.917 6.917 0 001.57.528c.1.023.205.015.3.034l-4.163 13.32c-.428.01-.849.027-1.287.017-1.569-.06-3.018-.242-4.338-.561-1.31-.307-2.519-.732-3.618-1.302-.207-.108-.38-.235-.581-.353-.77-.396-1.519-.819-2.187-1.302a13.616 13.616 0 01-2.646-2.5c-1.18-1.488-1.995-3.23-2.54-5.12a21.249 21.249 0 01-3.775 4.856l-.053.071c-.097.08-.173.149-.264.229-.223.208-.448.406-.67.599-.012.008-.025.01-.036.017-.236.204-.48.415-.723.6a23.742 23.742 0 01-2.116 1.512 20.314 20.314 0 01-3.9 1.952c-1.326.483-2.7.823-4.145 1.022a27.687 27.687 0 01-4.602.211 23.439 23.439 0 01-4.321-.546c-1.374-.323-2.691-.755-3.882-1.302a16.634 16.634 0 01-3.263-1.954 12.892 12.892 0 01-2.486-2.48c-1.237-1.66-2.03-3.595-2.489-5.718-.464-2.103-.597-4.406-.528-6.792.08-2.38.367-4.836.759-7.302.404-2.451.915-4.9 1.41-7.266.49-2.353 1.012-4.802 1.622-7.216.616-2.421 1.322-4.831 2.205-7.124.88-2.294 1.917-4.455 3.211-6.424 1.29-1.967 2.822-3.733 4.674-5.19a21.043 21.043 0 013.37-2.18 23.714 23.714 0 013.881-1.549 24.951 24.951 0 014.197-.898 25.09 25.09 0 014.374-.14c1.517.09 2.96.277 4.27.58 1.31.298 2.517.719 3.633 1.283a13.46 13.46 0 013.052 2.077c.82.762 1.565 1.674 2.24 2.692a67.32 67.32 0 01.424-2.692c.418-2.288.93-4.681 1.515-7.16a155.9 155.9 0 011.8-7.163c.647-2.247 1.347-4.385 2.152-6.332.275-.671.573-1.305.881-1.937.082-.178.207-.44.388-.792.031-.057.058-.12.089-.175.115-.222.25-.458.406-.72.326-.593.677-1.175 1.04-1.726a20.762 20.762 0 012.24-2.78c2.603-2.873 6.744-5.982 12.169-6.967-11.78-20.286-28.81-37.147-49.246-48.694-19.097-10.789-41.157-16.946-64.656-16.946zm113.902 65.64c.29.499.58.997.863 1.5-.282-.5-.555-1.006-.843-1.502h-.018v.002h-.002zm7.124 14.145h.005l-.046-.104c.015.034.027.07.042.104zM259.105 327.985l-.186-.286c.062.095.12.193.182.288 0 0 .003 0 .005-.002zm-7.528-13.087l-.011.007c.104.21.218.413.324.621-.106-.208-.208-.418-.313-.627zM11.05 141.596l47.766 81.11h68.54l47.36-81.11zm170.214 0l-133.94 228.81h98.056l84.632-147.7zm211.685 80.23c2.261.013 4.316.247 6.162.66a22.79 22.79 0 014.96 1.683 18.632 18.632 0 013.821 2.427 16.661 16.661 0 012.762 2.859c1.127 1.449 1.987 2.962 2.608 4.602h.002c.63 1.643 1.014 3.39 1.196 5.315.19 1.92.174 4.01-.005 6.315-.18 2.311-.533 4.824-1.012 7.61-.473 2.814-.996 5.37-1.606 7.704-.628 2.336-1.342 4.47-2.202 6.432a30.311 30.311 0 01-3.081 5.437 29.926 29.926 0 01-4.275 4.75 31.997 31.997 0 01-3.879 2.975 31.101 31.101 0 01-4.767 2.524 33.372 33.372 0 01-5.665 1.786 33.722 33.722 0 01-6.563.716c-2.34.044-4.444-.16-6.335-.55-1.905-.38-3.596-.942-5.086-1.641a18.6 18.6 0 01-3.915-2.44 18.606 18.606 0 01-2.857-2.928 17.898 17.898 0 01-2.648-4.749c-.627-1.692-1.003-3.507-1.176-5.49-.165-1.993-.131-4.153.089-6.525.211-2.391.602-4.977 1.122-7.843.533-2.839 1.115-5.41 1.786-7.748.673-2.353 1.43-4.48 2.342-6.435.913-1.956 1.96-3.732 3.212-5.39a30.632 30.632 0 014.374-4.645 30.325 30.325 0 013.882-2.852A31.084 31.084 0 01380.93 224a30.5 30.5 0 015.583-1.61 31.901 31.901 0 016.435-.563zm-58.418.003c2.267.01 4.324.245 6.166.66a23.03 23.03 0 014.962 1.68 19.173 19.173 0 013.822 2.422 16.75 16.75 0 012.759 2.864 17.603 17.603 0 012.61 4.602c.622 1.646 1.014 3.393 1.2 5.315.193 1.916.175 4.01-.015 6.317-.176 2.309-.523 4.823-1.007 7.615-.467 2.808-.992 5.366-1.608 7.696-.61 2.337-1.332 4.47-2.2 6.426a29.13 29.13 0 01-3.077 5.446 29.95 29.95 0 01-4.274 4.749 31.603 31.603 0 01-3.882 2.974 30.708 30.708 0 01-4.769 2.522 32.766 32.766 0 01-5.66 1.788 34.46 34.46 0 01-6.566.719c-2.337.035-4.445-.162-6.34-.548-1.893-.382-3.592-.944-5.077-1.655a18.33 18.33 0 01-3.908-2.427 18.057 18.057 0 01-2.857-2.932 17.725 17.725 0 01-2.653-4.749c-.624-1.692-.999-3.507-1.166-5.5-.17-1.983-.133-4.144.084-6.513.214-2.394.602-4.977 1.127-7.843.53-2.841 1.11-5.412 1.78-7.75.671-2.356 1.434-4.48 2.339-6.44.915-1.95 1.963-3.733 3.211-5.385a30.11 30.11 0 014.368-4.645 31.879 31.879 0 013.884-2.852A30.251 30.251 0 01322.52 224a31.065 31.065 0 015.585-1.615 32.002 32.002 0 016.423-.556zm114.174 11.41c-.8 0-1.554.06-2.276.193-.712.129-1.383.327-2.03.58-.643.265-1.252.598-1.851.986-.589.383-1.167.823-1.728 1.337-1.033.918-1.914 2.008-2.664 3.219-.753 1.217-1.38 2.554-1.923 4.03-.545 1.459-1.01 3.07-1.429 4.751a114.28 114.28 0 00-1.129 5.33 107.396 107.396 0 00-.934 5.35c-.252 1.692-.418 3.308-.459 4.802-.043 1.498.046 2.883.3 4.12.256 1.228.678 2.321 1.306 3.253.373.514.79.967 1.269 1.356.459.4.965.728 1.535.984.582.27 1.218.453 1.905.582.686.132 1.433.2 2.24.193.794-.02 1.57-.095 2.294-.247a11.275 11.275 0 002.098-.632 11.62 11.62 0 001.923-1.038 13.308 13.308 0 001.764-1.39c1.02-.95 1.873-2.056 2.61-3.29.745-1.248 1.365-2.627 1.906-4.12.297-.8.561-1.645.812-2.514a38 38 0 00.827-3.026c.352-1.483.647-3.038.936-4.665.144-.825.288-1.64.406-2.426.169-.938.32-1.855.441-2.746.237-1.676.376-3.24.404-4.698.035-1.455-.053-2.8-.317-3.993-.255-1.206-.667-2.279-1.304-3.203a7.183 7.183 0 00-1.254-1.337 7.148 7.148 0 00-1.57-.967 8.356 8.356 0 00-1.903-.581 12.468 12.468 0 00-2.205-.193zm-116.277.157c-.795.002-1.537.062-2.252.195-.695.125-1.372.316-2.007.573a11.48 11.48 0 00-1.837.969c-.585.387-1.156.831-1.716 1.335a14.76 14.76 0 00-2.635 3.185 21.717 21.717 0 00-1.9 3.995c-.544 1.442-1 3.026-1.412 4.696-.402 1.661-.77 3.426-1.122 5.286-.363 1.835-.692 3.612-.934 5.29-.25 1.684-.408 3.283-.444 4.766-.05 1.476.037 2.835.284 4.066.264 1.217.676 2.304 1.3 3.23.37.498.78.957 1.25 1.342a6.39 6.39 0 001.542.978c.572.259 1.194.45 1.873.577.679.132 1.424.186 2.224.177.787-.012 1.548-.1 2.274-.235a11.6 11.6 0 002.078-.628 11.24 11.24 0 001.897-1.024c.599-.4 1.187-.86 1.736-1.387 1.015-.935 1.868-2.023 2.602-3.252.737-1.236 1.346-2.6 1.877-4.072.297-.809.558-1.66.805-2.529.302-.954.584-1.93.823-2.963.344-1.464.64-3.01.931-4.616.146-.814.279-1.61.4-2.375a62.54 62.54 0 00.428-2.753c.242-1.656.388-3.21.412-4.647.036-1.442-.06-2.774-.323-3.955-.248-1.19-.674-2.252-1.298-3.167a6.965 6.965 0 00-1.24-1.329 6.698 6.698 0 00-1.56-.947 8.24 8.24 0 00-1.87-.59 12.482 12.482 0 00-2.186-.19zm58.409 0c-.79.002-1.531.062-2.25.195-.697.125-1.374.323-2.009.575-.635.261-1.25.587-1.836.965a13.28 13.28 0 00-1.713 1.34c-1.026.916-1.886 1.983-2.63 3.182-.746 1.206-1.374 2.536-1.91 3.995-.539 1.448-.994 3.029-1.409 4.696-.401 1.661-.77 3.424-1.124 5.286-.36 1.832-.692 3.608-.936 5.292-.242 1.676-.398 3.28-.442 4.76-.041 1.478.045 2.839.295 4.072.253 1.215.673 2.302 1.291 3.228.374.498.781.957 1.251 1.342.462.391.977.718 1.537.978a8.386 8.386 0 001.875.577c.685.129 1.427.187 2.229.175a13.477 13.477 0 002.269-.237 11.73 11.73 0 002.08-.624c.655-.277 1.295-.62 1.895-1.029a12.539 12.539 0 001.746-1.38c1.014-.94 1.865-2.033 2.597-3.254.736-1.236 1.342-2.602 1.88-4.074a32.4 32.4 0 00.788-2.493c.314-.96.588-1.95.83-2.997.346-1.464.649-3.009.94-4.618.138-.82.279-1.62.4-2.396.163-.932.307-1.844.428-2.73.23-1.659.382-3.208.408-4.647.035-1.442-.057-2.774-.32-3.955-.253-1.19-.673-2.255-1.302-3.167a6.889 6.889 0 00-1.24-1.329 6.716 6.716 0 00-1.554-.947 7.609 7.609 0 00-1.875-.586 12.133 12.133 0 00-2.189-.195zm40.019 64.14h3.87v11.999l5.147-6.326h4.68l-5.546 6.235 5.958 9.236h-4.793l-3.81-6.444-1.635 1.843v4.6h-3.871zm-77.669 1.545h3.87v4.571h2.742v2.941h-2.741v7.424c0 .892.418 1.393 1.342 1.393h1.4v3.27h-2.117c-3.153 0-4.496-2.226-4.496-4.425v-7.662h-1.635v-2.94h1.635zm-14.18 3.946c4.318 0 6.76 3.148 6.76 7.397v1.724h-9.706c0 1.984 1.221 3.444 3.398 3.444 1.694 0 2.528-.478 3.51-1.46l2.348 2.292c-1.575 1.574-3.092 2.433-5.893 2.433-3.662 0-7.174-1.664-7.174-7.927 0-5.05 2.74-7.903 6.757-7.903zm61.339 0c2.287 0 3.87.896 4.82 1.905 1.399 1.453 1.757 3.207 1.757 5.998 0 2.82-.358 4.57-1.757 6.03-.95 1.008-2.533 1.897-4.82 1.897-2.294 0-3.839-.89-4.793-1.896-1.402-1.462-1.76-3.212-1.76-6.031 0-2.791.358-4.545 1.76-5.998.954-1.009 2.499-1.905 4.793-1.905zm20.85 0c1.523 0 2.59.387 3.66 1.457l-2.915 2.939c-.598-.592-1.101-.92-2.056-.92-1.192 0-2.5.89-2.5 2.852v9.325h-3.87v-15.471h3.782v1.483c.744-.891 2.23-1.665 3.9-1.665zm-101.07.002c1.548 0 2.796.503 3.662 1.368 1.248 1.247 1.575 2.7 1.575 4.392v9.89h-3.87v-9.355c0-2.106-1.337-2.822-2.56-2.822-1.22 0-2.59.716-2.59 2.822v9.356h-3.871v-15.472h3.78v1.424c1.014-1.07 2.445-1.603 3.874-1.603zm45.817.18h4.113l2.504 9.562 3.156-9.563h2.828l3.183 9.563 2.5-9.563h4.084l-4.736 15.472h-3.185l-3.24-9.713-3.248 9.713h-3.19zm-26.936 3.03c-1.306 0-2.174.68-2.589 1.6-.236.568-.327.983-.357 1.662h5.898c-.03-.68-.122-1.094-.364-1.661-.418-.921-1.274-1.602-2.588-1.602zm61.339.263c-.771 0-1.34.242-1.786.686-.807.802-.896 2.134-.896 3.742 0 1.602.089 2.966.896 3.77.445.444 1.015.684 1.786.684.773 0 1.368-.24 1.817-.684.8-.804.891-2.169.891-3.77 0-1.608-.092-2.94-.891-3.742-.45-.444-1.044-.686-1.817-.686z"/>
</svg>
