<?xml version="1.0" encoding="UTF-8" standalone="no"?>
<svg
   xmlns:dc="http://purl.org/dc/elements/1.1/"
   xmlns:cc="http://creativecommons.org/ns#"
   xmlns:rdf="http://www.w3.org/1999/02/22-rdf-syntax-ns#"
   xmlns:svg="http://www.w3.org/2000/svg"
   xmlns="http://www.w3.org/2000/svg"
   id="svg4"
   version="1.1"
   width="512"
   height="512">
  <metadata
     id="metadata10">
    <rdf:RDF>
      <cc:Work
         rdf:about="">
        <dc:format>image/svg+xml</dc:format>
        <dc:type
           rdf:resource="http://purl.org/dc/dcmitype/StillImage" />
        <dc:title></dc:title>
      </cc:Work>
    </rdf:RDF>
  </metadata>
  <defs
     id="defs8" />
  <g
     style="fill:#000000"
     id="g876"
     transform="matrix(0.7258612,0,0,0.7258612,-7.5595358,158.09065)">
    <path
       d="m 24.196824,29.495096 41.636902,71.591364 h 59.845804 l 41.73464,-71.591364 z m 149.724456,0.363486 0.002,0.0041 0.002,-0.0041 z m 0.002,0.0041 L 55.905549,232.57255 h 86.200031 l 73.88227,-131.147 z"
       style="font-weight:400;font-size:40px;font-family:'Gill Sans Ultra Bold Condensed';-inkscape-font-specification:'Gill Sans Ultra Bold Condensed,';fill:#000000;stroke-width:1.01816666"
       font-weight="400"
       font-size="40"
       id="path2-3" />
    <path
       style="opacity:1;fill:#000000;stroke:none;stroke-width:1px;stroke-linecap:butt;stroke-linejoin:miter;stroke-opacity:1"
       d="m 511.59766,47.117188 0.27343,74.021482 C 493.3524,81.773352 456.76758,82.294922 456.76758,82.294922 c -44.5782,0.160353 -60.37381,32.610118 -64.91602,45.578128 -6.05937,-15.88427 -21.90514,-44.097843 -58.38476,-45.763675 -17.29014,-0.789549 -39.09766,10.482422 -39.09766,10.482422 0,0 -10.79422,-12.774333 -44.70312,-10.082031 -27.33341,2.17022 -41.84874,26.571674 -48.45118,42.433594 -3.24981,7.80746 -4.58203,9.50976 -4.58203,9.50976 l 0.55664,75.4336 h 56.09766 c 0,0 0.0593,-22.70221 0.20117,-42.21289 0.10965,-15.07622 -1.1019,-28.98289 6.31445,-28.90039 7.29593,0.0812 6.52227,13.57982 6.81641,28.32617 0.3918,19.64216 0.26758,42.78711 0.26758,42.78711 h 56.09766 c -10e-6,0 -0.16409,-18.97698 -0.002,-37.40234 0.17686,-20.09969 -0.40196,-33.13898 7.36719,-33.71094 9.07919,-0.6684 7.31348,16.7637 7.39258,34.57226 0.0794,17.86708 -0.0254,36.54102 -0.0254,36.54102 h 57.51367 l -0.0547,-35.08008 c 14.52936,37.22235 53.97852,34.90234 53.97852,34.90234 l 66.3125,-0.20117 v -42.86328 c 15.59629,49.72869 69.25586,43.06641 69.25586,43.06641 v -36.17969 a 63.065823,63.850464 0 0 0 57.70117,38.17383 63.065823,63.850464 0 0 0 61.91211,-51.85352 h -48.01172 c -0.35489,1.06468 -1.07402,2.05303 -2.06836,2.92578 -0.99435,0.87276 -2.26456,1.63162 -3.71875,2.24024 -1.45419,0.60861 -3.0937,1.06563 -4.82813,1.33789 -1.73442,0.27225 -3.56339,0.35899 -5.39843,0.22265 -1.83505,-0.13633 -3.67558,-0.49419 -5.43164,-1.11132 -1.75607,-0.61714 -3.4283,-1.4939 -4.92579,-2.66407 -0.74873,-0.58508 -1.4531,-1.24358 -2.10351,-1.98046 -0.65041,-0.73689 -1.24576,-1.55151 -1.77539,-2.44922 -0.52963,-0.89771 -0.99446,-1.87775 -1.38086,-2.94532 -0.3864,-1.06756 -0.69529,-2.2223 -0.91602,-3.46875 h 81.50782 a 63.065823,63.850464 0 0 0 0.20312,-4.10351 63.065823,63.850464 0 0 0 -63.06445,-63.851564 63.065823,63.850464 0 0 0 -56.8711,36.394534 V 83.404297 H 568.10352 V 47.117188 Z M 640.83398,128.4668 c 0.74136,-0.0174 1.5179,0.009 2.33204,0.0859 13.0261,1.23347 13.08789,10.38672 13.08789,10.38672 h -29.63672 c 0,0 3.09646,-10.21233 14.21679,-10.47265 z m -187.74804,11.17187 c 0,0 4.19078,-0.0606 5.875,4.77149 v 7.96093 l -6.63672,0.0195 c 0,1e-5 -6.47599,0.38001 -5.89453,-7.66015 0,0 1.08227,-5.0718 6.65625,-5.0918 z m 115.01758,0.54688 h 11.79101 a 63.065823,63.850464 0 0 0 -0.53711,7.66992 63.065823,63.850464 0 0 0 0.30274,6.14648 c -4.47778,-0.35703 -10.4609,-1.76698 -11.54102,-6.6875 z"
       id="path828" />
  </g>
</svg>
