<svg xmlns="http://www.w3.org/2000/svg" height="512" width="512">
    <path d="M10.004 179.5l31.364 53.938h45.094L117.91 179.5H10zm112.805.271l-88.916 152.73h64.94l42.452-75.357a33.87 33.87 0 0 0-.617 4.44c.505 10.112.38 16.352.417 24.44l.096 23.443h39.807l.054-24.637c.046-19.895.104-24.669.276-24.844.154-.15.793-.213 2.224-.209 3.297.004 5.4.88 6.41 2.663.597 1.06.58.15.31 12.612-.264 11.999-.038 25.291.567 33.046l.117 1.369h39.126l-.008-22.867-.008-22.87.4-.877c.514-1.14 1.862-2.37 3.114-2.838.626-.238 1.353-.372 2.175-.388 1.056-.021 1.377.05 2.195.45a3.856 3.856 0 0 1 2.087 2.396c.384 1.448.521 8.59.488 25.98-.02 9.891-.03 18.647-.017 19.49l.025 1.524 20.15-.042 20.158-.042.042-11.427.041-11.435 1.703 2.283c4.424 5.901 9.278 10.646 14.294 13.985 2.317 1.544 6.548 3.644 8.89 4.42 6.385 2.12 13.568 2.504 43.467 2.32l18.342-.112.042-12.922.042-12.925 1.636 2.283c7.224 10.037 12.904 15.58 19.198 18.739 6.448 3.239 13.697 4.633 25.7 4.946l3 .083v-10.546c0-5.902.06-10.543.138-10.543.08 0 1.85 1.837 3.936 4.078 6.974 7.483 8.652 9.545 13.956 12.22 30.717 12.73 55.933 1.281 64.723-25.776.32-1.043 1.143-4.19 1.147-4.403 0-.07-7.458-.129-16.568-.129h-16.582c-2.02 1.674-4.557 3.535-7.003 4.182-3.113.768-7.237.263-10.204-1.256-3.681-2.129-5.605-4.892-7.137-8.118l3.719-.125c6.085-.196 23.196-.371 23.259-.234.025.063 7.103.113 15.721.113H502l-.096-3.756c-.18-7.17-1.49-12.675-4.478-18.74-7.116-14.477-21.327-24.164-36.769-25.065-24.957.476-33.918 9.795-41.785 21.022l-1.114 1.652-.108-1.206c-.234-2.62-.422-9.778-.422-15.909v-6.456h-12.366v-25.718h-39.87V217.2c0 12.266-.066 23.367-.137 24.678l-.13 2.387-2.316-2.554a402.057 402.057 0 0 1-4.119-4.603c-6.715-7.667-10.667-10.83-16.527-13.255-17.554-7.262-36.472-4.199-49.865 8.08-4.649 4.26-9.315 10.596-12.754 17.303-.584 1.14-.876 1.486-.876 1.043 0-.317-2.058-4.486-3.055-6.185-7.663-13.063-20.254-21.973-33.818-23.956-9.724-1.723-20.054 1.615-27.032 5.038l-3.497 1.727-1.294-.75c-5.56-3.202-12.17-5.343-18.927-6.123-12.52-1.282-26.547 3.23-34.782 10.713-.742.689-1.419 1.252-1.494 1.244-.142.233-.309.471-.459.7l-31.1-52.919zm333.07 72.352c8.668-.2 10.517 3.58 14.511 7.4-9.19-.126-17.529.7-25.947.446 2.847-3.326 7.746-7.763 11.436-7.846zm-136.548 7.612c.471-.058 1.402.03 3.414.196 1.585.126 2.883.26 2.908.284.055.067 1.887 10.43 1.853 10.467-.066.063-6.322-1.28-7.942-1.702-2.354-.618-2.224-.489-2.224-2.267 0-2.212.409-4.156 1.319-6.285.187-.434.196-.634.667-.693zm93.281 1.269v4.37c0 4.056-.02 4.373-.275 4.37-.334 0-6.536-.977-6.578-1.036-.142-.167-1.268-7.22-1.177-7.32.076-.071 1.545-.175 3.297-.225a378.8 378.8 0 0 0 3.953-.126z" fill="#010101"/>
</svg>
