<svg width="512" height="512" xmlns="http://www.w3.org/2000/svg"><path d="M255.37 10.805c-135.4-.274-245.31 109.42-245.31 244.82s109.91 245.09 245.31 244.82c135.02-.273 244.32-109.8 244.32-244.82S390.38 11.075 255.37 10.805zm15.195 167.98h10.156v66.666l-4.367-.121-4.367-.121-.407-2.113-.406-2.112-1.605 1.217c-.882.67-2.803 1.807-4.266 2.522-2.579 1.26-2.822 1.298-7.941 1.298-5.078 0-5.387-.049-8.004-1.285-6.191-2.926-9.33-8.872-9.916-18.785-1.07-18.119 7.847-28.89 22.309-26.95 3.33.446 5.533 1.201 7.676 2.63l1.138.76v-23.606zm22.314.09h.002c2.425.082 4.764 1.28 5.766 3.16 1.04 1.95 1.013 5.865-.051 7.598-1.145 1.868-2.478 2.598-5.16 2.824-4.59.388-7.434-2.169-7.434-6.684 0-3.454 1.525-5.701 4.469-6.593a7.453 7.453 0 012.408-.305zm-201.73 2.008l.545.007c.073 0 .15-.003.225 0 2.93.103 5.816.872 8.138 2.245 1.324.886 4.844 3.225 7.174 8.933l14.199 39.52V195.59l-.217.604-5.201 14.609-6.734-19.025a14.565 14.565 0 011.511-3.868 15.099 15.099 0 012.45-3.224 13.928 13.928 0 013.79-2.717 11.789 11.789 0 014.253-1.055c2.915-.18 5.854.661 8.205 2.221 3.642 2.64 4.68 5.863 4.816 11.43v39.061c-.443 6.45-4.537 9.96-8.203 11.57-1.743.585-2.479.729-4.385.729-3.217.148-7.165-1.166-9.951-4.39-1.16-1.175-3.512-6.87-3.512-6.87l-13.467-35.86c-.804-2.115-2.52-3.248-4.215-3.327-1.704-.08-3.389.905-4.119 3.03l-4.26 11.274-7.158-18.732c3.521-6.3 6.887-7.915 10.83-9.373a17.915 17.915 0 014.739-.787c.182-.007.364-.006.547-.006zm-31.342.066h.002c3.217 0 7.314 1.17 9.95 4.535 1.18 1.163 3.51 6.881 3.51 6.881l13.468 35.707c.838 2.015 2.433 3.127 4.05 3.299.11.012.223.02.335.021h.004c.11.003.22.002.332-.005 1.33-.077 2.607-.81 3.408-2.243.068-.122.13-.247.19-.373.023-.054.045-.113.07-.168.032-.078.066-.153.097-.234l4.104-11.279 7.166 18.877c-.212.38-.43.756-.657 1.127-.403.668-.84 1.315-1.308 1.94a19.462 19.462 0 01-.977 1.209l-.031.035c-.304.343-.621.674-.951.992a14.36 14.36 0 01-1.99 1.597c-.654.432-1.336.817-2.043 1.153-.462.22-.93.422-1.407.615-.482.193-.967.38-1.455.56a16.94 16.94 0 01-1.148.313 19.51 19.51 0 01-3.57.478c-3.383.152-6.8-.57-9.487-2.26-1.318-.868-4.823-3.068-7.16-8.779l-14.045-39.656v36.15l.338-.978 4.924-14.254 6.723 19.029c-.11.53-.253 1.051-.434 1.562-.179.51-.39 1.01-.633 1.493a14.136 14.136 0 01-1.767 2.71c-.342.416-.706.813-1.09 1.19a14.548 14.548 0 01-3.83 2.71c-.15.07-.3.136-.452.198l-.177.07c-.093.036-.188.074-.282.108-.1.037-.202.07-.304.103-.051.017-.102.037-.156.053-.762.24-1.548.402-2.342.485-3.042.324-6.135-.492-8.723-2.047-3.667-2.776-4.688-5.851-4.824-11.557v-38.932c.432-6.58 4.673-10.097 8.342-11.71 1.596-.58 2.34-.726 4.23-.726zm88.074.68h13.527c14.625 0 17.018.25 21.125 2.205 2.803 1.334 5.578 3.768 6.936 6.084 2.948 5.022 3.042 13.447.212 19.012-1.146 2.256-4.996 6.074-7.271 7.21-1.016.51-1.889.977-1.969 1.057-.078.078 1.414 3.027 3.322 6.56 3.535 6.55 3.884 7.193 8.563 15.847 1.471 2.72 2.68 5.147 2.68 5.38 0 .277-1.992.427-5.649.427h-5.646l-.791-1.522a348.75 348.75 0 00-2.114-3.96c-1.2-2.23-2.39-4.465-3.574-6.704-1.246-2.356-2.828-5.266-3.535-6.5a135.465 135.465 0 01-2.478-4.57l-1.2-2.336h-11.578l-.101 12.695-.1 12.695-5.181.121-5.18.121v-31.908l.002-31.914zm10.561 8.937v20.801l7.008-.181c5.16-.135 7.48-.362 8.797-.858 4.488-1.692 6.301-4.567 6.316-10.01.015-5.566-1.658-7.786-6.885-9.133-1.669-.43-4.347-.619-8.816-.619h-6.42zm56.686 8.194c3.868-.016 7.79.545 10.184 1.566 2.682 1.143 5.276 3.776 6.316 6.41.87 2.2.927 3.028 1.14 16.678s.262 14.39 1.015 14.93c.56.403 1.36.492 2.742.305l1.951-.266v6.258l-1.38.578c-2.075.867-6.664 1.183-8.776.604-1.87-.511-4.469-2.784-4.469-3.905 0-.812-.55-.731-1.39.204-1.005 1.115-5.435 3.191-7.954 3.726-1.189.253-3.901.393-6.054.31-4.957-.185-7.83-1.429-10.18-4.402-3.883-4.916-3.02-13.775 1.77-18.18 3.872-3.56 8.37-4.97 16.86-5.289l5.81-.216-.284-3.495c-.456-5.606-1.621-7.113-5.891-7.628-4.713-.568-8.034 1.079-8.986 4.459-.263.935-.608 1.855-.762 2.033-.26.3-6.706-.59-8.656-1.198-.802-.25-.765-.51.607-4.328 1.613-4.488 6.015-7.901 11.297-8.761 1.587-.26 3.333-.386 5.09-.393zm109.76.074a49.26 49.26 0 011.385.002c3.13.053 6.511.41 8.283.97 8.531 2.694 13.203 10.465 13.203 21.962 0 10.725-4.166 19.026-11.172 22.258-3.922 1.81-6.866 2.3-12.594 2.1-4.55-.16-5.66-.34-8.023-1.304-1.503-.612-3.458-1.632-4.327-2.26-3.803-2.745-6.52-7.835-7.394-13.847-.667-4.591-.277-12.04.803-15.316 2.639-8.003 8.361-13.04 16.26-14.31.97-.155 2.22-.237 3.576-.255zm-37.254.63l5.18.122 5.18.123v45.5h-10.36l-.02-18.688a6766.489 6766.489 0 010-22.873l.02-4.184zm-27.221 7.807c-3.087.6-3.97.882-5.076 1.639-3.585 2.445-5.351 8.064-4.96 15.783.26 5.118 1.087 8.05 2.83 10.033 1.74 1.979 3.347 2.56 7.085 2.56 3.534 0 6.654-1.127 8.775-3.17l1.098-1.056v-22.465l-2.336-1.24c-1.295-.687-3.414-1.436-4.754-1.684-1.34-.248-2.525-.426-2.66-.4h-.002zm65.443.24c-5.04.082-8.788 2.813-10.158 7.674-.723 2.565-.96 8.655-.473 12.107.81 5.728 2.632 8.567 6.412 9.987 6.272 2.356 11.817-.318 13.971-6.737 1.274-3.795 1.378-11.579.21-15.723-.963-3.412-3.187-6.165-5.446-6.74-1.59-.405-3.103-.59-4.515-.568zm-106.88 18.173c-6.175-.042-9.047.72-10.951 2.91-1.111 1.276-1.238 1.685-1.238 4 0 2.194.158 2.768 1.052 3.84 2.468 2.953 8.902 2.454 13.492-1.05l1.34-1.023-.119-4.326-.123-4.326-3.453-.025zM77.626 258.84c6.924-.093 14.679 1.199 22.217 3.808 4.794 1.66 9.434 3.746 9.434 3.746s-3.378 8.554-4.95 12.99c-.086.216-3.71-.967-8.195-2.672-14.37-5.832-21.837-4.067-26.596-1.56-3.556 1.873-3.981 8.06-.773 11.268 1.287 1.287 7.653 4.109 14.303 6.34 6.649 2.23 14.257 5.405 17.088 7.132 15.676 9.563 14.226 32.298-2.63 41.23-11.226 5.432-37.486 4.31-50.175-6.973 0 0 4.202-7.36 6.26-10.85.167-.294 3.556 1.026 7.421 2.892 16.391 7.913 33.246 5.154 33.246-5.443 0-5.456-3.091-7.69-19.328-13.963-20.257-7.827-27.312-16.118-24.83-29.18 1.462-7.694 7.82-14.414 16.17-17.09 3.33-1.067 7.184-1.62 11.338-1.676zm40.426.828h9.045l8.814 18.71 8.815 18.712 9.123-18.711 9.123-18.711h19.02l-5.335 9.666c-2.935 5.315-9.093 16.622-13.686 25.127l-8.35 15.463-.773 17.01-.177 18.498h-16.832v-32.26l-13.916-26.057c-7.681-14.381-13.918-26.366-13.918-26.75 0-.38 4.098-.698 9.046-.698zm65.912 0h19.793c24.432 0 31.582 2.054 40.381 11.598 7.116 7.718 9.41 14.69 9.41 28.607 0 14.999-3.54 25.21-11.52 33.246-9.008 9.068-17.86 11.598-40.59 11.598h-17.474v-85.048zm75.77 0h19.328l15.463 28.066 15.463 28.064.387-28.064.387-28.066h17.009v85.048h-19.484l-15.771-28.221-15.773-28.221v56.44h-17.008v-85.047zm75.77 0h53.502l-1.701 13.145-17.396.463-17.396.464v19.948h34.02v13.916h-34.02v23.195h37.11v14.633h-53.347l-.387-43.627-.385-42.137zm64.713 0h9.045l8.814 18.71 8.815 18.712 9.123-18.711 9.123-18.711h19.02l-5.335 9.666c-2.935 5.315-9.093 16.622-13.686 25.127l-8.35 15.463-.773 17.01-.177 18.498h-16.832v-32.26l-13.916-26.057c-7.68-14.381-13.918-26.366-13.918-26.75 0-.38 4.098-.698 9.047-.698zm-199.24 13.918v57.678l9.742-.809c18.853-1.564 25.694-9.398 25.762-29.5.043-12.834-2.839-20.172-9.525-24.254-3.78-2.308-7.808-3.115-15.54-3.115h-10.438z"/></svg>