<svg xmlns="http://www.w3.org/2000/svg" height="512" width="512">
    <path d="M36.647 283.657h43.235v7.635H63.621c-.044 40.545.1 81.095-.088 121.645-.773 11.136-5.915 19.114-12.976 23.357-5.88 4.212-12.115 6.406-18.065 5.88-8.403-.22-15.6-3.774-21.66-8.544-2.206-.939.598-2.194 1.26-3.203a683.405 683.405 0 0 1 5.029-5.06c4.87 5.087 11.062 7.724 18.42 6.965 9.5-1.58 16.662-8.254 17.851-15.74.636-4.103.237-8.267.456-12.396.466-37.549.075-75.105-.083-112.658l-17.056-.061-.062-7.815zm137.894 47.851c-19.584.435-38.747 15.907-39.975 43.485-1.233 27.689 20.523 45.372 41.7 46.224 19.56.79 31.58-10.593 37.876-21.962v19.417h22.94v-8.228H222.37v-68.246h14.713v-8.228h-22.94v16.016c-6.578-9.82-19.01-18.934-39.602-18.473zm.21 9.421c19.351-.43 26.372 5.358 34.16 15.394 7.403 9.535 5.565 27.425.681 37.28-5.09 9.873-16.39 18.855-32.954 18.188-16.288-.658-33.66-13.734-32.651-36.385 1.049-23.564 15.78-34.139 30.76-34.477zm122.777-7.292h68.145v8.003l-58.856 69.186h51.634v-15.753h7.745v22.98h-69.704v-8.776l57.57-66.606h-48.53V356.1h-8.4zm135.8 0h68.154v8.003l-58.86 69.186h51.633v-15.753H502v22.98h-69.703v-8.776l57.57-66.606h-48.531V356.1h-8.394zM417 70.027c-15.02 1.742-27.97 6.946-38.514 15.476-3.238 2.625-9.579 9.435-12.295 13.208-8.864 12.335-13.475 24.999-15.538 42.683-1.58 13.558-.324 28.25 3.555 41.563 5.098 17.49 15.533 32.072 29.75 41.58 10.338 6.912 21.076 10.519 33.963 11.405 13.95.956 24.52-1.132 35.118-6.933 11.378-6.236 20.005-16.403 25.213-29.725 1.685-4.313 3.905-11.852 3.905-13.273 0-.342-1.478-.536-4.094-.536h-4.094l-.526 2.085c-2.593 10.224-7.161 18.916-13.405 25.53-5.894 6.235-13.055 10.399-21.721 12.637-3.655.939-5.626 1.123-12.111 1.14-6.59.027-8.407-.144-12.11-1.114-19.782-5.178-30.462-20.659-35.21-51.033-1.462-9.346-1.602-32.69-.255-41.804 3.989-26.986 12.225-42.143 26.74-49.198 5.578-2.712 8.768-3.607 15.504-4.353 11.966-1.33 24.327 1.781 33.278 8.372 7.96 5.854 13.805 14.415 17.894 26.188l1.628 4.695h3.998c3.054 0 3.997-.158 3.997-.676 0-.983-2.659-9.303-4.059-12.69-5.818-14.099-16.674-25.257-29.996-30.848-8.324-3.488-21.751-5.41-30.615-4.379M96.588 72.721L79.1 116.443a55374.406 55374.406 0 0 0-30.351 76.058 15919.265 15919.265 0 0 1-14.727 36.938c-.79 1.94-1.43 3.73-1.43 3.993 0 .298 1.746.487 4.506.487h4.507l10.369-25.916 10.364-25.92 31.44.123 31.44.123 10.246 25.793 10.246 25.801h11.286c6.205 0 11.19-.166 11.071-.368a780.495 780.495 0 0 1-5.327-13.44 10357.97 10357.97 0 0 0-10.755-27.373 1811.339 1811.339 0 0 1-7.003-17.925c-.746-2.001-4.528-11.672-8.425-21.558a11554.764 11554.764 0 0 1-9.447-23.976 8057.223 8057.223 0 0 0-6.495-16.473 8049.286 8049.286 0 0 1-9.508-24.222c-7.456-19.088-6.144-16.955-10.448-16.955-3.344 0-3.669.088-4.072 1.088zm4.045 46.654c3.313 8.503 9.404 24.098 13.515 34.612 4.116 10.514 7.328 19.307 7.13 19.527-.403.43-54.577.237-55.016-.198-.263-.263 7.973-21.268 25.569-65.206 1.106-2.764 2.172-4.818 2.383-4.603.22.215 3.098 7.342 6.42 15.868m100.063 33.69v80.95l34.732-.228c38.803-.254 39.246-.285 50.769-3.918 21.317-6.714 32.69-18.408 34.639-35.626 1.553-13.66-4.467-26.36-16.179-34.139-6.011-3.993-11.87-6.582-21.027-9.28-3.489-1.032-6.249-1.975-6.126-2.094.119-.118 2.396-1.04 5.108-2.062 11.338-4.283 19.82-10.444 24.63-17.872 6.428-9.94 6.994-23.639 1.421-34.394-5.265-10.153-14.568-16.911-27.986-20.325-6.613-1.685-12.208-1.913-46.895-1.94l-33.086-.021zm59.489-71.69c9.688 1.061 14.348 2.795 18.987 7.082 2.983 2.75 5.221 6.48 6.617 11.035.72 2.344.895 4.603.895 11.629 0 10.224-.724 14.252-3.664 20.39-3.16 6.605-9.513 11.585-17.219 13.49-2.115.526-7.968.79-22.598 1.022l-19.742.316V86.02l1.216-1.597c1.47-1.94 2.514-2.558 5.23-3.085 3.015-.592 24.801-.566 30.278.031zm3.97 73.586c9.159.961 15.258 3.647 20.879 9.202 2.861 2.821 4.13 4.555 5.678 7.753 2.879 5.924 3.537 8.864 3.818 16.956.201 5.814.074 7.854-.746 11.821-2.616 12.708-9.136 19.527-22.116 23.142-3.712 1.032-4.704 1.08-23.256 1.102-18.698.026-19.44-.01-21.072-.966a10.356 10.356 0 0 1-2.786-2.62l-1.093-1.623V154.47h18.048c9.93 0 20.115.22 22.647.482" fill="#010101"/>
</svg>
