<?xml version="1.0" encoding="UTF-8" standalone="no"?>
<svg
   xmlns:dc="http://purl.org/dc/elements/1.1/"
   xmlns:cc="http://creativecommons.org/ns#"
   xmlns:rdf="http://www.w3.org/1999/02/22-rdf-syntax-ns#"
   xmlns:svg="http://www.w3.org/2000/svg"
   xmlns="http://www.w3.org/2000/svg"
   id="svg4"
   version="1.1"
   width="512"
   height="512">
  <metadata
     id="metadata10">
    <rdf:RDF>
      <cc:Work
         rdf:about="">
        <dc:format>image/svg+xml</dc:format>
        <dc:type
           rdf:resource="http://purl.org/dc/dcmitype/StillImage" />
        <dc:title></dc:title>
      </cc:Work>
    </rdf:RDF>
  </metadata>
  <defs
     id="defs8" />
  <g
     style="stroke-width:4.14183617"
     transform="matrix(0.03219185,0,0,-0.03219185,-73.803952,441.21853)"
     id="g12">
    <path
       id="path14"
       style="fill:#000000;fill-opacity:1;fill-rule:nonzero;stroke:none;stroke-width:4.14183617"
       d="m 2829.52,6894 c -114.78,-267.4 -164.55,-448 -219.08,-795 -16.3,-103.73 -13.09,-587 4.74,-714 128.9459,-699.4893 400.9941,-1222.4666 823.82,-1645.26 780.6867,-643.9531 1546.7365,-948.3249 2516,-779.66 1040,190.77 1892.11,949.3 2205.07,1962.92 34.54,111.85 57.35,208 86.39,364 26.42,141.99 27.54,161 27.54,468 0,307 -1.12,326.01 -27.5,468 -95.51,514 -274.21,913.16 -585.13,1307 C 7189.7832,8106.3683 6403.3895,8517.1321 5809,8574.49 4500.1596,8700.7915 3359.0067,8079.7933 2829.52,6894 Z M 3311,6633.4 c 49.31,-9.86 110.28,-76.4 131.4,-143.4 14.66,-46.49 54.71,-239 188.9,-908 23.88,-119 34.7,-140.47 43.85,-87 3.74,21.82 12.99,65 20.35,95 7.39,30.13 25.26,107 39.5,170 14.24,63 32.33,139.87 40,170 7.66,30.11 23.5,98 35,150 11.5,52 28.02,124.42 36.5,160 8.59,36 21.29,91.77 28.47,125 21.84,101 45.62,177.06 63.16,202 9.33,13.28 37.87,34.95 63.87,48.5 39.52,20.6 61,24.5 135,24.5 48,0 105.27,-4.89 126,-10.77 43,-12.18 101.09,-59.85 122.14,-100.23 14.16,-27.16 56.97,-197 133.31,-529 10.72,-46.59 33.8,-146 51.1,-220 40.43,-173 57.3,-247.16 65.52,-288 9.75,-48.45 30.92,-24 38.11,44 3.21,30.38 12.76,85 21.32,122 8.48,36.68 24.33,110 35,162 10.73,52.25 28.9,140 40.38,195 43.02,206 52.31,252.04 65.57,325 18.37,101 50.18,199.92 73.01,227 10.24,12.16 35.54,33.41 56.54,47.5 32.11,21.55 49,25.5 109,25.5 129,0 206.85,-56.44 237.26,-172 13.94,-52.95 10.33,-73 -66.15,-368 -63.26,-244 -145.69,-563.45 -198.69,-770 C 4920.43,4839 4924,4850.18 4875.17,4792 4820.08,4726.36 4642,4697.39 4544,4738.13 4439.15,4781.71 4399.21,4851 4349.82,5075 c -4.87,22.09 -20.46,87 -34.82,145 -14.36,58 -32.49,135.66 -40.5,173.5 -8.04,38 -17.39,73.18 -21,79 -3.62,5.85 -12.03,37.5 -19,71.5 -6.96,33.98 -20.09,92 -29.64,131 -44.8,183 -56.6,206.88 -70.17,142 -3.69,-17.64 -28.91,-124 -56.2,-237 -178.01,-737 -178.64,-739.14 -234.49,-791.5 -51.27,-48.07 -110,-67.64 -204,-67.98 -94,-0.34 -163.87,23.48 -206.69,70.48 -28.15,30.9 -70.68,124 -82.24,180 -4.99,24.2 -21.22,89 -36.07,144 -14.85,55 -32.85,124.75 -40,155 -7.15,30.25 -25.15,100 -40,155 -14.85,55 -32.82,124.75 -39.93,155 -18.56,79 -44.62,179.14 -57.25,220 -5.9,19.09 -16.5,60 -23.32,90 -6.87,30.25 -27.12,109 -45,175 -17.87,66 -34.52,131.25 -37,145 -2.46,13.67 -13.18,54 -23.67,89 -58.7,196 29.46,340.36 208.17,340.84 34,0.09 75.61,-2.76 94,-6.44 z m 2520,-23.16 c 45.12,-31.54 66.21,-57.24 89.63,-109.24 18.64,-41.39 19.37,-72 19.37,-817 0,-695 -1.71,-778.39 -16.78,-817 -21.67,-55.53 -57.22,-93.29 -116.22,-123.45 -95,-48.55 -240.86,-20.6 -299.83,57.45 -58.24,77.09 -58.17,76 -55.14,905 3.12,855 -1.06,809.56 80.97,879.55 53.98,46.05 85,54.75 183,51.3 66,-2.32 87.3,-7.25 115,-26.61 z m 714,5.81 c 65.6,-31.42 75.2,-43.05 194.77,-236.05 56.38,-91 112.32,-180.7 124.73,-200 12.35,-19.21 82.28,-132 155,-250 72.72,-118 145.59,-234.4 161.5,-258 16.19,-24 29,-44.77 29,-47 0,-10 71.96,-116.04 76,-112 2.2,2.2 5.13,220 6.5,483 2.28,437 4.07,482.51 20.44,519 40.04,89.29 102.06,125 217.06,125 87,0 142.36,-20.67 182.1,-68 53.88,-64.17 52.9,-48 52.9,-872 0,-706 -1.36,-768.86 -17.69,-815 -20.99,-59.33 -74.31,-115.12 -137.31,-143.66 -62,-28.08 -199.47,-29.02 -261,-1.78 -70.73,31.32 -71.64,32.44 -237.62,290.44 -19.3,30 -45.21,70.91 -57.01,90 -50.09,81.06 -132.08,211 -189.3,300 -33.45,52.04 -105.84,166 -160.07,252 -54.23,86 -102.62,154.74 -107,152 -4.39,-2.75 -8,-211 -8,-462 0,-288 -3.95,-471.05 -10.68,-495 -13.94,-49.62 -60.32,-100.82 -115.32,-127.32 -37.4,-18.02 -58,-21.07 -122,-18.1 -98,4.56 -153.61,37.44 -191.84,113.42 l -25.16,50 -2.5,771.5 c -2.45,756 -2.09,772.59 17.97,825.5 44.43,117.18 111.53,157.18 264.53,157.7 74,0.25 98.89,-3.96 140,-23.65" />
    <g
       style="stroke-width:4.14183617"
       transform="scale(1.09755)"
       id="g16">
      <path
         id="path18"
         style="fill:#000000;fill-opacity:1;fill-rule:nonzero;stroke:none;stroke-width:4.14183617"
         d="m 14391.2,6421.6 c -2.5,-6.52 -3.5,-532.1 -2.3,-1168.97 l 2.3,-1157.13 h 738 738 l 41,24.36 c 62,36.82 350.5,331.53 373.1,381.09 18.3,40.17 18.7,55.58 18.7,760.79 0,705.21 -0.4,720.62 -18.7,760.79 -22.6,49.56 -311.1,344.27 -373.1,381.08 l -41,24.37 -735.7,2.73 c -590.4,2.19 -736.6,0.4 -740.3,-9.11 z M 15736,5988.36 c 16.7,-13.88 55.7,-51.48 87.5,-84.28 l 57.4,-59.22 v -583.12 -583.12 l -57.4,-59.22 c -31.8,-32.8 -70.8,-70.41 -87.5,-84.28 l -30.1,-25.06 h -435.5 c -239.6,0 -442,2.46 -450.1,5.47 -13.1,4.92 -14.5,79.27 -14.5,746.21 0,584.03 2.4,741.71 11.3,745.3 6.3,2.51 208.7,4.96 450.1,5.46 l 438.7,0.92 30.1,-25.06" />
    </g>
    <path
       id="path20"
       style="fill:#000000;fill-opacity:1;fill-rule:nonzero;stroke:none;stroke-width:4.14183617"
       d="m 8953,7029 c -18.98,-18.98 -18,-2532.61 1,-2548.38 10.37,-8.6 222.5,-10.84 817.5,-8.62 l 803.5,3 45,26.97 c 69,41.37 385,363.88 409.6,418.03 18.7,41.17 20.4,65 20.4,280 0,289 2.7,281.3 -151.8,437 -93.3,94 -108.6,113.83 -99.7,129.5 5.7,10.11 54.5,61.77 107.5,113.89 144,141.61 144,141.61 144,429.61 0,215 -1.7,238.83 -20.4,280 -24.6,54.15 -340.6,376.67 -409.6,418.03 l -45,26.97 -805,3 c -626,2.33 -807.67,0.33 -817,-9 z m 1438.5,-455.5 c 24,-4.65 57,-29.86 116,-88.5 l 82.5,-82 v -82 c 0,-51 -5.3,-92.21 -14,-109 -7.7,-14.78 -59.5,-71.14 -114.5,-124.5 L 10361,5990 h -470 c -462,0 -470.18,0.34 -480.74,20 -17.19,32 -10.29,531.38 7.65,553 12.72,15.35 59.09,17 477.09,17 255,0 478.1,-2.92 496.5,-6.5 z M 10333,5520 c 21.7,0 50.5,-21.83 128.5,-97.5 55,-53.36 106.8,-109.72 114.5,-124.5 8.7,-16.79 14,-58 14,-109 v -82 l -82.5,-82 c -59,-58.64 -92,-83.85 -116,-88.5 -18.4,-3.58 -241.5,-6.5 -496.5,-6.5 -418,0 -464.37,1.65 -477.06,17 -20.73,25.06 -24.92,526 -4.66,557 l 13.72,21 439,-2.5 c 241,-1.37 451.6,-2.5 467,-2.5" />
    <path
       id="path22"
       style="fill:#000000;fill-opacity:1;fill-rule:nonzero;stroke:none;stroke-width:4.14183617"
       d="m 11870,7031.12 c -58,-18.3 -93.8,-48.12 -267.4,-223.12 -112.1,-113 -187.5,-197.15 -197.1,-220 -13.6,-32.35 -15.5,-137 -15.5,-833 0,-696 1.9,-800.65 15.4,-833 19.4,-46.62 362.6,-394.52 419.6,-425.36 39.7,-21.49 44,-21.64 615,-21.64 h 575 l 55,36.21 c 79,52.01 375.4,355.66 400,409.79 19.4,42.77 20,66 20,834 0,768 -0.6,791.23 -20,834 -24.6,54.13 -321,357.79 -400,409.79 l -55,36.21 -560,2 c -308,1.1 -571.2,-1.55 -585,-5.88 z m 1070,-546.12 90,-90 V 5115 l -90,-90 -90,-90 -387.5,-3 c -250,-1.93 -400.1,0.73 -423,7.5 -23.4,6.91 -61.8,37.5 -112.5,89.5 l -77,79 v 647 647 l 72.5,75.5 c 40.3,42 85.8,81.49 102.5,89 23.9,10.77 110.5,13 427.5,11 l 397.5,-2.5 90,-90" />
    <path
       id="path24"
       style="fill:#000000;fill-opacity:1;fill-rule:nonzero;stroke:none;stroke-width:4.14183617"
       d="m 13834.5,7027.5 c -2.5,-6.88 -3.4,-583.5 -2,-1282.5 l 2.5,-1270 802.5,-2 c 509,-1.27 804.7,1.66 808.5,8 4.2,6.98 6.9,294 4.1,441 0,4.39 -256.1,8 -568.1,8 -428,0 -571,2.96 -580,12 -9.2,9.18 -12,256 -12,1049 v 1037 l -22.5,6 c -12.4,3.31 -113.5,6 -225.5,6 -153,0 -204.1,-3.08 -207.5,-12.5" />
  </g>
</svg>
