<?xml version="1.0" encoding="UTF-8" standalone="no"?>
<svg
   xmlns:dc="http://purl.org/dc/elements/1.1/"
   xmlns:cc="http://creativecommons.org/ns#"
   xmlns:rdf="http://www.w3.org/1999/02/22-rdf-syntax-ns#"
   xmlns:svg="http://www.w3.org/2000/svg"
   xmlns="http://www.w3.org/2000/svg"
   height="512"
   width="512"
   version="1.1"
   id="svg4">
  <metadata
     id="metadata10">
    <rdf:RDF>
      <cc:Work
         rdf:about="">
        <dc:format>image/svg+xml</dc:format>
        <dc:type
           rdf:resource="http://purl.org/dc/dcmitype/StillImage" />
        <dc:title></dc:title>
      </cc:Work>
    </rdf:RDF>
  </metadata>
  <defs
     id="defs8" />
  <g
     style="fill:#000000"
     transform="matrix(0.50693785,0,0,0.50693785,185.52189,148.2303)"
     id="g98">
    <path
       id="path5243"
       class="st0"
       d="m 56.587862,130.8033 v 162.747 H 156.86686 c 3.235,0 5.603,-1.088 7.247,-2.874 l 20.728,-20.647 c 2.754,-2.729 4.534,-5.317 4.534,-8.38 v -28.501 c 0,-2.455 -1.451,-4.445 -3.239,-6.478 l -14.25,-14.25 12.955,-12.955 c 3.101,-3.034 4.603,-5.893 4.534,-8.623 v -25.06 c 0,-5.112 -1.039,-7.33 -3.279,-9.757 l -19.392,-19.271 c -3.808,-3.32 -6.375,-5.951 -11.659,-5.951 z m 28.501,29.149 h 59.592998 c 4.145,0 5.547,1.431 7.449,3.401 l 5.506,5.465 c 1.479,1.48 2.591,3.293 2.591,4.899 v 7.044 c 0,1.943 -0.759,3.2 -1.943,4.615 l -9.716,9.635 c -1.714,1.617 -2.956,3.32 -6.477,3.32 H 85.089862 v -38.379 z m 0,66.718 h 57.001998 c 3.522,0 4.764,1.703 6.477,3.32 l 9.716,9.635 c 1.185,1.416 1.943,2.672 1.943,4.615 v 7.044 c 0,1.605 -1.112,3.418 -2.591,4.899 l -5.506,5.465 c -1.902,1.97 -3.304,3.401 -7.449,3.401 H 85.087862 v -38.379 z"
       style="fill:#000000" />
    <path
       id="path5587"
       class="st0"
       d="m 245.73086,130.8033 c -5.285,0 -7.852,2.631 -11.659,5.951 l -19.392,19.271 c -2.24,2.426 -3.279,4.645 -3.279,9.757 v 95.867 c 0,3.063 1.78,5.652 4.534,8.38 l 20.728,20.647 c 1.644,1.787 4.011,2.874 7.247,2.874 h 67.771 c 3.235,0 5.603,-1.088 7.247,-2.874 l 20.728,-20.647 c 2.754,-2.729 4.534,-5.317 4.534,-8.38 v -95.867 c 0,-5.112 -1.04,-7.331 -3.279,-9.757 l -19.392,-19.271 c -3.808,-3.32 -6.375,-5.951 -11.659,-5.951 z m 9.716,29.149 h 44.695 c 4.145,0 5.547,1.431 7.449,3.401 l 5.506,5.465 c 1.479,1.48 2.591,3.293 2.591,4.899 v 77.568 c 0,1.605 -1.112,3.418 -2.591,4.899 l -5.506,5.465 c -1.902,1.97 -3.304,3.401 -7.449,3.401 h -44.695 c -4.145,0 -5.547,-1.43 -7.449,-3.401 l -5.506,-5.465 c -1.479,-1.48 -2.591,-3.293 -2.591,-4.899 v -77.568 c 0,-1.605 1.112,-3.418 2.591,-4.899 l 5.506,-5.465 c 1.902,-1.971 3.304,-3.401 7.449,-3.401 z"
       style="fill:#000000" />
    <path
       class="st0"
       d="m 621.33786,156.0253 -19.392,-19.271 c -3.808,-3.32 -6.375,-5.951 -11.659,-5.951 h -98.458 v 162.746 h 100.28 c 3.235,0 5.603,-1.088 7.247,-2.874 l 20.728,-20.647 c 2.754,-2.729 4.534,-5.317 4.534,-8.38 v -95.867 c -10e-4,-5.111 -1.04,-7.33 -3.28,-9.756 z m -25.869,95.26 c 0,1.605 -1.112,3.418 -2.591,4.899 l -5.506,5.465 c -1.902,1.97 -3.304,3.401 -7.449,3.401 h -59.593 v -105.098 0 h 59.593 c 4.145,0 5.547,1.431 7.449,3.401 l 5.506,5.465 c 1.479,1.48 2.591,3.293 2.591,4.899 z"
       id="path20-3"
       style="fill:#000000" />
    <path
       class="st0"
       d="m 394.99086,130.8033 h -28.825 v 162.746 h 103.788 v -28.501 h -75.287 z"
       id="path22-6"
       style="fill:#000000" />
  </g>
  <path
     id="path14"
     style="fill:#000000;fill-opacity:1;fill-rule:nonzero;stroke:none;stroke-width:0.13333337"
     d="m 17.283531,219.28792 c -3.69498,8.6081 -5.297169,14.42194 -7.05259,25.59252 -0.5247272,3.33926 -0.4213914,18.89661 0.152589,22.98498 4.151007,22.51785 12.908742,39.35346 26.52029,52.96396 25.131749,20.73004 49.79231,30.52833 80.99469,25.0987 33.47953,-6.14124 60.91053,-30.55972 70.98529,-63.19003 1.1119,-3.60066 1.8462,-6.6959 2.78105,-11.71783 0.85051,-4.57092 0.88656,-5.18289 0.88656,-15.06579 0,-9.88289 -0.0361,-10.49486 -0.88527,-15.06578 C 188.5915,224.34204 182.83881,211.49234 172.82972,198.8139 157.64847,180.25954 132.333,167.03629 113.1985,165.18983 71.064511,161.12396 34.328688,181.11504 17.283531,219.28792 Z m 15.499732,8.38919 c 1.58738,0.31741 3.550118,2.45946 4.230009,4.61631 0.471933,1.4966 1.761217,7.69386 6.081041,29.2302 0.768741,3.83083 1.117057,4.52199 1.411613,2.80069 0.120397,-0.70242 0.418172,-2.09247 0.655104,-3.05822 0.237897,-0.96994 0.813166,-3.44453 1.271578,-5.47262 0.458412,-2.02808 1.040762,-4.50267 1.287674,-5.47261 0.246589,-0.9693 0.756508,-3.1548 1.126715,-4.82878 0.370206,-1.67397 0.902015,-4.00531 1.175002,-5.15069 0.276528,-1.15891 0.685365,-2.95425 0.916502,-4.02399 0.70307,-3.25137 1.468592,-5.69988 2.033237,-6.50275 0.30035,-0.42751 1.219106,-1.1251 2.056094,-1.5613 1.272222,-0.66316 1.963703,-0.7887 4.345899,-0.7887 1.545209,0 3.388836,0.15741 4.056174,0.3467 1.384249,0.3921 3.254274,1.92668 3.931912,3.22659 0.455837,0.87433 1.83397,6.3418 4.291496,17.02949 0.345096,1.49982 1.088084,4.70001 1.645003,7.08221 1.301517,5.56919 1.844593,7.95653 2.10921,9.27125 0.313871,1.55969 0.995372,0.7726 1.226832,-1.41644 0.103335,-0.97799 0.410768,-2.73631 0.68633,-3.92741 0.272987,-1.18079 0.783228,-3.5411 1.126715,-5.21508 0.345418,-1.68202 0.930344,-4.50686 1.299906,-6.27741 1.384894,-6.63152 1.683956,-8.11363 2.11082,-10.46235 0.591364,-3.25138 1.615387,-6.43579 2.350327,-7.30755 0.329645,-0.39145 1.144098,-1.07553 1.820127,-1.52911 1.033681,-0.69374 1.577401,-0.82089 3.508912,-0.82089 4.152749,0 6.658884,1.8169 7.637838,5.53699 0.448755,1.70456 0.332542,2.35001 -2.129491,11.8466 -2.036456,7.85482 -4.69003,18.1385 -6.396198,24.78773 -4.055852,15.8062 -3.940927,15.44629 -5.512855,17.31921 -1.773449,2.11308 -7.506173,3.04568 -10.660975,1.73418 -3.375315,-1.40292 -4.661058,-3.63349 -6.251013,-10.84447 -0.156774,-0.71112 -0.658645,-2.80069 -1.12092,-4.66782 -0.462275,-1.86712 -1.045913,-4.36714 -1.30377,-5.58528 -0.258823,-1.22329 -0.559816,-2.3558 -0.676029,-2.54316 -0.116535,-0.18832 -0.387268,-1.20719 -0.611645,-2.30172 -0.224055,-1.09388 -0.646734,-2.96165 -0.954167,-4.21713 -1.442194,-5.89111 -1.822058,-6.65985 -2.258902,-4.57124 -0.118788,0.56786 -0.930666,3.99179 -1.809182,7.62947 -5.730471,23.72539 -5.750752,23.79428 -7.548667,25.47985 -1.650476,1.54746 -3.541103,2.17745 -6.567137,2.1884 -3.026034,0.0109 -5.275278,-0.75587 -6.653733,-2.26888 -0.906201,-0.99473 -2.27532,-3.99179 -2.647458,-5.79454 -0.160638,-0.77904 -0.683111,-2.86507 -1.16116,-4.63562 -0.478049,-1.77055 -1.057503,-4.01594 -1.287674,-4.98974 -0.230172,-0.9738 -0.809625,-3.21918 -1.287674,-4.98974 -0.478049,-1.77055 -1.056537,-4.01593 -1.285421,-4.98973 -0.597481,-2.54316 -1.4364,-5.76685 -1.842983,-7.08221 -0.189932,-0.61454 -0.531166,-1.93151 -0.750714,-2.89727 -0.221158,-0.9738 -0.873043,-3.50891 -1.448633,-5.63357 -0.575269,-2.12466 -1.111263,-4.22518 -1.191099,-4.66782 -0.07919,-0.44006 -0.424288,-1.73836 -0.761981,-2.86507 -1.889662,-6.30961 0.948372,-10.95682 6.701377,-10.97227 1.094523,-0.003 2.434026,0.0889 3.026034,0.20731 z m 81.123467,0.74557 c 1.45249,1.01533 2.13142,1.84266 2.88535,3.51663 0.60006,1.33242 0.62356,2.31782 0.62356,26.30074 0,22.37334 -0.055,25.05782 -0.54018,26.30075 -0.6976,1.78761 -1.84202,3.00317 -3.74134,3.97408 -3.05822,1.56291 -7.75373,0.66315 -9.65208,-1.84942 -1.87485,-2.48167 -1.8726,-2.44658 -1.77506,-29.13363 0.10044,-27.52403 -0.0341,-26.06123 2.60657,-28.31434 1.73772,-1.48243 2.73631,-1.7625 5.89111,-1.65144 2.12466,0.0747 2.81035,0.23339 3.70207,0.85663 z m 22.98498,-0.18704 c 2.11178,1.01147 2.42082,1.38586 6.27,7.59889 1.81498,2.92946 3.61579,5.81706 4.01529,6.43837 0.39757,0.6184 2.64875,4.24932 4.98974,8.04796 2.34099,3.79864 4.68681,7.54577 5.19898,8.3055 0.52119,0.7726 0.93357,1.44123 0.93357,1.51301 0,0.32192 2.31652,3.73555 2.44658,3.60549 0.0708,-0.0708 0.16514,-7.08221 0.20924,-15.54866 0.0734,-14.06784 0.13102,-15.53289 0.65801,-16.70757 1.28896,-2.87441 3.2855,-4.02398 6.98756,-4.02398 2.80069,0 4.58283,0.6654 5.86213,2.18904 1.7345,2.06575 1.70295,1.54521 1.70295,28.07129 0,22.72745 -0.0438,24.75103 -0.56947,26.23636 -0.67571,1.90995 -2.39218,3.70593 -4.42026,4.62468 -1.9959,0.90395 -6.42131,0.93421 -8.40208,0.0573 -2.27693,-1.00825 -2.30622,-1.04431 -7.64942,-9.34981 -0.62131,-0.96575 -1.4554,-2.28272 -1.83526,-2.89726 -1.61249,-2.60947 -4.2519,-6.79248 -6.09392,-9.65756 -1.07682,-1.67526 -3.40718,-5.34384 -5.15295,-8.11234 -1.74576,-2.7685 -3.30353,-4.98137 -3.44453,-4.89316 -0.14132,0.0885 -0.25753,6.79248 -0.25753,14.87263 0,9.27125 -0.12716,15.16397 -0.34381,15.93497 -0.44875,1.59736 -1.94181,3.24558 -3.71236,4.09866 -1.20398,0.5801 -1.86713,0.67828 -3.92741,0.58267 -3.1548,-0.14679 -4.94499,-1.20526 -6.17568,-3.65119 l -0.80995,-1.6096 -0.0805,-24.83601 c -0.0789,-24.33704 -0.0673,-24.8711 0.57849,-26.57437 1.43028,-3.77224 3.59035,-5.05992 8.51571,-5.07666 2.38219,-0.008 3.18345,0.12748 4.50686,0.76134" />
</svg>
