<svg xmlns="http://www.w3.org/2000/svg" height="512" width="512">
    <path d="M243.155 176.822A79.455 79.178 0 0 0 163.705 256a79.455 79.178 0 0 0 79.45 79.178A79.455 79.178 0 0 0 322.61 256a79.455 79.178 0 0 0-79.455-79.178zm149.338 9.831l-.272 94.076 24.478-13.206.557-57.49s22.56-.774 30.256 3.304c16.187 8.567 28.058 25.391 27.233 42.081-1.797 36.407-18.357 33.27-32.735 45.388-5.615 4.732-6.599 17.335-6.599 17.335l23.1.272c23.385-12.1 44.266-28.041 43.467-67.391-.545-26.748-15.953-53.637-50.066-62.72l-59.419-1.653zm-47.934.268c-3.266.218-4.062 1.91-4.2 3.852v127.749h81.909s-3.723-22.485-12.143-23.343c-12.762-1.298-43.743-.963-45.464-.955v-102.97c-.134-2.135-.795-4.471-4.421-4.333zm-264.006.13C41.592 187.05 10 218.316 10 256.883c0 38.568 31.588 69.842 70.553 69.842 38.965 0 70.553-31.274 70.553-69.842.791-5.727-4.422-7.118-8.697-7.98H65.684c-2.596 11.464 10.51 25.252 15.564 26.211l37.136-.272s-.616 1.767-2.069 4.384a43.182 43.182 0 0 1-7.118 9.438 40.016 40.016 0 0 1-5.87 4.848 38.928 38.928 0 0 1-7.638 4.016 42.064 42.064 0 0 1-9.576 2.479 51.92 51.92 0 0 1-11.686.226 31.156 31.156 0 0 1-6.959-1.428 33.535 33.535 0 0 1-6.49-2.931 37.466 37.466 0 0 1-5.883-4.271 41.8 41.8 0 0 1-5.137-5.443 46.08 46.08 0 0 1-4.271-6.47 49.559 49.559 0 0 1-3.262-7.335 52 52 0 0 1-2.11-8.04 53.386 53.386 0 0 1-.838-8.583 35.967 35.967 0 0 1 .57-6.992 38.09 38.09 0 0 1 1.888-6.805 41.341 41.341 0 0 1 3.107-6.452 43.713 43.713 0 0 1 4.237-5.937 45.824 45.824 0 0 1 18.474-13.077 46.77 46.77 0 0 1 7.763-2.244 22.92 22.92 0 0 1 4.962-.398c1.716.038 3.479.243 5.259.578 3.559.679 7.168 1.897 10.526 3.455 3.354 1.553 6.46 3.45 9.019 5.46 2.554 2.014 4.572 4.153 5.736 6.196l29.93-8.583c-12.742-20.994-35.658-33.853-60.395-33.882zm162.602 13.708A55.429 55.24 0 0 1 298.593 256a55.429 55.24 0 0 1-55.438 55.24A55.429 55.24 0 0 1 187.726 256a55.429 55.24 0 0 1 55.425-55.24z" fill="#010101"/>
</svg>
