<?xml version="1.0" encoding="UTF-8" standalone="no"?>
<svg
   xmlns:dc="http://purl.org/dc/elements/1.1/"
   xmlns:cc="http://creativecommons.org/ns#"
   xmlns:rdf="http://www.w3.org/1999/02/22-rdf-syntax-ns#"
   xmlns:svg="http://www.w3.org/2000/svg"
   xmlns="http://www.w3.org/2000/svg"
   id="svg4"
   version="1.1"
   width="512"
   height="512">
  <metadata
     id="metadata10">
    <rdf:RDF>
      <cc:Work
         rdf:about="">
        <dc:format>image/svg+xml</dc:format>
        <dc:type
           rdf:resource="http://purl.org/dc/dcmitype/StillImage" />
        <dc:title></dc:title>
      </cc:Work>
    </rdf:RDF>
  </metadata>
  <defs
     id="defs8" />
  <path
     id="path850"
     d="m 203.87984,455.41301 h 24.41648 c 0,0 -3.36995,47.86883 -50.58743,47.2247 -43.12848,-0.58835 -57.65469,-34.8787 -57.16672,-63.30739 0.46314,-26.98286 21.07256,-58.36464 56.28948,-58.19017 45.73219,0.22657 50.44122,41.2302 50.44122,41.2302 H 202.8564 c 0,0 -5.73322,-20.36288 -25.87854,-19.73786 -22.40992,0.69528 -30.78205,21.55704 -30.99577,37.86748 -0.39107,29.84541 13.31905,39.59798 30.11853,40.49919 25.76705,1.38227 27.77922,-25.58615 27.77922,-25.58615 z"
     style="fill:#000000;stroke:none;stroke-width:0.21937689px;stroke-linecap:butt;stroke-linejoin:miter;stroke-opacity:1" />
  <path
     d="M 110.86974,385.15222 V 498.74426 H 87.113187 V 385.15222 Z"
     style="font-style:normal;font-variant:normal;font-weight:bold;font-stretch:normal;font-size:550.33184814px;line-height:1.25;font-family:sans-serif;-inkscape-font-specification:'sans-serif Bold';letter-spacing:0px;word-spacing:0px;fill:#000000;fill-opacity:1;stroke:none;stroke-width:0.83840334"
     id="path837" />
  <path
     d="m 229.65248,404.11023 v -18.95801 h 93.83837 v 18.95801 h -35.23888 v 94.63403 h -23.75655 v -94.63403 z"
     style="font-style:normal;font-variant:normal;font-weight:bold;font-stretch:normal;font-size:550.33184814px;line-height:1.25;font-family:sans-serif;-inkscape-font-specification:'sans-serif Bold';letter-spacing:0px;word-spacing:0px;fill:#000000;fill-opacity:1;stroke:none;stroke-width:0.83840334"
     id="path841" />
  <path
     d="m 433.95882,385.15222 -40.22775,113.59204 h -24.70681 l -39.9902,-113.59204 h 26.29058 l 26.05302,85.35006 26.13218,-85.35006 z"
     style="font-style:normal;font-variant:normal;font-weight:bold;font-stretch:normal;font-size:550.33184814px;line-height:1.25;font-family:sans-serif;-inkscape-font-specification:'sans-serif Bold';letter-spacing:0px;word-spacing:0px;fill:#000000;fill-opacity:1;stroke:none;stroke-width:0.83840334"
     id="path843" />
  <g
     id="g14"
     transform="matrix(0.03121528,0,0,-0.03121528,49.339625,517.98938)"
     style="fill:#000000">
    <path
       d="m 6286.64,16291.5 c -3.1,-3.1 -61.84,-10 -131.18,-15.4 -271.75,-21.1 -559.85,-67 -823.67,-131.2 -18.04,-4.4 -49.66,-12 -70.28,-16.9 -20.49,-4.9 -69.34,-17.9 -107.76,-28.6 -38.42,-10.8 -100.01,-27.7 -135.87,-37.5 -134,-36.3 -413.15,-133.4 -518.18,-180.2 -21.56,-9.6 -44.87,-17.5 -51.54,-17.5 -6.56,0 -16.29,-3.7 -21.09,-8 -4.89,-4.4 -25.76,-14.5 -46.38,-22.6 -147.12,-57.3 -584.95,-281.1 -695.29,-355.3 -21.55,-14.4 -41.9,-26.4 -44.98,-26.4 -12.89,0 -345.77,-227.8 -462.9,-316.8 -323.52,-245.8 -644.86,-554.7 -925.12,-889.2 -129.66,-154.7 -392.56,-529.4 -501.68,-715 -280.34,-476.6 -489.4,-960.4 -625.57,-1447.7 -15.97,-57.2 -32.56,-115.6 -37.24,-131.2 -4.62,-15.4 -13.1,-48.2 -18.74,-72.6 -5.64,-24.4 -14.5,-62.3 -19.56,-83.9 -42.93,-182.5 -81.663,-407.6 -103.702,-602.5 -41.322,-365.4 -33.441,-896.1 18.305,-1232.2 5.223,-33.94 13.609,-89.96 18.935,-126.5 8.056,-55.3 28.802,-162.11 76.432,-393.56 4.18,-20.28 12.23,-55.75 17.55,-77.31 5.33,-21.55 13.75,-55.73 18.36,-74.49 60.11,-244.57 174.88,-606.65 244.46,-771.19 9.75,-23.05 30.48,-74.03 45.74,-112.45 84.59,-213.01 206.34,-456.34 361,-721.52 44.26,-75.9 234.12,-360.69 250.16,-375.25 2.54,-2.31 14.96,-19.25 27.17,-37.05 12.21,-17.81 32.34,-43.51 44.04,-56.23 12.07,-13.11 21.55,-26.31 21.55,-29.98 0,-3.55 17.4,-27.17 37.95,-51.54 20.87,-24.73 66.13,-78.71 100.56,-119.94 86.08,-103.08 383.39,-404.76 479.01,-486.05 151.8,-129.06 247.83,-205.59 342.95,-273.33 181.79,-129.43 335.75,-229.84 435.73,-284.18 33.74,-18.34 73.45,-40.57 89.02,-49.82 43.65,-25.96 369.2,-188.82 426.36,-213.29 28.11,-12.03 73.68,-32.07 100.26,-44.08 27.18,-12.28 52.04,-22.23 56.22,-22.49 4.13,-0.26 24.37,-8.48 44.98,-18.27 20.62,-9.79 41.07,-18.02 45.45,-18.28 4.48,-0.26 21.08,-6.35 37.95,-13.91 63.58,-28.5 342.96,-121.62 535.05,-178.35 120.64,-35.62 342.96,-88.81 510.69,-122.19 38.42,-7.64 89.4,-18.04 112.45,-22.94 91.71,-19.5 360.76,-59.29 506,-74.83 536.15,-57.38 940.8,-62.44 1513.33,-18.95 72.15,5.49 164.08,14.02 204.28,18.97 277.36,34.15 318.97,40.47 554.73,84.31 283.92,52.79 637.63,146.51 838.66,222.21 168.66,63.51 261.72,99.85 299.85,117.09 225.83,102.1 270.89,124.04 364.51,177.47 43.11,24.59 79.99,44.92 81.52,44.92 3.61,0 114.32,66.52 163.05,97.97 338.23,218.31 511.93,357.76 782.43,628.24 98.4,98.39 205.1,211.57 238.5,253 33.2,41.23 63,77.07 66,79.65 3.2,2.6 19.8,23.43 37.5,46.85 17.7,23.43 34.4,44.25 37.5,46.85 3.1,2.61 27.2,33.74 54.4,70.28 27.1,36.55 52,69.75 56.2,74.97 4,5.08 18,24.36 30.4,42.16 12.5,17.81 25.6,35.04 28.6,37.69 11,9.54 194.3,289.34 242.3,369.93 133.7,223.95 236.8,421.05 313.9,599.71 24.6,57.16 50.8,117.68 58.8,135.87 43.3,99.3 149.7,431.04 174.2,543.49 44,201.46 65.4,320.07 80.9,449.78 5.9,48.72 15.1,117.44 20.3,151.8 13,84.73 12.8,702.76 -0.3,803.96 -5.6,44.1 -14.5,115.3 -19.7,159.3 -9.8,81.4 -14.9,105.9 -42.1,199.6 -17.3,60 -46,87.7 -79.6,76.9 -11.2,-3.6 -39.1,-25.3 -61.3,-47.8 -88.7,-89.9 -114.3,-180 -247.5,-870.55 -74.8,-387.5 -96.3,-465.72 -247.1,-897.69 -28.1,-80.59 -63,-167.04 -77.2,-191.16 -31.5,-53.41 -95.9,-124.63 -112.8,-124.63 -40.3,0 -63,135.87 -47.8,285.8 7.2,70.48 61.2,378.57 90.4,515.38 4.4,20.72 12.6,73.09 18.3,117.13 5.7,44.04 14.6,112.32 19.9,152.74 19.7,149.92 5.4,326.92 -32.1,398.28 -20.8,39.5 -79.6,91.1 -136.8,120.1 -61.8,31.3 -154.7,36.3 -202.4,10.8 -107.1,-57.3 -166.8,-179.67 -245.9,-503.88 -83.4,-342.03 -95.9,-391.9 -117.8,-473.21 -56.4,-208.96 -144.9,-444.06 -213.5,-566.92 -100.5,-179.91 -264.2,-436.7 -334.6,-524.74 -190.23,-237.85 -372.85,-412.57 -619.29,-592.44 -59.97,-43.77 -288.47,-199.28 -320.47,-218.11 -8.76,-5.15 -88.09,-53.03 -176.17,-106.33 -146.18,-88.47 -346.9,-188.84 -377.63,-188.84 -6.56,0 -16.07,-3.52 -20.61,-7.63 -20.52,-18.56 -312.98,-111.37 -491.95,-156.11 -269.55,-67.39 -486.33,-104.43 -857.4,-146.51 -122.75,-13.92 -642.62,-14.08 -740.27,-0.23 -41.45,5.87 -110.57,15.11 -154.61,20.64 -148.05,18.61 -360.43,52.58 -468.52,74.96 -23.19,4.81 -75.9,15.48 -117.13,23.73 -88.08,17.61 -146.42,30.23 -192.1,41.54 -17.8,4.41 -45.64,10.84 -60.9,14.06 -115.26,24.37 -480.42,143.26 -593.15,193.11 -21.56,9.53 -42.33,17.41 -45.92,17.41 -14.75,0 -280.18,135.33 -359.83,183.45 -76.4,46.17 -111.5,68.97 -208.96,135.72 -151.32,103.65 -339.05,269.29 -573.88,506.37 -186.57,188.34 -254.08,262.66 -305.57,336.4 -9.09,13.01 -30.94,42.16 -49.16,65.59 -18.22,23.42 -35.92,48.41 -39.82,56.22 -3.86,7.72 -35.34,57.16 -69.81,109.64 -34.47,52.47 -71.66,111.63 -82.46,131.18 -10.97,19.84 -36.24,64.66 -57.07,101.2 -133.8,234.72 -308.11,616.58 -399.95,876.14 -149.53,422.65 -204.42,865.79 -170.6,1377.49 35.32,534.1 49.81,639.5 121.8,885.5 12.32,42.1 70.03,189.3 109.5,279.2 48.91,111.5 239.21,484.3 278.41,545.4 6.61,10.3 25.85,44 42.75,74.9 46.6,85.3 178.94,283 257.77,385.2 305.71,396.1 593.26,650.3 1199.53,1060.6 116.19,78.6 218.4,142.4 332.65,207.7 101.2,57.8 371.07,187.8 389.81,187.8 3.04,0 19.21,6.3 35.14,13.6 16.37,7.6 75.43,29 132.59,48.1 373.06,124.7 732.77,170.8 1244.4,159.4 137.75,-3 292.17,-9.8 342.02,-14.9 49.67,-5.1 131.28,-13.7 179.91,-18.9 110.58,-11.7 204,-24.7 313.92,-43.5 46.85,-8 105.15,-17.8 131.18,-22 256.75,-41.2 701.56,-172.9 899.57,-266.4 234.26,-110.6 318.43,-154.1 398.24,-206 18.04,-11.8 58.1,-37.5 89.02,-57.3 289.54,-184.9 605.72,-491.6 830.36,-805.5 55.65,-77.8 178.66,-263.1 200.36,-301.8 5.2,-9.4 28.3,-45.9 52.1,-82.4 163.3,-250.6 222.8,-370.2 331.4,-665.3 18.9,-51.6 42.3,-114.8 51.9,-140.6 60.9,-164 77.4,-211.1 120,-342 26.1,-80.3 64.6,-216.5 86.1,-304.5 52,-212.8 54.4,-223.1 70.5,-304.6 50.7,-256.7 62.2,-290.5 99.5,-290.5 21.6,0 89.4,66.6 132.8,130.3 15.9,23.4 31.7,45.2 34.5,47.8 2.8,2.6 17,20.6 31.7,40.3 47.6,63.7 103.9,105 129.9,95.2 25.9,-9.6 89.7,-118.7 142.4,-243.3 19.5,-46.1 56.3,-127.9 81.1,-180.4 39.5,-83.4 48.5,-96 68.4,-96 19.2,0 29.3,12.2 61.5,74 110.6,212.6 129.8,443.2 67.6,811.5 -15.5,91.6 -82,375.7 -146.5,625.9 -12.3,47.8 20.6,28.1 77,-45.9 30,-39.3 58.4,-76 63.6,-82 5.2,-5.9 29.1,-34.2 53.4,-63.2 24.4,-29.1 57.5,-58.1 74.1,-65.1 27.1,-11.5 31.5,-10.8 46.3,7.9 9.2,11.5 19.4,45.9 23.1,77.8 7.9,67.3 -1.6,405.7 -14,500.4 -4.7,36.2 -13.3,101.2 -19.2,145.2 -38.7,291.9 -124.2,599.7 -251.2,905.2 -40.2,96.5 -162.7,335 -208.9,406.7 -111.3,172.4 -210.6,318.2 -223.6,328.3 -3.1,2.3 -15.9,19.3 -28.1,37.1 -12.3,17.8 -25.1,35 -28.2,37.5 -3.1,2.6 -19.9,23.4 -37.9,46.9 -132.6,172.9 -444.6,486.3 -620.8,623.5 -19.7,15.3 -51.5,40.4 -71.2,56 -149,118.4 -426.3,308.6 -539.75,370.3 -30.93,16.8 -60.44,33.7 -65.6,37.5 -29.05,21.3 -426.73,224.5 -439.47,224.5 -2.56,0 -27.18,10.2 -54.35,22.5 -119.94,54.2 -137.62,61.9 -143.37,61.9 -3.69,0 -19.68,5.7 -36.54,13.1 -58.5,25.8 -206.15,81.8 -276.43,104.9 -39.36,13 -79.6,27 -89.96,31.4 -10.31,4.4 -27.17,10.1 -37.48,12.7 -10.44,2.6 -47.79,13.7 -84.33,25 -76.84,23.9 -263.48,72.7 -323.28,84.6 -23.62,4.7 -62.79,12.9 -89.02,18.7 -85.11,18.6 -138.69,28.3 -307.36,55.4 -181.73,29.3 -243.63,36.9 -475.08,58.5 -106.82,10 -1070.02,22.1 -1078.54,13.6"
       style="fill:#000000;fill-opacity:1;fill-rule:nonzero;stroke:none"
       id="path16" />
  </g>
  <path
     d="m 253.06763,108.52095 c -3.01278,0.38318 -5.98138,0.84533 -7.40031,1.15831 -2.36927,0.52066 -4.01255,0.91846 -4.73854,1.14954 -0.40629,0.1287 -1.31627,0.39488 -2.04752,0.60255 -1.93052,0.54113 -6.15923,1.98609 -7.16631,2.44532 -0.48761,0.22231 -1.46252,0.62888 -2.19377,0.91554 -1.90127,0.74295 -8.12075,3.89613 -9.50633,4.81751 -0.64351,0.42998 -1.36745,0.86581 -1.60877,0.96819 -0.39488,0.16965 -2.74952,1.69359 -4.70929,3.04787 -6.31805,4.36707 -14.09248,11.75275 -18.60842,17.67885 -8.60543,11.29353 -12.32723,21.58669 -13.99157,38.69809 -0.54318,5.5868 -0.54201,9.50926 0.005,14.47887 0.74003,6.72756 1.30983,9.33668 3.41906,15.64889 1.54266,4.61861 2.17154,6.1133 4.91814,11.7001 5.3642,10.91034 13.18133,20.44095 23.40985,28.54093 3.49424,2.76678 8.77508,5.7585 14.09863,7.98678 5.86467,2.45468 11.49534,4.01021 19.83167,5.47799 2.45702,0.43261 10.39905,1.13842 12.81161,1.13842 2.89577,0 11.40408,-0.89857 13.80612,-1.45812 0.55838,-0.13017 1.75501,-0.39459 2.63252,-0.58179 2.77877,-0.5932 11.68226,-3.33073 13.30886,-4.09211 0.32351,-0.15152 1.69652,-0.72921 3.07128,-1.29286 6.58131,-2.69717 13.33577,-6.99871 19.74392,-12.57381 9.91349,-8.62444 18.88074,-22.70668 21.07159,-33.09052 1.37008,-6.49355 1.40489,-16.42109 0.074,-21.06018 -0.85615,-2.98352 -2.63135,-5.29722 -4.5607,-5.94365 -1.32825,-0.4446 -2.73636,0.2106 -3.90637,1.81937 -1.04979,1.44496 -1.43736,2.31077 -2.88846,6.4643 -1.99282,5.7038 -2.93965,8.13157 -4.24334,10.8811 -1.05417,2.22301 -1.52042,2.87237 -2.6802,3.72648 -1.99925,1.47714 -2.27947,1.33381 -2.26455,-1.15246 0.007,-1.13199 0.18223,-3.42228 0.39195,-5.1188 0.63239,-5.11879 -0.26617,-11.08292 -1.90068,-12.61271 -0.87136,-0.81315 -2.01827,-0.79268 -2.92502,0.0556 -0.99656,0.93308 -1.43063,1.93929 -2.29937,5.33232 -0.80877,3.15903 -2.79954,7.57289 -4.64523,10.29609 -2.5632,3.78498 -8.38254,9.99481 -12.62382,13.46974 -5.56165,4.56012 -11.93411,7.66357 -19.01267,9.25946 -3.42111,0.77133 -12.66536,1.05564 -16.96514,0.52153 -11.55385,-1.43443 -19.73632,-5.47243 -26.54665,-13.10089 -5.69912,-6.38533 -8.96082,-13.39662 -10.77463,-23.1662 -0.61893,-3.33453 -0.53732,-13.8032 0.13134,-16.8189 1.20072,-5.41129 3.96692,-11.93118 6.765,-15.94138 6.59008,-9.44784 16.47257,-16.13737 26.76866,-18.11761 0.8775,-0.16965 2.3134,-0.4446 3.15902,-0.60548 2.36664,-0.44753 12.92861,-0.34515 15.70739,0.15503 4.56304,0.82193 5.30716,1.00328 8.48257,2.05921 6.28881,2.0914 10.43883,4.59522 14.77138,8.91841 4.75316,4.74146 6.44734,7.23943 10.71934,15.80976 3.52846,7.07856 5.19221,9.6906 7.95519,12.48985 2.29702,2.32832 4.14067,3.31991 6.50994,3.50126 1.43326,0.11115 1.7126,0.041 2.55939,-0.66398 0.51598,-0.42998 1.14574,-1.25776 1.3771,-1.81352 0.96731,-2.32247 0.81579,-8.01457 -0.33462,-12.57761 -0.25828,-1.02375 -0.38581,-1.95684 -0.28197,-2.06214 0.10676,-0.1053 0.55575,0.0293 1.02376,0.30713 0.468,0.27788 1.15421,0.49725 1.56489,0.49725 0.67334,0 0.7567,-0.14625 1.05096,-1.84276 0.40628,-2.34002 0.41301,-8.04967 0.0126,-10.32534 -0.73682,-4.18279 -0.96819,-5.13635 -2.07063,-8.54107 -2.056,-6.34731 -5.31887,-12.11253 -9.58472,-16.9359 -2.0952,-2.36927 -5.09978,-5.19192 -6.63659,-6.23908 -6.26307,-4.25591 -9.09683,-5.83542 -16.05839,-8.94765 -1.60057,-0.71663 -6.69831,-2.38975 -9.50633,-3.121 -4.05672,-1.05886 -6.46431,-1.50347 -12.13886,-2.25227 -2.74484,-0.36271 -11.37834,-0.34223 -14.33262,0.0322"
     style="fill:#000000;fill-opacity:1;fill-rule:nonzero;stroke:none;stroke-width:0.02925025"
     id="path18" />
</svg>
