<?xml version="1.0" encoding="UTF-8" standalone="no"?>
<svg
   xmlns:dc="http://purl.org/dc/elements/1.1/"
   xmlns:cc="http://creativecommons.org/ns#"
   xmlns:rdf="http://www.w3.org/1999/02/22-rdf-syntax-ns#"
   xmlns:svg="http://www.w3.org/2000/svg"
   xmlns="http://www.w3.org/2000/svg"
   id="svg4"
   version="1.1"
   width="512"
   height="512">
  <metadata
     id="metadata10">
    <rdf:RDF>
      <cc:Work
         rdf:about="">
        <dc:format>image/svg+xml</dc:format>
        <dc:type
           rdf:resource="http://purl.org/dc/dcmitype/StillImage" />
        <dc:title></dc:title>
      </cc:Work>
    </rdf:RDF>
  </metadata>
  <defs
     id="defs8" />
  <g
     id="g932"
     transform="matrix(0.71469494,0,0,0.71469494,-18.335461,53.847771)">
    <path
       id="path910"
       d="m 58.580725,197.85968 c -10.683049,-0.007 -19.343178,8.6589 -19.330137,19.34193 0,10.67476 8.63965,19.32621 19.326206,19.32621 10.672306,-0.009 19.324053,-8.65391 19.341927,-19.32621 -0.0068,-10.67817 -8.660797,-19.33325 -19.338979,-19.34193 z m 50.165395,0 c -10.67792,0 -19.334059,8.65617 -19.334059,19.33406 0,10.67793 8.656139,19.33408 19.334059,19.33408 10.67447,0.002 19.32839,-8.65173 19.32622,-19.32621 0.011,-10.68062 -8.64561,-19.34411 -19.32622,-19.34193 z m 50.19095,0 c -10.68062,-0.002 -19.33706,8.66132 -19.32621,19.34193 0,10.67357 8.65264,19.32621 19.32621,19.32621 10.67971,0.009 19.34193,-8.64649 19.34193,-19.32621 0.009,-10.68584 -8.65609,-19.35062 -19.34193,-19.34193 z M 58.580725,246.33782 c -10.676121,-0.0157 -19.337213,8.63829 -19.330137,19.31443 0,10.6779 8.656158,19.33405 19.334066,19.33405 10.677909,0 19.334067,-8.65615 19.334067,-19.33405 C 77.903,254.98211 69.249887,246.34 58.579742,246.33782 Z m 50.165395,0 c -10.676898,-0.0131 -19.339768,8.63752 -19.341931,19.31443 0,10.67791 8.656161,19.33406 19.334061,19.33406 10.67793,0 19.33409,-8.65615 19.33409,-19.33406 0.005,-10.6737 -8.65254,-19.32583 -19.32622,-19.31443 z m 50.19095,0 c -10.67278,-0.009 -19.32893,8.64164 -19.32621,19.31443 0,10.6779 8.65617,19.33405 19.33408,19.33405 10.6779,0 19.33406,-8.65615 19.33406,-19.33405 0.003,-10.67894 -8.66302,-19.33236 -19.34193,-19.31443 z M 58.580725,295.08817 c -10.68011,0.007 -19.3334,8.66871 -19.330137,19.34881 -0.008,10.67561 8.650596,19.33075 19.326206,19.31933 10.672306,-0.003 19.326745,-8.64703 19.341927,-19.31933 -0.01886,-10.67436 -8.66462,-19.32447 -19.338979,-19.34881 z m 50.165395,0 c -10.681124,0.009 -19.336517,8.66769 -19.341931,19.34881 -5.5e-4,10.67883 8.663108,19.33237 19.341931,19.31933 10.6787,0 19.32622,-8.63965 19.32622,-19.31933 9.7e-4,-10.67768 -8.64854,-19.33743 -19.32622,-19.34881 z m 50.19095,0 c -10.67678,0.0136 -19.32513,8.67203 -19.32621,19.34881 -0.006,10.6747 8.65152,19.32857 19.32621,19.31933 10.67882,0.0131 19.34248,-8.6405 19.34193,-19.31933 -0.003,-10.68202 -8.6599,-19.34176 -19.34193,-19.34881 z"
       style="opacity:1;fill:#010101;stroke-width:0.9826718" />
    <rect
       style="opacity:1;fill:#000000;fill-opacity:1;stroke:none;stroke-width:3.99796271;stroke-linecap:butt;stroke-linejoin:bevel;stroke-miterlimit:4;stroke-dasharray:none;stroke-opacity:1"
       id="rect42"
       width="17.66139"
       height="131.25623"
       x="208.72551"
       y="200.99097" />
    <path
       style="opacity:1;fill:#000000;fill-opacity:1;stroke:none;stroke-width:3.07325864;stroke-linecap:butt;stroke-linejoin:bevel;stroke-miterlimit:4;stroke-dasharray:none;stroke-opacity:1"
       d="m 296.39453,243.53516 c -8.99136,0.24312 -14.95785,6.49084 -17.55859,9.89843 v -8.6914 h -15.6543 v 87.50586 h 15.6543 v -67.86914 c 1.30039,-1.90138 5.41519,-7.18852 11.1289,-7.20118 9.63326,-0.0213 10.14454,8.30469 10.14454,8.30469 v 66.76563 h 15.65429 v -66.76563 c 0,0 1.9517,-7.97605 10.97656,-8.46094 9.62152,-0.51695 10.9668,8.46094 10.9668,8.46094 v 66.76563 h 15.6543 v -66.76563 c 0,0 2.15959,-21.66411 -18.85938,-21.94726 -11.19756,-0.15084 -19.36718,10.58398 -19.36718,10.58398 0,0 -7.17648,-10.89665 -18.74024,-10.58398 z"
       id="rect44" />
    <path
       style="opacity:1;fill:#000000;fill-opacity:1;stroke:none;stroke-width:3.5465014;stroke-linecap:butt;stroke-linejoin:bevel;stroke-miterlimit:4;stroke-dasharray:none;stroke-opacity:1"
       d="m 420.29883,243.16602 c -9.51256,-0.1618 -16.30141,8.16156 -17.83399,10.2207 v -8.64453 h -14.85156 v 122.82812 h 14.85156 v -44.40039 c 4.56169,6.08115 10.24138,11.68268 19.00196,10.86524 20.58649,-1.92094 21.08811,-27.99983 21.13281,-44.51563 0.0469,-17.30042 0.3465,-42.99014 -20.08399,-46.16211 -0.75382,-0.11703 -1.49329,-0.1791 -2.21679,-0.1914 z m -5.48828,14.42187 c 0.29311,0.0151 0.59277,0.0467 0.89648,0.0957 11.34926,1.83064 11.586,15.39805 11.27149,31.4043 -0.31615,16.08993 0.31164,28.97638 -11.89454,30.2832 -5.10835,0.54691 -9.54978,-2.97866 -12.61914,-13.61914 v -35.63672 c 1.53741,-4.26786 5.4962,-12.87939 12.34571,-12.52734 z"
       id="rect52" />
    <path
       style="opacity:1;fill:#000000;fill-opacity:1;stroke:none;stroke-width:3.5465014;stroke-linecap:butt;stroke-linejoin:bevel;stroke-miterlimit:4;stroke-dasharray:none;stroke-opacity:1"
       d="m 493.61133,243.16602 c -0.7235,0.0123 -1.46298,0.0744 -2.2168,0.1914 -18.72864,1.49796 -19.51203,27.46927 -20.08398,46.16211 0.0447,16.5158 1.78403,42.72768 21.13281,44.51563 8.76058,0.81744 14.44026,-4.78409 19.00195,-10.86524 v 9.07813 h 14.85157 v -87.50586 h -14.85157 v 8.64453 c -1.53258,-2.05914 -8.32142,-10.3825 -17.83398,-10.2207 z m 5.48828,14.42187 c 6.84951,-0.35205 10.80829,8.25948 12.3457,12.52734 v 35.63672 c -3.06936,10.64048 -7.51079,14.16605 -12.61914,13.61914 -12.20618,-1.30682 -11.57838,-14.19327 -11.89453,-30.2832 -0.31451,-16.00625 -0.0778,-29.57366 11.27148,-31.4043 0.30371,-0.049 0.60338,-0.0806 0.89649,-0.0957 z"
       id="path892" />
    <path
       id="path899"
       d="m 695.76334,243.16602 c -0.7235,0.0123 -1.46298,0.0744 -2.2168,0.1914 -18.72864,1.49796 -19.51203,27.46927 -20.08398,46.16211 0.0447,16.5158 1.78403,42.72768 21.13281,44.51563 8.76058,0.81744 14.44026,-4.78409 19.00195,-10.86524 v 9.07813 h 14.85157 v -87.50586 h -14.85157 v 8.64453 c -1.53258,-2.05914 -8.32142,-10.3825 -17.83398,-10.2207 z m 5.48828,14.42187 c 6.84951,-0.35205 10.80829,8.25948 12.3457,12.52734 v 35.63672 c -3.06936,10.64048 -7.51079,14.16605 -12.61914,13.61914 -12.20618,-1.30682 -11.57838,-14.19327 -11.89453,-30.2832 -0.31451,-16.00625 -0.0778,-29.57366 11.27148,-31.4043 0.30371,-0.049 0.60338,-0.0806 0.89649,-0.0957 z"
       style="opacity:1;fill:#000000;fill-opacity:1;stroke:none;stroke-width:3.5465014;stroke-linecap:butt;stroke-linejoin:bevel;stroke-miterlimit:4;stroke-dasharray:none;stroke-opacity:1" />
    <path
       style="opacity:1;fill:#000000;fill-opacity:1;stroke:none;stroke-width:3.01266336;stroke-linecap:butt;stroke-linejoin:bevel;stroke-miterlimit:4;stroke-dasharray:none;stroke-opacity:1"
       d="m 597.91406,243.31641 c -12.64022,-0.20279 -19.34485,9.98072 -21.47461,13.91797 v -12.37891 h -15.0625 v 87.39258 h 15.0625 v -58.44727 c 7.20269,-15.58129 13.3785,-13.87663 21.47461,-14.19726 z"
       id="rect901" />
    <rect
       style="opacity:1;fill:#000000;fill-opacity:1;stroke:none;stroke-width:3.51741576;stroke-linecap:butt;stroke-linejoin:bevel;stroke-miterlimit:4;stroke-dasharray:none;stroke-opacity:1"
       id="rect903"
       width="14.589998"
       height="122.98709"
       x="626.24377"
       y="244.85538" />
    <circle
       style="opacity:1;fill:#000000;fill-opacity:1;stroke:none;stroke-width:2.83986831;stroke-linecap:butt;stroke-linejoin:bevel;stroke-miterlimit:4;stroke-dasharray:none;stroke-opacity:1"
       id="path908"
       cx="633.34412"
       cy="218.32941"
       r="10.318924" />
  </g>
</svg>
