<svg xmlns="http://www.w3.org/2000/svg" height="512" width="512">
    <path d="M159.028 195.798v119.418h28.67v-74.055h1.258l41.063 74.055h31.724V195.798h-28.671v73.674h-.451l-41.487-73.674h-3.436zm239.247 0v119.418h28.67v-74.055h1.258l41.063 74.055h31.724V195.798h-28.67v73.674h-.451l-41.487-73.674h-3.436zm-117.622 0v119.418h65.475c39.851 0 53.881-49.845 18.096-65.298 23.992-13.623 22.569-51.884-21.756-54.12zm30.548 23.969l23.568.16c16.277-2.075 20.92 22.06 1.357 22.982l-24.925.32zm0 42.9l26.395.191c18.611-1.526 23.543 27.276 1.52 27.467l-27.915.381z"/>
    <path d="M28.445 194.707c-9.635-.005-17.446 7.81-17.435 17.445-.006 9.633 7.805 17.443 17.437 17.437 9.594 0 17.443-7.804 17.443-17.437 0-9.647-7.847-17.445-17.445-17.445zm45.256 0c-9.637-.007-17.453 7.807-17.449 17.445 0 9.635 7.814 17.444 17.45 17.437 9.63.001 17.435-7.807 17.43-17.437.01-9.633-7.798-17.446-17.43-17.445zm45.276 0c-9.633-.002-17.442 7.811-17.433 17.445-.004 9.63 7.803 17.439 17.433 17.437 9.635.006 17.448-7.803 17.447-17.437.006-9.638-7.809-17.452-17.447-17.445zm-90.532 43.73c-9.627-.011-17.437 7.792-17.433 17.419-.013 9.64 7.798 17.46 17.438 17.46 9.593 0 17.443-7.809 17.443-17.46 0-9.635-7.848-17.42-17.445-17.42zm45.256 0c-9.637 0-17.447 7.786-17.449 17.42-.008 9.643 7.807 17.463 17.45 17.462 9.63 0 17.43-7.81 17.43-17.461.003-9.626-7.804-17.429-17.43-17.42zm45.276 0c-9.627-.009-17.435 7.794-17.433 17.42 0 9.65 7.804 17.462 17.431 17.462 9.643.002 17.458-7.819 17.45-17.461 0-9.635-7.805-17.42-17.45-17.42zm-90.53 43.975c-9.642 0-17.437 7.832-17.437 17.456-.005 9.63 7.807 17.437 17.437 17.425 9.594 0 17.443-7.791 17.443-17.425 0-9.624-7.847-17.456-17.445-17.456zm45.254 0c-9.638 0-17.447 7.832-17.45 17.456 0 9.634 7.812 17.425 17.45 17.425 9.627.007 17.435-7.797 17.431-17.425 0-9.624-7.8-17.456-17.431-17.456zm45.274 0c-9.627 0-17.432 7.832-17.432 17.456-.002 9.627 7.805 17.431 17.432 17.425 9.644 0 17.449-7.791 17.449-17.425 0-9.624-7.805-17.456-17.45-17.456z" />
</svg>
