<?xml version="1.0" encoding="UTF-8" standalone="no"?>
<svg
   xmlns:dc="http://purl.org/dc/elements/1.1/"
   xmlns:cc="http://creativecommons.org/ns#"
   xmlns:rdf="http://www.w3.org/1999/02/22-rdf-syntax-ns#"
   xmlns:svg="http://www.w3.org/2000/svg"
   xmlns="http://www.w3.org/2000/svg"
   height="512"
   width="512"
   version="1.1"
   id="svg4">
  <metadata
     id="metadata10">
    <rdf:RDF>
      <cc:Work
         rdf:about="">
        <dc:format>image/svg+xml</dc:format>
        <dc:type
           rdf:resource="http://purl.org/dc/dcmitype/StillImage" />
        <dc:title></dc:title>
      </cc:Work>
    </rdf:RDF>
  </metadata>
  <defs
     id="defs8" />
  <g
     id="g881"
     transform="matrix(0.69194559,0,0,0.69194559,-10.003699,59.810005)">
    <path
       style="opacity:1;fill:#000000;fill-opacity:1;stroke:none;stroke-width:4.01750565;stroke-linecap:butt;stroke-linejoin:bevel;stroke-miterlimit:4;stroke-dasharray:none;stroke-opacity:1"
       d="m 244.28516,196.5293 v 65.55859 107.02539 h 41.43359 V 262.08789 h 1.81836 l 59.34375,107.02539 h 4.41211 4.54297 36.89258 V 303.00391 196.5293 h -41.43555 v 106.47461 h -0.65235 L 290.68359,196.5293 h -4.96484 z"
       id="rect821" />
    <path
       id="path835"
       d="m 590.04513,196.52939 v 65.55859 107.02539 h 41.43359 V 262.08798 h 1.81836 l 59.34375,107.02539 h 4.41211 4.54297 36.89258 V 303.004 196.52939 H 697.05294 V 303.004 h -0.65235 L 636.44356,196.52939 h -4.96484 z"
       style="opacity:1;fill:#000000;fill-opacity:1;stroke:none;stroke-width:4.01750565;stroke-linecap:butt;stroke-linejoin:bevel;stroke-miterlimit:4;stroke-dasharray:none;stroke-opacity:1" />
    <path
       style="opacity:1;fill:#000000;fill-opacity:1;stroke:none;stroke-width:5.1472435;stroke-linecap:butt;stroke-linejoin:bevel;stroke-miterlimit:4;stroke-dasharray:none;stroke-opacity:1"
       d="m 420.05664,196.5293 v 172.58398 h 94.625 c 57.59334,0 77.8688,-72.03703 26.15234,-94.36914 34.67354,-19.68752 32.6165,-74.98256 -31.4414,-78.21484 z m 44.14844,34.64062 34.06054,0.23047 c 23.52391,-2.99847 30.23257,31.88156 1.96094,33.21484 l -36.02148,0.46094 z m 0,62 38.14648,0.27539 c 26.89678,-2.20526 34.02331,39.41966 2.19532,39.69531 l -40.3418,0.55079 z"
       id="rect837" />
    <path
       id="path866"
       d="m 55.566576,194.95338 c -13.92519,-0.008 -25.214001,11.28572 -25.197777,25.21089 -0.0086,13.92159 11.279277,25.2094 25.200866,25.20087 13.864721,0 25.208584,-11.27825 25.208584,-25.20087 0,-13.9419 -11.340777,-25.21089 -25.211673,-25.21089 z m 65.404154,0 c -13.9286,-0.0103 -25.223391,11.28229 -25.217843,25.21089 -2e-6,13.92469 11.293163,25.21025 25.217843,25.20087 13.91727,0.001 25.19844,-11.28359 25.1916,-25.20087 0.0128,-13.92117 -11.27042,-25.2126 -25.1916,-25.21089 z m 65.43273,0 c -13.9224,-0.003 -25.20707,11.28852 -25.1947,25.21089 -0.006,13.91777 11.27693,25.20258 25.1947,25.20087 13.92388,0.008 25.2157,-11.27698 25.21398,-25.20087 0.008,-13.92851 -11.28546,-25.22157 -25.21398,-25.21089 z M 55.566576,258.15314 c -13.913317,-0.0179 -25.200249,11.25897 -25.19469,25.1723 -0.01834,13.93101 11.269841,25.23408 25.200866,25.23406 13.86472,0 25.208583,-11.28599 25.208583,-25.23406 0,-13.92492 -11.340774,-25.1754 -25.210899,-25.1754 z m 65.404154,0 c -13.92878,0 -25.214754,11.25047 -25.217843,25.17538 -0.01115,13.93466 11.283193,25.2362 25.217843,25.23407 13.91876,0 25.1916,-11.28522 25.1916,-25.23407 0.003,-13.91174 -11.27986,-25.18775 -25.1916,-25.17538 z m 65.43273,0 c -13.91294,-0.0143 -25.19812,11.26244 -25.1947,25.17538 0,13.94499 11.27903,25.23407 25.19162,25.23407 13.93503,0.003 25.22985,-11.29901 25.21706,-25.23407 0,-13.92491 -11.27902,-25.17538 -25.21706,-25.17538 z M 55.569665,321.70485 c -13.93496,0 -25.200866,11.31839 -25.200866,25.22711 -0.0073,13.91808 11.282806,25.19984 25.200866,25.18234 13.864721,0 25.208584,-11.25974 25.208584,-25.18234 0,-13.90872 -11.340777,-25.22711 -25.211673,-25.22711 z m 65.400305,0 c -13.92879,0 -25.214765,11.31839 -25.217854,25.22711 0,13.9226 11.289064,25.18234 25.217854,25.18234 13.91372,0.0103 25.19715,-11.2686 25.1916,-25.18234 0,-13.90872 -11.27285,-25.22711 -25.1916,-25.22711 z m 65.42964,0 c -13.91259,0 -25.19162,11.31839 -25.19162,25.22711 -0.004,13.91302 11.27858,25.1913 25.19162,25.18234 13.93803,0 25.21705,-11.25974 25.21705,-25.18234 0,-13.90872 -11.27902,-25.22711 -25.21705,-25.22711 z"
       style="fill:#010101;stroke-width:0.77184892" />
  </g>
</svg>
