<?xml version="1.0" encoding="UTF-8" standalone="no"?>
<svg
   xmlns:dc="http://purl.org/dc/elements/1.1/"
   xmlns:cc="http://creativecommons.org/ns#"
   xmlns:rdf="http://www.w3.org/1999/02/22-rdf-syntax-ns#"
   xmlns:svg="http://www.w3.org/2000/svg"
   xmlns="http://www.w3.org/2000/svg"
   id="svg4"
   version="1.1"
   width="512"
   height="512">
  <metadata
     id="metadata10">
    <rdf:RDF>
      <cc:Work
         rdf:about="">
        <dc:format>image/svg+xml</dc:format>
        <dc:type
           rdf:resource="http://purl.org/dc/dcmitype/StillImage" />
        <dc:title></dc:title>
      </cc:Work>
    </rdf:RDF>
  </metadata>
  <defs
     id="defs8" />
  <g
     style="fill:#000000;fill-opacity:1;stroke-width:4.29942322"
     id="g891"
     transform="matrix(0.31011912,0,0,-0.31011912,-63.1519,434.0267)">
    <path
       id="path14-3"
       style="fill:#000000;fill-opacity:1;fill-rule:nonzero;stroke:none;stroke-width:0.42994252"
       d="m 259.00566,687.61957 c -11.41775,-26.5996 -16.36861,-44.56478 -21.79295,-79.08253 -1.62146,-10.31855 -1.30216,-58.3918 0.47151,-71.02509 12.82684,-69.58165 39.88885,-121.60475 81.9494,-163.66208 77.65872,-64.05718 153.86144,-94.33453 250.27882,-77.55658 103.45392,18.97682 188.21747,94.4315 219.34914,195.26124 3.43585,11.12625 5.70487,20.69078 8.59362,36.20889 2.62812,14.12442 2.73957,16.01542 2.73957,46.55425 0,30.53878 -0.11165,32.4298 -2.73557,46.55424 -9.50084,51.13011 -27.27703,90.83644 -58.20577,130.01351 C 692.74238,808.21971 614.51596,849.08071 555.38915,854.78616 425.19238,867.34995 311.67629,805.57627 259.00566,687.61957 Z m 47.89517,-25.92316 c 4.90512,-0.98083 10.9701,-7.59988 13.07102,-14.26469 1.4583,-4.62459 5.44227,-23.77451 18.7908,-90.32324 2.37543,-11.8375 3.45177,-13.97323 4.36198,-8.65428 0.37205,2.17054 1.29218,6.46586 2.02432,9.45011 0.7351,2.99716 2.51271,10.64379 3.92925,16.91074 1.41651,6.26689 3.21601,13.91352 3.97896,16.91072 0.76202,2.99517 2.3377,9.74853 3.48164,14.92122 1.14398,5.17269 2.78729,12.37666 3.63082,15.91598 0.85451,3.58109 2.11786,9.12883 2.83207,12.43436 2.17252,10.04696 4.53803,17.61305 6.28285,20.09396 0.92809,1.32101 3.76711,3.4766 6.35345,4.8245 3.93122,2.0492 6.06799,2.43715 13.42909,2.43715 4.77481,0 10.47174,-0.48642 12.53384,-1.07135 4.27744,-1.21159 10.05594,-5.95356 12.14989,-9.97035 1.40858,-2.70175 5.6671,-19.59657 13.261,-52.62224 1.06635,-4.63452 3.36223,-14.52334 5.08314,-21.88448 4.02179,-17.20916 5.69994,-24.58622 6.51761,-28.64878 0.96986,-4.81955 3.07577,-2.38738 3.79098,4.37693 0.3193,3.02204 1.26931,8.45537 2.12081,12.13591 0.84354,3.64875 2.42022,10.94226 3.48164,16.11495 1.06735,5.19756 2.87483,13.92645 4.01679,19.39761 4.27941,20.49182 5.2035,25.07163 6.52255,32.32932 1.82739,10.04699 4.99165,19.88704 7.26268,22.58083 1.01862,1.20961 3.53532,3.32343 5.62429,4.72504 3.19413,2.14368 4.87427,2.53661 10.84279,2.53661 12.83225,0 20.57637,-5.61436 23.60141,-17.10968 1.38666,-5.26721 1.02756,-7.26165 -6.58027,-36.60677 -6.29277,-24.27188 -14.49248,-56.04915 -19.76467,-76.59568 -12.53284,-48.84219 -12.17774,-47.73005 -17.03507,-53.51749 -5.48009,-6.52951 -23.19456,-9.41131 -32.94309,-5.35871 -10.42995,4.33512 -14.403,11.22773 -19.31604,33.51011 -0.48447,2.1974 -2.03528,8.65432 -3.4637,14.42387 -1.42849,5.76953 -3.23197,13.49477 -4.02875,17.25888 -0.7998,3.78006 -1.72987,7.27957 -2.08897,7.85853 -0.3601,0.58192 -1.19668,3.73029 -1.89006,7.11246 -0.69233,3.38017 -1.99844,9.15166 -2.9484,13.03121 -4.4565,18.2039 -5.6303,20.57934 -6.98018,14.12543 -0.36709,-1.75473 -2.87581,-12.33487 -5.59049,-23.57554 -17.70752,-73.31301 -17.77018,-73.5259 -23.32587,-78.73438 -5.10005,-4.78178 -10.9422,-6.72852 -20.29287,-6.7623 -9.35066,-0.033 -16.30095,2.33563 -20.56046,7.01098 -2.80022,3.07375 -7.03088,12.33488 -8.1808,17.90548 -0.49639,2.40728 -2.11089,8.85325 -3.58807,14.32439 -1.47721,5.4711 -3.26775,12.40949 -3.97901,15.4186 -0.71125,3.0091 -2.50179,9.94749 -3.97901,15.41859 -1.47717,5.47115 -3.26476,12.40949 -3.97201,15.41864 -1.84625,7.85849 -4.43857,17.81991 -5.69495,21.88446 -0.58691,1.89898 -1.64131,5.96852 -2.31973,8.95273 -0.68339,3.00911 -2.69779,10.8428 -4.4764,17.40811 -1.7776,6.56536 -3.43387,13.0561 -3.68054,14.42388 -0.24473,1.3598 -1.31109,5.37165 -2.3546,8.85325 -5.83919,19.49711 2.93054,33.85729 20.70768,33.90505 3.38217,0.008 7.52129,-0.2744 9.35066,-0.64063 z m 250.67673,-2.30384 c 4.48831,-3.13743 6.58625,-5.69396 8.91595,-10.86664 1.85421,-4.11728 1.92685,-7.1622 1.92685,-81.27099 0,-69.13504 -0.17016,-77.43026 -1.66922,-81.27101 -2.15563,-5.52384 -5.69193,-9.28 -11.56096,-12.28016 -9.45012,-4.82952 -23.95952,-2.04917 -29.82554,5.71485 -5.79343,7.66851 -5.78647,7.56007 -5.48507,90.02478 0.31024,85.05101 -0.10548,80.53087 8.05447,87.49311 5.36968,4.58084 8.45537,5.44625 18.20394,5.10309 6.56533,-0.23071 8.68415,-0.72121 11.43958,-2.64703 z m 71.0251,0.57793 c 6.52555,-3.1255 7.4805,-4.28238 19.37474,-23.48103 5.60839,-9.05224 11.17302,-17.97511 12.40748,-19.89499 1.22852,-1.91089 8.18479,-13.13067 15.41864,-24.86871 7.23379,-11.73804 14.48251,-23.31693 16.06516,-25.66455 1.6105,-2.38739 2.88479,-4.45348 2.88479,-4.67531 0,-0.99475 7.1582,-11.54308 7.56008,-11.14116 0.21878,0.21878 0.51031,21.88445 0.6466,48.04633 0.22702,43.47054 0.40501,47.99765 2.03327,51.62749 3.98297,8.88211 10.15238,12.43437 21.592,12.43437 8.65433,0 14.16127,-2.05613 18.11437,-6.76428 5.35975,-6.38332 5.26226,-4.7748 5.26226,-86.74214 0,-70.22926 -0.13513,-76.48226 -1.75972,-81.07204 -2.08798,-5.90182 -7.39198,-11.45153 -13.65891,-14.29056 -6.16745,-2.79326 -19.84226,-2.88674 -25.96293,-0.17717 -7.03587,3.11554 -7.1264,3.22694 -23.63723,28.89149 -1.91987,2.98423 -4.49727,7.05376 -5.67108,8.95273 -4.98268,8.06343 -13.13864,20.98921 -18.83062,29.84245 -3.32741,5.17669 -10.52838,16.51285 -15.92293,25.06768 -5.39451,8.55486 -10.20809,15.39275 -10.64379,15.12021 -0.43673,-0.27356 -0.7958,-20.98924 -0.7958,-45.9574 0,-28.64878 -0.39304,-46.85766 -1.0624,-49.2401 -1.3867,-4.93595 -6.00033,-10.02903 -11.47147,-12.66515 -3.72035,-1.79252 -5.76952,-2.09593 -12.13592,-1.80047 -9.74854,0.45357 -15.28032,3.72434 -19.08325,11.28244 l -2.50279,4.97373 -0.24885,76.74487 c -0.24391,75.20303 -0.20807,76.85332 1.78753,82.11654 4.4197,11.6565 11.09446,15.63547 26.31414,15.68722 7.3611,0.0247 9.83703,-0.39388 13.92647,-2.35261" />
    <path
       id="path16"
       style="fill:#000000;fill-opacity:1;fill-rule:nonzero;stroke:none;stroke-width:0.42994231"
       d="m 847.2,701.339 c -1.308,-0.565 -1.666,-5.039 -0.62,-7.739 0.504,-1.3 2.37,-1.6 9.97,-1.6 5.1,0 9.603,-0.409 9.906,-0.9 0.742,-1.2 0.742,-232 0,-233.2 -0.305,-0.493 -4.756,-0.9 -9.856,-0.9 -10.2,0 -10.6,-0.23 -10.6,-6.1 0,-2.2 0.543,-3.033 2.25,-3.45 1.236,-0.302 25.45,-0.415 53.75,-0.25 l 51.5,0.3 v 4.5 4.5 l -9.95,0.5 c -9.6,0.482 -9.975,0.588 -10.65,3 -0.386,1.378 -0.745,18.95 -0.8,39.15 -0.077,28.2 0.188,36.869 1.15,37.6 0.686,0.521 8.25,1.251 16.75,1.616 34.7,1.491 50.04,4.523 67,13.244 29.44,15.135 43.2,42.59 38.98,77.79 -2.45,20.4 -8.22,33.041 -20.88,45.7 -14.1,14.1 -28.6,20.256 -58,24.625 -8.462,1.257 -22.5,1.636 -69.6,1.875 -32.5,0.165 -59.584,0.048 -60.3,-0.261 z M 957,688.954 c 21.601,-6.799 30.398,-21.854 33.16,-56.754 0.855,-10.8 0.849,-17.85 -0.025,-28.2 -2.93,-34.7 -11.826,-48.439 -34.835,-53.804 -10.4,-2.424 -19.436,-3.329 -21.4,-2.142 -1.182,0.714 -1.439,11.596 -1.65,69.796 -0.168,46.4 0.093,69.849 0.8,71.7 l 1.05,2.75 8.2,-0.65 c 4.5,-0.357 11.133,-1.573 14.7,-2.696" />
    <g
       style="fill:#000000;fill-opacity:1;stroke-width:4.29942322"
       transform="scale(0.111785)"
       id="g18">
      <path
         id="path20"
         style="fill:#000000;fill-opacity:1;fill-rule:nonzero;stroke:none;stroke-width:4.29942322"
         d="m 14319.4,6274.53 c -3.5,-3.5 -6.2,-23.26 -6.2,-44.73 v -38.47 l 82.7,-2.68 82.8,-2.68 V 5139.32 4092.67 l -83.2,-2.69 -83.2,-2.68 2.6,-42.04 2.7,-42.05 424.1,-2.24 c 305.9,-1.61 427.2,0.52 435.6,7.65 12.6,10.68 16,42 7.2,65.26 -4.4,11.58 -20.6,14.31 -85,14.31 -57.3,0 -79.6,3.15 -79.6,11.19 0,6.14 0,280.45 0,608.75 v 597.58 l 26.4,38.46 c 133.7,194.13 397.6,208.89 495.8,27.74 8,-14.76 23.2,-59.05 33.7,-98.41 18.6,-69.04 19.4,-90.8 23.3,-617.7 3.4,-461.6 2.1,-547.73 -8.5,-556.42 -6.8,-5.6 -47,-11.51 -88.1,-12.97 l -75.6,-2.69 v -40.25 -40.26 h 433.9 433.8 l 2.7,42.05 2.7,42.04 -83.2,2.68 -83.2,2.69 -4.9,527.8 c -4.7,507.22 -5.7,530.76 -24.8,603.83 -31.7,120.77 -74.6,200.01 -148.3,273.74 -69.3,69.28 -117.2,97.59 -220.1,130.03 -59.2,18.67 -85,21.15 -219.1,21.15 -134.2,0 -160,-2.47 -219.2,-21.03 -89.5,-28.05 -174.5,-72.11 -224.6,-116.27 -23.2,-20.55 -45.4,-37.14 -49.6,-37.14 -4.2,0 -6.4,177.57 -4.9,394.96 2.1,314.88 0.3,396.45 -9,402.34 -13.4,8.54 -681.2,10.9 -689.7,2.45" />
    </g>
    <path
       id="path22"
       style="fill:#000000;fill-opacity:1;fill-rule:nonzero;stroke:none;stroke-width:0.42994231"
       d="m 1127,631.307 c -7.5,-1.254 -18.3,-4.859 -25,-8.348 -28.89,-15.037 -44.5,-45.359 -44.5,-86.459 0,-53.5 23.43,-83.12 72,-91.041 11.6,-1.892 37.06,-1.918 46.7,-0.048 19.4,3.762 37.07,14.305 46.24,27.589 2.98,4.318 2.66,5.834 -1.74,8.185 -1.63,0.87 -2.7,0.235 -7.5,-4.449 -7.47,-7.293 -15.3,-12.109 -24.9,-15.324 -7.15,-2.394 -8.8,-2.574 -19.8,-2.162 -11.1,0.416 -12.52,0.7 -19,3.79 -13.98,6.671 -23.92,20.16 -28.43,38.56 -2.48,10.1 -4.4,23.133 -3.7,25 0.45,1.182 9.13,1.439 55.83,1.65 l 55.3,0.25 0.29,5.2 c 0.43,7.525 -2.39,27.6 -5.32,37.9 -3.95,13.9 -10.53,26.337 -18.31,34.6 -12.11,12.879 -26.06,20.845 -42.36,24.196 -7.2,1.481 -29.07,2.037 -35.8,0.911 z m 22.6,-10.843 c 10.48,-6.131 17.03,-29.664 18.98,-68.164 l 0.72,-14.3 -25.9,0.25 -25.9,0.25 -0.33,4.5 c -0.43,5.838 1.48,28 3.4,39.5 3.93,23.5 9.73,35.891 18.43,39.351 3.95,1.573 6,1.305 10.6,-1.387" />
    <path
       id="path24"
       style="fill:#000000;fill-opacity:1;fill-rule:nonzero;stroke:none;stroke-width:0.42994231"
       d="m 1305.7,630.996 c -22.5,-3.505 -39.03,-11.993 -48.88,-25.096 -5.32,-7.069 -7.82,-14.5 -7.82,-23.2 0,-6.1 0.5,-8.193 3.26,-13.7 5.75,-11.438 15.34,-16.719 28.64,-15.765 14.84,1.065 25.13,11.965 25.93,27.465 0.3,5.813 -0.23,9.3 -2.73,18.1 -3.62,12.7 -3.83,16.467 -1.1,19.2 5.39,5.391 20.1,6.865 28.6,2.865 8.94,-4.21 11.83,-12.365 13.38,-37.865 1.39,-22.8 1.33,-33.653 -0.18,-34.646 -0.72,-0.472 -5.1,-1.35 -9.8,-1.965 -31.3,-4.09 -50.55,-8.807 -65.6,-16.075 -19.02,-9.187 -28.38,-24.014 -28.35,-44.914 0.03,-21.9 10.42,-34.75 32.25,-39.911 8.11,-1.917 27.5,-1.932 36.5,-0.028 12.6,2.664 28.8,10.098 33.64,15.439 2.48,2.731 3.95,2.6 5.62,-0.5 2.37,-4.4 10.74,-11.146 16.74,-13.492 7.82,-3.059 28.5,-3.882 38.5,-1.532 8.6,2.021 20.96,7.147 23.21,9.624 3.11,3.417 1.49,4.5 -6.71,4.5 -6.5,0 -7.95,0.324 -10,2.24 -4.97,4.639 -5.12,6.26 -5.85,63.76 -0.72,56.9 -0.94,59.595 -5.81,72.4 -6.29,16.54 -17.44,25.793 -37.64,31.242 -6.78,1.829 -11.2,2.204 -29,2.458 -11.6,0.166 -23.6,-0.104 -26.8,-0.604 z m 40.05,-124.346 0.25,-29.85 -3.8,-3.525 c -5.6,-5.194 -14.31,-9.275 -19.8,-9.275 -10.23,0 -19.07,7 -23.75,18.8 -4.32,10.9 -2.95,27.217 3.06,36.3 6.33,9.576 25.39,18.101 39.29,17.571 l 4.5,-0.171 0.25,-29.85" />
    <path
       id="path26"
       style="fill:#000000;fill-opacity:1;fill-rule:nonzero;stroke:none;stroke-width:0.42994231"
       d="m 1494,629.921 c -31.3,-6.739 -53.84,-25.613 -63.8,-53.421 -4.23,-11.79 -5.69,-22 -5.65,-39.5 0.03,-18.5 2.19,-31.373 7.35,-43.8 10.91,-26.323 33.6,-42.504 67,-47.787 13.2,-2.088 41.39,-1.517 50.6,1.023 15.4,4.248 32.33,15.49 39.99,26.564 l 2.91,4.2 -2.8,2.418 c -3.51,3.036 -4.01,2.982 -6.64,-0.718 -3.14,-4.413 -11.96,-10.564 -21.86,-15.239 -8.31,-3.925 -9,-4.074 -20.6,-4.462 -13.5,-0.452 -20.8,1.248 -29.7,6.915 -20.4,12.993 -29.64,45.986 -25.93,92.586 3.49,43.7 15.48,64.3 37.43,64.3 8.3,0 11.93,-2.23 13.69,-8.4 1.07,-3.756 1.07,-7.5 0.02,-20.4 -1.72,-21.1 -1.13,-28.849 2.65,-35 5.62,-9.135 18.04,-14.887 30.24,-14.009 15.46,1.114 25.78,12.409 26.88,29.409 1.51,23.409 -18.58,46.525 -47.28,54.411 -11.96,3.285 -41.2,3.773 -54.5,0.91" />
  </g>
</svg>
