<svg xmlns="http://www.w3.org/2000/svg" width="512" height="512">
    <path d="M17.17 220.783c-3.54 8.249-5.076 13.82-6.758 24.525-.503 3.2-.404 18.108.147 22.026 3.977 21.579 12.37 37.712 25.414 50.755 24.083 19.865 47.715 29.255 77.616 24.051 32.083-5.885 58.37-29.285 68.024-60.554 1.066-3.45 1.77-6.416 2.665-11.229.815-4.38.85-4.967.85-14.437 0-9.47-.035-10.057-.849-14.438-2.946-15.856-8.459-28.17-18.05-40.32-14.548-17.78-38.808-30.451-57.144-32.22-40.377-3.897-75.58 15.26-91.914 51.84zm14.854 8.039c1.521.304 3.402 2.357 4.053 4.424.453 1.434 1.688 7.373 5.828 28.01.737 3.672 1.07 4.334 1.353 2.685.115-.674.4-2.006.627-2.931.228-.93.78-3.3 1.219-5.244.44-1.944.997-4.315 1.234-5.245.236-.929.725-3.023 1.08-4.627.354-1.604.864-3.838 1.126-4.936.265-1.11.656-2.831.878-3.856.674-3.116 1.407-5.462 1.948-6.232.288-.41 1.169-1.078 1.97-1.496 1.22-.635 1.882-.756 4.165-.756 1.481 0 3.248.151 3.887.333 1.327.375 3.119 1.846 3.768 3.092.437.837 1.758 6.077 4.113 16.319.33 1.437 1.042 4.504 1.576 6.787 1.247 5.336 1.768 7.624 2.021 8.884.301 1.495.954.74 1.176-1.357.099-.937.394-2.622.658-3.764.261-1.131.75-3.393 1.08-4.997.33-1.612.89-4.32 1.245-6.016 1.327-6.355 1.614-7.775 2.023-10.026.566-3.116 1.548-6.167 2.252-7.003.316-.375 1.096-1.03 1.744-1.465.99-.665 1.512-.787 3.363-.787 3.98 0 6.381 1.742 7.32 5.306.43 1.634.318 2.252-2.042 11.353a11251.52 11251.52 0 00-6.129 23.754c-3.887 15.147-3.777 14.802-5.283 16.596-1.7 2.025-7.193 2.92-10.216 1.662-3.235-1.344-4.467-3.482-5.99-10.392a262.09 262.09 0 00-1.075-4.473 202.23 202.23 0 01-1.249-5.352c-.248-1.173-.536-2.258-.648-2.437-.112-.18-.37-1.157-.586-2.206-.215-1.048-.62-2.838-.914-4.041-1.382-5.646-1.746-6.382-2.165-4.38-.114.543-.892 3.824-1.734 7.31-5.491 22.736-5.51 22.802-7.234 24.417-1.581 1.483-3.393 2.087-6.293 2.098-2.9.01-5.055-.725-6.376-2.175-.868-.953-2.18-3.825-2.537-5.553-.154-.746-.655-2.745-1.113-4.442a204.245 204.245 0 01-1.234-4.781c-.22-.934-.776-3.085-1.234-4.782a196.521 196.521 0 01-1.231-4.782c-.573-2.437-1.377-5.526-1.767-6.786a47.799 47.799 0 01-.719-2.777c-.212-.933-.837-3.362-1.388-5.398-.551-2.036-1.065-4.05-1.142-4.474-.075-.421-.406-1.665-.73-2.745-1.81-6.047.91-10.5 6.422-10.515 1.049-.002 2.333.085 2.9.199zm77.74.714c1.391.973 2.042 1.766 2.765 3.37.575 1.277.597 2.222.597 25.204 0 21.44-.053 24.013-.518 25.204-.668 1.713-1.765 2.878-3.585 3.808-2.93 1.498-7.43.636-9.25-1.772-1.796-2.378-1.794-2.345-1.7-27.919.096-26.376-.033-24.974 2.498-27.133 1.665-1.42 2.622-1.689 5.645-1.582 2.036.071 2.693.223 3.548.82zm22.026-.179c2.024.97 2.32 1.328 6.008 7.282a838.502 838.502 0 003.848 6.17c.381.593 2.538 4.072 4.782 7.712 2.243 3.64 4.491 7.231 4.982 7.96.5.74.894 1.38.894 1.45 0 .308 2.22 3.579 2.345 3.454.068-.068.158-6.787.2-14.9.07-13.48.126-14.885.631-16.01 1.235-2.755 3.148-3.857 6.696-3.857 2.684 0 4.392.638 5.618 2.098 1.662 1.98 1.632 1.48 1.632 26.9 0 21.78-.042 23.72-.546 25.143-.648 1.83-2.292 3.55-4.236 4.431-1.913.867-6.153.896-8.052.055-2.181-.966-2.21-1-7.33-8.96a232.476 232.476 0 01-1.759-2.776 721.22 721.22 0 00-5.84-9.255 1359.566 1359.566 0 01-4.937-7.774c-1.673-2.653-3.166-4.773-3.301-4.689-.136.085-.247 6.51-.247 14.253 0 8.884-.122 14.531-.33 15.27-.43 1.53-1.86 3.11-3.557 3.928-1.154.555-1.79.65-3.764.558-3.023-.14-4.738-1.155-5.918-3.499l-.776-1.542-.077-23.8c-.076-23.322-.065-23.834.554-25.466 1.371-3.615 3.441-4.85 8.16-4.865 2.284-.008 3.052.122 4.32.73m67.791-12.83c-.406.175-.517 1.563-.192 2.4.156.403.735.496 3.092.496 1.581 0 2.978.127 3.072.28.23.372.23 71.947 0 72.32-.095.152-1.475.278-3.057.278-3.163 0-3.287.072-3.287 1.892 0 .682.168.94.698 1.07.383.094 7.892.129 16.669.077l15.97-.093v-2.791l-3.085-.155c-2.977-.15-3.093-.182-3.303-.93-.12-.427-.23-5.877-.248-12.141-.024-8.746.058-11.434.357-11.66.213-.162 2.558-.389 5.194-.502 10.761-.462 15.519-1.403 20.778-4.107 9.13-4.694 13.397-13.208 12.089-24.124-.76-6.327-2.55-10.247-6.476-14.173-4.372-4.372-8.869-6.281-17.987-7.636-2.624-.39-6.977-.508-21.584-.582-10.079-.051-18.478-.015-18.7.081zm34.051 3.84c6.699 2.11 9.427 6.778 10.284 17.601.265 3.35.263 5.536-.008 8.746-.909 10.76-3.668 15.022-10.803 16.685-3.225.752-6.028 1.033-6.637.665-.366-.222-.446-3.596-.511-21.645-.052-14.39.028-21.662.248-22.236l.325-.853 2.543.202c1.396.11 3.453.488 4.56.836m199.621-3.859c-.121.121-.215.806-.215 1.55v1.334l2.867.093 2.87.093v72.567l-2.884.094-2.884.093.09 1.457.094 1.458 14.702.077c10.604.056 14.81-.018 15.1-.265.437-.37.555-1.456.25-2.262-.152-.402-.714-.496-2.947-.496-1.986 0-2.759-.11-2.759-.388v-41.82l.915-1.333c4.635-6.73 13.784-7.241 17.188-.962.277.512.804 2.048 1.168 3.412.645 2.393.673 3.148.808 21.414.118 16.002.073 18.988-.295 19.289-.236.194-1.63.399-3.054.45l-2.62.093v2.791h30.08l.093-1.458.094-1.457-2.885-.093-2.884-.094-.17-18.297c-.163-17.583-.197-18.4-.86-20.932-1.098-4.187-2.586-6.934-5.14-9.49-2.403-2.402-4.063-3.383-7.63-4.508-2.053-.647-2.947-.733-7.596-.733-4.652 0-5.547.086-7.599.73-3.103.972-6.05 2.499-7.786 4.03-.804.712-1.574 1.287-1.72 1.287-.145 0-.221-6.155-.17-13.692.073-10.915.011-13.743-.311-13.947-.465-.296-23.615-.378-23.91-.085m-146.902 21.736c-2.326.39-5.675 1.507-7.753 2.59-8.959 4.662-13.8 14.066-13.8 26.812 0 16.591 7.266 25.777 22.329 28.233 3.597.587 11.493.595 14.482.015 6.017-1.166 11.496-4.436 14.34-8.556.924-1.339.825-1.809-.54-2.538-.505-.27-.837-.073-2.325 1.38-2.317 2.261-4.745 3.755-7.722 4.752-2.218.742-2.73.798-6.14.67-3.443-.129-3.883-.217-5.893-1.175-4.335-2.069-7.418-6.252-8.817-11.958-.769-3.132-1.364-7.174-1.147-7.753.14-.367 2.831-.446 17.314-.512l17.15-.077.09-1.613c.133-2.334-.742-8.56-1.65-11.753-1.225-4.311-3.266-8.168-5.679-10.73-3.755-3.995-8.081-6.465-13.136-7.504-2.233-.46-9.016-.632-11.103-.283zm7.009 3.363c3.25 1.901 5.281 9.2 5.886 21.139l.223 4.435-8.032-.078-8.032-.077-.102-1.396c-.133-1.81.459-8.683 1.054-12.25 1.22-7.287 3.018-11.13 5.716-12.203 1.225-.488 1.86-.405 3.287.43m48.409-3.266c-6.977 1.087-12.103 3.719-15.158 7.783-1.65 2.192-2.425 4.496-2.425 7.194 0 1.892.155 2.541 1.01 4.249 1.784 3.547 4.758 5.185 8.883 4.889 4.602-.33 7.793-3.71 8.041-8.517.093-1.803-.071-2.885-.847-5.614-1.122-3.938-1.187-5.106-.34-5.954 1.67-1.672 6.233-2.129 8.869-.888 2.772 1.305 3.668 3.834 4.15 11.742.43 7.071.412 10.437-.057 10.745-.223.146-1.581.418-3.039.609-9.707 1.268-15.676 2.731-20.344 4.985-5.898 2.85-8.8 7.447-8.792 13.929.01 6.791 3.232 10.777 10.002 12.377 2.515.595 8.528.6 11.32.009 3.907-.826 8.93-3.132 10.432-4.788.769-.847 1.225-.807 1.742.155.735 1.364 3.331 3.456 5.192 4.184 2.425.949 8.838 1.204 11.94.475 2.666-.627 6.5-2.216 7.197-2.984.965-1.06.462-1.396-2.08-1.396-2.016 0-2.466-.1-3.102-.695-1.541-1.438-1.588-1.941-1.814-19.773-.223-17.646-.292-18.481-1.802-22.453-1.95-5.129-5.408-7.998-11.673-9.688-2.102-.567-3.473-.684-8.993-.763-3.598-.051-7.319.033-8.311.188zm12.42 38.562l.078 9.257-1.178 1.093c-1.737 1.61-4.438 2.876-6.14 2.876-3.173 0-5.914-2.17-7.366-5.83-1.34-3.38-.915-8.44.95-11.257 1.962-2.97 7.873-5.614 12.184-5.45l1.395.054.078 9.257m45.975-38.229c-9.707 2.09-16.697 7.943-19.786 16.567-1.311 3.656-1.764 6.823-1.752 12.25.01 5.737.68 9.73 2.28 13.583 3.383 8.163 10.42 13.181 20.778 14.82 4.093.647 12.835.47 15.692-.318 4.776-1.317 10.026-4.803 12.401-8.238l.903-1.302-.869-.75c-1.088-.942-1.243-.925-2.059.223-.974 1.368-3.709 3.276-6.779 4.726-2.577 1.217-2.791 1.263-6.388 1.383-4.187.14-6.45-.387-9.21-2.144-6.327-4.03-9.193-14.261-8.042-28.713 1.082-13.552 4.8-19.94 11.607-19.94 2.574 0 3.7.691 4.246 2.604.332 1.165.332 2.326.006 6.327-.533 6.543-.35 8.947.822 10.854 1.743 2.833 5.595 4.617 9.378 4.345 4.794-.346 7.995-3.849 8.336-9.12.468-7.26-5.762-14.429-14.662-16.875-3.71-1.018-12.777-1.17-16.902-.282"/>
</svg>
