<svg xmlns="http://www.w3.org/2000/svg" height="512" width="512">
    <path d="M138.193 196.944v18.008h25.926V196.94zM10 219.27v69.86h25.205v-19.95l8.463-.394c4.678-.222 10.069-.901 12.064-1.522 10.14-3.173 14.671-11.334 13.875-25.02-.579-10.081-4.284-16.172-11.934-19.626-6.007-2.712-11.88-3.35-30.893-3.35zm61.933 0v69.86H96.35l.214-10.585.218-10.588 5.328 10.3a164.54 164.54 0 0 0 6.162 10.78h27.909l-9.004-13.95-8.933-13.686 2.95-1.304c8.364-4.057 9.424-10.982 9.437-17.42.41-13.326-9.189-20.804-20.02-22.686-2.465-.399-12.135-.721-21.571-.721zm66.26 0v69.86h25.926l-.18-34.75-.13-35.098zm65.32 0c-.96.012-24.815.012-25.922.012l-5.873 34.205c-2.247 11.808-3.668 23.78-6.116 35.555h24.92c0-2.448 3.89-35.459 4.21-35.773.188-.189.355.29.355 1.006 0 .755 2.188 8.895 4.863 18.117l4.82 16.65h15.455l1.836-6.028 3.672-12.24a433.937 433.937 0 0 0 3.563-12.785c1.367-5.26 1.74-6.086 1.773-3.928 1.174 11.662 1.929 23.399 3.773 34.98h24.27s-2.347-18.053-5.218-36.275l-5.55-33.484-25.817-.012c-1.63 5.587-3.253 11.18-4.611 15.845-1.773 6.12-3.66 13.279-4.175 15.844l-.935 4.683-.579-3.601c-.314-1.97-2.414-10.19-4.644-18.184zm57.834 0v34.934l.016 34.833h43.913v-19.353h-18.724v-6.48h16.566V245.2h-16.566v-6.485h19.45V219.27h-22.33zm45.95 0l1.76 3.06c.977 1.689 5.24 9.041 9.511 16.39a1867.863 1867.863 0 0 0 8.837 15.019c9.95.167 15.165.096 27.892 0l8.677-14.84c4.711-8.215 9.188-16 9.938-17.286l1.37-2.343h-33.994zm70.216.922c-.314-.11-11.578 18.96-25.063 42.437a25945.372 25945.372 0 0 0-27.259 47.535l-2.77 4.896h40.903l17.069-30.575c9.368-16.78 17.069-30.864 17.069-31.22 0-.864-19.295-32.847-19.953-33.073zM96.422 237.998h6.606s.251.034.629.185c.381.147.888.41 1.4.863a5.428 5.428 0 0 1 1.425 2c.193.448.365.968.486 1.568a10.995 10.995 0 0 1 .055 4.045 6.548 6.548 0 0 1-.508 1.559 5.374 5.374 0 0 1-1.605 1.962 5.5 5.5 0 0 1-2.381.997h-6.107v-6.59zm-61.217 1.438h6.472s.243.03.616.155a4.888 4.888 0 0 1 2.109 1.384 4.9 4.9 0 0 1 .654.955c.193.373.356.797.478 1.287a7.53 7.53 0 0 1 .21 1.66 6.32 6.32 0 0 1-.156 1.656 4.77 4.77 0 0 1-.499 1.274c-.21.365-.46.68-.73.943a4.82 4.82 0 0 1-.842.663 5.86 5.86 0 0 1-1.597.679c-.44.113-.733.138-.733.138H38.26l-.105.008h-2.95v-.008zM10 291.288v23.768h282.676l13.216-23.768zm394.152-47.43v48.646h12.7V273.93h18.73v18.57h12.7v-48.637h-12.7v18.54h-18.734v-18.54zm51.114-.003v48.65h13.506c7.449 0 13.036-.525 16.763-1.564a22.824 22.824 0 0 0 9.586-5.378 20.837 20.837 0 0 0 5.186-7.592c1.131-2.892 1.693-6.17 1.693-9.842 0-3.626-.562-6.874-1.693-9.742a20.841 20.841 0 0 0-5.186-7.587 22.28 22.28 0 0 0-9.515-5.353c-3.68-1.064-9.297-1.592-16.834-1.592zm13.426 11.766a51.458 51.458 0 0 1 6.69.121c12.576 1.09 12.513 9.423 12.546 12.668.03 3.102.03 11.82-13.292 12.4a55.9 55.9 0 0 1-5.944-.072z" fill="#010101"/>
</svg>
