<svg xmlns="http://www.w3.org/2000/svg" height="512" width="512">
    <path d="M83.227 250.12l.218.215v-.215z" fill="#fff" stroke-width=".734"/>
    <path d="M82.258 184.29A71.71 71.71 0 0010.547 256a71.71 71.71 0 0071.71 71.71A71.71 71.71 0 00153.97 256a71.71 71.71 0 00-71.711-71.71zm7.118 4.495c.058-.058.207.096.43.43.224.332.522.843.874 1.499.705 1.31 1.63 3.196 2.63 5.385a141.554 141.554 0 002.027 4.276c.173.347.37.692.545 1.034l13.045-10.935c7.57 2.943 14.547 7.813 18.494 11.294l-14.24 13.747 29.133 6.874-22.258 19.967-4.46-1.495c.062.306.136.605.193.915.317 1.732.557 3.529.737 5.446.1 1.06.227 1.988.287 2.094.03.051.172.05.376.009a4.24 4.24 0 00.74-.239c.535-.224 1.16-.556 1.843-.973a31.324 31.324 0 002.196-1.489 45.986 45.986 0 002.365-1.868 49.302 49.302 0 002.351-2.114 54.907 54.907 0 012.423-2.218 21.369 21.369 0 012.083-1.581 19.79 19.79 0 012.216-1.258c.814-.4 1.728-.797 2.823-1.245 2.134-.874 3.546-1.493 4.602-2.05a13.52 13.52 0 001.363-.813c.396-.272.75-.553 1.105-.866.337-.298.837-.66 1.371-1.006a15.173 15.173 0 011.58-.903c.72-.346 1.162-.538 1.448-.603a.617.617 0 01.329-.007.352.352 0 01.188.161c.171.272.846 2.231 1.477 4.186.632 1.955 1.221 3.906 1.221 4.163 0 .113-.174.405-.456.788-.282.383-.673.857-1.108 1.333a748.7 748.7 0 00-3.25 3.59c-.392.436-.702.774-.975 1.044a5.11 5.11 0 01-.755.635 3.95 3.95 0 01-.807.406c-.308.118-.67.229-1.133.361-.83.24-1.377.436-1.848.709a4.531 4.531 0 00-.675.482c-.223.19-.452.413-.713.686-.343.358-.753.84-1.137 1.329-.383.488-.74.982-.976 1.363-.3.482-.543.856-.78 1.159a3.517 3.517 0 01-.741.73c-.277.197-.599.36-1.018.525-.42.165-.936.332-1.602.54-.524.162-.936.295-1.273.422-.338.128-.6.248-.826.385a2.992 2.992 0 00-.6.48 7.84 7.84 0 00-.598.708c-.533.691-1.217 1.448-1.99 2.218a40.157 40.157 0 01-2.518 2.296 38.819 38.819 0 01-2.67 2.055c-.873.61-1.708 1.128-2.442 1.499-.816.413-1.468.827-1.468.933a.51.51 0 00.108.287c.073.103.18.213.325.33.29.236.724.5 1.303.793.58.293 1.305.616 2.175.968.87.352 1.888.733 3.05 1.144 1.795.635 2.895 1.052 3.707 1.45.406.2.74.396 1.052.611.313.216.604.451.924.732.232.204.442.421.628.653a4.826 4.826 0 01.843 1.567c.095.292.167.6.217.924.05.324.077.665.081 1.023a9.85 9.85 0 01-.053 1.127c-.08.788-.25 1.647-.51 2.586a47.564 47.564 0 00-.866 3.847l-.313 1.836-.693-.463c-.387-.258-1.21-.947-1.863-1.56-.32-.3-.637-.56-.949-.779a5.567 5.567 0 00-.916-.526 3.45 3.45 0 00-.86-.264 2.218 2.218 0 00-.783.008c-.18.036-.557.303-1.021.707-.465.405-1.017.946-1.548 1.53a18.541 18.541 0 01-1.721 1.692c-.513.432-.962.729-1.338.882-.753.306-1.359.568-1.92.863-.56.295-1.076.623-1.65 1.063-.573.44-1.203.993-1.993 1.735-.79.742-1.739 1.673-2.949 2.874a136.647 136.647 0 00-3.532 3.624c-.923.989-1.518 1.682-1.566 1.843-.061.202-.041.443.065.74.107.296.3.647.586 1.068.324.48.615.952.874 1.415.259.463.484.917.677 1.359.192.441.351.87.476 1.284a8.5 8.5 0 01.274 1.195c.058.381.08.745.069 1.088a4.226 4.226 0 01-.14.965c-.08.3-.196.576-.348.826-.152.25-.34.473-.562.668-.272.238-.413.357-.465.359-.051.001-.014-.115.07-.348.107-.3.192-.657.252-1.033.06-.376.096-.77.106-1.142a6.183 6.183 0 00-.045-1.014c-.04-.29-.108-.519-.203-.645-.133-.177-.263-.286-.383-.332a.318.318 0 00-.326.043c-.094.073-.172.203-.226.385a2.457 2.457 0 00-.085.692c0 .258-.03.508-.08.704-.048.196-.116.338-.192.384-.042.025-.08.017-.113-.02a.505.505 0 01-.086-.204c-.047-.193-.073-.497-.073-.891 0-.483-.04-.943-.116-1.376a6.573 6.573 0 00-.333-1.216 5.425 5.425 0 00-.525-1.033 4.526 4.526 0 00-.692-.828 3.926 3.926 0 00-.836-.6c-.3-.16-.62-.277-.955-.35a3.844 3.844 0 00-1.05-.077 4.513 4.513 0 00-1.122.22c-.442.144-.85.312-1.267.535-.416.223-.84.5-1.31.864-.471.363-.99.811-1.595 1.376a76.283 76.283 0 00-2.118 2.077c-1.748 1.768-3.991 3.893-4.995 4.732a17.74 17.74 0 01-1.89 1.365 22.383 22.383 0 01-4.395 2.139 16.07 16.07 0 01-2.172.611c-.748.15-1.37.322-1.916.536a6.572 6.572 0 00-1.456.785c-.475.34-.857.605-1.197.817a6.28 6.28 0 01-.94.497 5.737 5.737 0 01-.987.3c-.37.08-.798.15-1.335.229-1.034.15-1.98.336-2.866.562a19.97 19.97 0 00-2.491.81 3.288 3.288 0 01-.512.174.878.878 0 01-.412-.002c-.278-.069-.6-.282-1.184-.693l-1.237-.87-1.958.405c-.639.132-1.166.229-1.62.29a7.162 7.162 0 01-1.184.079 4.172 4.172 0 01-.977-.143 6.842 6.842 0 01-1.005-.371l-1.197-.532.164-1.428c.09-.788.242-1.81.34-2.284l.177-.856-1.605-.182c-.802-.09-1.432-.195-1.908-.335a2.95 2.95 0 01-.6-.24 1.257 1.257 0 01-.383-.312.888.888 0 01-.18-.4 1.42 1.42 0 01.013-.507c.068-.376.255-.833.541-1.396.18-.351.3-.629.343-.855a.75.75 0 00.004-.303.518.518 0 00-.129-.242c-.133-.145-.363-.26-.712-.368-.35-.108-.816-.208-1.421-.322a9.985 9.985 0 01-1.364-.342 4.4 4.4 0 01-.983-.455 2.444 2.444 0 01-.655-.602 2.409 2.409 0 01-.374-.78 3.378 3.378 0 01-.136-.906c-.002-.299.04-.596.128-.895.089-.3.225-.6.41-.906.186-.306.422-.617.71-.936.29-.32.632-.647 1.03-.986.398-.34.852-.69 1.365-1.057 1.026-.732 2.289-1.525 3.811-2.404 2.257-1.303 3.725-2.162 4.648-2.73.923-.568 1.304-.845 1.387-.982.028-.046-.03-.083-.173-.11a4.84 4.84 0 00-.692-.058c-.635-.021-1.62-.007-2.967.042-1.495.054-2.756.057-3.82-.001a17.395 17.395 0 01-1.45-.135 9.584 9.584 0 01-1.182-.235 5.485 5.485 0 01-.94-.342 3.557 3.557 0 01-.724-.457 2.958 2.958 0 01-.54-.579 3.394 3.394 0 01-.379-.709 53.318 53.318 0 00-.822-1.93 6.337 6.337 0 01-.51-1.681 4.537 4.537 0 01.014-1.52 3.28 3.28 0 01.194-.655 2.69 2.69 0 01.316-.56 2.267 2.267 0 01.979-.765c.173-.072.307-.134.41-.208a.625.625 0 00.224-.276c.098-.233.105-.59.086-1.229a8.927 8.927 0 010-.784c.013-.205.043-.363.1-.497.057-.134.142-.245.264-.358.123-.114.284-.229.493-.371.309-.21.696-.381 1.166-.513a9.049 9.049 0 011.663-.28 19.6 19.6 0 012.186-.05c.818.022 1.728.082 2.735.18 4.582.445 7.674.723 10.105.889a84.38 84.38 0 006.129.22c1.094 0 2.144-.026 3.147-.079a46.367 46.367 0 002.867-.236 34.832 34.832 0 002.578-.39c.81-.156 1.57-.337 2.278-.543a17.894 17.894 0 001.967-.69 12.38 12.38 0 001.647-.835 8.575 8.575 0 001.314-.977 6.26 6.26 0 00.974-1.116c.246-.364.422-.65.517-.873.095-.224.11-.386.034-.502-.076-.117-.243-.188-.511-.23-.269-.042-.64-.054-1.122-.054-.462 0-1-.033-1.49-.085-.491-.051-.936-.123-1.216-.201-.421-.118-.676-.219-.826-.36a.553.553 0 01-.153-.25 1.237 1.237 0 01-.04-.355c0-.308.07-.647.213-1.016.143-.37.357-.77.643-1.2.285-.43.643-.89 1.07-1.38.43-.492.929-1.013 1.5-1.565a41.7 41.7 0 001.611-1.638c.415-.45.673-.768.673-.842 0-.075-.32-.277-.836-.543a29.888 29.888 0 00-2.02-.926 30.904 30.904 0 01-2.399-1.108 12.343 12.343 0 01-1.725-1.07 7.146 7.146 0 01-1.225-1.164 7.628 7.628 0 01-.898-1.39l-.822-1.604.067-6.077c.02-1.673.065-3.397.125-4.828.023-.562.053-.754.079-1.205L25.538 298.34c-3.644-4.638-10.953-15.816-12.847-29.305l53.846-43.863-29.623-9.656 19.148-13.584 24.672 5.805c.036-.165.062-.382.1-.534.17-.673.354-1.203.534-1.517.132-.23.232-.417.303-.588a1.71 1.71 0 00.134-.491c.036-.33-.031-.702-.178-1.328-.116-.496-.2-1.052-.253-1.616a15.45 15.45 0 01-.066-1.669 9.559 9.559 0 01.115-1.42c.069-.398.167-.705.294-.87.095-.123.17-.216.236-.275.066-.059.124-.084.187-.073.126.02.272.186.546.512.162.192.383.366.614.496.232.129.474.213.678.224.408.024.962.118 1.278.218a.669.669 0 00.31.039.468.468 0 00.26-.15c.172-.174.35-.514.615-1.1.166-.366.307-.65.436-.86.13-.21.25-.344.371-.411a.418.418 0 01.388-.008c.141.06.3.18.489.35.224.202.403.317.544.313a.24.24 0 00.186-.099.84.84 0 00.136-.302c.077-.274.125-.7.155-1.308.029-.608.04-1.4.04-2.406 0-1.074.02-2.067.055-2.805s.082-1.22.135-1.273z" stroke-width="7.908" stroke-linejoin="bevel"/>
    <path d="M265.432 234.844l-27.488-.342c.683-13.488-8.693-17.102-19.207-17.5-8.225-.311-16.728 3.48-17.841 10.33-3.682 22.66 62.468 4.961 68.463 47.633 2.949 20.993-12.439 42.43-47.293 43.275-23.38.567-52.585-8.531-52.5-44.555l28 .085s-2.882 19.308 19.55 21.17c9.438.784 23.666-1.003 24.414-12.121.722-10.748-19.354-14.142-24.073-15.451-15.87-4.404-41.161-8.865-44.305-31.927-2.805-20.573 12.512-40.542 44.475-41.123 21.3-.388 48.915 9.453 47.805 40.526z"/>
    <path d="M323.163 194.138a470.18 470.18 0 00-12.285.135H281.29v123.966h29.588v-53.774c.357 0 6.954.017 14.86.062 22.565.127 29.067 2.291 29.294 13.975.224 11.541-3.296 15.635-27.995 15.708-8.206.025-16.15.083-16.15.083l-.008 23.946s13.537.013 21.545.099c24 .255 53.127-2.242 52.613-39.135-.176-12.585-10.505-26.707-19.828-28.074 9.921-4.274 15.487-15.425 14.037-28.6-2.461-22.368-18.71-28.265-56.083-28.391zm1.778 24.415c17.153-.068 25.264 2.063 25.46 10.867.244 11.003-3.724 14.239-25.16 14.111-7.749-.046-14.265-.12-14.363-.122v-24.76h.112v.02s1.199-.013 1.685-.02h1.576v-.017c2.55-.028 6.088-.061 10.69-.08z" fill-opacity=".971" stroke-width="11.735" stroke-linejoin="bevel"/>
    <path d="M397.19 194.273v123.966h27.71v-77.46l47.579 77.46h28.974V194.273h-27.71v77.551l-48.562-77.762z" fill-opacity=".959" stroke-width="11.357" stroke-linejoin="bevel"/>
</svg>
