<?xml version="1.0" encoding="UTF-8" standalone="no"?>
<svg
   xmlns:dc="http://purl.org/dc/elements/1.1/"
   xmlns:cc="http://creativecommons.org/ns#"
   xmlns:rdf="http://www.w3.org/1999/02/22-rdf-syntax-ns#"
   xmlns:svg="http://www.w3.org/2000/svg"
   xmlns="http://www.w3.org/2000/svg"
   height="512"
   width="512"
   version="1.1"
   id="svg4">
  <metadata
     id="metadata10">
    <rdf:RDF>
      <cc:Work
         rdf:about="">
        <dc:format>image/svg+xml</dc:format>
        <dc:type
           rdf:resource="http://purl.org/dc/dcmitype/StillImage" />
        <dc:title></dc:title>
      </cc:Work>
    </rdf:RDF>
  </metadata>
  <defs
     id="defs8" />
  <path
     style="fill:#ffffff;fill-opacity:1;stroke-width:0.73414475"
     d="m 83.226966,250.12037 0.218042,0.21437 v -0.21437 z"
     id="path830" />
  <g
     transform="matrix(0.27146045,0,0,0.27146045,-4.4933388,158.38956)"
     id="g1238">
    <path
       style="opacity:1;fill:#000000;fill-opacity:1;stroke:none;stroke-width:7.90849543;stroke-linecap:butt;stroke-linejoin:bevel;stroke-miterlimit:4;stroke-dasharray:none;stroke-opacity:1"
       d="M 319.57227,95.408203 A 264.16687,264.16687 0 0 0 55.404297,359.57617 264.16687,264.16687 0 0 0 319.57227,623.74219 264.16687,264.16687 0 0 0 583.73828,359.57617 264.16687,264.16687 0 0 0 319.57227,95.408203 Z m 26.2207,16.560547 c 0.21286,-0.21286 0.76455,0.3557 1.58789,1.58203 0.82333,1.22633 1.91863,3.10992 3.2168,5.52344 2.59633,4.82705 6.00567,11.77598 9.6875,19.83984 2.63452,5.76892 5.03497,10.85709 7.46875,15.75 0.63616,1.27895 1.36016,2.54962 2.00586,3.81055 l 48.05468,-40.28125 c 27.8898,10.83869 53.58725,28.78018 68.12696,41.60156 l -52.45313,50.64258 107.31836,25.32227 -81.99609,73.55468 -16.42578,-5.50976 c 0.2279,1.12777 0.49773,2.2295 0.70703,3.37109 1.1702,6.38261 2.05516,13.00036 2.71679,20.0625 0.36663,3.90672 0.83521,7.32222 1.0586,7.71289 0.10818,0.18983 0.63352,0.18772 1.38281,0.0332 0.74929,-0.15452 1.72289,-0.4607 2.72461,-0.87891 1.97389,-0.82442 4.27542,-2.04731 6.79297,-3.58594 2.51754,-1.53863 5.25064,-3.39439 8.08789,-5.48242 2.83725,-2.08803 5.77793,-4.40825 8.71094,-6.88086 2.93301,-2.47261 5.85729,-5.09669 8.66211,-7.78906 3.37755,-3.24208 6.25617,-5.90127 8.92578,-8.16992 2.6696,-2.26865 5.13114,-4.14729 7.67382,-5.82618 2.54269,-1.67888 5.16728,-3.15807 8.16407,-4.63086 2.99679,-1.47278 6.36455,-2.9395 10.39648,-4.58984 7.86352,-3.21903 13.06502,-5.49705 16.95508,-7.54883 1.94503,-1.02589 3.56274,-1.99446 5.02148,-2.99609 1.45875,-1.00163 2.75786,-2.03567 4.06836,-3.19141 1.24214,-1.09538 3.08435,-2.43189 5.05274,-3.70508 1.96838,-1.27318 4.06338,-2.48422 5.8164,-3.32617 2.65456,-1.27519 4.28113,-1.98004 5.33594,-2.2207 0.52741,-0.12033 0.91236,-0.12453 1.21094,-0.0254 0.29857,0.0991 0.5115,0.30124 0.69531,0.59375 0.62909,1.00171 3.11416,8.21829 5.44141,15.41992 2.32725,7.20163 4.49609,14.38936 4.49609,15.33399 0,0.41721 -0.63977,1.49349 -1.67969,2.90429 -1.03991,1.4108 -2.47982,3.15519 -4.08007,4.90821 -3.17245,3.47597 -8.55083,9.4161 -11.97071,13.22265 -1.44623,1.60952 -2.58889,2.8557 -3.5957,3.84961 -1.00681,0.99391 -1.87814,1.73579 -2.78125,2.33789 -0.90311,0.6021 -1.8375,1.06398 -2.97266,1.49805 -1.13515,0.43407 -2.4709,0.84024 -4.17382,1.33008 -3.05525,0.87901 -5.07166,1.60339 -6.80664,2.60937 -0.8675,0.50299 -1.66567,1.07641 -2.48633,1.77539 -0.82066,0.69899 -1.6643,1.52287 -2.62696,2.52735 -1.26467,1.31976 -2.77532,3.09776 -4.1875,4.89648 -1.41217,1.79872 -2.72565,3.61712 -3.59765,5.01953 -1.10515,1.7763 -1.99879,3.15473 -2.86914,4.26953 -0.87036,1.11481 -1.71744,1.9661 -2.73438,2.69141 -1.01693,0.72531 -2.20315,1.32383 -3.74804,1.93164 -1.5449,0.60781 -3.44813,1.22597 -5.90235,1.98828 -1.92831,0.59878 -3.44625,1.09034 -4.68945,1.55859 -1.2432,0.46826 -2.21254,0.91334 -3.04297,1.41602 -0.83043,0.50268 -1.52289,1.06359 -2.21289,1.76563 -0.69,0.70203 -1.37731,1.54499 -2.19922,2.61132 -1.96287,2.54638 -4.48298,5.33571 -7.32812,8.17188 -2.84515,2.83617 -6.01449,5.71869 -9.27735,8.45508 -3.26286,2.73639 -6.61991,5.32523 -9.83594,7.57226 -3.21602,2.24703 -6.29144,4.15339 -8.99609,5.52149 -3.00516,1.51962 -5.41016,3.04587 -5.41016,3.43554 0,0.32619 0.13412,0.67922 0.40039,1.0586 0.26628,0.37937 0.66432,0.78598 1.19727,1.21875 1.06589,0.86553 2.66586,1.83767 4.80078,2.91797 2.13492,1.08029 4.80464,2.2678 8.01172,3.56445 3.20708,1.29665 6.95201,2.70219 11.23438,4.2168 6.61135,2.33801 10.66535,3.87384 13.65624,5.34375 1.49545,0.73495 2.72393,1.45444 3.875,2.24804 1.15108,0.7936 2.22377,1.66124 3.4043,2.69727 0.85547,0.75054 1.62646,1.55122 2.3125,2.4043 0.68605,0.85307 1.28721,1.75947 1.80469,2.7207 0.51748,0.96123 0.951,1.97774 1.30078,3.05273 0.34978,1.07499 0.61589,2.20798 0.79883,3.40235 0.18294,1.19436 0.28382,2.45018 0.30078,3.76953 0.017,1.31935 -0.0491,2.7024 -0.19727,4.15234 -0.29632,2.89989 -0.92336,6.0675 -1.875,9.52344 -1.13094,4.10706 -2.55527,10.42745 -3.19335,14.17383 l -1.15235,6.76172 -2.55273,-1.70313 c -1.42544,-0.95068 -4.45915,-3.49109 -6.86328,-5.75 -1.17703,-1.1059 -2.34607,-2.06445 -3.4961,-2.86719 -1.15002,-0.80274 -2.27968,-1.45022 -3.375,-1.9375 -1.09532,-0.48727 -2.15701,-0.81314 -3.16992,-0.97265 -1.01291,-0.15951 -1.97806,-0.15322 -2.88086,0.0273 -0.66714,0.13325 -2.05373,1.11812 -3.76367,2.60742 -1.70994,1.48931 -3.74376,3.48303 -5.70313,5.63672 -2.32349,2.5544 -4.44751,4.64268 -6.33789,6.23242 -1.89037,1.58974 -3.54531,2.68214 -4.92968,3.2461 -2.77152,1.12919 -5.00425,2.09272 -7.07032,3.17968 -2.06607,1.08697 -3.96618,2.29631 -6.07812,3.91797 -2.11195,1.62167 -4.43461,3.65539 -7.34375,6.38868 -2.90914,2.73328 -6.40562,6.16605 -10.86328,10.58789 -5.00861,4.96855 -9.61326,9.70559 -13.01172,13.34961 -3.39847,3.64401 -5.58973,6.19599 -5.76953,6.79101 -0.22439,0.74176 -0.15087,1.63091 0.24218,2.72266 0.39306,1.09175 1.10595,2.38484 2.15625,3.9375 1.19406,1.76553 2.26785,3.5069 3.22071,5.21289 0.95285,1.70598 1.78359,3.37785 2.49219,5.0039 0.70859,1.62606 1.29459,3.20667 1.75585,4.73243 0.46127,1.52576 0.79891,2.9953 1.00977,4.40039 0.21086,1.40508 0.29456,2.74572 0.25195,4.00976 -0.0426,1.26404 -0.21258,2.45207 -0.51172,3.55469 -0.29914,1.10262 -0.72641,2.12018 -1.28515,3.04101 -0.55874,0.92084 -1.2489,1.74423 -2.07031,2.4629 -1.00172,0.87654 -1.52024,1.31536 -1.71094,1.32031 -0.1907,0.005 -0.0522,-0.42253 0.25586,-1.28125 0.39567,-1.10189 0.70604,-2.42003 0.92773,-3.80469 0.2217,-1.38466 0.35326,-2.8358 0.39258,-4.20898 0.0393,-1.37319 -0.0146,-2.66691 -0.16602,-3.73438 -0.15144,-1.06747 -0.39939,-1.90944 -0.75,-2.37695 -0.48733,-0.64987 -0.96661,-1.05033 -1.41015,-1.2207 -0.44354,-0.17038 -0.8515,-0.1107 -1.19922,0.1582 -0.34772,0.2689 -0.63411,0.74807 -0.83399,1.41601 -0.19987,0.66795 -0.31445,1.52402 -0.31445,2.55079 0,0.95162 -0.11058,1.86995 -0.29101,2.59179 -0.18044,0.72184 -0.42901,1.24814 -0.70899,1.41602 -0.15452,0.0927 -0.29508,0.0645 -0.41797,-0.0762 -0.12288,-0.1407 -0.22982,-0.395 -0.3164,-0.75 -0.17318,-0.71001 -0.26758,-1.82878 -0.26758,-3.28125 0,-1.77807 -0.14914,-3.47264 -0.42969,-5.06836 -0.28055,-1.59573 -0.6933,-3.09298 -1.22461,-4.47852 -0.5313,-1.38554 -1.18133,-2.65913 -1.93359,-3.80664 -0.75227,-1.14751 -1.60735,-2.16914 -2.55078,-3.05078 -0.94344,-0.88164 -1.97527,-1.62302 -3.08008,-2.21094 -1.10481,-0.58792 -2.28119,-1.02075 -3.51758,-1.28711 -1.23639,-0.26636 -2.53096,-0.36625 -3.86914,-0.2832 -1.33818,0.083 -2.72069,0.34829 -4.13086,0.80859 -1.62805,0.53141 -3.13457,1.15008 -4.66797,1.97071 -1.5334,0.82062 -3.09408,1.84396 -4.82812,3.18164 -1.73405,1.33767 -3.64112,2.98971 -5.8711,5.07226 -2.22997,2.08255 -4.78154,4.59513 -7.80273,7.65039 -6.43906,6.51114 -14.70498,14.33962 -18.40235,17.42969 -2.09134,1.74784 -4.44445,3.4406 -6.95898,5.0293 -2.51452,1.58869 -5.18911,3.07252 -7.92187,4.40234 -2.73276,1.32982 -5.52349,2.50534 -8.26954,3.47656 -2.74604,0.97123 -5.44756,1.73905 -8.00195,2.25196 -2.75473,0.55328 -5.04813,1.18707 -7.05859,1.97461 -2.01046,0.78753 -3.7385,1.7283 -5.36328,2.89062 -1.75102,1.25276 -3.15799,2.23051 -4.40821,3.01172 -1.25021,0.78121 -2.34366,1.36483 -3.46484,1.82812 -1.12118,0.4633 -2.27086,0.80645 -3.63477,1.10547 -1.3639,0.29903 -2.94152,0.55537 -4.91992,0.84375 -3.80654,0.55468 -7.29508,1.23724 -10.55469,2.07227 -3.2596,0.83503 -6.29072,1.82201 -9.17968,2.98242 -0.7573,0.30422 -1.35148,0.52671 -1.88477,0.64063 -0.53329,0.11391 -1.0057,0.11862 -1.51758,-0.008 -1.02376,-0.25288 -2.20762,-1.03606 -4.36133,-2.55078 l -4.55664,-3.20508 -7.21289,1.49024 c -2.35405,0.48608 -4.29681,0.8442 -5.9707,1.07226 -1.67389,0.22806 -3.07841,0.32573 -4.35742,0.28711 -1.27901,-0.0386 -2.43216,-0.21341 -3.60156,-0.52734 -1.1694,-0.31393 -2.35611,-0.76734 -3.70118,-1.36524 l -4.4082,-1.95898 0.60156,-5.25976 c 0.33158,-2.90493 0.89233,-6.67122 1.25196,-8.41407 l 0.65234,-3.15429 -5.91016,-0.66993 c -2.95508,-0.33485 -5.27612,-0.71953 -7.02929,-1.23632 -0.87659,-0.2584 -1.61189,-0.54932 -2.21289,-0.88477 -0.60101,-0.33545 -1.06813,-0.7149 -1.41016,-1.14844 -0.34202,-0.43354 -0.55856,-0.92193 -0.6582,-1.47461 -0.0996,-0.55268 -0.0832,-1.17042 0.043,-1.86328 0.25227,-1.38572 0.94028,-3.07181 1.99609,-5.14453 0.65863,-1.29275 1.10332,-2.31564 1.26172,-3.14844 0.0792,-0.4164 0.0872,-0.78556 0.0137,-1.11718 -0.0736,-0.33163 -0.22786,-0.62558 -0.47266,-0.89258 -0.48959,-0.534 -1.33966,-0.95912 -2.625,-1.35547 -1.28533,-0.39635 -3.00554,-0.76374 -5.23437,-1.18359 -1.92832,-0.36333 -3.59263,-0.77675 -5.02344,-1.25977 -1.4308,-0.48303 -2.62796,-1.03516 -3.62305,-1.67773 -0.99508,-0.64258 -1.78899,-1.37481 -2.41015,-2.2168 -0.62116,-0.84199 -1.06988,-1.79374 -1.37891,-2.875 -0.32168,-1.12557 -0.4935,-2.23444 -0.50195,-3.33594 -0.008,-1.1015 0.14571,-2.19689 0.47266,-3.29883 0.32694,-1.10193 0.82721,-2.20907 1.51171,-3.33593 0.68451,-1.12687 1.55296,-2.27292 2.61719,-3.44922 1.06424,-1.17631 2.32489,-2.38258 3.79102,-3.63282 1.46613,-1.25023 3.1391,-2.54391 5.02929,-3.89257 3.78039,-2.69734 8.42942,-5.61741 14.03907,-8.85547 8.31429,-4.79876 13.71924,-7.96379 17.12109,-10.05664 3.40185,-2.09286 4.80185,-3.11183 5.10938,-3.61719 0.10267,-0.16853 -0.10939,-0.30478 -0.63868,-0.4082 -0.52928,-0.10343 -1.37661,-0.17433 -2.54687,-0.21289 -2.34053,-0.0771 -5.97116,-0.0245 -10.92969,0.15624 -5.50947,0.2006 -10.15436,0.21151 -14.07031,-0.004 -1.95798,-0.10771 -3.73341,-0.27252 -5.34375,-0.49805 -1.61034,-0.22553 -3.05698,-0.51266 -4.35352,-0.86523 -1.29654,-0.35257 -2.44436,-0.77094 -3.46093,-1.25977 -1.01658,-0.48882 -1.90145,-1.04734 -2.67188,-1.68164 -0.77043,-0.6343 -1.42625,-1.34383 -1.98437,-2.13281 -0.55813,-0.78898 -1.01879,-1.65845 -1.39844,-2.61133 -0.79837,-2.00347 -2.18985,-5.27014 -3.0293,-7.11133 -0.9594,-2.10361 -1.57983,-4.19844 -1.8789,-6.19336 -0.29908,-1.99491 -0.27654,-3.89073 0.0508,-5.59961 0.16365,-0.85444 0.4029,-1.66243 0.71679,-2.41211 0.31389,-0.74967 0.70223,-1.4417 1.16211,-2.06445 0.45989,-0.62275 0.99212,-1.17478 1.59375,-1.64844 0.60164,-0.47365 1.27257,-0.86752 2.01172,-1.16992 0.63984,-0.26169 1.13412,-0.49321 1.51367,-0.76562 0.37956,-0.27242 0.64378,-0.58708 0.82422,-1.01563 0.36088,-0.85709 0.38503,-2.17133 0.31641,-4.52539 -0.0351,-1.20207 -0.0485,-2.13457 0,-2.89062 0.0485,-0.75605 0.15853,-1.33573 0.36914,-1.83008 0.21061,-0.49435 0.52144,-0.90335 0.97265,-1.32031 0.45122,-0.41697 1.04414,-0.84134 1.81446,-1.36524 1.13921,-0.77458 2.56504,-1.4039 4.29687,-1.89062 1.73184,-0.48673 3.76972,-0.83155 6.12696,-1.03321 2.35723,-0.20166 5.03536,-0.26031 8.05078,-0.17968 3.01541,0.0806 6.36785,0.30199 10.07422,0.66211 16.87902,1.64031 28.27197,2.66125 37.22461,3.27343 8.95264,0.61218 15.46489,0.81446 22.57812,0.81446 4.03193,0 7.89875,-0.0983 11.59375,-0.29297 3.695,-0.19473 7.21709,-0.48532 10.5625,-0.8711 3.34541,-0.38578 6.51293,-0.86628 9.49609,-1.43945 2.98317,-0.57317 5.78237,-1.2392 8.39063,-1.99609 2.60826,-0.7569 5.02539,-1.60407 7.24609,-2.54102 2.2207,-0.93695 4.24593,-1.96478 6.06641,-3.07812 1.82048,-1.11335 3.43615,-2.31355 4.84375,-3.59961 1.4076,-1.28607 2.60583,-2.65621 3.58789,-4.11133 0.90405,-1.33906 1.55115,-2.39091 1.90234,-3.21485 0.3512,-0.82393 0.40706,-1.42055 0.12696,-1.84961 -0.28011,-0.42905 -0.89491,-0.69129 -1.88477,-0.8457 -0.98985,-0.1544 -2.35476,-0.20117 -4.13281,-0.20117 -1.70293,0 -3.6798,-0.11972 -5.48828,-0.31055 -1.80849,-0.19082 -3.44825,-0.45369 -4.47852,-0.74218 -1.55267,-0.43475 -2.49202,-0.80465 -3.04297,-1.32618 -0.27547,-0.26076 -0.45489,-0.55936 -0.56445,-0.92187 -0.10956,-0.36252 -0.14844,-0.789 -0.14844,-1.30664 0,-1.1352 0.26121,-2.38432 0.78711,-3.74414 0.52591,-1.35982 1.31538,-2.83161 2.36719,-4.41602 1.05181,-1.58441 2.3676,-3.28087 3.94531,-5.08984 1.57771,-1.80897 3.41787,-3.73018 5.52149,-5.76367 2.30396,-2.22733 4.40792,-4.37278 5.93554,-6.03125 1.52763,-1.65848 2.47852,-2.82904 2.47852,-3.10352 0,-0.27647 -1.17681,-1.02107 -3.08008,-2 -1.90327,-0.97893 -4.5325,-2.19306 -7.4375,-3.41016 -3.43089,-1.43747 -6.3429,-2.77141 -8.83984,-4.08203 -2.49695,-1.31061 -4.57954,-2.59836 -6.35547,-3.94336 -1.77593,-1.345 -3.24389,-2.74647 -4.51172,-4.28711 -1.26784,-1.54063 -2.33592,-3.21968 -3.30859,-5.11718 l -3.0293,-5.91016 0.25,-22.38867 c 0.0691,-6.16059 0.23928,-12.51197 0.45703,-17.78516 0.0854,-2.06814 0.19589,-2.77773 0.29297,-4.4375 L 110.62891,515.54297 C 97.203588,498.45621 70.278875,457.27899 63.304688,407.58789 l 198.355472,-161.57812 -109.125,-35.57227 70.53906,-50.04102 90.88281,21.38477 c 0.13418,-0.6079 0.2287,-1.40897 0.36914,-1.9668 0.62382,-2.47788 1.30315,-4.43236 1.9668,-5.58984 0.48558,-0.84696 0.85403,-1.53609 1.11914,-2.16602 0.26511,-0.62992 0.42645,-1.20017 0.49219,-1.80859 0.13147,-1.21684 -0.11487,-2.58666 -0.6543,-4.89062 -0.42824,-1.82815 -0.73823,-3.8744 -0.93359,-5.95313 -0.19537,-2.07873 -0.27557,-4.18995 -0.24414,-6.14844 0.0314,-1.95849 0.17362,-3.76304 0.42578,-5.23047 0.25215,-1.46743 0.61327,-2.59758 1.08007,-3.20312 0.35236,-0.45679 0.62596,-0.79655 0.86915,-1.01367 0.24318,-0.21713 0.45724,-0.31055 0.68945,-0.27149 0.46442,0.0781 1.00394,0.68466 2.01367,1.88672 0.59552,0.70872 1.40888,1.35035 2.26172,1.82617 0.85284,0.47583 1.7448,0.78558 2.49609,0.82813 1.50258,0.0851 3.546,0.43215 4.70899,0.80078 0.43299,0.13724 0.80054,0.19824 1.13867,0.14258 0.33813,-0.0557 0.64741,-0.22653 0.96289,-0.54883 0.63096,-0.64461 1.28805,-1.89708 2.26172,-4.05078 0.61155,-1.35233 1.1309,-2.40038 1.60937,-3.17188 0.47848,-0.77149 0.91684,-1.26606 1.36524,-1.51367 0.44839,-0.24761 0.90643,-0.24863 1.42773,-0.0293 0.5213,0.21934 1.10554,0.65974 1.80274,1.28907 0.82592,0.74578 1.48279,1.16901 2.0039,1.15429 0.26056,-0.007 0.48695,-0.12368 0.6836,-0.36523 0.19664,-0.24155 0.36297,-0.60816 0.5039,-1.11328 0.28186,-1.01024 0.46021,-2.57757 0.56836,-4.81836 0.10816,-2.24079 0.14649,-5.15496 0.14649,-8.86133 0,-3.9568 0.0782,-7.61714 0.20508,-10.33594 0.12684,-2.7188 0.30226,-4.49561 0.49609,-4.68945 z"
       id="path1187" />
    <path
       style="fill:#000000;stroke:none;stroke-width:1px;stroke-linecap:butt;stroke-linejoin:miter;stroke-opacity:1"
       d="m 994.34477,281.63956 -101.25839,-1.25787 c 2.51574,-49.68579 -32.02545,-62.99947 -70.75509,-64.46574 -30.29903,-1.14709 -61.62408,12.8176 -65.7236,38.05051 -13.56188,83.47446 230.11825,18.27882 252.20251,175.4726 10.8644,77.33183 -45.82006,156.29883 -174.21469,159.41288 -86.12691,2.0889 -193.71169,-31.42479 -193.39722,-164.12988 l 103.14518,0.31447 c 0,0 -10.61662,71.12736 72.01295,77.98782 34.77008,2.88684 87.18317,-3.69667 89.93758,-44.65432 2.66256,-39.5918 -71.29552,-52.09454 -88.67971,-56.91853 C 759.15654,385.22988 665.98723,368.79425 654.4059,283.84083 644.07432,208.05478 700.49677,134.49267 818.24323,132.35098 c 78.46225,-1.42715 180.18961,34.82258 176.10154,149.28858 z"
       id="path1204" />
    <path
       style="opacity:1;fill:#000000;fill-opacity:0.97058835;stroke:none;stroke-width:11.73521423;stroke-linecap:butt;stroke-linejoin:bevel;stroke-miterlimit:4;stroke-dasharray:none;stroke-opacity:1"
       d="m 1207.0137,131.68945 c -14.2418,-0.0478 -29.3169,0.13251 -45.2539,0.4961 h -108.9961 v 456.66601 h 108.9961 V 390.75781 c 1.3135,0.003 25.616,0.0639 54.7382,0.22852 83.1252,0.46979 107.0777,8.44048 107.9141,51.48047 0.8263,42.51675 -12.1424,57.59608 -103.1289,57.86718 -30.228,0.0901 -59.4941,0.30469 -59.4941,0.30469 l -0.029,88.21289 c 0,0 49.87,0.0474 79.3672,0.36133 88.4138,0.94111 195.7111,-8.25575 193.8144,-144.16211 -0.647,-46.36244 -38.6968,-98.38203 -73.041,-103.41797 36.549,-15.74581 57.0517,-56.82527 51.7109,-105.35937 -9.0672,-82.3971 -68.9272,-104.12142 -206.5976,-104.58399 z m 6.5508,89.9375 c 63.1878,-0.24776 93.0648,7.6 93.7851,40.03516 0.9001,40.53172 -13.7171,52.45117 -92.6797,51.98047 -28.5473,-0.17017 -52.5519,-0.44513 -52.9101,-0.44922 v -91.20898 h 0.4121 v 0.0703 c 0,0 4.4141,-0.0482 6.207,-0.0703 h 5.8027 v -0.0664 c 9.3984,-0.10223 22.4272,-0.22454 39.3829,-0.29102 z"
       id="rect1206" />
    <path
       style="opacity:1;fill:#000000;fill-opacity:0.95882353;stroke:none;stroke-width:11.3565588;stroke-linecap:butt;stroke-linejoin:bevel;stroke-miterlimit:4;stroke-dasharray:none;stroke-opacity:1"
       d="m 1479.7129,132.18555 v 456.66601 h 102.0762 V 303.50195 l 175.2701,285.34999 106.7357,-3.8e-4 V 132.18555 H 1761.7188 V 417.86719 L 1582.8246,131.40758 Z"
       id="rect1218" />
  </g>
</svg>
