<svg xmlns="http://www.w3.org/2000/svg" xmlns:xlink="http://www.w3.org/1999/xlink" height="512" width="512">
    <defs>
        <symbol overflow="visible" id="a">
            <path d="M1.61-3.594v-2.328h2.218c.828 0 1.188.484 1.188 1.14 0 .97-.72 1.188-1.547 1.188zM.733 0h.875v-2.844H3.78c.86 0 1.016.547 1.11 1.203.14.657 0 1.375.25 1.641h.984c-.375-.453-.328-1.188-.39-1.844-.063-.656-.22-1.218-1-1.375v-.015c.812-.22 1.156-.891 1.156-1.688 0-1.062-.766-1.75-2.016-1.75H.735zm0 0"/>
        </symbol>
        <symbol overflow="visible" id="b">
            <path d="M3.594-1.688c0 .438-.438 1.094-1.485 1.094-.484 0-.937-.187-.937-.703 0-.594.453-.781.984-.875.531-.094 1.125-.094 1.438-.328zM4.875-.64c-.094.047-.172.047-.234.047-.266 0-.266-.156-.266-.531v-2.484c0-1.141-.938-1.329-1.813-1.329-1.062 0-2 .422-2.046 1.61h.796c.047-.703.532-.906 1.204-.906.515 0 1.078.109 1.078.796 0 .594-.75.547-1.625.704-.813.171-1.625.39-1.625 1.484 0 .969.719 1.36 1.594 1.36.671 0 1.265-.235 1.703-.75 0 .53.25.75.671.75.25 0 .422-.048.563-.126zm0 0"/>
        </symbol>
        <symbol overflow="visible" id="c">
            <path d="M4.922-6.672h-.797v2.484h-.016c-.359-.562-1.078-.75-1.562-.75-1.485 0-2.203 1.141-2.203 2.516 0 1.36.734 2.531 2.219 2.531.656 0 1.28-.234 1.546-.765h.016V0h.797zm-3.75 4.297c0-.938.375-1.86 1.453-1.86 1.094 0 1.531.876 1.531 1.829 0 .906-.422 1.812-1.484 1.812-1.031 0-1.5-.875-1.5-1.781zm0 0"/>
        </symbol>
        <symbol overflow="visible" id="d">
            <path d="M.64 0h.797v-4.828H.641zm.797-6.672H.641v.969h.796zm0 0"/>
        </symbol>
        <symbol overflow="visible" id="e">
            <path d="M.344-2.406C.344-1 1.156.109 2.688.109 4.218.11 5.03-1 5.03-2.406c0-1.422-.812-2.531-2.343-2.531-1.532 0-2.344 1.109-2.344 2.53zm.828 0c0-1.188.672-1.828 1.516-1.828.828 0 1.5.64 1.5 1.828 0 1.156-.672 1.812-1.5 1.812-.844 0-1.516-.656-1.516-1.812zm0 0"/>
        </symbol>
        <clipPath id="f">
            <path d="M339 252.023h14V282h-14zm0 0"/>
        </clipPath>
        <clipPath id="g">
            <path d="M332.754 256H339v13h-6.246zm0 0"/>
        </clipPath>
    </defs>
    <g fill="#010101">
        <g transform="translate(-3759.646 -2766.262) scale(11.32523)">
            <use height="100%" width="100%" xlink:href="#a" x="350.536" y="280.197"/>
            <use height="100%" width="100%" xlink:href="#b" x="356.594" y="280.197"/>
            <use height="100%" width="100%" xlink:href="#c" x="361.269" y="280.197"/>
            <use height="100%" width="100%" xlink:href="#d" x="366.468" y="280.197"/>
            <use height="100%" width="100%" xlink:href="#e" x="368.198" y="280.197"/>
        </g>
        <path d="M332.523 260.98h34.64c11.945 0 18.842 6.283 18.842 17.254 0 11.281-6.901 17.739-18.842 17.739h-34.64zm-19.598 50.965h51.405c29.02 0 41.277-13.629 41.277-31.19 0-15.221-7.391-25.88-21.016-28.846v-.352c10.174-4.38 15.968-12.518 15.968-23.799 0-18.668-13.18-27.784-33.222-27.784h-54.416zm19.598-95.958h31.986c10.659 0 16.453 4.073 16.453 15.35 0 10.046-7.03 15.529-16.453 15.529h-31.986zM213.828 274.65c.49 27.74 21.148 39.991 46.718 39.991 22.297 0 44.545-10.041 44.545-35.171 0-11.589-7.076-24.11-21.808-28.535-5.794-1.722-30.568-8.138-32.293-8.582-8.005-2.21-13.314-6.59-13.314-14.466 0-11.282 11.41-14.554 20.522-14.554 13.497 0 23.227 5.309 24.156 19.73h19.597c0-23.355-19.597-35.744-42.956-35.744-20.261 0-40.966 10.485-40.966 32.915 0 11.634 5.666 23.226 24.82 28.403 15.35 4.247 25.528 6.279 33.4 9.244 4.512 1.726 9.249 5.177 9.249 13.804 0 8.494-6.462 16.942-23.716 16.942-15.657 0-28.357-6.723-28.357-23.977zm196.91 0c.489 27.74 21.143 39.991 46.717 39.991 22.293 0 44.545-10.041 44.545-35.171 0-11.589-7.076-24.11-21.808-28.535-5.794-1.722-30.567-8.138-32.293-8.582-8.009-2.21-13.318-6.59-13.318-14.466 0-11.282 11.415-14.554 20.53-14.554 13.489 0 23.223 5.309 24.152 19.73h19.597c0-23.355-19.597-35.744-42.956-35.744-20.26 0-40.965 10.485-40.965 32.915 0 11.634 5.661 23.226 24.819 28.403 15.35 4.247 25.524 6.279 33.4 9.244 4.512 1.726 9.249 5.177 9.249 13.804 0 8.494-6.462 16.942-23.716 16.942-15.66 0-28.357-6.723-28.357-23.977zm0 0"/>
        <g clip-path="url(#f)" transform="translate(-3759.646 -2766.262) scale(11.32523)">
            <path d="M352.375 252.023s-5.082 4.407-9.113 13.68c-4.035 9.274-3.79 15.996-3.79 15.996s5.079-4.41 9.114-13.68c4.031-9.277 3.789-15.996 3.789-15.996"/>
        </g>
        <path d="M160.212 109.063s-42.603 36.938-76.356 114.668C50.053 301.414 52.09 357.776 52.09 357.776s42.604-36.947 76.356-114.672c33.803-77.73 31.766-134.049 31.766-134.049"/>
        <path d="M107.966 124.679s-31.547 27.34-56.585 84.896c-25.04 57.597-23.488 99.317-23.488 99.317s31.542-27.386 56.535-84.941c25.04-57.556 23.538-99.272 23.538-99.272"/>
        <g clip-path="url(#g)" transform="translate(-3759.646 -2766.262) scale(11.32523)">
            <path d="M338.102 256.281s-2.067 1.793-3.707 5.563c-1.641 3.773-1.54 6.508-1.54 6.508s2.067-1.793 3.708-5.563c1.64-3.773 1.539-6.508 1.539-6.508"/>
        </g>
    </g>
</svg>
