<svg xmlns="http://www.w3.org/2000/svg" height="512" width="512">
    <path d="M110.96 155.379c0 48.193-.167 50.016-5.388 59.186-3.541 6.216-11.417 13.543-17.584 16.36-21.323 9.736-46.729-.595-54.842-22.306-5.018-13.422-1.552-29.915 8.48-40.359 6.919-7.198 13.842-10.676 24.743-12.428l4.502-.72V133.49l-3.062-.287c-4.086-.383-15.224 2.184-21.528 4.964-23.204 10.227-37.58 34.6-35.973 60.996 1.352 22.247 14.113 41.927 33.36 51.447 17.746 8.775 35.396 8.946 52.426.5 12.61-6.258 22.297-15.974 28.25-28.348 3.795-7.872 5.401-14.504 6.354-26.212.816-9.998 1.198-11.58 4.635-19.098 2.351-5.147 10.756-13.71 16.16-16.472 19.19-9.803 42.298-2.505 51.893 16.38 1.331 2.614 2.854 6 3.37 7.478.566 1.606 1.148 16.576 1.444 36.934l.5 34.23 9.727.271 9.728.27-.317-35.852c-.291-33.24-.458-36.29-2.218-41.886-4.177-13.244-12.623-25.297-23.229-33.144-6.411-4.748-11.35-7.099-19.098-9.083-15.402-3.953-32.016-.986-45.31 8.088-2.975 2.03-5.812 3.69-6.307 3.69-.583 0-.899-6.573-.899-18.469v-18.465h-19.818v43.958m135.299-36.976l.27 6.981h18.92l.27-6.981.27-6.982h-19.996l.27 6.982m34.047 37.517c0 47.565.383 52.8 4.597 62.785 7.22 17.117 22.718 31.393 39.452 36.323 22.972 6.77 49.68-2.355 64.13-21.906l2.263-3.062 8.513 8.6c7.131 7.206 9.756 9.195 16.168 12.245 10.714 5.093 14.321 5.916 26.125 5.979 14.77.075 25.335-3.437 36.032-11.983 13.165-10.522 21.511-24.84 23.816-40.875l.595-4.144-3.87-.5a391.835 391.835 0 00-9.819-1.06c-6.574-.624-6.257-.874-7.593 5.883-1.082 5.492-5.813 13.643-10.61 18.29-5.513 5.347-13.689 9.391-21.798 10.781-20.013 3.437-40.733-11.326-44.59-31.775-.524-2.78-.899-22.564-.899-47.424v-42.66h-21.528l-.27 46.213-.27 46.209-3.437 6.935c-4.244 8.559-10.286 14.813-18.004 18.624-15.852 7.834-33.523 4.934-45.435-7.448-2.946-3.066-6.241-7.298-7.302-9.374-4.44-8.692-4.647-11.259-4.647-57.65V111.42h-21.62v44.499m-34.23 40.175v61.259h19.818V134.84h-19.818v61.254m-234.93 82.158c-1.53 1.531-1.53 39.543 0 41.074 1.44 1.444 13.51 1.444 14.954 0 1.531-1.53 1.531-39.543 0-41.074-.64-.64-3.695-1.082-7.477-1.082-3.786 0-6.836.441-7.477 1.082m22.518 0c-1.531 1.531-1.531 27.835 0 29.366.645.641 3.74 1.082 7.614 1.082 5.492 0 6.682-.278 7.477-1.76.52-.965.945-7.431.945-14.367 0-15.224-.104-15.403-8.917-15.403-3.512 0-6.49.454-7.115 1.082m22.518 0c-1.44 1.44-1.44 17.113 0 18.557 1.444 1.44 13.514 1.44 14.954 0 1.44-1.444 1.44-17.117 0-18.557-1.44-1.444-13.51-1.444-14.954 0m22.518 0c-1.527 1.531-1.527 38.645 0 40.176.645.64 3.745 1.082 7.614 1.082 5.492 0 6.682-.28 7.477-1.76.562-1.04.944-8.963.944-19.41 0-10.452-.383-18.374-.944-19.414-.795-1.477-1.98-1.756-7.477-1.756-3.87 0-6.97.441-7.614 1.082m22.975-.087c-1.264.74-1.53 2.246-1.53 8.554 0 10.718.332 11.168 8.375 11.168 3.873 0 7.019-.442 7.655-1.082 1.444-1.44 1.444-17.113 0-18.557-1.335-1.332-12.249-1.398-14.5-.083m22.968.087c-.625.624-1.082 3.603-1.082 7.115 0 7.04.091 7.115 8.558 7.115 6.757 0 7.656-.9 7.656-7.656 0-6.786-.899-7.656-7.926-7.656-3.512 0-6.587.458-7.206 1.082m22.488.091c-1.423 1.706-1.552 28.21-.15 29.903 1.344 1.623 12.67 1.84 14.238.271 1.532-1.53 1.532-28.734 0-30.265-1.514-1.514-12.815-1.444-14.088.087m22.555-.087c-1.53 1.531-1.53 119.717 0 121.248 1.44 1.443 13.51 1.443 14.954 0 .815-.82 1.082-15.54 1.082-60.76 0-58.104-.046-59.706-1.714-60.592-2.434-1.294-13.003-1.219-14.322.104m22.972-.087c-1.436.84-1.536 4.726-1.536 60.576 0 45.218.263 59.939 1.082 60.759 1.444 1.443 13.514 1.443 14.954 0 1.531-1.532 1.531-119.717 0-121.248-1.336-1.34-12.25-1.402-14.5-.083m22.068.083c-1.531 1.531-1.531 90.891 0 92.422 1.44 1.44 13.51 1.44 14.954 0 .811-.811 1.082-12.295 1.082-46.35 0-43.867-.054-45.29-1.715-46.176-2.43-1.294-12.998-1.219-14.32.104m22.517 0c-1.531 1.531-1.531 53.057 0 54.589 1.444 1.44 13.514 1.44 14.954 0 1.53-1.532 1.53-53.058 0-54.589-.637-.64-3.691-1.082-7.477-1.082-3.782 0-6.836.441-7.477 1.082m22.971-.083c-1.385.807-1.53 2.738-1.53 20.483 0 14.055.307 19.9 1.08 20.679.642.636 3.696 1.082 7.478 1.082 3.786 0 6.836-.446 7.477-1.082.773-.778 1.081-6.624 1.081-20.679 0-18.465-.1-19.643-1.714-20.508-2.247-1.207-11.787-1.186-13.872.025m22.069.083c-1.527 1.531-1.527 26.034 0 27.565 1.443 1.44 13.514 1.44 14.957 0 .737-.737 1.082-5.135 1.082-13.785 0-8.646-.345-13.044-1.082-13.78-.64-.64-3.694-1.082-7.476-1.082-3.787 0-6.84.441-7.477 1.082m22.971-.087c-1.431.84-1.535 4.369-1.535 54.268 0 40.359.266 53.64 1.082 54.455.661.662 3.786 1.082 8.017 1.082 5.493 0 7.049-.3 7.477-1.444.3-.79.541-25.222.541-54.318 0-39.901-.267-53.14-1.082-53.956-1.335-1.34-12.249-1.402-14.5-.083m22.426.133c-1.414 1.04-1.51 4.452-1.26 45.98.232 38.736.457 44.977 1.622 45.722 1.98 1.26 12.92 1.082 14.23-.233 1.535-1.53 1.535-89.987 0-91.519-1.431-1.435-12.607-1.393-14.592.05m23.063-.05c-1.53 1.532-1.53 72.875 0 74.406 1.44 1.44 12.611 1.44 14.051 0 1.535-1.53 1.535-72.874 0-74.406-.624-.624-3.603-1.081-7.023-1.081-3.425 0-6.408.457-7.028 1.081m22.489.092c-1.415 1.706-1.485 91.344-.07 93.05 1.343 1.623 12.569 1.764 14.154.183 1.531-1.535 1.531-91.794 0-93.325-1.514-1.515-12.81-1.444-14.08.087m22.443.545c-1.398 2.609-1.302 53.453.104 54.855 1.444 1.444 13.514 1.444 14.954 0 1.53-1.531 1.53-53.956 0-55.487-.641-.64-3.737-1.082-7.615-1.082-5.492 0-6.673.27-7.443 1.71m23.075-.716c-1.406.824-1.53 3.104-1.53 27.698 0 19.639.29 27.087 1.08 27.877 1.44 1.444 13.51 1.444 14.955 0 1.53-1.531 1.53-53.956 0-55.487-1.34-1.34-12.254-1.402-14.505-.083m22.069.083c-1.373 1.373-1.469 27.111-.108 29.637.774 1.44 1.955 1.71 7.447 1.71 3.878 0 6.974-.441 7.615-1.082 1.53-1.531 1.53-28.734 0-30.265-.637-.64-3.691-1.082-7.477-1.082-3.782 0-6.836.441-7.477 1.082m22.522 0c-1.44 1.44-1.44 17.113 0 18.557 1.44 1.44 13.514 1.44 14.953 0 .679-.679 1.082-4.144 1.082-9.279 0-5.134-.403-8.604-1.082-9.278-.64-.64-3.694-1.082-7.476-1.082-3.787 0-6.836.441-7.477 1.082m22.88.283c-1.215 1.206-1.44 4.31-1.44 19.892 0 10.993.383 19.181.944 20.221.8 1.481 1.981 1.76 7.477 1.76 3.874 0 6.97-.44 7.614-1.082.774-.773 1.082-6.574 1.082-20.537s-.308-19.763-1.082-20.537c-1.63-1.631-12.881-1.415-14.595.283" />
</svg>
