<?xml version="1.0" encoding="UTF-8" standalone="no"?>
<svg
   xmlns:dc="http://purl.org/dc/elements/1.1/"
   xmlns:cc="http://creativecommons.org/ns#"
   xmlns:rdf="http://www.w3.org/1999/02/22-rdf-syntax-ns#"
   xmlns:svg="http://www.w3.org/2000/svg"
   xmlns="http://www.w3.org/2000/svg"
   xmlns:sodipodi="http://sodipodi.sourceforge.net/DTD/sodipodi-0.dtd"
   xmlns:inkscape="http://www.inkscape.org/namespaces/inkscape"
   height="512"
   width="512"
   version="1.1"
   id="svg53"
   sodipodi:docname="sbs world movies.svg"
   inkscape:version="0.92.2 5c3e80d, 2017-08-06">
  <metadata
     id="metadata57">
    <rdf:RDF>
      <cc:Work
         rdf:about="">
        <dc:format>image/svg+xml</dc:format>
        <dc:type
           rdf:resource="http://purl.org/dc/dcmitype/StillImage" />
        <dc:title></dc:title>
      </cc:Work>
    </rdf:RDF>
  </metadata>
  <sodipodi:namedview
     pagecolor="#ffffff"
     bordercolor="#666666"
     borderopacity="1"
     objecttolerance="10"
     gridtolerance="10"
     guidetolerance="10"
     inkscape:pageopacity="0"
     inkscape:pageshadow="2"
     inkscape:window-width="1920"
     inkscape:window-height="1015"
     id="namedview55"
     showgrid="false"
     showguides="true"
     inkscape:guide-bbox="true"
     inkscape:zoom="1.1951627"
     inkscape:cx="378.33063"
     inkscape:cy="218.17113"
     inkscape:window-x="0"
     inkscape:window-y="0"
     inkscape:window-maximized="1"
     inkscape:current-layer="svg53">
    <sodipodi:guide
       position="9.6112262,403.6715"
       orientation="1,0"
       id="guide61"
       inkscape:locked="false" />
    <sodipodi:guide
       position="501.53126,325.03419"
       orientation="1,0"
       id="guide63"
       inkscape:locked="false" />
    <sodipodi:guide
       position="0,0"
       orientation="0,512"
       id="guide236"
       inkscape:locked="false" />
    <sodipodi:guide
       position="512,0"
       orientation="-512,0"
       id="guide238"
       inkscape:locked="false" />
    <sodipodi:guide
       position="512,512"
       orientation="0,-512"
       id="guide240"
       inkscape:locked="false" />
    <sodipodi:guide
       position="0,512"
       orientation="512,0"
       id="guide242"
       inkscape:locked="false" />
  </sodipodi:namedview>
  <defs
     id="defs23" />
  <style
     id="style167"
     type="text/css">
	.st0{fill:#010101;}
	.st1{fill:#939598;}
</style>
  <g
     id="g234"
     transform="matrix(0.4663202,0,0,0.4663202,9.3160365,159.59267)">
    <g
       transform="matrix(2.2791728,0,0,2.2791728,-209.84009,1216.5777)"
       id="layer1-7">
      <g
         transform="matrix(1.4436998,0,0,1.4436998,-105.42852,-917.76024)"
         id="g3049">
        <path
           d="m 136.8,335.2 c 6.2,-6 11.7,-14 15.8,-23.5 4.2,-9.5 6.2,-19 6.2,-27.8 v 0 c -6,6 -11.7,14 -15.8,23.5 -4.2,9.6 -6.2,19.1 -6.2,27.8"
           class="st0"
           id="path25087"
           inkscape:connector-curvature="0"
           style="fill:#010101" />
        <path
           d="m 143.3,348.5 c 8.2,-8 15.8,-18.8 21.5,-31.5 5.5,-12.8 8.2,-25.8 8.5,-37.2 v 0 c -8.3,8 -15.8,18.8 -21.2,31.5 -5.8,12.9 -8.6,25.7 -8.8,37.2"
           class="st0"
           id="path25091"
           inkscape:connector-curvature="0"
           style="fill:#010101" />
        <path
           d="m 152.3,367.2 c 11.2,-10.7 21.5,-25.5 29,-42.7 7.5,-17.2 11.5,-35 11.7,-50.5 h -0.3 c -11.2,10.8 -21.5,25.5 -29,42.8 -7.5,17.3 -11.2,34.7 -11.4,50.4"
           class="st0"
           id="path25095"
           inkscape:connector-curvature="0"
           style="fill:#010101" />
        <path
           d="m 164.8,391.7 c 15.3,-14.5 29,-34.3 39,-57.8 10.3,-23.5 15.3,-47 15.5,-68 l -0.3,0.2 c -15,14.5 -28.7,34.2 -39,57.8 -10,23.1 -15,46.8 -15.2,67.8"
           class="st0"
           id="path25101"
           inkscape:connector-curvature="0"
           style="fill:#010101" />
      </g>
    </g>
    <g
       id="g189">
      <path
         id="path175"
         d="M 491.8,346.1 H 448.5 L 431,286.7 411,346.4 h -35.7 l -20,-59.7 -17.5,59.4 h -42.6 l 40.5,-124.6 h 36.1 l 21.7,61.5 21.7,-61.5 h 36.1 z"
         inkscape:connector-curvature="0" />
      <path
         id="path177"
         d="m 556.3,348.2 c -9.5,0 -18.4,-1.7 -26.6,-4.9 -8.2,-3.3 -15.3,-7.8 -21.4,-13.6 -6.1,-5.8 -10.8,-12.6 -14.2,-20.4 -3.4,-7.8 -5.1,-16.2 -5.1,-25.2 v -0.4 c 0,-9 1.7,-17.3 5.2,-25.2 3.5,-7.8 8.2,-14.7 14.3,-20.5 6.1,-5.8 13.2,-10.4 21.5,-13.8 8.2,-3.4 17.1,-5 26.7,-5 9.6,0 18.4,1.7 26.6,4.9 8.2,3.3 15.3,7.8 21.4,13.6 6.1,5.8 10.8,12.6 14.2,20.4 3.4,7.8 5.1,16.2 5.1,25.2 v 0.4 c 0,9 -1.7,17.4 -5.2,25.2 -3.5,7.8 -8.3,14.7 -14.3,20.5 -6.1,5.8 -13.2,10.4 -21.5,13.8 -8.3,3.4 -17.2,5 -26.7,5 z m 0.3,-36.6 c 3.9,0 7.4,-0.8 10.6,-2.3 3.2,-1.5 5.9,-3.6 8.1,-6.1 2.2,-2.5 3.9,-5.4 5.1,-8.7 1.2,-3.3 1.8,-6.8 1.8,-10.4 v -0.4 c 0,-3.6 -0.6,-7.2 -1.9,-10.5 -1.2,-3.4 -3,-6.3 -5.2,-8.9 -2.2,-2.6 -5,-4.7 -8.1,-6.2 -3.2,-1.5 -6.8,-2.3 -10.8,-2.3 -3.9,0 -7.4,0.8 -10.6,2.3 -3.2,1.5 -5.9,3.6 -8.1,6.1 -2.2,2.5 -4,5.5 -5.1,8.7 -1.2,3.3 -1.8,6.8 -1.8,10.4 v 0.4 c 0,3.7 0.6,7.2 1.9,10.5 1.3,3.3 3,6.3 5.2,8.9 2.2,2.6 4.9,4.7 8.1,6.2 3.2,1.6 6.8,2.3 10.8,2.3 z"
         inkscape:connector-curvature="0" />
      <path
         id="path179"
         d="m 621,221.9 h 46.3 l 24,69.5 24,-69.5 h 45.6 l -50.2,124.6 h -39.6 z"
         inkscape:connector-curvature="0" />
      <path
         id="path181"
         d="m 770.1,221.9 h 41.4 v 123.7 h -41.4 z"
         inkscape:connector-curvature="0" />
      <path
         id="path183"
         d="m 829.2,221.9 h 105.5 v 33.9 h -64.9 v 12.5 h 60.4 v 29.9 h -60.4 v 13.4 h 65.8 v 33.9 H 829.2 Z"
         inkscape:connector-curvature="0" />
      <path
         id="path185"
         d="m 1003.3,347.9 c -12.6,0 -24.4,-1.7 -35.3,-5.2 -10.9,-3.5 -20.3,-8.7 -28.2,-15.6 l 22.1,-26.3 c 6.7,5.2 13.8,8.9 21.2,11.1 7.4,2.2 14.8,3.4 22.1,3.4 3.8,0 6.5,-0.5 8.1,-1.4 1.6,-0.9 2.5,-2.2 2.5,-3.9 v -0.4 c 0,-1.8 -1.2,-3.2 -3.6,-4.4 -2.4,-1.2 -6.9,-2.4 -13.5,-3.7 -7,-1.4 -13.6,-3.1 -19.9,-4.9 -6.3,-1.9 -11.8,-4.3 -16.6,-7.2 -4.8,-2.9 -8.6,-6.6 -11.4,-11 -2.8,-4.4 -4.2,-9.9 -4.2,-16.5 v -0.4 c 0,-5.9 1.1,-11.4 3.4,-16.4 2.3,-5.1 5.7,-9.5 10.1,-13.3 4.4,-3.8 9.9,-6.7 16.4,-8.8 6.5,-2.1 14.1,-3.2 22.5,-3.2 12,0 22.5,1.4 31.6,4.2 9,2.8 17.1,7.1 24.3,12.7 l -20.1,27.9 c -5.9,-4.2 -12.1,-7.3 -18.6,-9.3 -6.5,-1.9 -12.7,-2.9 -18.5,-2.9 -3.1,0 -5.3,0.5 -6.8,1.4 -1.5,0.9 -2.2,2.2 -2.2,3.7 v 0.4 c 0,0.8 0.2,1.6 0.7,2.3 0.5,0.7 1.3,1.4 2.6,2 1.2,0.6 2.9,1.3 5,1.9 2.1,0.6 4.8,1.2 8.1,1.8 7.9,1.4 15.1,3.1 21.6,5.1 6.5,2 12,4.6 16.7,7.7 4.7,3.1 8.2,6.9 10.8,11.2 2.5,4.4 3.8,9.7 3.8,15.9 v 0.4 c 0,6.5 -1.3,12.3 -3.9,17.5 -2.6,5.2 -6.2,9.6 -11,13.2 -4.7,3.6 -10.5,6.4 -17.2,8.3 -6.9,1.7 -14.4,2.7 -22.6,2.7 z"
         inkscape:connector-curvature="0" />
      <polygon
         id="polygon187"
         points="295.2,346.1 337.8,346.1 373.3,225.8 371.7,221.5 335.7,221.5 "
         class="st1"
         style="fill:#939598" />
    </g>
    <g
       id="g203">
      <path
         id="path191"
         d="m 295.2,63.7 h 43.3 l 17.5,59.4 20,-59.7 h 35.7 l 20,59.7 17.5,-59.4 h 42.6 l -40.5,124.6 h -36.1 l -21.7,-61.5 -21.7,61.5 h -36.1 z"
         inkscape:connector-curvature="0" />
      <path
         id="path193"
         d="m 554.5,190 c -9.5,0 -18.4,-1.7 -26.6,-4.9 -8.2,-3.3 -15.3,-7.8 -21.4,-13.6 -6.1,-5.8 -10.8,-12.6 -14.2,-20.4 -3.4,-7.8 -5.1,-16.2 -5.1,-25.2 v -0.4 c 0,-9 1.7,-17.3 5.2,-25.2 3.5,-7.8 8.2,-14.7 14.3,-20.5 6.1,-5.8 13.2,-10.4 21.5,-13.8 8.2,-3.4 17.1,-5 26.7,-5 9.6,0 18.4,1.7 26.6,4.9 8.2,3.3 15.3,7.8 21.4,13.6 6.1,5.8 10.8,12.6 14.2,20.4 3.4,7.8 5.1,16.2 5.1,25.2 v 0.4 c 0,9 -1.7,17.4 -5.2,25.2 -3.5,7.8 -8.3,14.7 -14.3,20.5 -6.1,5.8 -13.2,10.4 -21.5,13.8 -8.3,3.4 -17.2,5 -26.7,5 z m 0.4,-36.5 c 3.9,0 7.4,-0.8 10.6,-2.3 3.2,-1.5 5.9,-3.6 8.1,-6.1 2.2,-2.5 3.9,-5.4 5.1,-8.7 1.2,-3.3 1.8,-6.8 1.8,-10.4 v -0.4 c 0,-3.7 -0.6,-7.2 -1.9,-10.5 -1.2,-3.4 -3,-6.3 -5.2,-8.9 -2.2,-2.6 -5,-4.7 -8.1,-6.2 -3.2,-1.5 -6.8,-2.3 -10.8,-2.3 -3.9,0 -7.4,0.8 -10.6,2.3 -3.2,1.5 -5.9,3.6 -8.1,6.1 -2.2,2.5 -4,5.5 -5.1,8.7 -1.2,3.3 -1.8,6.8 -1.8,10.4 v 0.4 c 0,3.7 0.6,7.2 1.9,10.5 1.2,3.4 3,6.3 5.2,8.9 2.2,2.6 4.9,4.7 8.1,6.2 3.2,1.5 6.7,2.3 10.8,2.3 z"
         inkscape:connector-curvature="0" />
      <path
         id="path195"
         d="M 633.5,63.7 H 694 c 11.1,0 20.2,1.3 27.3,3.8 7.1,2.5 12.9,6 17.2,10.3 3.8,3.8 6.6,8 8.5,12.7 1.9,4.7 2.8,10.3 2.8,16.6 v 0.4 c 0,9.1 -2.2,16.7 -6.5,23 -4.4,6.2 -10.3,11.2 -17.9,14.8 l 28.8,42.1 H 707 L 683.7,152 h -0.4 -8.5 v 35.4 H 633.4 V 63.7 Z m 59.2,58.8 c 4.9,0 8.8,-1.1 11.7,-3.2 2.8,-2.1 4.2,-5.1 4.2,-8.8 v -0.4 c 0,-4 -1.4,-7 -4.2,-8.9 -2.8,-1.9 -6.7,-2.9 -11.5,-2.9 h -18 v 24.2 z"
         inkscape:connector-curvature="0" />
      <path
         id="path197"
         d="m 765.5,63.7 h 41.4 V 152 H 865 v 35.4 h -99.5 z"
         inkscape:connector-curvature="0" />
      <path
         id="path199"
         d="m 875,63.7 h 47.4 c 12.3,0 23,1.4 32.3,4.3 9.2,2.9 16.9,7 23.1,12.3 6.1,5.3 10.7,11.7 13.8,19.2 3.1,7.5 4.6,15.8 4.6,25 v 0.4 c 0,9.2 -1.6,17.6 -4.7,25.3 -3.1,7.7 -7.8,14.3 -14.1,19.8 -6.3,5.5 -14.1,9.8 -23.5,12.9 -9.4,3.1 -20.3,4.6 -32.8,4.6 h -46 z m 48.2,87.6 c 9.5,0 17.1,-2 22.7,-6.1 5.6,-4.1 8.4,-10.6 8.4,-19.5 v -0.4 c 0,-9 -2.8,-15.5 -8.4,-19.5 -5.6,-4.1 -13.2,-6.1 -22.7,-6.1 h -6.9 v 51.6 z"
         inkscape:connector-curvature="0" />
      <polygon
         id="polygon201"
         points="491.8,63.7 449.2,63.7 413.7,184 415.2,188.3 451.3,188.3 "
         class="st1"
         style="fill:#939598" />
    </g>
  </g>
</svg>
