<?xml version="1.0" encoding="UTF-8" standalone="no"?>
<svg
   xmlns:dc="http://purl.org/dc/elements/1.1/"
   xmlns:cc="http://creativecommons.org/ns#"
   xmlns:rdf="http://www.w3.org/1999/02/22-rdf-syntax-ns#"
   xmlns:svg="http://www.w3.org/2000/svg"
   xmlns="http://www.w3.org/2000/svg"
   id="svg17"
   version="1.1"
   width="512"
   height="512">
  <metadata
     id="metadata21">
    <rdf:RDF>
      <cc:Work
         rdf:about="">
        <dc:format>image/svg+xml</dc:format>
        <dc:type
           rdf:resource="http://purl.org/dc/dcmitype/StillImage" />
        <dc:title></dc:title>
      </cc:Work>
    </rdf:RDF>
  </metadata>
  <defs
     id="defs5">
    <clipPath
       id="a">
      <path
         id="path2"
         d="M332.977 317.146H374.1v27.482h-41.123z" />
    </clipPath>
  </defs>
  <g
     style="stroke-width:0.88121629"
     id="g859"
     transform="matrix(1.0272218,0,0,1.0272218,9.5015714,125.39476)">
    <path
       style="fill:#000000;stroke-width:0.88121629"
       d="m 160.91446,70.19623 h 16.38663 c -0.38605,-18.03544 -14.14801,-30.32669 -36.3165,-30.32669 -18.93692,0 -34.06454,11.19658 -34.06454,27.53765 0,36.47492 56.46866,18.7811 56.46866,43.13987 0,9.55941 -9.54602,14.38353 -19.58685,14.38353 -13.72787,0 -23.41464,-6.62748 -24.06134,-20.06842 h -16.23103 c 0,24.83495 20.06068,33.23993 38.65889,33.23993 21.75174,0 37.64771,-10.24679 37.64771,-28.80621 0,-37.63142 -56.65305,-20.85716 -56.65305,-43.76676 0,-7.78713 7.22559,-12.03068 17.34595,-12.03068 15.03677,0 19.60956,7.83488 20.40549,16.69776 v 2e-5 z"
       id="path2998" />
    <g
       style="fill:#000000;stroke-width:0.88121629"
       transform="matrix(2.2791728,0,0,2.2791728,-359.75055,1327.1479)"
       id="layer1-7">
      <g
         style="fill:#000000;stroke-width:0.88121629"
         transform="matrix(1.4436998,0,0,1.4436998,-105.42852,-917.76024)"
         id="g3049">
        <path
           style="fill:#000000;stroke-width:0.88121629"
           d="m 182.36336,260.07028 c 2.45692,-2.36169 4.69482,-5.58044 6.34705,-9.38486 1.65224,-3.80919 2.47122,-7.64218 2.51407,-11.05141 l -0.0286,0.0286 c -2.4474,2.35693 -4.67578,5.56616 -6.32326,9.36107 -1.64272,3.79013 -2.46169,7.60884 -2.51405,11.00853"
           id="path25087" />
        <path
           style="fill:#000000;stroke-width:0.88121629"
           d="m 185.02234,265.41473 c 3.30974,-3.16803 6.32396,-7.48526 8.55428,-12.60034 2.23033,-5.11981 3.34172,-10.26978 3.41098,-14.85445 l -0.0427,0.0375 c -3.29555,3.16341 -6.30031,7.47597 -8.52106,12.57222 -2.22075,5.09627 -3.33205,10.22734 -3.41066,14.79778"
           id="path25091" />
        <path
           style="fill:#000000;stroke-width:0.88121629"
           d="m 188.62932,272.90201 c 4.50108,-4.30695 8.60747,-10.17386 11.64027,-17.1236 3.03767,-6.94968 4.55911,-13.95486 4.65695,-20.18585 l -0.0587,0.0478 c -4.48164,4.30232 -8.56848,10.15489 -11.59619,17.08046 -3.02769,6.92555 -4.54398,13.90172 -4.6561,20.10832"
           id="path25095" />
        <path
           style="fill:#000000;stroke-width:0.88121629"
           d="m 193.60803,282.70865 c 6.05286,-5.81403 11.56319,-13.74475 15.62448,-23.11899 4.07094,-9.37901 6.09052,-18.82539 6.1976,-27.22379 l -0.0772,0.0669 c -6.02403,5.81415 -11.51019,13.71617 -15.56175,23.06163 -4.05156,9.34547 -6.06654,18.83513 -6.1879,27.20461"
           id="path25101" />
      </g>
    </g>
    <path
       style="fill:#000000;stroke-width:0.88121629"
       d="M 186.05249,42.11505 V 135.813 h 45.73633 c 18.10233,0 31.88657,-8.82128 31.88657,-26.03046 0,-11.99467 -4.21985,-20.13561 -17.5098,-24.39075 7.36526,-3.19311 13.05917,-8.15139 13.05917,-20.29146 0,-15.48796 -10.28366,-22.98528 -27.31882,-22.98528 z m 16.3093,13.11772 h 26.61609 c 10.36017,0 14.28894,5.8993 14.28894,13.14699 0,8.20481 -5.50864,13.08843 -13.35196,13.08843 h -27.55307 z m 1.5e-4,38.04153 h 28.71005 c 11.45221,0 16.44052,6.33038 16.44052,14.75141 0,9.25567 -7.46936,14.66958 -15.95795,14.66958 h -29.19278 z"
       id="path3055" />
    <path
       style="fill:#000000;stroke-width:0.88121629"
       d="m 325.48035,70.19623 h 16.38654 c -0.38602,-18.03544 -14.14798,-30.32669 -36.31644,-30.32669 -18.93695,0 -34.06458,11.19658 -34.06458,27.53765 0,36.47492 56.46869,18.7811 56.46869,43.13987 0,9.55941 -9.54605,14.38353 -19.58682,14.38353 -13.72791,0 -23.41464,-6.62748 -24.0614,-20.06842 h -16.23102 c 0,24.83495 20.06067,33.23993 38.65894,33.23993 21.75174,0 37.64774,-10.24679 37.64774,-28.80621 0,-37.63142 -56.65305,-20.85716 -56.65305,-43.76676 0,-7.78713 7.22556,-12.03068 17.34589,-12.03068 15.0368,0 19.60956,7.83488 20.40552,16.69776 v 2e-5 z"
       id="path3061" />
    <path
       class="st0"
       d="m 170.63165,171.25119 h -42.41896 v 24.26855 h 35.95021 c 3.0542,0 5.33398,0.68555 6.83936,2.05469 1.50439,1.37109 2.25732,3.20117 2.25732,5.49219 0,2.29102 -0.76416,4.11035 -2.29102,5.45801 -1.52783,1.34766 -3.79639,2.02148 -6.80566,2.02148 h -35.95021 v 31.5459 c 0,4.13379 -0.93261,7.19922 -2.79638,9.19727 -1.86475,1.99902 -4.75673,2.99902 -7.67616,2.99902 -2.96484,0 -5.87999,-1.01074 -7.74376,-3.03223 C 108.13164,249.23459 107.2,246.1799 107.2,242.09201 V 166.0842 c 0,-2.87402 0.42627,-5.22266 1.28027,-7.04102 0.85303,-1.82031 2.18994,-3.14453 4.00928,-3.97656 1.81934,-0.83008 4.14404,-1.24609 6.97412,-1.24609 h 51.16798 c 3.18896,0 5.55908,0.70703 7.10889,2.12305 1.5498,1.41406 2.32471,4.26758 2.32471,6.55859 0,2.33594 -0.7749,5.21094 -2.32471,6.62695 -1.54981,1.41406 -3.91992,2.12207 -7.10889,2.12207 z"
       id="path14"
       style="fill:#000000;stroke-width:0.88121629" />
    <path
       class="st0"
       d="m 230.2791,152.13596 c 10.24219,0 19.03516,2.07812 26.37892,6.2334 7.3457,4.15527 12.9043,10.0625 16.67773,17.7207 3.77344,7.66016 5.66016,16.65527 5.66016,26.9873 0,7.6377 -1.0332,14.57812 -3.09961,20.82129 -2.06641,6.24414 -5.16602,11.65723 -9.29883,16.23926 -4.13281,4.58203 -9.20898,8.08594 -15.22853,10.51172 -6.01953,2.42578 -12.91406,3.63867 -20.68555,3.63867 -7.72754,0 -14.64551,-1.24707 -20.75439,-3.73926 -6.10986,-2.49414 -11.2085,-6.00781 -15.2959,-10.5459 -4.08838,-4.53711 -7.17627,-9.99512 -9.26514,-16.37402 -2.08887,-6.37793 -3.1333,-13.27441 -3.1333,-20.68652 0,-7.59082 1.08887,-14.55469 3.26807,-20.88867 2.17822,-6.33398 5.33398,-11.72461 9.46729,-16.17188 4.13232,-4.44727 9.16406,-7.85059 15.09375,-10.20801 5.92968,-2.35937 12.66845,-3.53808 20.21533,-3.53808 z m 28.43556,50.80664 c 0,-7.23242 -1.16992,-13.49902 -3.50392,-18.7998 -2.33594,-5.2998 -5.67188,-9.30957 -10.00781,-12.02734 -4.33398,-2.71777 -9.30859,-4.07715 -14.92383,-4.07715 -4,0 -7.69336,0.75293 -11.08496,2.25684 -3.39209,1.50586 -6.31201,3.69629 -8.75977,6.57031 -2.44873,2.875 -4.37988,6.54785 -5.79492,11.01758 -1.41504,4.46973 -2.12256,9.49023 -2.12256,15.05957 0,5.61621 0.70752,10.69141 2.12256,15.22852 1.41504,4.53809 3.41357,8.2998 5.99707,11.28613 2.58252,2.98828 5.54736,5.22266 8.89453,6.70508 3.3457,1.48242 7.01758,2.22363 11.01758,2.22363 5.12109,0 9.82617,-1.28027 14.11523,-3.84082 4.29102,-2.56055 7.70508,-6.5127 10.24219,-11.85938 2.53908,-5.34571 3.80861,-11.92677 3.80861,-19.74317 z"
       id="path16"
       style="fill:#000000;stroke-width:0.88121629" />
    <path
       class="st0"
       d="m 406.76544,153.82053 h 27.07715 c 6.78223,0 12.60059,0.62988 17.45215,1.88672 4.85156,1.25781 9.25391,3.61621 13.20703,7.0752 10.28613,8.80469 15.43066,22.19238 15.43066,40.16016 0,5.92969 -0.5166,11.34375 -1.5498,16.23926 -1.03418,4.89648 -2.62793,9.31055 -4.78418,13.24023 -2.15625,3.93164 -4.91895,7.44629 -8.28809,10.5459 -2.65137,2.38184 -5.54883,4.29004 -8.69238,5.72754 -3.14453,1.43848 -6.52539,2.44922 -10.1416,3.03223 -3.61621,0.58398 -7.69238,0.87598 -12.22949,0.87598 h -27.07715 c -3.63867,0 -6.37891,-0.5498 -8.2207,-1.65039 -1.84277,-1.10059 -3.04395,-2.65039 -3.60547,-4.65039 -0.56152,-1.99805 -0.8418,-4.5918 -0.8418,-7.78223 V 166.0842 c 0,-4.3125 0.96582,-7.43457 2.89746,-9.36621 1.93067,-1.93067 5.05371,-2.89746 9.36621,-2.89746 z m 8.74903,16.83496 v 64.0459 h 15.16113 c 3.32422,0 5.92969,-0.0898 7.81641,-0.26953 1.88672,-0.17871 3.84082,-0.62891 5.8623,-1.34766 2.02148,-0.71777 3.77344,-1.72852 5.25586,-3.03223 6.69336,-5.66016 10.04004,-13.40723 10.04004,-27.24414 0,-9.74707 -1.47168,-16.04785 -4.41406,-20.89941 -2.94238,-4.85156 -6.56934,-7.93945 -10.88184,-9.26562 -4.3125,-1.32422 -9.52441,-1.9873 -15.63281,-1.9873 h -13.20703 z"
       id="path18"
       style="fill:#000000;stroke-width:0.88121629" />
    <path
       class="st0"
       d="m 378.49103,176.09006 c -3.77344,-7.6582 -9.33203,-13.56543 -16.67773,-17.7207 -7.34375,-4.15527 -16.1377,-6.2334 -26.37988,-6.2334 -7.54688,0 -14.28516,1.17871 -20.21484,3.53809 -5.92969,2.35742 -10.96094,5.76074 -15.09375,10.20801 -4.13379,4.44727 -7.28906,9.83789 -9.46777,16.17188 -2.17871,6.33399 -3.26758,13.29785 -3.26758,20.88867 0,7.41211 1.04492,14.30859 3.13281,20.68652 2.08984,6.37891 5.17773,11.83691 9.26562,16.37402 4.08691,4.53809 9.18652,8.05176 15.2959,10.5459 6.1084,2.49219 13.02734,3.73926 20.75391,3.73926 7.77148,0 14.66602,-1.21289 20.68652,-3.63867 6.01953,-2.42578 11.09473,-5.92969 15.22852,-10.51172 4.13281,-4.58203 7.23242,-9.99512 9.29883,-16.23926 2.06543,-6.24316 3.09961,-13.18359 3.09961,-20.82129 -2e-5,-10.33204 -1.88673,-19.32716 -5.66017,-26.98731 z m -53.46918,21.34912 c -8.33179,2.23248 -16.88025,-2.703 -19.11273,-11.03473 8.33179,-2.23248 16.88025,2.70294 19.11273,11.03473 z m -18.91656,22.69501 c 2.23248,-8.33179 10.78094,-13.26727 19.11273,-11.03479 -2.23249,8.33178 -10.78095,13.26727 -19.11273,11.03479 z m 28.91656,-50.76447 c 6.0993,6.09924 6.0993,15.97015 0,22.06946 -6.09924,-6.09931 -6.09924,-15.97022 0,-22.06946 z m 0.39233,67.45941 c -6.0993,-6.09924 -6.0993,-15.97015 0,-22.06946 6.09925,6.09931 6.09925,15.97022 0,22.06946 z m 28.91657,-50.76446 c -2.23248,8.33179 -10.78094,13.26727 -19.11273,11.03473 2.23248,-8.33173 10.78094,-13.26722 19.11273,-11.03473 z m -18.91657,22.695 c 8.33173,-2.23248 16.88019,2.703 19.11267,11.03473 -8.33172,2.23249 -16.88018,-2.70294 -19.11267,-11.03473 z"
       id="path20"
       style="fill:#000000;stroke-width:0.88121629" />
  </g>
</svg>
