<?xml version="1.0" encoding="UTF-8" standalone="no"?>
<svg
   xmlns:dc="http://purl.org/dc/elements/1.1/"
   xmlns:cc="http://creativecommons.org/ns#"
   xmlns:rdf="http://www.w3.org/1999/02/22-rdf-syntax-ns#"
   xmlns:svg="http://www.w3.org/2000/svg"
   xmlns="http://www.w3.org/2000/svg"
   id="svg53"
   version="1.1"
   width="512"
   height="512">
  <metadata
     id="metadata57">
    <rdf:RDF>
      <cc:Work
         rdf:about="">
        <dc:format>image/svg+xml</dc:format>
        <dc:type
           rdf:resource="http://purl.org/dc/dcmitype/StillImage" />
        <dc:title></dc:title>
      </cc:Work>
    </rdf:RDF>
  </metadata>
  <defs
     id="defs23" />
  <style
     type="text/css"
     id="style167">
	.st0{fill:#010101;}
	.st1{fill:#939598;}
</style>
  <g
     transform="matrix(1.0628243,0,0,1.0628243,-88.536636,726.90743)"
     id="layer1-7">
    <g
       transform="matrix(1.4436998,0,0,1.4436998,-105.42852,-917.76024)"
       id="g3049">
      <path
         d="m 136.8,335.2 c 6.2,-6 11.7,-14 15.8,-23.5 4.2,-9.5 6.2,-19 6.2,-27.8 v 0 c -6,6 -11.7,14 -15.8,23.5 -4.2,9.6 -6.2,19.1 -6.2,27.8"
         class="st0"
         id="path25087"
         style="fill:#010101" />
      <path
         d="m 143.3,348.5 c 8.2,-8 15.8,-18.8 21.5,-31.5 5.5,-12.8 8.2,-25.8 8.5,-37.2 v 0 c -8.3,8 -15.8,18.8 -21.2,31.5 -5.8,12.9 -8.6,25.7 -8.8,37.2"
         class="st0"
         id="path25091"
         style="fill:#010101" />
      <path
         d="m 152.3,367.2 c 11.2,-10.7 21.5,-25.5 29,-42.7 7.5,-17.2 11.5,-35 11.7,-50.5 h -0.3 c -11.2,10.8 -21.5,25.5 -29,42.8 -7.5,17.3 -11.2,34.7 -11.4,50.4"
         class="st0"
         id="path25095"
         style="fill:#010101" />
      <path
         d="m 164.8,391.7 c 15.3,-14.5 29,-34.3 39,-57.8 10.3,-23.5 15.3,-47 15.5,-68 l -0.3,0.2 c -15,14.5 -28.7,34.2 -39,57.8 -10,23.1 -15,46.8 -15.2,67.8"
         class="st0"
         id="path25101"
         style="fill:#010101" />
    </g>
  </g>
  <path
     style="stroke-width:0.46632019"
     d="m 238.65231,320.98609 h -20.19166 l -8.16061,-27.69942 -9.3264,27.83932 h -16.64763 l -9.32641,-27.83932 -8.1606,27.69942 h -19.86524 l 18.88597,-58.1035 h 16.83416 l 10.11915,28.6787 10.11914,-28.6787 h 16.83416 z"
     id="path175" />
  <path
     style="stroke-width:0.46632019"
     d="m 268.72996,321.96536 c -4.43004,0 -8.58029,-0.79274 -12.40411,-2.28497 -3.82383,-1.53885 -7.1347,-3.63729 -9.97926,-6.34195 -2.84455,-2.70466 -5.03625,-5.87563 -6.62174,-9.51293 -1.58549,-3.6373 -2.37824,-7.55439 -2.37824,-11.75127 v -0.18653 c 0,-4.19688 0.79275,-8.06734 2.42487,-11.75127 1.63212,-3.6373 3.82382,-6.85491 6.66838,-9.55956 2.84455,-2.70466 6.15542,-4.84973 10.02588,-6.43522 3.82383,-1.58549 7.97408,-2.3316 12.45075,-2.3316 4.47668,0 8.58029,0.79274 12.40412,2.28497 3.82382,1.53885 7.1347,3.63729 9.97925,6.34195 2.84455,2.70466 5.03626,5.87564 6.62175,9.51293 1.58549,3.6373 2.37823,7.55439 2.37823,11.75127 v 0.18653 c 0,4.19688 -0.79274,8.11397 -2.42486,11.75127 -1.63212,3.6373 -3.87046,6.85491 -6.66838,9.55956 -2.84456,2.70466 -6.15543,4.84973 -10.02589,6.43522 -3.87045,1.58549 -8.0207,2.3316 -12.45075,2.3316 z m 0.1399,-17.06732 c 1.81865,0 3.45077,-0.37305 4.94299,-1.07253 1.49223,-0.69948 2.75129,-1.67875 3.7772,-2.84456 1.0259,-1.1658 1.81865,-2.51812 2.37823,-4.05698 0.55958,-1.53886 0.83938,-3.17098 0.83938,-4.84973 v -0.18653 c 0,-1.67875 -0.2798,-3.3575 -0.88601,-4.89636 -0.55959,-1.58549 -1.39896,-2.93782 -2.42487,-4.15025 -1.0259,-1.21243 -2.3316,-2.19171 -3.77719,-2.89119 -1.49222,-0.69948 -3.17098,-1.07253 -5.03626,-1.07253 -1.81865,0 -3.45077,0.37305 -4.94299,1.07253 -1.49223,0.69948 -2.75129,1.67876 -3.7772,2.84456 -1.0259,1.1658 -1.86528,2.56476 -2.37823,4.05698 -0.55958,1.53886 -0.83938,3.17098 -0.83938,4.84973 v 0.18653 c 0,1.72539 0.2798,3.35751 0.88601,4.89636 0.60622,1.53886 1.39896,2.93782 2.42487,4.15025 1.0259,1.21244 2.28497,2.19171 3.77719,2.89119 1.49223,0.74611 3.17098,1.07253 5.03626,1.07253 z"
     id="path177" />
  <path
     style="stroke-width:0.46632019"
     d="m 298.90088,263.06912 h 21.59063 l 11.19168,32.40926 11.19169,-32.40926 h 21.2642 l -23.40928,58.1035 h -18.46628 z"
     id="path179" />
  <path
     style="stroke-width:0.46632019"
     d="m 368.42922,263.06912 h 19.30566 v 57.68381 h -19.30566 z"
     id="path181" />
  <path
     style="stroke-width:0.46632019"
     d="m 395.98875,263.06912 h 49.19678 v 15.80826 h -30.26418 v 5.829 h 28.16574 v 13.94297 h -28.16574 v 6.24869 h 30.68387 v 15.80826 h -49.61647 z"
     id="path183" />
  <path
     style="stroke-width:0.46632019"
     d="m 477.17509,321.82547 c -5.87563,0 -11.37821,-0.79275 -16.4611,-2.42487 -5.08289,-1.63212 -9.4663,-4.05698 -13.15023,-7.27459 l 10.30568,-12.26422 c 3.12434,2.42486 6.43522,4.15025 9.88599,5.17615 3.45076,1.0259 6.90153,1.58549 10.30567,1.58549 1.77202,0 3.03108,-0.23316 3.7772,-0.65285 0.74611,-0.41969 1.1658,-1.0259 1.1658,-1.81865 v -0.18653 c 0,-0.83937 -0.55959,-1.49222 -1.67876,-2.0518 -1.11917,-0.55959 -3.21761,-1.11917 -6.29532,-1.72539 -3.26424,-0.65285 -6.34195,-1.44559 -9.27977,-2.28497 -2.93782,-0.88601 -5.50258,-2.00518 -7.74092,-3.3575 -2.23833,-1.35233 -4.01035,-3.07772 -5.31605,-5.12953 -1.30569,-2.05181 -1.95854,-4.61657 -1.95854,-7.69428 v -0.18653 c 0,-2.75129 0.51295,-5.31605 1.58549,-7.64765 1.07253,-2.37823 2.65802,-4.43004 4.70983,-6.20206 2.05181,-1.77201 4.61657,-3.12434 7.64765,-4.10362 3.03108,-0.97927 6.57512,-1.49222 10.49221,-1.49222 5.59584,0 10.4922,0.65285 14.73571,1.95854 4.19689,1.3057 7.97408,3.31088 11.33159,5.92227 l -9.37304,13.01033 c -2.75129,-1.95854 -5.64247,-3.40413 -8.67356,-4.33677 -3.03108,-0.88601 -5.92226,-1.35233 -8.62692,-1.35233 -1.44559,0 -2.4715,0.23316 -3.17098,0.65285 -0.69948,0.41968 -1.0259,1.0259 -1.0259,1.72538 v 0.18653 c 0,0.37306 0.0933,0.74611 0.32642,1.07254 0.23316,0.32642 0.60622,0.65284 1.21243,0.93264 0.55959,0.27979 1.35233,0.60621 2.33161,0.886 0.97927,0.2798 2.23833,0.55959 3.77719,0.83938 3.68393,0.65285 7.04143,1.44559 10.07252,2.37823 3.03108,0.93264 5.59584,2.14508 7.78754,3.59067 2.19171,1.44559 3.82383,3.21761 5.03626,5.22279 1.1658,2.0518 1.77202,4.5233 1.77202,7.41449 v 0.18653 c 0,3.03108 -0.60622,5.73573 -1.81865,8.1606 -1.21243,2.42486 -2.89119,4.47667 -5.12952,6.15543 -2.19171,1.67875 -4.89636,2.98444 -8.02071,3.87045 -3.21761,0.79275 -6.71501,1.25907 -10.53884,1.25907 z"
     id="path185" />
  <path
     style="stroke-width:0.46632019"
     d="m 146.97376,189.29727 h 20.19166 l 8.16061,27.69942 9.3264,-27.83932 h 16.64763 l 9.32641,27.83932 8.1606,-27.69942 h 19.86524 l -18.88597,58.10349 h -16.83416 l -10.11914,-28.67869 -10.11915,28.67869 h -16.83416 z"
     id="path191" />
  <path
     style="stroke-width:0.46632019"
     d="m 267.89059,248.19351 c -4.43004,0 -8.58029,-0.79275 -12.40412,-2.28497 -3.82383,-1.53886 -7.1347,-3.6373 -9.97925,-6.34196 -2.84456,-2.70465 -5.03626,-5.87563 -6.62175,-9.51293 -1.58549,-3.6373 -2.37823,-7.55439 -2.37823,-11.75127 v -0.18652 c 0,-4.19689 0.79274,-8.06734 2.42486,-11.75127 1.63212,-3.6373 3.82383,-6.85491 6.66838,-9.55957 2.84456,-2.70466 6.15543,-4.84973 10.02589,-6.43522 3.82382,-1.58549 7.97407,-2.3316 12.45075,-2.3316 4.47667,0 8.58029,0.79275 12.40411,2.28497 3.82383,1.53886 7.1347,3.6373 9.97926,6.34196 2.84455,2.70465 5.03625,5.87563 6.62174,9.51293 1.58549,3.6373 2.37823,7.55439 2.37823,11.75127 v 0.18653 c 0,4.19688 -0.79274,8.11397 -2.42486,11.75126 -1.63212,3.6373 -3.87046,6.85491 -6.66838,9.55957 -2.84455,2.70466 -6.15543,4.84973 -10.02588,6.43522 -3.87046,1.58549 -8.02071,2.3316 -12.45075,2.3316 z m 0.18653,-17.02069 c 1.81864,0 3.45076,-0.37306 4.94299,-1.07254 1.49222,-0.69948 2.75129,-1.67875 3.77719,-2.84455 1.02591,-1.1658 1.81865,-2.51813 2.37824,-4.05698 0.55958,-1.53886 0.83937,-3.17098 0.83937,-4.84973 v -0.18653 c 0,-1.72539 -0.27979,-3.35751 -0.88601,-4.89636 -0.55958,-1.58549 -1.39896,-2.93782 -2.42486,-4.15025 -1.02591,-1.21244 -2.3316,-2.19171 -3.77719,-2.89119 -1.49223,-0.69948 -3.17098,-1.07254 -5.03626,-1.07254 -1.81865,0 -3.45077,0.37306 -4.943,1.07254 -1.49222,0.69948 -2.75129,1.67875 -3.77719,2.84455 -1.0259,1.1658 -1.86528,2.56476 -2.37823,4.05699 -0.55959,1.53886 -0.83938,3.17098 -0.83938,4.84973 v 0.18653 c 0,1.72538 0.27979,3.3575 0.88601,4.89636 0.55958,1.58549 1.39896,2.93782 2.42486,4.15025 1.02591,1.21243 2.28497,2.1917 3.7772,2.89118 1.49222,0.69948 3.12434,1.07254 5.03626,1.07254 z"
     id="path193" />
  <path
     style="stroke-width:0.46632019"
     d="m 304.72988,189.29727 h 28.21238 c 5.17615,0 9.41966,0.60621 12.73054,1.77201 3.31087,1.1658 6.01553,2.79792 8.0207,4.8031 1.77202,1.77202 3.07772,3.73056 3.96373,5.92227 0.886,2.1917 1.30569,4.8031 1.30569,7.74091 v 0.18653 c 0,4.24352 -1.0259,7.78755 -3.03108,10.72537 -2.05181,2.89118 -4.8031,5.22278 -8.34713,6.90154 l 13.43002,19.63208 h -22.01031 l -10.86526,-16.50774 h -0.18653 -3.96372 v 16.50774 h -19.30566 v -57.68381 z m 27.60616,27.41962 c 2.28497,0 4.10362,-0.51295 5.45595,-1.49222 1.30569,-0.97927 1.95854,-2.37823 1.95854,-4.10362 v -0.18653 c 0,-1.86528 -0.65285,-3.26424 -1.95854,-4.15025 -1.3057,-0.886 -3.12435,-1.35232 -5.36269,-1.35232 h -8.39376 v 11.28494 z"
     id="path195" />
  <path
     style="stroke-width:0.46632019"
     d="m 366.28415,189.29727 h 19.30566 v 41.17607 h 27.0932 v 16.50774 h -46.39886 z"
     id="path197" />
  <path
     style="stroke-width:0.46632019"
     d="m 417.34621,189.29727 h 22.10358 c 5.73574,0 10.72536,0.65285 15.06214,2.00517 4.29015,1.35233 7.88081,3.26424 10.772,5.73574 2.84455,2.4715 4.98962,5.45595 6.43522,8.95335 1.44559,3.4974 2.14507,7.36786 2.14507,11.658 v 0.18653 c 0,4.29015 -0.74611,8.20724 -2.19171,11.7979 -1.44559,3.59067 -3.63729,6.66838 -6.57511,9.23314 -2.93782,2.56477 -6.57511,4.56994 -10.95852,6.01553 -4.38341,1.4456 -9.4663,2.14508 -15.29531,2.14508 h -21.45073 z m 22.47664,40.84965 c 4.43004,0 7.97407,-0.93264 10.58546,-2.84456 2.6114,-1.91191 3.91709,-4.94299 3.91709,-9.09324 v -0.18653 c 0,-4.19688 -1.30569,-7.22796 -3.91709,-9.09324 -2.61139,-1.91192 -6.15542,-2.84456 -10.58546,-2.84456 h -3.21761 v 24.06213 z"
     id="path199" />
</svg>
