<?xml version="1.0" encoding="UTF-8" standalone="no"?>
<svg
   xmlns:dc="http://purl.org/dc/elements/1.1/"
   xmlns:cc="http://creativecommons.org/ns#"
   xmlns:rdf="http://www.w3.org/1999/02/22-rdf-syntax-ns#"
   xmlns:svg="http://www.w3.org/2000/svg"
   xmlns="http://www.w3.org/2000/svg"
   xmlns:sodipodi="http://sodipodi.sourceforge.net/DTD/sodipodi-0.dtd"
   xmlns:inkscape="http://www.inkscape.org/namespaces/inkscape"
   id="svg4"
   version="1.1"
   width="512"
   height="512"
   sodipodi:docname="sky news on win.svg"
   inkscape:version="0.92.2 5c3e80d, 2017-08-06">
  <sodipodi:namedview
     pagecolor="#ffffff"
     bordercolor="#666666"
     borderopacity="1"
     objecttolerance="10"
     gridtolerance="10"
     guidetolerance="10"
     inkscape:pageopacity="0"
     inkscape:pageshadow="2"
     inkscape:window-width="1920"
     inkscape:window-height="1015"
     id="namedview21"
     showgrid="false"
     inkscape:zoom="1.84375"
     inkscape:cx="290.68013"
     inkscape:cy="263.27183"
     inkscape:window-x="0"
     inkscape:window-y="0"
     inkscape:window-maximized="1"
     inkscape:current-layer="svg4" />
  <metadata
     id="metadata10">
    <rdf:RDF>
      <cc:Work
         rdf:about="">
        <dc:format>image/svg+xml</dc:format>
        <dc:type
           rdf:resource="http://purl.org/dc/dcmitype/StillImage" />
        <dc:title />
      </cc:Work>
    </rdf:RDF>
  </metadata>
  <defs
     id="defs8" />
  <path
     style="opacity:1;fill:#000000;fill-opacity:1;stroke:#000000;stroke-width:2;stroke-linecap:round;stroke-linejoin:round;stroke-miterlimit:4;stroke-dasharray:none;stroke-opacity:1"
     d="M 209.19531 158.125 L 209.19531 280.18555 L 488.25195 280.18555 C 495.34299 280.18555 501.05273 274.48441 501.05273 267.40234 L 501.05273 170.9082 C 501.05273 163.82612 495.34299 158.125 488.25195 158.125 L 209.19531 158.125 z M 461.18555 182.0293 C 472.53308 181.75849 483.12109 187.08984 483.12109 187.08984 L 479.27148 198.44531 C 479.27148 198.44531 471.42987 195.07784 464.36719 194.70117 C 459.38566 194.43549 451.40724 195.43192 450.45312 200.32227 C 448.31933 211.25919 464.64137 210.73367 473.82031 215.79297 C 477.24651 217.68144 480.21035 219.45701 483.06055 223.36328 C 485.32307 226.46416 486.00792 232.38758 485.36914 236.56445 C 483.06959 251.60077 468.97291 255.8034 459.00586 255.43164 C 452.30725 255.18178 445.58089 255.114 436.6543 250.30859 L 439.42969 237.52148 C 439.42969 237.52148 446.25539 242.03732 457.69727 242.69727 C 463.10398 243.00912 471.63426 242.52942 472.00781 234.875 C 472.27935 229.31103 464.21732 227.14754 456.42578 224.21875 C 451.94771 222.53547 447.45302 220.55804 444.35352 218.11719 C 437.70139 212.87864 435.95 203.26007 438.08594 195.85156 C 439.17637 192.06942 441.13087 189.23324 443.91211 186.87305 C 447.26844 184.02484 452.38184 182.23941 461.18555 182.0293 z M 224.94336 183.86719 L 236.66992 183.86719 L 270.73242 227.58008 L 270.73242 183.86719 L 283.78906 183.86719 L 283.78906 253.97461 L 272.38477 253.97461 L 238.02148 210.46094 L 238.02148 253.97461 L 224.94336 253.97461 L 224.94336 183.86719 z M 293.42969 183.86719 L 340.17969 183.86719 L 340.17969 195.2168 L 308.19531 195.2168 L 308.19531 211.66602 L 334.41406 211.66602 L 334.41406 224.61719 L 308.19531 224.61719 L 308.19531 242.57812 L 340.1875 242.57812 L 340.1875 253.97461 L 293.42969 253.97461 L 293.42969 183.86719 z M 347.31641 183.86719 L 360.81836 183.86719 C 360.81836 183.86719 363.01138 201.56182 364.53516 210.3418 C 366.17869 219.81186 370.38281 238.57812 370.38281 238.57812 L 381.77539 186.33984 L 397.95117 186.33984 L 409.625 238.99805 C 409.625 238.99805 413.94674 218.02297 415.76953 207.47266 C 417.12424 199.63165 419.32812 183.86719 419.32812 183.86719 L 432.56641 183.86719 C 432.56641 183.86719 429.37846 205.6663 427.13672 216.41992 C 424.49685 229.08337 417.85742 253.97461 417.85742 253.97461 L 401.32617 253.97461 C 401.32617 253.97461 397.19382 237.09063 395.32422 228.60352 C 393.39143 219.82955 389.93359 202.19531 389.93359 202.19531 C 389.93359 202.19531 386.50467 220.19884 384.50586 229.14062 C 382.64624 237.45976 378.40039 253.97461 378.40039 253.97461 L 361.94531 253.97461 C 361.94531 253.97461 354.97592 226.32747 352.15039 212.35938 C 350.24049 202.91772 347.31641 183.86719 347.31641 183.86719 z "
     id="path933" />
  <path
     inkscape:connector-curvature="0"
     id="rect928"
     d="M 209.19553,280.18628 V 158.12443 H 23.746152 c -7.09104,0 -12.798497,5.70162 -12.798497,12.7837 v 96.49446 c 0,7.08207 5.707457,12.78369 12.798497,12.78369 z"
     style="opacity:1;fill:none;fill-opacity:1;stroke:#000000;stroke-width:2;stroke-linecap:round;stroke-linejoin:round;stroke-miterlimit:4;stroke-dasharray:none;stroke-opacity:1" />
  <path
     inkscape:connector-curvature="0"
     id="SVGID_1_"
     d="m 47.15675,189.27003 c 2.765112,-0.30096 5.706886,-0.4255 8.637212,-0.43588 7.482749,0 14.95614,0.78873 19.664419,1.35954 0.218223,1.12083 0.353309,2.17941 0.353309,3.34176 0,8.68544 -4.583581,10.5535 -9.000917,10.5535 -3.388587,0 -8.647607,-0.62268 -14.665168,-0.62268 -6.100726,0 -8.646577,1.69163 -8.646577,3.73612 0,2.1794 2.410758,3.07193 6.246186,3.73613 0,0 11.993596,2.22092 11.993596,2.22092 12.30533,2.2728 17.605905,9.25624 17.605905,17.84933 0,9.97233 -6.505971,17.22663 -19.746518,18.64844 -9.58281,1.02744 -23.446824,-0.17642 -30.047365,-0.93403 -0.228605,-1.05856 -0.405267,-2.39735 -0.405267,-3.46628 0,-8.68649 4.687495,-10.68844 9.104831,-10.67805 4.593977,0 11.806553,0.79807 17.159084,0.79807 5.924057,0 7.711367,-2.00195 7.711367,-3.91152 0,-2.50113 -2.358822,-3.51819 -6.952798,-4.41069 0,0 -12.575496,-2.40774 -12.575496,-2.40774 -10.434918,-2.00297 -16.005665,-9.20434 -16.005665,-16.8634 0,-9.30917 6.599482,-17.09173 19.569862,-18.51354 m 74.53027,6.71465 c 4.24068,-4.58713 8.29328,-7.25431 15.6004,-7.25431 2.35883,0 5.61232,0.5708 6.95279,0.97554 0,0 20.64121,33.56078 20.64121,33.56078 0,0 10.51699,-24.78193 10.51699,-24.78193 3.56524,-8.55052 9.18796,-9.39116 13.37668,-9.30814 2.41078,0.0415 5.39411,0.84063 6.73457,1.55673 0,0 -32.4997,72.36249 -32.4997,72.36249 -2.45235,5.43815 -5.7578,7.75246 -11.81695,7.61754 -3.52368,-0.0934 -6.32931,-0.9444 -7.71135,-1.65012 0,0 13.7705,-28.97467 13.7705,-28.97467 0,0 -22.59476,-35.42885 -22.59476,-35.42885 0,0 -13.77049,14.60099 -13.77049,14.60099 0,0 19.43476,29.24452 19.43476,29.24452 -1.60024,0.75759 -5.08237,1.73314 -9.27108,1.73314 -6.37088,0 -10.29877,-2.35584 -13.2821,-6.98447 0,0 -16.14074,-25.37347 -16.14074,-25.37347 0,0 20.05927,-21.89577 20.05927,-21.89577 M 84.582951,179.06834 c 0,-5.38521 1.829902,-10.98939 12.346898,-10.98939 1.331125,0 2.671601,0.13491 3.918541,0.40474 0,0 0,73.20313 0,73.20313 0,5.34473 -2.088646,8.41666 -12.523535,8.41666 -1.382052,0 -2.588479,-0.0934 -3.741904,-0.26983 0,0 0,-70.76531 0,-70.76531"
     style="fill:#000000;stroke:none;stroke-width:1.0666678" />
  <g
     style="fill:#000000;stroke-width:2.13359904"
     transform="matrix(0.46898819,0,0,0.4683952,300.08209,70.395356)"
     id="g865">
    <path
       inkscape:connector-curvature="0"
       style="fill:#000000;stroke-width:2.13359904"
       d="m -98.853917,481.83945 2.06,0.215 c 4.454,0.311 8.462,1.054 11.685,4.502 2.658,2.859 3.602,6.322 4.516,9.99 l 2.821,12.102 7.064,30.114 4.028,16.824 7.145,-34.831 4.425,-21.551 c 0.91,-4.56 1.873,-9.818 5.283,-13.256 5.88,-5.924 17.389,-5.048 22.973,0.862 2.84,3.007 3.908,6.863 3.865,10.919 -0.043,3.448 -1.27,7.284 -2.107,10.627 l -4.574,17.71 -15.277,59.337 c -2.165,8.654 -3.66,18.553 -13.764,21.14 -1.514,0.392 -3.161,0.684 -4.722,0.703 -3.257,0.039 -6.274,0.177 -9.444,-0.718 -11.092,-3.127 -12.069,-15.23 -14.43,-24.669 l -6.93,-28.337 -4.324,-17.418 -2.472003,10.038 -6.642,27.154 -4.358,17.662 c -1.662,6.427 -3.238,11.72 -9.847,14.722 -3.893,1.763 -7.111,1.571 -11.22,1.566 a 19.348,19.348 0 0 1 -5.316,-0.718 c -1.413,-0.398 -2.879,-0.881 -4.129,-1.672 -6.498,-4.109 -7.576,-11.714 -9.338,-18.567 l -15.13,-58.748 -4.865,-19.185 c -0.9,-3.587 -2.385,-7.758 -2.241,-11.513 0.144,-3.625 1.37,-7.342 3.879,-10.024 5.124,-5.493 15.665,-6.566 21.79,-2.246 6.006,4.239 6.796,13.778 8.147,20.536 l 6.79,33.356 2.127,10.627 c 0.393,1.973 0.685,4.406 1.533,6.197 l 3.577,-15.641 6.561,-28.342 3.333,-14.463 c 0.68,-2.787 1.145,-5.747 2.606,-8.266 2.974,-5.124 7.399,-6.14 12.854,-6.523 z"
       id="path857" />
    <path
       inkscape:connector-curvature="0"
       style="fill:#000000;stroke-width:2.13359904"
       d="m 46.381083,481.83945 a 30.938,30.938 0 0 1 6.79,1.053 c 6.083,1.95 8.07,5.364 11.231,10.407 l 5.316,8.563 21.59,34.831 6.934,11.216 c 1.001,1.595 2.322997,4.09 3.639997,5.316 v -52.25 c 0,-5.291 -0.244,-9.807 3.482,-14.141 5.474,-6.37 18.725,-6.61 24.505,-0.594 3.334,3.467 4.181,8.64 4.186,13.26 v 87.378 l -0.268,2.95 c -0.575,8.132 -3.544,14.152 -11.834,16.618 -1.542,0.455 -3.113,0.781 -4.727,0.8 -4.78,0.058 -9.248,0.302 -13.577,-2.164 -3.338,-1.902 -5.353997,-5.288 -7.326997,-8.463 l -6.547,-10.33 -20.943,-33.064 -10.057,-15.646 v 54.61 c -0.048,4.11 -1.604,8.688 -4.717,11.46 -5.675,5.048 -17.461,4.91 -23.017,-0.287 -3.256,-3.05 -4.434,-8.031 -4.44,-12.356 v -90.322 c 0.01,-4.468 1.007,-9.497 3.933,-12.993 3.558,-4.248 8.563,-5.273 13.778,-5.637 z"
       id="path855" />
    <path
       inkscape:connector-curvature="0"
       style="fill:#000000;stroke-width:2.13359904"
       d="m -0.26491717,481.90145 h 1.183 c 2.60999997,0.177 5.30599997,0.599 7.67699997,1.767 5.2870002,2.605 8.2560002,7.96 8.2660002,13.764 v 94.757 c -0.105,8.764 -7.0600002,15.038 -15.6460002,15.057 -3.448,0.005 -4.952,0.043 -8.266,-1.312 -6.5369998,-2.672 -9.1379998,-9.166 -9.1469998,-15.809 v -91.51 c 0.076,-6.743 3.007,-12.672 9.4439998,-15.392 2.504,-1.054 3.98,-0.968 6.49400003,-1.322 z"
       id="path853" />
    <path
       inkscape:connector-curvature="0"
       style="fill:#000000;stroke-width:2.13359904"
       d="m -98.853917,531.38245 0.297,0.292 v -0.292 z"
       id="path851" />
  </g>
  <path
     inkscape:connector-curvature="0"
     style="fill:#000000;stroke:none;stroke-width:1px;stroke-linecap:butt;stroke-linejoin:miter;stroke-opacity:1"
     d="m 171.47963,310.38288 v 29.5773 h 5.65632 v -18.35814 l 14.86128,18.35814 h 4.93214 v -29.5773 h -5.64599 v 18.44182 l -14.73149,-18.44182 z"
     id="path905" />
  <path
     inkscape:connector-curvature="0"
     id="path919"
     d="m 149.64287,309.79968 a 15.594886,15.450567 0 0 0 -15.5939,15.45167 15.594886,15.450567 0 0 0 15.5939,15.4503 15.594886,15.450567 0 0 0 15.59529,-15.4503 15.594886,15.450567 0 0 0 -15.59529,-15.45167 z m 0.12544,5.80952 a 8.8578958,9.6411545 0 0 1 8.85764,9.64215 8.8578958,9.6411545 0 0 1 -8.85764,9.64077 8.8578958,9.6411545 0 0 1 -8.85764,-9.64077 8.8578958,9.6411545 0 0 1 8.85764,-9.64215 z"
     style="opacity:1;fill:#000000;fill-opacity:0.93719806;stroke:none;stroke-width:5;stroke-linecap:round;stroke-linejoin:round;stroke-miterlimit:4;stroke-dasharray:none;stroke-opacity:1" />
</svg>
