<svg xmlns="http://www.w3.org/2000/svg" width="512" height="512">
    <path d="M209.195 158.125v122.06h279.057c7.091 0 12.8-5.7 12.8-12.783v-96.494a12.764 12.764 0 00-12.8-12.783H209.195zm251.99 23.904c11.348-.27 21.936 5.06 21.936 5.06l-3.85 11.356s-7.841-3.367-14.904-3.744c-4.981-.266-12.96.73-13.914 5.621-2.134 10.937 14.188 10.412 23.367 15.471 3.427 1.888 6.39 3.664 9.24 7.57 2.263 3.101 2.948 9.025 2.31 13.201-2.3 15.037-16.397 19.24-26.364 18.868-6.699-.25-13.425-.318-22.352-5.123l2.776-12.788s6.825 4.516 18.267 5.176c5.407.312 13.937-.168 14.31-7.822.272-5.564-7.79-7.727-15.581-10.656-4.478-1.684-8.973-3.661-12.072-6.102-6.653-5.238-8.404-14.857-6.268-22.265 1.09-3.783 3.045-6.619 5.826-8.979 3.356-2.848 8.47-4.634 17.274-4.844zm-236.242 1.838h11.727l34.062 43.713v-43.713h13.057v70.108h-11.404L238.02 210.46v43.514h-13.078v-70.108zm68.487 0h46.75v11.35h-31.985v16.449h26.22v12.951h-26.22v17.961h31.993v11.397H293.43v-70.108zm53.886 0h13.502s2.193 17.695 3.717 26.475c1.644 9.47 5.848 28.236 5.848 28.236l11.392-52.238h16.176l11.674 52.658s4.322-20.975 6.145-31.525c1.354-7.841 3.558-23.606 3.558-23.606h13.238s-3.188 21.8-5.43 32.553c-2.64 12.663-9.279 37.555-9.279 37.555h-16.53s-4.133-16.884-6.003-25.371c-1.933-8.774-5.39-26.409-5.39-26.409s-3.43 18.004-5.428 26.946c-1.86 8.319-6.106 24.834-6.106 24.834h-16.455s-6.97-27.648-9.795-41.616c-1.91-9.441-4.834-28.492-4.834-28.492z" stroke="#000" stroke-width="2" stroke-linecap="round" stroke-linejoin="round"/>
    <path d="M209.196 280.186V158.124H23.746a12.763 12.763 0 00-12.798 12.784v96.495a12.763 12.763 0 0012.798 12.783z" fill="none" stroke="#000" stroke-width="2" stroke-linecap="round" stroke-linejoin="round"/>
    <path d="M47.157 189.27c2.765-.3 5.707-.425 8.637-.436 7.483 0 14.956.789 19.664 1.36.219 1.12.354 2.18.354 3.341 0 8.686-4.584 10.554-9.001 10.554-3.389 0-8.648-.623-14.665-.623-6.101 0-8.647 1.692-8.647 3.736 0 2.18 2.41 3.072 6.246 3.737l11.994 2.22c12.305 2.273 17.606 9.257 17.606 17.85 0 9.972-6.506 17.226-19.747 18.648-9.583 1.028-23.447-.176-30.047-.934-.229-1.058-.405-2.397-.405-3.466 0-8.687 4.687-10.689 9.104-10.678 4.594 0 11.807.798 17.16.798 5.924 0 7.71-2.002 7.71-3.912 0-2.5-2.358-3.518-6.952-4.41l-12.575-2.408c-10.435-2.003-16.006-9.204-16.006-16.863 0-9.31 6.6-17.092 19.57-18.514m74.53 6.715c4.24-4.587 8.293-7.255 15.6-7.255 2.36 0 5.613.571 6.953.976l20.641 33.56 10.517-24.781c3.566-8.55 9.188-9.391 13.377-9.308 2.41.041 5.394.84 6.735 1.556l-32.5 72.363c-2.452 5.438-5.758 7.752-11.817 7.617-3.524-.093-6.33-.944-7.711-1.65l13.77-28.974-22.595-35.43-13.77 14.602 19.435 29.244c-1.6.758-5.083 1.733-9.271 1.733-6.371 0-10.3-2.355-13.283-6.984l-16.14-25.374 20.059-21.895m-37.104-16.917c0-5.385 1.83-10.99 12.347-10.99 1.331.001 2.671.136 3.918.406v73.203c0 5.345-2.088 8.416-12.523 8.416-1.382 0-2.589-.093-3.742-.27v-70.765" stroke-width="1.067"/>
    <g stroke-width="2.134">
        <path d="M253.72 296.087l.967.1c2.089.146 3.968.494 5.48 2.11 1.247 1.338 1.69 2.96 2.118 4.678l1.323 5.669 3.313 14.105 1.889 7.88 3.35-16.314 2.076-10.095c.427-2.136.879-4.598 2.478-6.209 2.758-2.774 8.155-2.364 10.774.404 1.332 1.408 1.833 3.215 1.813 5.114-.02 1.615-.596 3.412-.989 4.978l-2.145 8.295-7.164 27.794c-1.016 4.053-1.717 8.69-6.456 9.901-.71.184-1.482.32-2.214.33-1.528.018-2.943.083-4.43-.337-5.201-1.464-5.66-7.133-6.767-11.554l-3.25-13.273-2.028-8.159-1.16 4.702-3.114 12.719-2.044 8.272c-.78 3.01-1.519 5.49-4.618 6.896-1.826.826-3.335.736-5.262.734a9.074 9.063 0 01-2.493-.337c-.663-.186-1.35-.412-1.937-.783-3.047-1.924-3.553-5.487-4.38-8.696l-7.095-27.518-2.282-8.986c-.422-1.68-1.118-3.634-1.05-5.393.067-1.697.642-3.439 1.819-4.695 2.403-2.573 7.346-3.075 10.219-1.052 2.817 1.986 3.187 6.454 3.82 9.62l3.185 15.623.998 4.978c.184.924.32 2.063.719 2.902l1.677-7.326 3.077-13.275 1.563-6.775c.32-1.305.537-2.691 1.223-3.871 1.394-2.4 3.47-2.876 6.028-3.056zm68.114 0a14.51 14.491 0 013.185.493c2.853.913 3.784 2.512 5.267 4.874l2.493 4.011 10.126 16.315 3.251 5.254c.47.747 1.09 1.915 1.708 2.49V305.05c0-2.478-.115-4.594 1.633-6.624 2.567-2.983 8.781-3.096 11.492-.278 1.564 1.624 1.961 4.047 1.963 6.211v40.927l-.125 1.382c-.27 3.81-1.662 6.629-5.55 7.784-.724.213-1.46.366-2.217.375-2.242.027-4.337.141-6.368-1.014-1.565-.89-2.51-2.477-3.436-3.964l-3.07-4.838-9.822-15.487-4.717-7.329v25.58c-.023 1.924-.752 4.068-2.212 5.367-2.662 2.364-8.19 2.3-10.795-.135-1.527-1.428-2.08-3.761-2.082-5.787v-42.306c.004-2.093.472-4.449 1.844-6.086 1.669-1.99 4.016-2.47 6.462-2.64zm-21.876.029h.555c1.224.083 2.488.28 3.6.827 2.48 1.22 3.872 3.729 3.877 6.447v44.384c-.05 4.105-3.311 7.044-7.338 7.053-1.617.002-2.322.02-3.877-.615-3.065-1.251-4.285-4.293-4.29-7.405v-42.863c.036-3.158 1.41-5.935 4.43-7.21 1.174-.493 1.866-.453 3.045-.618z"/>
        <path d="M253.72 319.292l.14.137v-.137z"/>
    </g>
    <path d="M171.48 310.383v29.577h5.656v-18.358l14.861 18.358h4.932v-29.577h-5.646v18.442l-14.731-18.442z"/>
    <path d="M149.643 309.8a15.595 15.45 0 00-15.594 15.451 15.595 15.45 0 0015.594 15.45 15.595 15.45 0 0015.595-15.45 15.595 15.45 0 00-15.595-15.451zm.125 5.81a8.858 9.641 0 018.858 9.641 8.858 9.641 0 01-8.858 9.641 8.858 9.641 0 01-8.857-9.64 8.858 9.641 0 018.857-9.643z" fill-opacity=".937" stroke-width="5" stroke-linecap="round" stroke-linejoin="round"/>
</svg>
