<?xml version="1.0" encoding="UTF-8" standalone="no"?>
<svg
   xmlns:dc="http://purl.org/dc/elements/1.1/"
   xmlns:cc="http://creativecommons.org/ns#"
   xmlns:rdf="http://www.w3.org/1999/02/22-rdf-syntax-ns#"
   xmlns:svg="http://www.w3.org/2000/svg"
   xmlns="http://www.w3.org/2000/svg"
   id="svg4"
   version="1.1"
   width="512"
   height="512">
  <metadata
     id="metadata10">
    <rdf:RDF>
      <cc:Work
         rdf:about="">
        <dc:format>image/svg+xml</dc:format>
        <dc:type
           rdf:resource="http://purl.org/dc/dcmitype/StillImage" />
        <dc:title></dc:title>
      </cc:Work>
    </rdf:RDF>
  </metadata>
  <defs
     id="defs8" />
  <g
     style="stroke-width:1.4178412"
     id="g950"
     transform="matrix(0.70574393,0,0,0.70485158,-105.48907,58.93447)">
    <path
       style="opacity:1;fill:#000000;fill-opacity:1;stroke:#000000;stroke-width:2.83568239;stroke-linecap:round;stroke-linejoin:round;stroke-miterlimit:4;stroke-dasharray:none;stroke-opacity:1"
       d="m 445.89062,313.89844 h 395.40821 c 10.04761,0 18.13672,-8.08911 18.13672,-18.13672 V 158.86133 c 0,-10.04762 -8.08911,-18.13672 -18.13672,-18.13672 H 445.89062 Z"
       id="path933" />
    <path
       style="opacity:1;fill:none;fill-opacity:1;stroke:#000000;stroke-width:2.83568239;stroke-linecap:round;stroke-linejoin:round;stroke-miterlimit:4;stroke-dasharray:none;stroke-opacity:1"
       d="M 445.89062,313.89844 V 140.72461 H 183.11914 c -10.04761,0 -18.13476,8.0891 -18.13476,18.13672 v 136.90039 c 0,10.04761 8.08715,18.13672 18.13476,18.13672 z"
       id="rect928" />
    <g
       transform="matrix(0.08374096,0,0,0.08374096,163.3041,5.5710879)"
       id="g868"
       style="fill:#ffffff;stroke-width:16.93127632">
      <path
         id="path848"
         d="m 3640.9779,2050.0844 v 1187.7694 h 221.2992 v -737.2286 l 581.4374,737.2286 h 192.9661 V 2050.0844 h -220.8954 v 740.5894 l -576.3594,-740.5894 z"
         style="fill:#ffffff;stroke:none;stroke-width:16.93127441px;stroke-linecap:butt;stroke-linejoin:miter;stroke-opacity:1" />
      <path
         id="path850"
         d="m 4799.822,2050.0844 v 1187.7694 h 791.1618 v -193.1054 h -541.3213 v -304.293 h 443.6272 V 2521.0441 H 5049.6625 V 2242.3758 H 5590.86 v -192.2914 z"
         style="fill:#ffffff;stroke:none;stroke-width:16.93127632px;stroke-linecap:butt;stroke-linejoin:miter;stroke-opacity:1" />
      <path
         id="path858"
         d="m 5711.6262,2050.0844 c 0,0 49.475,322.7353 81.7916,482.6955 47.8097,236.6474 165.7122,705.0739 165.7122,705.0739 h 278.4418 c 0,0 71.8505,-279.7947 103.3162,-420.7372 33.821,-151.4917 91.831,-456.5188 91.831,-456.5188 0,0 58.5081,298.7596 91.2121,447.4082 31.6346,143.7884 101.5553,429.8478 101.5553,429.8478 h 279.7163 c 0,0 112.3443,-421.7366 157.0124,-636.2805 37.9315,-182.1878 91.8855,-551.4889 91.8855,-551.4889 h -223.9941 c 0,0 -37.2876,267.0672 -60.21,399.9096 -30.8427,178.7431 -103.9993,534.123 -103.9993,534.123 l -197.527,-892.1441 h -273.6821 l -192.7674,885.0046 c 0,0 -71.1502,-317.9316 -98.9598,-478.3732 -25.7832,-148.7503 -62.8696,-448.5199 -62.8696,-448.5199 z"
         style="opacity:1;fill:#ffffff;stroke:none;stroke-width:16.93127632px;stroke-linecap:butt;stroke-linejoin:miter;stroke-opacity:1" />
      <path
         id="path860"
         d="m 7944.3625,2297.0606 65.1425,-192.3978 c 0,0 -179.1544,-90.3123 -371.1611,-85.7242 -148.9638,3.5596 -235.4716,33.8007 -292.2625,82.0549 -47.0603,39.9863 -80.1422,88.0568 -98.5928,152.1337 -36.1413,125.5148 -6.5118,288.4696 106.046,377.2209 52.4453,41.3529 128.5114,74.8612 204.2829,103.3792 131.8374,49.6195 268.2453,86.2779 263.6508,180.5427 -6.3207,129.6811 -150.6464,137.7871 -242.131,132.5037 -193.6032,-11.1808 -309.1246,-87.6829 -309.1246,-87.6829 l -46.9632,216.6369 c 151.043,81.4132 264.8715,82.5624 378.2159,86.7955 168.648,6.2984 407.1873,-64.908 446.097,-319.6531 10.8086,-70.7645 -0.783,-171.1052 -39.0666,-223.6403 -48.2269,-66.18 -98.3878,-96.2758 -156.361,-128.2702 -155.3129,-85.7146 -431.5054,-76.7919 -395.4003,-262.0852 16.1441,-82.8521 151.1534,-99.7587 235.4437,-95.2576 119.5046,6.3815 252.1843,63.4438 252.1843,63.4438 z"
         style="opacity:1;fill:#ffffff;stroke:none;stroke-width:16.93127632px;stroke-linecap:butt;stroke-linejoin:miter;stroke-opacity:1" />
    </g>
    <path
       style="fill:#000000;stroke:none;stroke-width:1.51236546"
       d="m 216.29066,184.91206 c 3.91801,-0.42698 8.08634,-0.60367 12.23845,-0.61839 10.60264,0 21.19202,1.119 27.86339,1.92882 0.30921,1.59017 0.50062,3.09202 0.50062,4.74109 0,12.32236 -6.49468,14.97266 -12.7538,14.97266 -4.80144,0 -12.25318,-0.88342 -20.77973,-0.88342 -8.64439,0 -12.25172,2.39998 -12.25172,5.30057 0,3.092 3.41591,4.35826 8.8505,5.30059 0,0 16.99426,3.1509 16.99426,3.1509 17.43597,3.22451 24.94659,13.13219 24.94659,25.32353 0,14.14814 -9.2186,24.44009 -27.97972,26.45726 -13.57831,1.45767 -33.22285,-0.25029 -42.57545,-1.32514 -0.32392,-1.50182 -0.57424,-3.40121 -0.57424,-4.91775 0,-12.32385 6.64192,-15.1641 12.90104,-15.14936 6.50941,0 16.72923,1.13226 24.31347,1.13226 8.39406,0 10.92658,-2.84024 10.92658,-5.54942 0,-3.54845 -3.34232,-4.99139 -9.85173,-6.25762 0,0 -17.81878,-3.41595 -17.81878,-3.41595 -14.7857,-2.84169 -22.67914,-13.05856 -22.67914,-23.92476 0,-13.20728 9.3511,-24.24869 27.72941,-26.26587 m 105.60526,9.52633 c 6.0088,-6.50793 11.75112,-10.29196 22.1049,-10.29196 3.34233,0 7.95235,0.80981 9.85172,1.38404 0,0 29.24745,47.61396 29.24745,47.61396 0,0 14.90199,-35.15907 14.90199,-35.15907 5.05175,-12.13096 13.01883,-13.3236 18.95401,-13.20582 3.41594,0.0589 7.64315,1.19263 9.54251,2.20859 0,0 -46.05027,102.66345 -46.05027,102.66345 -3.47484,7.7153 -8.15848,10.99871 -16.74396,10.80729 -4.99286,-0.13251 -8.96828,-1.33986 -10.92656,-2.34109 0,0 19.51204,-41.10748 19.51204,-41.10748 0,0 -32.01552,-50.26426 -32.01552,-50.26426 0,0 -19.51203,20.71498 -19.51203,20.71498 0,0 27.53798,41.49032 27.53798,41.49032 -2.26745,1.07483 -7.20143,2.45888 -13.1366,2.45888 -9.02719,0 -14.59279,-3.34233 -18.82,-9.90914 0,0 -22.87054,-35.99832 -22.87054,-35.99832 0,0 28.42288,-31.06437 28.42288,-31.06437 m -52.57441,-23.99985 c 0,-7.64021 2.59287,-15.59108 17.49487,-15.59108 1.88613,0 3.78551,0.1914 5.55236,0.57422 0,0 0,103.85609 0,103.85609 0,7.58278 -2.9595,11.94104 -17.74516,11.94104 -1.95829,0 -3.66773,-0.13252 -5.30207,-0.38282 0,0 0,-100.39745 0,-100.39745"
       id="SVGID_1_" />
    <g
       id="g865"
       transform="matrix(0.66453025,0,0,0.66453025,574.67184,16.259999)"
       style="fill:#000000;stroke-width:2.13359904">
      <path
         id="path857"
         d="m -98.853917,481.83945 2.06,0.215 c 4.454,0.311 8.462,1.054 11.685,4.502 2.658,2.859 3.602,6.322 4.516,9.99 l 2.821,12.102 7.064,30.114 4.028,16.824 7.145,-34.831 4.425,-21.551 c 0.91,-4.56 1.873,-9.818 5.283,-13.256 5.88,-5.924 17.389,-5.048 22.973,0.862 2.84,3.007 3.908,6.863 3.865,10.919 -0.043,3.448 -1.27,7.284 -2.107,10.627 l -4.574,17.71 -15.277,59.337 c -2.165,8.654 -3.66,18.553 -13.764,21.14 -1.514,0.392 -3.161,0.684 -4.722,0.703 -3.257,0.039 -6.274,0.177 -9.444,-0.718 -11.092,-3.127 -12.069,-15.23 -14.43,-24.669 l -6.93,-28.337 -4.324,-17.418 -2.472003,10.038 -6.642,27.154 -4.358,17.662 c -1.662,6.427 -3.238,11.72 -9.847,14.722 -3.893,1.763 -7.111,1.571 -11.22,1.566 a 19.348,19.348 0 0 1 -5.316,-0.718 c -1.413,-0.398 -2.879,-0.881 -4.129,-1.672 -6.498,-4.109 -7.576,-11.714 -9.338,-18.567 l -15.13,-58.748 -4.865,-19.185 c -0.9,-3.587 -2.385,-7.758 -2.241,-11.513 0.144,-3.625 1.37,-7.342 3.879,-10.024 5.124,-5.493 15.665,-6.566 21.79,-2.246 6.006,4.239 6.796,13.778 8.147,20.536 l 6.79,33.356 2.127,10.627 c 0.393,1.973 0.685,4.406 1.533,6.197 l 3.577,-15.641 6.561,-28.342 3.333,-14.463 c 0.68,-2.787 1.145,-5.747 2.606,-8.266 2.974,-5.124 7.399,-6.14 12.854,-6.523 z"
         style="fill:#000000;stroke-width:2.13359904" />
      <path
         id="path855"
         d="m 46.381083,481.83945 a 30.938,30.938 0 0 1 6.79,1.053 c 6.083,1.95 8.07,5.364 11.231,10.407 l 5.316,8.563 21.59,34.831 6.934,11.216 c 1.001,1.595 2.322997,4.09 3.639997,5.316 v -52.25 c 0,-5.291 -0.244,-9.807 3.482,-14.141 5.474,-6.37 18.725,-6.61 24.505,-0.594 3.334,3.467 4.181,8.64 4.186,13.26 v 87.378 l -0.268,2.95 c -0.575,8.132 -3.544,14.152 -11.834,16.618 -1.542,0.455 -3.113,0.781 -4.727,0.8 -4.78,0.058 -9.248,0.302 -13.577,-2.164 -3.338,-1.902 -5.353997,-5.288 -7.326997,-8.463 l -6.547,-10.33 -20.943,-33.064 -10.057,-15.646 v 54.61 c -0.048,4.11 -1.604,8.688 -4.717,11.46 -5.675,5.048 -17.461,4.91 -23.017,-0.287 -3.256,-3.05 -4.434,-8.031 -4.44,-12.356 v -90.322 c 0.01,-4.468 1.007,-9.497 3.933,-12.993 3.558,-4.248 8.563,-5.273 13.778,-5.637 z"
         style="fill:#000000;stroke-width:2.13359904" />
      <path
         id="path853"
         d="m -0.26491717,481.90145 h 1.183 c 2.60999997,0.177 5.30599997,0.599 7.67699997,1.767 5.2870002,2.605 8.2560002,7.96 8.2660002,13.764 v 94.757 c -0.105,8.764 -7.0600002,15.038 -15.6460002,15.057 -3.448,0.005 -4.952,0.043 -8.266,-1.312 -6.5369998,-2.672 -9.1379998,-9.166 -9.1469998,-15.809 v -91.51 c 0.076,-6.743 3.007,-12.672 9.4439998,-15.392 2.504,-1.054 3.98,-0.968 6.49400003,-1.322 z"
         style="fill:#000000;stroke-width:2.13359904" />
      <path
         id="path851"
         d="m -98.853917,531.38245 0.297,0.292 v -0.292 z"
         style="fill:#000000;stroke-width:2.13359904" />
    </g>
    <path
       id="path905"
       d="m 392.44929,356.73951 v 41.96245 h 8.01469 v -26.0454 l 21.05761,26.0454 h 6.98856 v -41.96245 h -8.00005 v 26.16412 l -20.87371,-26.16412 z"
       style="fill:#000000;stroke:none;stroke-width:1.4178412px;stroke-linecap:butt;stroke-linejoin:miter;stroke-opacity:1" />
    <path
       style="opacity:1;fill:#000000;fill-opacity:0.93719806;stroke:none;stroke-width:7.08920574;stroke-linecap:round;stroke-linejoin:round;stroke-miterlimit:4;stroke-dasharray:none;stroke-opacity:1"
       d="m 361.50781,355.91211 a 22.097088,21.920313 0 0 0 -22.0957,21.92187 22.097088,21.920313 0 0 0 22.0957,21.91993 22.097088,21.920313 0 0 0 22.09766,-21.91993 22.097088,21.920313 0 0 0 -22.09766,-21.92187 z m 0.17774,8.24219 a 12.551147,13.678276 0 0 1 12.55078,13.67968 12.551147,13.678276 0 0 1 -12.55078,13.67774 12.551147,13.678276 0 0 1 -12.55078,-13.67774 12.551147,13.678276 0 0 1 12.55078,-13.67968 z"
       id="path919" />
  </g>
</svg>
