<svg xmlns="http://www.w3.org/2000/svg" height="512" width="512"><path d="M133.511 11.101c-1.212.514-2.732 1.659-3.366 2.534-2.252 3.108-2.202 3.264 8.963 28.052 1.554 3.451 4.25 9.512 6.022 13.54a2798.395 2798.395 0 0 0 9.112 20.483c.516 1.145 2.61 5.832 4.65 10.415 6.03 13.54 6.396 14.234 7.48 14.234 1.141 0 6.767-2 7.628-2.712.274-.227-6.788-19.299-15.682-42.351-16.77-43.466-16.837-43.608-21.171-44.755-.782-.207-2.424.046-3.636.56M327.471 39.872c-1.572.656-6.067 5.287-13.56 13.966a1086.42 1086.42 0 0 1-8.181 9.373c-1.75 1.97-5.638 6.388-8.554 9.721-2.916 3.333-6.642 7.594-8.197 9.374l-8.198 9.373a1343.524 1343.524 0 0 1-8.554 9.686c-1.756 1.959-5.465 6.215-8.197 9.409-2.733 3.194-6.602 7.576-8.554 9.686-1.991 2.152-4.256 4.803-5.133 6.006-1.261 1.73-2.21 2.225-4.847 2.521-3.992.449-6.492 2.501-7.502 6.158-1.157 4.196 1.3 8.413 5.649 9.688 5.718 1.677 10.764-2.05 10.764-7.952 0-2.844-3.308.764 42.39-46.243 39.825-40.966 40.297-41.484 40.297-44.09 0-4.514-5.561-8.372-9.623-6.676"/><path d="M221.617 91.73c-13.83 1.494-26.351 3.93-37.566 7.306-3.707 1.116-6.988 2.18-7.342 2.382-.6.34.791 4.912 3.162 10.397.49 1.133 1.632 4.062 2.504 6.423.873 2.36 1.994 4.34 2.46 4.34 1.6 0 4.848 2.985 5.893 5.415 1.314 3.056.29 6.336-2.757 8.833-5.27 4.319-14.46-.362-13.117-6.68.243-1.14.614-2.916.857-4.097.281-1.372-.047-3.09-.963-5.034-.772-1.639-2.594-5.728-4.099-9.2-1.504-3.471-2.927-6.495-3.2-6.804-.562-.633-19.467 8.59-25.313 12.35-15.397 9.899-26.622 21.062-32.128 31.949-3.055 6.04-5.093 13.294-4.311 15.345.307.806 4.362.972 23.751.972 21.741 0 23.438-.088 24.19-1.25 1.32-2.037 6.177-3.29 8.743-2.254 3.745 1.51 5.417 3.92 5.417 7.809 0 3.055-.282 3.716-2.352 5.508-3.992 3.456-7.705 3.495-11.14.116l-1.905-1.875-22.204.833c-12.19.458-22.36.99-22.55 1.18-.66.667 2.973 6.666 6.056 10 7.883 8.522 21.376 14.24 40.98 17.369 10.81 1.725 34.215.78 49.826-2.012 45.05-8.056 85.103-32.441 95.933-58.407 4.952-11.873 2.664-25.217-5.69-33.185l-3.207-3.06-4.776 4.109c-6.344 5.457-12.917 12.533-14.371 15.472-1.031 2.083-1.044 2.573-.11 4.166 1.621 2.763 4.002 3.541 10.845 3.541 3.422 0 6.202.233 6.202.52 0 .288-2.138 1.25-4.776 2.146-7.342 2.499-11.082 4.321-13.615 6.637-2.036 1.86-2.28 2.5-2.28 5.973 0 3.86.796 6.804 2.968 10.97 1.38 2.648.88 2.796-3.753 1.111-4.42-1.607-13.857-1.68-16.751-.132-3.175 1.699-6.206 6.52-8.55 13.602l-2 6.041-.856-3.124c-.479-1.75-1.266-4.652-1.789-6.597-1.009-3.75-4.482-8.042-8.048-9.947-2.904-1.552-15.397-1.502-21.384.084l-4.206 1.115 5.96-5.833c7.451-7.29 9.438-10.639 8.945-15.067-.2-1.805-.871-4.225-1.499-5.416-1.53-2.9-5.708-7.363-9.272-9.907l-2.851-2.036 2.495.414c9.267 1.537 11.41 1.746 14.256 1.395 4.491-.556 7.289-1.936 10.142-5.003 3.05-3.278 4.604-7.707 5.26-14.997l.494-5.486 1.688 4.097c4.922 11.943 8.1 13.922 14.565 9.072 4.42-3.315 15.61-15.793 15.61-17.404 0-.458-4.276-1.651-10.692-2.982-4.43-.919-32.22-1.804-37.78-1.204"/><path d="M310.185 159.551c-.411.477-2.063 7.117-3.67 14.755a5836.652 5836.652 0 0 1-5.098 23.955c-1.2 5.555-3.116 14.581-4.277 20.136a6608.728 6608.728 0 0 1-4.918 23.26c-1.556 7.29-3.315 15.678-3.933 18.747-1.452 7.222-2.594 11.457-3.088 11.457-.504 0-4.848-4.059-37.139-34.705-13.472-12.786-24.874-23.272-25.305-23.272-.878 0-2.226 4.096-7.538 22.913-2.058 7.29-4.33 15.212-5.079 17.706-.748 2.493-2.264 7.776-3.386 11.803a5494.662 5494.662 0 0 1-3.597 12.846c-3.426 12.15-4.42 14.928-5.349 14.928-.507 0-4.285-3.68-8.34-8.124a2004.12 2004.12 0 0 0-11.69-12.706c-2.336-2.503-7.674-8.332-11.762-12.846-4.088-4.513-9.426-10.342-11.762-12.845-2.353-2.522-7.483-8.158-11.405-12.533-3.922-4.374-8.907-9.824-11.084-12.116-2.185-2.3-5.788-6.25-8.046-8.818-4.762-5.416-6.724-6.096-6.214-2.153.096.748 15.437 35.759 18.224 41.591.596 1.25 1.061 2.39 1.061 2.604 0 .213 1.107 2.708 2.495 5.624 1.388 2.917 2.495 5.382 2.495 5.555 0 .171.775 1.98 1.71 3.993.946 2.033 3.8 8.401 6.381 14.234 5.653 12.776 6.837 14.652 12.652 20.046 3.707 3.44 12.436 9.324 13.83 9.324.194 0 1.71.59 3.35 1.302 6.463 2.81 14.256 4.694 23.736 5.739 7.699.848 25.46.405 31.864-.796 12.688-2.377 17.828-3.682 28.014-7.11 7.841-2.638 21.079-9.026 27.8-13.415 16.68-10.892 27.591-24.178 31.67-38.56 1.614-5.694 1.774-9.026.755-15.76-.39-2.568-1.662-12.43-2.843-22.011a5378.636 5378.636 0 0 0-2.815-22.566c-.371-2.85-1.041-8.194-1.48-11.804-3.034-24.927-3.778-29.85-4.615-30.54-.547-.451-1.125-.393-1.604.162M32.575 164.113c-3.917.45-6.06 5.819-4.04 10.124 1.5 3.2 4.468 3.651 20.221 3.083 7.82-.282 23.06-.812 33.753-1.174 10.692-.362 19.576-.77 19.674-.903.096-.132-.147-2.5-.535-5.207l-.713-4.965-17.179-.436c-21.242-.54-48.592-.819-51.18-.522"/><g><path d="M68.868 396.917l3.63 13.708-22.335 5.772 5.136 19.39 11.042-2.675 11.043-2.675 9.51 35.227 9.509 35.227 10.49-2.712 10.491-2.711L108 460.03l-9.385-35.438 10.954-3.01 10.954-3.01-2.58-9.334-2.581-9.335-10.941 2.65-10.941 2.649-3.63-13.707-3.63-13.708-10.49 2.712-10.491 2.711 3.63 13.707M302.816 384.673l15.583 58.84 20.981-5.423-31.165-117.68-10.49 2.711-10.49 2.712 15.581 58.84M437.613 298.396l2.833 10.698 20.982-5.423-5.667-21.396-10.49 2.711-10.49 2.712 2.832 10.698M234.534 368.493c-3.187 1.346-9.854 5.776-12.607 8.376-8.394 7.929-13.143 17.248-14.754 28.952-1.184 8.6-.361 12.738 10.464 52.662l9.956 36.719 10.152-2.624 10.153-2.624-3.328-13.25-3.328-13.249 15.736-4.067c13.265-3.429 16.5-4.484 20.601-6.72 12.89-7.031 21.45-18.805 24.01-33.03 1.332-7.391 1.09-11.997-1.052-20.088-2.32-8.76-4.285-12.462-10.27-19.35-7.856-9.04-20.263-15.119-32.643-15.991-3.632-.256-6.765.121-12.964 1.561-4.497 1.044-9.053 2.27-10.126 2.723zm25.164 17.473c10.09 1.879 17.608 8.872 20.246 18.835 1.913 7.221.886 14.032-3.043 20.185-5.14 8.05-8.958 10.136-27.164 14.842l-13.943 3.603-4.057-16.276-4.057-16.275.93-4.17c3.247-14.556 16.57-23.446 31.088-20.744M359.746 336.138c-3.958 1.694-8.901 4.889-12.657 8.182-19.5 17.092-21.247 46.76-3.9 66.21 8.202 9.196 21.272 15.5 32.863 15.85 1.822.054 4.222.137 5.4.184 2.047.084 34.665-8.009 35.081-8.703.11-.184-1.063-4.724-2.587-10.045l-2.789-9.71-14.416 3.726c-16.176 4.181-20.089 4.439-27.293 1.798-4.084-1.498-11.129-6.933-10.71-8.264.184-.584 10.993-3.638 34.202-9.661 18.675-4.846 34.02-8.973 34.125-9.177.105-.205-.755-3.913-1.92-8.256-3.84-14.367-10.695-23.297-23.044-30.03-7.666-4.182-12.157-5.493-20.614-6.027-4.752-.3-17.064 1.921-21.74 3.923zm23.787 17.457c1.898.343 4.968 1.367 6.902 2.306 3.817 1.852 9.353 6.457 9.024 7.508-.311 1.008-46.12 12.706-46.35 11.837-.674-2.545 4.834-12.605 8.384-15.312a404.442 404.442 0 0 0 3.482-2.686c.839-.657 4.499-1.854 8.319-2.721 5.32-1.208 7.573-1.413 10.239-.932M150.536 391.548c-9.04 4.366-14.735 9.69-20.036 18.73-2.623 4.475-3.9 7.724-4.872 12.404-2.107 10.143-1.747 12.668 5.956 41.754l6.782 25.609 9.813-2.537 9.814-2.536-6.144-23.202c-6.552-24.74-7.364-29.707-5.908-36.122 1.665-7.328 6.759-13.094 14.656-16.588l4.596-2.033-2.48-9.36-2.478-9.362-2.734.6c-1.492.326-4.657 1.528-6.965 2.643M179.873 431.059l11.961 45.166 20.305-5.248-11.776-44.464-11.908-44.966c-.073-.277-4.69.581-10.338 1.922l-10.205 2.423 11.961 45.167M462.493 387.95c2.215 15.518-6.127 23.196-18.813 28.471 1.81 7.295 3.53 14.355 5.454 21.62 18.362-5.694 31.526-21.864 33.62-35.65 2.045-9.977 1.781-11.463-9.48-53.988l-10.076-38.045-10.456 2.702-10.457 2.703"/></g></svg>