<?xml version="1.0" encoding="UTF-8" standalone="no"?>
<svg
   xmlns:dc="http://purl.org/dc/elements/1.1/"
   xmlns:cc="http://creativecommons.org/ns#"
   xmlns:rdf="http://www.w3.org/1999/02/22-rdf-syntax-ns#"
   xmlns:svg="http://www.w3.org/2000/svg"
   xmlns="http://www.w3.org/2000/svg"
   id="svg4"
   version="1.1"
   width="512"
   height="512">
  <metadata
     id="metadata10">
    <rdf:RDF>
      <cc:Work
         rdf:about="">
        <dc:format>image/svg+xml</dc:format>
        <dc:type
           rdf:resource="http://purl.org/dc/dcmitype/StillImage" />
        <dc:title></dc:title>
      </cc:Work>
    </rdf:RDF>
  </metadata>
  <defs
     id="defs8" />
  <g
     id="g900"
     transform="matrix(0.69219804,0,0,0.69219804,-10.807217,59.071685)">
    <path
       style="opacity:1;fill:#000000;fill-opacity:1;stroke:none;stroke-width:4;stroke-linecap:butt;stroke-linejoin:bevel;stroke-miterlimit:4;stroke-dasharray:none;stroke-opacity:1"
       d="m 465.79883,197.13086 c -1.78275,0 -3.2168,1.55502 -3.2168,3.48633 v 167.60156 c 0,1.93131 1.43405,3.48633 3.2168,3.48633 h 34.59375 c 1.78275,0 3.21679,-1.55502 3.2168,-3.48633 v -66.39258 h 49.24023 v 66.39258 c 0,1.93131 1.436,3.48633 3.21875,3.48633 h 34.5918 c 1.78274,0 3.21875,-1.55502 3.21875,-3.48633 V 200.61719 c 0,-1.93131 -1.43601,-3.48633 -3.21875,-3.48633 h -34.5918 c -1.78275,0 -3.21875,1.55502 -3.21875,3.48633 v 66.35156 h -49.24023 v -66.35156 c 0,-1.93131 -1.43405,-3.48633 -3.2168,-3.48633 z"
       id="rect870" />
    <path
       style="opacity:1;fill:#000000;fill-opacity:1;stroke:none;stroke-width:6.26084995;stroke-linecap:butt;stroke-linejoin:bevel;stroke-miterlimit:4;stroke-dasharray:none;stroke-opacity:1"
       d="M 223.22852,90.919922 A 193.57738,193.57738 0 0 0 29.650391,284.49609 193.57738,193.57738 0 0 0 223.22852,478.07422 193.57738,193.57738 0 0 0 416.80469,284.49609 193.57738,193.57738 0 0 0 223.22852,90.919922 Z m -87.37891,132.537108 2.18359,0.22852 c 4.72391,0.32985 8.97426,1.11845 12.39258,4.77539 2.81907,3.03226 3.82163,6.70542 4.79102,10.5957 l 2.99218,12.83398 7.49219,31.93946 4.27149,17.84375 7.57812,-36.94141 4.69336,-22.85742 c 0.96515,-4.83633 1.98492,-10.41225 5.60156,-14.05859 6.23632,-6.28299 18.44285,-5.35408 24.36524,0.91406 3.0121,3.18923 4.14522,7.27829 4.09961,11.58008 -0.0456,3.65694 -1.34666,7.72589 -2.23438,11.27148 l -4.85156,18.7832 -16.20313,62.93165 c -2.29619,9.17842 -3.88136,19.6781 -14.59765,22.42187 -1.60575,0.41576 -3.35222,0.72594 -5.00781,0.74609 -3.45438,0.0414 -6.65353,0.18752 -10.01563,-0.76172 -11.76417,-3.31648 -12.80062,-16.15307 -15.30469,-26.16406 l -7.34961,-30.05468 -4.58593,-18.47266 -2.62305,10.64648 -7.04492,28.79883 -4.6211,18.73242 c -1.76272,6.81647 -3.43386,12.42936 -10.44336,15.61328 -4.12891,1.86984 -7.54238,1.66741 -11.900386,1.66211 a 20.520475,20.520475 0 0 1 -5.638672,-0.76172 c -1.498627,-0.42211 -3.053157,-0.9345 -4.378906,-1.77343 -6.891774,-4.358 -8.035521,-12.42507 -9.904297,-19.69336 L 63.558594,271.92969 58.400391,251.58203 c -0.95454,-3.80437 -2.52968,-8.22839 -2.376953,-12.21094 0.152725,-3.84468 1.452238,-7.78633 4.113281,-10.63086 5.434511,-5.82587 16.615158,-6.9646 23.111328,-2.38281 6.36996,4.49588 7.207755,14.61372 8.640625,21.78125 l 7.201172,35.37695 2.255856,11.27149 c 0.41682,2.09256 0.72561,4.67272 1.625,6.57227 l 3.79492,-16.58985 6.95704,-30.05859 3.53515,-15.33985 c 0.72121,-2.95589 1.21413,-6.09592 2.76367,-8.76757 3.15422,-5.43451 7.8492,-6.51176 13.63477,-6.91797 z m 154.03516,0 a 32.812821,32.812821 0 0 1 7.20117,1.11719 c 6.45162,2.06816 8.55955,5.68851 11.91211,11.03711 l 5.63867,9.08203 22.89844,36.94336 7.35351,11.89453 c 1.06166,1.69166 2.46452,4.33837 3.86133,5.63867 v -55.41601 c 0,-5.61163 -0.26039,-10.40141 3.69141,-14.99805 5.80572,-6.75602 19.85997,-7.01142 25.99023,-0.63086 3.53604,3.6771 4.43415,9.16448 4.43945,14.06445 v 92.67188 l -0.2832,3.1289 c -0.60984,8.6248 -3.75841,15.00956 -12.55078,17.625 -1.63545,0.48257 -3.30186,0.82946 -5.01367,0.84961 -5.06966,0.0615 -9.80906,0.32052 -14.40039,-2.29492 -3.54028,-2.01726 -5.67893,-5.60915 -7.77149,-8.97656 L 335.9082,334.23633 313.69727,299.16992 303.0293,282.57617 v 57.91797 c -0.0509,4.35906 -1.70032,9.21431 -5.00196,12.1543 -6.0189,5.3539 -18.51942,5.2092 -24.41211,-0.30274 -3.45331,-3.23482 -4.70261,-8.51838 -4.70898,-13.10547 v -95.79492 c 0.006,-4.73876 1.06856,-10.07339 4.17187,-13.78125 3.77363,-4.50542 9.08226,-5.59245 14.61329,-5.97851 z m -49.47266,0.0664 h 0.006 1.24805 c 2.76817,0.18773 5.62789,0.63622 8.14257,1.875 5.60739,2.76286 8.75697,8.44193 8.76758,14.59765 v 100.49805 c -0.11137,9.29509 -7.48744,15.95055 -16.59375,15.9707 -3.65695,0.005 -5.25276,0.0445 -8.76758,-1.39257 -6.93314,-2.83393 -9.69162,-9.72007 -9.70117,-16.76563 V 241.25 c 0.0806,-7.15162 3.18856,-13.43939 10.01563,-16.32422 2.65364,-1.11699 4.2203,-1.02792 6.88281,-1.40234 z"
       id="path856" />
    <path
       style="fill:#ffffff;fill-opacity:1;stroke-width:1.06059933"
       d="m 135.84867,276.00293 0.315,0.30969 v -0.30969 z"
       id="path830" />
    <path
       style="opacity:1;fill:#000000;fill-opacity:1;stroke:none;stroke-width:4;stroke-linecap:butt;stroke-linejoin:bevel;stroke-miterlimit:4;stroke-dasharray:none;stroke-opacity:1"
       d="m 611.28906,197.13086 c -0.84685,0 -1.52929,1.24293 -1.52929,2.78711 v 0.69922 29.26367 108.00976 c -0.0946,0.36503 -0.15235,0.77126 -0.15235,1.20508 v 29.83399 c 0,1.53751 0.66569,2.77539 1.49219,2.77539 h 1.87891 34.59179 31.58008 c 49.67202,-3.80752 63.02345,-31.0316 62.04883,-58.28125 v -62.22461 l 0.0117,-0.002 c -0.005,-0.021 -0.007,-0.0713 -0.0117,-0.0937 0.16055,-40.47846 -37.84763,-53.97307 -64.55274,-53.97266 l 0.004,0.19141 c -1.6291,-0.18186 -3.116,-0.19141 -4.875,-0.19141 H 647.5704 612.97861 Z m 39.5,35.53711 h 32.44336 c 13.84287,3.94317 16.70314,14.9224 17.46485,20.72656 v 56.40039 c -0.27253,17.25255 -12.66522,26.64549 -22.24024,26.44922 l -27.66797,0.0762 z"
       id="rect878" />
  </g>
</svg>
