<svg xmlns="http://www.w3.org/2000/svg" height="512" width="512">
    <path d="M351.106 52.79c-.154 0-.312 0-.465.01-4.358.172-10.766 3.53-12.873 7.375-1.03 1.882-1.945 6.57-2.6 8.855l-2.108 7.38-.455 6.202-.268 2.945-1.183 12.404v12.395l.302 5.023-.273 6.202-.144 2.946c-.383 2.873-.637 5.766-1.485 8.558-.373 1.245-1.115 2.936-2.24 3.659-1.29.819-2.73-.21-3.832-.91-3.386-2.15-5.091-2.763-8.855-4.023l-12.993-4.75-17.706-7.85c-2.624-1.111-7.773-3.07-9.109-5.608-.574-1.092-.656-2.903-.627-4.129.115-5.066 2.361-5.65 5.603-8.86 2.6-2.571 5.431-5.708 7.313-8.855 1.629-2.72 2.864-6.096 1.451-9.147-1.532-3.304-5.976-7.763-9.655-8.429l-11.21.747-6.495.302-3.247.263-10.632.633-3.836.282h-10.627c-3.362-.043-8.812-.953-11.805-2.471-2.184-1.106-5.22-4.11-7.677-3.611-1.485.302-2.735 1.714-4.138 2.414-1.997 1.005-5.905.972-7.021 3.089-1.696 3.208 5.01 7.332.814 9.679a4.416 4.416 0 0 1-1.173.402c-.633.144-1.116.191-1.768.144-1.882-.144-3.16-.455-5.023.383-2.5 1.125-4.866 5.88-6.236 8.275-3.774 6.61-10.517 20.139-12.945 27.155l-3.544-1.7c-5.177-2.73-11.11-6.198-17.121-6.27-3.463-.038-7.246-.239-10.335 1.62-1.341.804-2.586 1.977-3.276 3.395-.709 1.46-1.183 3.846-2.653 4.732-.709.421-2.356.608-3.218.766-2.625.493-5.383 1.006-7.016 3.371-1.83 2.649-.867 7.591-2.031 10.014-1.025 2.132-3.592 1.212-5.407 1.993-1.782.766-2.06 3.113-2.074 4.808-.028 2.213.886 6.72-.517 8.486-1.04 1.308-3.304.886-4.799.992-3.227.22-6.877.512-9.444 2.691-1.963 1.667-3.314 3.726-4.727 5.838-2.677 4.018-4.717 6.777-4.712 11.815v4.722l.278 2.946c.028 2.255.057 4.295-.6 6.494-1.196 4.022-5.454 8.807-8.548 11.56-2.394 2.137-5.531 4.646-8.86 4.919-1.661.144-6.321-1.068-9.147.853-1.667 1.135-2.854 3.725-3.99 5.406-1.33 1.969-2.71 3.06-4.865 4.042-5.383 2.448-12.102 1.705-16.83 5.585-2.633 2.164-7.326 8.898-9.735 11.915-1.044 1.303-3.439 4.19-5.024 4.598-2.03.531-3.683-1.16-5.9-1.313-2.333-.162-3.736.953-4.866 2.917l-2.63 6.49c-2.15 4.367-3.941 4.903-4.281 10.928-.148 2.605 1.006 6.657 1.844 9.147l3.017 7.98 2.184 6.191 9.444 25.986c1.47 3.942 3.506 10.048 5.417 13.573 2.691 4.966 5.694 7.84 9.118 12.102 6.509 8.094 12.96 16.317 18.965 24.798 2.672 3.774 6.595 8.563 7.864 12.988.728 2.543.575 3.626.57 6.193l-2.07 16.828c-.01 1.772-.224 3.774.796 5.316 1.532 2.29 4.056 3.099 6.585 3.731 3.755.934 7.667 1.054 11.508 1.317l6.791.56 5.316.312h2.361l2.946.277c2.332.03 5.507.14 7.681-.727 2.27-.906 5.628-4.296 7.673-5.987l5.91-4.885c4.041-3.496 8.687-8.065 13.28-10.708 5.68-3.271 12.495-3.789 18.898-4.23 4.31-.291 10.052-.277 13.87-2.494 2.906-1.686 3.926-4.904 5.028-7.869 1.475-3.927 2.557-6.858 5.895-9.64 3.951-3.295 13.16-5.565 18.295-7.28 12.863-4.286 21.201-8.932 35.425-9.971l2.955-.263 19.185.565c3.554.24 7.692.43 10.924 2.083 3.468 1.772 4.406 5.144 7.083 7.232 1.902 1.484 4.23 1.906 5.843 3.711 1.834 2.045 1.509 4.296 1.964 6.772.397 2.14 1.144 3.515 2.825 4.923 2.577 2.155 9.354 4.497 12.696 5.613 2.347.776 4.876 1.494 6.753 3.19 1.178 1.053 1.892 2.394 1.6 3.994-.321 1.753-1.93 4.334.24 5.555 1.489.838 5.684.058 7.346-.354l12.394-3.472c1.877-.446 4.962-.944 6.791-.216 2.423.958 3.017 4.263 3.855 6.456l1.552 3.544c2.74 5.761 6.992 11.35 12.897 14.08 4.215 1.94 7.816 2.452 12.394 2.447l11.815-1.178c1.724-.014 3.966.163 5.604.69 3.582 1.164 5.287 2.806 9.449 2.854 7.375.082 10.071-5.455 15.938-5.88 5.92-.437 8.716 2.959 14.76 3.423 3.175.24 6.15-1.503 8.568-3.352l11.503-9.363c4.957-2.94 14.31-3.228 20.076-4.827 3.899-1.083 4.718-2.26 4.722-6.274v-4.722c.015-8.75 2.874-14.506 5.704-22.442 3.056-8.549 7.591-21.14 11.806-28.931 3.817-7.06 8.984-13.951 11.618-21.542 3.194-9.21 3.625-19.051 4.947-28.639l1.097-8.261c.11-.814.589-3.482.445-4.119-.445-1.992-3.132-.905-4.454-2.457-.67-.785-.684-1.901-.8-2.873l-.545-5.9-.56-10.335c-.317-4.349-.944-9.55-3.348-13.286-2.079-3.232-5.7-4.932-8.491-7.423a65.721 65.721 0 0 1-11.6-13.826 55.837 55.837 0 0 1-4.52-8.86c-.83-2.083-2.252-6.743-4.004-7.979-1.01-.718-2.845-.981-4.076-1.077l-5.91.196c-.646 0-1.456.024-2.06-.21-1.853-.729-2.82-3.909-3.294-5.69-1.389-5.263-1.676-11.255-6.154-14.957-1.312-1.087-4.842-2.983-6.499-3.936l-14.76-8.142c-2.48-1.393-6.389-3.036-8.166-5.143-1.499-1.772-2.327-5.115-3.424-7.376-3.448-7.116-6.729-12.72-8.065-20.665-.977-5.843-1.499-15.34-5.024-20.076-3.855-5.187-11.02-5.9-16.647-8.314-.728-.311-1.71-.69-2.356-1.12-1.59-1.064-2.203-3.272-2.744-5.034l-3.065-10.325c-1.47-4.507-3.29-9.938-6.398-13.582-1.634-1.906-3.89-2.879-5.398-4.727-1.437-1.753-1.7-3.386-2.667-4.722-1.428-1.978-3.52-2.658-5.838-2.658zm-162.5 132.238l2.063.215c4.454.307 8.467 1.044 11.686 4.502 2.662 2.85 3.601 6.322 4.516 9.985l2.816 12.102 7.064 30.11 4.032 16.829 7.146-34.832 4.425-21.55c.91-4.56 1.873-9.818 5.282-13.257 5.881-5.924 17.39-5.048 22.974.862 2.84 3.012 3.908 6.858 3.865 10.92-.048 3.447-1.27 7.279-2.107 10.622l-4.574 17.72-15.277 59.327c-2.165 8.66-3.664 18.563-13.764 21.15-1.519.387-3.161.68-4.727.698-3.252.039-6.27.178-9.435-.718-11.092-3.132-12.078-15.225-14.434-24.664l-6.93-28.347-4.325-17.413-2.466 10.033-6.643 27.164-4.368 17.662c-1.657 6.423-3.228 11.71-9.841 14.713-3.89 1.767-7.117 1.58-11.226 1.57a19.348 19.348 0 0 1-5.311-.718c-1.418-.397-2.874-.876-4.124-1.667-6.499-4.109-7.58-11.719-9.343-18.577l-15.13-58.739-4.87-19.194c-.9-3.583-2.38-7.759-2.236-11.509.143-3.62 1.365-7.342 3.874-10.023 5.124-5.494 15.665-6.566 21.79-2.247 6.011 4.239 6.801 13.774 8.152 20.532l6.786 33.366 2.126 10.627c.393 1.973.695 4.396 1.543 6.192l3.572-15.641 6.566-28.343 3.333-14.463c.68-2.782 1.135-5.747 2.6-8.266 2.97-5.124 7.395-6.14 12.85-6.518zm145.235 0a30.89 30.89 0 0 1 6.79 1.053c6.088 1.95 8.075 5.36 11.236 10.402l5.311 8.558 21.59 34.837 6.944 11.216c.996 1.59 2.323 4.095 3.635 5.316v-52.24c0-5.292-.25-9.818 3.477-14.152 5.474-6.37 18.725-6.604 24.51-.59 3.334 3.463 4.182 8.645 4.191 13.267v87.359l-.273 2.96c-.57 8.126-3.539 14.146-11.829 16.608a17.284 17.284 0 0 1-4.727.805c-4.784.057-9.252.297-13.582-2.17-3.338-1.901-5.354-5.282-7.327-8.457l-6.547-10.335-20.943-33.055-10.057-15.651v54.61c-.048 4.11-1.604 8.683-4.717 11.456-5.676 5.048-17.462 4.914-23.012-.287-3.257-3.05-4.44-8.032-4.445-12.347v-90.328c.005-4.463 1.001-9.492 3.927-12.993 3.559-4.248 8.573-5.268 13.793-5.627zm-46.637.052h1.178c2.61.182 5.307.599 7.677 1.772 5.287 2.606 8.261 7.965 8.271 13.77v94.748c-.105 8.759-7.064 15.042-15.65 15.057-3.45.005-4.953.038-8.267-1.317-6.542-2.673-9.138-9.167-9.147-15.805v-91.51c.076-6.744 3.012-12.673 9.444-15.388 2.51-1.054 3.98-.972 6.494-1.331zm-98.599 49.482l.297.302v-.302zm182.471 87.181h16.164c11.273 0 19.54 1.878 24.817 5.609 5.268 3.73 7.912 9.07 7.912 17.006 0 7.978-2.649 14.315-7.95 18.055-5.297 3.735-13.553 5.613-24.78 5.613h-16.163zm-57.59 1.629h7.87v17.413h28.59v-17.418h7.879v42.48h-7.878v-20.225h-28.592v20.225h-7.868v-42.48zm69.865 4.233c-2.03.034-3.601.087-4.406.02v33.466c6.025.086 21.815.69 27.116-2.553 4.033-2.466 4.55-7.461 4.55-13.701 0-6.202-.474-11.24-4.55-13.611-6.346-3.688-16.618-3.721-22.71-3.62zm22.088 90.333a17.868 17.868 0 0 0-1.964.144c-2.122.397-4.564 1.097-6.183 2.586-2.596 2.395-3.707 8.209-2.308 11.456.608 1.417 1.815 2.39 2.797 3.539 1.178 1.38 2.72 3.702 3.553 5.32 2.946 5.733 1.629 7.563 6.513 13.573 1.28 1.576 2.884 3.036 4.79 3.817 1.216.503 2.801.714 4.118.814 3.448.254 10.268-1.614 12.984-3.75 2.84-2.236 5.268-6.513 6.877-9.731 1.791-3.583 3.544-7.27 4.348-11.221.776-3.832.973-11.27-1.637-14.435-1.064-1.293-2.678-1.714-4.263-1.963-2.993-.47-8.99 1.283-11.805 2.476-1.437.613-3.745 1.59-5.316 1.46-1.475-.12-3.563-1.542-5.02-2.203-2.729-1.254-4.807-1.93-7.484-1.887z" fill="#010101"/>
</svg>
