<svg xmlns="http://www.w3.org/2000/svg" height="512" width="512">
    <path d="M351.107 52.793c-.153 0-.307 0-.465.01-4.358.173-10.76 3.53-12.868 7.37-1.03 1.883-1.954 6.571-2.61 8.856l-2.098 7.375-.455 6.202-.273 2.955-1.178 12.399v12.394l.297 5.02-.273 6.201-.143 2.95c-.384 2.874-.642 5.77-1.485 8.563-.378 1.245-1.12 2.936-2.246 3.654-1.288.824-2.73-.21-3.827-.91-3.386-2.145-5.095-2.768-8.855-4.023l-12.988-4.755-17.71-7.84c-2.624-1.116-7.768-3.075-9.104-5.613-.575-1.092-.66-2.907-.637-4.133.115-5.067 2.366-5.651 5.603-8.855 2.606-2.572 5.436-5.709 7.323-8.855 1.628-2.72 2.854-6.101 1.441-9.147-1.532-3.305-5.967-7.763-9.645-8.429l-11.22.752-6.495.292-3.247.268-10.627.632-3.831.283h-10.632c-3.362-.043-8.812-.958-11.805-2.471-2.189-1.111-5.22-4.11-7.677-3.606-1.485.296-2.73 1.71-4.133 2.408-2.002 1.006-5.915.973-7.03 3.09-1.696 3.208 5.019 7.336.818 9.683a4.396 4.396 0 0 1-1.168.393c-.637.143-1.12.196-1.772.148-1.882-.144-3.16-.455-5.019.383-2.5 1.126-4.87 5.877-6.24 8.271-3.774 6.609-10.512 20.143-12.945 27.16l-3.544-1.706c-5.172-2.725-11.11-6.192-17.121-6.264-3.463-.038-7.246-.244-10.33 1.619-1.341.804-2.586 1.982-3.276 3.4-.709 1.456-1.188 3.84-2.658 4.727-.709.426-2.356.603-3.218.766-2.625.493-5.378 1.006-7.012 3.376-1.829 2.649-.876 7.586-2.04 10.01-1.02 2.13-3.582 1.216-5.402 1.997-1.781.766-2.06 3.103-2.078 4.803-.029 2.213.89 6.715-.513 8.477-1.039 1.312-3.304.896-4.803.996-3.228.225-6.877.517-9.444 2.696-1.964 1.662-3.314 3.726-4.722 5.843-2.682 4.013-4.718 6.767-4.713 11.805v4.722l.287 2.955c.024 2.251.048 4.296-.608 6.494-1.197 4.023-5.455 8.803-8.548 11.556-2.395 2.136-5.527 4.646-8.855 4.919-1.662.139-6.322-1.068-9.148.852-1.67 1.135-2.854 3.721-3.994 5.402-1.331 1.969-2.71 3.065-4.865 4.042-5.383 2.448-12.098 1.71-16.825 5.59-2.638 2.164-7.336 8.902-9.74 11.92-1.045 1.302-3.434 4.18-5.02 4.597-2.035.527-3.687-1.169-5.905-1.322-2.327-.163-3.725.958-4.86 2.921l-2.63 6.494c-2.155 4.368-3.946 4.9-4.29 10.92-.144 2.61 1.005 6.666 1.843 9.156l3.022 7.97 2.179 6.197 9.444 25.98c1.47 3.942 3.51 10.053 5.421 13.578 2.692 4.966 5.69 7.844 9.119 12.102 6.504 8.093 12.954 16.32 18.955 24.798 2.677 3.773 6.61 8.558 7.873 12.988.733 2.538.57 3.63.566 6.197L66.37 392.27c-.014 1.772-.23 3.769.795 5.316 1.528 2.289 4.052 3.093 6.58 3.726 3.76.929 7.678 1.053 11.514 1.317l6.79.56 5.317.306h2.36l2.95.288c2.333.024 5.508.129 7.678-.733 2.27-.905 5.632-4.296 7.672-5.986l5.905-4.88c4.047-3.497 8.692-8.07 13.285-10.714 5.68-3.27 12.49-3.793 18.893-4.229 4.31-.296 10.057-.277 13.874-2.495 2.902-1.685 3.927-4.904 5.028-7.863 1.475-3.927 2.553-6.868 5.891-9.65 3.951-3.29 13.17-5.565 18.304-7.28 12.864-4.286 21.197-8.922 35.425-9.961l2.95-.268 19.19.565c3.554.24 7.687.43 10.92 2.088 3.462 1.772 4.405 5.138 7.087 7.227 1.901 1.484 4.224 1.9 5.843 3.711 1.83 2.045 1.508 4.296 1.963 6.777.398 2.136 1.135 3.51 2.821 4.918 2.572 2.155 9.348 4.497 12.691 5.613 2.347.776 4.885 1.494 6.762 3.185 1.174 1.053 1.892 2.394 1.6 3.994-.32 1.753-1.935 4.339.235 5.56 1.494.843 5.684.057 7.346-.354l12.4-3.468c1.877-.445 4.956-.943 6.785-.215 2.424.958 3.017 4.262 3.856 6.45l1.556 3.545c2.74 5.756 6.987 11.35 12.892 14.075 4.215 1.94 7.816 2.457 12.4 2.452l11.804-1.178c1.725-.02 3.975.163 5.613.694 3.583 1.164 5.287 2.797 9.444 2.845 7.38.086 10.077-5.45 15.943-5.876 5.915-.431 8.717 2.96 14.756 3.419 3.18.24 6.144-1.499 8.563-3.343l11.513-9.362c4.956-2.941 14.31-3.238 20.07-4.837 3.904-1.078 4.718-2.256 4.728-6.274v-4.722c.014-8.75 2.863-14.497 5.699-22.437 3.05-8.549 7.59-21.14 11.81-28.926 3.816-7.064 8.98-13.956 11.613-21.551 3.2-9.21 3.625-19.047 4.947-28.634l1.097-8.266c.11-.815.589-3.477.445-4.114-.445-1.997-3.132-.91-4.454-2.462-.67-.785-.684-1.896-.8-2.873l-.545-5.9-.56-10.33c-.321-4.35-.944-9.55-3.353-13.286-2.078-3.237-5.69-4.932-8.486-7.432a65.74 65.74 0 0 1-11.604-13.822 55.793 55.793 0 0 1-4.512-8.86c-.833-2.078-2.26-6.733-4.008-7.969-1.015-.718-2.85-.991-4.08-1.082l-5.905.201c-.642-.005-1.456.02-2.06-.22-1.853-.728-2.816-3.903-3.29-5.685-1.389-5.268-1.68-11.254-6.163-14.956-1.313-1.087-4.837-2.984-6.494-3.937l-14.76-8.141c-2.481-1.399-6.39-3.037-8.166-5.149-1.499-1.772-2.323-5.11-3.424-7.375-3.448-7.112-6.734-12.715-8.065-20.665-.982-5.843-1.504-15.335-5.029-20.071-3.85-5.187-11.014-5.9-16.642-8.31-.732-.315-1.71-.694-2.356-1.13-1.59-1.058-2.208-3.26-2.744-5.028l-3.065-10.33c-1.475-4.502-3.285-9.928-6.394-13.577-1.633-1.906-3.893-2.883-5.402-4.727-1.441-1.758-1.7-3.386-2.662-4.722-1.432-1.973-3.525-2.658-5.843-2.653zM188.612 185.021l2.06.215c4.454.311 8.462 1.054 11.685 4.502 2.658 2.859 3.602 6.322 4.516 9.99l2.821 12.102 7.064 30.114 4.028 16.824 7.145-34.831 4.425-21.551c.91-4.56 1.873-9.818 5.283-13.256 5.88-5.924 17.389-5.048 22.973.862 2.84 3.007 3.908 6.863 3.865 10.919-.043 3.448-1.27 7.284-2.107 10.627l-4.574 17.71-15.277 59.337c-2.165 8.654-3.66 18.553-13.764 21.14-1.514.392-3.161.684-4.722.703-3.257.039-6.274.177-9.444-.718-11.092-3.127-12.069-15.23-14.43-24.669l-6.93-28.337-4.324-17.418-2.472 10.038-6.642 27.154-4.358 17.662c-1.662 6.427-3.238 11.72-9.847 14.722-3.893 1.763-7.111 1.571-11.22 1.566a19.348 19.348 0 0 1-5.316-.718c-1.413-.398-2.879-.881-4.129-1.672-6.498-4.109-7.576-11.714-9.338-18.567l-15.13-58.748-4.865-19.185c-.9-3.587-2.385-7.758-2.241-11.513.144-3.625 1.37-7.342 3.879-10.024 5.124-5.493 15.665-6.566 21.79-2.246 6.006 4.239 6.796 13.778 8.147 20.536l6.79 33.356 2.127 10.627c.393 1.973.685 4.406 1.533 6.197l3.577-15.641 6.561-28.342 3.333-14.463c.68-2.787 1.145-5.747 2.606-8.266 2.974-5.124 7.399-6.14 12.854-6.523zm145.235 0a30.938 30.938 0 0 1 6.79 1.053c6.083 1.95 8.07 5.364 11.231 10.407l5.316 8.563 21.59 34.831 6.934 11.216c1.001 1.595 2.323 4.09 3.64 5.316v-52.25c0-5.291-.244-9.807 3.482-14.141 5.474-6.37 18.725-6.61 24.505-.594 3.334 3.467 4.181 8.64 4.186 13.26v87.378l-.268 2.95c-.575 8.132-3.544 14.152-11.834 16.618-1.542.455-3.113.781-4.727.8-4.78.058-9.248.302-13.577-2.164-3.338-1.902-5.354-5.288-7.327-8.463l-6.547-10.33-20.943-33.064-10.057-15.646v54.61c-.048 4.11-1.604 8.688-4.717 11.46-5.675 5.048-17.461 4.91-23.017-.287-3.256-3.05-4.434-8.031-4.44-12.356v-90.322c.006-4.468 1.007-9.497 3.933-12.993 3.558-4.248 8.563-5.273 13.778-5.637zm-46.646.062h1.183c2.61.177 5.306.599 7.677 1.767 5.287 2.605 8.256 7.96 8.266 13.764v94.757c-.105 8.764-7.06 15.038-15.646 15.057-3.448.005-4.952.043-8.266-1.312-6.537-2.672-9.138-9.166-9.147-15.809v-91.51c.076-6.743 3.007-12.672 9.444-15.392 2.504-1.054 3.98-.968 6.494-1.322zm-98.589 49.481l.297.292v-.292zM405.45 417.929a17.777 17.777 0 0 0-1.964.149c-2.116.397-4.564 1.092-6.182 2.586-2.6 2.39-3.707 8.208-2.309 11.455.608 1.418 1.82 2.395 2.797 3.544 1.178 1.375 2.72 3.693 3.554 5.316 2.945 5.728 1.628 7.567 6.513 13.573 1.278 1.575 2.878 3.036 4.78 3.812 1.225.503 2.815.718 4.132.819 3.448.258 10.263-1.619 12.979-3.755 2.835-2.236 5.268-6.513 6.877-9.731 1.791-3.583 3.549-7.265 4.353-11.216.776-3.827.968-11.27-1.638-14.435-1.068-1.293-2.682-1.72-4.267-1.963-2.993-.475-8.994 1.283-11.81 2.48-1.436.609-3.74 1.58-5.316 1.456-1.475-.124-3.553-1.542-5.014-2.203-2.725-1.254-4.813-1.93-7.485-1.887z" fill="#010101"/>
</svg>
