<?xml version="1.0" encoding="UTF-8" standalone="no"?>
<svg
   xmlns:dc="http://purl.org/dc/elements/1.1/"
   xmlns:cc="http://creativecommons.org/ns#"
   xmlns:rdf="http://www.w3.org/1999/02/22-rdf-syntax-ns#"
   xmlns:svg="http://www.w3.org/2000/svg"
   xmlns="http://www.w3.org/2000/svg"
   id="svg4"
   version="1.1"
   width="512"
   height="512">
  <metadata
     id="metadata10">
    <rdf:RDF>
      <cc:Work
         rdf:about="">
        <dc:format>image/svg+xml</dc:format>
        <dc:type
           rdf:resource="http://purl.org/dc/dcmitype/StillImage" />
        <dc:title></dc:title>
      </cc:Work>
    </rdf:RDF>
  </metadata>
  <defs
     id="defs8" />
  <path
     id="path856"
     d="M 255.44941,9.35461 A 246.09962,246.09962 0 0 0 9.3488313,255.45269 246.09962,246.09962 0 0 0 255.44941,501.55326 246.09962,246.09962 0 0 0 501.54749,255.45269 246.09962,246.09962 0 0 0 255.44941,9.35461 Z m -111.08693,168.49763 2.77606,0.29053 c 6.00561,0.41936 11.40919,1.42191 15.75498,6.07107 3.58395,3.85498 4.85853,8.52476 6.09095,13.47057 l 3.80402,16.31615 9.525,40.60541 5.43047,22.6852 9.63422,-46.96452 5.9668,-29.05918 c 1.227,-6.14854 2.52348,-13.23735 7.1214,-17.87303 7.92838,-7.98774 23.44684,-6.80679 30.97612,1.16207 3.82935,4.05454 5.26991,9.25307 5.21192,14.72204 -0.0581,4.64914 -1.71203,9.82209 -2.84061,14.32969 l -6.16791,23.87954 -20.59944,80.00653 c -2.9192,11.66876 -4.93446,25.01725 -18.55834,28.50548 -2.04143,0.52856 -4.26176,0.9229 -6.36655,0.94853 -4.39163,0.0528 -8.45879,0.23839 -12.73311,-0.9684 -14.95608,-4.21632 -16.27375,-20.5358 -19.45723,-33.263 l -9.34374,-38.20925 -5.8302,-23.48474 -3.33475,13.53512 -8.95638,36.61265 -5.87491,23.81498 c -2.24099,8.66593 -4.36555,15.80176 -13.2769,19.84954 -5.24918,2.37718 -9.58881,2.11983 -15.129252,2.1131 a 26.088179,26.088179 0 0 1 -7.168579,-0.9684 c -1.905242,-0.53665 -3.881555,-1.18806 -5.56701,-2.25462 -8.76168,-5.54043 -10.215752,-15.7963 -12.591573,-25.03663 L 52.457153,239.47671 45.899404,213.60824 c -1.213531,-4.83657 -3.216042,-10.46095 -3.021877,-15.52408 0.194163,-4.88783 1.846265,-9.89893 5.229314,-13.51525 6.909025,-7.40657 21.123254,-8.85427 29.381992,-3.02933 8.098285,5.71574 9.163394,18.57879 10.985038,27.69104 l 9.155023,44.97557 2.867926,14.32971 c 0.52992,2.66033 0.92249,5.94055 2.06591,8.3555 l 4.82457,-21.09107 8.84465,-38.21422 4.49432,-19.50195 c 0.9169,-3.75788 1.54356,-7.74988 3.51352,-11.1464 4.01005,-6.90903 9.97889,-8.27857 17.33421,-8.79499 z m 195.82864,0 a 41.715736,41.715736 0 0 1 9.15503,1.42032 c 8.2021,2.62931 10.88195,7.23195 15.14415,14.03176 l 7.16857,11.5462 29.11134,46.96698 9.3487,15.1218 c 1.34971,2.15065 3.13321,5.51547 4.90901,7.16859 v -70.45173 c 0,-7.13421 -0.33104,-13.22355 4.69298,-19.06739 7.38094,-8.58908 25.24847,-8.91378 33.042,-0.80202 4.49545,4.67478 5.63725,11.65103 5.64398,17.88049 v 117.81599 l -0.36003,3.97786 c -0.77531,10.96491 -4.77816,19.08202 -15.95611,22.40709 -2.07919,0.61349 -4.19774,1.05451 -6.374,1.08014 -6.44519,0.0782 -12.4705,0.40747 -18.30758,-2.9176 -4.50082,-2.56458 -7.21974,-7.13104 -9.88007,-11.41212 l -8.82727,-13.92993 -28.23728,-44.58078 -13.56246,-21.09603 v 73.6325 c -0.0647,5.54178 -2.16166,11.71438 -6.35912,15.45206 -7.65197,6.80655 -23.54418,6.62258 -31.0357,-0.38488 -4.39028,-4.1125 -5.97854,-10.82962 -5.98665,-16.66129 V 203.26384 c 0.008,-6.02451 1.3585,-12.80655 5.30381,-17.52044 4.7975,-5.72786 11.54651,-7.10983 18.57823,-7.60063 z m -62.8958,0.0844 h 0.008 1.58668 c 3.51924,0.23866 7.15487,0.80884 10.35184,2.38374 7.12881,3.51247 11.13294,10.73241 11.14644,18.55833 v 127.76561 c -0.1416,11.81709 -9.51896,20.27832 -21.09603,20.30394 -4.64918,0.005 -6.67797,0.0565 -11.14644,-1.7704 -8.81428,-3.60283 -12.32121,-12.35737 -12.33336,-21.31455 V 200.47288 c 0.10255,-9.09203 4.05371,-17.08583 12.73313,-20.75336 3.37364,-1.42007 5.36538,-1.30683 8.75029,-1.78285 z"
     style="opacity:1;fill:#000000;fill-opacity:1;stroke:none;stroke-width:7.95957041;stroke-linecap:butt;stroke-linejoin:bevel;stroke-miterlimit:4;stroke-dasharray:none;stroke-opacity:1" />
  <path
     id="path830"
     d="m 83.226966,250.12037 0.218042,0.21437 v -0.21437 z"
     style="fill:#ffffff;fill-opacity:1;stroke-width:0.73414475" />
</svg>
