<svg xmlns="http://www.w3.org/2000/svg" height="512" width="512">
    <path fill="#fff" d="M258.15 71.997c-1.03 0-2.06 0-3.089.042-9.131.303-18.226 1.768-26.777 4.445-22.277 8.241-41.297 17.373-61.195 52.966l40.444 105.848 24.076-63.702c4.124-12.014 13.649-17.58 23.277-17.131 9.58.448 19.268 6.855 23.81 18.814l76.098 202.62s13.285 32.196 19.843 38.838c15.744 18.215 38.052 25.633 56.23 24.797 10.767 0 14.933-.811 24.785-4.117 20.71-9.108 43.841-28.94 46.348-65.38V149.312c-.769-31.458-6.637-49.666-27.219-64.587-13.285-8.81-29.89-13.558-46.366-12.547a66.61 66.61 0 00-24.022 5.959 78.672 78.672 0 00-21.418 15.35 85.345 85.345 0 00-13.842 18.227h-.006a82.293 82.293 0 00-7.327 17.246 82.758 82.758 0 00-1.211 4.602l38.052 107.507v.006l29.386-82.547 1.224-3.421V358.53l-80.234-223.32c-13.165-32.251-33.05-45.47-40.535-50.478-13.122-7.757-29.43-12.105-45.985-12.686-.423-.012-.853.006-1.265 0-1.03-.018-2.059-.036-3.088-.042zm-177.102.381c-10.688 0-14.896.818-23.919 4.106C36.395 85.59 12.44 105.464 10 142.65v219.992c.769 32.239 6.534 49.612 27.25 65.301 14.629 8.787 32.11 13.4 49.296 11.566a67.021 67.021 0 0013.231-2.743c.303-.09.594-.2.884-.297.575-.188 1.15-.375 1.72-.581.533-.194 1.06-.406 1.586-.612l1.006-.387a62.905 62.905 0 002.555-1.12 82.16 82.16 0 0021.636-15.32 85.278 85.278 0 006.158-6.716 79.907 79.907 0 009.992-15.32 72.138 72.138 0 003.572-8.43v-.005a67.154 67.154 0 002.459-8.829l-37.998-107.532-27.818 80.55-1.908 5.522V153.417l79.368 224.086c13.201 32.275 33.002 44.707 40.45 49.612 15.175 9.555 34.498 13.636 53.615 12.777a109.863 109.863 0 0020.17-2.713 94.827 94.827 0 006.48-1.768 302.112 302.112 0 008.223-3.161c2.694-1.09 5.346-2.229 7.956-3.476a93.668 93.668 0 003.894-1.962 87.032 87.032 0 007.654-4.548 81.22 81.22 0 0011.239-9.034 99.272 99.272 0 005.37-5.602l.183-.2a109.42 109.42 0 003.687-4.432c.606-.781 1.223-1.574 1.835-2.398a133.412 133.412 0 007.388-10.966 184.051 184.051 0 003.712-6.37l-40.493-106.666-23.192 63.745c-.17.46-.363.884-.545 1.32-.14.315-.266.648-.406.95a31.143 31.143 0 01-1.071 2.108c-4.524 8.096-11.736 12.232-19.256 12.668a23.798 23.798 0 01-1.878.03h-.006a23.083 23.083 0 01-1.889-.12c-9.144-.97-18.148-7.25-22.883-18.64l-76.098-201.77s-13.17-32.306-19.844-38.876c-14.896-19.014-38.052-25.633-56.23-25.633z"/>
</svg>
