<svg version="1.1" viewBox="0 0 512 512" xmlns="http://www.w3.org/2000/svg">
 <g transform="matrix(5.3454 0 0 5.3454 -11.613 -14.736)" fill="#ffffff">
  <path d="m71.884 22.325c-1.3489-0.9181-3.0378-1.4116-4.7122-1.306-0.8313 0.0515-1.6589 0.2492-2.4409 0.6199-2.0984 1.0335-3.8714 3.189-4.4516 5.774l3.8667 11.198 2.9861-8.5985 0.1237-0.3572v21.189l-8.1536-23.261c-1.3381-3.3597-3.3585-4.7357-4.1201-5.2586-1.3345-0.8077-2.9898-1.2594-4.6738-1.3208h-0.1286c-0.209-0.0049-0.4168-0.0073-0.6258 0-0.9285 0.032-1.8522 0.1842-2.7219 0.4628-2.263 0.858-4.1969 1.8093-6.2185 5.5163l4.1104 11.025 2.4469-6.6346c0.4192-1.252 1.3873-1.8314 2.3651-1.7847 0.9742 0.0466 1.958 0.7144 2.4204 1.959l7.7345 21.104s1.3501 3.3535 2.0168 4.0458c1.5999 1.8965 3.8666 2.6685 5.714 2.5814 1.0943 0 1.5171-0.0835 2.5189-0.4284 2.1045-0.9488 4.4552-3.0135 4.7099-6.8101v-22.991c-0.0781-3.2761-0.6739-5.1726-2.7664-6.7266z"/>
  <path d="m52.208 48.944c-0.4817 1.3085-1.5207 1.8768-2.5466 1.7664-0.9273-0.1007-1.8438-0.7549-2.3255-1.9407l-7.7332-21.016s-1.3381-3.3645-2.0168-4.0482c-1.5135-1.9812-3.8666-2.671-5.7153-2.671-1.0858 0-1.5135 0.0859-2.4312 0.4284-2.1057 0.9488-4.5417 3.0184-4.7891 6.8911v22.914c0.0781 3.3584 0.6643 5.1677 2.7687 6.8015 1.4871 0.9157 3.2637 1.3968 5.0102 1.2053 0.7231-0.0785 1.4414-0.27 2.1321-0.5977 2.0997-1.036 3.9507-3.1891 4.4528-5.6894l-3.8594-11.2-2.8276 8.3886-0.1946 0.5757v-21.276l8.0648 23.341c1.3417 3.3621 3.3537 4.6559 4.1116 5.1678 1.5424 0.9954 3.5063 1.4202 5.4498 1.3305 0.9226-0.0417 1.8415-0.189 2.7075-0.4664 2.2667-0.8654 4.197-1.7209 6.2138-5.4316l-4.1141-11.111-2.3579 6.6395z"/>
  <path d="m7.2251 73.042h4.8546v-2.914h-4.8546v-2.5191h4.9618l0.3763-2.815h-8.5632v14.04h8.5937v-2.9343h-5.3686z"/>
  <path d="m20.41 68.259c-1.4847 0-2.7489 0.6653-3.3359 1.7446-0.3021-0.9752-1.1753-1.6456-2.1643-1.6456h-0.7941v10.537h3.2056v-4.9303c0-1.0729 0.2558-2.8721 1.967-2.8721 1.0182 0 1.414 0.6158 1.414 2.1953v5.6071h3.225v-6.8603c0-2.3642-1.3141-3.7761-3.5161-3.7761z"/>
  <path d="m31.691 75.878c-0.2607 0.0939-0.7454 0.2679-1.1985 0.2679-0.7368 0-1.1095-0.4508-1.1095-1.3396v-3.6288h1.9158l0.3958-2.7146h-2.3116v-3.0524l-2.6855 0.3504-0.38 2.702h-1.4153v2.7146h1.2569v4.1266c0 0.711 0.1291 1.7255 0.7418 2.5267 0.5943 0.7758 1.5017 1.1694 2.6977 1.1694s2.2653-0.4063 2.6477-0.5815l0.0378-0.0165-0.4555-2.5712-0.1352 0.0483z"/>
  <path d="m37.663 68.259c-3.0607 0-5.0386 2.0607-5.0386 5.249 0 3.5387 1.8026 5.4877 5.0776 5.4877 2.0972 0 3.7938-1.1732 4.4271-3.0613l0.0171-0.052-2.9364-0.9892-0.0159 0.0521c-0.2082 0.711-0.7734 1.1364-1.5114 1.1364-1.3872 0-1.7088-1.0285-1.7709-1.6836h6.293l0.0414-0.7466c0.0975-1.5529-0.341-2.9559-1.2325-3.9514-0.8318-0.9294-2.0218-1.4411-3.3493-1.4411zm-1.6138 3.9602c0.1182-0.6196 0.5737-1.3256 1.5005-1.3649 0.3885-0.0102 0.7174 0.1079 0.9488 0.339 0.235 0.2362 0.369 0.5904 0.3873 1.0272h-2.8366z"/>
  <path d="m48.73 68.19c-1.2776-0.0063-2.2934 0.6235-2.7611 2.0646-0.3921-1.2113-1.3397-1.8868-2.5747-1.8868h0.0195v10.537h3.2056v-4.8503c0-1.2418 0.2886-2.9724 1.9316-3.1654 0.6443-0.0762 1.2192-0.0216 1.7514 0.2679l0.0609 0.0266v-2.6359c-0.3191-0.1752-1.1144-0.3568-1.632-0.3593z"/>
  <path d="m58.586 75.878c-0.2606 0.0939-0.7454 0.2679-1.1984 0.2679-0.7369 0-1.1096-0.4508-1.1096-1.3396v-3.6288h1.9158l0.3959-2.7146h-2.3117v-3.0524l-2.6855 0.3504-0.38 2.702h-1.5528v2.7146h1.3933v4.1266c0 0.711 0.1291 1.7255 0.7417 2.5267 0.5943 0.7758 1.5017 1.1694 2.6977 1.1694s2.2653-0.4063 2.6478-0.5815l0.0377-0.0165-0.4555-2.5712-0.1352 0.0483z"/>
  <path d="m70.016 76.427s-0.2765 0.1511-0.6565 0.113c-0.3715-0.0407-0.4494-0.3175-0.4494-0.5435v-3.5234c0-2.8163-1.386-4.1952-4.2396-4.2142-1.2825 0-2.4285 0.2146-3.957 0.739l-0.0439 0.0152 0.5176 2.5382 0.0573-0.0242c0.0134-5e-3 1.3056-0.5536 2.9888-0.5726 0.9621 0 1.4712 0.4215 1.4712 1.2202v0.3187c-0.475-0.0445-1.112-0.094-1.5662-0.094-1.5699 0-2.7111 0.3721-3.3944 1.1047-0.5213 0.5599-0.7734 1.3319-0.749 2.2944 0.0536 2.0023 1.3324 3.1971 3.4211 3.1971 0.7332 0 1.7879-0.2336 2.6515-1.3459 0.3873 0.8812 1.1204 1.3459 2.1265 1.3459 1.006 0 1.6235-0.2781 1.8658-0.3822l0.0317-0.014v-2.2143zm-4.3298-2.2525v1.7547c-0.2167 0.1613-0.766 0.452-1.4335 0.4914-0.3446 0-0.6077-0.0952-0.7831-0.2831-0.1632-0.1753-0.2411-0.4228-0.2314-0.7365 0.0171-0.6628 0.4726-1.1008 1.2496-1.2024h0.0012c0.1937-0.0317 0.4117-0.047 0.6528-0.047 0.1705 0 0.352 0.0076 0.5444 0.0229z"/>
  <path d="m72.513 68.352h-2.1679v2.8149h1.2752v7.7224h3.2251v-8.0995c0-1.3446-1.0462-2.4378-2.3324-2.4378z"/>
  <path d="m72.815 67.302c0.9182 0 1.6625-0.768 1.6625-1.7154s-0.7443-1.7154-1.6625-1.7154c-0.9181 0-1.6625 0.768-1.6625 1.7154s0.7444 1.7154 1.6625 1.7154z"/>
  <path d="m82.65 68.259c-1.4847 0-2.7489 0.6653-3.3359 1.7446-0.3033-0.9752-1.1753-1.6456-2.1655-1.6456h-0.7941v10.537h3.2056v-4.9303c0-1.0729 0.2557-2.8721 1.9669-2.8721 1.0182 0 1.414 0.6158 1.414 2.1953v5.6071h3.2251v-6.8603c0-2.3642-1.3141-3.7761-3.5161-3.7761z"/>
  <path d="m92.191 72.114c-0.805-0.1612-1.4408-0.2869-1.4822-0.6602-0.0109-0.1384 0.0292-0.2603 0.1182-0.3631 0.1766-0.2007 0.5383-0.3162 0.9913-0.3162h0.05c1.431 0 2.6892 0.8202 2.7013 0.8278l0.0488 0.0318 1.1131-2.3477-0.0426-0.0254c-0.017-0.0102-1.71-1.0018-3.7378-1.0018-2.6843 0-4.1897 1.0843-4.3529 3.1349-0.1936 2.5737 1.9512 3.0753 3.5162 3.4422 0.939 0.2197 1.6795 0.3923 1.6795 0.9015 0 0.4571-0.3325 0.6425-1.1485 0.6425-1.8817 0-3.2287-1.111-3.2421-1.1224l-0.0487-0.0407-1.1717 2.3884 0.0573 0.0444c1.4444 1.1135 3.141 1.3472 4.3102 1.3472 2.7026 0 4.4491-1.318 4.4491-3.3584 0-2.7642-2.202-3.2035-3.8097-3.5248z"/>
 </g>
</svg>
