<svg xmlns="http://www.w3.org/2000/svg" height="512" width="512">
    <path fill="#fff" d="M255.634 11.138c-134.732 0-243.953 109.585-243.953 244.764 0 135.18 109.221 244.764 243.953 244.765 134.731 0 243.952-109.585 243.952-244.765 0-135.179-109.22-244.763-243.952-244.764zm2.653 87.544c11.591-.168 22.934.755 33.73 3.087 11.173 2.413 21.812 6.551 31.875 11.854 1.958.141 3.9.335 5.836.561 4.277-9.135 13.354-15.067 23.43-15.082 14.365-.001 26.01 11.85 26.011 26.471-.002 1.64-.196 3.246-.488 4.829 16.985 9.631 33.439 23.455 49.889 41.86 3.475 3.722-2.265 8.846-5.572 4.973-15.654-17.514-30.962-30.618-46.619-39.794a26.332 26.332 0 01-7.983 9.552c8.003 7.843 15.33 16.017 21.87 24.028 22.494 12.847 37.077 25.984 37.077 25.984 2.39 2.075-.798 5.626-3.118 3.474 0 0-9.82-8.722-25.61-18.803 18.61 24.735 29.148 45.475 29.148 45.475 1.419 2.66-2.639 4.724-3.953 2.01 0 0-13.104-25.738-35.86-53.932-25.522-14.531-61.373-28.728-97.145-22.181-19.611 3.59-36.557 9.129-51.927 15.743 6.446 3.038 10.929 9.661 10.929 17.367 0 10.577-8.425 19.15-18.817 19.15-10.39-.002-18.811-8.575-18.812-19.15 0-1.555.204-3.057.548-4.505-9.565 5.234-18.697 10.726-27.74 16.2-25.91 15.684-51.175 31.185-83.823 39.32-1.658 1.838-4.017 3.01-6.661 3.009a8.884 8.884 0 01-3.593-.762c-1.924.368-3.85.734-5.827 1.049-3.125.565-3.884-4.17-.739-4.61.775-.123 1.518-.278 2.285-.41-.738-1.335-1.195-2.854-1.195-4.495 0-5.098 4.06-9.23 9.069-9.228 5.008-.001 9.068 4.13 9.068 9.228 0 .268-.055.521-.077.784 30.217-8.149 54.096-22.758 79.077-37.88 10.75-6.506 21.719-13.09 33.452-19.258 3.436-4.602 8.852-7.59 14.968-7.591.136 0 .267.02.402.023 17.122-7.833 36.146-14.47 58.574-18.575 8.714-1.594 17.393-2.033 25.915-1.577 23.306 1.245 45.359 9.185 63.649 18.378-4.717-5.355-9.728-10.694-15.065-15.866a25.634 25.634 0 01-11.307 2.658c-14.364-.002-26.007-11.855-26.006-26.476.007-1.433.145-2.86.378-4.272-12.425-1.246-25.401-.656-39.21 1.641-51.777 8.612-115.244 41.794-201.733 91.89-4.323 2.541-8.1-3.983-3.744-6.466 86.618-50.17 150.406-83.836 204.25-92.792 6.73-1.12 13.305-1.836 19.742-2.143 2.037-.097 4.054-.136 6.064-.15-7.04-3.092-14.315-5.56-21.816-7.181-30.693-6.63-66.725-1.37-99.95 7.96a15.43 15.43 0 014.372 10.765c.001 8.444-6.723 15.29-15.019 15.292-8.297 0-15.024-6.846-15.023-15.292.005-.916.09-1.83.256-2.73a472.645 472.645 0 00-8.608 3.104c-40.926 15.25-71.29 32.768-71.29 32.768-2.6 1.636-4.933-2.406-2.216-3.839 0 0 30.66-17.696 71.955-33.082a484.279 484.279 0 0112.238-4.373c2.747-4.436 7.537-7.129 12.688-7.135 2.052.002 4.082.432 5.964 1.263 23.236-6.787 48.035-11.774 71.837-12.12zm55.679 106.206c10.391-.002 18.816 8.572 18.816 19.15 0 10.576-8.425 19.15-18.816 19.148-10.39 0-18.812-8.574-18.812-19.149 0-10.575 8.422-19.148 18.812-19.15zm54.872 29.23c5.47.145 11.86 1.342 16.208 3.164 9.09 3.815 16.498 11.426 20.467 21.046.955 2.311 2.772 7.987 2.772 8.658 0 .353-.647.46-2.73.46h-2.727l-1.108-3.2c-2.79-8.033-6.779-13.874-12.21-17.868-6.107-4.497-14.541-6.62-22.706-5.713-4.596.51-6.776 1.118-10.582 2.968-9.904 4.814-15.52 15.158-18.242 33.57-.919 6.22-.824 22.147.173 28.524 3.24 20.725 10.526 31.287 24.024 34.82 2.526.661 3.765.78 8.261.761 4.425-.011 5.772-.139 8.266-.78 5.913-1.526 10.797-4.367 14.818-8.621 4.26-4.513 7.381-10.445 9.15-17.421l.356-1.423h2.795c1.785 0 2.795.131 2.795.365 0 .97-1.517 6.116-2.667 9.06-3.553 9.089-9.44 16.024-17.203 20.28-7.23 3.957-14.44 5.384-23.959 4.732-8.793-.605-16.121-3.067-23.175-7.783-9.7-6.487-16.82-16.44-20.298-28.373-2.647-9.083-3.504-19.108-2.426-28.359 1.408-12.066 4.552-20.704 10.6-29.12 1.854-2.575 6.18-7.223 8.39-9.014 7.194-5.82 16.032-9.371 26.28-10.56a28.783 28.783 0 012.398-.169 39.458 39.458 0 012.28-.005zm-218.886 1.245c1.226.2 1.674 1.826 5.49 11.594a5502.728 5502.728 0 006.488 16.528c1.481 3.745 2.958 7.49 4.432 11.238a7878.905 7878.905 0 006.446 16.36c2.66 6.745 5.24 13.343 5.75 14.708 1.57 4.085 3.164 8.164 4.778 12.233a7041.822 7041.822 0 017.336 18.675 532.467 532.467 0 003.634 9.169c.081.138-3.317.255-7.55.255h-7.701l-6.994-17.608-6.99-17.6-21.451-.082-21.452-.082-7.072 17.686-7.076 17.681h-3.073c-1.883 0-3.077-.13-3.077-.333 0-.18.436-1.403.975-2.726 3.36-8.397 6.71-16.795 10.049-25.2l20.709-51.899 11.936-29.832h-.005c.275-.682.5-.738 2.781-.738.734 0 1.228-.095 1.637-.028zm66.622.355l22.573.014c23.667.019 27.485.173 31.998 1.322 9.155 2.33 15.502 6.942 19.094 13.87 3.803 7.338 3.415 16.685-.971 23.467-3.282 5.068-9.07 9.274-16.806 12.196-1.85.698-3.402 1.324-3.483 1.404-.084.082 1.8.728 4.18 1.432 6.249 1.841 10.248 3.604 14.35 6.329 7.99 5.307 12.097 13.973 11.037 23.293-1.33 11.748-9.09 19.73-23.635 24.31-7.863 2.48-8.167 2.499-34.642 2.672l-23.695.155V290.95zm29.626 6c-4.44-.005-8.669.09-9.697.292-1.853.36-2.567.783-3.57 2.107l-.83 1.09v41.152l13.473-.214c9.982-.159 13.976-.339 15.42-.698 5.257-1.3 9.588-4.699 11.744-9.205 2.006-4.188 2.503-6.935 2.503-13.91 0-4.795-.12-6.335-.61-7.934-.953-3.108-2.479-5.656-4.514-7.532-3.166-2.925-6.348-4.11-12.958-4.833-1.868-.204-6.52-.31-10.96-.315zm-102.284 15.42c-.144-.147-.869 1.251-1.623 3.137-12.006 29.98-17.628 44.315-17.449 44.495.3.296 37.262.425 37.537.132.135-.15-2.056-6.149-4.865-13.323-2.805-7.174-6.958-17.815-9.219-23.617-2.266-5.818-4.231-10.677-4.381-10.824zm88.187 34.77v44.526l.748 1.108a7.066 7.066 0 001.9 1.787c1.114.653 1.619.68 14.376.662 12.659-.014 13.339-.049 15.872-.753 8.856-2.466 13.302-7.118 15.086-15.789.559-2.706.648-4.098.511-8.065-.192-5.521-.639-7.53-2.603-11.572-1.056-2.182-1.924-3.364-3.876-5.289-3.835-3.79-7.998-5.622-14.248-6.278v-.009c-1.727-.179-8.676-.328-15.451-.328zM124.42 356.91c4.65 0 8.715.85 12.192 2.549l-2.184 4.427c-3.356-1.577-6.711-2.366-10.067-2.366-4.872 0-8.723 1.628-11.554 4.883-2.81 3.234-4.212 7.673-4.212 13.313 0 5.802 1.353 10.29 4.062 13.464 2.729 3.154 6.61 4.728 11.644 4.728 3.094 0 6.62-.557 10.583-1.669v4.519c-3.073 1.152-6.863 1.728-11.371 1.728-6.53 0-11.575-1.979-15.133-5.941-3.537-3.962-5.307-9.595-5.307-16.893 0-4.568.85-8.568 2.549-12.004 1.718-3.437 4.185-6.088 7.4-7.947 3.234-1.86 7.031-2.79 11.398-2.79zm186.692 4.035h2.913v7.701h9.643v3.912h-9.643v19.56c0 2.001.473 3.538 1.423 4.61.95 1.07 2.254 1.604 3.912 1.604.89 0 1.747-.061 2.576-.182.829-.142 1.489-.283 1.974-.424v3.852c-.546.263-1.354.477-2.426.639a16.878 16.878 0 01-2.854.269c-6.428 0-9.638-3.386-9.638-10.159v-19.769h-4.765v-2.425l4.765-2.093zm-141.025 7.095c4.65 0 8.336 1.548 11.065 4.641 2.75 3.093 4.126 7.276 4.126 12.552 0 5.418-1.365 9.654-4.094 12.707-2.73 3.032-6.5 4.546-11.312 4.546-2.971 0-5.61-.694-7.915-2.089-2.304-1.394-4.08-3.396-5.334-6.004-1.254-2.608-1.879-5.663-1.879-9.16 0-5.418 1.354-9.63 4.063-12.643 2.709-3.032 6.468-4.55 11.28-4.55zm103.365 0c4.002 0 7.015.972 9.036 2.913 2.022 1.92 3.032 5.001 3.032 9.247v21.68h-5.033v-21.498c0-2.709-.614-4.73-1.847-6.064-1.233-1.334-3.167-2.002-5.795-2.002-3.477 0-6.024.938-7.641 2.818-1.618 1.88-2.426 4.984-2.426 9.31v17.435h-5.033v-33.233h4.094l.82 4.55h.242c1.031-1.637 2.476-2.904 4.336-3.793 1.86-.91 3.93-1.363 6.215-1.363zm85.082 0c1.475 0 2.803.122 3.975.364l-.697 4.67c-1.375-.304-2.587-.457-3.638-.457-2.69 0-4.997 1.095-6.917 3.278-1.9 2.184-2.85 4.902-2.85 8.157v17.827h-5.033v-33.233h4.153l.575 6.155h.246c1.233-2.163 2.716-3.829 4.455-5.001 1.738-1.173 3.648-1.76 5.73-1.76zm-152.032.606h5.093v21.561c0 2.71.618 4.73 1.851 6.064 1.233 1.334 3.162 2.002 5.79 2.002 3.477 0 6.017-.95 7.614-2.85 1.618-1.9 2.426-5.004 2.426-9.31v-17.467h5.034v33.233h-4.154l-.73-4.454h-.273c-1.031 1.637-2.464 2.887-4.304 3.757-1.82.869-3.901 1.304-6.246 1.304-4.044 0-7.08-.957-9.1-2.877-2.002-1.92-3-4.994-3-9.22zm169.74 0h5.399l7.276 18.953c1.597 4.326 2.589 7.45 2.973 9.37h.242c.262-1.031.808-2.789 1.636-5.275.85-2.507 3.599-10.19 8.248-23.048h5.399L393.13 406.49c-1.415 3.74-3.07 6.39-4.97 7.947-1.88 1.577-4.194 2.366-6.944 2.366-1.536 0-3.054-.172-4.55-.515v-4.035c1.112.242 2.355.365 3.73.365 3.457 0 5.924-1.941 7.4-5.823l1.85-4.732zm-206.306 3.67c-3.295 0-5.781 1.084-7.459 3.247s-2.521 5.384-2.521 9.67c0 4.245.85 7.479 2.548 9.702 1.698 2.224 4.196 3.338 7.491 3.338s5.793-1.102 7.491-3.306c1.719-2.223 2.576-5.469 2.576-9.734 0-4.225-.857-7.428-2.576-9.611-1.698-2.204-4.214-3.306-7.55-3.306z"/>
</svg>
