<svg xmlns="http://www.w3.org/2000/svg" height="512" width="512">
    <path fill="#fff" d="M23.246 302.065h166.307V389.2H23.246zm360.254.001v87.135h109.615v-87.135zm34.267 17.368h11.941l9.818 36.869 9.816-36.87h11.133l-15.484 50.872H432.34zm-172.983-17.368v87.135H372.21v-87.135zm43.243 16.673h41.97v9.018h-14.569v47.172h-12.601v-47.172h-14.8z"/>
    <path fill="#fff" d="M301.529 169.706h31.045v109.737h-31.045zm0-46.784h31.045v24.146h-31.045zm-71.647 62.814v-14.994h-28.417V388.48h29.785V269.11c7.107 7.472 13.444 14.609 27.966 13.254 23.458-2.188 28.575-21.933 27.592-57.529-.71-25.702 1.154-53.87-30.436-55.642-10.931-.432-21.26 5.71-26.49 16.543zm14.505 2.324c10.27.306 12.012 7.444 12.478 17.19v39.148c-.6 10.248-3.463 19.471-12.478 19.743-8.27.01-11.444-8.766-12.035-19.2l-.443-11.98v-14.2s.059-14.962.7-18.631c1.63-8.602 4.865-12.07 11.778-12.07zm161.781-20.408c-16.258 0-24.997 10.251-28.776 16.376v-14.323h-28.727v109.738h30.548v-71.208c3.598-8.107 9.2-14.442 26.955-13.444zm46.34 0c-44.232 0-44.8 32.778-44.8 61.461 0 26.644 8.453 55.803 47.839 52.654 31.655-2.53 39.032-20.564 40.71-39.154h-30.899c.226 12.682-4.483 19.962-13.876 19.602-7.181-.276-14.872-6.27-13.81-33.102h59.069c0-28.182 0-61.46-44.233-61.46zm-.102 18.826c16.356.019 14.062 26.12 14.062 26.12h-28.122s-2.296-26.139 14.06-26.12zm-290.764 14.643h29.338c1.813-29.173-22.864-33.264-39.062-33.23-23.468.048-41.11 12.145-41.864 29.502-.272 6.238 1.743 13.29 6.333 18.39 12.36 13.74 39.613 17.954 45.915 28.693 3.569 6.081 3.057 17.517-9.56 17.984-6.397.237-14.405-1.667-13.498-17.984h-28.86c-1.814 34.695 22.224 36.893 41.864 37.14 29.002.366 42.343-17.412 41.287-36.893-.837-15.44-15.04-23.3-30.476-30.563-7.139-3.36-16.229-5.827-22.02-13.039-2.85-3.55-.893-15.834 8.242-16.584 14.906-1.223 12.032 13.452 12.361 16.584zM61.445 167.533a99.782 99.782 0 00-4.064.047c-42.074 1.332-39.61 33.66-39.61 33.66H47.52s-1.97-17.399 13.26-16.66c9.942.481 11.415 7.687 11.51 17.17.039 3.774-.291 7.65-.291 7.65s-26.1-.668-37.228 4.42c-13.907 6.358-19.937 19.763-19.72 32.977.44 26.676 17.764 34.623 30.6 34.85 17.179.306 28.558-17.679 28.558-17.679v14.96h29.07c-1.83-5.91-1.912-59.802-1.887-78.198.497-29.153-24.69-32.701-39.947-33.197zm5.903 58.991a30.14 30.14 0 014.736.384l-.594 20.144c-1.615 9.18-6.463 15.248-14.026 15.642-13.094.682-15.233-19.897-9.69-28.815 3.968-6.382 13.81-7.365 19.574-7.355z"/>
</svg>
