<svg xmlns="http://www.w3.org/2000/svg" height="512" width="512">
    <path fill="#fff" class="st0" d="M214.208 214.54v82.502h50.836c1.64 0 2.84-.551 3.673-1.457l10.508-10.467c1.396-1.383 2.299-2.695 2.299-4.248v-14.448c0-1.245-.736-2.253-1.642-3.284l-7.224-7.224 6.567-6.567c1.572-1.538 2.334-2.988 2.299-4.372v-12.703c0-2.592-.527-3.716-1.663-4.947l-9.83-9.769c-1.93-1.683-3.232-3.017-5.91-3.017zm14.449 14.776h30.21c2.1 0 2.812.726 3.776 1.724l2.791 2.77c.75.751 1.313 1.67 1.313 2.484v3.571c0 .985-.384 1.622-.985 2.34l-4.925 4.884c-.869.82-1.498 1.683-3.283 1.683h-28.897v-19.456zm0 33.822h28.896c1.786 0 2.415.863 3.284 1.683l4.925 4.884c.6.718.985 1.355.985 2.34v3.57c0 .814-.564 1.734-1.314 2.484l-2.79 2.77c-.965 1-1.676 1.725-3.777 1.725h-30.21v-19.456zm81.435-48.598c-2.679 0-3.98 1.333-5.91 3.016l-9.83 9.77c-1.136 1.23-1.663 2.354-1.663 4.946v48.598c0 1.553.902 2.865 2.298 4.248l10.508 10.467c.834.906 2.034 1.457 3.674 1.457h34.356c1.64 0 2.84-.551 3.673-1.457l10.508-10.467c1.396-1.383 2.299-2.695 2.299-4.248v-48.598c0-2.592-.527-3.717-1.662-4.947l-9.831-9.769c-1.93-1.683-3.232-3.017-5.91-3.017zm4.926 14.776h22.657c2.101 0 2.812.726 3.776 1.724l2.792 2.77c.75.751 1.313 1.67 1.313 2.484v39.322c0 .814-.564 1.733-1.313 2.484l-2.792 2.77c-.964.999-1.675 1.724-3.776 1.724h-22.657c-2.102 0-2.812-.725-3.777-1.724l-2.79-2.77c-.75-.75-1.314-1.67-1.314-2.484v-39.322c0-.813.563-1.733 1.313-2.483l2.791-2.77c.965-1 1.675-1.725 3.777-1.725zm185.484-1.991l-9.831-9.769c-1.93-1.683-3.232-3.017-5.91-3.017h-49.912v82.503h50.835c1.64 0 2.84-.552 3.674-1.457l10.508-10.467c1.396-1.384 2.298-2.696 2.298-4.248v-48.6c0-2.59-.527-3.716-1.662-4.946zm-13.114 48.291c0 .814-.564 1.733-1.314 2.484l-2.791 2.77c-.964.999-1.675 1.724-3.776 1.724h-30.21v-53.278h30.21c2.101 0 2.812.726 3.776 1.724l2.791 2.77c.75.751 1.314 1.67 1.314 2.484zm-101.63-61.076h-14.613v82.502h52.614v-14.449h-38.166z"/>
    <path fill="#fff" d="M17.284 219.288c-3.695 8.608-5.298 14.422-7.053 25.592-.525 3.34-.421 18.897.153 22.985 4.15 22.518 12.908 39.354 26.52 52.964 25.132 20.73 49.792 30.529 80.995 25.1 33.479-6.142 60.91-30.56 70.985-63.19 1.112-3.602 1.846-6.697 2.78-11.719.851-4.57.887-5.183.887-15.066 0-9.882-.036-10.494-.885-15.065-3.075-16.547-8.827-29.397-18.836-42.075-15.182-18.554-40.497-31.778-59.632-33.624-42.133-4.066-78.87 15.925-95.914 54.098zm15.5 8.39c1.587.317 3.55 2.459 4.23 4.615.471 1.497 1.76 7.694 6.08 29.23.77 3.831 1.117 4.523 1.412 2.801.12-.702.418-2.092.655-3.058.238-.97.813-3.444 1.272-5.473.458-2.028 1.04-4.502 1.287-5.472.247-.97.757-3.155 1.127-4.829s.902-4.005 1.175-5.15c.277-1.16.685-2.955.917-4.025.703-3.251 1.468-5.7 2.033-6.502.3-.428 1.219-1.125 2.056-1.562 1.272-.663 1.964-.788 4.346-.788 1.545 0 3.389.157 4.056.346 1.384.392 3.254 1.927 3.932 3.227.456.874 1.834 6.342 4.291 17.03.345 1.5 1.088 4.7 1.645 7.082 1.302 5.569 1.845 7.956 2.11 9.27.313 1.56.995.773 1.226-1.416.104-.978.411-2.736.687-3.927.273-1.18.783-3.541 1.126-5.215.346-1.682.93-4.507 1.3-6.277 1.385-6.632 1.684-8.114 2.111-10.463.591-3.251 1.616-6.436 2.35-7.307.33-.392 1.145-1.076 1.82-1.53 1.034-.693 1.578-.82 3.51-.82 4.152 0 6.658 1.817 7.637 5.537.45 1.704.333 2.35-2.13 11.846a11735.07 11735.07 0 00-6.395 24.788c-4.056 15.806-3.941 15.446-5.513 17.32-1.774 2.112-7.506 3.045-10.661 1.733-3.376-1.403-4.661-3.633-6.251-10.844-.157-.711-.659-2.8-1.121-4.668a211.079 211.079 0 01-1.304-5.585c-.259-1.223-.56-2.356-.676-2.543-.116-.189-.387-1.208-.612-2.302a136.358 136.358 0 00-.954-4.217c-1.442-5.891-1.822-6.66-2.259-4.571-.118.567-.93 3.991-1.809 7.629-5.73 23.725-5.75 23.794-7.548 25.48-1.651 1.547-3.542 2.177-6.568 2.188-3.026.011-5.275-.756-6.653-2.269-.907-.994-2.276-3.991-2.648-5.794-.16-.78-.683-2.865-1.161-4.636a213.123 213.123 0 01-1.288-4.99c-.23-.973-.81-3.219-1.287-4.99a205.063 205.063 0 01-1.286-4.989c-.597-2.543-1.436-5.767-1.843-7.082a49.876 49.876 0 01-.75-2.897c-.222-.974-.873-3.51-1.45-5.634-.574-2.125-1.11-4.225-1.19-4.668-.08-.44-.424-1.738-.762-2.865-1.89-6.31.948-10.957 6.701-10.972 1.095-.003 2.434.089 3.026.207zm81.123.745c1.452 1.015 2.131 1.842 2.885 3.516.6 1.333.624 2.318.624 26.301 0 22.373-.055 25.058-.54 26.3-.698 1.788-1.843 3.004-3.742 3.975-3.058 1.563-7.754.663-9.652-1.85-1.875-2.481-1.873-2.446-1.775-29.133.1-27.524-.034-26.061 2.607-28.315 1.737-1.482 2.736-1.762 5.89-1.651 2.125.075 2.811.233 3.703.857zm22.985-.187c2.111 1.011 2.42 1.386 6.27 7.599a875.003 875.003 0 004.015 6.438c.398.618 2.649 4.25 4.99 8.048 2.34 3.799 4.687 7.546 5.199 8.305.52.773.933 1.442.933 1.513 0 .322 2.317 3.736 2.447 3.606.07-.07.165-7.082.21-15.549.073-14.068.13-15.533.657-16.707 1.29-2.875 3.286-4.024 6.988-4.024 2.8 0 4.583.665 5.862 2.189 1.734 2.065 1.703 1.545 1.703 28.071 0 22.727-.044 24.751-.57 26.236-.675 1.91-2.392 3.706-4.42 4.625-1.996.904-6.421.934-8.402.057-2.277-1.008-2.306-1.044-7.65-9.35a242.449 242.449 0 01-1.835-2.897 752.837 752.837 0 00-6.094-9.657 1417.433 1417.433 0 01-5.153-8.113c-1.745-2.768-3.303-4.981-3.444-4.893-.141.089-.258 6.793-.258 14.873 0 9.271-.127 15.164-.343 15.935-.45 1.597-1.942 3.245-3.713 4.098-1.204.58-1.867.679-3.927.583-3.155-.147-4.945-1.205-6.176-3.651l-.81-1.61-.08-24.836c-.08-24.337-.068-24.87.578-26.574 1.43-3.772 3.59-5.06 8.516-5.077 2.382-.008 3.183.128 4.507.762"/>
</svg>
