<svg xmlns="http://www.w3.org/2000/svg" height="512" width="512">
    <path fill="#fff" d="M31.647 134.552c-11.957 0-21.647 9.036-21.647 20.18 0 11.145 9.69 20.18 21.647 20.18 11.962 0 21.652-9.035 21.652-20.18 0-11.144-9.69-20.18-21.652-20.18zm106.644 16.65v88.002c-3.368-27.032-48.492-25.119-48.133-33.213 0 0-.667-11.428 32.758 3.501l10.507-19.342c-27.59-22.443-74.269-17.684-76.09 16.817-4.835 30.9 34.68 28.382 40.569 37.838 0 0 4.834 11.14-33.842-2.104l-10.09 23.122c53.867 19.01 75.685 6.869 84.32-19.826v29.224h37.84v-59.385c6.101-8.649 14.178-15.013 22.26 2.32v57.065h40.36v-38.068c5.685 23.252 27.857 39.752 53.438 39.777 23.923-.029 45.066-14.5 52.255-35.767v41.552h-14.27v27.349h14.27v50.533c0 5.468 5.573 21.797 56.415 15.38V350.54c-12.208 1.333-14.437-4.693-14.2-11.545v-28.932h12.187l26.46 67.183h40.427L502 284.795h-39.535l-19.026 48.158-15.754-49.942s-29.757.396-41.027.2v-12.27c6.602 2.242 15.675 4.155 26.161 3.151 0 0 41.323-2.676 43.403-47.566-.596-12.783-.596-39.835-29.729-47.562-4.905-.892-9.685-1.742-15.124-1.797-8.21-.083-17.934 1.655-31.846 7.781v-5.688h-35.08v31.016c-7.239-21.214-28.374-35.63-52.255-35.634-25.606.029-47.783 16.566-53.438 39.843v-10.52c-.192-23.13-15.012-26.723-28.928-27.073-9.411.03-20.364 2.58-33.692 12.453v-38.143zM10.208 176.826v98.4h40.36l.313-98.4zm283.318 29.77c6.823 0 12.35 7.327 12.35 16.362 0 9.04-5.527 16.367-12.35 16.367-6.822 0-12.353-7.327-12.353-16.367 0-9.035 5.53-16.362 12.353-16.362zm105.09.904c7.676 0 13.899 7.244 13.899 16.18 0 8.935-6.223 16.178-13.9 16.178-7.668 0-13.895-7.243-13.895-16.179 0-8.935 6.223-16.179 13.895-16.179z"/>
</svg>
