<svg viewBox="0 0 512 512" xmlns="http://www.w3.org/2000/svg"><g fill="#fff"><path d="M296.12 352.64c-10.263 0-17.907-7.097-17.907-16.597v-.982h8.08v.982c0 5.241 4.259 9.172 9.937 9.172s9.608-3.494 9.608-8.08-3.712-7.97-11.246-9.827c-10.482-2.62-15.724-7.97-15.724-16.16 0-8.844 7.207-15.396 17.253-15.396 9.717 0 17.142 6.88 17.142 15.942v.983h-7.97v-.983c0-4.914-3.931-8.626-9.172-8.626-5.023 0-9.063 3.385-9.063 7.643 0 5.678 5.896 8.299 10.919 9.39 10.7 2.621 16.05 8.19 16.05 16.38-.109 9.499-7.643 16.16-17.906 16.16zm68.463-1.2v-31.01c0-10.265-6.552-16.925-16.816-16.925-10.591 0-17.688 6.879-17.688 17.143v30.791h-7.862v-75.996h7.97v29.59c4.26-6.005 11.029-9.28 19.437-9.28 13.758 0 22.93 9.171 22.93 22.82v32.757h-7.971zm44.003 1.2c-16.378 0-28.717-12.23-28.717-28.39s12.339-28.389 28.717-28.389 28.608 12.23 28.608 28.39-12.338 28.39-28.608 28.39zm0-49.135c-11.465 0-20.746 9.28-20.746 20.746s9.281 20.746 20.746 20.746c11.684 0 20.528-8.954 20.528-20.746s-8.844-20.746-20.528-20.746zm36.688 67.48v-73.922h7.862v10.045c4.804-7.207 12.993-11.356 21.62-11.247 15.832 0 27.734 12.23 27.734 28.39s-11.902 28.39-27.735 28.39c-8.626.108-16.815-4.15-21.62-11.247v29.59zm28.499-67.48c-11.465-.11-20.746 9.172-20.856 20.637s9.172 20.746 20.637 20.855 20.746-9.172 20.856-20.637v-.11c.327-11.137-8.517-20.418-19.655-20.745zM125.238 187.436c.764 3.821 1.092 7.643 1.092 11.465 0 32.975-25.55 57.87-59.18 57.87-25.005 0-45.424-13.648-54.378-34.176l23.913-7.425c5.896 11.356 17.689 18.453 30.464 18.235 19.545 0 34.067-14.96 34.067-34.504 0-1.31-.109-2.62-.218-3.822zm258.235 3.275l1.31-.436c-3.713-26.315-24.35-45.97-51.647-48.808h-.328c-.655-.11-1.2-.11-1.856-.219h-.764l-1.638-.109h-2.511c-33.63 0-59.181 24.896-59.181 57.87 0 3.823.327 7.644 1.091 11.466.765 3.603 1.748 7.097 3.167 10.482.546 1.529 1.31 3.057 1.965 4.477l8.408-2.62 15.068-4.696 86.916-27.188zm-91.393 7.644c.219-19.327 14.632-34.068 34.068-34.068 11.246-.218 21.838 5.242 28.28 14.523zm-35.814.437c0 32.975-23.366 57.87-54.376 57.87-15.396.219-30.028-7.206-38.981-19.763v-76.106c8.844-12.556 23.476-19.981 38.871-19.763 31.01 0 54.486 24.895 54.486 57.762zm-25.114 0c0-19.545-14.522-34.505-34.067-34.505s-34.285 14.96-34.285 34.505 14.74 34.504 34.285 34.504 33.958-14.85 34.067-34.504zM502.6 184.488v69.554h-24.35v-61.365c0-16.925-10.81-28.171-27.515-28.171-17.58 0-29.263 11.465-29.263 28.608v-34.068c8.626-11.683 21.51-18.016 37.343-18.016 26.205 0 43.785 17.361 43.785 43.458z"/><path class="st0" d="M385.329 201.521c-1.31 31.665-26.206 55.25-59.181 55.25-23.804 0-43.567-12.556-53.067-31.556l8.299-2.62c8.19 16.27 24.677 27.08 44.768 27.08 26.97 0 47.716-19.328 50.227-45.424zm-96.197 18.78c7.098 12.995 20.637 21.511 37.016 21.511 21.51 0 38.325-14.631 41.929-34.831l-9.281 2.839c-4.368 13.867-16.925 23.585-32.648 23.585-11.684.218-22.712-5.787-28.826-15.724zm-279.635-7.97c-1.092-4.368-1.529-8.844-1.529-13.43 0-32.976 25.332-57.871 59.181-57.871 25.66 0 46.624 14.522 55.141 36.033l-8.298 2.62c-7.207-18.78-24.896-31.556-46.734-31.556-28.826 0-50.555 22.057-50.555 50.774 0 3.603.328 7.315 1.092 10.81zm88.771-27.734l7.971-2.512c-6.224-15.505-20.964-25.987-39.2-25.987-24.24 0-42.583 18.563-42.583 42.912 0 2.839.218 5.678.764 8.517l7.971-2.512c-.328-1.965-.437-3.93-.437-6.005 0-19.545 14.74-34.504 34.286-34.504 14.413-.11 26.096 8.08 31.228 20.09zm48.59-40.946h-8.299v151.774h8.299zm15.942 0H154.5v151.774h8.299zm242.729 0h-8.299V254.26h8.299zm15.942 0h-8.299V254.26h8.299z"/></g></svg>