<svg xmlns="http://www.w3.org/2000/svg" viewBox="0 0 512 512">
    <path fill="#fff" d="M487.633 232.83a28.9 28.9 0 0 1-3.555 11.537 32.3 32.3 0 0 1-7.488 9.124 30.9 30.9 0 0 1-10.302 5.702 30.02 30.02 0 0 1-23.664-2.214 31.75 31.75 0 0 1-14.835-17.915 23.6 23.6 0 0 1-.998-5.92v-63.969H411.34v63.23a27 27 0 0 1-1.065 6.805 31.77 31.77 0 0 1-14.835 17.905 29.1 29.1 0 0 1-11.594 3.554h-.466q-1.027.085-2.053.085c-.95 0-1.844 0-2.775-.114a29.5 29.5 0 0 1-11.66-3.564 31.75 31.75 0 0 1-14.836-17.914 27 27 0 0 1-1.064-6.804v-63.13h-15.51v62.725l.066.77.124.884a47.5 47.5 0 0 0 2.433 9.713 45 45 0 0 0 3.374 8.391c.304.58.646 1.103.95 1.664.171.304.352.608.532.95a50 50 0 0 0 1.986 3.022l.457.627a44 44 0 0 0 3.801 4.581 44.9 44.9 0 0 0 10.559 8.183 44.1 44.1 0 0 0 21.734 5.502h1.625a44 44 0 0 0 19.302-5.436 44.3 44.3 0 0 0 13.239-11.252 1 1 0 0 1 .076-.105c.237-.294.456-.608.684-.903a46 46 0 0 0 1.492-2.09q.556-.83 1.083-1.673a53 53 0 0 0 3.27 4.657 44.3 44.3 0 0 0 13.238 11.252 42.9 42.9 0 0 0 17.278 5.294 42.25 42.25 0 0 0 17.79-2.006 45.4 45.4 0 0 0 15.102-8.553 46.5 46.5 0 0 0 15.871-31.125zM128.349 132.93s-27.466 23.826-51.054 73.814c14.199-36.75 13.306-62.544 13.306-62.544s-19.958 17.287-37.274 53.544c10.083-26.61 9.409-45.218 9.409-45.218s-14.455 12.544-27.2 38.822c7.137-19.293 6.652-32.693 6.652-32.693S29.672 169.48 19.77 192.26c-9.902 22.78-9.313 39.297-9.313 39.297s10.112-8.752 19.358-27.132c-10.52 27.227-9.855 46.33-9.855 46.33s14.056-12.203 26.668-37.749c-14.712 37.426-13.762 63.816-13.762 63.816s19.502-16.907 36.694-52.355c-20.451 51.348-19.14 87.668-19.14 87.668s30.697-26.61 55.045-82.616 22.885-96.595 22.885-96.595zM291.016 212.704a45.27 45.27 0 0 0-23.636-23.226 41.8 41.8 0 0 0-16.66-3.422c-5.73-.11-11.425.89-16.774 2.947a49.1 49.1 0 0 0-13.458 8.22v-28.587H205.33v63.676l-.047.494a32 32 0 0 1-3.517 11.87 32.4 32.4 0 0 1-7.45 9.152 30.9 30.9 0 0 1-10.283 5.769 28.8 28.8 0 0 1-12.013 1.454 29.5 29.5 0 0 1-11.68-3.517 31.9 31.9 0 0 1-14.93-17.847 29 29 0 0 1-1.398-12.004 28.2 28.2 0 0 1 3.536-11.527 29 29 0 0 1 7.47-8.677 31.4 31.4 0 0 1 10.292-5.227 32.2 32.2 0 0 1 12.089-1.15l1.368-15.3a43.2 43.2 0 0 0-17.962 2.07 45.5 45.5 0 0 0-15.035 8.478 46 46 0 0 0-10.72 13.306 42.9 42.9 0 0 0-4.99 16.726 45.9 45.9 0 0 0 1.901 18.057 47.5 47.5 0 0 0 8.135 15.424 44.3 44.3 0 0 0 13.306 11.196 43 43 0 0 0 17.306 5.227 42.5 42.5 0 0 0 17.781-2.081 45.2 45.2 0 0 0 15.016-8.63 46.45 46.45 0 0 0 15.472-28.786l.723-3.802.76-4.809a34 34 0 0 1 2.984-10.862 32 32 0 0 1 6.51-8.943 29.9 29.9 0 0 1 9.275-6.063 29.3 29.3 0 0 1 11.49-2.224c3.756-.001 7.465.84 10.853 2.461a31.6 31.6 0 0 1 9.152 6.482 32.4 32.4 0 0 1 6.33 9.36 26.8 26.8 0 0 1 2.404 11.11v46.455h15.159v-46.435a40.4 40.4 0 0 0-3.602-16.812zM409.704 358.592h-3.212a4.335 4.335 0 0 1-4.39-4.39v-57.85a4.27 4.27 0 0 1 1.273-3.136 4.2 4.2 0 0 1 3.117-1.264h3.212a4.306 4.306 0 0 1 4.372 4.4v57.85a4.305 4.305 0 0 1-4.372 4.39M392.638 346.62h-3.212a4.14 4.14 0 0 1-3.108-1.312 4.29 4.29 0 0 1-1.273-3.08v-45.873a4.22 4.22 0 0 1 1.273-3.127 4.18 4.18 0 0 1 3.108-1.273h3.212a4.24 4.24 0 0 1 3.127 1.273 4.32 4.32 0 0 1 1.254 3.127v45.874a4.38 4.38 0 0 1-1.254 3.079 4.2 4.2 0 0 1-3.127 1.311M375.566 358.592h-3.212a4.32 4.32 0 0 1-4.381-4.39v-57.85a4.314 4.314 0 0 1 4.381-4.4h3.212a4.23 4.23 0 0 1 3.118 1.264 4.3 4.3 0 0 1 1.264 3.136v57.85a4.316 4.316 0 0 1-4.382 4.39M307.988 186.056h15.49v89.79h-15.49zM307.988 169.031h15.49v10.49h-15.49zM273.158 379.075h-3.25a4.13 4.13 0 0 1-3.108-1.311 4.3 4.3 0 0 1-1.273-3.07v-78.005a4.29 4.29 0 0 1 1.273-3.07 4.1 4.1 0 0 1 3.108-1.32h3.212a4.15 4.15 0 0 1 3.127 1.32 4.27 4.27 0 0 1 1.254 3.07v78.005a4.28 4.28 0 0 1-1.254 3.07 4.18 4.18 0 0 1-3.089 1.311M495.046 321.805h-3.212a4.334 4.334 0 0 1-4.381-4.39v-21.25a4.28 4.28 0 0 1 1.264-3.07 4.13 4.13 0 0 1 3.117-1.321h3.212a4.14 4.14 0 0 1 3.118 1.32 4.32 4.32 0 0 1 1.264 3.07v21.25a4.334 4.334 0 0 1-4.382 4.391M477.98 305.49h-3.212a4.26 4.26 0 0 1-3.117-1.255 4.15 4.15 0 0 1-1.274-3.089v-5.103a4.32 4.32 0 0 1 1.274-3.136 4.2 4.2 0 0 1 3.117-1.302h3.212a4.2 4.2 0 0 1 3.118 1.302 4.3 4.3 0 0 1 1.254 3.136v5.103a4.14 4.14 0 0 1-1.254 3.089 4.26 4.26 0 0 1-3.118 1.255M460.932 313.653H457.7a4.335 4.335 0 0 1-4.372-4.362v-13.2a4.38 4.38 0 0 1 1.264-3.165 4.15 4.15 0 0 1 3.117-1.321h3.222a4.14 4.14 0 0 1 3.127 1.321 4.38 4.38 0 0 1 1.264 3.165v13.2a4.335 4.335 0 0 1-4.391 4.39zM443.825 332.22h-3.212a4.314 4.314 0 0 1-4.382-4.372v-31.533a4.22 4.22 0 0 1 1.264-3.05 4.16 4.16 0 0 1 3.118-1.312h3.212a4.16 4.16 0 0 1 3.117 1.311 4.2 4.2 0 0 1 1.255 3.051v31.533a4.305 4.305 0 0 1-4.372 4.372M426.776 332.22h-3.212a4.354 4.354 0 0 1-4.39-4.372v-31.533a4.2 4.2 0 0 1 1.282-3.05 4.13 4.13 0 0 1 3.108-1.312h3.212a4.16 4.16 0 0 1 3.117 1.311 4.22 4.22 0 0 1 1.265 3.051v31.533a4.313 4.313 0 0 1-4.382 4.372M358.5 370.747h-3.212a4.16 4.16 0 0 1-3.108-1.321 4.3 4.3 0 0 1-1.283-3.07v-69.84c0-1.157.462-2.266 1.283-3.08a4.14 4.14 0 0 1 3.108-1.311h3.212a4.16 4.16 0 0 1 3.118 1.311 4.32 4.32 0 0 1 1.264 3.08v69.84a4.28 4.28 0 0 1-1.264 3.07 4.18 4.18 0 0 1-3.118 1.321M341.428 313.653h-3.202a4.335 4.335 0 0 1-4.391-4.39V296.09a4.38 4.38 0 0 1 1.264-3.164 4.14 4.14 0 0 1 3.127-1.321h3.202a4.17 4.17 0 0 1 3.127 1.32 4.4 4.4 0 0 1 1.254 3.165v13.2a4.316 4.316 0 0 1-4.38 4.391zM324.374 321.805h-3.212a4.334 4.334 0 0 1-4.381-4.39v-21.25a4.28 4.28 0 0 1 1.264-3.07 4.12 4.12 0 0 1 3.117-1.321h3.212a4.12 4.12 0 0 1 3.108 1.32 4.28 4.28 0 0 1 1.264 3.07v21.25a4.334 4.334 0 0 1-4.372 4.391zM307.296 332.22h-3.174a4.333 4.333 0 0 1-4.381-4.372v-31.533a4.23 4.23 0 0 1 1.273-3.05 4.13 4.13 0 0 1 3.108-1.312h3.212c2.413 0 4.371 1.95 4.381 4.362v31.533a4.305 4.305 0 0 1-4.38 4.372zM290.224 358.592h-3.212a4.337 4.337 0 0 1-4.381-4.39v-57.85a4.27 4.27 0 0 1 1.273-3.136 4.2 4.2 0 0 1 3.108-1.264h3.212a4.2 4.2 0 0 1 3.118 1.264 4.26 4.26 0 0 1 1.264 3.136v57.85a4.316 4.316 0 0 1-4.382 4.39zM256.086 379.075h-3.212a4.14 4.14 0 0 1-3.108-1.311 4.3 4.3 0 0 1-1.273-3.07v-78.005a4.29 4.29 0 0 1 1.273-3.07 4.12 4.12 0 0 1 3.108-1.32h3.212a4.13 4.13 0 0 1 3.118 1.32 4.24 4.24 0 0 1 1.263 3.07v78.005a4.25 4.25 0 0 1-1.263 3.07 4.14 4.14 0 0 1-3.118 1.311M239.02 313.653h-3.212a4.353 4.353 0 0 1-4.381-4.39V296.09a4.4 4.4 0 0 1 1.273-3.164 4.12 4.12 0 0 1 3.108-1.321h3.212a4.15 4.15 0 0 1 3.127 1.32 4.4 4.4 0 0 1 1.254 3.165v13.2a4.316 4.316 0 0 1-4.38 4.392zM221.954 301.498h-3.203a4.38 4.38 0 0 1-4.39-4.324v-1.245a4.4 4.4 0 0 1 4.39-4.324h3.203a4.38 4.38 0 0 1 4.381 4.324v1.245a4.36 4.36 0 0 1-4.38 4.324M204.894 305.49h-3.212a4.24 4.24 0 0 1-3.117-1.255 4.15 4.15 0 0 1-1.274-3.089v-5.103a4.32 4.32 0 0 1 1.274-3.136 4.17 4.17 0 0 1 3.117-1.302h3.212a4.2 4.2 0 0 1 3.117 1.302 4.3 4.3 0 0 1 1.255 3.136v5.103a4.14 4.14 0 0 1-1.255 3.089 4.26 4.26 0 0 1-3.117 1.255M187.816 321.805h-3.203a4.354 4.354 0 0 1-4.39-4.39v-21.25a4.29 4.29 0 0 1 1.302-3.032 4.12 4.12 0 0 1 3.117-1.32h3.203a4.14 4.14 0 0 1 3.126 1.32 4.32 4.32 0 0 1 1.264 3.07v21.25a4.335 4.335 0 0 1-4.39 4.39zM170.756 305.49h-3.212a4.28 4.28 0 0 1-3.127-1.255 4.18 4.18 0 0 1-1.264-3.089v-5.103a4.35 4.35 0 0 1 1.264-3.136 4.2 4.2 0 0 1 3.127-1.302h3.212a4.2 4.2 0 0 1 3.117 1.302 4.3 4.3 0 0 1 1.255 3.136v5.103a4.14 4.14 0 0 1-1.255 3.089 4.26 4.26 0 0 1-3.117 1.255M153.684 313.653h-3.212a4.354 4.354 0 0 1-4.39-4.39V296.09a4.4 4.4 0 0 1 1.273-3.164 4.13 4.13 0 0 1 3.117-1.321h3.212a4.14 4.14 0 0 1 3.117 1.32 4.42 4.42 0 0 1 1.264 3.165v13.2a4.335 4.335 0 0 1-4.38 4.391zM136.618 321.805h-3.212a4.334 4.334 0 0 1-4.381-4.39v-21.25a4.28 4.28 0 0 1 1.264-3.07 4.13 4.13 0 0 1 3.117-1.32h3.212a4.13 4.13 0 0 1 3.089 1.358 4.32 4.32 0 0 1 1.264 3.07v21.25a4.334 4.334 0 0 1-4.381 4.39z"/>
</svg>
