<svg xmlns="http://www.w3.org/2000/svg" height="512" width="512">
    <path fill="#fff" d="M167.225 136.585l-6.967 7.134c-18.164 18.606-37.021 44.321-50.505 68.869-1.61 2.932-3.016 5.256-3.116 5.152-.104-.104.3-1.769.893-3.696 4.83-15.687 8.769-38.152 9.64-55.002l.368-7.122-4.214 4.114c-12.398 12.07-27.354 31.986-37.296 49.658-4.184 7.434-5.745 9.837-4.935 7.58 2.382-6.633 5.423-19.808 6.87-29.77 1.31-9.012 2.028-19.8 1.32-19.8-.723 0-8.545 8.594-14.035 15.419-5.031 6.258-12.703 17.568-16.033 23.638-1.122 2.044-2.14 3.62-2.256 3.504-.126-.125.396-2.536 1.147-5.37 1.923-7.246 3.48-16.84 3.863-23.833l.325-5.966-4.172 4.385c-20.976 21.99-35.268 55.335-37.788 88.189L10 268.053l3.087-3.017c4.38-4.268 10.855-12.432 15.294-19.286 2.09-3.233 3.876-5.8 3.963-5.707.096.091-.292 1.514-.855 3.162-1.648 4.79-4.86 17.755-6.02 24.297-1.656 9.37-3.079 25.469-2.244 25.469.634 0 9.311-9.529 14.08-15.47 4.41-5.494 12.67-17.563 15.185-22.185.86-1.585 1.636-2.804 1.728-2.712.091.088-.94 3.538-2.287 7.66-6.35 19.378-10.78 42.749-11.556 60.921l-.325 7.668 3.129-3.012c10.813-10.388 24.98-28.665 35.19-45.39 1.956-3.204 3.437-5.331 3.295-4.73-.146.6-1.418 4.793-2.837 9.311-8.523 27.221-13.625 55.598-14.868 82.715l-.35 7.668 4.492-4.38c8.29-8.085 19.504-21.118 28.294-32.874 31.139-41.636 55.54-97.271 65.348-148.99 3.12-16.47 5.557-38.002 5.507-48.656zm20.087 78.055c-18.289 0-30.959 11.656-28.852 26.533.85 6.02 3.133 9.725 7.997 13.004 4.105 2.762 7.643 3.992 19.495 6.758 11.331 2.637 15.97 4.573 18.319 7.66 1.615 2.11 2.253 5.532 1.644 8.782-.543 2.903-4.097 6.52-7.885 8.014-4.414 1.744-13.267 1.756-17.647.025-6.704-2.65-9.612-6.279-11.18-13.943l-.318-1.501h-13.67l.007 1.501c.021 2.82 1.544 8.761 2.983 11.598 3.642 7.184 11.222 12.295 21.151 14.239v-.004c1.335.263 5.211.509 8.611.542 17.939.171 29.624-7.392 31.956-20.688 1.181-6.717-1.068-14.285-5.54-18.62-4.213-4.092-10.108-6.382-26.24-10.191-11.398-2.687-15.374-5.44-15.829-10.955-.304-3.667.48-5.766 2.966-7.952 2.783-2.44 7.08-3.488 13.046-3.175 5.865.305 9.032 1.506 11.977 4.543 1.807 1.857 2.49 3.375 3.993 8.89.137.501 2.031.689 7.109.689h6.929l-.367-2.603c-2.036-14.543-13.433-23.141-30.655-23.141zm141.451.1a54.61 54.61 0 00-3.187.042c-6.8.3-11.026 1.481-16.187 4.506-7.801 4.572-12.077 13.333-10.725 22.006 1.084 6.959 4.476 11.398 11.226 14.706 3.663 1.794 6.412 2.599 20.5 5.982 5.804 1.394 11.077 3.496 12.892 5.136 3.5 3.17 4.113 9.75 1.251 13.5-3.963 5.198-12.299 7.501-20.713 5.716-7.772-1.648-12.612-6.296-14.18-13.609l-.593-2.753h-13.6l.008 1.501c.02 3.104 1.64 9.037 3.338 12.228 3.362 6.3 10.955 11.514 19.386 13.304 5.19 1.102 15.16 1.114 20.426.03 5.59-1.156 11.234-3.839 14.751-7.018 8.853-8.014 9.491-23.179 1.319-31.351-4.227-4.226-9.967-6.508-25.16-9.996-13.1-3.004-17.093-5.92-17.093-12.453 0-6.283 5.457-10.07 14.501-10.07 9.654 0 14.969 3.579 16.972 11.434l.646 2.533 6.492.158c3.57.083 6.712-.063 6.975-.325.28-.276.13-2.153-.342-4.41-2.712-12.995-13.283-20.538-28.902-20.797zm108.319 1.435v78.498c12.232-.626 25.448 1.047 37.346-.359C490.052 292.104 502 280.631 502 262.85v-14.802c0-17.371-12.098-29.432-27.868-31.514-11.514-.888-24.843-.359-37.046-.359zm-211.48.384l-.138 39.17c-.083 21.54-.02 39.486.134 39.883.22.592 4.518.684 22.874.513 19.29-.18 23.074-.346 25.882-1.147 5.286-1.515 8.907-3.63 12.086-7.067 4.038-4.36 5.428-8.761 5.048-15.995-.446-8.52-3.83-13.81-11.001-17.193l-3.35-1.585 1.748-.91a17.45 17.45 0 007.134-7.133c1.318-2.52 1.46-3.367 1.468-8.815.02-10.263-3.279-15.19-12.344-18.432-3.463-1.239-3.922-1.26-26.533-1.272zm138.372.355v78.498h10.12v-36.63h42.387v36.63h10.113v-78.498H416.48v33.145h-42.386v-33.15zm83.52 8.544c8.528-.576 17.648-.91 25.157.28 12.215 1.935 18.928 12.043 18.928 24.743v11.622c0 12.624-7.81 21.627-18.72 24.71-8.239.73-15.615 1.035-25.364.288zm-207.65 2.057l12.6.016c13.57.017 15.369.296 18.44 2.879 2.277 1.919 3.195 4.326 3.195 8.34 0 5.114-1.974 8.356-6.162 10.104v.008c-1.627.68-4.577.842-15.194.842h-13.175l.15-11.097zm-.27 32.59h14.038c15.944 0 17.38.25 20.805 3.55 6.412 6.175 3.767 17.276-4.89 20.526-.938.346-7.113.576-15.749.576h-14.2v-12.32z"/>
</svg>
