<svg xmlns="http://www.w3.org/2000/svg" height="512" width="512">
 <path fill="#fff" d="m156.11 145.58s-33.826 29.35-62.907 90.943c17.487-45.255 16.368-77.037 16.368-77.037s-24.59 21.277-45.912 65.966c12.384-32.826 11.549-55.73 11.549-55.73s-17.816 15.488-33.513 47.867c8.803-23.784 8.192-40.272 8.192-40.272s-15.37 13.31-27.574 41.406c-12.205 28.051-11.49 48.374-11.49 48.374s12.475-10.803 23.89-33.438c-12.981 33.557-12.101 57.088-12.101 57.088s17.293-15.011 32.826-46.494c-18.114 46.106-16.935 78.619-16.935 78.619s24.038-20.83 45.21-64.503c-25.23 63.28-23.604 108.06-23.604 108.06s37.795-32.811 67.816-101.82c29.99-68.98 28.186-119.02 28.186-119.02"/>
 <path fill="#fff" d="m206.93 211.927-12.101-4.492c-3.059-1.163-3.686-2.357-3.686-3.79 0-3.014 3.641-3.461 5.805-3.461 4.685 0 11.593 2.492 16.413 5.938a2.38 2.38 0 0 0 2.506.18 2.41 2.41 0 0 0 1.313-2.164v-13.16c0-1-.477-1.97-1.313-2.537-5.7-3.85-12.086-5.73-19.516-5.73-15.369 0-26.097 9.207-26.097 22.397 0 8.654 4.715 15.264 13.653 19.129l11.13 4.79c3.328 1.402 4.387 2.431 4.387 4.192 0 3.521-3.82 4.044-6.102 4.044-6.834 0-13.742-2.597-19.442-7.327a2.44 2.44 0 0 0-2.641-.343 2.4 2.4 0 0 0-1.388 2.194v13.443c0 .85.328 1.672.955 2.239 5.416 4.998 12.951 7.744 21.247 7.744 17.428 0 28.246-9.102 28.246-23.755 0-9.55-4.626-16.308-13.384-19.531zm156.1-27.754h-13.533a3.095 3.095 0 0 0-3.089 3.09v38.242c0 6.878-3.954 10.982-10.579 10.982s-10.683-4-10.683-10.982v-38.243a3.095 3.095 0 0 0-3.089-3.088h-13.533a3.095 3.095 0 0 0-3.089 3.088v38.825c0 18.517 11.072 29.126 30.394 29.126s30.305-10.61 30.305-29.126v-38.825a3.095 3.095 0 0 0-3.089-3.088zm66.488 0h-54.82a3.07 3.07 0 0 0-3.073 3.074v12.19a3.07 3.07 0 0 0 3.073 3.075h15.697c1 0 1.806.82 1.806 1.805v46.33a3.07 3.07 0 0 0 3.073 3.073h13.549a3.07 3.07 0 0 0 3.073-3.073v-46.33c0-1 .821-1.805 1.806-1.805h15.801a3.07 3.07 0 0 0 3.074-3.074v-12.19a3.085 3.085 0 0 0-3.089-3.09zm68.592 0h-13.563a3.07 3.07 0 0 0-3.074 3.074v19.994c0 1-.806 1.806-1.805 1.806h-19.906c-1 0-1.805-.806-1.805-1.806v-19.994a3.07 3.07 0 0 0-3.074-3.073H441.32a3.07 3.07 0 0 0-3.074 3.073v63.415a3.07 3.07 0 0 0 3.074 3.073h13.563a3.07 3.07 0 0 0 3.074-3.073v-21.457c0-1 .805-1.805 1.805-1.805h19.905c1 0 1.805.805 1.805 1.805v21.457a3.07 3.07 0 0 0 3.074 3.073h13.563a3.07 3.07 0 0 0 3.074-3.073v-63.4a3.07 3.07 0 0 0-3.074-3.073zm-223.8 111.22-12.101-4.491c-3.059-1.164-3.685-2.358-3.685-3.79 0-3.014 3.64-3.462 5.804-3.462 4.685 0 11.593 2.492 16.413 5.924.746.522 1.7.596 2.522.179s1.313-1.254 1.313-2.164v-13.145c0-1-.478-1.97-1.313-2.537-5.7-3.85-12.086-5.73-19.517-5.73-15.369 0-26.097 9.207-26.097 22.397 0 8.654 4.715 15.264 13.653 19.129l11.13 4.79c3.328 1.417 4.403 2.431 4.403 4.192 0 3.521-3.82 4.044-6.103 4.044-6.834 0-13.742-2.597-19.442-7.327-.761-.626-1.76-.76-2.641-.343a2.4 2.4 0 0 0-1.388 2.194v13.443c0 .85.328 1.672.955 2.254 5.416 4.998 12.951 7.744 21.248 7.744 17.427 0 28.245-9.102 28.245-23.755 0-9.55-4.626-16.308-13.384-19.531zm22.904-27.753h13.548a3.095 3.095 0 0 1 3.089 3.088v63.4a3.095 3.095 0 0 1-3.09 3.088h-13.547a3.095 3.095 0 0 1-3.089-3.088v-63.4a3.095 3.095 0 0 1 3.089-3.088m157.94 0h-12.787a3.07 3.07 0 0 0-3.074 3.073v31.215c0 .627-.82.88-1.163.358l-22.218-33.274a3.06 3.06 0 0 0-2.551-1.357h-13.922a3.09 3.09 0 0 0-3.073 3.073v63.43a3.07 3.07 0 0 0 3.073 3.073h12.803a3.07 3.07 0 0 0 3.073-3.073v-31.215c0-.627.821-.88 1.164-.358l22.218 33.274a3.06 3.06 0 0 0 2.551 1.357h13.921a3.09 3.09 0 0 0 3.074-3.073v-63.43a3.07 3.07 0 0 0-3.074-3.073zm-193.15-84.931c-22.083 0-37.511 14.906-37.511 36.243s15.428 36.244 37.511 36.244 37.512-14.906 37.512-36.244-15.429-36.243-37.512-36.243m.09 56.461a50.9 50.9 0 0 0-20.218-20.218 50.9 50.9 0 0 0 20.218-20.217 50.9 50.9 0 0 0 20.218 20.217 50.9 50.9 0 0 0-20.218 20.218m-53.134 30.036a2.44 2.44 0 0 0-2.283-1.566h-16.846c-1 0-1.91.626-2.283 1.566l-24.769 64.698a2.47 2.47 0 0 0 .269 2.253 2.47 2.47 0 0 0 2.014 1.06h15.503a3.08 3.08 0 0 0 2.94-2.15l2.626-8.295a1.81 1.81 0 0 1 1.716-1.254h20.62c.791 0 1.478.508 1.716 1.254l2.627 8.296a3.08 3.08 0 0 0 2.939 2.148h15.697c.806 0 1.552-.388 2.014-1.06a2.42 2.42 0 0 0 .269-2.252zm-16.682 40.168c-.418 0-.79-.597-1.089-1.433-.925-2.521-.507-5.341.97-7.58 2.283-3.476 6.073-9.713 6.073-13.04 0 3.342 3.79 9.579 6.073 13.04 1.477 2.239 1.895 5.059.97 7.58-.299.836-.672 1.433-1.09 1.433h-11.922zm173.59-40.227a2.44 2.44 0 0 0-2.283-1.567h-16.846c-1 0-1.91.627-2.282 1.567l-24.77 64.697a2.47 2.47 0 0 0 .27 2.253 2.47 2.47 0 0 0 2.014 1.06h15.503a3.08 3.08 0 0 0 2.939-2.149l2.626-8.296a1.81 1.81 0 0 1 1.716-1.253h20.62c.792 0 1.478.507 1.717 1.253l2.626 8.296a3.08 3.08 0 0 0 2.94 2.149h15.696c.806 0 1.552-.388 2.014-1.06a2.42 2.42 0 0 0 .27-2.253zm-16.681 40.167c-.418 0-.791-.597-1.09-1.432-.925-2.522-.507-5.342.97-7.58 2.283-3.477 6.073-9.714 6.073-13.041 0 3.342 3.79 9.58 6.073 13.04 1.477 2.239 1.895 5.059.97 7.58-.299.836-.672 1.433-1.09 1.433h-11.921z"/>
</svg>
