<svg xmlns="http://www.w3.org/2000/svg" height="512" width="512"><path fill="#fff" d="M218.578 331.47l-.021 75.563h9.91v-32.209h24.597c9.74 0 11.506 6.196 12.57 13.625 1.586 7.44.001 15.572 2.833 18.584h11.144c-4.247-5.13-3.715-13.453-4.418-20.883-.713-7.429-2.49-13.794-11.324-15.572v-.17c9.196-2.491 13.092-10.09 13.092-19.117 0-12.027-8.676-19.82-22.832-19.82h-35.55zm159.947 0v28.134h-.181c-4.066-6.365-12.208-8.495-17.69-8.495-16.818 0-24.949 12.922-24.949 28.495 0 15.402 8.313 28.664 25.13 28.664 7.43 0 14.496-2.65 17.509-8.664h.181v7.43h9.026V331.47h-9.026zm19.422 0v10.975h9.016v-10.974h-9.016zm-169.459 8.495h25.12c9.377 0 13.454 5.483 13.454 12.912 0 10.985-8.153 13.453-17.519 13.453h-21.055v-26.365zm79.39 11.156c-12.026 0-22.65 4.778-23.171 18.233h9.016c.532-7.962 6.024-10.26 13.634-10.26 5.833 0 12.21 1.235 12.21 9.015 0 6.728-8.495 6.195-18.405 7.973-9.207 1.937-18.402 4.417-18.402 16.807 0 10.974 8.141 15.402 18.05 15.402 7.6 0 14.327-2.662 19.288-8.494 0 6.002 2.831 8.494 7.6 8.494 2.83 0 4.78-.544 6.376-1.428v-7.078c-1.064.532-1.948.533-2.65.533-3.013 0-3.014-1.766-3.014-6.013v-28.133c0-12.922-10.622-15.05-20.531-15.05zm132.833 0c-17.35 0-26.545 12.56-26.545 28.652l.012.012c0 15.923 9.194 28.483 26.545 28.483 17.327.01 26.523-12.56 26.523-28.483 0-16.104-9.196-28.664-26.535-28.664zm-42.764 1.234l-.011 54.678h9.027v-54.678h-9.016zm-36.41 6.715c12.39 0 17.34 9.922 17.34 20.715 0 10.26-4.78 20.522-16.807 20.522-11.676 0-16.988-9.91-16.988-20.17 0-10.623 4.247-21.067 16.455-21.067zm79.186.012c9.377 0 16.988 7.249 16.988 20.703 0 13.092-7.611 20.522-16.988 20.522-9.559 0-17.168-7.43-17.168-20.522 0-13.454 7.61-20.703 17.168-20.703zm-121.157 19.639v9.195c0 4.96-4.96 12.39-16.818 12.39-5.481 0-10.611-2.118-10.611-7.962 0-6.727 5.129-8.844 11.142-9.908 6.014-1.065 12.743-1.065 16.287-3.715zM332.523 260.98h34.64c11.945 0 18.842 6.283 18.842 17.254 0 11.281-6.901 17.739-18.842 17.739h-34.64zm-19.598 50.965h51.405c29.02 0 41.277-13.629 41.277-31.19 0-15.221-7.391-25.88-21.016-28.846v-.352c10.174-4.38 15.968-12.518 15.968-23.799 0-18.668-13.18-27.784-33.222-27.784h-54.416zm19.598-95.958h31.986c10.659 0 16.453 4.073 16.453 15.35 0 10.046-7.03 15.529-16.453 15.529h-31.986zM213.828 274.65c.49 27.74 21.148 39.991 46.718 39.991 22.297 0 44.545-10.041 44.545-35.171 0-11.589-7.076-24.11-21.808-28.535-5.794-1.722-30.568-8.138-32.293-8.582-8.005-2.21-13.314-6.59-13.314-14.466 0-11.282 11.41-14.554 20.522-14.554 13.497 0 23.227 5.309 24.156 19.73h19.597c0-23.355-19.597-35.744-42.956-35.744-20.261 0-40.966 10.485-40.966 32.915 0 11.634 5.666 23.226 24.82 28.403 15.35 4.247 25.528 6.279 33.4 9.244 4.512 1.726 9.249 5.177 9.249 13.804 0 8.494-6.462 16.942-23.716 16.942-15.657 0-28.357-6.723-28.357-23.977zm196.91 0c.489 27.74 21.143 39.991 46.717 39.991 22.293 0 44.545-10.041 44.545-35.171 0-11.589-7.076-24.11-21.808-28.535-5.794-1.722-30.567-8.138-32.293-8.582-8.009-2.21-13.318-6.59-13.318-14.466 0-11.282 11.415-14.554 20.53-14.554 13.489 0 23.223 5.309 24.152 19.73h19.597c0-23.355-19.597-35.744-42.956-35.744-20.26 0-40.965 10.485-40.965 32.915 0 11.634 5.661 23.226 24.819 28.403 15.35 4.247 25.524 6.279 33.4 9.244 4.512 1.726 9.249 5.177 9.249 13.804 0 8.494-6.462 16.942-23.716 16.942-15.66 0-28.357-6.723-28.357-23.977zm0 0M231.082 87.957s-51.824 44.983-96.127 139.316c26.994-69.395 25.26-118.17 25.258-118.21 0 0-37.579 32.587-70.111 100.943 19.11-50.221 17.865-85.326 17.865-85.326s-27.005 23.425-50.875 72.513C70.35 161.16 69.438 136.18 69.438 136.18s-23.41 20.306-41.983 63.002c-18.585 42.73-17.441 73.705-17.441 73.705S28.9 256.49 46.213 222.213c-19.631 50.956-18.32 86.68-18.32 86.68s26.516-23.044 50.189-71.237c-27.784 70.401-25.992 120.12-25.992 120.12s36.854-31.984 69.164-98.993c-38.768 96.717-36.3 165.262-36.3 165.262s57.519-49.945 103.216-154.93c45.652-105.064 42.912-181.158 42.912-181.158z"/></svg>
