<svg xmlns="http://www.w3.org/2000/svg" height="512" width="512">
    <path fill="#fff" d="M85.766 412.895c1.745-38.073 8.906-77.916 20.878-116.13 1.983-6.348 3.774-12.231 3.975-13.075.205-.847-1.88 2.138-4.622 6.64-14.335 23.483-34.223 49.142-49.402 63.731l-4.4 4.23.459-10.769c1.085-25.512 7.315-58.332 16.222-85.536 1.895-5.788 3.34-10.631 3.215-10.757-.125-.125-1.22 1.587-2.43 3.809-3.529 6.488-15.128 23.437-21.325 31.15-6.693 8.338-18.874 21.725-19.767 21.725-1.17 0 .827-22.603 3.157-35.76 1.628-9.186 6.138-27.396 8.447-34.123.793-2.309 1.34-4.305 1.21-4.434-.125-.13-2.638 3.474-5.574 8.009-6.234 9.629-15.32 21.086-21.47 27.087L10 272.922l.472-6.151c3.545-46.128 23.604-92.957 53.05-123.823l5.867-6.154-.46 8.376c-.538 9.812-2.722 23.291-5.423 33.463-1.057 3.975-1.783 7.366-1.612 7.537.167.167 1.595-2.046 3.174-4.927 4.668-8.519 15.44-24.394 22.506-33.175 7.704-9.583 18.694-21.655 19.709-21.655.993 0-.017 15.153-1.859 27.805-2.033 13.984-6.305 32.478-9.645 41.798-1.14 3.165 1.06-.209 6.931-10.648 13.96-24.815 34.958-52.775 52.358-69.724l5.92-5.766-.517 9.996c-1.223 23.659-6.752 55.193-13.533 77.219-.835 2.706-1.399 5.04-1.253 5.186.142.146 2.113-3.11 4.376-7.232 18.937-34.457 45.41-70.559 70.914-96.686l9.78-10.02.025 5.52c.079 14.96-3.34 45.187-7.725 68.312-13.767 72.613-48.028 150.73-91.75 209.192-12.34 16.498-28.085 34.79-39.727 46.14l-6.305 6.155zm162.012-98.894c-13.93-2.735-24.577-9.905-29.688-19.993-2.017-3.975-4.163-12.318-4.188-16.28l-.013-2.113h19.2l.434 2.113c2.209 10.76 6.293 15.854 15.7 19.575 6.155 2.43 18.581 2.413 24.774-.034 5.32-2.1 10.313-7.173 11.078-11.253.856-4.56-.042-9.366-2.31-12.335-3.298-4.33-9.812-7.056-25.721-10.76-16.636-3.875-21.613-5.595-27.371-9.479-6.831-4.601-10.034-9.812-11.232-18.255-2.957-20.89 14.836-37.25 40.511-37.25 24.185 0 40.178 12.071 43.042 32.494l.514 3.65h-9.725c-7.128 0-9.796-.255-9.988-.961-2.109-7.746-3.065-9.88-5.596-12.485-4.138-4.26-8.585-5.946-16.815-6.376-8.376-.439-14.422 1.031-18.326 4.46-3.491 3.068-4.593 6.012-4.163 11.16.639 7.746 6.221 11.609 22.222 15.383 22.653 5.345 30.925 8.556 36.845 14.302 6.276 6.088 9.437 16.719 7.784 26.147-3.278 18.665-19.688 29.284-44.871 29.041-4.777-.045-10.218-.388-12.092-.751zm194.916-.434c-11.842-2.51-22.498-9.821-27.216-18.67-2.389-4.484-4.664-12.81-4.69-17.17l-.016-2.112h19.1l.834 3.87c2.2 10.272 8.994 16.786 19.905 19.104 11.813 2.505 23.509-.723 29.083-8.021 4.017-5.27 3.161-14.51-1.754-18.958-2.547-2.3-9.954-5.252-18.105-7.207-19.775-4.751-23.634-5.879-28.778-8.397-9.479-4.643-14.239-10.881-15.763-20.652-1.896-12.176 4.1-24.482 15.053-30.9 7.249-4.246 13.174-5.895 22.728-6.317 24.377-1.086 41.004 9.666 45.063 29.133.66 3.17.864 5.804.476 6.188-.376.376-4.781.576-9.792.46l-9.12-.218-.901-3.553c-2.81-11.032-10.272-16.06-23.835-16.06-12.698 0-20.351 5.316-20.351 14.14 0 9.173 5.607 13.26 23.992 17.482 21.338 4.902 29.397 8.1 35.326 14.039 11.474 11.47 10.577 32.757-1.854 44.01-4.936 4.468-12.86 8.239-20.711 9.855-7.387 1.524-21.391 1.503-28.678-.042zM312.71 311.62c-.218-.56-.301-25.76-.193-56.003l.2-54.992 32.303.02c31.743.021 32.386.05 37.255 1.788 12.727 4.551 17.362 11.474 17.328 25.884-.016 7.65-.208 8.836-2.062 12.372-2.168 4.142-5.934 7.913-10.013 10.022l-2.464 1.273 4.71 2.226c10.072 4.756 14.823 12.18 15.45 24.135.53 10.163-1.42 16.339-7.09 22.464-4.468 4.823-9.546 7.792-16.97 9.917-3.938 1.128-9.257 1.366-36.34 1.616-25.772.238-31.801.105-32.119-.718zm61.673-16.055c12.15-4.556 15.867-20.147 6.869-28.816-4.815-4.635-6.823-4.981-29.208-4.981H332.33v34.61h19.942c12.122 0 20.795-.32 22.114-.813zm-2.255-49.59c5.875-2.459 8.652-7.014 8.652-14.196 0-5.637-1.295-9.016-4.489-11.7-4.313-3.633-6.835-4.026-25.888-4.05l-17.688-.017-.209 15.574-.209 15.571h18.498c14.907 0 19.049-.23 21.329-1.181z"/>
</svg>
