<svg xmlns="http://www.w3.org/2000/svg" width="512" height="512">
    <path fill="#fff" d="M209.195 157.11v.013H23.746c-7.612-.02-13.811 6.175-13.799 13.787v96.492c-.012 7.612 6.188 13.803 13.8 13.784h185.448a1 1 0 00.102-.006h278.955c7.09 0 12.8-5.793 12.8-12.993v-98.083a12.764 12.974 0 00-12.8-12.995H209.195zm-185.45 2.013a1 1 0 00.001 0h184.45v120.063H23.745a1 1 0 00-.002 0 11.749 11.749 0 01-11.797-11.782 1 1 0 000-.002v-96.494a1 1 0 000-.002 11.75 11.75 0 0111.797-11.783zm73.185 8.955c-10.517 0-12.348 5.605-12.348 10.99v70.764c1.153.177 2.36.272 3.742.272 10.435 0 12.524-3.072 12.524-8.417v-73.203a18.773 18.773 0 00-3.918-.406zm364.256 13.328c11.348-.274 21.935 5.145 21.935 5.145l-3.85 11.543s-7.84-3.424-14.904-3.807c-4.98-.27-12.96.743-13.914 5.715-2.134 11.117 14.188 10.582 23.367 15.725 3.427 1.919 6.39 3.725 9.24 7.695 2.264 3.152 2.947 9.173 2.31 13.418-2.3 15.285-16.397 19.558-26.364 19.18-6.7-.255-13.425-.323-22.352-5.207l2.776-12.999s6.825 4.59 18.267 5.26c5.407.317 13.938-.17 14.31-7.951.273-5.656-7.79-7.853-15.581-10.83-4.478-1.712-8.973-3.722-12.072-6.203-6.653-5.324-8.404-15.103-6.268-22.633 1.09-3.845 3.045-6.728 5.826-9.127 3.356-2.895 8.47-4.71 17.274-4.924zm-236.245 1.867l.002.002h11.727l34.062 44.434v-44.434h13.057v71.264h-11.404l-34.365-44.232v44.23h-13.08v-71.264zm68.489.002h46.75v11.537h-31.985v16.721h26.22v13.164h-26.22v18.256h31.993v11.586H293.43v-71.264zm53.886 0h13.502s2.193 17.988 3.717 26.912c1.644 9.627 5.848 28.702 5.848 28.702l11.392-53.1h16.176l11.674 53.525s4.322-21.32 6.145-32.044c1.354-7.97 3.558-23.995 3.558-23.995h13.238s-3.187 22.16-5.43 33.09c-2.64 12.872-9.279 38.174-9.279 38.174h-16.53s-4.133-17.162-6.003-25.789c-1.933-8.919-5.39-26.844-5.39-26.844s-3.43 18.3-5.428 27.389c-1.86 8.456-6.106 25.244-6.106 25.244h-16.455s-6.97-28.104-9.795-42.303c-1.91-9.596-4.834-28.96-4.834-28.96zm-210.029 5.455c-7.307 0-11.36 2.667-15.6 7.254l-20.058 21.897 16.139 25.373c2.983 4.629 6.912 6.984 13.283 6.984 4.188 0 7.671-.974 9.271-1.732l-19.435-29.244 13.77-14.604 22.595 35.432-13.77 28.972c1.381.707 4.187 1.558 7.711 1.65 6.06.136 9.365-2.178 11.817-7.616l32.5-72.364c-1.341-.716-4.325-1.513-6.735-1.554-4.189-.083-9.81.756-13.377 9.306l-10.517 24.782-20.64-33.56c-1.34-.406-4.594-.976-6.954-.976zm-81.492.104c-2.93.011-5.874.136-8.639.436-12.97 1.422-19.568 9.203-19.568 18.513 0 7.66 5.57 14.86 16.006 16.863l12.574 2.409c4.594.892 6.951 1.91 6.951 4.41 0 1.91-1.785 3.912-7.709 3.912-5.353 0-12.566-.799-17.16-.799-4.417-.01-9.104 1.993-9.104 10.68 0 1.069.176 2.407.405 3.465 6.6.758 20.464 1.961 30.047.933 13.24-1.422 19.748-8.674 19.748-18.646 0-8.593-5.303-15.579-17.608-17.852l-11.994-2.219c-3.836-.665-6.246-1.558-6.246-3.738 0-2.044 2.547-3.734 8.648-3.734 6.017 0 11.276.623 14.665.623 4.417 0 9.001-1.869 9.001-10.555 0-1.16-.136-2.222-.355-3.342-4.708-.57-12.18-1.359-19.662-1.359zM253.72 296.088l-.97.1c-2.557.18-4.634.654-6.028 3.054-.686 1.18-.903 2.566-1.223 3.871l-1.563 6.776-3.078 13.275-1.675 7.326c-.4-.839-.535-1.978-.72-2.902l-.997-4.979-3.186-15.623c-.633-3.166-1.003-7.633-3.82-9.619-2.873-2.023-7.816-1.52-10.219 1.053-1.177 1.256-1.751 2.996-1.818 4.693-.068 1.76.627 3.715 1.049 5.395l2.283 8.984 7.094 27.52c.827 3.209 1.333 6.771 4.38 8.695.587.371 1.275.597 1.938.783a9.074 9.063 0 002.492.336c1.927.002 3.436.094 5.262-.732 3.099-1.406 3.837-3.887 4.617-6.897l2.045-8.271 3.113-12.72 1.16-4.702 2.03 8.158 3.25 13.274c1.107 4.42 1.564 10.09 6.765 11.554 1.487.42 2.902.354 4.43.336.732-.01 1.505-.146 2.215-.33 4.739-1.21 5.44-5.847 6.457-9.9l7.164-27.793 2.144-8.295c.393-1.566.969-3.364.989-4.979.02-1.899-.48-3.707-1.813-5.115-2.619-2.768-8.015-3.176-10.773-.402-1.6 1.61-2.052 4.073-2.479 6.209l-2.076 10.093-3.35 16.315-1.888-7.881-3.315-14.103-1.322-5.67c-.428-1.718-.87-3.34-2.117-4.678-1.512-1.616-3.392-1.964-5.48-2.11l-.967-.1zm68.113 0l-.97.1c-2.447.17-4.793.65-6.462 2.64-1.372 1.637-1.84 3.993-1.843 6.086v42.307c.002 2.026.555 4.359 2.082 5.787 2.605 2.435 8.133 2.499 10.795.135 1.46-1.3 2.187-3.444 2.21-5.368v-25.58l4.717 7.328 9.823 15.489 3.07 4.838c.926 1.487 1.87 3.072 3.435 3.962 2.031 1.155 4.128 1.041 6.37 1.014.757-.009 1.492-.162 2.216-.375 3.888-1.155 5.28-3.973 5.55-7.783l.124-1.383V304.36c-.002-2.164-.399-4.587-1.963-6.21-2.71-2.819-8.925-2.706-11.492.277-1.748 2.03-1.633 4.147-1.633 6.625v24.472c-.618-.575-1.237-1.743-1.707-2.49l-3.252-5.254-10.125-16.314-2.494-4.012c-1.483-2.362-2.412-3.96-5.265-4.873a14.51 14.491 0 00-3.186-.492zm-21.877.027c-1.176.165-1.87.127-3.043.62-3.02 1.274-4.394 4.05-4.43 7.208v42.864c.005 3.112 1.226 6.155 4.291 7.406 1.555.635 2.26.615 3.877.613 4.027-.009 7.288-2.948 7.338-7.053v-44.382c-.005-2.718-1.397-5.228-3.877-6.448-1.112-.547-2.375-.745-3.6-.828h-.556zm-150.314 13.686a15.595 15.45 0 00-15.594 15.451 15.595 15.45 0 0015.594 15.45 15.595 15.45 0 0015.595-15.45 15.595 15.45 0 00-15.595-15.451zm21.837.582v29.578h5.657V321.6l14.86 18.36h4.933v-29.578h-5.647v18.441l-14.73-18.441h-5.073zm-21.712 5.226a8.858 9.641 0 018.859 9.643 8.858 9.641 0 01-8.86 9.64 8.858 9.641 0 01-8.857-9.64 8.858 9.641 0 018.858-9.643z"/>
</svg>
