<svg xmlns="http://www.w3.org/2000/svg" viewBox="0 0 512 512">
    <g fill="#fff">
            <path d="M-34.267 663.511a.18.18 0 0 0-.192 0c-8.267 5.088.155 6.514 3.398 7.032.29.048.318.39.048.49-14.263 4.997-9.021 11.293-7.04 13.128.19.182-.017.454-.291.427-19.614-2.162-23.912 6.65-24.747 9.312-.073.236-.454.273-.582.064-6.268-10.22-23.184-7.268-28.144-6.087-.327.073-.518-.264-.255-.445 11.683-8.195 2.462-14.7-1.045-16.462-.263-.136-.127-.472.2-.472 20.586.172 21.786-8.822 21.74-11.256 0-.219.318-.337.518-.191 12.574 8.685 21.958.672 23.866-1.208.072-.073.048-.21-.055-.236-12.337-4.08-28.844-5.878-46.759-4.425-6.096.5-11.965 1.336-17.515 2.453l-2.626.582a.104.104 0 0 0-.063.163 597 597 0 0 0 5.823 8.994c1.89 2.835 2.326 3.834 3.716 4.924 1.49 1.163 1.98 1.454 2.689 2.526 1.508 2.27.227 3.924-.636 4.506-.863.581-2.88 1.144-4.397-1.118-.718-1.072-.79-1.635-1.308-3.46-.473-1.709-1.227-2.49-3.126-5.325-.472-.717-5.977-8.594-6.931-9.966a.33.33 0 0 0-.382-.136c-19.505 5.106-33.95 13.882-38.11 23.54a.15.15 0 0 0 .127.217c2.625.354 29.607 4.006 31.197 4.197 3.552.4 4.642.736 6.45.354 1.953-.4 2.507-.608 3.86-.445 2.826.327 3.28 2.48 3.153 3.58-.127 1.099-1.044 3.098-3.879 2.78-1.344-.155-1.808-.618-3.616-1.445-1.68-.781-2.861-.736-6.413-1.145-1.49-.172-29.408-3.08-31.897-3.334a.162.162 0 0 0-.182.164c-.016.517 0 1.344.037 1.771 1.281 16.017 32.024 26.619 68.681 23.666s64.439-17.733 64.439-35.785c0-6.695-8.776-11.32-9.748-11.91z" transform="matrix(1.01508 0 0 1.01508 345.928 -539.566)"/>
            <path d="M-26.01 690.411c-6.168 12.265-29.334 23.966-57.77 27.11a.677.677 0 0 0-.6.726l5.288 65.856c.027.39.382.681.772.636 28.1-3.27 48.986-16.516 49.585-27.146.6-10.638 3.38-67 3.38-67 .016-.363-.482-.508-.645-.181zM-8.149 638.982c-1.163-1.735-3.425-1.735-4.751-.527-1.445 1.318-41.49 29.653-43.989 31.343-2.816 1.908-3.597 2.67-5.287 3.152-1.817.518-2.38.6-3.443 1.327-2.253 1.526-1.68 3.552-1.1 4.415.582.863 2.245 2.153 4.489.627 1.072-.727 1.344-1.209 2.507-2.717 1.081-1.399 2.071-1.835 4.888-3.743 2.489-1.69 43.634-28.399 45.387-29.253 1.608-.78 2.453-2.889 1.29-4.624zM-118.229 657.107c.064.081.164.127.264.1l3.906-.9c.082-.016.118-.109.073-.181-8.24-12.919-19.95-31.56-20.505-32.714-.763-1.59-2.816-2.435-4.515-1.29-1.699 1.144-1.708 3.37-.536 4.687.818.918 12.628 17.834 21.304 30.298zM-157.575 685.288c.181-1.545.518-2.88.954-4.089a.147.147 0 0 0-.118-.2c-.972-.136-5.46-.772-7.804-1.117-5.833-.863-11.683-1.735-17.497-2.735-1.826-.318-3.57 1.045-3.689 2.89a3.143 3.143 0 0 0 2.944 3.334c7.885.517 23.184 1.907 25.01 2.07.1.01.191-.062.2-.163zM-92.074 733.246c-1.49.064-41.98 2.671-58.451-13.854-.11-.11-.3 0-.264.145l9.412 45.533c4.997 22.503 53.382 20.332 53.382 20.332a.73.73 0 0 0 .718-.8l-4.061-50.692a.71.71 0 0 0-.736-.664z" transform="matrix(1.01508 0 0 1.01508 345.928 -539.566)"/>
            <path d="M455.738 669.253a15.54 15.54 0 0 1-5.841-5.842q-2.126-3.705-2.126-8.312c0-3.07.708-5.923 2.126-8.394a15.24 15.24 0 0 1 5.841-5.797c2.471-1.39 5.27-2.089 8.395-2.089s5.905.7 8.348 2.09q3.666 2.086 5.751 5.796c1.39 2.47 2.09 5.269 2.09 8.394 0 2.553-.482 4.933-1.445 7.113a14.45 14.45 0 0 1-4.179 5.497 16.7 16.7 0 0 1-4.815 2.68q-2.685.98-5.75.98-4.689 0-8.395-2.125zM433.626 801.337v-19.942h14.063c.736 0 1.345-.118 1.835-.345a2.16 2.16 0 0 0 1.063-1.062c.227-.482.345-1.09.345-1.836v-97.48h26.673v97.48c0 5.288-.927 9.63-2.77 13.037-1.845 3.407-4.616 5.95-8.304 7.622-3.698 1.672-8.413 2.517-14.145 2.517h-18.751zM365.635 678.547c-9.712 0-18.079 1.99-25.092 5.969q-10.521 5.968-16.016 16.57c-3.66 7.077-5.496 15.272-5.496 24.584s1.835 17.569 5.496 24.582 9.02 12.43 16.06 16.236c7.042 3.807 15.428 5.705 25.14 5.705 3.46 0 6.777-.272 9.93-.808 3.152-.545 6.122-1.292 8.902-2.264 4.033-1.472 7.64-3.424 10.82-5.832a36 36 0 0 0 8.094-8.521c2.216-3.262 3.952-6.83 5.197-10.692l-22.584-6.732a7.2 7.2 0 0 1-.555 1.834c-.254.545-.5 1.064-.726 1.582-1.081 2.39-2.444 4.387-4.088 6.004s-3.608 2.853-5.88 3.707c-2.27.854-4.886 1.28-7.839 1.28q-8.175-.001-13.082-3.07-4.905-3.065-7.113-8.857c-.954-2.498-1.6-5.37-1.936-8.603h63.885c1.59-9.712.99-18.579-1.79-26.582v-.02c-2.78-8.013-7.712-14.353-14.78-19.04-7.068-4.689-15.927-7.032-26.547-7.032m-.172 19.006c3.125 0 5.878.452 8.267 1.361 2.045.854 3.807 2.036 5.288 3.535 1.48 1.508 2.644 3.307 3.498 5.414.854 2.099 1.416 4.515 1.707 7.24h-38.739a34.6 34.6 0 0 1 1.318-4.94c1.481-4.144 3.751-7.287 6.813-9.413s7.015-3.197 11.848-3.197zM284.4 770.23V647.36h26.672V770.23z" transform="translate(15.593 -388.38)scale(1.00954)"/>
            <path d="M235.771 678.629q-7.936 0-13.857 2.98-5.924 2.98-9.77 8.627c-2.562 3.756-4.444 8.29-5.638 13.571V680.59h-25.5v115.755h25.5l.08-52.073c1.202 5.072 3.075 9.403 5.637 12.994s5.804 6.353 9.726 8.253 8.498 2.86 13.736 2.86q10.784.002 19.085-5.316t12.917-15.488c3.077-6.789 4.619-14.834 4.619-24.159s-1.569-17.508-4.697-24.236l.007.007c-3.138-6.728-7.45-11.833-12.959-15.328-5.508-3.486-11.8-5.23-18.886-5.23zm-9.385 19.87c.82 0 1.795.078 2.945.244 3.539.435 6.606 1.735 9.194 3.888s4.594 5.001 6.006 8.54c1.42 3.547 2.126 7.6 2.126 12.184 0 5.072-.827 9.5-2.492 13.283l-.009-.01q-2.494 5.688-7.067 8.707c-3.05 2.014-6.6 3.025-10.626 3.025s-7.564-1.011-10.588-3.025c-3.024-2.013-5.342-4.907-6.946-8.663-1.603-3.757-2.415-8.174-2.415-13.238 0-5.063.803-9.482 2.415-13.247 1.604-3.756 3.913-6.65 6.91-8.663 2.999-2.014 6.512-3.025 10.547-3.025z" transform="translate(15.593 -388.38)scale(1.00954)"/>
            <path d="M144.23 680.673h26.673v89.557H144.23zM149.218 669.253a15.46 15.46 0 0 1-5.833-5.842c-1.417-2.47-2.135-5.241-2.135-8.312 0-2.553.473-4.888 1.409-6.986a15.7 15.7 0 0 1 3.96-5.415 14.9 14.9 0 0 1 5.878-3.198c.8-.227 1.617-.4 2.471-.508.854-.11 1.736-.173 2.644-.173 3.125 0 5.905.7 8.349 2.09s4.36 3.325 5.75 5.796 2.09 5.269 2.09 8.394c0 2.898-.627 5.542-1.871 7.922-1.309 2.553-3.225 4.588-5.751 6.096s-5.378 2.262-8.567 2.262-5.923-.709-8.394-2.126zM74.223 680.673h26.418v26.5c1.472-7.613 4.016-13.573 7.623-17.897 3.606-4.315 7.785-7.114 12.527-8.395q7.114-1.918 14.527.048v24.202c-1.817-.563-4.079-.863-6.777-.89s-5.551.309-8.567 1.026a29.2 29.2 0 0 0-8.35 3.362 21.8 21.8 0 0 0-5.75 4.896c-1.617 1.963-2.898 4.316-3.833 7.077-.936 2.753-1.409 5.896-1.409 9.412v40.218H74.214v-89.557zM24.929 767.423c-3.698-1.871-6.46-4.688-8.313-8.44q-2.768-5.628-2.77-14.226V702.24H-4.051v-21.558h17.897v-19.006l26.672-12.273v31.27H64.72v21.558H40.518v43.116c0 .736.11 1.354.345 1.835a2.16 2.16 0 0 0 1.063 1.063c.482.227 1.09.345 1.836.345h20.795v21.64H38.992c-5.678 0-10.366-.936-14.063-2.816z" transform="translate(15.593 -388.38)scale(1.00954)"/>
    </g>
</svg>
