<svg xmlns="http://www.w3.org/2000/svg" height="512" width="512">
    <path fill="#fff" d="M264.871 10.042c-34.358-1.115-67.509 20.338-87.112 50.22h26.9c40.7-37.506 71.496-38.724 111.191 0h25.533c-22.35-34.834-49.796-49.353-76.512-50.22zM72.054 68.22a21.919 21.919 0 00-21.959 21.97v389.84A21.919 21.919 0 0072.06 502h367.88a21.919 21.919 0 0021.965-21.97V90.19a21.919 21.919 0 00-21.965-21.97zm23.223 137.96h29.917v38.252h47.084l25.01 68.664 24.52-69.64h26.487l-5.596 16.403c7.142-15.513 29.337-20.15 29.337-20.15s28.9-8.037 55.138 15.26l-12.479 15.955c-26.515-20.896-48.376-10.933-47.514 0 0 0-2.276 11.376 31.56 14.565 21.895 4.407 29.962 14.467 32.944 21.838v-64.142h29.824v17.467c11.089-12.761 23.252-21.776 38.954-21.305 10.761.328 27.176 3.258 29.836 19.794v90.157H400.48V272.7c-12.22-13.985-24.946-6.653-38.97 4.837v71.76h-29.82v-26.744c-3.93 11.49-15.966 33.88-49.841 31.68 0 0-21.643-1.586-45.182-17.77l10.744-17.34c38.109 23.976 54.328 10.537 55.305 4.895 7.848-15.938-34.202-19.718-34.202-19.718-17.938-3.178-32.083-16.024-27.544-39.38l-28.48 83.487h-30.893l-32.37-84.848h-24.028v55.11c-.143 5.717 1.592 14.863 23.787 11.347v19.132c-21.66 4.85-53.577 7.573-53.703-28.21v-57.38h-17.54l-.121-19.126h17.655z"/>
</svg>
