<svg xmlns="http://www.w3.org/2000/svg" xml:space="preserve" width="512" height="512">
    <g fill="#ba0df9">
        <path d="M148.21 256c0 12.68-10.274 22.983-22.983 22.983S102.244 268.71 102.244 256s10.274-22.983 22.983-22.983S148.21 243.29 148.21 256M10 258.52c33.852 0 61.279-27.428 61.279-61.28H32.983c0 12.68-10.274 22.983-22.983 22.983ZM186.506 256c0-33.852-27.427-61.279-61.279-61.279-22.275 0-43.787 12.227-54.6 33.427-8.207 16.077-21.907 27.484-37.644 33.117v53.495H71.28v-29.635c10.36 19.162 30.625 32.154 53.948 32.154 33.852 0 61.28-27.427 61.28-61.279M462.842 296.277q-.17-.297-.17-.764v-8.123c0-.283.113-.538.311-.765.198-.198.453-.311.765-.311 2.462-.057 4.443-.255 5.887-.623 1.443-.34 2.604-1.019 3.453-2.038.85-.99 1.528-2.462 1.981-4.415.057-.113.057-.283 0-.538l-14.492-44.013a1 1 0 0 1-.084-.453c0-.538.31-.793.962-.793h11.039c.65 0 1.047.283 1.245.878l7.416 28.644q.084.255.255.255t.254-.255l7.416-28.644c.17-.595.594-.878 1.245-.878h10.784c.34 0 .595.114.765.312.141.198.17.51.056.934l-15.284 45.966q-2.208 6.454-4.5 9.68c-1.529 2.151-3.68 3.736-6.454 4.727-2.774.99-6.68 1.5-11.746 1.5h-.623c-.17 0-.311-.113-.453-.311zM444.5 217.393c.199-.198.453-.312.765-.312h10.33c.284 0 .539.114.765.312.198.198.311.453.311.764v59.75c0 .284-.113.538-.31.765a1.05 1.05 0 0 1-.765.311h-10.331c-.283 0-.538-.113-.764-.311a1.05 1.05 0 0 1-.312-.764v-2.916c0-.17-.056-.283-.17-.311-.113-.028-.226 0-.34.141-2.462 3.227-5.858 4.869-10.16 4.869s-7.671-1.16-10.643-3.453-5.123-5.463-6.397-9.454c-.99-3.057-1.5-6.623-1.5-10.7 0-4.075.538-7.84 1.585-10.953 1.359-3.764 3.482-6.765 6.397-8.972 2.915-2.208 6.538-3.312 10.812-3.312s7.53 1.472 9.907 4.415q.17.255.34.17t.17-.34v-18.907c0-.283.112-.537.31-.764zm-.396 38.833c0-3.934-.65-7.047-1.953-9.283-1.358-2.293-3.34-3.454-5.915-3.454s-4.869 1.16-6.284 3.454c-1.472 2.292-2.208 5.434-2.208 9.368s.623 6.482 1.868 8.831c1.472 2.548 3.652 3.793 6.539 3.793s4.727-1.274 6.198-3.793c1.19-2.18 1.755-5.151 1.755-8.916M410.932 259.057c-.057.707-.453 1.047-1.16 1.047h-27.315c-.34 0-.48.142-.34.453.17 1.189.51 2.35.963 3.538.453 1.189 0 0 0 0 1.529 3.312 4.642 4.953 9.369 4.953q5.646-.084 8.916-4.585c.226-.34.51-.538.792-.538s.396.113.623.34l6.368 6.283c.283.283.453.567.453.793s-.113.34-.34.708c-1.952 2.405-4.5 4.274-7.557 5.604s-6.368 1.981-10.02 1.981c-4.749 0-9.396-1.16-12.906-3.453s-6.029-5.52-7.557-9.623c-1.246-2.944-1.812-6.794-1.812-11.577s.453-6.085 1.33-8.576c1.359-4.19 3.737-7.5 7.105-9.992 3.396-2.462 7.416-3.708 12.057-3.708 5.523 0 10.615 1.699 14.18 5.124 3.567 3.424 5.718 7.981 6.483 13.699.226 1.487.51 4.783.368 7.529m-28.192-9.822c-.254.85-.48 1.472-.679 2.69 0 .339.17.48.481.48h16.841c.397 0 .51-.17.397-.48-.312-1.756-.566-2.548-.595-2.605-.028-.056.085.283.085.283-.594-1.953-1.613-3.453-3.057-4.528-1.472-1.076-3.255-1.614-5.406-1.614-4.076 0-6.793 1.925-8.095 5.746zM361.484 236.951c2.604 2.774 3.878 6.652 3.878 11.662v29.238c0 .283-.114.538-.312.764-.198.227-.453.312-.764.312h-10.331c-.283 0-.538-.114-.764-.312a1.05 1.05 0 0 1-.312-.764V251.33c0-2.406-.622-4.33-1.868-5.746-1.245-1.415-2.887-2.123-4.953-2.123s-3.708.708-5.01 2.123-1.953 3.312-1.953 5.66v26.607c0 .283-.113.538-.311.764-.198.227-.453.312-.765.312h-10.19c-.282 0-.537-.114-.763-.312a1.05 1.05 0 0 1-.312-.764V251.33c0-2.35-.736-4.246-2.038-5.69s-2.972-2.179-5.038-2.179-3.453.566-4.727 1.67c-1.273 1.132-1.953 2.689-2.207 4.67v28.022c0 .283-.114.537-.312.764s-.453.311-.764.311h-10.303c-.283 0-.537-.113-.764-.311a1.05 1.05 0 0 1-.311-.764v-43.306c0-.283.113-.538.311-.764.198-.198.453-.312.764-.312h10.275c.283 0 .538.114.764.312.198.198.311.453.311.764v3.453c0 .17.085.283.198.34q.17.084.34-.17c2.406-3.595 6.086-5.378 11.18-5.378 2.875 0 5.52.623 7.727 1.868s3.906 3 5.095 5.293c.17.34.397.34.623 0 1.302-2.406 3.057-4.217 5.265-5.378 2.207-1.189 4.698-1.755 7.472-1.755q6.878 0 10.784 4.161zM262.475 275.756c-3.538-2.604-5.944-6.113-7.246-10.614-.82-2.774-1.245-5.774-1.245-9s.424-6.595 1.245-9.37c1.359-4.358 3.793-7.783 7.331-10.245 3.538-2.463 7.784-3.708 12.737-3.708s8.944 1.217 12.369 3.68c3.425 2.433 5.83 5.858 7.246 10.217.934 2.944 1.415 6.029 1.415 9.284s-.424 6.17-1.245 8.916c-1.302 4.585-3.708 8.208-7.19 10.812-3.51 2.632-7.727 3.934-12.68 3.934s-9.199-1.302-12.737-3.877zm17.69-8.576c1.359-1.189 2.321-2.802 2.916-4.868.48-1.897.707-3.934.707-6.199s-.226-4.557-.707-6.283c-.651-2.01-1.642-3.567-3-4.67-1.36-1.133-3-1.67-4.954-1.67s-3.68.566-4.981 1.67c-1.33 1.132-2.293 2.688-2.86 4.67-.48 1.415-.707 3.51-.707 6.283s.198 4.727.623 6.199c.594 2.066 1.585 3.68 2.972 4.868s3.085 1.755 5.095 1.755 3.594-.594 4.953-1.755zM217.952 276.124c-3.453-2.349-5.915-5.604-7.387-9.708-.99-2.944-1.5-6.425-1.5-10.416 0-3.99.51-7.36 1.5-10.246 1.415-4.02 3.85-7.161 7.33-9.454 3.482-2.293 7.558-3.453 12.285-3.453s8.859 1.189 12.425 3.538c3.567 2.35 5.944 5.321 7.105 8.916.481 1.415.707 4.047.707 4.755v.17c0 .538-.283.849-.877.962h-10.416c-.538 0-.962-.283-1.047-.877l-.198-1.5c-.312-1.783-1.33-2.802-2.746-3.793-1.415-.99-3.085-1.5-5.038-1.5s-3.482.48-4.784 1.415c-1.302.934-2.207 2.236-2.745 3.878-.651 1.755-.962 4.189-.962 7.246 0 3.056.283 5.49.877 7.246.538 1.754 1.472 3.141 2.774 4.16 1.33.99 2.943 1.5 4.812 1.5 1.868 0 3.424-.48 4.811-1.471 1.387-.963 2.35-2.321 2.859-4.02.057-.113.142-.622.17-.792.056-.708.453-.963 1.217-.934h10.19c.594.085.877.424.877.962s-.17 3.029-.538 4.33c-1.245 3.935-3.651 7.049-7.19 9.285-3.565 2.236-7.67 3.368-12.34 3.368s-8.802-1.189-12.227-3.538z"/>
    </g>
</svg>
