<svg width="512" height="512" xmlns="http://www.w3.org/2000/svg"><g transform="matrix(.54223 0 0 .54223 6.032 117.102)"><ellipse cx="255.45" cy="257.67" rx="227.96" ry="228.62" fill="#fff"/><path fill="#06b4ff" d="M256 10.805A245.18 245.195 0 0 0 10.82 256 245.18 245.195 0 0 0 256 501.195a245.18 245.195 0 0 0 245.18-245.196A245.18 245.195 0 0 0 256 10.805zm50.698 130.59a114.26 114.78 0 0 1 114.259 114.779 114.26 114.78 0 0 1-114.26 114.781 114.26 114.78 0 0 1-101.781-62.893v57.75H134.04V251.868c-21.827 8.51-40.766 9.139-42.962 8.94v-71.846s38.593 0 42.962-42.962h70.876v58.028a114.26 114.78 0 0 1 101.782-62.635zm0 71.344a43.238 43.435 0 0 0-43.24 43.435 43.238 43.435 0 0 0 43.24 43.436 43.238 43.435 0 0 0 43.237-43.436 43.238 43.435 0 0 0-43.237-43.435z"/></g><g style="fill:#2a2a2a;fill-opacity:1"><path d="M290 739.5V209l234.188-1.865C526.638 351.75 528.303 496.375 530 641l306.31.61c.236-143.88 1.997-290.523 3.69-434.39h230V1270H840V840H530v430H290V739.5M1180 741V210h233c177 0 247.18 3.676 292 15.289 125 32.387 207.07 99.981 244.91 201.711 18.25 49.055 20.09 78 20.09 316 0 282-5.48 322.05-53.77 393-28.93 42.52-81.23 79.85-151.23 107.94-45.05 18.07-76.5 20.45-317.5 24.06l-267.5 4zm477 293c15.27-11.45 38.23-36 50.5-54 21.52-31.566 22.5-42 22.5-240s-.98-208.434-22.52-240c-44.26-64.883-67.48-74.551-188.48-78.469L1410 418v644l109.5-3.5c92-2.94 113.98-6.86 137.5-24.5" style="fill:#2a2a2a;fill-opacity:1;fill-rule:nonzero;stroke:none" transform="matrix(.11366 0 0 -.11366 275.925 339.195)"/></g></svg>