<svg xmlns="http://www.w3.org/2000/svg" width="512" height="512"><ellipse cx="255.45" cy="257.67" rx="227.96" ry="228.62" fill="#fff" stroke-width=".2466"/>
	<path fill="#06b4ff" d="M256 10.805A245.18 245.195 0 0010.82 256 245.18 245.195 0 00256 501.195a245.18 245.195 0 00245.18-245.196A245.18 245.195 0 00256 10.805zm50.698 130.59a114.26 114.78 0 01114.259 114.779 114.26 114.78 0 01-114.26 114.781 114.26 114.78 0 01-101.781-62.893v57.75H134.04V251.868c-21.827 8.51-40.766 9.139-42.962 8.94v-71.846s38.593 0 42.962-42.962h70.876v58.028a114.26 114.78 0 01101.782-62.635zm0 71.344a43.238 43.435 0 00-43.24 43.435 43.238 43.435 0 0043.24 43.436 43.238 43.435 0 0043.237-43.436 43.238 43.435 0 00-43.237-43.435z"/>
</svg>
