<svg version="1.1" viewBox="0 0 512 512" xmlns="http://www.w3.org/2000/svg">
 <ellipse cx="96.844" cy="256.06" rx="78.905" ry="77.033" fill="#fff" stroke-width=".21832"/>
 <path d="M97.36 168.351A87.643 87.649 0 009.717 256a87.643 87.649 0 0087.643 87.649 87.643 87.649 0 0087.644-87.65 87.643 87.649 0 00-87.644-87.648zm18.123 46.682a40.844 41.03 0 0140.844 41.03 40.844 41.03 0 01-40.844 41.03 40.844 41.03 0 01-36.384-22.483v20.644H53.764v-40.73c-7.802 3.042-14.573 3.266-15.358 3.195v-25.682s13.796 0 15.358-15.358h25.335v20.743a40.844 41.03 0 0136.384-22.39zm0 25.503a15.456 15.527 0 00-15.457 15.526 15.456 15.527 0 0015.457 15.527 15.456 15.527 0 0015.456-15.527 15.456 15.527 0 00-15.456-15.526zm83.342-24.147v3.135h6.525v72.73h-6.525v3.134h33.544v-3.135h-6.584v-25.079h5.408c22.59 0 33.034-9.1 33.034-24.628 0-19.2-13.357-26.157-32.015-26.157zm26.96 3.135c10.821 0 18.046 4.07 18.046 22.277 0 18.02-5.22 22.238-18.046 22.238zm65.285 18.319c-16.373 0-26.764 11.766-26.764 30.546 0 18.951 11.22 28.273 29.252 28.273 14.753 0 20.18-5.736 23.433-10.6l-2.488-1.607c-2.132 2.633-7.78 7.328-14.832 7.328-9.888 0-16.43-8.269-16.83-21.474h35.11c0-25.086-13.813-32.466-26.881-32.466zm.137 3.076c3.46 0 7.935 7.236 7.935 25.628v.627h-16.301v-.627c0-15.252 3.74-25.628 8.366-25.628zm58.231-3.095c-14.888 0-25.53 5.952-25.53 15.243 0 5.668 4.124 9.758 9.13 9.758 4.798 0 9.17-3.611 9.17-9.17 0-4.094-2.219-7.303-2.234-9.62-.012-1.77 1.318-3.174 5.525-3.174 7.226 0 8.504 5.398 8.504 11.266v11.912c-22.036 2.195-32.8 6.889-32.8 20.142 0 8.103 6.433 12.442 15.577 12.442 9.495 0 13.788-3.16 17.556-6.153 2.667 3.527 5.305 6.153 12.324 6.153 9.32 0 13.617-4.037 13.617-4.037l-.647-.999c-4.115.983-7.131 0-7.131-7.485v-24.451c0-14.987-6.094-21.827-23.061-21.827zm4.565 29.35v18.81s-2.927 3.957-7.073 3.957c-4.074 0-8.406-4.02-8.406-10.991 0-7.09 6.764-11.03 15.479-11.776zm24.566-.159c0-18.892 12.086-29.206 29.593-29.206 13.337 0 23.861 7.186 23.861 17.675 0 5.47-3.934 9.73-9.339 9.73-6.766 0-9.877-4.567-9.877-10.39 0-5.295 3.247-14.057-3.789-14.057-8.43 0-11.833 10.798-11.833 25.743 0 16.381 5.664 25.33 17.237 25.33 6.548 0 11.62-4.34 14.176-7.607l2.593 2.005c-4.18 5.03-8.713 10.442-22.75 10.442-17.267 0-29.872-7.77-29.872-29.665zm54.433 28.365v-3.135h5.956v-72.73h-5.956v-3.134h24.64v28.214c3.297-3.214 8.773-6.83 17.769-6.83 9.904 0 20.79 5.389 20.79 21.61v32.87h6.082v3.135H471.75v-3.135h6.082v-35.737c0-6.333-2.356-13.1-9.503-13.1-6.801 0-10.686 6.83-10.686 6.83v42.007h5.769v3.135z" fill="#ba0df9"/>
</svg>
