<svg version="1.1" viewBox="0 0 512 512" xmlns="http://www.w3.org/2000/svg">
 <path d="m333.6 238.88-7.5789 28.285h37.211l-7.5613-28.219z" fill="#fff"/>
 <ellipse cx="88.036" cy="256.92" rx="71.583" ry="72.798" fill="#fff" stroke-width=".2191"/>
 <path d="M88.055 177.44c-43.388 0-78.56 35.172-78.56 78.56 0 43.383 35.177 78.56 78.56 78.56s78.56-35.172 78.56-78.56c0-43.388-35.172-78.56-78.56-78.56zm122.898 41.408a57.336 57.336 0 00-8.468.632 35.777 35.777 0 00-8.062 2.167 24.8 24.8 0 00-6.982 4.24c-2.104 1.804-3.93 4.847-3.93 4.847a36.963 36.963 0 00-2.091 4.18 15.046 15.046 0 00-.603 2.21 21.605 21.605 0 00-.504 4.556c0 4.33.766 7.807 2.298 10.422 1.532 2.616 4.331 4.82 4.331 4.82a35.477 35.477 0 003.89 2.59 19.284 19.284 0 002.051.892 61.721 61.721 0 004.641 1.58 60.39 60.39 0 004.865 1.26 234.7 234.7 0 015.135 1.171 85.47 85.47 0 003.963.814 15.825 15.825 0 011.648.35c1.227.398 2.728.922 3.338 1.154l.602.302a12.26 12.26 0 011.71 1.036 5.757 5.757 0 011.354 1.355 2.973 2.973 0 01.539 1.764c0 1.384-.315 2.452-.945 3.203a5.649 5.649 0 01-2.388 1.67 11.658 11.658 0 01-3.2.678 43.918 43.918 0 01-3.288.133l-2.29-.13a33.615 33.615 0 01-10.504-2.09c-3.222-1.212-7.845-3.527-7.845-3.527a2.658 2.658 0 00-3.351.933s-1.85 2.922-3.366 5.288c-1.517 2.365-3.42 5.29-3.42 5.29a2.207 2.207 0 00.756 3.14s6.148 3.55 10.603 4.865a56.66 56.66 0 0013.605 2.28l3.373.005a63.156 63.156 0 0011.353-1.033 32.073 32.073 0 0010.179-3.598 20.567 20.567 0 007.306-6.979c1.848-2.94 2.772-6.688 2.772-11.244a31.69 31.69 0 00-.338-4.7 15.671 15.671 0 00-1.35-4.454 14.973 14.973 0 00-3.424-4.81 23.487 23.487 0 00-4.908-3.509 36.785 36.785 0 00-5.858-2.52 104.816 104.816 0 00-6.173-1.844c-2.11-.54-4.125-1.005-6.046-1.393a97.933 97.933 0 01-5.316-1.217 24.691 24.691 0 01-4.1-1.393c-1.112-.516-1.878-1.104-2.298-1.764a4.112 4.112 0 01-.539-2.16c0-1.14.27-2.053.812-2.74a5.162 5.162 0 012.07-1.575 8.962 8.962 0 012.749-.675c.99-.09 1.938-.136 2.837-.136a33.567 33.567 0 0110.582 1.622c3.273 1.081 7.997 3.187 7.997 3.187a2.653 2.653 0 003.306-1.078s1.715-2.996 3.131-5.44c1.416-2.443 3.18-5.45 3.18-5.45a2.205 2.205 0 00-.89-3.1s-6.3-3.284-10.803-4.4a56.62 56.62 0 00-13.696-1.678zm-106.653.229h.01a36.926 36.926 0 11-32.501 54.472v17.857h-23.08v-36.582a36.923 36.923 0 01-13.843 2.693v-23.079a13.857 13.857 0 0013.842-13.844H71.81a36.923 36.923 0 01-.01.863v16.995a36.916 36.916 0 0132.501-19.375zm143.39 1.104a2.35 2.35 0 00-2.344 2.342v65.452a2.35 2.35 0 002.344 2.343h14.807a2.35 2.35 0 002.343-2.343v-22.237a2.35 2.35 0 012.345-2.343h16.36a2.35 2.35 0 012.342 2.343v22.237a2.35 2.35 0 002.344 2.343h14.807a2.35 2.35 0 002.343-2.343v-65.452a2.35 2.35 0 00-2.343-2.342H288.23a2.35 2.35 0 00-2.344 2.342v20.618a2.353 2.353 0 01-2.342 2.345h-16.36a2.353 2.353 0 01-2.345-2.345v-20.618a2.348 2.348 0 00-2.343-2.342zm136.957 0a2.35 2.35 0 00-2.344 2.342v65.452a2.35 2.35 0 002.344 2.343h14.633a2.348 2.348 0 002.343-2.343v-26.303c0-1.29.577-1.462 1.277-.378l17.564 27.054c.7 1.08 2.33 1.965 3.62 1.965l17.052.005a1.867 1.867 0 001.544-2.915l-21.259-31.31a3.78 3.78 0 01-.025-3.895l19.254-29.122a1.867 1.867 0 00-1.557-2.895h-16.594c-1.287 0-2.905.891-3.587 1.985l-16.04 25.593c-.685 1.093-1.246.932-1.246-.358v-24.877a2.35 2.35 0 00-2.344-2.343zm66.665 0a2.348 2.348 0 00-2.343 2.342v65.452a2.35 2.35 0 002.343 2.343h48.848a2.353 2.353 0 002.346-2.343v-12.073a2.353 2.353 0 00-2.346-2.344h-29.599a2.353 2.353 0 01-2.346-2.343v-5.812a2.353 2.353 0 012.346-2.343h25.654a2.353 2.353 0 002.346-2.346v-11.161a2.35 2.35 0 00-2.346-2.343H470.56a2.353 2.353 0 01-2.346-2.346v-5.636a2.353 2.353 0 012.346-2.346h28.752a2.353 2.353 0 002.346-2.343v-12.016a2.35 2.35 0 00-2.346-2.342zm-113.78.09c-1.139 0-1.892.227-2.552 1.764l-24.003 64.698-.318.839a2.084 2.084 0 001.943 2.824h.925l14.005.013a2.724 2.724 0 002.55-1.763l3.923-10.497a2.721 2.721 0 012.55-1.763h14.494a2.721 2.721 0 012.545 1.763l4.008 10.517a2.716 2.716 0 002.545 1.763l14.077.013.866-.018a2.081 2.081 0 001.922-2.771l-.304-.865-23.875-64.738a2.726 2.726 0 00-2.552-1.779zM104.32 242.155a13.845 13.845 0 00-.009 27.69A13.845 13.845 0 00118.155 256a13.845 13.845 0 00-13.836-13.845zm239.512.993l2.129 4.316a5.117 5.117 0 003.86 2.79l4.761.69-3.446 3.37a5.125 5.125 0 00-1.471 4.535l.813 4.742-4.258-2.24a5.117 5.117 0 00-4.761 0l-4.261 2.24.814-4.742a5.117 5.117 0 00-1.471-4.535l-3.445-3.358 4.76-.69a5.12 5.12 0 003.854-2.8z" fill="#ff5a00"/>
</svg>
