<svg xmlns="http://www.w3.org/2000/svg" width="512" height="512">
    <path fill="#e6103b" d="M101.462 164.374a91.306 91.312 0 00-91.306 91.312 91.306 91.312 0 0091.306 91.311 91.306 91.312 0 0091.306-91.311 91.306 91.312 0 00-91.306-91.312zm18.88 48.632a42.55 42.745 0 0142.55 42.745 42.55 42.745 0 01-42.55 42.745 42.55 42.745 0 01-37.904-23.422v21.506H56.043v-42.432c-8.128 3.169-15.181 3.403-15.999 3.329V230.72s14.372 0 16-16h26.394v21.61a42.55 42.745 0 0137.904-23.325zm0 26.57a16.102 16.175 0 00-16.103 16.175 16.102 16.175 0 0016.103 16.176 16.102 16.175 0 0016.102-16.176 16.102 16.175 0 00-16.102-16.175z"/>
    <path fill="#e6103b" d="M214.208 214.54v82.502h50.836c1.64 0 2.84-.551 3.673-1.457l10.508-10.467c1.396-1.383 2.299-2.695 2.299-4.248v-14.448c0-1.245-.736-2.253-1.642-3.284l-7.224-7.224 6.567-6.567c1.572-1.538 2.334-2.988 2.299-4.372v-12.703c0-2.592-.527-3.716-1.663-4.947l-9.83-9.769c-1.93-1.683-3.232-3.017-5.91-3.017zm14.449 14.776h30.21c2.1 0 2.812.726 3.776 1.724l2.791 2.77c.75.751 1.313 1.67 1.313 2.484v3.571c0 .985-.384 1.622-.985 2.34l-4.925 4.884c-.869.82-1.498 1.683-3.283 1.683h-28.897v-19.456zm0 33.822h28.896c1.786 0 2.415.863 3.284 1.683l4.925 4.884c.6.718.985 1.355.985 2.34v3.57c0 .814-.564 1.734-1.314 2.484l-2.79 2.77c-.965 1-1.676 1.725-3.777 1.725h-30.21v-19.456zm81.435-48.598c-2.679 0-3.98 1.333-5.91 3.016l-9.83 9.77c-1.136 1.23-1.663 2.354-1.663 4.946v48.598c0 1.553.902 2.865 2.298 4.248l10.508 10.467c.834.906 2.034 1.457 3.674 1.457h34.356c1.64 0 2.84-.551 3.673-1.457l10.508-10.467c1.396-1.383 2.299-2.695 2.299-4.248v-48.598c0-2.592-.527-3.717-1.662-4.947l-9.831-9.769c-1.93-1.683-3.232-3.017-5.91-3.017zm4.926 14.776h22.657c2.101 0 2.812.726 3.776 1.724l2.792 2.77c.75.751 1.313 1.67 1.313 2.484v39.322c0 .814-.564 1.733-1.313 2.484l-2.792 2.77c-.964.999-1.675 1.724-3.776 1.724h-22.657c-2.102 0-2.812-.725-3.777-1.724l-2.79-2.77c-.75-.75-1.314-1.67-1.314-2.484v-39.322c0-.813.563-1.733 1.313-2.483l2.791-2.77c.965-1 1.675-1.725 3.777-1.725zm185.484-1.991l-9.831-9.769c-1.93-1.683-3.232-3.017-5.91-3.017h-49.912v82.503h50.835c1.64 0 2.84-.552 3.674-1.457l10.508-10.467c1.396-1.384 2.298-2.696 2.298-4.248v-48.6c0-2.59-.527-3.716-1.662-4.946zm-13.114 48.291c0 .814-.564 1.733-1.314 2.484l-2.791 2.77c-.964.999-1.675 1.724-3.776 1.724h-30.21v-53.278h30.21c2.101 0 2.812.726 3.776 1.724l2.791 2.77c.75.751 1.314 1.67 1.314 2.484zm-101.63-61.076h-14.613v82.502h52.614v-14.449h-38.166z" class="st0"/>
</svg>
