<svg xmlns="http://www.w3.org/2000/svg" height="512" width="512">
    <path fill="#3dbfb3" d="M163.73 127.412v257.176l2.81-2.744a337.676 337.676 0 0 1 5.315-5.078c1.39-1.32 5.52-5.181 9.143-8.635 3.623-3.42 7.755-7.314 9.143-8.635 1.389-1.32 5.587-5.247 9.312-8.77 3.725-3.52 8.06-7.652 9.65-9.142 1.593-1.524 6.84-6.501 11.649-11.04 4.808-4.535 9.82-9.21 11.105-10.394l2.338-2.1H502V127.413H163.73zM10.36 157.547l26.898 46.25h38.664l26.96-46.25H10.36zm96.726.234.002.004v-.004h-.002zm.002.004L30.844 288.742h55.69l47.73-84.726-27.176-46.23zm98.56 16.018c.304 0 .407 3.555.407 16.76v16.761l1.83-1.76c.982-.983 2.776-2.37 3.96-3.082 1.186-.71 2.946-1.49 3.86-1.726.95-.271 2.54-.643 3.557-.88 1.05-.237 3.183-.34 4.91-.237 1.693.068 4.197.372 5.586.677 1.456.338 4.03 1.286 5.96 2.268 2.574 1.253 4.095 2.303 6.06 4.13 1.422 1.32 3.217 3.32 3.962 4.403.745 1.118 1.863 3.115 2.473 4.436.643 1.354 1.455 3.656 1.861 5.146.373 1.49.812 4.234.914 6.096.101 1.896.034 4.673-.203 6.264-.203 1.592-.88 4.402-1.523 6.197-.644 1.828-1.66 4.166-2.303 5.215-.61 1.016-1.964 2.878-2.98 4.097-1.05 1.252-2.64 2.844-3.555 3.555-.948.711-3.048 1.964-4.74 2.777-1.66.846-3.962 1.76-5.08 2.032-1.117.27-3.317.642-4.875.845-1.964.237-3.59.238-5.249-.033-1.32-.17-3.182-.575-4.13-.812-.914-.27-2.847-1.119-4.235-1.864-1.388-.779-3.317-2.165-4.265-3.148l-1.795-1.727v6.23h-12.19v-35.825l-.035-35.79 5.69-5.486c3.115-3.014 5.891-5.485 6.128-5.52zm117.938 25.767h.002c1.625 0 4.129.203 5.586.508 1.422.304 3.284.847 4.097 1.186.812.338 2.2 1.117 3.08 1.693.88.61 2.405 1.863 3.387 2.81l1.76 1.694v-6.57h12.191v55.533h-12.191v-6.367l-2.1 2.1a17 17 0 0 1-4.671 3.353c-1.422.677-3.624 1.49-4.91 1.795-1.796.406-3.42.507-6.772.37-3.217-.1-5.012-.337-6.705-.913-1.286-.406-3.455-1.253-4.809-1.93-1.354-.644-3.351-1.896-4.435-2.777-1.083-.846-2.877-2.641-3.961-3.928-1.15-1.354-2.607-3.69-3.453-5.416-.813-1.693-1.796-4.201-2.202-5.588-.508-1.76-.78-3.86-.916-6.807-.1-2.64-.031-5.18.206-6.601.308-1.584.68-3.154 1.117-4.707.406-1.32 1.082-3.152 1.556-4.065.474-.949 1.422-2.538 2.133-3.554.677-1.016 2.304-2.88 3.592-4.131 1.252-1.22 3.25-2.845 4.4-3.59 1.185-.745 3.25-1.727 4.57-2.201 1.356-.474 3.387-1.085 4.505-1.356 1.117-.27 3.352-.507 4.943-.54zm-35.758.102v.002c2.066.033 4.675.302 5.86.607 1.151.27 2.267.645 2.47.848.203.203-.1 2.167-.879 5.723-.677 2.946-1.354 5.618-1.523 5.89-.135.27-.406.476-.576.442-.135-.068-1.186-.442-2.303-.815-1.355-.508-3.15-.778-5.418-.879-3.047-.17-3.623-.069-5.69.71-1.251.474-2.81 1.255-3.453 1.763-.644.474-1.692 1.692-2.369 2.707-.678.982-1.457 2.54-1.761 3.42-.508 1.423-.576 3.928-.678 18.996l-.135 17.338-6.162-.069-6.164-.101V201.06h12.19l-.034 2.878-.066 2.913 2.1-2.067c1.251-1.253 2.876-2.439 4.095-3.014 1.118-.508 3.082-1.218 4.402-1.556 1.761-.474 3.318-.611 6.094-.543zm160.672 0c2.133.068 4.977.34 6.332.644 1.32.27 3.555 1.014 4.977 1.59 1.388.576 3.522 1.695 4.673 2.44 1.185.745 2.946 2.066 3.928 2.912.982.813 2.574 2.607 3.522 3.928.915 1.32 2.065 3.148 2.539 4.095.474.914 1.253 2.744 1.693 4.065.44 1.286.983 3.996 1.186 5.994.305 2.743.305 4.47 0 6.974-.237 1.998-.848 4.606-1.526 6.57-.609 1.76-1.624 4.095-2.267 5.145-.644 1.084-2.167 3.015-3.319 4.301-1.185 1.287-3.114 3.013-4.265 3.826-1.118.812-2.981 1.93-4.098 2.473-1.118.575-2.947 1.353-4.098 1.726-1.118.372-3.792.915-5.925 1.186-2.133.27-4.536.44-5.383.371-.847-.1-2.677-.305-4.065-.508-1.389-.203-3.284-.574-4.232-.879a47.262 47.262 0 0 1-3.86-1.523c-1.185-.542-3.015-1.558-4.064-2.27-1.05-.71-3.149-2.608-4.672-4.199-2.269-2.37-3.082-3.521-4.504-6.433-1.185-2.438-1.93-4.537-2.37-6.704-.373-1.76-.779-4.165-.88-5.384-.136-1.558 0-3.319.508-6.06.406-2.27 1.184-4.946 1.861-6.538.643-1.49 1.661-3.553 2.303-4.603.61-1.05 2.405-3.217 3.996-4.81 2.336-2.335 3.555-3.217 6.264-4.605 1.863-.982 4.165-1.997 5.113-2.302.948-.304 2.845-.779 4.233-1.016 1.422-.27 4.165-.44 6.4-.406zm-82.283 1.22h6.433l.508 1.217c.27.677 2.033 5.284 3.895 10.227 1.896 4.978 3.554 9.347 3.724 9.719.17.373.679 1.693 1.153 2.912.508 1.22.879 2.335.879 2.47 0 .17.204.746.474 1.32.271.61.88 2.067 1.356 3.286.44 1.22 1.49 3.963 2.336 6.096a647.589 647.589 0 0 1 1.726 4.572c.203.507.542-.103 1.524-2.711.71-1.862 3.387-8.87 5.96-15.574 2.574-6.705 5.08-13.343 5.586-14.73a391.41 391.41 0 0 1 2.133-5.589l1.186-3.046 6.299-.102c5.08-.068 6.33 0 6.5.371.102.271-.509 2.066-1.32 3.996a398.18 398.18 0 0 0-2.946 7.246c-.779 2.032-1.625 4.166-1.896 4.74-.237.543-2.2 5.52-4.368 11.006-2.134 5.485-4.063 10.26-4.232 10.565-.17.305-.848 1.997-1.525 3.724-.677 1.727-1.693 4.37-2.268 5.86a67.49 67.49 0 0 1-1.66 4.062c-.338.745-.846 1.93-1.117 2.64l-.508 1.255-7.348-.069-7.347-.101-.442-1.186c-.237-.644-.778-2.165-1.252-3.384-.44-1.22-1.999-5.113-3.455-8.635-1.456-3.555-5.79-14.358-9.684-24.008-3.86-9.684-6.974-17.71-6.873-17.879.102-.135 3.048-.27 6.569-.27zm-41.108 10.53c-2.946 0-3.722.135-5.72.982-1.253.508-2.847 1.355-3.524 1.897-.677.508-1.727 1.455-2.336 2.1-.61.642-1.659 2.266-2.336 3.587-.745 1.524-1.387 3.489-1.726 5.317-.474 2.573-.474 3.25-.033 6.263.338 2.303.846 4.066 1.625 5.657.576 1.287 1.726 3.012 2.505 3.892.812.88 2.336 2.134 3.42 2.778 1.05.643 2.945 1.421 4.164 1.76 1.22.304 3.217.575 4.436.575 1.22.034 3.217-.236 4.436-.574 1.253-.34 2.946-1.05 3.826-1.558.88-.508 2.134-1.422 2.81-1.998.678-.61 1.83-1.999 2.54-3.116.71-1.084 1.625-3.048 1.997-4.334.61-1.998.712-2.91.577-6.771-.136-3.182-.339-4.875-.745-5.824-.339-.745-.813-1.829-1.084-2.405-.237-.575-1.083-1.794-1.828-2.709-.745-.914-2.2-2.234-3.25-2.912-1.017-.71-2.878-1.592-4.097-1.965-1.625-.508-3.083-.676-5.657-.642zm122.579 0c-1.693 0-3.894.237-4.842.474-.982.271-2.438.812-3.217 1.22-.813.404-2.1 1.287-2.912 1.93-.78.644-2 1.93-2.643 2.843-.677.915-1.692 2.743-2.234 4.064-.677 1.727-1.016 3.25-1.15 5.317-.137 2.032-.035 3.656.337 5.45.305 1.389.947 3.353 1.455 4.403.508 1.05 1.865 2.81 3.118 4.098 1.286 1.253 3.045 2.607 4.095 3.115 1.016.508 2.743 1.15 3.826 1.422 1.084.27 2.914.508 4.065.508 1.152 0 3.08-.237 4.266-.508 1.185-.305 3.082-1.017 4.166-1.592 1.083-.576 2.639-1.627 3.453-2.338.812-.71 1.964-2.1 2.607-3.047.61-.948 1.457-2.742 1.897-3.96.61-1.83.779-2.98.779-5.858 0-2.71-.17-4.2-.711-5.928-.407-1.286-1.018-2.876-1.424-3.52-.407-.643-1.557-2.066-2.607-3.183-1.015-1.084-2.709-2.404-3.725-2.912s-2.673-1.185-3.69-1.49c-1.15-.34-3.013-.542-4.91-.508zm-225.38.068c-2.572-.068-4.367.066-5.247.371-.745.237-2.101.814-3.05 1.32-.913.476-2.572 1.729-3.656 2.778a17.76 17.76 0 0 0-3.115 4.367c-.812 1.727-1.252 3.286-1.556 5.453-.305 2.404-.305 3.69.033 6.06.305 2.236.744 3.658 1.726 5.622.847 1.693 1.93 3.184 3.116 4.3 1.015.95 2.574 2.1 3.488 2.575.915.44 2.506 1.082 3.59 1.387 1.05.305 3.013.543 4.334.543 1.49 0 3.386-.271 4.74-.678 1.253-.373 3.182-1.287 4.299-1.998 1.186-.745 2.642-2.134 3.42-3.15.746-.982 1.693-2.47 2.1-3.284.405-.812.981-2.471 1.286-3.724.27-1.22.541-3.32.541-4.606 0-1.32-.237-3.452-.54-4.773-.306-1.32-.948-3.218-1.456-4.166-.474-.982-1.897-2.776-3.15-4.063-1.76-1.795-2.777-2.506-4.639-3.25-2.032-.847-2.91-.983-6.263-1.084z"/>
</svg>
