<svg xmlns="http://www.w3.org/2000/svg" width="512" height="512">
    <path fill="#0180ff" d="M10.004 179.5l30.223 51.965h43.44L113.96 179.5zm108.68.264v.003l.002-.003zm0 .003L33.02 326.906h62.57l53.628-95.194z"/>
    <path fill="#0180ff" d="M363.79 192.291l.198 53.73c-13.442-28.574-39.998-28.196-39.998-28.196-32.357.117-43.823 23.67-47.12 33.084-4.398-11.53-15.9-32.01-42.379-33.218-12.55-.573-28.38 7.608-28.38 7.608s-7.835-9.272-32.448-7.318c-19.84 1.576-30.376 19.288-35.168 30.801-2.36 5.667-3.326 6.903-3.326 6.903l.404 54.754h40.719s.043-16.478.146-30.64c.08-10.944-.8-21.038 4.583-20.978 5.296.059 4.734 9.857 4.948 20.56.284 14.258.194 31.058.194 31.058h40.72s-.12-13.774-.002-27.149c.128-14.59-.292-24.054 5.347-24.47 6.59-.484 5.309 12.169 5.366 25.096.058 12.969-.018 26.523-.018 26.523h41.747l-.04-25.463c10.546 27.018 39.181 25.334 39.181 25.334l48.134-.146v-31.113c11.32 36.097 50.27 31.26 50.27 31.26v-26.26a45.777 46.347 0 0041.883 27.708 45.777 46.347 0 0044.94-37.638h-34.85c-.258.773-.78 1.49-1.502 2.123-.721.634-1.643 1.185-2.699 1.627a15.266 15.266 0 01-3.504.97c-1.26.198-2.587.261-3.919.162a15.341 15.341 0 01-3.943-.806 12.533 12.533 0 01-3.575-1.934 11.374 11.374 0 01-2.816-3.215 12.71 12.71 0 01-1.002-2.138 15.145 15.145 0 01-.665-2.518h59.164a45.777 46.347 0 00.147-2.979 45.777 46.347 0 00-45.776-46.347 45.777 46.347 0 00-41.28 26.417v-26.852h-12.666v-26.34zm93.807 59.049a14.28 14.28 0 011.693.062c9.455.895 9.5 7.54 9.5 7.54h-21.512s2.247-7.413 10.319-7.602zm-136.279 8.109s3.042-.044 4.264 3.463v5.779l-4.817.014s-4.7.276-4.279-5.56c0 0 .786-3.682 4.832-3.696zm83.487.397h8.558a45.777 46.347 0 00-.39 5.567 45.777 46.347 0 00.22 4.462c-3.25-.26-7.593-1.283-8.377-4.855z"/>
</svg>
