<svg xmlns="http://www.w3.org/2000/svg" height="512" width="512">
    <path fill="#f2661a" d="M10.037 156.273l40.894 70.314h58.778l40.99-70.314zm147.053.357l.002.004.002-.004zm.002.004L41.18 355.727h84.662l72.564-128.807zm61.726 70.478v17.631h26.938v58.768h21.516v-58.768h27.766l-7.46-17.631zm76.318 0l29.87 76.4 14.93-.02 19.366-44.842 17.74 44.861h14.75l31.925-76.4h-22.255l-16.136 42.842-17.648-42.841h-16.626l-17.882 42.841-15.663-42.841zm164.96.026c-12.509 0-22.658 3.838-30.396 11.471-7.739 7.642-11.59 16.535-11.59 26.73 0 10.371 3.856 19.369 11.65 26.901 7.792 7.529 17.932 11.296 30.336 11.296 12.26 0 22.28-3.788 30.106-11.355 7.827-7.566 11.76-16.542 11.76-26.842 0-10.161-3.863-19.016-11.589-26.67-7.717-7.655-17.803-11.53-30.273-11.53zm-.118 18.633c6.239 0 11.275 1.798 15.083 5.535 3.813 3.737 5.71 8.717 5.71 14.847 0 6.1-1.897 11.038-5.71 14.788-3.808 3.754-8.844 5.594-15.083 5.594-6.265 0-11.312-1.84-15.137-5.594-3.83-3.75-5.71-8.691-5.71-14.788 0-6.13 1.88-11.11 5.71-14.847 3.825-3.737 8.872-5.535 15.137-5.535z" style="-inkscape-font-specification:'Gill Sans Ultra Bold Condensed,'" font-weight="400" font-size="40" font-family="Gill Sans Ultra Bold Condensed"/>
</svg>
