<svg xmlns="http://www.w3.org/2000/svg" height="512" width="512">
    <path fill="#34A2FB" d="M42.646 141.169A32.625 32.625 0 0010 173.832a32.63 32.63 0 0032.65 32.65c17.963 0 32.66-14.612 32.66-32.65 0-18.063-14.693-32.663-32.664-32.663zm84.737 0a32.65 32.65 0 00-32.672 32.663 32.65 32.65 0 0032.672 32.65 32.634 32.634 0 0032.638-32.65 32.634 32.634 0 00-32.638-32.663zm84.774 0a32.634 32.634 0 00-32.642 32.663 32.638 32.638 0 0032.642 32.65 32.646 32.646 0 0032.667-32.65 32.642 32.642 0 00-32.667-32.663zm85.29 0c-12.326 0-25.113 9.766-25.113 26.162v87.36c0 18.776 12.846 27.182 25.541 27.182l25.214.252h125.97v35.764H298.63c-.176 0-.335.03-.533.03a26.427 26.427 0 00-26.145 26.456 26.402 26.402 0 0023.41 26.238v.218h179.473c25.835 0 27.165-22.637 27.165-27.165V168.838c0-19.011-14.088-27.67-27.165-27.67zm27.845 52.959h123.75v37.053h-123.75zM42.646 223.05a32.6 32.6 0 00-32.642 32.613 32.65 32.65 0 0032.65 32.693c17.963 0 32.66-14.622 32.66-32.693 0-18.041-14.693-32.617-32.663-32.617zm84.737 0c-18.046 0-32.668 14.576-32.672 32.617a32.667 32.667 0 0032.672 32.693c18.033 0 32.638-14.621 32.638-32.693a32.609 32.609 0 00-32.638-32.617zm84.774 0a32.609 32.609 0 00-32.642 32.617c0 18.067 14.613 32.693 32.638 32.693a32.663 32.663 0 0032.671-32.693c0-18.041-14.613-32.617-32.671-32.617zM42.65 305.387c-18.054 0-32.65 14.664-32.65 32.684a32.609 32.609 0 0032.65 32.626c17.963 0 32.66-14.588 32.66-32.626 0-18.02-14.693-32.684-32.664-32.684zm84.732 0c-18.046 0-32.668 14.664-32.672 32.684 0 18.038 14.626 32.626 32.672 32.626a32.613 32.613 0 0032.638-32.626c0-18.02-14.605-32.684-32.638-32.684zm84.77 0c-18.025 0-32.638 14.664-32.638 32.684a32.617 32.617 0 0032.638 32.626c18.058 0 32.671-14.588 32.671-32.626 0-18.02-14.613-32.684-32.671-32.684z"/>
</svg>
