<svg xmlns="http://www.w3.org/2000/svg" height="512" width="512">
    <path fill="#ff1d4B" d="M29.818 186.854a19.659 19.659 0 00-19.671 19.683c0 10.863 8.792 19.667 19.667 19.667a19.7 19.7 0 0019.683-19.667 19.696 19.696 0 00-19.68-19.683zm51.05 0a19.675 19.675 0 100 39.35 19.663 19.663 0 0019.667-19.667 19.663 19.663 0 00-19.667-19.683zm51.076 0a19.663 19.663 0 00-19.667 19.683 19.667 19.667 0 0019.667 19.667 19.667 19.667 0 0019.683-19.667 19.667 19.667 0 00-19.683-19.683zM29.818 236.187a19.642 19.642 0 00-19.671 19.655 19.675 19.675 0 1039.35 0 19.684 19.684 0 00-19.68-19.655zm51.05 0a19.659 19.659 0 00-19.683 19.655 19.675 19.675 0 1039.35 0 19.646 19.646 0 00-19.667-19.655zm51.076 0a19.65 19.65 0 00-19.667 19.655 19.675 19.675 0 1039.35 0 19.65 19.65 0 00-19.683-19.655zm-102.126 49.61a19.684 19.684 0 00-19.671 19.69 19.646 19.646 0 0019.667 19.66 19.688 19.688 0 0019.683-19.66 19.725 19.725 0 00-19.68-19.69zm51.05 0a19.7 19.7 0 00-19.683 19.69 19.659 19.659 0 0019.683 19.66c10.867 0 19.667-8.792 19.667-19.66a19.688 19.688 0 00-19.667-19.69zm51.076 0a19.692 19.692 0 00-19.667 19.69 19.65 19.65 0 0019.667 19.66 19.659 19.659 0 0019.683-19.66 19.696 19.696 0 00-19.683-19.69zm96.246-98.127a67.938 67.938 0 00-52.558 29.667 67.7 67.7 0 00-11.642 41.005c.375 8.558 1.708 14.729 5.012 23.192 1.113 2.854 3.8 7.916 5.917 11.15 8.075 12.333 19.825 21.704 33.459 26.667 21.812 7.95 45.696 4.454 64.3-9.409 4.434-3.304 10.113-8.942 13.175-13.083.609-.817 1.188-1.484 1.292-1.484.104 0 .67.871 1.25 1.917 6.817 12.425 19.417 21.921 33.209 25.034 8.558 1.929 18.616 1.47 26.525-1.217 6.992-2.375 15.825-8.292 20.767-13.921.762-.875 1.462-1.563 1.579-1.563.112 0 .204 3.742.204 8.33v8.329l14.542-.067 14.542-.062.133-31.65.125-31.65.792-1.667c2.208-4.638 6.92-7.23 11.716-6.434 4.45.742 7.934 4.075 9.017 8.638.296 1.25.363 6.833.375 32.2l.013 30.692 14.416-.067 14.413-.062.13-31.396c.116-28.78.166-31.48.562-32.467 1.679-4.18 4.846-6.875 8.846-7.542 4.791-.792 9.529 1.813 11.716 6.438l.784 1.666.066 31.713.067 31.717h29.213V291.45c0-31.57-.042-33.054-1.009-38.054-1.416-7.33-5.775-15.104-11.6-20.704-5.358-5.15-11.275-8.4-18.554-10.192-4.904-1.209-12.708-1.238-17.659-.067-6.045 1.43-10.566 3.467-15.3 6.888l-1.716 1.241-1.867-1.383a39.721 39.721 0 00-18.021-7.342c-2.396-.333-8.558-.333-11.067.008a39.834 39.834 0 00-25.233 14.046c-1.688 2.042-2.804 3.717-5.275 7.917-.134.23-.763-.458-1.975-2.15-7.617-10.646-20.209-18.125-33.459-19.87-3.18-.418-11.692-.338-14.48.132-4.378.75-7.541 1.605-10.762 2.93-1.996.82-6.842 3.408-8.946 4.77-3.916 2.55-8.808 7.013-11.817 10.784l-1.225 1.537c-11.437.175-24.479-1.008-35.775.196-3.387.4-5.908 3.013-7.392 5.159-.391.583-2.716 3.87-5.179 7.333l-7.483 10.5-3.013 4.233 17.288.063c14.633.054 17.283.12 17.283.425 0 .575-2.42 5.25-3.729 7.2-6.133 9.15-15.696 15.292-26.383 16.942-2.742.425-8.534.47-11.325.092-13.146-1.788-24.85-10.725-30.284-23.134-1.758-4.008-2.513-7.02-3.125-12.53-.308-2.753-.138-5.845.558-10.074.73-4.434 3.513-10.975 6.492-15.25 1.983-2.842 6.88-7.692 9.625-9.53 4.971-3.325 9.659-5.27 15.142-6.283 2.925-.538 10.392-.608 13.304-.125 4.867.808 11.142 3.3 15.042 5.975l1.075.742h37.725l-.808-1.475a88.934 88.934 0 00-2.938-4.68c-10.7-16.067-27.929-26.825-47.408-29.6-1.459-.208-10.917-.542-12.684-.45zm109.172 60.538c5.871 1.196 10.738 4.763 13.067 9.571.57 1.18 1.03 2.375 1.03 2.692v.562h-18.772c-10.333 0-18.913-.083-19.083-.191-.217-.138.058-.95.95-2.792 1.054-2.183 1.583-2.933 3.279-4.625 4.775-4.775 12.096-6.733 19.53-5.217zm33.263 36.98l-.075 3.137-9.738.142c-11.508.167-11.246.117-14.479 2.917-2.742 2.366-4.167 3.37-5.896 4.166-3.796 1.742-10.53 1.817-15.35.175-4.125-1.408-7.82-4.17-9.892-7.4-1.05-1.637-2.062-3.966-2.308-5.304l-.18-.975h57.997l-.079 3.142"/>
</svg>
