<svg xmlns="http://www.w3.org/2000/svg" height="512" width="512">
    <path fill="#ed1c24" d="M502.507 159.764l-.934 1.918c-.962 1.978-2.4 5.028-3.76 7.947a2306.962 2306.962 0 01-3.988 8.521c-.514 1.109-1.352 2.879-1.87 3.979a546.854 546.854 0 00-1.882 4.039l-1.982 4.228a1016.67 1016.67 0 00-3.668 7.82c-.389.846-1.255 2.693-1.916 4.098a7417.441 7417.441 0 00-7.635 16.282 466.677 466.677 0 00-2.103 4.488 519.968 519.968 0 01-1.924 4.098 602.888 602.888 0 00-1.924 4.107 437.789 437.789 0 01-2.08 4.432 842.513 842.513 0 00-3.738 8c-.431.928-1.15 2.46-1.623 3.459-3.007 6.331-4.223 8.925-4.223 8.992 0 .033-.694 1.522-1.54 3.29-.84 1.77-1.538 3.347-1.538 3.485 0 .46-.432.258-.703-.336a64.852 64.852 0 01-.979-2.382c-1.075-2.727-3.722-7.767-5.54-10.536-2.74-4.182-5.015-6.955-8.774-10.714-7.423-7.428-14.921-12.078-25.536-15.846-6.958-2.468-17.48-3.706-25.761-3.016-4.805.397-7.612.91-13.203 2.406-4.053 1.084-11.015 4.115-14.996 6.524a62.94 62.94 0 00-12.588 9.92c-4.37 4.357-7.308 8.113-10.23 13.086-.662 1.129-1.338 2.135-1.497 2.24-.167.109-10.234.193-22.357.193h-22.06l-.733 1.606c-.402.878-1.337 2.885-2.09 4.445a668.742 668.742 0 00-3.89 8.307 386.02 386.02 0 01-1.915 4.101 1579.451 1579.451 0 00-3.605 7.696c-2.719 5.792-3.514 7.506-3.514 7.586 0 .054 8.093.1 17.963.1 15.511 0 17.978.054 18.107.384.189.506-1.906 4.589-3.888 7.562-7.637 11.48-20.488 18.986-33.74 19.71-10.18.556-18.185-1.325-26.381-6.206a49.21 49.21 0 01-3.72-2.463c-1.768-1.338-7.36-6.826-8.56-8.398-3.136-4.12-5.855-9.255-7.285-13.793-1.142-3.613-1.404-4.763-1.855-8.18-1.527-11.559 1.898-23.925 9.125-32.941 9.765-12.174 23.394-18.238 38.625-17.18 4.792.335 9.367 1.392 14.072 3.266 1.025.41 1.389.46 1.564.226.126-.167.766-1.463 1.422-2.873 1.33-2.868 3.353-7.177 4.809-10.255a561.38 561.38 0 001.865-3.973c1.033-2.22 2.44-5.203 4.576-9.715.828-1.744 1.506-3.319 1.506-3.486 0-.347-.36-.537-3.719-1.93-5.884-2.446-12.378-4.114-20.123-5.172-1.497-.209-5.102-.334-9.355-.334-7.386 0-10.095.258-16.41 1.563-11.204 2.312-22.35 7.464-31.79 14.691-2.538 1.945-8.057 7.127-10.675 10.025-9.272 10.255-15.826 23.403-18.531 37.17-1.142 5.813-1.276 7.41-1.276 15.381 0 7.975.134 9.57 1.276 15.383 1.572 8.03 4.953 17.132 8.716 23.51.624 1.05 1.137 1.967 1.137 2.025 0 .059.87 1.384 1.945 2.973 13.057 19.254 32.177 31.135 55.479 34.48 4.517.649 15.945.644 20.508 0 3.232-.46 3.638-.539 7.82-1.488 18.025-4.098 34.859-15.289 45.77-30.428.627-.87 1.204-1.59 1.271-1.59.075 0 .886 1.254 1.79 2.768 5.632 9.393 14.08 17.607 23.72 23.06 1.744.988 6.707 3.397 7 3.397.096 0 .486.158.846.346.81.418 4.817 1.816 6.255 2.176 6.483 1.643 9.117 2.07 14.098 2.3 7.64.347 14.277-.263 20.559-1.894 2.593-.67 5.763-1.695 7.13-2.301a120.33 120.33 0 012.434-1.03c11.103-4.566 22.286-14.176 29.12-25.029 4.386-6.967 6.988-13.562 8.958-22.712l.125-.565h22.951c18.125 0 22.985-.067 23.073-.322.067-.176.088-31.005.054-68.51zm-470.174 31.38A22.897 22.897 0 009.415 214.07a22.9 22.9 0 0022.918 22.91 22.947 22.947 0 0022.922-22.91 22.947 22.947 0 00-22.922-22.925zm59.469 0a22.918 22.918 0 100 45.836 22.905 22.905 0 0022.91-22.91 22.905 22.905 0 00-22.906-22.925zm59.502 0a22.905 22.905 0 00-22.908 22.926 22.91 22.91 0 0022.908 22.91 22.913 22.913 0 0022.926-22.91 22.91 22.91 0 00-22.926-22.925zM32.333 248.616a22.88 22.88 0 00-22.918 22.893 22.913 22.913 0 0022.918 22.941 22.96 22.96 0 0022.922-22.941c0-12.663-10.313-22.893-22.922-22.893zm59.469 0a22.897 22.897 0 00-22.926 22.893 22.918 22.918 0 1045.836 0 22.884 22.884 0 00-22.906-22.893zm59.498 0a22.888 22.888 0 00-22.904 22.893 22.918 22.918 0 1045.834 0 22.892 22.892 0 00-22.93-22.893zm238.885 5.194c3.044-.055 7.222.202 8.879.623 6.536 1.66 10.589 3.947 15.277 8.63 3.969 3.957 6.143 7.446 7.758 12.448 4.755 14.716-1.699 30.331-15.6 37.746-2.024 1.079-5.59 2.325-8.334 2.91-2.873.615-9.272.615-12.045 0-6.645-1.468-11.643-4.165-16.164-8.715-9.778-9.844-12.115-24.277-5.896-36.426 1.622-3.178 2.864-4.912 5.394-7.539 5.048-5.227 11.3-8.501 18.201-9.513.628-.093 1.515-.146 2.53-.164zM32.333 306.402A22.93 22.93 0 009.415 329.34a22.888 22.888 0 0022.918 22.896c12.609 0 22.922-10.237 22.922-22.896 0-12.647-10.313-22.938-22.922-22.938zm59.469 0a22.947 22.947 0 00-22.926 22.938 22.9 22.9 0 0022.93 22.896 22.892 22.892 0 0022.906-22.896 22.934 22.934 0 00-22.906-22.938zm59.498 0a22.938 22.938 0 00-22.904 22.938 22.892 22.892 0 0022.904 22.896 22.897 22.897 0 0022.93-22.896 22.943 22.943 0 00-22.93-22.938zm328.846.397a21.245 21.245 0 00-21.262 21.273 21.249 21.249 0 0021.262 21.258 21.29 21.29 0 0021.27-21.258 21.287 21.287 0 00-21.27-21.273z"/>
</svg>
