<svg xmlns="http://www.w3.org/2000/svg" height="512" width="512">
    <path fill="#34A2FB" d="M30.652 183.367A20.639 20.639 0 0010 204.027a20.639 20.639 0 0020.652 20.648 20.68 20.68 0 0020.66-20.648 20.68 20.68 0 00-20.66-20.664zm53.598 0a20.654 20.654 0 100 41.308 20.639 20.639 0 0020.648-20.648 20.639 20.639 0 00-20.648-20.664zm53.62 0a20.643 20.643 0 00-20.643 20.66 20.647 20.647 0 0020.647 20.648 20.651 20.651 0 0020.664-20.648 20.647 20.647 0 00-20.664-20.664zm53.953 0c-7.797 0-15.886 6.176-15.886 16.545v55.258c0 11.88 8.127 17.195 16.157 17.195l15.949.159h79.679v22.623h-95.148c-.117 0-.217.021-.338.021a16.72 16.72 0 00-16.54 16.732 16.699 16.699 0 0014.805 16.595v.142h113.527c16.345 0 17.183-14.318 17.183-17.183V200.867c0-12.025-8.91-17.504-17.183-17.504zm17.612 33.494h78.278v23.437h-78.278zM30.647 235.157A20.622 20.622 0 0010 255.792a20.656 20.656 0 1041.311 0 20.664 20.664 0 00-20.655-20.64zm53.603 0a20.639 20.639 0 00-20.664 20.635 20.656 20.656 0 1041.312 0 20.626 20.626 0 00-20.648-20.635zm53.62 0a20.626 20.626 0 00-20.643 20.635 20.656 20.656 0 1041.311 0 20.63 20.63 0 00-20.668-20.635zm-107.214 52.08a20.668 20.668 0 00-20.652 20.677 20.626 20.626 0 0020.652 20.64 20.668 20.668 0 0020.66-20.64 20.71 20.71 0 00-20.66-20.676zm53.598 0a20.68 20.68 0 00-20.664 20.677 20.639 20.639 0 0020.664 20.64 20.63 20.63 0 0020.648-20.64 20.672 20.672 0 00-20.648-20.676zm53.62 0a20.672 20.672 0 00-20.643 20.677 20.63 20.63 0 0020.643 20.64 20.639 20.639 0 0020.668-20.64 20.68 20.68 0 00-20.668-20.676zm198.73-101.98v102.765h28.028v-39.39h38.384v39.39h48.804c36.72-5.158 49.13-27.786 50.18-51.519-.5-27.697-18.709-48.02-50.18-51.25h-48.804v38.934h-38.384v-38.935z"/>
</svg>
