<svg xmlns="http://www.w3.org/2000/svg" height="512" width="512">
<path fill="#34A2FB" d="m304.03 183.36-112.21.004c-7.797 0-15.885 6.176-15.885 16.545v55.258c0 11.88 8.126 17.195 16.156 17.195l15.949.158h79.68v22.623h-95.148c-.117 0-.217.022-.338.022a16.72 16.72 0 0 0-16.54 16.732A16.7 16.7 0 0 0 190.5 328.49v.142h113.53c16.345 0 17.184-14.319 17.184-17.184V200.86c0-12.025-8.91-17.504-17.184-17.504zm-94.592 33.498h78.277v23.438h-78.277zM137.87 183.36l-.004.004a20.643 20.643 0 0 0-20.643 20.66 20.647 20.647 0 0 0 20.646 20.648 20.65 20.65 0 0 0 20.664-20.648 20.647 20.647 0 0 0-20.664-20.664zM137.87 287.24a20.67 20.67 0 0 0-20.643 20.678 20.63 20.63 0 0 0 20.643 20.641 20.64 20.64 0 0 0 20.67-20.641 20.68 20.68 0 0 0-20.67-20.676zM84.254 287.24a20.68 20.68 0 0 0-20.664 20.678 20.64 20.64 0 0 0 20.664 20.641 20.63 20.63 0 0 0 20.648-20.641 20.67 20.67 0 0 0-20.648-20.676zM30.656 287.24a20.67 20.67 0 0 0-20.652 20.678 20.626 20.626 0 0 0 20.652 20.641 20.67 20.67 0 0 0 20.66-20.641 20.71 20.71 0 0 0-20.66-20.676zM137.87 235.16a20.626 20.626 0 0 0-20.643 20.637 20.656 20.656 0 1 0 41.311 0 20.63 20.63 0 0 0-20.668-20.637M30.656 235.15l-.01.004A20.62 20.62 0 0 0 10 255.79a20.656 20.656 0 1 0 41.311 0 20.664 20.664 0 0 0-20.654-20.641zm53.594.004a20.64 20.64 0 0 0-20.664 20.637 20.656 20.656 0 0 0 41.313 0 20.626 20.626 0 0 0-20.648-20.637zM364.63 185.25l-28.029.006v102.76h28.029v-39.39h38.383v39.39h48.805c36.72-5.158 49.13-27.785 50.18-51.518-.5-27.697-18.709-48.02-50.18-51.25h-48.805v38.934H364.63v-38.936zm81.811 23.566s27.561.594 27.561 27.406c0 27.447-26.471 28.496-26.471 28.496h-16.352V208.97zM30.652 183.36v.004A20.64 20.64 0 0 0 10 204.024a20.64 20.64 0 0 0 20.652 20.648 20.68 20.68 0 0 0 20.66-20.648 20.68 20.68 0 0 0-20.66-20.664m53.598 0v.004a20.654 20.654 0 1 0 0 41.309 20.64 20.64 0 0 0 20.648-20.648A20.64 20.64 0 0 0 84.25 183.36z"/></svg>
