<svg xmlns="http://www.w3.org/2000/svg" height="512" width="512">
    <path fill="#1fc02c" d="M32.22 177.756A22.208 22.208 0 0010 199.984a22.208 22.208 0 0022.22 22.22 22.254 22.254 0 0022.23-22.22 22.25 22.25 0 00-22.23-22.228zm57.675 0a22.225 22.225 0 100 44.447 22.212 22.212 0 0022.216-22.219 22.212 22.212 0 00-22.216-22.228zm57.699 0a22.212 22.212 0 00-22.217 22.228 22.216 22.216 0 0022.217 22.22 22.22 22.22 0 0022.236-22.22 22.216 22.216 0 00-22.236-22.228zm229.166 1.723c-1.714 0-3.051.02-3.617.072-7.283.657-15.646 2.27-19.168 3.685-.281.118-1.16.462-1.93.768-6.282 2.462-11.14 6.892-13.854 12.617-2.768 5.863-3.83 12.375-4.074 25.01l-.16 8.437-6.717.069-6.717.062v32.932l6.754.066 6.756.065v69.47h35.248v-69.47l6.344-.065c5.968-.063 6.345-.096 6.412-.552.473-3.187 2.672-9.598 4.887-14.254a67.566 67.566 0 0110.52-15.772l1.968-2.166-15.13-.125-15.126-.129.03-5.146c.041-6.458.46-8.23 2.584-10.86 1.842-2.286 4.255-3.418 8.681-4.08 4.104-.611 10.523-.271 15.125.801l.72.168-.062-15.27-.062-15.273-1.416-.191a131.127 131.127 0 01-3.086-.47c-1.244-.203-9.77-.4-14.91-.4zm-83.252.03a33.062 33.062 0 00-3.602.048v-.002c-1.37.222-4.58 1.404-6.021 2.22a19.599 19.599 0 00-5.34 4.582c-1.508 1.948-3.04 5.143-3.53 7.358-.782 3.526-.378 8.3.983 11.45 1.013 2.357 2.946 4.912 6.66 8.823 1.45 1.525 3.157 4.17 3.815 5.916 1.114 2.932.71 6.618-1.06 9.754-.302.54-.503 1.031-.448 1.094.058.063.62-.105 1.236-.377 9.134-3.953 17.036-10.031 20.951-16.104 1.91-2.96 2.325-3.91 3.631-8.257.695-2.316.686-11.151-.013-13.38-1.609-5.12-5.013-9.058-9.8-11.323-2.843-1.349-4.376-1.717-7.462-1.801zm-105.36.645v152.578h37.397c20.558 0 37.443-.046 37.502-.105.054-.054.07-7.463.037-16.467l-.063-16.361-19.62-.067-19.62-.062-.062-59.76-.067-59.756h-35.504zm255.979 38.924c-1.735-.009-3.327.045-4.6.174-13.2 1.332-25.373 7.286-35.043 17.148-10.678 10.884-16.784 26.886-16.039 42.041.528 10.805 1.969 16.375 6.537 25.215 7.815 15.126 22.908 26.374 39.659 29.56 4.79.914 7.41 1.125 12.218.995 6.328-.172 9.407-.645 14.897-2.291 3.15-.942 3.86-1.233 7.617-3.092 10.08-4.983 19.558-14.004 25.32-24.117 1.395-2.446 4.786-9.503 4.786-9.959 0-.054-6.872-.1-15.286-.1-18.706 0-18.983.033-22.543 2.856a42.512 42.512 0 00-2.52 2.203c-6.557 6.365-19.138 6.532-28.226.385-3.71-2.513-6.545-6.629-7.965-11.57l-.164-.565 39.446-.063 39.44-.068.23-4.758c.385-8.053-.276-16.809-1.645-21.742a78.822 78.822 0 00-1.877-5.527 110.16 110.16 0 01-.7-1.801c-.657-1.763-3.755-7.621-5.23-9.883a50.295 50.295 0 00-6.691-8.334c-5.854-5.997-12.027-10.017-20.105-13.107-1.822-.704-2.958-1.06-6.819-2.14-3.002-.843-9.492-1.434-14.697-1.46zm-133.57 11.25c-.038 0-.596.49-1.237 1.088v.002c-.64.603-2.972 2.607-5.158 4.437-15.8 13.246-19.353 16.594-22.355 21.05-3.995 5.933-5.804 11.783-6.57 21.28-.315 3.895-.37 9.29-.319 29.717l.068 24.96 17.815.062 17.818.062v-51.328c0-28.225-.029-51.33-.062-51.33zM32.22 233.482A22.191 22.191 0 0010 255.686a22.22 22.22 0 0022.22 22.25 22.266 22.266 0 0022.23-22.25 22.237 22.237 0 00-22.23-22.204zm57.674 0a22.208 22.208 0 00-22.237 22.204 22.227 22.227 0 0044.453 0 22.195 22.195 0 00-22.216-22.204zm57.695 0a22.195 22.195 0 00-22.213 22.204 22.229 22.229 0 1044.45 0 22.2 22.2 0 00-22.237-22.204zm297.277 15.22c1.47.003 3.56.16 5.26.417 7.643 1.143 14.287 6.228 16.143 12.342.284.95.529 1.845.529 1.967 0 .121-9.633.19-21.422.156-18.577-.059-21.429-.118-21.5-.453-.105-.473 1.345-3.421 2.63-5.352 1.4-2.106 4.351-4.74 6.893-6.164 3.359-1.876 4.633-2.237 10.245-2.865.314-.035.733-.05 1.222-.049zM32.22 289.522a22.237 22.237 0 00-22.217 22.25 22.195 22.195 0 0022.217 22.203c12.228 0 22.228-9.925 22.228-22.204a22.283 22.283 0 00-22.228-22.25zm57.677 0a22.254 22.254 0 00-22.236 22.25 22.212 22.212 0 0022.236 22.203 22.195 22.195 0 0022.217-22.204 22.241 22.241 0 00-22.217-22.25zm57.696 0a22.241 22.241 0 00-22.213 22.25 22.2 22.2 0 0022.213 22.203c12.29 0 22.236-9.925 22.236-22.204a22.25 22.25 0 00-22.236-22.25z"/>
</svg>
