<svg xmlns="http://www.w3.org/2000/svg" height="512" width="512">
    <path fill="#fc5432" d="M274.31 304.74c8.016 0 16.41-4.85 18.697-10.812l33.294-86.674h-30.835l-29.03 75.56h-11.779l29.022-75.556h-30.88l-33.764 87.895c-.851 2.223-.696 4.273.451 5.93 1.604 2.323 4.92 3.658 9.096 3.658zm196.432-97.482l-13.623 35.645h-12.116l13.632-35.645h-30.99l-37.475 97.483h31.068l14.429-37.37h12.128l-14.506 37.37h30.908l37.507-97.487zm-61.278 4.095c-1.776-2.605-5.466-4.1-10.134-4.1l-46.275.07c-7.998 0-14.575 4.517-17.58 12.096l-18.379 47.988h48.74l-4.118 10.32h-48.552l-6.331 16.17c-1.002 2.532-.852 4.864.437 6.75 1.776 2.6 5.465 4.094 10.134 4.094h42.79c8.955 0 18.392-5.43 21.043-12.097l19.38-49.855h-45.883l3.94-10.266h45.61l5.606-14.42c1.007-2.537.856-4.869-.433-6.755m-173.995 5.32c.838-2.181.688-4.19-.437-5.82-1.576-2.278-4.837-3.59-8.941-3.59h-82.047l-9.337 24.313h66.57l-4.358 11.218-45.993-.01-23.757 61.962h29.897l12.192-31.618 8.508 31.618h30.653l-9.565-35.781h2.241c6.71 0 15.55-2.778 18.387-10.603zM77.75 293.035a13.832 13.832 0 01-14.374 13.796c-7.087-.246-13.436-5.994-13.345-14.005a13.76 13.76 0 0114.05-13.596 13.778 13.778 0 0113.67 13.8m-13.824-50.82c7.397-.104 13.841 6.013 13.823 13.815a13.8 13.8 0 01-14.046 13.791 13.778 13.778 0 01-13.678-13.923 13.746 13.746 0 0113.9-13.683M38.02 293.004c.137 7.492-6.176 13.991-14.16 13.827-7.378-.15-13.618-6.162-13.564-13.914a13.814 13.814 0 0114.029-13.691c7.966.09 13.8 6.622 13.695 13.778m25.793-60.23a13.787 13.787 0 01-13.782-14.102 13.737 13.737 0 0113.9-13.509A13.755 13.755 0 0177.752 219a13.796 13.796 0 01-13.938 13.773m-25.793 23.224c.119 7.22-5.766 13.71-13.659 13.805a13.81 13.81 0 01-14.065-13.996c.105-7.734 6.605-13.732 14.12-13.605 7.383.128 13.71 6.231 13.604 13.8M24.143 232.77a13.814 13.814 0 01-13.832-13.582 13.796 13.796 0 0113.86-14.028 13.819 13.819 0 0113.855 14.256c-.228 7.16-6.149 13.39-13.883 13.354m79.515 9.441a13.732 13.732 0 0113.814 13.824 13.764 13.764 0 01-13.878 13.782 13.796 13.796 0 01-13.846-13.819c0-7.861 6.504-13.937 13.91-13.787m-.023-9.437a13.8 13.8 0 01-13.892-13.768 13.755 13.755 0 0113.878-13.846 13.719 13.719 0 0113.856 13.8 13.755 13.755 0 01-13.837 13.814m-13.897 60.24a13.791 13.791 0 0114.106-13.783 13.732 13.732 0 0113.618 13.792c.014 8.002-6.581 14.074-14.356 13.805a13.823 13.823 0 01-13.368-13.814"/>
</svg>
