<svg xmlns="http://www.w3.org/2000/svg" height="512" width="512"><path fill="#fff" d="M258.04 10a96.215 96.215 0 00-28.397 4.271c-21.17 7.827-39.253 16.507-58.173 50.347l38.451 100.63 22.885-60.568c3.925-11.417 12.975-16.71 22.135-16.277 9.102.422 18.314 6.51 22.63 17.881l72.355 192.626s12.629 30.607 18.862 36.922c14.966 17.315 36.178 24.368 53.458 23.572 10.233 0 14.199-.774 23.56-3.92 19.682-8.657 41.672-27.502 44.062-62.15V83.497c-.733-29.897-6.309-47.213-25.875-61.4-12.628-8.374-28.414-12.888-44.079-11.93-7.786.474-15.526 2.28-22.833 5.668a74.79 74.79 0 00-20.368 14.597 81.133 81.133 0 00-13.16 17.32h-.005a78.23 78.23 0 00-6.961 16.393 80.238 80.238 0 00-1.154 4.386l36.177 102.2v.006l27.935-78.478 1.16-3.25v193.388l-76.28-212.302c-12.512-30.653-31.415-43.224-38.531-47.986-12.479-7.376-27.976-11.503-43.715-12.063-.404-.011-.814.012-1.212 0a164.235 164.235 0 00-2.927-.034zm-168.361.358c-10.158 0-14.164.779-22.74 3.907-19.711 8.658-42.487 27.549-44.807 62.906v209.133c.733 30.648 6.21 47.167 25.904 62.081 13.91 8.352 30.532 12.738 46.866 10.995a63.72 63.72 0 0012.583-2.603l.837-.288a41.978 41.978 0 001.639-.549c.502-.184 1.004-.392 1.5-.582l.958-.37a68.602 68.602 0 002.425-1.062 78.103 78.103 0 0020.576-14.568 79.962 79.962 0 008.53-9.812 76.34 76.34 0 006.823-11.14 68.58 68.58 0 003.393-8.01 63.847 63.847 0 002.332-8.392l-36.108-102.23-26.446 76.574-1.818 5.253V87.399l75.448 213.035c12.548 30.682 31.375 42.497 38.457 47.16 14.43 9.091 32.795 12.964 50.97 12.156 6.476-.289 12.93-1.12 19.174-2.586a90.149 90.149 0 006.164-1.674c2.655-.992 5.253-1.974 7.815-3.013 2.557-1.038 5.08-2.118 7.561-3.307a92.487 92.487 0 003.706-1.858 81.706 81.706 0 007.272-4.33 77.214 77.214 0 0010.684-8.587 82.559 82.559 0 005.108-5.322l.173-.19a104.018 104.018 0 003.503-4.214 124.71 124.71 0 005.258-7.226 156.778 156.778 0 007.036-11.538l-38.486-101.403-22.048 60.603c-.167.433-.346.837-.525 1.252-.133.3-.248.618-.381.907a30.95 30.95 0 01-1.022 2.002c-4.3 7.7-11.15 11.63-18.302 12.046a22.625 22.625 0 01-1.79.029h-.005a21.944 21.944 0 01-1.795-.116c-8.686-.923-17.252-6.891-21.754-17.719L162 71.676s-12.52-30.705-18.862-36.95c-14.153-18.077-36.172-24.368-53.458-24.368z"/><g><path fill="#fff" d="M38.778 378.964v121.991h21.43v-85.912l47.144 85.912h26.232V378.964h-21.43v88.706l-48.177-88.706zm110.673 0v121.991h73.382v-18.642h-52.119v-35.035h47.49v-18.643h-47.49v-31.542h49.204l2.568-18.123zm76.002 0l30.683 121.991h25.54l21.77-85.04 21.95 85.04h25.373l30.515-121.991h-22.798l-21.09 96.723h-.681l-23.145-96.723H293l-22.29 96.723h-.688l-21.938-96.723zm245.709 10.984s-19.89-11.856-42.52-11.856c-24 0-40.969 10.81-40.969 33.113 0 39.911 63.772 31.196 63.772 55.42 0 10.453-8.744 16.905-23.317 16.905-19.544 0-34.458-12.9-34.458-12.9l-10.625 16.387S400.013 502 429.16 502c25.026 0 43.882-12.72 44.055-37.816 0-41.303-64.118-30.671-64.118-54.024 0-9.927 7.89-13.592 19.89-13.592 15.6 0 34.11 10.106 34.11 10.106z"/></g></svg>
