<svg xmlns="http://www.w3.org/2000/svg" height="512" width="512"><path d="m250.81 16.027c-5.9153 0.10694-11.98 0.58181-17.911 1.4196-2.3222 0.33008-4.4351 0.678-6.7417 1.1114-17.724 3.3323-35.006 10.02-50.298 19.74-0.83313 0.52011-1.7112 1.1084-2.4829 1.6042-2.1086 1.4027-4.179 2.8621-6.2129 4.3711-0.66752 0.5025-1.5539 1.1788-2.2977 1.7606-18.335 14.248-32.969 33.349-41.42 55.014-2.7594 7.0143-4.8583 14.287-6.2845 21.688-0.34115 1.8153-0.69393 3.8362-0.95976 5.7458-0.30016 2.0711-0.52035 3.9897-0.71993 6.0882-1.9602 20.859 1.7022 42.172 10.297 61.264 2.692 6.0181 5.9361 11.915 9.4925 17.376 11.419 17.533 27.154 32.15 45.23 42.641 0.93043 0.53717 2.0945 1.2005 3.1298 1.7582 3.6 1.9448 7.2542 3.8137 11.03 5.3844 2.1044 1.1359 2.9163 4.0546 1.6962 6.1155-5.3792 11.407-10.671 22.935-16.018 34.399-5.1968 11.185-10.393 22.37-15.59 33.554-28.924-25.175-57.848-50.35-86.771-75.525-20.123 4.4102-40.246 8.8203-60.369 13.23 16.577 73.369 33.154 146.74 49.73 220.11 22.963-4.9792 45.926-9.9583 68.889-14.938-7.1446-31.491-14.294-62.981-21.436-94.473 24.947 21.231 49.895 42.462 74.842 63.693 13.531-28.391 27.064-56.782 40.594-85.174 6.6178 31.495 13.236 62.99 19.854 94.484 81.456-16.29 162.91-32.581 244.37-48.871l-12.508-59.191c-34.773 7.0092-69.547 14.018-104.32 21.027-1.7572-8.0322-3.5153-16.064-5.2754-24.096 31.54-5.9287 63.079-11.857 94.619-17.785-4.1797-18.39-8.3594-36.78-12.539-55.17-31.266 6.7397-62.531 13.479-93.797 20.219-1.7498-7.762-3.5028-15.523-5.2539-23.285 33.114-6.4623 66.228-12.924 99.342-19.387-1.6673-20.549-3.3346-41.099-5.002-61.648-24.086 4.6209-48.172 9.2435-72.258 13.863 3.4907-8.1752 7.2708-16.272 9.6726-24.857 3.8545-13.236 5.5033-27.13 4.6751-40.897-0.10288-1.6064-0.24736-3.4989-0.41747-5.1027-0.62038-6.0193-1.676-11.884-3.1638-17.748-0.26047-1.0058-0.54554-2.0733-0.84661-3.1355-0.72463-2.5404-1.5448-5.1346-2.3996-7.5351-1.2697-3.579-2.8062-7.3631-4.4703-10.931-0.76259-1.6346-1.5593-3.2594-2.3515-4.7883-11.038-21.386-28.257-39.407-48.76-51.938-12.424-7.621-26.035-13.287-40.173-16.819-1.1095-0.27125-2.4708-0.6046-3.6838-0.86961-7.6838-1.7124-15.506-2.8044-23.365-3.2652-3.7014-0.21832-7.5968-0.28888-11.365-0.23047z" fill="#fff"/>
 <path d="M253.497 10a144.532 135.717 0 00-144.533 135.717 144.532 135.717 0 0081.4 121.975L162.668 327.3 79.64 255.033l-69.216 15.171L62.797 502l80.625-17.48-18.789-82.801 67.057 57.072 36.315-76.197 17.423 82.923 256.147-51.226-14.992-70.94-104.362 21.034-2.691-12.295 94.672-17.798-15.235-67.028-93.792 20.218-2.588-11.46 98.545-19.229-5.973-73.667-67.723 12.995a144.532 135.717 0 0010.593-50.416A144.532 135.717 0 00253.49 10zm1.458 63.248l1.291.017h.533c6.934.244 13.758 2.067 19.251 5.314 3.137 2.095 11.46 7.635 16.977 21.139l33.595 93.509v-85.18l-.515 1.435-12.3 34.562-15.935-45.015a32.86 32.86 0 012.662-7.426 34.95 34.95 0 011.91-3.387 35.436 35.436 0 014.793-5.961c2.68-2.686 5.73-4.88 8.972-6.437a27.888 27.888 0 0110.06-2.489 32.044 32.044 0 0119.414 5.25c8.624 6.251 11.073 13.874 11.402 27.043v92.42c-1.053 15.258-10.742 23.559-19.407 27.379-4.127 1.383-5.876 1.725-10.379 1.725-7.617.347-16.96-2.761-23.546-10.384-2.75-2.779-8.306-16.265-8.306-16.265l-31.865-84.839c-1.904-5.006-5.962-7.686-9.973-7.872-4.034-.19-8.017 2.142-9.747 7.166l-10.078 26.678-16.936-44.32c8.335-14.905 16.294-18.73 25.625-22.18a42.376 42.376 0 0111.211-1.865c.435-.017.863-.017 1.291-.017zm-74.153.156c7.617 0 17.307 2.779 23.547 10.738 2.795 2.749 8.306 16.276 8.306 16.276l31.864 84.485c1.985 4.77 5.76 7.403 9.585 7.808a9.07 9.07 0 001.58.035c3.15-.18 6.165-1.91 8.058-5.302.162-.29.307-.579.451-.88l.174-.405.226-.55 9.712-26.69 16.954 44.663a86.43 86.43 0 01-1.551 2.662v.006a54.942 54.942 0 01-3.861 5.592 42.949 42.949 0 01-1.545 1.852l-.081.093a41.455 41.455 0 01-2.246 2.344 35.61 35.61 0 01-4.706 3.78 36.558 36.558 0 01-4.84 2.726 61.312 61.312 0 01-3.327 1.458c-1.129.452-2.275.892-3.444 1.326a38.943 38.943 0 01-2.715.735 45.988 45.988 0 01-8.445 1.14c-8.005.36-16.091-1.348-22.453-5.354-3.12-2.055-11.402-7.258-16.93-20.774l-33.236-93.827v85.532l.804-2.315 11.646-33.722 15.906 45.02a28.206 28.206 0 01-1.03 3.7 30.157 30.157 0 01-1.5 3.53 33.456 33.456 0 01-4.178 6.42 35.929 35.929 0 01-2.576 2.807c-2.72 2.662-5.823 4.862-9.064 6.419a27.882 27.882 0 01-1.071.463l-.417.168-.666.255c-.237.086-.48.162-.717.243l-.37.127a28.05 28.05 0 01-5.54 1.146c-7.195.77-14.517-1.163-20.647-4.845-8.67-6.57-11.084-13.84-11.408-27.338v-92.113c1.018-15.57 11.055-23.894 19.737-27.709 3.774-1.377 5.54-1.725 10.014-1.725zM442.64 199.6l3.733 46.011-100.385 19.587 8.728 38.677 93.816-20.218 9.03 39.72-94.557 17.775 8.63 39.464 104.27-21.011 9.272 43.886-160.78 32.154-34.266-158.812a144.532 135.717 0 0089.533-65.147zM75.815 270.008l91.64 79.761 35.742-76.914a144.532 135.717 0 0050.3 8.573 144.532 135.717 0 0023.077-1.91l34.272 158.829-54.71 10.94-23.014-109.531-46.167 96.86-84.971-72.318 24.883 109.67-53.616 11.628-46.283-204.88z" fill="#343a45"/>
</svg>
