<svg xmlns="http://www.w3.org/2000/svg" xml:space="preserve" width="512" height="512">
    <g transform="matrix(1.12803 0 0 1.12803 246.985 191.819)">
        <circle cx="102.298" cy="151.449" r="122.936" style="opacity:1;fill:#5218ee;fill-opacity:1;fill-rule:evenodd;stroke:none;stroke-width:7.0537;stroke-linecap:butt;stroke-linejoin:miter;stroke-miterlimit:4;stroke-dasharray:none;stroke-dashoffset:0;stroke-opacity:1"/>
        <path d="M8.427 162.49H22.03c1.385 0 2.538-.539 3.385-1.539.846-1 1.307-2.153 1.307-3.615 0-1.385-.461-2.615-1.307-3.692-.847-1.077-2-1.615-3.385-1.615H8.427v-11.692h17.23c1.385 0 2.539-.462 3.385-1.462s1.308-2.154 1.308-3.615-.462-2.692-1.308-3.692-2-1.462-3.384-1.462H2.197q-2.308 0-3.923 1.616-1.615 1.614-1.615 3.922v43.384c0 1.615.538 2.846 1.692 3.846s2.538 1.538 4.154 1.538c1.615 0 3.076-.538 4.23-1.538s1.692-2.231 1.692-3.846zM59.552 181.335c1 2.077 2.692 3.077 5.23 3.077 1.616 0 3-.462 4.155-1.461 1.076-1 1.615-2.231 1.615-3.846v-30.538c0-1.615-.539-2.846-1.615-3.846-1.154-1-2.539-1.461-4.154-1.461-1.154 0-2.154.23-3.154.769-1 .538-1.615 1.23-2 2.077l-1-.693c-.615-.461-1.692-.923-3.23-1.461-1.616-.462-3.308-.692-5.154-.692q-3.345 0-6.692 1.153c-2.23.847-4.308 2-6.23 3.616-1.924 1.615-3.54 3.769-4.693 6.461q-1.846 4.038-1.846 9.23c0 6 1.692 10.923 5.077 14.846s7.769 5.846 13.153 5.846c2.077 0 4.077-.308 5.923-.846q2.654-.808 3.461-1.385c.539-.384.924-.615 1.154-.846m-8.153-7.538c-2.923-.154-5.154-1.154-6.615-3-1.462-1.77-2.231-4.154-2.231-7.153 0-3.154 1-5.616 2.923-7.539q2.884-2.769 7.384-2.769c1.923 0 4 .385 6.154 1.077v18q-3.115 1.615-7.615 1.384M76.505 179.105c0 1.615.539 2.846 1.693 3.846 1.076 1 2.384 1.461 4 1.461 1.615 0 3-.462 4.153-1.461 1.077-1 1.615-2.231 1.615-3.846v-24.307c1.847-1 3.693-1.539 5.462-1.462 4.384.23 6.615 2.77 6.615 7.615v18.154c0 1.615.538 2.846 1.692 3.846 1.077 1 2.385 1.461 4 1.461s3-.462 4.154-1.461c1.077-1 1.615-2.231 1.615-3.846v-21.077c0-1.307-.077-2.384-.308-3.23 1.923-1 3.846-1.539 5.616-1.462 4.384.23 6.538 2.77 6.538 7.615v18.154c0 1.615.538 2.846 1.692 3.846 1.077 1 2.462 1.461 4.077 1.461s2.923-.462 4.077-1.461c1.077-1 1.615-2.231 1.615-3.846v-21.077q0-6.345-4.384-10.615c-3-2.769-6.846-4.153-11.615-4.153-3.77 0-7.616 1.384-11.538 4.076-2.847-2.692-6.385-4.076-10.615-4.076-1.616 0-3.231.307-5 1-1.77.692-3.154 1.461-4 2.461-.77-2.308-2.615-3.461-5.462-3.461-1.615 0-2.923.461-4 1.461-1.153 1-1.692 2.23-1.692 3.846zM141.089 179.105c0 1.615.538 2.846 1.692 3.846 1.077 1 2.461 1.461 4.077 1.461 1.615 0 3-.462 4.153-1.461 1.077-1 1.616-2.231 1.616-3.846v-30.538c0-1.615-.539-2.846-1.616-3.846-1.153-1-2.538-1.461-4.153-1.461-1.616 0-3 .461-4.077 1.461-1.154 1-1.692 2.23-1.692 3.846zm-.154-44.153c0 1.616.615 3.077 1.846 4.23 1.154 1.155 2.615 1.77 4.23 1.77s3.077-.615 4.308-1.77c1.154-1.153 1.77-2.614 1.77-4.23 0-1.615-.616-3.077-1.77-4.307-1.23-1.154-2.692-1.77-4.307-1.77s-3.077.616-4.231 1.77c-1.23 1.23-1.846 2.692-1.846 4.307M172.782 173.335c-1.615 0-2.384-.846-2.384-2.615v-39.075c0-1.616-.539-2.846-1.616-3.846-1.154-1-2.538-1.462-4.154-1.462-1.615 0-3 .462-4.076 1.462-1.154 1-1.693 2.23-1.693 3.846v37.69c0 10.077 4.308 15.077 13 15.077h2c1.615 0 2.846-.538 3.846-1.615q1.385-1.616 1.385-3.923c0-1.616-.462-2.923-1.385-4-1-1-2.23-1.539-3.846-1.539zM188.974 180.258l-4.077 10.538c-.538 1.462-.538 2.923.077 4.231.539 1.308 1.539 2.308 3 2.923q2.078.923 4.154.23c1.384-.46 2.307-1.384 2.846-2.845l17.46-45.306c.54-1.462.462-2.77-.307-4-.77-1.154-1.923-2-3.461-2.462-1.462-.384-2.846-.307-4.077.231-1.308.538-2.154 1.538-2.692 2.923l-7.538 19.845-7.154-19.768c-.539-1.308-1.385-2.308-2.615-2.923-1.308-.615-2.616-.692-4-.308-1.462.385-2.539 1.231-3.385 2.539-.846 1.307-1.077 2.615-.538 3.923z" style="opacity:1;fill:#fff;fill-opacity:1;fill-rule:nonzero;stroke:none;stroke-width:.534169"/>
        <path d="M133.156 68.15a10.6 10.6 0 0 0-6.496-1.752c-1.155.07-2.285.327-3.368.841-2.887 1.401-5.317 4.297-6.135 7.777l5.317 15.086 4.138-11.583.169-.467v28.538l-11.236-31.34c-1.828-4.531-4.619-6.376-5.678-7.077-1.828-1.097-4.09-1.704-6.423-1.798h-.169a14 14 0 0 0-4.619.63c-3.103 1.168-5.774 2.43-8.565 7.427l5.654 14.853 3.368-8.945c.578-1.681 1.9-2.475 3.248-2.405 1.347.07 2.695.958 3.344 2.639l10.658 28.445s1.853 4.507 2.767 5.44c2.213 2.546 5.317 3.597 7.867 3.48 1.516 0 2.093-.116 3.465-.583 2.91-1.285 6.134-4.064 6.495-9.178V77.21c-.12-4.414-.938-6.96-3.8-9.061" style="opacity:1;fill:#fff;stroke-width:.237034"/>
        <path d="M106.066 104.02c-.673 1.752-2.093 2.523-3.512 2.383-1.276-.14-2.55-1.028-3.2-2.616L88.696 75.483s-1.853-4.53-2.767-5.465c-2.093-2.662-5.317-3.596-7.867-3.596-1.492 0-2.093.117-3.344.584-2.911 1.284-6.255 4.063-6.592 9.271v30.873c.096 4.53.914 6.96 3.801 9.155 2.045 1.238 4.499 1.891 6.905 1.611 1.01-.117 2.02-.373 2.935-.794 2.887-1.401 5.437-4.297 6.135-7.66l-5.317-15.086-3.898 11.303-.264.77V77.796l11.115 31.457c1.852 4.53 4.62 6.282 5.654 6.96 2.117 1.33 4.835 1.914 7.506 1.798a14.3 14.3 0 0 0 3.729-.631c3.128-1.168 5.774-2.312 8.565-7.31l-5.654-14.97z" style="opacity:1;fill:#fff;stroke-width:.237034"/>
    </g>
    <g fill="#fa4947">
        <path d="M172.407 9.346c-.858-.006-1.57 0-1.589.02-.012.012-.667.044-1.455.063-.788.026-1.785.07-2.224.108-.438.032-.896.07-1.016.09-.121.018-.757.056-1.411.094-.655.038-1.83.147-2.605.255-.782.101-1.805.216-2.275.254a32 32 0 0 0-1.843.229c-.54.088-1.442.196-2.001.247-.566.051-1.335.16-1.716.248-.388.083-.94.19-1.24.229a16 16 0 0 0-1.08.19c-.298.064-.984.191-1.524.28s-1.246.235-1.564.318c-.317.089-.851.203-1.175.26-.33.058-.782.16-1.01.223-.23.063-.668.171-.985.228-.312.058-.77.16-1.017.223-.241.07-.686.178-.985.248-.299.076-.826.216-1.175.317s-.947.274-1.335.388c-.381.108-1.017.28-1.404.375a9 9 0 0 0-.858.254c-.076.044-.49.184-.909.318-.425.133-.997.33-1.277.445s-.851.33-1.27.489-.98.362-1.24.457a11 11 0 0 0-.699.28c-.12.057-.438.19-.699.305-.26.108-.718.292-1.016.42-.299.12-.642.273-.763.336-.12.064-.565.28-.985.477-.419.203-.89.425-1.048.508-.159.076-.597.305-.985.508-.381.204-.813.445-.953.534-.14.095-.369.222-.509.286-.14.057-.413.21-.603.337-.19.12-.705.45-1.144.73l-1.156.757c-.197.14-.375.247-.394.247s-.26.147-.528.33c-.273.185-.724.51-1.004.719-.28.216-.565.426-.641.464a3.5 3.5 0 0 0-.394.28c-.14.114-.432.349-.655.527-.216.171-.629.514-.908.756-.286.241-.706.578-.94.75-.242.171-.433.35-.433.394s-.14.21-.311.362c-.172.152-.502.451-.731.654-.229.21-.42.413-.42.458 0 .044-.057.102-.127.12-.07.02-.127.07-.127.102s-.044.057-.101.057-.077.032-.051.077q.058.094-.045 0c-.044-.038-.101-.077-.133-.077-.025 0-.038.07-.032.153.007.108-.101.28-.362.572-.203.229-.413.42-.457.42-.051 0-.09.056-.09.126 0 .083-.044.127-.12.127a.18.18 0 0 0-.165.127c-.02.07-.07.128-.102.128s-.083.05-.102.108a1 1 0 0 1-.14.21c-.057.056-.228.26-.387.444-.159.19-.426.502-.597.693a9 9 0 0 0-.413.514c-.051.09-.197.286-.312.445s-.28.369-.362.477c-.083.101-.413.553-.743.991-.324.438-.693.972-.814 1.195-.12.216-.4.667-.623 1.004-.216.33-.489.781-.603.997-.12.21-.337.585-.49.833-.152.241-.457.794-.673 1.22s-.42.838-.445.92a1.6 1.6 0 0 1-.228.376c-.102.127-.21.337-.248.464a3 3 0 0 1-.26.565 4.3 4.3 0 0 0-.312.674c-.07.19-.146.375-.184.42s-.14.291-.23.546c-.088.26-.203.533-.247.603-.05.076-.19.394-.318.7-.127.31-.324.857-.445 1.213-.12.356-.26.712-.31.794-.052.083-.153.35-.217.597-.07.248-.172.54-.229.642-.05.108-.158.42-.235.7a8 8 0 0 1-.28.819c-.076.178-.19.508-.247.73-.057.223-.203.693-.324 1.043-.12.35-.223.692-.223.762s-.095.47-.216.89c-.12.42-.273 1.004-.35 1.302-.07.3-.196.827-.285 1.176-.089.35-.286 1.175-.438 1.843-.16.66-.344 1.461-.414 1.779-.076.311-.19.985-.266 1.493-.07.508-.185 1.15-.255 1.43s-.197.991-.286 1.588c-.082.591-.184 1.227-.216 1.411a16 16 0 0 0-.133.858c-.038.292-.12.953-.197 1.48-.07.521-.178 1.354-.241 1.843-.064.49-.134 1.087-.16 1.334l-.07.922c-.018.26-.07.775-.1 1.143-.039.369-.084.68-.09.7-.013.019-.044.476-.063 1.016-.026.54-.07 1.24-.096 1.557a36 36 0 0 0-.07 1.62c-.012.579-.025 1.45-.025 1.938 0 .49.025 1.792.044 2.892.026 1.099.077 2.3.115 2.668s.095.84.127 1.049c.032.21.089.75.127 1.207.038.451.127 1.156.197 1.557.064.4.203 1.233.311 1.843s.248 1.309.312 1.556c.07.242.171.687.228.985.058.299.153.642.204.763.05.12.184.565.305.985.114.419.33 1.093.483 1.493.146.4.355 1.004.476 1.34.115.337.28.763.362.954.083.19.172.425.197.534.026.101.166.432.305.73.14.299.42.87.623 1.271s.521 1.03.712 1.398c.19.369.502.921.686 1.24.19.31.438.704.553.863.114.166.21.312.21.337s.177.299.4.616c.216.318.572.84.794 1.157.223.324.515.718.655.883s.356.439.483.604c.127.171.394.489.584.711.197.223.547.61.775.858.235.248.521.566.636.7.12.139.705.743 1.309 1.334.597.597 1.43 1.41 1.842 1.798.413.394.877.807 1.03.921.152.115.52.388.826.604.299.216.578.42.61.445.038.031.235.184.445.343s.584.42.826.584c.248.166.514.344.603.407.09.057.248.184.35.273.108.096.407.299.667.451.26.16.547.33.63.382.088.044.209.133.279.184s.216.172.33.267c.108.095.381.267.61.388.223.12.61.355.852.52.247.166.59.37.762.458.178.089.362.197.413.248.057.044.286.184.509.311.228.127.54.28.692.35.153.07.35.184.445.248.089.063.54.31.991.546.458.241 1.24.642 1.748.89a478 478 0 0 0 2.287 1.13c.75.37 1.697.814 2.097.992.4.184.96.438 1.239.572s.68.311.89.387c.21.083.413.165.444.19.038.026.235.109.445.192.21.082.451.197.534.247.083.058.299.147.477.21.177.064.355.114.4.114.044 0 .286.096.54.217.254.114.534.235.623.254.089.025.273.089.413.146s.375.159.52.222c.147.064.3.115.344.115.038 0 .292.095.559.216a5.6 5.6 0 0 0 .775.286c.165.038.477.152.7.254.222.101.495.21.596.228.109.026.452.153.763.286.318.127.73.299.921.382.19.076.509.197.7.26l.73.242c.21.063.623.21.921.317s.598.23.668.26c.07.033.21.09.305.128.101.038.4.108.66.165.261.051.63.165.814.248.184.076.54.19.788.248s.66.184.915.286c.248.101.61.216.8.254s.509.152.7.254a5 5 0 0 0 .61.254c.14.045.425.146.635.229s.623.197.921.254.73.172.966.254c.235.083.68.197.991.254.305.051.7.134.877.185.172.05.528.14.788.19.26.051.89.14 1.398.197.508.058 1.106.153 1.334.204.324.076.992.108 3.21.127 1.9.019 2.992.006 3.399-.045l1.112-.127c.28-.032 1.023-.101 1.652-.159s1.303-.14 1.493-.19c.19-.051.61-.134.928-.185.317-.057.8-.12 1.08-.14.273-.018.66-.076.852-.12.19-.045.508-.127.698-.178.191-.057.623-.146.954-.203.33-.064.82-.178 1.08-.26s.775-.217 1.144-.306.985-.248 1.372-.35.814-.234.953-.292a9 9 0 0 1 .756-.254c.28-.076.979-.305 1.557-.508l1.493-.508c.248-.083.82-.299 1.271-.483.458-.178.884-.369.953-.407.07-.045.312-.146.54-.222.23-.083.47-.185.54-.23.07-.044.356-.177.636-.298.28-.12.693-.305.921-.413.23-.102.655-.292.954-.413.298-.12 1.054-.49 1.683-.807.63-.324 1.246-.654 1.367-.73.12-.07.45-.242.73-.375a5 5 0 0 0 .826-.477c.178-.133.451-.311.604-.388a5 5 0 0 0 .445-.254 8 8 0 0 1 .508-.311c.19-.108.508-.286.7-.388.19-.101.495-.28.666-.406.178-.121.661-.433 1.08-.693s.865-.527.985-.585c.121-.063.598-.4 1.062-.756.457-.356 1.397-1.055 2.09-1.563.686-.508 1.41-1.042 1.614-1.188.197-.153.445-.35.547-.451.101-.102.4-.369.667-.591.26-.223.553-.47.641-.547.096-.076.236-.178.318-.235.083-.05.362-.298.623-.546.26-.248.616-.572.788-.718.171-.146.572-.509.89-.807.317-.293.92-.883 1.34-1.303.42-.426 1.106-1.13 1.525-1.57.42-.438.909-.965 1.093-1.169.178-.203.445-.502.591-.66.146-.16.394-.458.56-.668.158-.21.552-.686.87-1.054.311-.369.699-.852.851-1.068a10 10 0 0 1 .566-.692c.159-.166.464-.54.686-.84.222-.298.56-.787.756-1.099.19-.305.521-.787.73-1.08.21-.286.44-.61.51-.711.07-.108.253-.382.4-.617.146-.229.343-.546.444-.699.096-.146.324-.508.509-.794.178-.286.425-.686.546-.89.12-.203.33-.584.47-.845.14-.26.439-.851.668-1.302.222-.458.457-.896.52-.985a9 9 0 0 0 .37-.667c.145-.28.425-.852.615-1.271.191-.42.394-.833.452-.922.05-.089.14-.26.19-.38.051-.122.127-.293.165-.382.032-.089.115-.273.185-.413.063-.14.26-.597.432-1.017s.33-.832.356-.921a4 4 0 0 1 .19-.477c.076-.178.248-.603.381-.953.134-.35.293-.807.363-1.017s.21-.584.311-.826c.102-.247.254-.686.343-.984.09-.3.235-.801.324-1.112.09-.318.26-.871.375-1.24.115-.368.242-.826.273-1.016.038-.19.166-.667.286-1.049.121-.387.235-.845.26-1.023a5.6 5.6 0 0 1 .198-.851c.082-.286.203-.826.254-1.195.057-.375.184-1.055.286-1.506a36 36 0 0 0 .305-1.684c.076-.47.178-1.34.235-1.931.076-.788.108-1.703.108-3.4-.006-1.277-.032-2.669-.07-3.088a48 48 0 0 0-.159-1.557c-.05-.438-.127-1.067-.165-1.398a26 26 0 0 0-.133-1.016c-.032-.23-.115-.7-.185-1.049-.07-.35-.184-.966-.254-1.366s-.184-.96-.248-1.24c-.063-.279-.152-.723-.197-.984a6.5 6.5 0 0 0-.235-.953c-.082-.26-.222-.775-.305-1.144-.076-.368-.222-.94-.317-1.27-.096-.331-.255-.865-.363-1.176-.108-.318-.254-.8-.336-1.08-.077-.28-.235-.807-.343-1.176a11 11 0 0 0-.363-1.017c-.082-.19-.247-.635-.368-.985-.115-.35-.312-.908-.439-1.239a16 16 0 0 0-.317-.826c-.058-.12-.235-.565-.394-.985-.16-.419-.42-1.023-.579-1.334-.152-.318-.28-.597-.28-.623 0-.025-.063-.184-.133-.35-.076-.164-.292-.628-.483-1.028-.19-.4-.489-1.017-.667-1.367a9 9 0 0 0-.406-.737c-.051-.057-.267-.457-.477-.89-.216-.431-.451-.876-.534-.978a5 5 0 0 1-.317-.54 3 3 0 0 0-.286-.477.8.8 0 0 1-.146-.292c-.026-.089-.166-.356-.325-.603-.158-.242-.495-.77-.756-1.17-.26-.4-.603-.946-.762-1.207-.165-.26-.369-.565-.464-.667a3.3 3.3 0 0 1-.318-.477 14 14 0 0 0-.362-.61 10 10 0 0 0-.407-.578c-.114-.146-.21-.286-.21-.318 0-.031-.114-.203-.254-.394-.14-.184-.362-.463-.501-.622a8 8 0 0 1-.56-.737 7 7 0 0 0-.622-.807c-.172-.197-.47-.54-.655-.763a78 78 0 0 1-.616-.781c-.16-.197-.273-.363-.254-.363s-.191-.222-.464-.495c-.267-.273-.833-.852-1.252-1.29s-.96-1.004-1.207-1.265c-.242-.26-.439-.495-.426-.52.006-.032-.057-.083-.146-.115-.09-.032-.28-.184-.432-.337a5 5 0 0 0-.458-.407c-.101-.082-.152-.146-.108-.146.038 0 .076-.031.076-.063 0-.038-.05-.064-.114-.064-.063 0-.54-.4-1.061-.89-.527-.489-1.112-.997-1.303-1.124s-.463-.324-.603-.432c-.14-.102-.464-.362-.725-.572s-.603-.49-.762-.616a4.4 4.4 0 0 0-.578-.394 8 8 0 0 1-.731-.477c-.242-.178-.515-.375-.604-.445-.089-.063-.49-.33-.896-.597-.406-.26-.8-.496-.87-.515-.077-.025-.299-.165-.502-.311a13 13 0 0 0-.814-.534c-.241-.14-.743-.406-1.105-.584a10 10 0 0 1-.826-.445 1.3 1.3 0 0 0-.324-.165 4 4 0 0 1-.509-.223c-.19-.095-.59-.292-.89-.432a15 15 0 0 0-.984-.432 15 15 0 0 1-1.15-.508c-.388-.19-.877-.4-1.08-.464-.204-.07-.515-.178-.693-.248a21 21 0 0 0-2.224-.68 4.4 4.4 0 0 1-.775-.267c-.185-.089-.337-.19-.337-.222s-.064-.051-.14-.045a3 3 0 0 1-.527-.038 4.4 4.4 0 0 1-.795-.197 9 9 0 0 0-.972-.248 7 7 0 0 1-.794-.184c-.133-.044-.623-.146-1.093-.229-.47-.076-1.258-.21-1.747-.292a28 28 0 0 0-1.811-.248c-.509-.05-1.252-.127-1.652-.159a81 81 0 0 0-2.002-.152 61 61 0 0 0-2.834-.095zM119.857 129.607c-.14.007-.54.026-.89.051-.349.025-1.003.108-1.46.184-.452.077-1.157.223-1.557.324s-.915.26-1.144.35c-.229.095-.813.368-1.31.61-.488.241-1.105.59-1.372.769-.266.184-.768.572-1.112.858-.35.286-.87.775-1.169 1.08-.292.305-.73.8-.96 1.1a19 19 0 0 0-.844 1.187c-.23.356-.572.96-.757 1.335-.19.375-.432.946-.533 1.27a12 12 0 0 0-.293 1.049c-.05.254-.158.775-.241 1.163-.108.54-.14.921-.14 1.684-.006.832.026 1.162.197 2.135.115.635.28 1.391.375 1.684.089.292.235.718.324.946.095.23.273.63.407.89a14.3 14.3 0 0 0 1.245 2.033c.197.26.674.8 1.061 1.195.388.4.947.915 1.246 1.15.298.241.686.534.858.648.178.12.546.356.826.521.28.159.813.432 1.175.61.369.172.922.4 1.233.508.311.115.883.267 1.27.356.388.083.986.178 1.322.216.344.039 1.119.07 1.729.07.603 0 1.398-.031 1.76-.07.362-.031.991-.14 1.391-.228.4-.09 1.08-.274 1.506-.407.42-.14 1.068-.4 1.43-.585.356-.184.934-.508 1.271-.724.337-.21.839-.553 1.112-.756s.832-.712 1.245-1.131a17 17 0 0 0 1.316-1.5c.311-.413.692-.947.845-1.188.159-.235.368-.604.476-.813.102-.21.318-.725.477-1.144.152-.42.343-.991.413-1.271.076-.28.19-.845.267-1.252.089-.54.127-1.016.127-1.76 0-.59-.038-1.296-.095-1.665-.051-.35-.16-.915-.23-1.251a19 19 0 0 0-.38-1.367c-.14-.413-.4-1.042-.572-1.398a14 14 0 0 0-.712-1.22c-.21-.31-.515-.73-.667-.92-.159-.192-.528-.617-.826-.948a14 14 0 0 0-1.214-1.13 29 29 0 0 0-1.213-.903 16 16 0 0 0-1.564-.883c-.571-.286-1.36-.623-1.81-.77a16 16 0 0 0-1.646-.412c-.47-.09-1.1-.19-1.398-.229a7 7 0 0 0-.795-.05m106.092.756c-.635.007-1.398.051-1.912.121-.47.064-1.01.146-1.195.184-.19.039-.66.172-1.049.293a27 27 0 0 0-1.188.413c-.26.095-.648.26-.851.356-.21.095-.591.298-.852.45-.267.16-.692.426-.96.604-.266.178-.654.458-.863.617-.21.159-.636.533-.947.832s-.744.769-.96 1.049-.572.8-.788 1.156a16 16 0 0 0-.648 1.233c-.14.324-.336.877-.432 1.232-.101.356-.241.94-.317 1.31-.07.362-.248 1.575-.388 2.694-.146 1.118-.375 2.878-.508 3.914-.14 1.036-.344 2.58-.445 3.431-.108.852-.204 1.595-.223 1.646-.012.05-.082.623-.158 1.27-.07.649-.16 1.335-.191 1.526-.032.19-.134.908-.216 1.588-.09.68-.248 1.868-.356 2.637-.108.77-.254 1.868-.324 2.44s-.14 1.068-.159 1.1a.14.14 0 0 1-.102.05c-.031 0-.38-.203-.775-.45a22 22 0 0 0-1.785-.98c-.591-.292-1.22-.59-1.398-.654-.172-.07-.674-.267-1.112-.438a31 31 0 0 0-1.271-.483 45 45 0 0 0-1.207-.381c-.4-.121-.896-.267-1.093-.324-.204-.058-.776-.21-1.271-.33a69 69 0 0 0-1.925-.433c-.56-.12-1.157-.235-1.335-.254a43 43 0 0 1-.953-.165c-.35-.07-1.093-.185-1.652-.255a44 44 0 0 0-2.033-.222c-.687-.063-2.021-.089-4.099-.095-2.148 0-3.418.032-4.194.095-.61.05-1.57.146-2.128.216a74 74 0 0 0-1.78.267c-.419.076-1.232.248-1.81.381-.579.14-1.417.343-1.875.464-.451.114-1.08.292-1.398.388-.311.095-.813.254-1.112.35-.299.1-.813.285-1.144.412s-.82.312-1.08.413c-.26.102-.864.343-1.334.54-.47.191-1.557.706-2.415 1.131a60 60 0 0 0-2.446 1.284c-.49.28-1.068.623-1.29.762-.223.14-.661.426-.985.636s-1.023.692-1.563 1.08a56 56 0 0 0-1.938 1.48c-.528.433-1.31 1.1-1.741 1.488a41 41 0 0 0-3.914 4.18c-.458.579-1.01 1.29-1.22 1.59-.21.298-.566.812-.788 1.143s-.718 1.118-1.1 1.747c-.387.63-1.118 1.97-1.64 2.987-.514 1.01-1.041 2.097-1.168 2.414a93 93 0 0 0-.68 1.684c-.242.61-.623 1.671-.845 2.351-.223.68-.477 1.494-.566 1.811-.089.312-.324 1.201-.514 1.97-.197.769-.452 1.88-.572 2.478-.121.591-.286 1.538-.375 2.097-.09.56-.235 1.601-.324 2.32a61 61 0 0 0-.26 2.859c-.077 1.22-.096 2.325-.07 5.147.018 1.976.063 3.889.1 4.257.039.369.128 1.15.198 1.747a56 56 0 0 0 .292 2.002c.083.508.273 1.462.413 2.129.146.66.369 1.607.509 2.097.133.489.33 1.162.432 1.493.101.33.254.832.35 1.112.088.28.253.781.374 1.112a51.075 51.075 0 0 0 2.211 5.052c.439.87.928 1.804 1.087 2.065s.438.718.623 1.016c.184.299.495.782.686 1.08.197.3.699.998 1.118 1.557.42.56.902 1.188 1.08 1.398s.617.712.973 1.112c.35.4 1.194 1.277 1.874 1.938a56 56 0 0 0 2.052 1.926c.458.387.998.845 1.208 1.003.21.16.667.509 1.016.77.35.266 1.208.857 1.907 1.321s1.468.96 1.703 1.106 1.029.559 1.753.927c.731.363 1.665.801 2.078.973.42.177 1.316.533 2.002.8.686.26 1.671.604 2.192.763.521.152 1.277.368 1.684.476a55 55 0 0 0 1.792.42c.584.12 1.48.292 1.995.38a87 87 0 0 0 1.64.249c.387.057 1.143.14 1.683.197s1.557.127 2.256.159a64 64 0 0 0 2.383.063c.61 0 1.64-.032 2.287-.063a64 64 0 0 0 1.78-.128c.33-.038.978-.127 1.43-.197.457-.07 1.168-.203 1.588-.285a62 62 0 0 0 1.779-.413c.56-.14 1.258-.33 1.557-.42s.985-.305 1.525-.483 1.283-.438 1.652-.59c.368-.147 1.017-.414 1.449-.592.425-.178.788-.324.807-.324.012 0 .114.178.222.394.114.216.388.674.61 1.017.229.343.578.832.782 1.08.203.254.641.724.965 1.036.33.318.84.762 1.138.991s.858.61 1.252.845 1.035.578 1.43.763c.393.184.99.425 1.321.533s.877.267 1.207.356c.33.083.922.21 1.303.286.388.07.915.153 1.175.19.261.033.89.077 1.398.103.509.019 1.398.006 1.977-.026.743-.044 1.321-.12 1.97-.26a19 19 0 0 0 1.518-.394c.33-.102.788-.26 1.017-.35s.654-.286.953-.438.858-.483 1.239-.731c.388-.248.928-.648 1.207-.883.28-.242.77-.7 1.087-1.03.311-.324.686-.75.832-.94.14-.197.42-.635.617-.979s.444-.813.552-1.042c.108-.235.293-.699.413-1.035.115-.337.286-.922.375-1.303s.223-1.176.293-1.773c.07-.59.152-1.188.184-1.334.032-.14.102-.7.159-1.24s.14-1.213.19-1.493c.051-.28.134-.883.19-1.334.052-.457.166-1.328.255-1.938a651 651 0 0 0 .566-4.32c.05-.401.152-1.202.228-1.78.07-.578.172-1.347.23-1.716.05-.368.177-1.309.279-2.097.101-.787.203-1.5.222-1.588.02-.09.115-.82.223-1.62.101-.807.31-2.491.47-3.75.165-1.258.35-2.72.42-3.24.069-.527.183-1.41.253-1.97s.216-1.633.318-2.383a279 279 0 0 0 .724-5.528c.051-.438.223-1.81.382-3.05.158-1.239.35-2.7.419-3.24.076-.54.216-1.646.324-2.447l.311-2.446c.07-.54.185-1.398.255-1.9.07-.509.158-1.163.19-1.462s.115-.978.19-1.5c.077-.527.191-1.41.255-1.97.07-.558.153-1.232.184-1.492.038-.26.127-.909.197-1.43l.324-2.415c.102-.807.274-2.135.375-2.954.096-.82.229-1.85.28-2.288.057-.438.165-1.252.235-1.81.07-.56.21-1.634.311-2.384s.254-1.925.343-2.605.178-1.309.197-1.398.102-.743.185-1.461c.089-.718.216-1.792.292-2.383.07-.597.203-1.57.286-2.16.083-.598.184-1.38.222-1.748s.127-.998.19-1.398c.07-.4.198-1.303.287-2.001.089-.7.305-2.39.476-3.75.178-1.366.375-2.935.445-3.494s.197-1.544.286-2.193c.083-.648.184-1.525.223-1.95.031-.426.063-1.017.063-1.322 0-.299-.032-.82-.063-1.163-.039-.337-.14-.947-.23-1.347-.095-.4-.247-.947-.349-1.214a12 12 0 0 0-.495-1.124c-.172-.35-.553-.985-.84-1.417-.412-.617-.742-1.01-1.537-1.818-.813-.826-1.194-1.156-1.912-1.658a16 16 0 0 0-1.678-1.023c-.432-.216-1.1-.508-1.493-.642a22 22 0 0 0-1.659-.502 25 25 0 0 0-1.34-.324 20.287 20.287 0 0 0-3.203-.248m-35.526 51.158c.61-.006 1.455.02 1.874.051.42.032 1.176.12 1.684.19.508.077 1.354.223 1.875.325.527.108 1.328.292 1.791.413.464.12 1.106.317 1.43.445.324.127.839.355 1.144.508.305.152.75.394.985.546.235.146.648.426.908.617.261.197.731.597 1.043.896.31.298.73.762.94 1.035.21.267.508.712.667.985.159.267.388.718.508.992.128.28.312.75.414 1.042s.222.826.273 1.182c.05.349.095.959.095 1.353 0 .388-.044 1.1-.095 1.589a70 70 0 0 1-.254 2.02c-.083.63-.242 1.773-.344 2.542s-.266 1.97-.355 2.669l-.452 3.526c-.152 1.24-.38 3.025-.502 3.972-.12.94-.305 2.37-.413 3.177-.108.8-.266 2.008-.349 2.675s-.21 1.62-.28 2.129c-.07.501-.158 1.118-.19 1.36-.038.247-.14.61-.229.813s-.311.59-.49.857c-.177.267-.584.75-.902 1.062-.317.317-.82.737-1.118.934-.299.19-.667.425-.826.514a9 9 0 0 1-.826.382c-.299.12-.813.305-1.144.413s-.902.273-1.258.356a26 26 0 0 1-1.588.305c-.84.133-1.15.146-3.063.146-1.684-.007-2.288-.032-2.891-.121a30 30 0 0 1-1.652-.299 33 33 0 0 1-1.684-.42 22 22 0 0 1-1.43-.47c-.35-.126-.851-.323-1.112-.431-.26-.115-.851-.4-1.315-.642a17 17 0 0 1-1.335-.769 28 28 0 0 1-.813-.553 30 30 0 0 1-.985-.781 16 16 0 0 1-1.023-.928 35 35 0 0 1-.73-.813c-.21-.248-.528-.649-.706-.89a17 17 0 0 1-.591-.89 23 23 0 0 1-.737-1.366c-.248-.508-.566-1.207-.693-1.557-.133-.35-.336-.953-.457-1.334a29 29 0 0 1-.426-1.652c-.12-.527-.26-1.24-.318-1.589a36 36 0 0 1-.178-1.334c-.038-.388-.076-1.442-.076-2.351s.038-1.995.076-2.415c.045-.42.14-1.175.21-1.684s.197-1.296.286-1.747c.089-.457.273-1.284.42-1.843.14-.559.38-1.385.54-1.83.158-.45.463-1.226.686-1.722.216-.495.495-1.099.616-1.347.12-.241.47-.883.782-1.423.305-.54.692-1.201.858-1.468.165-.273.571-.845.896-1.27.33-.433.838-1.043 1.137-1.354.299-.305.813-.795 1.144-1.08.33-.293.89-.712 1.239-.935.35-.228.864-.546 1.144-.705a14.6 14.6 0 0 1 2.344-1.03c.273-.095.87-.266 1.335-.387.457-.12 1.207-.273 1.664-.35a28 28 0 0 1 1.271-.184c.242-.031.94-.057 1.55-.057M78.986 135.288c-.871-.02-1.85-.006-2.18.025-.33.026-.87.108-1.2.185-.325.07-.941.235-1.367.362-.42.133-1.055.343-1.404.47-.35.127-.82.33-1.049.445s-.667.35-.985.527c-.311.172-.8.477-1.08.667-.28.197-.781.566-1.112.833-.33.26-.845.705-1.137.991-.293.28-.737.75-.992 1.048-.247.3-.61.77-.807 1.049-.19.28-.508.794-.705 1.144s-.603 1.194-.902 1.874c-.305.68-.864 1.938-1.252 2.796s-1.067 2.357-1.512 3.336c-.451.979-.985 2.173-1.201 2.656s-.388.89-.388.902-.14.318-.311.68c-.172.356-.54 1.17-.82 1.799s-.743 1.658-1.03 2.287c-.285.63-.68 1.5-.87 1.938-.19.439-.96 2.135-1.703 3.78a518 518 0 0 0-1.842 4.1c-.274.61-.591 1.327-.712 1.588-.127.26-.464 1.004-.75 1.652-.292.648-.813 1.81-1.169 2.592a40 40 0 0 0-.642 1.456c0 .019-.286.66-.635 1.423-.35.762-.807 1.78-1.01 2.262a99 99 0 0 1-1.074 2.402c-.382.839-1.119 2.453-1.633 3.59-.515 1.137-.96 2.09-.992 2.122-.031.032-.07.045-.089.026-.019-.013-.076-.369-.133-.788-.051-.413-.248-1.57-.439-2.567-.184-.998-.38-2.053-.438-2.351s-.19-1.055-.299-1.684c-.108-.63-.247-1.43-.311-1.78-.064-.349-.203-1.137-.305-1.747-.108-.61-.286-1.57-.388-2.128-.101-.56-.305-1.646-.45-2.415-.147-.769-.318-1.697-.382-2.065-.07-.369-.21-1.138-.311-1.716a317 317 0 0 0-.579-3.113c-.216-1.138-.489-2.612-.61-3.273a208 208 0 0 1-.406-2.32l-.254-1.429c-.032-.178-.178-.934-.318-1.684s-.362-1.74-.483-2.192a19 19 0 0 0-.515-1.557c-.159-.4-.438-1.029-.629-1.398a12 12 0 0 0-.635-1.112c-.165-.247-.49-.686-.725-.984a14 14 0 0 0-1.054-1.144 18 18 0 0 0-1.316-1.125c-.381-.28-1.01-.68-1.398-.883a43 43 0 0 0-1.232-.61c-.293-.127-.877-.35-1.303-.49a20 20 0 0 0-1.385-.374c-.33-.07-.934-.166-1.335-.21s-1.175-.083-1.715-.083-1.354.032-1.811.083c-.451.044-1.195.153-1.646.241-.451.09-1.137.255-1.525.369s-.998.324-1.36.47a18.175 18.175 0 0 0-2.58 1.29c-.28.172-.813.553-1.175.833-.369.285-.979.832-1.36 1.22-.381.38-.902.959-1.163 1.277-.254.317-.565.73-.692.921-.127.19-.413.712-.642 1.163-.229.445-.502 1.048-.597 1.334-.096.28-.242.8-.318 1.15-.07.35-.178.934-.229 1.303-.057.381-.095 1.15-.095 1.798 0 .623.019 1.335.038 1.589.025.254.159 1.13.292 1.95.14.82.267 1.538.28 1.59.012.05.101.495.184.984.089.49.388 2.16.674 3.717.28 1.557.597 3.298.705 3.876.102.579.248 1.347.311 1.716.07.369.267 1.468.445 2.446.172.979.407 2.237.508 2.796.108.56.28 1.5.388 2.097.102.591.241 1.379.311 1.748.064.368.235 1.283.375 2.033s.369 1.995.515 2.764.318 1.728.388 2.129c.07.4.158.857.19 1.016.038.16.12.598.184.985a219.244 219.244 0 0 0 .705 3.813c.064.35.236 1.232.376 1.97.146.73.33 1.76.42 2.287.082.521.196 1.118.24 1.334.051.21.109.521.128.7.025.171.114.686.197 1.143.089.451.241 1.296.35 1.875.107.578.253 1.347.323 1.715s.197 1.08.286 1.589.184 1.023.216 1.144c.032.12.09.419.127.667.038.241.172 1.004.293 1.684.127.68.368 1.995.54 2.923.171.927.4 2.141.502 2.7s.343 1.932.54 3.05c.19 1.119.495 2.777.667 3.686.178.908.407 2.135.508 2.732.102.59.299 1.71.445 2.478.14.769.305 1.64.356 1.938s.21 1.112.343 1.811c.14.699.324 1.671.407 2.16.089.49.26 1.45.387 2.13.121.68.28 1.55.343 1.937.07.381.204 1.112.293 1.62l.425 2.256c.14.731.318 1.729.4 2.205.083.483.21 1.182.28 1.557.07.381.216 1.17.324 1.766.108.591.286 1.55.388 2.13.108.577.273 1.473.375 2 .102.522.222 1.183.28 1.462.05.28.171.852.26 1.271.083.42.254 1.093.375 1.493.12.4.35 1.023.502 1.373.152.356.42.883.584 1.175.166.293.464.776.661 1.068.19.292.655.864 1.023 1.258.369.4.896.915 1.176 1.144.28.222.781.59 1.112.813.33.222.991.591 1.461.82s1.138.514 1.487.642c.343.12.966.305 1.385.413.426.101 1.087.235 1.475.298.52.083 1.112.108 2.262.115 1.353 0 1.665-.02 2.408-.147.47-.082 1.2-.235 1.62-.336.426-.102 1.01-.26 1.31-.356.298-.09.87-.293 1.27-.445s1.004-.426 1.335-.604a22 22 0 0 0 1.525-.927c.768-.515 1.08-.776 1.874-1.57.667-.66 1.118-1.175 1.474-1.684.28-.4.642-.972.8-1.27.16-.3.407-.814.54-1.144.14-.33.331-.833.42-1.112.096-.28.242-.896.337-1.366.153-.782.165-.998.172-2.415 0-1.182-.026-1.722-.108-2.256-.058-.387-.185-1.1-.274-1.588-.089-.49-.26-1.392-.375-2.002a93 93 0 0 1-.254-1.398c-.019-.159-.095-.584-.165-.953-.063-.369-.356-1.938-.635-3.495-.28-1.557-.579-3.202-.661-3.654l-.439-2.414c-.158-.877-.374-2.078-.483-2.669-.108-.597-.28-1.512-.38-2.033-.102-.528-.268-1.424-.376-2.002a89 89 0 0 1-.286-1.62c-.05-.318-.222-1.29-.387-2.16-.16-.877-.407-2.206-.547-2.955-.146-.75-.336-1.78-.438-2.288-.095-.508-.229-1.2-.286-1.544-.064-.343-.095-.642-.07-.66.02-.02.254.158.521.4l.947.851c.254.229 1.004.909 1.665 1.519.654.603 1.664 1.537 2.243 2.065.578.527 1.277 1.175 1.557 1.442.28.26 1.194 1.106 2.027 1.875.838.762 1.728 1.576 1.982 1.804.254.23.928.84 1.5 1.366.565.522 1.366 1.252 1.766 1.627s.909.833 1.125 1.017c.216.19.991.902 1.715 1.582.731.68 1.811 1.684 2.402 2.224a210 210 0 0 1 1.652 1.525c.318.299 1.004.928 1.525 1.404.528.477 1.297 1.176 1.722 1.557.42.381 1.316 1.207 1.99 1.836.673.63 1.556 1.45 1.963 1.83.413.375.972.89 1.258 1.144.28.248 1.207 1.1 2.052 1.887.852.788 1.913 1.76 2.358 2.16s1.36 1.246 2.033 1.875c.674.63 1.544 1.424 1.932 1.767a18 18 0 0 0 1.658 1.258c.521.35 1.296.807 1.716 1.01.42.21 1.042.477 1.391.604.344.127 1.004.324 1.462.445.464.114 1.112.267 1.442.33.496.095.915.115 2.44.108 1.64 0 1.92-.019 2.504-.14a30 30 0 0 0 1.576-.394 25 25 0 0 0 1.69-.552 29 29 0 0 0 1.588-.655 20 20 0 0 0 1.271-.635c.255-.153.731-.451 1.061-.674.33-.216.915-.692 1.29-1.048.382-.356.985-1.004 1.347-1.436.369-.439.84-1.1 1.055-1.468.216-.369.502-.902.636-1.195.133-.292.33-.75.432-1.023a16 16 0 0 0 .375-1.194c.108-.388.235-1.017.292-1.398.05-.388.114-.928.133-1.208.026-.355 0-.813-.089-1.5a9 9 0 0 0-.355-1.677c-.121-.375-.394-1.01-.604-1.417a12 12 0 0 0-.794-1.315c-.235-.33-.788-.947-1.316-1.461a58 58 0 0 0-1.772-1.653 92 92 0 0 1-1.811-1.652c-.528-.489-1.576-1.461-2.345-2.16-.763-.7-1.62-1.487-1.9-1.748-.286-.26-.96-.876-1.5-1.366-.54-.489-1.181-1.08-1.43-1.309-.24-.228-.819-.756-1.27-1.175-.458-.413-1.214-1.1-1.678-1.519a172 172 0 0 1-1.747-1.582 90 90 0 0 1-1.531-1.43c-.35-.337-1.322-1.226-2.16-1.976-.84-.75-1.767-1.595-2.066-1.874s-.998-.922-1.557-1.43c-.553-.508-1.27-1.163-1.588-1.462a164 164 0 0 0-1.85-1.683c-.692-.63-1.48-1.341-1.74-1.589-.261-.248-.731-.674-1.049-.953-.311-.28-.87-.794-1.239-1.144s-1.398-1.296-2.288-2.097c-.89-.807-1.849-1.677-2.128-1.938-.286-.26-.928-.851-1.43-1.309-.508-.464-1.62-1.474-2.465-2.25-.852-.78-1.563-1.448-1.576-1.492-.02-.045.184-.534.451-1.087.273-.56.915-1.938 1.43-3.075s1.143-2.51 1.398-3.05.508-1.112.572-1.271c.063-.16.406-.915.762-1.684.362-.769.813-1.773 1.017-2.224.197-.458.565-1.258.813-1.78a90 90 0 0 0 .877-1.937c.235-.54.693-1.55 1.017-2.237.33-.686.597-1.265.597-1.284 0-.012.635-1.398 1.404-3.069a424 424 0 0 0 1.786-3.895c.21-.47.648-1.43.972-2.129.324-.698.972-2.103 1.436-3.113.457-1.017.883-1.944.934-2.065.05-.12.369-.839.712-1.589s.883-1.95 1.207-2.669c.324-.718.813-1.779 1.087-2.357.273-.585.73-1.576 1.01-2.211.28-.636.686-1.519.896-1.964a90 90 0 0 0 .788-1.696c.216-.49.502-1.163.635-1.493.127-.33.318-.922.42-1.31a14 14 0 0 0 .28-1.46c.05-.414.094-.96.094-1.208 0-.254-.031-.75-.07-1.112a9 9 0 0 0-.19-1.17c-.076-.279-.222-.75-.343-1.048a16 16 0 0 0-.477-1.08c-.146-.299-.4-.737-.553-.985a29 29 0 0 0-.673-.953c-.216-.28-.744-.858-1.176-1.29a13 13 0 0 0-1.493-1.27c-.388-.268-.82-.56-.966-.636-.14-.083-.527-.293-.858-.458-.33-.171-1.004-.438-1.493-.603a22 22 0 0 0-1.601-.452 26 26 0 0 0-1.347-.247c-.375-.058-1.284-.108-2.211-.121m44.46 24.534a20 20 0 0 0-1.493.019c-.42.031-1.093.095-1.493.152-.4.05-1.043.172-1.43.267-.381.095-1.055.286-1.493.426s-1.15.42-1.589.629c-.432.203-1.074.546-1.43.762-.35.216-.794.515-.99.667-.204.153-.636.515-.967.807s-.8.763-1.048 1.036c-.254.273-.623.718-.826.991-.21.274-.56.858-.788 1.303a14 14 0 0 0-.642 1.442c-.127.35-.286.915-.362 1.259a15 15 0 0 0-.19 1.715c-.045.731-.045 1.417 0 2.078.037.54.164 1.868.285 2.955.127 1.08.292 2.624.381 3.431.083.8.191 1.805.248 2.224.051.42.127 1.093.165 1.493s.108 1.157.16 1.684c.05.521.234 2.281.412 3.908s.35 3.209.382 3.527c.031.311.158 1.461.286 2.541.12 1.087.26 2.415.31 2.955.058.54.172 1.671.261 2.51s.23 2.198.318 3.018c.09.82.184 1.805.223 2.192.031.382.12 1.227.19 1.875s.184 1.677.254 2.287c.064.61.178 1.652.254 2.32.07.66.172 1.62.23 2.128.05.509.139 1.322.184 1.811.05.49.165 1.532.254 2.32.082.788.241 2.255.35 3.272.107 1.01.247 2.326.317 2.923.07.59.171 1.525.222 2.065.057.54.165 1.601.254 2.351.083.75.197 1.837.255 2.415l.222 2.23c.07.655.14 1.296.153 1.43.019.14.063.59.101 1.01.045.42.115 1.093.165 1.493s.166 1.049.255 1.443c.089.387.222.902.305 1.144.082.235.28.743.444 1.124.166.381.407.883.547 1.112.133.229.394.636.578.896.178.26.75.896 1.258 1.404.725.718 1.1 1.036 1.716 1.45.438.291 1.163.704 1.62.927.458.222 1.093.49 1.404.597.318.102.795.248 1.062.318.266.07.851.19 1.302.273.737.134.991.146 2.688.14 1.811 0 1.913-.013 2.987-.203.61-.108 1.461-.3 1.893-.426.426-.12.985-.305 1.24-.407.253-.101.654-.28.895-.387.242-.108.724-.375 1.08-.591.356-.21.915-.591 1.246-.84.33-.253.947-.787 1.366-1.187.42-.407.928-.947 1.125-1.201.197-.26.476-.674.629-.915.146-.248.432-.788.635-1.208.197-.419.47-1.105.597-1.525.121-.419.286-1.13.356-1.582.108-.673.127-1.017.102-1.97-.013-.629-.07-1.537-.127-2.008-.057-.47-.19-1.703-.299-2.732s-.235-2.287-.292-2.796c-.051-.508-.14-1.309-.19-1.779-.052-.47-.179-1.658-.28-2.637-.108-.978-.267-2.408-.356-3.177l-.28-2.573c-.07-.649-.165-1.589-.216-2.097-.057-.509-.127-1.22-.165-1.589a39 39 0 0 0-.127-1.08c-.032-.229-.146-1.246-.248-2.256-.108-1.017-.235-2.243-.292-2.732s-.172-1.506-.254-2.256-.172-1.57-.191-1.81c-.025-.249-.083-.776-.127-1.176a75 75 0 0 1-.19-1.843c-.052-.61-.128-1.354-.16-1.652-.038-.299-.14-1.214-.222-2.034-.089-.82-.216-1.95-.286-2.51s-.21-1.83-.318-2.827c-.101-.998-.203-1.983-.222-2.192-.02-.21-.076-.737-.127-1.176-.057-.438-.153-1.309-.223-1.938s-.165-1.461-.216-1.843a35 35 0 0 1-.165-1.62 77 77 0 0 0-.159-1.81c-.05-.49-.14-1.348-.19-1.907-.057-.56-.14-1.36-.19-1.78-.052-.419-.198-1.721-.325-2.89-.12-1.17-.254-2.39-.286-2.701-.032-.318-.133-1.144-.222-1.843a24 24 0 0 0-.375-2.128c-.12-.47-.305-1.087-.413-1.367s-.343-.775-.521-1.105-.426-.756-.56-.94c-.126-.191-.419-.573-.641-.852-.216-.286-.744-.826-1.163-1.214a15 15 0 0 0-1.385-1.112 18 18 0 0 0-1.398-.807 14 14 0 0 0-1.544-.654 24 24 0 0 0-1.366-.426 16 16 0 0 0-1.494-.286c-.489-.064-1.22-.133-1.62-.152m150.786 9.81c-1.03.007-2.288.039-2.796.064-.509.032-1.404.114-2.002.184a56 56 0 0 0-2.001.293 37 37 0 0 0-3.59.832c-.42.127-.96.292-1.208.375-.241.076-.629.216-.858.305-.228.082-.571.229-.762.311-.19.09-.591.267-.89.394-.298.134-.883.407-1.302.623-.42.21-1.061.565-1.43.794-.369.223-.864.54-1.112.7-.241.158-.775.54-1.176.844-.4.305-1.105.896-1.569 1.31-.458.412-1.1 1.035-1.43 1.384-.324.35-.75.82-.947 1.049s-.597.743-.895 1.144c-.293.4-.718 1.016-.954 1.366-.228.35-.584.934-.794 1.302a34.818 34.818 0 0 0-1.461 2.891 44.899 44.899 0 0 0-1.284 3.54 40 40 0 0 0-.407 1.449c-.089.33-.235.946-.324 1.372-.089.42-.235 1.22-.324 1.78a27 27 0 0 0-.228 2.185c-.045.655-.058 1.71-.039 2.383.026.66.083 1.531.14 1.919.051.394.153 1.004.223 1.353.07.356.197.935.292 1.29.089.356.248.922.35 1.252.107.33.292.877.419 1.207s.394.947.59 1.367c.198.419.585 1.162.852 1.652.273.489.642 1.086.82 1.334.184.242.597.782.921 1.195.33.42.896 1.08 1.271 1.48.369.4 1.112 1.138 1.659 1.64a77 77 0 0 0 1.5 1.334 48.343 48.343 0 0 0 2.7 2.148 72 72 0 0 0 1.97 1.41c.54.369 1.613 1.074 2.382 1.576.77.496 2.06 1.303 2.86 1.792.807.483 1.919 1.144 2.478 1.468.559.318 1.461.82 2.001 1.112.54.286 1.487.8 2.097 1.13.61.338 1.583.865 2.16 1.176.579.312 1.627.884 2.34 1.259.71.38 1.511.826 1.778.99.267.16.845.528 1.284.82.438.287 1.036.719 1.334.954s.87.762 1.277 1.169c.483.49.877.953 1.15 1.372.223.344.483.801.572 1.017.09.21.216.591.274.839.082.337.101.597.076.953-.02.267-.083.66-.14.87s-.229.649-.387.966c-.204.426-.388.693-.649.953-.21.216-.584.496-.908.668a8 8 0 0 1-1.087.495c-.426.146-.75.204-1.43.26-.502.039-1.258.052-1.766.026a17 17 0 0 1-1.303-.101c-.228-.032-.8-.147-1.27-.255a52 52 0 0 1-1.462-.355c-.33-.09-1.17-.33-1.855-.534-.687-.21-1.57-.502-1.97-.655a114.251 114.251 0 0 1-3.133-1.277 44 44 0 0 1-2.001-.966 79 79 0 0 1-1.875-.991c-.311-.178-1.1-.654-1.747-1.068a68 68 0 0 1-2.281-1.512 41 41 0 0 1-1.748-1.296 87 87 0 0 1-1.5-1.252 33 33 0 0 0-1.334-1.093c-.26-.19-.807-.553-1.207-.807a16 16 0 0 0-1.385-.775 12 12 0 0 0-1.176-.508 27 27 0 0 0-1.283-.407 23 23 0 0 0-1.367-.33c-.463-.083-.908-.115-1.906-.108-.966 0-1.461.031-1.906.114-.33.063-.883.184-1.233.267-.343.089-.858.248-1.144.35-.28.107-.788.336-1.118.508s-.877.514-1.207.762c-.33.242-.89.705-1.233 1.03-.35.317-.921.94-1.27 1.378-.35.439-.75.979-.903 1.208-.146.228-.413.686-.585 1.016-.178.33-.438.915-.584 1.29-.14.375-.337.985-.445 1.366a17 17 0 0 0-.311 1.475 26 26 0 0 0-.197 1.62c-.039.451-.058 1.023-.032 1.27a17 17 0 0 0 .553 3.114c.063.242.171.572.222.731.057.159.267.648.47 1.093.204.445.534 1.074.731 1.392s.578.857.851 1.194c.274.337.877.985 1.341 1.443.47.45 1.125 1.067 1.455 1.366.33.292.807.711 1.049.921.248.216.718.616 1.055.896.33.273 1.042.845 1.575 1.258.534.42 1.03.807 1.106.858s.483.337.902.63a53 53 0 0 0 1.589 1.067c.457.286 1.182.73 1.62.99.439.255 1.023.598 1.303.757s1.036.566 1.677.909a59.89 59.89 0 0 0 4.658 2.211c.534.229 1.233.515 1.55.642.318.127.96.368 1.424.546s1.093.4 1.391.502.947.299 1.436.451c.49.146 1.106.33 1.367.413s.851.248 1.302.375c.458.12 1.17.312 1.595.413.42.108 1.163.28 1.652.381.483.102 1.296.261 1.805.35s1.582.267 2.383.388c.807.12 2.02.28 2.7.35s2.167.164 3.298.202c1.55.051 2.51.051 3.908 0 1.016-.044 2.236-.12 2.707-.171s1.245-.153 1.715-.223 1.373-.228 2.002-.349c.629-.127 1.658-.356 2.287-.515.63-.165 1.52-.413 1.97-.565.458-.153 1.03-.35 1.271-.445a31 31 0 0 0 2.446-1.017 29 29 0 0 0 1.907-.978 32 32 0 0 0 1.785-1.093c.413-.273 1.1-.763 1.532-1.087.432-.317 1.124-.89 1.544-1.264a33 33 0 0 0 1.582-1.55 29 29 0 0 0 1.379-1.577 23 23 0 0 0 1.036-1.41c.254-.388.68-1.055.94-1.493s.616-1.068.788-1.398c.171-.33.457-.922.642-1.303.178-.388.438-.972.578-1.303s.381-.99.54-1.461c.159-.47.42-1.328.578-1.906.165-.579.337-1.195.388-1.373s.197-.832.318-1.461c.127-.623.285-1.55.355-2.06.064-.507.153-1.448.191-2.096.044-.832.044-1.531-.006-2.383a28 28 0 0 0-.197-2.052c-.064-.464-.191-1.17-.28-1.557a27 27 0 0 0-.356-1.379c-.108-.368-.28-.909-.387-1.207-.108-.299-.293-.813-.42-1.144-.12-.33-.4-.966-.622-1.41a29 29 0 0 0-.91-1.653 21 21 0 0 0-.8-1.258 64 64 0 0 0-.781-1.016c-.267-.33-1.138-1.265-1.945-2.066-.807-.807-1.766-1.696-2.135-1.982s-.921-.724-1.239-.972a32 32 0 0 0-1.76-1.24 50 50 0 0 0-2.192-1.372 238 238 0 0 0-2.593-1.487c-.87-.495-2.033-1.156-2.573-1.461s-1.487-.845-2.097-1.195-1.64-.934-2.288-1.296c-.648-.369-1.372-.788-1.62-.934a18 18 0 0 0-.89-.515 82 82 0 0 1-1.334-.762 130 130 0 0 0-1.906-1.08c-.56-.312-1.462-.82-2.002-1.132-.54-.317-1.372-.82-1.842-1.118s-1.1-.712-1.386-.915c-.292-.21-.826-.61-1.175-.89a21 21 0 0 1-1.265-1.112c-.336-.33-.762-.807-.94-1.067a7 7 0 0 1-.508-.877 6 6 0 0 1-.293-.826c-.101-.394-.101-.457.007-.979.057-.305.197-.737.305-.965a4.3 4.3 0 0 1 .572-.801c.28-.299.502-.464.953-.686.317-.16.813-.35 1.093-.42.28-.063.896-.152 1.366-.197a17 17 0 0 1 1.842-.038c.54.026 1.278.083 1.634.14.355.05.89.153 1.175.222.292.077 1.201.363 2.02.636.82.273 1.767.604 2.098.73.33.128 1.073.458 1.652.725.578.267 1.36.654 1.74.858.382.21 1.341.8 2.123 1.321.782.522 1.614 1.093 1.85 1.278.228.178.603.47.832.641l1.43 1.119c.558.432 1.372 1.08 1.81 1.43.439.355 1.023.8 1.303.99.28.191.711.465.953.61.248.14.737.407 1.1.585.355.178.87.413 1.143.521.267.108.769.28 1.112.382.343.095.845.222 1.112.273.267.057.813.146 1.214.197.4.05 1.143.095 1.652.095s1.182-.032 1.5-.063c.31-.039.857-.127 1.207-.197.35-.077.908-.223 1.239-.324.33-.108.82-.3 1.086-.433s.623-.317.795-.419c.171-.095.565-.35.883-.56.311-.209.775-.546 1.03-.749.247-.203.717-.648 1.035-.991a19 19 0 0 0 1.106-1.315c.285-.388.654-.91.82-1.163.158-.26.419-.775.584-1.157.159-.381.375-.985.476-1.347.102-.356.248-.997.318-1.417s.153-1.105.178-1.531a14 14 0 0 0 .006-1.557 15 15 0 0 0-.184-1.544 19 19 0 0 0-.35-1.493 15 15 0 0 0-.438-1.258 10 10 0 0 0-.445-.928c-.12-.229-.432-.718-.68-1.093a15 15 0 0 0-.883-1.201c-.235-.286-.8-.87-1.245-1.309a46 46 0 0 0-1.519-1.41 39 39 0 0 0-1.398-1.163 77 77 0 0 0-1.144-.884c-.241-.19-.87-.648-1.397-1.023a93 93 0 0 0-2.415-1.652 61 61 0 0 0-1.78-1.156c-.17-.108-.762-.464-1.302-.795-.54-.33-1.442-.838-2.001-1.13-.56-.293-1.284-.668-1.608-.833a40 40 0 0 0-1.493-.718 83 83 0 0 0-1.538-.674c-.35-.146-.864-.355-1.144-.457-.28-.108-.921-.33-1.43-.508a81 81 0 0 0-2.033-.649 64 64 0 0 0-4.48-1.156c-.38-.089-1.099-.229-1.588-.311a69 69 0 0 1-1.493-.286 47 47 0 0 0-2.16-.343c-.859-.121-1.958-.261-2.447-.318a45 45 0 0 0-2.065-.165 79 79 0 0 0-3.05-.058"/>
    </g>
    <path fill="#f9f9f9" d="M164.215 33.464c-.203 0-.405 0-.607.008-1.792.06-3.578.347-5.256.873-4.373 1.618-8.107 3.41-12.013 10.397l7.939 20.779 4.726-12.505c.81-2.358 2.68-3.451 4.57-3.363 1.88.088 3.782 1.346 4.674 3.693l14.938 39.775s2.607 6.32 3.895 7.624c3.09 3.575 7.47 5.032 11.038 4.867 2.113 0 2.931-.159 4.865-.808 4.065-1.788 8.606-5.68 9.098-12.834V48.64c-.15-6.174-1.303-9.749-5.343-12.677-2.608-1.73-5.867-2.662-9.101-2.463a13.1 13.1 0 0 0-4.716 1.17 15.4 15.4 0 0 0-4.204 3.013A16.8 16.8 0 0 0 186 41.26a16.2 16.2 0 0 0-1.44 3.385 16 16 0 0 0-.237.903l7.47 21.104v.001l5.768-16.204.24-.671V89.71l-15.75-43.838c-2.584-6.331-6.487-8.926-7.957-9.91-2.576-1.522-5.777-2.376-9.027-2.49-.083-.002-.167.002-.248 0l-.606-.008zm-34.766.075c-2.098 0-2.924.16-4.696.806-4.07 1.787-8.772 5.689-9.251 12.988v43.185c.15 6.329 1.282 9.74 5.349 12.82 2.871 1.724 6.303 2.63 9.677 2.27a13 13 0 0 0 2.597-.539c.06-.018.116-.04.173-.058q.17-.055.338-.114.157-.059.311-.12l.198-.076a12 12 0 0 0 .501-.22 16.1 16.1 0 0 0 4.248-3.008 17 17 0 0 0 1.208-1.318 15.7 15.7 0 0 0 1.962-3.007 14 14 0 0 0 .7-1.655 13 13 0 0 0 .484-1.734l-7.46-21.109-5.46 15.813-.375 1.084v-40.1l15.58 43.99c2.592 6.335 6.479 8.775 7.941 9.738 2.979 1.876 6.772 2.677 10.525 2.508a21.6 21.6 0 0 0 3.959-.532 19 19 0 0 0 1.272-.347 59 59 0 0 0 1.614-.621c.529-.214 1.05-.438 1.562-.682a18 18 0 0 0 .764-.385 17 17 0 0 0 1.503-.893 16 16 0 0 0 2.206-1.774 20 20 0 0 0 1.054-1.1l.036-.039a22 22 0 0 0 .724-.87q.18-.229.36-.47a26 26 0 0 0 1.45-2.153 36 36 0 0 0 .73-1.25l-7.95-20.94-4.552 12.514q-.053.133-.107.26c-.028.061-.053.127-.08.186a6 6 0 0 1-.21.414c-.888 1.589-2.304 2.4-3.78 2.486a5 5 0 0 1-.37.006 5 5 0 0 1-.371-.024c-1.795-.19-3.563-1.423-4.492-3.659l-14.938-39.607s-2.585-6.342-3.896-7.631c-2.924-3.733-7.47-5.032-11.037-5.032z"/>
</svg>
