<svg xmlns="http://www.w3.org/2000/svg" viewBox="0 0 512 512">
    <circle cx="255.66" cy="255.24" r="245.89" fill="#5218ee"/>
    <g fill="#fff">
        <path d="M67.904 277.321H95.11c2.77 0 5.077-1.077 6.77-3.077s2.615-4.308 2.615-7.23c0-2.77-.923-5.232-2.616-7.385-1.692-2.154-4-3.231-6.769-3.231H67.904v-23.385h34.461c2.77 0 5.077-.923 6.77-2.924s2.615-4.307 2.615-7.23-.923-5.385-2.615-7.385-4-2.923-6.77-2.923H55.441q-4.615 0-7.846 3.23t-3.23 7.847v86.77c0 3.23 1.076 5.692 3.384 7.692s5.077 3.077 8.308 3.077 6.154-1.077 8.461-3.077 3.385-4.461 3.385-7.692zM170.158 315.023c2 4.154 5.385 6.154 10.462 6.154 3.23 0 6-.923 8.307-2.923 2.154-2 3.231-4.462 3.231-7.692v-61.078c0-3.23-1.077-5.692-3.23-7.692-2.308-2-5.078-2.923-8.308-2.923-2.308 0-4.308.461-6.308 1.538s-3.23 2.462-4 4.154l-2-1.384c-1.23-.923-3.385-1.846-6.462-2.923-3.23-.923-6.615-1.385-10.308-1.385q-6.692 0-13.385 2.308c-4.461 1.692-8.615 4-12.461 7.23s-7.077 7.539-9.385 12.924q-3.693 8.076-3.692 18.461c0 12 3.384 21.848 10.153 29.694s15.54 11.693 26.308 11.693c4.154 0 8.154-.616 11.846-1.693q5.308-1.615 6.923-2.77c1.077-.768 1.846-1.23 2.308-1.692zm-16.308-15.077c-5.846-.308-10.308-2.308-13.231-6-2.923-3.539-4.462-8.308-4.462-14.308 0-6.308 2-11.231 5.847-15.077q5.769-5.54 14.77-5.539c3.845 0 8 .77 12.307 2.154v36q-6.231 3.23-15.231 2.77zM204.066 310.543c0 3.23 1.077 5.692 3.384 7.692 2.154 2 4.77 2.923 8 2.923s6-.923 8.308-2.923c2.154-2 3.231-4.461 3.231-7.692v-48.617c3.692-2 7.385-3.076 10.923-2.923 8.77.462 13.231 5.539 13.231 15.231v36.308c0 3.23 1.077 5.693 3.385 7.692 2.154 2 4.769 2.924 8 2.924s6-.923 8.308-2.924c2.154-2 3.23-4.461 3.23-7.692v-42.154c0-2.615-.153-4.77-.615-6.462 3.846-2 7.693-3.077 11.231-2.923 8.77.462 13.077 5.539 13.077 15.231v36.308c0 3.23 1.077 5.692 3.385 7.692 2.154 2 4.923 2.923 8.154 2.923s5.846-.923 8.154-2.923c2.154-2 3.23-4.461 3.23-7.692v-42.154q0-12.693-8.769-21.231c-6-5.539-13.692-8.308-23.23-8.308-7.54 0-15.232 2.77-23.078 8.154-5.692-5.385-12.77-8.154-21.231-8.154-3.23 0-6.462.615-10 2s-6.308 2.923-8 4.923c-1.539-4.615-5.231-6.923-10.924-6.923-3.23 0-5.846.923-8 2.923-2.307 2-3.384 4.462-3.384 7.692zM333.242 310.543c0 3.23 1.077 5.692 3.385 7.692 2.154 2 4.923 2.923 8.154 2.923s6-.923 8.308-2.923c2.153-2 3.23-4.461 3.23-7.692v-61.077c0-3.23-1.077-5.692-3.23-7.693-2.308-2-5.078-2.923-8.308-2.923s-6 .923-8.154 2.923c-2.308 2-3.385 4.462-3.385 7.693zm-.308-88.309c0 3.231 1.231 6.154 3.693 8.462 2.308 2.308 5.23 3.539 8.461 3.539s6.154-1.231 8.616-3.539c2.308-2.308 3.538-5.23 3.538-8.462s-1.23-6.153-3.538-8.615c-2.462-2.308-5.385-3.539-8.616-3.539s-6.153 1.231-8.461 3.539c-2.462 2.461-3.693 5.385-3.693 8.615M396.625 299.022c-3.23 0-4.769-1.692-4.769-5.23v-78.156c0-3.231-1.077-5.693-3.23-7.693-2.308-2-5.078-2.923-8.309-2.923s-6 .923-8.154 2.923c-2.307 2-3.384 4.462-3.384 7.693v75.385c0 20.155 8.615 30.154 26.001 30.154h4c3.23 0 5.692-1.077 7.692-3.23q2.77-3.232 2.77-7.847c0-3.23-.923-5.846-2.77-8-2-2-4.461-3.077-7.692-3.077zM429.007 312.863l-8.154 21.077c-1.077 2.923-1.077 5.846.154 8.462 1.077 2.615 3.077 4.615 6 5.846q4.154 1.846 8.308.462c4.154-1.384 4.615-2.77 5.692-5.693l34.924-90.616c1.077-2.923.923-5.539-.616-8-1.538-2.308-3.846-4-6.923-4.924-2.923-.769-5.692-.615-8.154.462-2.615 1.077-4.308 3.077-5.384 5.846l-15.078 39.692-14.307-39.54c-1.077-2.615-2.77-4.615-5.231-5.846-2.616-1.23-5.231-1.385-8-.616-2.924.77-5.078 2.462-6.77 5.078s-2.154 5.23-1.077 7.846zM317.38 88.632a21.23 21.23 0 0 0-12.992-3.503c-2.31.14-4.571.654-6.737 1.681-5.774 2.803-10.634 8.595-12.27 15.554l10.634 30.174 8.277-23.167.337-.934v57.08l-22.471-62.684c-3.657-9.061-9.24-12.752-11.356-14.153-3.657-2.195-8.18-3.41-12.848-3.596h-.337a28.1 28.1 0 0 0-9.239 1.26c-6.207 2.336-11.549 4.859-17.131 14.855l11.308 29.707 6.737-17.89c1.155-3.363 3.801-4.951 6.496-4.811s5.39 1.915 6.689 5.278l21.317 56.89s3.705 9.016 5.533 10.884c4.427 5.091 10.635 7.193 15.735 6.96 3.032 0 4.187-.234 6.93-1.168 5.822-2.57 12.27-8.128 12.991-18.357v-61.937c-.24-8.828-1.876-13.92-7.602-18.123"/>
        <path d="M263.2 160.38c-1.347 3.503-4.186 5.045-7.026 4.764-2.55-.28-5.1-2.055-6.4-5.231l-21.317-56.611s-3.705-9.062-5.533-10.93c-4.187-5.325-10.634-7.194-15.735-7.194-2.984 0-4.187.234-6.689 1.168-5.822 2.57-12.51 8.128-13.185 18.544v61.75c.193 9.06 1.829 13.918 7.603 18.31 4.09 2.475 8.999 3.783 13.81 3.222 2.021-.233 4.042-.747 5.87-1.588 5.775-2.802 10.876-8.594 12.27-15.32l-10.633-30.175-7.796 22.607-.529 1.541v-57.313l22.231 62.917c3.705 9.062 9.239 12.565 11.308 13.92 4.235 2.662 9.672 3.83 15.013 3.596a28.6 28.6 0 0 0 7.459-1.261c6.255-2.335 11.549-4.624 17.13-14.62l-11.308-29.942z"/>
    </g>
</svg>
