<svg xmlns="http://www.w3.org/2000/svg" height="512" width="512">
    <path fill="#ff3c6b" d="M401.829 44.56c-.418 0-.836 0-1.253.016-3.704.123-7.393.718-10.862 1.804-9.037 3.342-16.752 7.047-24.823 21.485l16.405 42.936 9.767-25.84c1.673-4.874 5.536-7.131 9.442-6.95 3.886.183 7.816 2.781 9.658 7.633l30.869 82.19s5.388 13.06 8.049 15.755c6.386 7.388 15.435 10.398 22.809 10.058 4.367 0 6.057-.329 10.054-1.67 8.4-3.694 17.783-11.739 18.8-26.52V75.922c-.312-12.761-2.692-20.147-11.04-26.2-5.39-3.573-12.125-5.5-18.809-5.09a27.02 27.02 0 00-9.744 2.418 31.913 31.913 0 00-8.688 6.227 34.62 34.62 0 00-5.615 7.393h-.003a33.381 33.381 0 00-2.972 6.996 33.57 33.57 0 00-.49 1.867l15.435 43.609v.002l11.92-33.484.496-1.388v82.517L438.688 70.2c-5.34-13.082-13.406-18.444-16.443-20.476-5.322-3.146-11.938-4.91-18.653-5.146-.172-.005-.346.003-.513 0-.418-.007-.835-.014-1.253-.017zm-71.84.154c-4.335 0-6.042.332-9.703 1.666-8.41 3.693-18.127 11.755-19.117 26.84v89.237c.312 13.077 2.65 20.125 11.054 26.489 5.934 3.564 13.025 5.435 19.996 4.691a27.186 27.186 0 005.367-1.112c.123-.037.241-.081.359-.121.233-.076.466-.152.698-.236.216-.078.43-.164.643-.248l.408-.157a25.517 25.517 0 001.036-.454 33.327 33.327 0 008.777-6.215 34.592 34.592 0 002.498-2.724 32.414 32.414 0 004.053-6.214 29.262 29.262 0 001.449-3.42v-.001a27.24 27.24 0 00.997-3.582l-15.413-43.619-11.284 32.675-.774 2.24V77.586l32.195 90.898c5.354 13.092 13.387 18.135 16.408 20.125 6.155 3.876 13.994 5.531 21.748 5.183a44.565 44.565 0 008.182-1.1 38.466 38.466 0 002.629-.718 122.549 122.549 0 003.335-1.282 57.428 57.428 0 003.227-1.41 37.996 37.996 0 001.58-.796 35.304 35.304 0 003.105-1.845 32.946 32.946 0 004.559-3.665 40.269 40.269 0 002.178-2.272l.074-.081a44.385 44.385 0 001.496-1.798c.246-.317.496-.638.744-.973a54.117 54.117 0 002.997-4.448 74.659 74.659 0 001.506-2.584l-16.426-43.268-9.407 25.858c-.07.186-.148.358-.221.535-.057.128-.108.263-.165.386a12.633 12.633 0 01-.435.855c-1.835 3.284-4.76 4.961-7.81 5.138a9.653 9.653 0 01-.762.013h-.003a9.363 9.363 0 01-.766-.049c-3.71-.393-7.362-2.94-9.282-7.56L360.85 70.88s-5.342-13.104-8.05-15.77c-6.042-7.712-15.435-10.397-22.809-10.397z"/>
    <path fill="#ff3c6b" d="M275.847 44.394L93.107 85.406l-82.35 169.617L92.448 424.97l183.398 41.995 147.308-118.11-118.764-93.832v79.069h-30.963l-59.915-98.753v98.425h-27.888V188.75h31.167l59.055 97.11zM59.366 189.326l57.729.241s45.295 1.026 43.78 45.7c-.96 28.31-26.7 37.526-26.7 37.526l33.674 60.855h-34.155l-28.625-56.765h-17.32v57.248H59.367zm28.625 24.293v39.932h24.294s19.964-1.735 19.964-19.484c0-20.513-21.887-20.206-21.887-20.206z"/>
</svg>
