<svg version="1.1" viewBox="0 0 512 512" xmlns="http://www.w3.org/2000/svg">
 <ellipse cx="257.24" cy="256.39" rx="231.97" ry="230.81" fill="#fff" stroke-width=".26014"/>
 <path d="M255.59 11.624A244.238 244.238 0 0011.354 255.86 244.238 244.238 0 00255.591 500.1a244.238 244.238 0 00244.238-244.238A244.238 244.238 0 00255.59 11.624zm95.317 47.35s6.91 5.146 6.91 13.804c0 8.65-6.91 13.818-6.91 13.818s-6.902-5.164-6.902-13.818c0-8.658 6.902-13.804 6.902-13.804zM177.68 66.868c.192-.001.373 0 .54.005v-.004c.894.024 1.428.1 1.428.1s1.239 8.521-4.882 14.645C168.65 87.732 160.12 86.5 160.12 86.5s-1.235-8.529 4.885-14.646c4.304-4.307 9.795-4.972 12.675-4.986zm58.135 2.618h.003a6.764 6.764 0 016.758 6.76 6.723 6.723 0 01-2.18 4.96l3.97 12.096c-.55.146-1.089.315-1.635.48a44.164 44.164 0 0112.731-1.884c4.311.004 8.598.638 12.725 1.885-.54-.163-1.08-.339-1.633-.48l3.974-12.096a6.756 6.756 0 115.333 1.755l-3.975 12.09a37.891 37.891 0 00-1.986-.726c17.31 5.983 29.75 22.415 29.75 41.76 0 24.407-19.785 44.183-44.188 44.183-24.406 0-44.189-19.776-44.189-44.182 0-19.325 12.414-35.742 29.695-41.74a43.35 43.35 0 00-1.936.71l-3.965-12.097a6.757 6.757 0 01.748-13.474zm89.911 1.331v.002c2.147-.052 6.899.306 10.576 3.976 4.891 4.895 3.907 11.724 3.907 11.724s-6.825.987-11.72-3.908c-4.895-4.898-3.902-11.715-3.902-11.715a10.47 10.47 0 011.14-.08zm50.365 0c.716.017 1.146.08 1.146.08s.994 6.813-3.908 11.714c-4.895 4.895-11.72 3.909-11.72 3.909s-.988-6.83 3.908-11.724c3.673-3.67 8.428-4.029 10.574-3.979zM160.018 91.898c24.4 0 44.188 19.78 44.188 44.182 0 24.406-19.789 44.189-44.188 44.189-24.406 0-44.188-19.782-44.188-44.19 0-24.402 19.781-44.18 44.188-44.18zm190.889 0c24.406 0 44.188 19.78 44.188 44.182 0 24.406-19.778 44.189-44.188 44.189-24.403 0-44.185-19.782-44.185-44.19 0-24.402 19.782-44.18 44.185-44.18zm-95.444 6.25a37.88 37.88 0 00-30.351 15.176h60.701c-6.921-9.214-17.94-15.177-30.35-15.177zm-95.445.374c-20.743 0-37.558 16.822-37.558 37.565s16.815 37.558 37.558 37.558V98.522zm190.889 0a37.409 37.409 0 00-24.14 8.794l24.14 66.329 24.145-66.33c-6.53-5.48-14.945-8.792-24.14-8.793zm-204.373 22.905a4.227 4.227 0 013.004 1.242c2.676 2.677 2.255 8.27 2.255 8.27s-5.586.414-8.26-2.259c-2.674-2.675-.782-7.25 3.001-7.253zm71.748 7.071a38.128 38.128 0 00-.756 7.561v.053c0 2.54.252 5.072.756 7.561h74.358a37.956 37.956 0 000-15.175h-74.355zm-67.406 12.711c.567-.003.918.02.918.02s.42 5.592-2.256 8.267a4.239 4.239 0 01-6.004 0 4.257 4.257 0 010-6.015c2.003-2.007 5.646-2.265 7.342-2.272zm74.236 17.634c6.921 9.214 17.94 15.176 30.35 15.176a37.886 37.886 0 0030.351-15.176zm149.312 36.18c15.675 0 27.212 5.307 32.248 9.52 4.339 3.626 7.708 9.21 4.153 15.832-3.7 6.887-11.69 5.78-16.537 3.792-5.95-2.445-9.882-5.631-19.71-5.631-6.563 0-11.78 2.462-12.225 7.044-.497 5.064 3.575 7.446 15.443 9.824 6.587 1.319 14.855 3.06 21.89 6.78 12.635 6.689 15.71 16.93 16.065 24.34.43 8.966-2.41 16.91-8.206 22.987-7.331 7.69-18.77 11.765-33.09 11.765-27.418 0-38.462-14.589-38.92-15.212-4.082-5.543-3.728-10.964.34-15.288 3.929-4.177 10.362-4.65 17.095-.42 4.536 2.846 13.34 7.544 22.01 7.544 7.686 0 15.387-2.095 15.387-8.812 0-6.673-9.202-9.036-17.635-10.513-30.609-5.39-35.766-20.789-35.766-31.025 0-22.467 18.98-32.527 37.458-32.527zm-265.343.46v.001c7.289 0 13.197 5.906 13.202 13.194v29.046l37.338-37.45c5.132-5.023 13.34-5.02 18.47.005 5.13 5.025 5.304 13.23.39 18.467l-31.669 29.344 31.672 30.172a13.201 13.201 0 01-9.43 22.443 13.155 13.155 0 01-9.43-3.957l-37.341-38.114v28.877c0 7.288-5.908 13.196-13.196 13.196-7.288 0-13.196-5.908-13.196-13.196v-78.833c-.003-7.286 5.903-13.194 13.19-13.194zm97.992 0c7.292 0 13.198 5.91 13.198 13.195v78.825c.052 7.324-5.871 13.29-13.196 13.29-7.324 0-13.248-5.966-13.196-13.29v-78.825c0-7.287 5.907-13.194 13.194-13.195zm40.228.828v.005h28.1c30.101 0 51.954 21.772 51.954 51.779 0 29.999-21.853 51.776-51.953 51.776H247.3c-7.288-.002-13.198-5.91-13.198-13.198V209.51c.002-7.289 5.91-13.197 13.198-13.198zm13.197 26.395v50.768h14.903c15.529 0 25.561-9.966 25.561-25.384 0-15.423-10.032-25.384-25.56-25.384zm-9.312 89.478l-.087 7.407c-.048 4.078-.008 7.759.087 8.19.173.781.21.785 7.145.785h6.97l-.174.784c-.095.431-.503 2.667-.905 4.967-.403 2.3-.803 4.3-.89 4.444-.086.143-2.823.26-6.064.26h-5.908l-.209.855c-.115.47-.142 6.849-.06 14.203.158 13.942.23 14.624 1.77 16.73 1.714 2.342 5.853 2.818 10.35 1.19a262.254 262.254 0 013.136-1.12c.417-.139.76.784 1.69 4.548.647 2.614 1.091 4.941.994 5.211-.094.266-1.255.899-2.544 1.39-12.373 4.704-22.703 2.278-26.7-6.27-1.74-3.724-2.02-6.866-2.02-22.724v-14.012H230.1v-10.456h4.008c3.834 0 4.024-.035 4.352-.802.3-.701.794-4.81 1.263-10.526.094-1.15.245-2.436.334-2.858.18-.845.36-.895 5.902-1.65 1.917-.262 3.877-.492 4.356-.51zm-104.667.732c.134-.019.29 12.566.348 27.936.1 26.699.135 28.026.765 29.19.927 1.715 1.745 2.329 3.731 2.8 1.985.47 3.59.246 5.751-.802.941-.456 1.649-.621 1.83-.429.627.662 2.475 8.651 2.106 9.097-.389.468-2.75 1.64-5.365 2.662-2.554.999-8.434 1.236-11.153.45-5.443-1.573-8.377-4.576-10.224-10.466-.471-1.504-.563-5.577-.668-29.661l-.122-27.919 6.378-1.41c3.52-.78 6.488-1.429 6.623-1.448zm148.773 14.34c4.378-.05 8.758 1.005 13.055 3.149 5.588 2.788 9.815 7.014 12.63 12.625 1.588 3.169 1.996 4.427 2.714 8.365.871 4.785 1.386 4.357-5.236 4.357-3.207 0-5.808.145-5.926.331-.114.182-1.185.868-2.37 1.52-2.753 1.513-5.89 3.312-11.397 6.536-6.379 3.734-7.912 4.617-8.403 4.617-.327 0-.31-2.931-.31-13.039 0-11.99-.136-13.092.413-12.882.328.125 2.27 1.284 4.118 2.367 7.075 4.147 8.905 5.207 9.41 5.452.29.14 1.534.87 2.789 1.635 3.276 1.997 5.872 3.272 6.133 3.01.357-.356-.791-4.845-1.81-7.075-1.418-3.1-4.742-6.355-8.088-7.92-5.507-2.576-10.976-2.366-16.138.62-11.327 6.55-11.539 22.966-.383 29.685 6.727 4.052 14.76 3.303 20.739-1.933l2.021-1.77h6.03c3.31 0 6.124.094 6.238.209.55.548-2.685 5.681-5.248 8.33-3.6 3.72-6.253 5.498-10.68 7.157-8.922 3.344-20.158 1.695-27.395-4.02-1.15-.908-4.576-4.343-5.25-5.263-4.306-5.886-6.223-12.13-5.81-18.926.459-7.563 3.131-13.503 8.411-18.7 2.932-2.887 3.939-3.626 7.11-5.219 3.025-1.519 5.158-2.242 8.26-2.8a26.305 26.305 0 014.373-.418zm-88.587.046c5.858-.081 12.182 1.18 17.817 3.606 3.945 1.7 3.835 1.144 1.255 6.302-1.272 2.544-2.386 4.6-2.492 4.6-.107 0-1.132-.476-2.317-1.077-5.054-2.56-11.251-3.782-15.964-3.145-3.137.424-4.254.898-5.69 2.41-1.722 1.813-1.56 4.912.322 6.141 1.564 1.021 4.462 1.97 9.69 3.17 6.657 1.527 10.041 2.654 12.617 4.202 3.625 2.177 5.82 4.756 6.948 8.166.889 2.684.9 7.878.02 10.457-.795 2.335-2.883 5.496-4.458 6.751-.628.5-1.325 1.059-1.534 1.229-.69.562-3.903 2.119-5.472 2.651-6.533 2.22-15.79 2.134-23.527-.218-2.858-.868-9.22-3.949-10.061-4.872-.571-.626-.568-.731.067-1.951.98-1.882 4.091-7.588 4.238-7.773.063-.08.563.196 1.156.634 1.778 1.313 6.413 3.481 9.097 4.255 3.694 1.066 10.273 1.33 13.035.525 3.59-1.048 5.505-3.747 4.905-6.913-.514-2.707-3.476-4.312-11.702-6.343-8.818-2.177-12.316-3.62-15.3-6.311-3.036-2.738-4.418-6.55-4.004-11.046.405-4.392 1.606-7.03 4.491-9.867 2.899-2.85 7.076-4.569 12.896-5.31a35.35 35.35 0 013.967-.273zm151.933.676c2.757.037 5.481.522 8.09 1.45 3.503 1.246 6.725 4.262 8.576 8.026 2.17 4.412 2.229 5.123 2.229 27.116v19.763h-13.21l-.105-18.56-.104-18.56-.47-2.345c-1.954-4.843-6.884-6.687-12.67-5.455-5.029 1.07-8.345 4.21-10.08 9.543-.776 2.38-.798 2.84-.917 18.908l-.122 16.469h-13.21v-55.767h10.387l.366 1.656c.2.908.65 3.032.993 4.705.344 1.673.722 3.05.836 3.05.117 0 .383-.384.604-.872.606-1.337 3.37-4.167 5.252-5.377 2.34-1.504 5.681-2.802 8.574-3.33a25.84 25.84 0 014.98-.42zm-185.822.588h6.396v55.767h-13.245v-27.657c0-15.196.103-27.76.227-27.883.125-.125 3.102-.227 6.622-.227zm83.079 74.948l-.001.003c.188 0 .376.005.564.008.075 0 .154-.003.232 0 3.026.106 6.007.9 8.406 2.319 1.369.915 5.004 3.332 7.41 9.228l14.67 40.827V418.71l-.225.625-5.372 15.091v-.003l-6.956-19.654a15.13 15.13 0 01.221-.841 15.045 15.045 0 011.34-3.153h.001a15.603 15.603 0 012.53-3.332 14.383 14.383 0 013.916-2.807 12.177 12.177 0 014.392-1.089c3.012-.185 6.048.683 8.476 2.294 3.763 2.728 4.836 6.057 4.976 11.808V458c-.458 6.662-4.687 10.287-8.473 11.952-1.801.605-2.563.753-4.531.753-3.323.153-7.402-1.203-10.28-4.533-1.199-1.215-3.627-7.1-3.627-7.1L259.65 422.03c-.83-2.186-2.601-3.357-4.353-3.44-1.76-.081-3.501.936-4.255 3.133l-4.402 11.645-7.394-19.35c3.638-6.508 7.115-8.177 11.188-9.684a18.512 18.512 0 014.895-.812c.189-.008.376-.008.565-.008zm-32.377.07c3.324 0 7.557 1.21 10.28 4.687 1.22 1.2 3.628 7.107 3.628 7.107l13.912 36.887c.865 2.082 2.512 3.23 4.183 3.407a4.22 4.22 0 00.346.022 4.35 4.35 0 00.344-.006c1.375-.08 2.694-.836 3.52-2.316a5.693 5.693 0 00.196-.386c.026-.055.049-.116.075-.173.033-.08.068-.157.1-.242l4.24-11.653 7.402 19.5a33.648 33.648 0 01-.679 1.165 24.39 24.39 0 01-1.35 2.004c-.112.15-.225.296-.336.44a20.004 20.004 0 01-.674.81l-.033.035a18.149 18.149 0 01-.982 1.025 14.848 14.848 0 01-2.055 1.651 15.91 15.91 0 01-1.399.832 17.124 17.124 0 01-.712.358 25.86 25.86 0 01-1.454.636 55.231 55.231 0 01-1.503.578 17.336 17.336 0 01-1.186.323 20.085 20.085 0 01-3.687.496c-3.495.157-7.027-.59-9.801-2.336-1.362-.897-4.982-3.17-7.395-9.07l-14.51-40.966v37.345l.348-1.01 5.086-14.725 6.947 19.658a12.277 12.277 0 01-.45 1.614 13.188 13.188 0 01-.653 1.541 14.608 14.608 0 01-1.827 2.8 15.59 15.59 0 01-1.125 1.229 15.02 15.02 0 01-3.956 2.8 11.5 11.5 0 01-.466.205l-.184.071c-.097.038-.193.076-.29.112-.105.038-.21.072-.315.106-.053.018-.106.038-.161.054a12.253 12.253 0 01-2.42.502c-3.142.335-6.337-.508-9.011-2.115-3.788-2.868-4.842-6.044-4.983-11.938V416.43c.447-6.798 4.826-10.432 8.617-12.096 1.65-.601 2.418-.75 4.372-.75z" fill="#ef4a4a"/>
</svg>
