<svg xmlns="http://www.w3.org/2000/svg" height="512" width="512">
    <path fill="#fff" d="M258.028 10c-.974 0-1.947-.006-2.915.034-8.641.29-17.236 1.68-25.327 4.214-21.071 7.797-39.053 16.422-57.874 50.09l38.24 100.124 22.774-60.269c3.904-11.36 12.908-16.616 22.018-16.188 9.057.422 18.228 6.474 22.526 17.781l71.972 191.651s12.558 30.445 18.764 36.726c14.888 17.225 35.995 24.239 53.185 23.452 10.18 0 14.117-.774 23.441-3.897 19.585-8.618 41.466-27.367 43.843-61.828V83.113c-.729-29.747-6.282-46.957-25.745-61.07-12.563-8.335-28.273-12.822-43.855-11.873-7.75.474-15.441 2.265-22.718 5.637a74.405 74.405 0 00-20.266 14.516 80.727 80.727 0 00-13.093 17.24 80.629 80.629 0 00-2.067 3.885v.012a77.84 77.84 0 00-4.858 12.415 69.599 69.599 0 00-1.141 4.35l35.98 101.682.012.011 27.79-78.083 1.152-3.231V281.01l-75.88-211.228c-12.46-30.51-31.268-42.997-38.342-47.74-12.418-7.334-27.841-11.448-43.504-11.997-.405-.018-.81.006-1.198 0A175.52 175.52 0 00258.04 10zm-167.498.362c-10.11 0-14.09.774-22.628 3.886-19.608 8.618-42.27 27.4-44.577 62.573v208.076c.729 30.488 6.189 46.919 25.78 61.76 13.834 8.312 30.38 12.677 46.632 10.936a63.387 63.387 0 0012.517-2.587l.825-.283c.544-.18 1.089-.357 1.627-.553.503-.185 1-.38 1.502-.577.313-.127.643-.245.95-.372.809-.336 1.619-.68 2.417-1.05a77.708 77.708 0 0020.47-14.495 79.217 79.217 0 008.484-9.771 75.24 75.24 0 006.778-11.071 68.482 68.482 0 003.377-7.976c.475-1.36.923-2.746 1.31-4.135a61.51 61.51 0 001.017-4.225l-35.923-101.694-26.31 76.186-1.808 5.22V87.01l75.056 211.94c12.493 30.529 31.217 42.278 38.262 46.916 14.356 9.047 32.625 12.898 50.712 12.088a103.91 103.91 0 0019.08-2.564 89.362 89.362 0 006.123-1.672 297.875 297.875 0 007.784-2.994 134.188 134.188 0 007.523-3.287 84.544 84.544 0 0010.924-6.157 76.846 76.846 0 0010.62-8.54 93.18 93.18 0 005.083-5.299l.17-.192a104.256 104.256 0 003.49-4.18v-.01a123.21 123.21 0 005.23-7.186 160.181 160.181 0 003.491-5.445v-.011a176.82 176.82 0 003.513-6.01l-38.296-100.903-21.938 60.291c-.168.434-.34.843-.52 1.254-.127.3-.245.615-.384.904a26.664 26.664 0 01-1.017 1.988c-4.28 7.658-11.096 11.57-18.21 11.986a22.118 22.118 0 01-3.57-.09c-8.641-.914-17.162-6.848-21.645-17.624L162.48 71.376s-12.454-30.554-18.764-36.76c-14.09-17.994-35.99-24.254-53.185-24.254zM258.367 399.47V502h18.3v-43.651h41.02V502h18.447V399.47h-18.448v42.33h-41.018v-42.33zm98.406 0V502h32.953c28.417 0 50.237-16.705 50.237-54.202 0-33.975-20.801-48.328-48.339-48.328zm18.313 15.228h15.962c19.48 0 30.456 10.689 30.456 33.981 0 21.233-8.636 37.641-31.778 37.641h-14.64z" font-weight="600" font-size="11.778" font-family="ABCSans" letter-spacing="0" word-spacing="0"/>
</svg>
