<svg version="1.1" viewBox="0 0 512 512" xmlns="http://www.w3.org/2000/svg">
 <g transform="matrix(.12675 0 0 .12675 -11.34 34.239)" fill="#fa4947">
  <path d="m2213.2 127.71c-10.8-0.08-19.761 2.4e-4 -20.001 0.24024-0.16 0.16-8.3994 0.5598-18.319 0.7998-9.92 0.32-22.48 0.88084-28 1.3608-5.5199 0.4-11.28 0.87914-12.8 1.1191s-9.5197 0.71971-17.76 1.1997-23.039 1.8407-32.799 3.2007c-9.84 1.28-22.721 2.7192-28.641 3.1992s-16.4 1.8414-23.2 2.8814c-6.8 1.12-18.16 2.4786-25.2 3.1186-7.12 0.64-16.801 2.0001-21.601 3.1201-4.8799 1.04-11.839 2.3999-15.599 2.8799s-9.8411 1.6009-13.601 2.4009c-3.76 0.8-12.4 2.4-19.2 3.52-6.7999 1.12-15.68 2.959-19.68 3.999-4 1.12-10.719 2.5612-14.799 3.2812-4.16 0.72-9.8408 1.9993-12.721 2.7993-2.88 0.8-8.4 2.1599-12.4 2.8799-3.9199 0.72-9.6798 2.0008-12.8 2.8008-3.04 0.88-8.6399 2.2401-12.4 3.1201-3.76 0.96-10.399 2.719-14.799 3.999s-11.92 3.4409-16.8 4.8809c-4.8 1.36-12.801 3.5197-17.681 4.7197-4.96 1.28-9.7603 2.7192-10.8 3.1992-0.96 0.56-6.159 2.3205-11.439 4.0005-5.36 1.68-12.56 4.1601-16.08 5.6001s-10.72 4.1597-16 6.1597-12.321 4.5598-15.601 5.7598-7.2793 2.8-8.7993 3.52-5.5208 2.4008-8.8008 3.8408c-3.2799 1.36-9.0398 3.6793-12.8 5.2793-3.76 1.52-8.0791 3.4407-9.5991 4.2407s-7.1199 3.52-12.4 6c-5.28 2.56-11.201 5.3599-13.201 6.3999-1.9999 0.96-7.5199 3.8399-12.4 6.3999-4.7999 2.56-10.24 5.5992-12 6.7192-1.76 1.2-4.6399 2.8006-6.3999 3.6006-1.76 0.72-5.1996 2.6407-7.5996 4.2407-2.4 1.52-8.8794 5.6792-14.399 9.1992-5.52 3.6-12 7.84-14.56 9.52-2.48 1.76-4.72 3.1201-4.96 3.1201s-3.2801 1.8402-6.6401 4.1602c-3.44 2.32-9.1202 6.3996-12.64 9.0396-3.52 2.72-7.12 5.3603-8.08 5.8403s-3.12 2.08-4.96 3.52c-1.76 1.44-5.4397 4.4001-8.2397 6.6401-2.72 2.16-7.9205 6.48-11.44 9.52-3.6 3.04-8.8803 7.2795-11.84 9.4394-3.04 2.16-5.439 4.4-5.439 4.96s-1.7599 2.6401-3.9199 4.5601-6.3207 5.6798-9.2007 8.2398c-2.88 2.64-5.2793 5.2012-5.2793 5.7612s-0.7211 1.279-1.601 1.519c-0.88 0.24-1.5997 0.88028-1.5997 1.2803s-0.5602 0.71923-1.2802 0.71923-0.9602 0.40094-0.6402 0.96094c0.48 0.8 0.3205 0.8-0.5595 0-0.56-0.48-1.2802-0.96094-1.6802-0.96094-0.32 0-0.4799 0.88042-0.3999 1.9204 0.08 1.36-1.2801 3.5197-4.5601 7.1997-2.56 2.88-5.1997 5.2808-5.7597 5.2808-0.64 0-1.1206 0.71961-1.1206 1.5996 0 1.04-0.5591 1.5996-1.5191 1.5996-0.88 0-1.8401 0.72108-2.0801 1.6011-0.24 0.87999-0.8802 1.5996-1.2802 1.5996s-1.0403 0.63937-1.2803 1.3594c-0.32 0.72-1.1193 1.9211-1.7593 2.6411-0.72 0.72-2.8809 3.2801-4.8809 5.6001-1.9999 2.4-5.359 6.3188-7.519 8.7188-2.08 2.48-4.4802 5.3605-5.2002 6.4805-0.64 1.12-2.4799 3.6001-3.9199 5.6001s-3.5201 4.64-4.5601 6c-1.04 1.28-5.2003 6.9605-9.3603 12.48-4.08 5.52-8.7193 12.24-10.239 15.04-1.52 2.72-5.0413 8.4001-7.8413 12.64-2.72 4.16-6.1596 9.8396-7.5996 12.56-1.52 2.64-4.2397 7.361-6.1597 10.481-1.92 3.04-5.7599 9.9989-8.4799 15.359-2.72 5.36-5.2801 10.56-5.6001 11.6-0.32 0.95999-1.5999 3.1197-2.8799 4.7197s-2.6401 4.2403-3.1201 5.8403c-0.48 1.68-1.9198 4.8806-3.2798 7.1206-1.36 2.32-3.12 6.08-3.92 8.48-0.8799 2.4-1.8403 4.7193-2.3203 5.2793s-1.7598 3.6804-2.8798 6.8804c-1.12 3.28-2.5602 6.7196-3.1202 7.5996-0.64 0.96-2.4005 4.9608-4.0005 8.8008-1.5999 3.92-4.0801 10.8-5.6 15.28-1.52 4.48-3.28 8.9605-3.92 10s-1.9202 4.399-2.7202 7.519c-0.88 3.12-2.1599 6.8001-2.8799 8.0801-0.64 1.36-1.999 5.2808-2.959 8.8008-0.96 3.44-2.56 8.0798-3.52 10.32s-2.4001 6.3992-3.1201 9.1992-2.5596 8.7206-4.0796 13.121c-1.52 4.4-2.8008 8.7191-2.8008 9.5991s-1.2002 5.9202-2.7202 11.2c-1.52 5.28-3.4404 12.64-4.4004 16.4-0.88 3.76-2.4791 10.401-3.5991 14.801s-3.5995 14.799-5.5195 23.199c-2 8.32-4.3202 18.4-5.2002 22.4-0.96 3.92-2.4004 12.4-3.3604 18.8-0.88 6.4-2.3207 14.48-3.2006 18-0.88 3.52-2.4792 12.481-3.5992 20.001-1.04 7.44-2.3202 15.44-2.7202 17.76-0.48 2.32-1.2002 7.2003-1.6802 10.8-0.48 3.68-1.5199 11.999-2.4799 18.639-0.88 6.56-2.2396 17.04-3.0396 23.2s-1.681 13.68-2.001 16.8c-0.24 3.04-0.6389 8.3201-0.8789 11.6s-0.8802 9.7594-1.2802 14.399c-0.48 4.64-1.0407 8.5608-1.1207 8.8008-0.16 0.23999-0.5598 5.9998-0.7998 12.8-0.32 6.8-0.8797 15.6-1.1997 19.6-0.32 3.92-0.7203 13.121-0.8803 20.401s-0.3194 18.24-0.3194 24.4c0 6.16 0.3196 22.56 0.5596 36.4 0.32 13.84 0.9599 28.959 1.4399 33.599s1.1996 10.561 1.5996 13.201 1.1211 9.4392 1.6011 15.199c0.48 5.68 1.6 14.56 2.48 19.6 0.8 5.04 2.5599 15.52 3.9199 23.2s3.1199 16.481 3.9199 19.601c0.88 3.04 2.1599 8.6399 2.8799 12.4s1.9191 8.0791 2.5591 9.5991 2.3208 7.1199 3.8408 12.4c1.44 5.28 4.1591 13.76 6.0791 18.8 1.84 5.04 4.48 12.641 6 16.881 1.44 4.24 3.5201 9.6 4.5601 12s2.16 5.3592 2.48 6.7192c0.32 1.28 2.0808 5.4407 3.8408 9.2007s5.2798 10.96 7.8398 16 6.5605 12.96 8.9605 17.6 6.3196 11.599 8.6396 15.599c2.4 3.92 5.5195 8.8809 6.9595 10.881 1.44 2.0799 2.6411 3.9192 2.6411 4.2392s2.2391 3.7608 5.0391 7.7608c2.72 3.9999 7.2005 10.559 10 14.559 2.8 4.08 6.4797 9.0397 8.2397 11.12s4.4806 5.521 6.0806 7.601c1.6 2.16 4.9594 6.159 7.3594 8.959 2.48 2.8 6.8802 7.6803 9.7602 10.8 2.96 3.12 6.5595 7.1208 7.9995 8.8008 1.52 1.76 8.881 9.3588 16.481 16.799 7.52 7.52 17.999 17.761 23.199 22.641 5.2 4.96 11.041 10.16 12.961 11.6s6.559 4.8797 10.399 7.5997c3.76 2.72 7.2802 5.2801 7.6802 5.6001 0.48 0.4 2.9601 2.3198 5.6 4.3198 2.64 2 7.3604 5.2808 10.4 7.3608 3.12 2.08 6.4796 4.3196 7.5996 5.1196 1.12 0.72 3.1204 2.3195 4.4004 3.4395 1.36 1.2 5.1195 3.7607 8.3995 5.6807 3.2799 2 6.8804 4.1603 7.9204 4.8003 1.12 0.56 2.64 1.6788 3.52 2.3188s2.7201 2.1604 4.1601 3.3604c1.36 1.2 4.8002 3.3608 7.6802 4.8808 2.8 1.52 7.6797 4.4796 10.72 6.5596 3.12 2.08 7.4406 4.6398 9.6006 5.7598 2.24 1.1199 4.5602 2.4801 5.2002 3.1201 0.72 0.56 3.5999 2.3199 6.3999 3.9199 2.88 1.6 6.7988 3.5204 8.7188 4.4004s4.4001 2.3201 5.6001 3.1201c1.12 0.8 6.8004 3.9189 12.48 6.8789 5.76 3.04 15.6 8.0802 22 11.2 6.4 3.2 19.36 9.6012 28.8 14.241s21.359 10.239 26.399 12.479c5.04 2.32 12.081 5.5197 15.601 7.1997s8.5588 3.9209 11.199 4.8809c2.64 1.04 5.2001 2.0794 5.6001 2.3994 0.48 0.32 2.9601 1.3609 5.6 2.4009 2.64 1.04 5.6808 2.4801 6.7208 3.1201 1.04 0.72 3.76 1.8396 6 2.6396 2.2399 0.8 4.479 1.44 5.039 1.44s3.6013 1.2002 6.8013 2.7202c3.2 1.44 6.7198 2.9592 7.8398 3.1992 1.12 0.32 3.4402 1.1199 5.2002 1.8399s4.7196 2.0007 6.5596 2.8007 3.7598 1.44 4.3198 1.44c0.48 0 3.6801 1.2002 7.0401 2.7202s7.7602 3.1191 9.7602 3.5991c2.08 0.48 5.9993 1.9207 8.7993 3.2007s6.2405 2.6399 7.5205 2.8799c1.36 0.32 5.6806 1.9191 9.6006 3.5991 4 1.6 9.1987 3.7603 11.599 4.8003 2.4 0.96 6.4007 2.4798 8.8007 3.2798s6.5593 2.161 9.1993 3.041c2.64 0.8 7.8401 2.639 11.6 3.999s7.5208 2.8813 8.4008 3.2813 2.6394 1.1196 3.8394 1.5996c1.28 0.48 5.0403 1.3601 8.3203 2.0801 3.28 0.64 7.9207 2.0801 10.241 3.1201 2.32 0.96 6.7999 2.4001 9.9199 3.1201s8.3196 2.3191 11.52 3.5991c3.12 1.28 7.6796 2.7207 10.08 3.2007s6.4007 1.9192 8.8007 3.1992c2.48 1.2 5.9202 2.7207 7.6802 3.2007 1.76 0.56 5.3595 1.8399 7.9995 2.8799s7.8401 2.4792 11.6 3.1992 9.1997 2.1607 12.16 3.2007 8.5605 2.4792 12.48 3.1992c3.84 0.64 8.799 1.6803 11.039 2.3203 2.16 0.64 6.64 1.7609 9.92 2.4009 3.2799 0.64 11.2 1.76 17.6 2.48s13.92 1.9191 16.8 2.5591c4.08 0.96 12.48 1.361 40.4 1.601 23.92 0.24 37.68 0.079 42.8-0.561 4.16-0.48 10.48-1.1996 14-1.5996s12.881-1.2795 20.801-1.9995 16.4-1.7609 18.8-2.4009 7.6792-1.6803 11.679-2.3203c4-0.72 10.081-1.5193 13.601-1.7593 3.44-0.24 8.3197-0.9605 10.72-1.5205s6.3994-1.5997 8.7994-2.2397c2.3999-0.72 7.84-1.8391 12-2.5591 4.1599-0.8 10.321-2.2413 13.601-3.2813s9.7594-2.7193 14.399-3.8393 12.401-3.1204 17.281-4.4004 10.24-2.9597 12-3.6797c1.68-0.72 6-2.1607 9.52-3.2007 3.52-0.96 12.32-3.8399 19.6-6.3999 7.28-2.48 15.76-5.3599 18.8-6.3999 3.12-1.04 10.32-3.7591 16-6.0791 5.76-2.24 11.12-4.6411 12-5.1211 0.88-0.56 3.9198-1.8393 6.7998-2.7993 2.88-1.04 5.9198-2.3199 6.7998-2.8799s4.4795-2.2403 7.9995-3.7602c3.52-1.52 8.7201-3.8402 11.6-5.2002 2.88-1.28 8.24-3.6802 12-5.2002s13.281-6.1602 21.201-10.16c7.92-4.08 15.68-8.2392 17.2-9.1992 1.52-0.88 5.6792-3.0397 9.1992-4.7197 3.52-1.6 8.2404-4.32 10.4-6 2.24-1.68 5.6796-3.9209 7.5996-4.8809 2-0.96 4.4801-2.4792 5.6001-3.1992 1.12-0.8 3.9999-2.5599 6.3999-3.9199s6.4008-3.6009 8.8008-4.8809 6.2394-3.5196 8.3994-5.1196c2.24-1.52 8.3196-5.4402 13.6-8.7202s10.88-6.6394 12.4-7.3594c1.52-0.8 7.5209-5.04 13.361-9.52 5.76-4.48 17.599-13.28 26.319-19.68 8.64-6.4 17.76-13.12 20.32-14.96 2.48-1.92 5.6004-4.3992 6.8804-5.6792s5.0394-4.6399 8.3994-7.4399c3.28-2.8 6.9601-5.9204 8.0801-6.8804 1.2-0.96 2.9605-2.2404 4.0005-2.9604 1.04-0.64 4.5598-3.7604 7.8398-6.8804s7.76-7.1995 9.92-9.0395 7.2002-6.4002 11.2-10.16c4-3.68 11.599-11.119 16.879-16.399 5.2799-5.36 13.921-14.241 19.201-19.761s11.439-12.16 13.759-14.72c2.24-2.56 5.5999-6.3203 7.4399-8.3203s4.9601-5.7594 7.0401-8.3994c2-2.64 6.9599-8.6403 10.96-13.28 3.92-4.64 8.7998-10.72 10.72-13.44 2-2.72 5.2006-6.6402 7.1206-8.7202 2-2.08 5.8396-6.8001 8.6396-10.56s7.04-9.9198 9.52-13.84c2.4-3.84 6.5607-9.9197 9.2007-13.6 2.64-3.6 5.5199-7.6804 6.3999-8.9604 0.88-1.36 3.1991-4.7993 5.0391-7.7593 1.84-2.88 4.3201-6.8808 5.6001-8.8008 1.2-1.84 4.0799-6.399 6.3999-9.999 2.24-3.6 5.3604-8.6402 6.8804-11.2s4.1609-7.3606 5.9209-10.641 5.5194-10.72 8.3994-16.4c2.8-5.76 5.7595-11.28 6.5595-12.4 0.72-1.12 2.8807-4.8794 4.6407-8.3994 1.84-3.52 5.3593-10.72 7.7592-16 2.4-5.28 4.9607-10.48 5.6807-11.6 0.64-1.12 1.7594-3.2788 2.3994-4.7988s1.6001-3.6803 2.0801-4.8003c0.4-1.12 1.4403-3.4402 2.3203-5.2002 0.8-1.76 3.2804-7.5198 5.4404-12.8s4.1595-10.48 4.4795-11.6 1.3595-3.84 2.3995-6c0.96-2.24 3.1202-7.6 4.8002-12s3.6801-10.16 4.5601-12.8 2.6399-7.3604 3.9199-10.4c1.28-3.12 3.1999-8.6399 4.3199-12.4 1.1199-3.76 2.961-10.08 4.081-14 1.12-4 3.2797-10.961 4.7197-15.601s3.0395-10.4 3.4395-12.8c0.48-2.4 2.0806-8.3997 3.6006-13.2 1.52-4.88 2.9598-10.64 3.2798-12.88 0.24-2.32 1.3599-7.1197 2.4799-10.72 1.04-3.6 2.5607-10.401 3.2007-15.041 0.72-4.72 2.3191-13.279 3.5991-18.959 1.2-5.76 2.9609-15.279 3.8409-21.199 0.96-5.92 2.2389-16.881 2.9589-24.321 0.96-9.92 1.3609-21.44 1.3609-42.8-0.08-16.08-0.4004-33.6-0.8804-38.88-0.4-5.28-1.3595-14.08-1.9995-19.6s-1.6001-13.44-2.0801-17.6-1.2002-9.9198-1.6802-12.8c-0.4-2.88-1.4403-8.8012-2.3203-13.201-0.88-4.4-2.3206-12.16-3.2006-17.2s-2.3187-12.079-3.1187-15.599-1.92-9.1199-2.48-12.4c-0.48-3.28-1.8404-8.72-2.9604-12-1.04-3.28-2.8009-9.7609-3.8408-14.401-0.96-4.64-2.7991-11.839-3.9991-15.999s-3.2-10.881-4.56-14.801c-1.36-4-3.2008-10.08-4.2408-13.6-0.96-3.52-2.9598-10.159-4.3198-14.799-1.44-4.64-3.44-10.401-4.56-12.801-1.04-2.4-3.1192-7.9999-4.6392-12.4-1.44-4.4-3.921-11.439-5.521-15.599-1.52-4.16-3.279-8.8804-3.999-10.4s-2.96-7.1199-4.96-12.4c-2-5.28-5.2803-12.88-7.2803-16.8-1.9199-4-3.52-7.5198-3.52-7.8398s-0.8001-2.3204-1.6801-4.4004c-0.96-2.08-3.6806-7.9195-6.0806-12.959-2.4-5.04-6.1594-12.8-8.3994-17.2s-4.5597-8.5598-5.1197-9.2798c-0.64-0.71999-3.36-5.7602-6-11.2-2.72-5.44-5.6807-11.039-6.7207-12.319-0.96-1.36-2.8004-4.4013-4.0004-6.8013s-2.7992-5.12-3.5992-6c-0.72-0.88-1.5998-2.5597-1.8398-3.6797-0.32-1.12-2.0811-4.4796-4.0811-7.5996-2-3.04-6.24-9.6802-9.52-14.72-3.28-5.04-7.5991-11.919-9.5991-15.199-2.08-3.28-4.6403-7.1209-5.8403-8.4009-1.12-1.36-2.9605-4-4.0005-6-1.12-2-3.1201-5.4402-4.5601-7.6802s-3.7596-5.5188-5.1196-7.2788c-1.44-1.84-2.6397-3.6005-2.6397-4.0005s-1.4406-2.56-3.2006-4.96c-1.76-2.32-4.5594-5.8398-6.3194-7.8398-1.76-1.92-4.96-6.1598-7.04-9.2798-2.08-3.2-5.5999-7.7602-7.8399-10.16-2.16-2.48-5.9197-6.8006-8.2397-9.6006-2.32-2.88-5.7608-7.2794-7.7608-9.8394-2-2.48-3.4392-4.56-3.1992-4.56s-2.4003-2.8002-5.8403-6.2402c-3.36-3.44-10.48-10.721-15.76-16.241s-12.079-12.64-15.199-15.92c-3.04-3.28-5.5213-6.2396-5.3613-6.5596 0.08-0.4-0.7199-1.04-1.8398-1.4399-1.12-0.4-3.519-2.3207-5.439-4.2407-1.84-1.84-4.3998-4.1596-5.7598-5.1196-1.28-1.04-1.9208-1.8398-1.3608-1.8398 0.48 0 0.9595-0.39981 0.9595-0.7998 0-0.48-0.64-0.79981-1.44-0.79981s-6.7994-5.0402-13.359-11.2c-6.64-6.16-14-12.561-16.4-14.161s-5.8396-4.079-7.5996-5.439c-1.76-1.28-5.8401-4.5612-9.1201-7.2012s-7.6006-6.1593-9.6006-7.7593c-2-1.68-5.2788-3.84-7.2788-4.96-2-1.04-6.0807-3.76-9.2007-6-3.04-2.24-6.4796-4.7201-7.5996-5.6001-1.12-0.8-6.1607-4.1605-11.281-7.5205-5.12-3.28-10.08-6.239-10.96-6.479-0.96-0.32-3.7593-2.0799-6.3193-3.9199s-7.1208-4.8807-10.241-6.7207c-3.04-1.76-9.359-5.1194-13.919-7.3594s-9.2804-4.8001-10.4-5.6001-2.9596-1.7601-4.0796-2.0801-3.9999-1.6008-6.3999-2.8008-7.4402-3.679-11.2-5.439c-3.76-1.84-9.2799-4.2404-12.4-5.4404-3.04-1.12-9.6-3.9999-14.48-6.3999s-11.041-5.0403-13.601-5.8403c-2.56-0.88-6.4788-2.2401-8.7188-3.1201-2.16-0.88-8.1612-2.8795-13.201-4.4795-5.0399-1.52-11.679-3.3596-14.799-4.0796-3.04-0.72-7.5202-2.2404-9.7602-3.3604-2.32-1.12-4.2393-2.4008-4.2393-2.8008s-0.8007-0.63957-1.7607-0.55957c-1.04 0.08-4.0002-0.0805-6.6402-0.48047-2.64-0.32-7.1204-1.44-10-2.48-2.88-0.96-8.3988-2.4001-12.239-3.1201-3.92-0.72-8.4005-1.7588-10-2.3188-1.68-0.56-7.8408-1.8399-13.761-2.8799-5.92-0.96-15.839-2.6412-21.999-3.6812-6.16-1.12-16.4-2.4801-22.8-3.1201s-15.759-1.5995-20.799-1.9995c-5.04-0.48-16.401-1.3604-25.201-1.9204-8.7999-0.56-24.799-1.1197-35.679-1.1997z"/>
  <path d="m1551.6 1641.8c-1.76 0.08-6.8 0.32-11.2 0.64s-12.64 1.36-18.4 2.32c-5.68 0.96-14.56 2.8-19.6 4.08s-11.52 3.28-14.4 4.4c-2.88 1.2-10.24 4.64-16.48 7.68-6.16 3.04-13.92 7.44-17.28 9.68-3.36 2.32-9.68 7.2-14 10.8-4.4 3.6-10.96 9.76-14.72 13.6-3.68 3.84-9.2 10.08-12.08 13.84-2.96 3.76-7.76 10.48-10.64 14.96s-7.2 12.08-9.52 16.8c-2.4 4.72-5.44 11.92-6.72 16-1.36 4-2.96 9.92-3.68 13.2-0.64 3.2-2 9.76-3.04 14.64-1.36 6.8-1.76 11.6-1.76 21.2-0.08 10.48 0.32 14.64 2.48 26.88 1.44 8 3.52 17.52 4.72 21.2 1.12 3.68 2.96 9.04 4.08 11.92 1.2 2.88 3.44 7.92 5.12 11.2 1.6 3.28 4.8 9.04 7.12 12.8 2.24 3.76 6.16 9.52 8.56 12.8 2.48 3.28 8.48 10.08 13.36 15.04 4.88 5.04 11.92 11.52 15.68 14.48 3.76 3.04 8.64 6.72 10.8 8.16 2.24 1.52 6.88 4.48 10.4 6.56 3.52 2 10.24 5.44 14.8 7.68 4.64 2.16 11.6 5.04 15.52 6.4 3.92 1.44 11.12 3.36 16 4.48 4.88 1.04 12.4 2.24 16.64 2.72 4.32 0.48 14.08 0.88 21.76 0.88 7.6 0 17.6-0.4 22.16-0.88 4.56-0.4 12.48-1.76 17.52-2.88s13.6-3.44 18.96-5.12c5.28-1.76 13.44-5.04 18-7.36 4.48-2.32 11.76-6.4 16-9.12 4.24-2.64 10.56-6.96 14-9.52s10.48-8.96 15.68-14.24c5.2-5.2 12.64-13.68 16.56-18.88s8.72-11.92 10.64-14.96c2-2.96 4.64-7.6 6-10.24 1.28-2.64 4-9.12 6-14.4 1.92-5.28 4.32-12.48 5.2-16 0.96-3.52 2.4-10.64 3.36-15.76 1.12-6.8 1.6-12.8 1.6-22.16 0-7.44-0.48-16.32-1.2-20.96-0.64-4.4-2-11.52-2.88-15.76-0.96-4.24-3.12-12-4.8-17.2-1.76-5.2-5.04-13.12-7.2-17.6-2.24-4.48-6.32-11.36-8.96-15.36-2.64-3.92-6.48-9.2-8.4-11.6-2-2.4-6.64-7.76-10.4-11.92-3.76-4.08-10.64-10.48-15.28-14.24-4.72-3.68-11.52-8.8-15.28-11.36s-12.56-7.6-19.68-11.12c-7.2-3.6-17.12-7.84-22.8-9.68-5.44-1.76-14.8-4.08-20.72-5.2s-13.84-2.4-17.6-2.88c-3.68-0.4-8.24-0.72-10-0.64zm1335.7 9.52c-8 0.08-17.6 0.64-24.08 1.52-5.92 0.8-12.72 1.84-15.04 2.32-2.4 0.48-8.32 2.16-13.2 3.68-4.96 1.6-11.68 3.92-14.96 5.2-3.28 1.2-8.16 3.28-10.72 4.48-2.64 1.2-7.44 3.76-10.72 5.68-3.36 2-8.72 5.36-12.08 7.6s-8.24 5.76-10.88 7.76-8 6.72-11.92 10.48-9.36 9.68-12.08 13.2-7.2 10.08-9.92 14.56c-2.72 4.56-6.32 11.52-8.16 15.52-1.76 4.08-4.24 11.04-5.44 15.52-1.28 4.48-3.04 11.84-4 16.48-0.88 4.56-3.12 19.84-4.88 33.92-1.84 14.08-4.72 36.24-6.4 49.28-1.76 13.04-4.32 32.48-5.6 43.2-1.36 10.72-2.56 20.08-2.8 20.72-0.16 0.64-1.04 7.84-2 16-0.88 8.16-2 16.8-2.4 19.2s-1.68 11.44-2.72 20c-1.12 8.56-3.12 23.52-4.48 33.2s-3.2 23.52-4.08 30.72-1.76 13.44-2 13.84c-0.24 0.32-0.8 0.64-1.28 0.64-0.4 0-4.8-2.56-9.76-5.68-4.88-3.12-14.96-8.64-22.48-12.32-7.44-3.68-15.36-7.44-17.6-8.24-2.16-0.88-8.48-3.36-14-5.52-5.52-2.24-12.72-4.96-16-6.08s-10.16-3.28-15.2-4.8-11.28-3.36-13.76-4.08c-2.56-0.72-9.76-2.64-16-4.16-6.32-1.52-17.2-4-24.24-5.44-7.04-1.52-14.56-2.96-16.8-3.2-2.16-0.32-7.6-1.28-12-2.08-4.4-0.88-13.76-2.32-20.8-3.2-7.04-0.96-18.56-2.24-25.6-2.8-8.64-0.8-25.44-1.12-51.6-1.2-27.04 0-43.04 0.4-52.8 1.2-7.68 0.64-19.76 1.84-26.8 2.72-7.04 0.96-17.12 2.48-22.4 3.36-5.28 0.96-15.52 3.12-22.8 4.8-7.28 1.76-17.84 4.32-23.6 5.84-5.68 1.44-13.6 3.68-17.6 4.88-3.92 1.2-10.24 3.2-14 4.4-3.76 1.28-10.24 3.6-14.4 5.2s-10.32 3.92-13.6 5.2-10.88 4.32-16.8 6.8c-5.92 2.4-19.6 8.88-30.4 14.24s-24.64 12.64-30.8 16.16-13.44 7.84-16.24 9.6-8.32 5.36-12.4 8-12.88 8.72-19.68 13.6c-6.72 4.8-17.68 13.28-24.4 18.64-6.64 5.44-16.48 13.84-21.92 18.72s-16.32 15.68-24.32 24.16c-7.92 8.4-19.12 21.2-24.96 28.48-5.76 7.28-12.72 16.24-15.36 20s-7.12 10.24-9.92 14.4-9.04 14.08-13.84 22c-4.88 7.92-14.08 24.8-20.64 37.6-6.48 12.72-13.12 26.4-14.72 30.4-1.68 3.92-5.52 13.52-8.56 21.2s-7.84 21.04-10.64 29.6-6 18.8-7.12 22.8c-1.12 3.92-4.08 15.12-6.48 24.8-2.48 9.68-5.68 23.68-7.2 31.2-1.52 7.44-3.6 19.36-4.72 26.4s-2.96 20.16-4.08 29.2c-1.12 8.96-2.56 25.2-3.28 36-0.96 15.36-1.2 29.28-0.88 64.8 0.24 24.88 0.8 48.96 1.28 53.6s1.6 14.48 2.48 22c0.96 7.44 2.56 18.8 3.68 25.2 1.04 6.4 3.44 18.4 5.2 26.8 1.84 8.32 4.64 20.24 6.4 26.4 1.68 6.16 4.16 14.64 5.44 18.8s3.2 10.48 4.4 14c1.12 3.52 3.2 9.84 4.72 14s6.08 15.68 10.24 25.6c4.08 9.92 12 26.96 17.6 38 5.52 10.96 11.68 22.72 13.68 26s5.52 9.04 7.84 12.8 6.24 9.84 8.64 13.6c2.48 3.76 8.8 12.56 14.08 19.6s11.36 14.96 13.6 17.6 7.76 8.96 12.24 14c4.4 5.04 15.04 16.08 23.6 24.4 8.48 8.4 20.16 19.28 25.84 24.24 5.76 4.88 12.56 10.64 15.2 12.64s8.4 6.4 12.8 9.68c4.4 3.36 15.2 10.8 24 16.64s18.48 12.08 21.44 13.92 12.96 7.04 22.08 11.68c9.2 4.56 20.96 10.08 26.16 12.24 5.28 2.24 16.56 6.72 25.2 10.08 8.64 3.28 21.04 7.6 27.6 9.6 6.56 1.92 16.08 4.64 21.2 6s15.28 3.68 22.56 5.28c7.36 1.52 18.64 3.68 25.12 4.8 6.56 1.04 15.84 2.48 20.64 3.12 4.88 0.72 14.4 1.76 21.2 2.48s19.6 1.6 28.4 2 22.32 0.8 30 0.8 20.64-0.4 28.8-0.8c8.16-0.48 18.24-1.2 22.4-1.6 4.16-0.48 12.32-1.6 18-2.48 5.76-0.88 14.72-2.56 20-3.6 5.28-1.12 15.36-3.44 22.4-5.2s15.84-4.16 19.6-5.28 12.4-3.84 19.2-6.08 16.16-5.52 20.8-7.44c4.64-1.84 12.8-5.2 18.24-7.44 5.36-2.24 9.92-4.08 10.16-4.08 0.16 0 1.44 2.24 2.8 4.96 1.44 2.72 4.88 8.48 7.68 12.8 2.88 4.32 7.28 10.48 9.84 13.6 2.56 3.2 8.08 9.12 12.16 13.04 4.16 4 10.56 9.6 14.32 12.48s10.8 7.68 15.76 10.64 13.04 7.28 18 9.6 12.48 5.36 16.64 6.72 11.04 3.36 15.2 4.48c4.16 1.04 11.6 2.64 16.4 3.6 4.88 0.88 11.52 1.92 14.8 2.4 3.28 0.4 11.2 0.96 17.6 1.28 6.4 0.24 17.6 0.08 24.88-0.32 9.36-0.56 16.64-1.52 24.8-3.28 6.32-1.36 14.96-3.6 19.12-4.96 4.16-1.28 9.92-3.28 12.8-4.4s8.24-3.6 12-5.52 10.8-6.08 15.6-9.2c4.88-3.12 11.68-8.16 15.2-11.12 3.52-3.04 9.68-8.8 13.68-12.96 3.92-4.08 8.64-9.44 10.48-11.84 1.76-2.48 5.28-8 7.76-12.32s5.6-10.24 6.96-13.12c1.36-2.96 3.68-8.8 5.2-13.04 1.44-4.24 3.6-11.6 4.72-16.4s2.8-14.8 3.68-22.32c0.88-7.44 1.92-14.96 2.32-16.8 0.4-1.76 1.28-8.8 2-15.6s1.76-15.28 2.4-18.8 1.68-11.12 2.4-16.8c0.64-5.76 2.08-16.72 3.2-24.4 1.04-7.68 2.8-21.04 3.92-29.6s2.56-19.76 3.2-24.8 1.92-15.12 2.88-22.4c0.88-7.28 2.16-16.96 2.88-21.6 0.64-4.64 2.24-16.48 3.52-26.4s2.56-18.88 2.8-20 1.44-10.32 2.8-20.4c1.28-10.16 3.92-31.36 5.92-47.2 2.08-15.84 4.4-34.24 5.28-40.8 0.88-6.64 2.32-17.76 3.2-24.8s2.72-20.56 4-30c1.36-9.44 3.68-26.72 5.2-38.4s3.28-25.68 3.92-31.2 2.8-22.8 4.8-38.4 4.4-34 5.28-40.8c0.96-6.8 2.72-20.72 4.08-30.8 1.28-10.16 3.04-24 3.92-30.8s2.32-17.6 3.2-23.92c0.88-6.4 2-14.64 2.4-18.4s1.44-12.32 2.4-18.88c0.96-6.64 2.4-17.76 3.2-24.8 0.88-7.04 1.92-15.52 2.32-18.8 0.48-3.28 1.6-11.44 2.48-18 0.88-6.64 2.72-20.32 4.08-30.4 1.28-10.16 3.44-26.88 4.72-37.2 1.2-10.32 2.88-23.28 3.52-28.8 0.72-5.52 2.08-15.76 2.96-22.8s2.64-20.56 3.92-30 3.2-24.24 4.32-32.8 2.24-16.48 2.48-17.6 1.28-9.36 2.32-18.4c1.12-9.04 2.72-22.56 3.68-30 0.88-7.52 2.56-19.76 3.6-27.2 1.04-7.52 2.32-17.36 2.8-22s1.6-12.56 2.4-17.6c0.88-5.04 2.48-16.4 3.6-25.2s3.84-30.08 6-47.2c2.24-17.2 4.72-36.96 5.6-44s2.48-19.44 3.6-27.6c1.04-8.16 2.32-19.2 2.8-24.56 0.4-5.36 0.8-12.8 0.8-16.64 0-3.76-0.4-10.32-0.8-14.64-0.48-4.24-1.76-11.92-2.88-16.96-1.2-5.04-3.12-11.92-4.4-15.28-1.2-3.36-4-9.76-6.24-14.16-2.16-4.4-6.96-12.4-10.56-17.84-5.2-7.76-9.36-12.72-19.36-22.88-10.24-10.4-15.04-14.56-24.08-20.88-6.24-4.4-15.68-10.16-21.12-12.88s-13.84-6.4-18.8-8.08c-4.88-1.76-14.32-4.64-20.88-6.32-6.64-1.76-14.24-3.6-16.88-4.08s-9.76-1.36-15.92-2c-6.08-0.64-17.04-1.2-24.4-1.12zm-447.28 644.08c7.68-0.08 18.32 0.24 23.6 0.64s14.8 1.52 21.2 2.4c6.4 0.96 17.04 2.8 23.6 4.08 6.64 1.36 16.72 3.68 22.56 5.2s13.92 4 18 5.6 10.56 4.48 14.4 6.4 9.44 4.96 12.4 6.88c2.96 1.84 8.16 5.36 11.44 7.76 3.28 2.48 9.2 7.52 13.12 11.28s9.2 9.6 11.84 13.04c2.64 3.36 6.4 8.96 8.4 12.4 2 3.36 4.88 9.04 6.4 12.48 1.6 3.52 3.92 9.44 5.2 13.12s2.8 10.4 3.44 14.88c0.64 4.4 1.2 12.08 1.2 17.04 0 4.88-0.56 13.84-1.2 20-0.64 6.08-2.08 17.52-3.2 25.44-1.04 7.92-3.04 22.32-4.32 32s-3.36 24.8-4.48 33.6-3.68 28.8-5.68 44.4c-1.92 15.6-4.8 38.08-6.32 50-1.52 11.84-3.84 29.84-5.2 40-1.36 10.08-3.36 25.28-4.4 33.68s-2.64 20.4-3.52 26.8c-0.88 6.32-2 14.08-2.4 17.12-0.48 3.12-1.76 7.68-2.88 10.24s-3.92 7.44-6.16 10.8-7.36 9.44-11.36 13.36c-4 4-10.32 9.28-14.08 11.76-3.76 2.4-8.4 5.36-10.4 6.48s-6.64 3.28-10.4 4.8-10.24 3.84-14.4 5.2-11.36 3.44-15.84 4.48c-4.56 1.12-13.6 2.8-20 3.84-10.56 1.68-14.48 1.84-38.56 1.84-21.2-0.08-28.8-0.4-36.4-1.52-5.28-0.72-14.64-2.48-20.8-3.76-6.16-1.36-15.68-3.68-21.2-5.28s-13.6-4.24-18-5.92c-4.4-1.6-10.72-4.08-14-5.44-3.28-1.44-10.72-5.04-16.56-8.08s-13.36-7.36-16.8-9.68c-3.44-2.24-8-5.36-10.24-6.96-2.16-1.6-7.76-6-12.4-9.84s-10.4-9.12-12.88-11.68c-2.4-2.56-6.56-7.2-9.2-10.24-2.64-3.12-6.64-8.16-8.88-11.2-2.24-3.12-5.6-8.16-7.44-11.2-1.92-3.12-6.08-10.8-9.28-17.2-3.12-6.4-7.12-15.2-8.72-19.6-1.68-4.4-4.24-12-5.76-16.8-1.44-4.88-3.92-14.24-5.36-20.8-1.52-6.64-3.28-15.6-4-20s-1.68-12-2.24-16.8c-0.48-4.88-0.96-18.16-0.96-29.6s0.48-25.12 0.96-30.4c0.56-5.28 1.76-14.8 2.64-21.2s2.48-16.32 3.6-22c1.12-5.76 3.44-16.16 5.28-23.2 1.76-7.04 4.8-17.44 6.8-23.04 2-5.68 5.84-15.44 8.64-21.68 2.72-6.24 6.24-13.84 7.76-16.96 1.52-3.04 5.92-11.12 9.84-17.92 3.84-6.8 8.72-15.12 10.8-18.48 2.08-3.44 7.2-10.64 11.28-16 4.16-5.44 10.56-13.12 14.32-17.04 3.76-3.84 10.24-10 14.4-13.6 4.16-3.68 11.2-8.96 15.6-11.76 4.4-2.88 10.88-6.88 14.4-8.88s10.16-5.28 14.8-7.28 11.2-4.56 14.72-5.68c3.44-1.2 10.96-3.36 16.8-4.88 5.76-1.52 15.2-3.44 20.96-4.4s12.96-2 16-2.32c3.04-0.4 11.84-0.72 19.52-0.72zm-1403-582.08c-10.96-0.24-23.28-0.08-27.44 0.32-4.16 0.32-10.96 1.36-15.12 2.32-4.08 0.88-11.84 2.96-17.2 4.56-5.28 1.68-13.28 4.32-17.68 5.92s-10.32 4.16-13.2 5.6-8.4 4.4-12.4 6.64c-3.92 2.16-10.08 6-13.6 8.4-3.52 2.48-9.84 7.12-14 10.48-4.16 3.28-10.64 8.88-14.32 12.48-3.68 3.52-9.28 9.44-12.48 13.2-3.12 3.76-7.68 9.68-10.16 13.2-2.4 3.52-6.4 10-8.88 14.4s-7.6 15.04-11.36 23.6c-3.84 8.56-10.88 24.4-15.76 35.2s-13.44 29.68-19.04 42c-5.68 12.32-12.4 27.36-15.12 33.44s-4.88 11.2-4.88 11.36-1.76 4-3.92 8.56c-2.16 4.48-6.8 14.72-10.32 22.64s-9.36 20.88-12.96 28.8-8.56 18.88-10.96 24.4-12.08 26.88-21.44 47.6c-9.36 20.64-19.84 43.92-23.2 51.6-3.44 7.68-7.44 16.72-8.96 20-1.6 3.28-5.84 12.64-9.44 20.8-3.68 8.16-10.24 22.8-14.72 32.64s-8.08 18.08-8.08 18.32-3.6 8.32-8 17.92-10.16 22.4-12.72 28.48-8.64 19.68-13.52 30.24c-4.8 10.56-14.08 30.88-20.56 45.2s-12.08 26.32-12.48 26.72-0.88 0.56-1.12 0.32c-0.24-0.16-0.96-4.64-1.68-9.92-0.64-5.2-3.12-19.76-5.52-32.32-2.32-12.56-4.8-25.84-5.52-29.6s-2.4-13.28-3.76-21.2-3.12-18-3.92-22.4-2.56-14.32-3.84-22c-1.36-7.68-3.6-19.76-4.88-26.8s-3.84-20.72-5.68-30.4-4-21.36-4.8-26c-0.88-4.64-2.64-14.32-3.92-21.6s-4.56-24.88-7.28-39.2-6.16-32.88-7.68-41.2c-1.52-8.4-3.84-21.52-5.12-29.2-1.36-7.68-2.8-15.84-3.2-18-0.4-2.24-2.24-11.76-4-21.2s-4.56-21.92-6.08-27.6c-1.6-5.76-4.48-14.56-6.48-19.6s-5.52-12.96-7.92-17.6c-2.32-4.64-5.92-10.96-8-14-2.08-3.12-6.16-8.64-9.12-12.4s-8.96-10.24-13.28-14.4c-4.4-4.24-11.84-10.56-16.56-14.16-4.8-3.52-12.72-8.56-17.6-11.12-4.96-2.56-11.92-6-15.52-7.68-3.68-1.6-11.04-4.4-16.4-6.16-5.44-1.68-13.28-3.84-17.44-4.72s-11.76-2.08-16.8-2.64-14.8-1.04-21.6-1.04-17.04 0.4-22.8 1.04c-5.68 0.56-15.04 1.92-20.72 3.04s-14.32 3.2-19.2 4.64-12.56 4.08-17.12 5.92c-4.48 1.76-12.16 5.28-17.12 7.76-4.88 2.48-11.84 6.24-15.36 8.48-3.52 2.16-10.24 6.96-14.8 10.48-4.64 3.6-12.32 10.48-17.12 15.36-4.8 4.8-11.36 12.08-14.64 16.08-3.2 4-7.12 9.2-8.72 11.6s-5.2 8.96-8.08 14.64c-2.88 5.6-6.32 13.2-7.52 16.8-1.2 3.52-3.04 10.08-4 14.48-0.88 4.4-2.24 11.76-2.88 16.4-0.72 4.8-1.2 14.48-1.2 22.64 0 7.84 0.24 16.8 0.48 20 0.32 3.2 2 14.24 3.68 24.56 1.76 10.32 3.36 19.36 3.52 20s1.28 6.24 2.32 12.4c1.12 6.16 4.88 27.2 8.48 46.8 3.52 19.6 7.52 41.52 8.88 48.8 1.28 7.28 3.12 16.96 3.92 21.6 0.88 4.64 3.36 18.48 5.6 30.8 2.16 12.32 5.12 28.16 6.4 35.2 1.36 7.04 3.52 18.88 4.88 26.4 1.28 7.44 3.04 17.36 3.92 22 0.8 4.64 2.96 16.16 4.72 25.6s4.64 25.12 6.48 34.8 4 21.76 4.88 26.8 2 10.8 2.4 12.8c0.48 2 1.52 7.52 2.32 12.4 0.8 4.8 2.8 15.84 4.4 24.4s3.6 19.2 4.48 23.6c0.8 4.4 2.96 15.52 4.72 24.8 1.84 9.2 4.16 22.16 5.28 28.8 1.04 6.56 2.48 14.08 3.04 16.8 0.64 2.64 1.36 6.56 1.6 8.8 0.32 2.16 1.44 8.64 2.48 14.4 1.12 5.68 3.04 16.32 4.4 23.6s3.2 16.96 4.08 21.6 2.48 13.6 3.6 20 2.32 12.88 2.72 14.4 1.12 5.28 1.6 8.4c0.48 3.04 2.16 12.64 3.68 21.2 1.6 8.56 4.64 25.12 6.8 36.8s5.04 26.96 6.32 34 4.32 24.32 6.8 38.4c2.4 14.08 6.24 34.96 8.4 46.4 2.24 11.44 5.12 26.88 6.4 34.4 1.28 7.44 3.76 21.52 5.6 31.2 1.76 9.68 3.84 20.64 4.48 24.4s2.64 14 4.32 22.8c1.76 8.8 4.08 21.04 5.12 27.2 1.12 6.16 3.28 18.24 4.88 26.8 1.52 8.56 3.52 19.52 4.32 24.4 0.88 4.8 2.56 14 3.68 20.4 1.2 6.4 3.6 19.12 5.36 28.4 1.76 9.2 4 21.76 5.04 27.76 1.04 6.08 2.64 14.88 3.52 19.6 0.88 4.8 2.72 14.72 4.08 22.24 1.36 7.44 3.6 19.52 4.88 26.8 1.36 7.28 3.44 18.56 4.72 25.2 1.28 6.56 2.8 14.88 3.52 18.4 0.64 3.52 2.16 10.72 3.28 16 1.04 5.28 3.2 13.76 4.72 18.8s4.4 12.88 6.32 17.28c1.92 4.48 5.28 11.12 7.36 14.8s5.84 9.76 8.32 13.44c2.4 3.68 8.24 10.88 12.88 15.84 4.64 5.04 11.28 11.52 14.8 14.4 3.52 2.8 9.84 7.44 14 10.24s12.48 7.44 18.4 10.32 14.32 6.48 18.72 8.08c4.32 1.52 12.16 3.84 17.44 5.2 5.36 1.28 13.68 2.96 18.56 3.76 6.56 1.04 14 1.36 28.48 1.44 17.04 0 20.96-0.24 30.32-1.84 5.92-1.04 15.12-2.96 20.4-4.24 5.36-1.28 12.72-3.28 16.48-4.48 3.76-1.12 10.96-3.68 16-5.6s12.64-5.36 16.8-7.6c4.16-2.16 12.8-7.44 19.2-11.68 9.68-6.48 13.6-9.76 23.6-19.76 8.4-8.32 14.08-14.8 18.56-21.2 3.52-5.04 8.08-12.24 10.08-16s5.12-10.24 6.8-14.4c1.76-4.16 4.16-10.48 5.28-14 1.2-3.52 3.04-11.28 4.24-17.2 1.92-9.84 2.08-12.56 2.16-30.4 0-14.88-0.32-21.68-1.36-28.4-0.72-4.88-2.32-13.84-3.44-20s-3.28-17.52-4.72-25.2-2.88-15.6-3.2-17.6c-0.24-2-1.2-7.36-2.08-12-0.8-4.64-4.48-24.4-8-44s-7.28-40.32-8.32-46c-1.04-5.76-3.52-19.44-5.52-30.4-2-11.04-4.72-26.16-6.08-33.6-1.36-7.52-3.52-19.04-4.8-25.6-1.28-6.64-3.36-17.92-4.72-25.2s-2.96-16.48-3.6-20.4c-0.64-4-2.8-16.24-4.88-27.2-2-11.04-5.12-27.76-6.88-37.2-1.84-9.44-4.24-22.4-5.52-28.8-1.2-6.4-2.88-15.12-3.6-19.44-0.8-4.32-1.2-8.08-0.88-8.32 0.24-0.24 3.2 2 6.56 5.04s8.72 7.84 11.92 10.72 12.64 11.44 20.96 19.12c8.24 7.6 20.96 19.36 28.24 26s16.08 14.8 19.6 18.16c3.52 3.28 15.04 13.92 25.52 23.6 10.56 9.6 21.76 19.84 24.96 22.72s11.68 10.56 18.88 17.2c7.12 6.56 17.2 15.76 22.24 20.48s11.44 10.48 14.16 12.8c2.72 2.4 12.48 11.36 21.6 19.92 9.2 8.56 22.8 21.2 30.24 28s16.8 15.44 20.8 19.2 12.64 11.68 19.2 17.68c6.64 6 16.32 14.8 21.68 19.6 5.28 4.8 16.56 15.2 25.04 23.12s19.6 18.24 24.72 23.04c5.2 4.72 12.24 11.2 15.84 14.4 3.52 3.12 15.2 13.84 25.84 23.76 10.72 9.92 24.08 22.16 29.68 27.2s17.12 15.68 25.6 23.6 19.44 17.92 24.32 22.24 14.24 11.44 20.88 15.84c6.56 4.4 16.32 10.16 21.6 12.72 5.28 2.64 13.12 6 17.52 7.6 4.32 1.6 12.64 4.08 18.4 5.6 5.84 1.44 14 3.36 18.16 4.16 6.24 1.2 11.52 1.44 30.72 1.36 20.64 0 24.16-0.24 31.52-1.76 4.64-0.96 13.52-3.2 19.84-4.96 6.32-1.84 15.92-4.88 21.28-6.96 5.36-2 14.4-5.68 20-8.24s12.8-6.16 16-8c3.2-1.92 9.2-5.68 13.36-8.48 4.16-2.72 11.52-8.72 16.24-13.2 4.8-4.48 12.4-12.64 16.96-18.08 4.64-5.52 10.56-13.84 13.28-18.48s6.32-11.36 8-15.04 4.16-9.44 5.44-12.88 3.44-10.24 4.72-15.04c1.36-4.88 2.96-12.8 3.68-17.6 0.64-4.88 1.44-11.68 1.68-15.2 0.32-4.48 0-10.24-1.12-18.88s-2.56-15.2-4.48-21.12c-1.52-4.72-4.96-12.72-7.6-17.84-2.64-5.2-7.2-12.64-10-16.56-2.96-4.16-9.92-11.92-16.56-18.4-6.32-6.16-16.32-15.52-22.32-20.8s-16.24-14.64-22.8-20.8c-6.64-6.16-19.84-18.4-29.52-27.2-9.6-8.8-20.4-18.72-23.92-22-3.6-3.28-12.08-11.04-18.88-17.2s-14.88-13.6-18-16.48c-3.04-2.88-10.32-9.52-16-14.8-5.76-5.2-15.28-13.84-21.12-19.12-5.92-5.28-15.84-14.24-22-19.92-6.24-5.68-14.88-13.76-19.28-18s-16.64-15.44-27.2-24.88-22.24-20.08-26-23.6-12.56-11.6-19.6-18c-6.96-6.4-16-14.64-20-18.4s-14.48-13.28-23.28-21.2c-8.72-7.92-18.64-16.88-21.92-20s-9.2-8.48-13.2-12c-3.92-3.52-10.96-10-15.6-14.4s-17.6-16.32-28.8-26.4c-11.2-10.16-23.28-21.12-26.8-24.4-3.6-3.28-11.68-10.72-18-16.48-6.4-5.84-20.4-18.56-31.04-28.32-10.72-9.84-19.68-18.24-19.84-18.8-0.24-0.56 2.32-6.72 5.68-13.68 3.44-7.04 11.52-24.4 18-38.72s14.4-31.6 17.6-38.4 6.4-14 7.2-16 5.12-11.52 9.6-21.2c4.56-9.68 10.24-22.32 12.8-28 2.48-5.76 7.12-15.84 10.24-22.4 3.12-6.64 8.08-17.6 11.04-24.4s8.72-19.52 12.8-28.16c4.16-8.64 7.52-15.92 7.52-16.16 0-0.16 8-17.6 17.68-38.64 9.76-21.04 19.84-43.12 22.48-49.04s8.16-18 12.24-26.8 12.24-26.48 18.08-39.2c5.76-12.8 11.12-24.48 11.76-26s4.64-10.56 8.96-20 11.12-24.56 15.2-33.6 10.24-22.4 13.68-29.68c3.44-7.36 9.2-19.84 12.72-27.84s8.64-19.12 11.28-24.72c2.72-5.6 7.12-15.2 9.92-21.36 2.72-6.16 6.32-14.64 8-18.8 1.6-4.16 4-11.6 5.28-16.48s2.88-13.2 3.52-18.4 1.2-12.08 1.2-15.2c0-3.2-0.4-9.44-0.88-14-0.4-4.56-1.52-11.2-2.4-14.72-0.96-3.52-2.8-9.44-4.32-13.2-1.44-3.76-4.16-9.84-6-13.6s-5.04-9.28-6.96-12.4c-2-3.04-5.84-8.4-8.48-12-2.72-3.52-9.36-10.8-14.8-16.24-6.08-6-13.36-12.16-18.8-16-4.88-3.36-10.32-7.04-12.16-8-1.76-1.04-6.64-3.68-10.8-5.76-4.16-2.16-12.64-5.52-18.8-7.6-6.16-2-15.2-4.56-20.16-5.68-4.88-1.04-12.56-2.48-16.96-3.12-4.72-0.72-16.16-1.36-27.84-1.52zm559.76 308.88c-5.04-0.16-13.52-0.08-18.8 0.24-5.28 0.4-13.76 1.2-18.8 1.92-5.04 0.64-13.12 2.16-18 3.36-4.8 1.2-13.28 3.6-18.8 5.36s-14.48 5.28-20 7.92c-5.44 2.56-13.52 6.88-18 9.6-4.4 2.72-10 6.48-12.48 8.4-2.56 1.92-8 6.48-12.16 10.16s-10.08 9.6-13.2 13.04c-3.2 3.44-7.84 9.04-10.4 12.48-2.64 3.44-7.04 10.8-9.92 16.4s-6.56 13.76-8.08 18.16c-1.6 4.4-3.6 11.52-4.56 15.84-0.88 4.4-2 13.92-2.4 21.6-0.56 9.2-0.56 17.84 0 26.16 0.48 6.8 2.08 23.52 3.6 37.2 1.6 13.6 3.68 33.04 4.8 43.2 1.04 10.08 2.4 22.72 3.12 28 0.64 5.28 1.6 13.76 2.08 18.8s1.36 14.56 2 21.2c0.64 6.56 2.96 28.72 5.2 49.2s4.4 40.4 4.8 44.4c0.4 3.92 2 18.4 3.6 32 1.52 13.68 3.28 30.4 3.92 37.2 0.72 6.8 2.16 21.04 3.28 31.6s2.88 27.68 4 38 2.32 22.72 2.8 27.6c0.4 4.8 1.52 15.44 2.4 23.6s2.32 21.12 3.2 28.8c0.8 7.68 2.24 20.8 3.2 29.2 0.88 8.32 2.16 20.4 2.88 26.8 0.64 6.4 1.76 16.64 2.32 22.8 0.64 6.16 2.08 19.28 3.2 29.2 1.04 9.92 3.04 28.4 4.4 41.2 1.36 12.72 3.12 29.28 4 36.8 0.88 7.44 2.16 19.2 2.8 26 0.72 6.8 2.08 20.16 3.2 29.6 1.04 9.44 2.48 23.12 3.2 30.4s2 19.92 2.8 28.08c0.88 8.24 1.76 16.32 1.92 18 0.24 1.76 0.8 7.44 1.28 12.72 0.56 5.28 1.44 13.76 2.08 18.8s2.08 13.2 3.2 18.16c1.12 4.88 2.8 11.36 3.84 14.4 1.04 2.96 3.52 9.36 5.6 14.16s5.12 11.12 6.88 14c1.68 2.88 4.96 8 7.28 11.28 2.24 3.28 9.44 11.28 15.84 17.68 9.12 9.04 13.84 13.04 21.6 18.24 5.52 3.68 14.64 8.88 20.4 11.68s13.76 6.16 17.68 7.52c4 1.28 10 3.12 13.36 4s10.72 2.4 16.4 3.44c9.28 1.68 12.48 1.84 33.84 1.76 22.8 0 24.08-0.16 37.6-2.56 7.68-1.36 18.4-3.76 23.84-5.36 5.36-1.52 12.4-3.84 15.6-5.12s8.24-3.52 11.28-4.88 9.12-4.72 13.6-7.44c4.48-2.64 11.52-7.44 15.68-10.56 4.16-3.2 11.92-9.92 17.2-14.96 5.28-5.12 11.68-11.92 14.16-15.12 2.48-3.28 6-8.48 7.92-11.52 1.84-3.12 5.44-9.92 8-15.2 2.48-5.28 5.92-13.92 7.52-19.2 1.52-5.28 3.6-14.24 4.48-19.92 1.36-8.48 1.6-12.8 1.28-24.8-0.16-7.92-0.88-19.36-1.6-25.28s-2.4-21.44-3.76-34.4-2.96-28.8-3.68-35.2c-0.64-6.4-1.76-16.48-2.4-22.4s-2.24-20.88-3.52-33.2c-1.36-12.32-3.36-30.32-4.48-40-1.04-9.68-2.64-24.24-3.52-32.4s-2.08-20-2.72-26.4c-0.72-6.4-1.6-15.36-2.08-20s-1.2-10.72-1.6-13.6-1.84-15.68-3.12-28.4c-1.36-12.8-2.96-28.24-3.68-34.4s-2.16-18.96-3.2-28.4-2.16-19.76-2.4-22.8c-0.32-3.12-1.04-9.76-1.6-14.8-0.64-5.04-1.68-15.52-2.4-23.2-0.64-7.68-1.6-17.04-2-20.8-0.48-3.76-1.76-15.28-2.8-25.6-1.12-10.32-2.72-24.56-3.6-31.6s-2.64-23.04-4-35.6c-1.28-12.56-2.56-24.96-2.8-27.6s-0.96-9.28-1.6-14.8c-0.72-5.52-1.92-16.48-2.8-24.4s-2.08-18.4-2.72-23.2c-0.64-4.88-1.6-14-2.08-20.4s-1.36-16.64-2-22.8-1.76-16.96-2.4-24c-0.72-7.04-1.76-17.12-2.4-22.4s-2.48-21.68-4.08-36.4c-1.52-14.72-3.2-30.08-3.6-34-0.4-4-1.68-14.4-2.8-23.2s-3.28-20.88-4.72-26.8c-1.52-5.92-3.84-13.68-5.2-17.2s-4.32-9.76-6.56-13.92-5.36-9.52-7.04-11.84c-1.6-2.4-5.28-7.2-8.08-10.72-2.72-3.6-9.36-10.4-14.64-15.28-5.36-4.88-13.2-11.12-17.44-14-4.24-2.8-12.16-7.36-17.6-10.16-5.44-2.72-14.16-6.48-19.44-8.24-5.28-1.84-13.04-4.24-17.2-5.36s-12.64-2.72-18.8-3.6c-6.16-0.8-15.36-1.68-20.4-1.92zm1898.4 123.52c-12.96 0.08-28.8 0.48-35.2 0.8-6.4 0.4-17.68 1.44-25.2 2.32-7.44 0.96-18.8 2.56-25.2 3.68s-16.96 3.28-23.6 4.88c-6.56 1.52-16.32 4.08-21.6 5.6-5.28 1.6-12.08 3.68-15.2 4.72-3.04 0.96-7.92 2.72-10.8 3.84-2.88 1.04-7.2 2.88-9.6 3.92-2.4 1.12-7.44 3.36-11.2 4.96-3.76 1.68-11.12 5.12-16.4 7.84-5.28 2.64-13.36 7.12-18 10-4.64 2.8-10.88 6.8-14 8.8-3.04 2-9.76 6.8-14.8 10.64s-13.92 11.28-19.76 16.48c-5.76 5.2-13.84 13.04-18 17.44-4.08 4.4-9.44 10.32-11.92 13.2s-7.52 9.36-11.28 14.4c-3.68 5.04-9.04 12.8-12 17.2-2.88 4.4-7.36 11.76-10 16.4s-7.28 13.28-10.24 19.2-6.64 13.68-8.16 17.2-5.12 12.64-7.84 20.16c-2.8 7.6-6.56 18.64-8.32 24.4-1.76 5.84-4.08 14.08-5.12 18.24-1.12 4.16-2.96 11.92-4.08 17.28-1.12 5.28-2.96 15.36-4.08 22.4-1.12 6.96-2.4 19.36-2.88 27.52-0.56 8.24-0.72 21.52-0.48 30 0.32 8.32 1.04 19.28 1.76 24.16 0.64 4.96 1.92 12.64 2.8 17.04 0.88 4.48 2.48 11.76 3.68 16.24 1.12 4.48 3.12 11.6 4.4 15.76 1.36 4.16 3.68 11.04 5.28 15.2s4.96 11.92 7.44 17.2 7.36 14.64 10.72 20.8c3.44 6.16 8.08 13.68 10.32 16.8 2.32 3.04 7.52 9.84 11.6 15.04 4.16 5.28 11.28 13.6 16 18.64 4.64 5.04 14 14.32 20.88 20.64 6.88 6.24 15.36 13.84 18.88 16.8s9.84 8.24 14 11.6c4.16 3.44 13.2 10.4 20 15.44 6.88 5.12 18 13.12 24.8 17.76s20.32 13.52 30 19.84c9.68 6.24 25.92 16.4 36 22.56 10.16 6.08 24.16 14.4 31.2 18.48 7.04 4 18.4 10.32 25.2 14 6.8 3.6 18.72 10.08 26.4 14.24 7.68 4.24 19.92 10.88 27.2 14.8s20.48 11.12 29.44 15.84c8.96 4.8 19.04 10.4 22.4 12.48 3.36 2 10.64 6.64 16.16 10.32 5.52 3.6 13.04 9.04 16.8 12s10.96 9.6 16.08 14.72c6.08 6.16 11.04 12 14.48 17.28 2.8 4.32 6.08 10.08 7.2 12.8 1.12 2.64 2.72 7.44 3.44 10.56 1.04 4.24 1.28 7.52 0.96 12-0.24 3.36-1.04 8.32-1.76 10.96s-2.88 8.16-4.88 12.16c-2.56 5.36-4.88 8.72-8.16 12-2.64 2.72-7.36 6.24-11.44 8.4-3.76 2.16-9.92 4.88-13.68 6.24-5.36 1.84-9.44 2.56-18 3.28-6.32 0.48-15.84 0.64-22.24 0.32-6.16-0.24-13.52-0.88-16.4-1.28s-10.08-1.84-16-3.2-14.24-3.36-18.4-4.48-14.72-4.16-23.36-6.72c-8.64-2.64-19.76-6.32-24.8-8.24-4.96-1.92-13.92-5.44-19.84-7.92-5.92-2.4-14.72-6.08-19.6-8.16-4.8-2.08-16.16-7.52-25.2-12.16s-19.6-10.24-23.6-12.48c-3.92-2.24-13.84-8.24-22-13.44-8.16-5.12-21.04-13.68-28.72-19.04-7.68-5.44-17.6-12.72-22-16.32-4.48-3.6-12.96-10.72-18.88-15.76-5.92-5.12-13.52-11.28-16.8-13.76-3.28-2.4-10.16-6.96-15.2-10.16s-12.88-7.6-17.44-9.76c-4.48-2.24-11.12-5.12-14.8-6.4-3.6-1.28-10.88-3.6-16.16-5.12-5.28-1.44-13.04-3.36-17.2-4.16-5.84-1.04-11.44-1.44-24-1.36-12.16 0-18.4 0.4-24 1.44-4.16 0.8-11.12 2.32-15.52 3.36-4.32 1.12-10.8 3.12-14.4 4.4-3.52 1.36-9.92 4.24-14.08 6.4s-11.04 6.48-15.2 9.6c-4.16 3.04-11.2 8.88-15.52 12.96-4.4 4-11.6 11.84-16 17.36s-9.44 12.32-11.36 15.2c-1.84 2.88-5.2 8.64-7.36 12.8-2.24 4.16-5.52 11.52-7.36 16.24-1.76 4.72-4.24 12.4-5.6 17.2-1.28 4.72-3.04 13.04-3.92 18.56s-2 14.64-2.48 20.4c-0.48 5.68-0.72 12.88-0.4 16 0.24 3.04 0.8 8.32 1.28 11.6 0.4 3.28 1.52 9.6 2.4 14 0.96 4.4 2.4 10.48 3.28 13.6 0.8 3.04 2.16 7.2 2.8 9.2 0.72 2 3.36 8.16 5.92 13.76s6.72 13.52 9.2 17.52 7.28 10.8 10.72 15.04 11.04 12.4 16.88 18.16c5.92 5.68 14.16 13.44 18.32 17.2 4.16 3.68 10.16 8.96 13.2 11.6 3.12 2.72 9.04 7.76 13.28 11.28 4.16 3.44 13.12 10.64 19.84 15.84 6.72 5.28 12.96 10.16 13.92 10.8s6.08 4.24 11.36 7.92c5.28 3.76 14.32 9.76 20 13.44 5.76 3.6 14.88 9.2 20.4 12.48 5.52 3.2 12.88 7.52 16.4 9.52s13.04 7.12 21.12 11.44 21.84 11.2 30.56 15.28c8.64 4.08 21.28 9.76 28.08 12.56 6.72 2.88 15.52 6.48 19.52 8.08s12.08 4.64 17.92 6.88 13.76 5.04 17.52 6.32 11.92 3.76 18.08 5.68c6.16 1.84 13.92 4.16 17.2 5.2s10.72 3.12 16.4 4.72c5.76 1.52 14.72 3.92 20.08 5.2 5.28 1.36 14.64 3.52 20.8 4.8 6.08 1.28 16.32 3.28 22.72 4.4s19.92 3.36 30 4.88c10.16 1.52 25.44 3.52 34 4.4s27.28 2.08 41.52 2.56c19.52 0.64 31.6 0.64 49.2 0 12.8-0.56 28.16-1.52 34.08-2.16s15.68-1.92 21.6-2.8 17.28-2.88 25.2-4.4c7.92-1.6 20.88-4.48 28.8-6.48 7.92-2.08 19.12-5.2 24.8-7.12 5.76-1.92 12.96-4.4 16-5.6 3.12-1.12 8.88-3.36 12.8-4.96 4-1.6 12.08-5.12 18-7.84 6-2.72 16.8-8.24 24-12.32s17.28-10.24 22.48-13.76c5.2-3.44 13.84-9.6 19.28-13.68 5.44-4 14.16-11.2 19.44-15.92s14.24-13.52 19.92-19.52c5.6-5.92 13.44-14.88 17.36-19.84 4-4.96 9.84-12.96 13.04-17.76 3.2-4.88 8.56-13.28 11.84-18.8s7.76-13.44 9.92-17.6 5.76-11.6 8.08-16.4c2.24-4.88 5.52-12.24 7.28-16.4s4.8-12.48 6.8-18.4 5.28-16.72 7.28-24c2.08-7.28 4.24-15.04 4.88-17.28s2.48-10.48 4-18.4c1.6-7.84 3.6-19.52 4.48-25.92 0.8-6.4 1.92-18.24 2.4-26.4 0.56-10.48 0.56-19.28-0.08-30-0.48-8.4-1.6-20-2.48-25.84-0.8-5.84-2.4-14.72-3.52-19.6-1.12-4.96-3.12-12.72-4.48-17.36s-3.52-11.44-4.88-15.2-3.68-10.24-5.28-14.4c-1.52-4.16-5.04-12.16-7.84-17.76s-7.92-14.96-11.44-20.8c-3.44-5.84-8-12.96-10.08-15.84-2.16-2.88-6.56-8.64-9.84-12.8-3.36-4.16-14.32-15.92-24.48-26-10.16-10.16-22.24-21.36-26.88-24.96s-11.6-9.12-15.6-12.24c-3.92-3.12-13.92-10.16-22.16-15.6-8.24-5.52-20.72-13.28-27.6-17.28-6.96-4.08-21.6-12.48-32.64-18.72-10.96-6.24-25.6-14.56-32.4-18.4s-18.72-10.64-26.4-15.04-20.64-11.76-28.8-16.32c-8.16-4.64-17.28-9.92-20.4-11.76-3.04-1.92-8.08-4.8-11.2-6.48-3.04-1.68-10.64-6-16.8-9.6s-16.96-9.68-24-13.6-18.4-10.32-25.2-14.24c-6.8-4-17.28-10.32-23.2-14.08s-13.84-8.96-17.44-11.52c-3.68-2.64-10.4-7.68-14.8-11.2-4.48-3.6-11.68-9.84-15.92-14s-9.6-10.16-11.84-13.44-5.12-8.24-6.4-11.04-2.96-7.52-3.68-10.4c-1.28-4.96-1.28-5.76 0.08-12.32 0.72-3.84 2.48-9.28 3.84-12.16 1.44-2.8 4.64-7.36 7.2-10.08 3.52-3.76 6.32-5.84 12-8.64 4-2 10.24-4.4 13.76-5.28 3.52-0.8 11.28-1.92 17.2-2.48 6.48-0.56 15.76-0.72 23.2-0.48 6.8 0.32 16.08 1.04 20.56 1.76 4.48 0.64 11.2 1.92 14.8 2.8 3.68 0.96 15.12 4.56 25.44 8s22.24 7.6 26.4 9.2 13.52 5.76 20.8 9.12 17.12 8.24 21.92 10.8c4.8 2.64 16.88 10.08 26.72 16.64s20.32 13.76 23.28 16.08c2.88 2.24 7.6 5.92 10.48 8.08 2.88 2.24 10.96 8.56 18 14.08 7.04 5.44 17.28 13.6 22.8 18 5.52 4.48 12.88 10.08 16.4 12.48s8.96 5.84 12 7.68c3.12 1.76 9.28 5.12 13.84 7.36 4.48 2.24 10.96 5.2 14.4 6.56 3.36 1.36 9.68 3.52 14 4.8 4.32 1.2 10.64 2.8 14 3.44 3.36 0.72 10.24 1.84 15.28 2.48s14.4 1.2 20.8 1.2 14.88-0.4 18.88-0.8c3.92-0.48 10.8-1.6 15.2-2.48 4.4-0.96 11.44-2.8 15.6-4.08 4.16-1.36 10.32-3.76 13.68-5.44s7.84-4 10-5.28c2.16-1.2 7.12-4.4 11.12-7.04 3.92-2.64 9.76-6.88 12.96-9.44 3.12-2.56 9.04-8.16 13.04-12.48 4-4.24 10.32-11.76 13.92-16.56 3.6-4.88 8.24-11.44 10.32-14.64 2-3.28 5.28-9.76 7.36-14.56 2-4.8 4.72-12.4 6-16.96 1.28-4.48 3.12-12.56 4-17.84s1.92-13.92 2.24-19.28c0.4-5.36 0.4-14.16 0.08-19.6s-1.36-14.24-2.32-19.44c-0.96-5.28-2.96-13.76-4.4-18.8-1.52-5.12-4-12.24-5.52-15.84-1.52-3.68-4-8.88-5.6-11.68-1.52-2.88-5.44-9.04-8.56-13.76-3.12-4.8-8.16-11.6-11.12-15.12-2.96-3.6-10.08-10.96-15.68-16.48-5.68-5.52-14.24-13.52-19.12-17.76-4.8-4.24-12.72-10.8-17.6-14.64-4.8-3.76-11.28-8.8-14.4-11.12-3.04-2.4-10.96-8.16-17.6-12.88-6.56-4.72-20.24-14.08-30.4-20.8-10.08-6.72-20.16-13.28-22.4-14.56-2.16-1.36-9.6-5.84-16.4-10s-18.16-10.56-25.2-14.24-16.16-8.4-20.24-10.48c-4.08-2.16-12.56-6.16-18.8-9.04-6.24-2.8-14.96-6.64-19.36-8.48s-10.88-4.48-14.4-5.76c-3.52-1.36-11.6-4.16-18-6.4-6.4-2.16-17.92-5.84-25.6-8.16s-21.52-6.16-30.8-8.48c-9.2-2.32-20.72-5.04-25.6-6.08-4.8-1.12-13.84-2.88-20-3.92-6.16-1.12-14.64-2.72-18.8-3.6s-16.4-2.8-27.2-4.32-24.64-3.28-30.8-4-17.84-1.6-26-2.08c-8.16-0.4-25.44-0.72-38.4-0.72z"/>
 </g>
 <path d="m256.11 88.913c-0.32264 0-0.6453 0-0.96764 0.01315-2.8604 0.09492-5.7094 0.55384-8.3881 1.3924-6.9784 2.5816-12.937 5.4422-19.17 16.592l12.669 33.158 7.542-19.955c1.2919-3.7635 4.2757-5.5071 7.2917-5.3664 3.001 0.14034 6.0358 2.1474 7.4587 5.8936l23.838 63.472s4.1616 10.086 6.216 12.166c4.9319 5.706 11.92 8.0297 17.614 7.7678 3.3728 0 4.6779-0.25404 7.7641-1.2897 6.4876-2.8532 13.734-9.0657 14.519-20.481v-69.144c-0.24089-9.8544-2.0791-15.558-8.5266-20.232-4.1616-2.7598-9.3633-4.2471-14.524-3.9304a20.866 20.866 0 0 0-7.5251 1.8667 24.645 24.645 0 0 0-6.7094 4.8085 26.735 26.735 0 0 0-4.3361 5.7097h-2e-3a25.779 25.779 0 0 0-2.2952 5.4024 25.925 25.925 0 0 0-0.37935 1.4416l11.92 33.677v2e-3l9.2054-25.858 0.38342-1.0717v63.723l-25.134-69.956c-4.124-10.103-10.353-14.244-12.698-15.813-4.1106-2.4299-9.2192-3.792-14.405-3.974-0.13251-0.0038-0.2672 0.0019-0.39626 0-0.32265-0.0057-0.645-0.01128-0.96734-0.01315zm-55.479 0.11935c-3.3481 0-4.6663 0.25624-7.4928 1.2862-6.4951 2.8525-13.999 9.0782-14.764 20.727v68.914c0.2409 10.099 2.0468 15.541 8.5362 20.456 4.5826 2.7526 10.059 4.1977 15.442 3.6231a20.995 20.995 0 0 0 4.1447-0.85925c0.095-0.0281 0.18607-0.0627 0.27693-0.093 0.18013-0.0589 0.36024-0.11748 0.5388-0.18201 0.16697-0.0608 0.33205-0.12718 0.49683-0.19172l0.31513-0.12124a19.705 19.705 0 0 0 0.80038-0.35084 25.737 25.737 0 0 0 6.7776-4.7991 26.714 26.714 0 0 0 1.929-2.1038 25.031 25.031 0 0 0 3.1301-4.7991 22.598 22.598 0 0 0 1.1189-2.6408v-9.6e-4a21.036 21.036 0 0 0 0.7703-2.7658l-11.903-33.685-8.7142 25.233-0.59771 1.7298v-63.99l24.863 70.197c4.1353 10.11 10.338 14.005 12.671 15.541 4.7537 2.9932 10.807 4.2716 16.795 4.0025a34.415 34.415 0 0 0 6.3184-0.84987 29.705 29.705 0 0 0 2.0299-0.55384 94.639 94.639 0 0 0 2.5759-0.9902c0.8439-0.34147 1.6747-0.69826 2.4923-1.0889a29.342 29.342 0 0 0 1.2198-0.6146 27.263 27.263 0 0 0 2.3977-1.4247 25.443 25.443 0 0 0 3.5207-2.83 31.098 31.098 0 0 0 1.6822-1.7549l0.0574-0.0626a34.277 34.277 0 0 0 1.155-1.3884c0.18985-0.24466 0.38313-0.49307 0.57483-0.7512a41.792 41.792 0 0 0 2.3144-3.4352 57.655 57.655 0 0 0 1.1628-1.9954l-12.685-33.414-7.2651 19.969c-0.0533 0.1441-0.1137 0.27693-0.17072 0.41351-0.0439 0.0987-0.0833 0.20298-0.12719 0.29759a9.7558 9.7558 0 0 1-0.33549 0.66034c-1.4172 2.5361-3.6764 3.8318-6.0321 3.9684a7.4549 7.4549 0 0 1-0.58829 9e-3h-2e-3a7.2309 7.2309 0 0 1-0.59173-0.0376c-2.8644-0.30386-5.685-2.2711-7.1683-5.8391l-23.838-63.205s-4.1256-10.12-6.2163-12.178c-4.6663-5.9563-11.92-8.0297-17.614-8.0297z" fill="#f9f9f9" stroke-width=".31326"/>
</svg>
