<svg xmlns="http://www.w3.org/2000/svg" height="512" width="512"><g fill="#fff" stroke-width=".207"><ellipse cx="89.459" cy="144.33" rx="69.029" ry="69.751"/><ellipse cx="256.19" cy="144.94" rx="69.029" ry="69.751"/><ellipse cx="421.9" cy="144.47" rx="69.029" ry="69.751"/></g><path fill="#ef4a4a" d="M422.396 10s-12.033 8.973-12.033 24.066c0 15.088 12.033 24.09 12.033 24.09s12.045-9.008 12.045-24.09C434.44 18.973 422.396 10 422.396 10zM121.338 23.771c-4.677-.11-15.036.676-23.039 8.684-10.67 10.665-8.516 25.533-8.516 25.533s14.868 2.148 25.533-8.517c10.67-10.676 8.51-25.532 8.51-25.532s-.93-.133-2.488-.174zm100.41 4.556a11.779 11.779 0 00-1.305 23.489l6.912 21.092a75.64 75.64 0 015.405-1.917c-31.18 9.856-53.797 39.004-53.797 73.446 0 42.549 34.488 77.026 77.037 77.026 42.543 0 77.037-34.477 77.037-77.026 0-34.442-22.617-63.59-53.796-73.446 1.824.578 3.626 1.195 5.392 1.906l6.93-21.076a11.779 11.779 0 10-9.297-3.06l-6.929 21.087c.965.248 1.906.554 2.847.837A76.945 76.945 0 00256 67.4a76.985 76.985 0 00-22.195 3.285c.952-.289 1.893-.583 2.852-.837l-6.923-21.087a11.721 11.721 0 003.8-8.65 11.79 11.79 0 00-11.78-11.784zm156.748 2.321a18.258 18.258 0 00-1.986.139s-1.732 11.883 6.802 20.422c8.534 8.534 20.434 6.814 20.434 6.814s1.715-11.906-6.813-20.44c-6.41-6.398-14.695-7.022-18.437-6.93zm87.806 0c-3.742-.087-12.033.537-18.436 6.935-8.535 8.534-6.814 20.44-6.814 20.44s11.9 1.72 20.434-6.814c8.546-8.545 6.814-20.422 6.814-20.422s-.75-.11-1.998-.139zM89.604 67.4c-42.55 0-77.037 34.482-77.037 77.025 0 42.55 34.488 77.038 77.037 77.038 42.537 0 77.037-34.489 77.037-77.038 0-42.543-34.5-77.025-77.037-77.025zm332.792 0c-42.543 0-77.031 34.482-77.031 77.025 0 42.55 34.488 77.038 77.031 77.038 42.555 0 77.037-34.489 77.037-77.038 0-42.543-34.488-77.025-77.037-77.025zM256 78.295c21.635 0 40.846 10.394 52.913 26.457H203.087A66.038 66.038 0 01256 78.295zm-166.396.653v130.967c-36.163 0-65.478-29.315-65.478-65.478s29.315-65.49 65.478-65.49zm332.792 0c16.035 0 30.707 5.774 42.093 15.33l-42.093 115.637L380.31 94.278a65.212 65.212 0 0142.093-15.33zM66.098 118.88a7.408 7.408 0 00-5.232 12.645c4.66 4.66 14.4 3.938 14.4 3.938s.734-9.752-3.931-14.418a7.368 7.368 0 00-5.237-2.165zm125.088 12.328h129.628a66.176 66.176 0 010 26.456H191.18a66.326 66.326 0 01-1.317-13.182v-.092c0-4.516.456-8.921 1.317-13.182zm-117.519 22.16c-2.956.012-9.307.462-12.8 3.961a7.42 7.42 0 000 10.486 7.39 7.39 0 0010.468 0c4.665-4.665 3.932-14.412 3.932-14.412s-.612-.04-1.6-.035zm129.42 30.741h105.826A66.05 66.05 0 01256 210.567c-21.635 0-40.846-10.393-52.913-26.457zm229.506 63.18c-27.097 0-54.934 14.753-54.934 47.7 0 15.012 7.564 37.594 52.451 45.499 12.368 2.165 25.862 5.63 25.862 15.416 0 9.85-11.294 12.923-22.565 12.923-12.714 0-25.625-6.889-32.277-11.063-9.873-6.202-19.308-5.509-25.07.617-5.965 6.34-6.485 14.291-.497 22.42.67.913 16.866 22.306 57.076 22.306 21 0 37.774-5.976 48.525-17.253 8.5-8.91 12.663-20.561 12.033-33.709-.52-10.866-5.029-25.885-23.558-35.695-10.318-5.456-22.443-8.008-32.103-9.943-17.403-3.487-23.374-6.98-22.646-14.406.652-6.72 8.303-10.33 17.928-10.33 14.412 0 20.18 4.672 28.905 8.257 7.108 2.916 18.824 4.539 24.251-5.56 5.214-9.712.272-17.9-6.091-23.218-7.385-6.178-24.303-13.961-47.29-13.961zm-389.124.675a19.343 19.343 0 00-19.343 19.35v115.607a19.352 19.352 0 1038.704 0v-42.347l54.76 55.893a19.291 19.291 0 0013.83 5.803 19.36 19.36 0 0013.828-32.912l-46.446-44.247 46.44-43.034a19.36 19.36 0 00-27.657-27.086L62.83 309.91v-42.595a19.36 19.36 0 00-19.36-19.349zm143.704 0a19.349 19.349 0 00-19.348 19.35V382.91a19.352 19.352 0 1038.703 0V267.314c0-10.682-8.661-19.349-19.355-19.349zm58.994 1.213a19.36 19.36 0 00-19.355 19.355v113.16a19.36 19.36 0 0019.355 19.354h41.21c44.142 0 76.188-31.936 76.188-75.929 0-44.004-32.046-75.934-76.189-75.934h-41.21zm19.354 38.71h21.855c22.773 0 37.485 14.607 37.485 37.224 0 22.611-14.712 37.226-37.485 37.226h-21.855zm7.87 141.059c-21.704 0-36.838 16.45-36.838 36.526v.203c0 20.284 15.446 36.324 36.238 36.324 13.62 0 21.687-4.833 28.95-12.61l-9.878-10.001c-5.55 5.046-10.498 8.28-18.576 8.28-12.102 0-20.48-10.093-20.48-22.196v-.202c0-12.108 8.574-21.999 20.48-21.999 7.068 0 12.623 3.02 18.079 7.968l9.88-11.403c-6.56-6.45-14.54-10.89-27.855-10.89zm93.453.086a21.335 21.335 0 00-3.135.058c-1.386.127-2.76.393-4.07.803-4.418 1.64-8.183 3.441-12.132 10.497l8.014 20.977 4.764-12.622c1.634-4.752 7.54-4.411 9.337.34l15.087 40.16s2.639 6.368 3.938 7.69c3.118 3.609 7.53 5.087 11.144 4.92 2.13 0 2.956-.174 4.902-.815 4.111-1.807 8.684-5.733 9.18-12.956v-43.762c-.155-6.236-1.298-9.85-5.38-12.79-3.939-2.62-9.355-3.447-13.962-1.322a16.514 16.514 0 00-8.673 11l7.535 21.306 6.063-17.045v40.314l-15.896-44.252c-2.616-6.397-6.553-9.007-8.026-10a19.343 19.343 0 00-8.69-2.506zm-36.388.047c-2.13 0-2.945.161-4.734.808-4.106 1.807-8.864 5.751-9.343 13.119v43.6c.156 6.397 1.294 9.833 5.405 12.945 4.1 2.465 9.319 3.285 13.927 1.155 4.088-1.975 7.69-6.063 8.684-10.82l-7.547-21.313-5.89 17.05v-40.487l15.735 44.414c2.621 6.392 6.542 8.858 8.02 9.845 4.429 2.783 10.665 3.268 15.913 1.646 4.412-1.646 8.182-3.28 12.108-10.336l-8.026-21.15-4.59 12.627c-1.807 4.747-7.535 4.423-9.51-.323l-15.076-39.99s-2.598-6.398-3.926-7.703c-2.95-3.77-7.558-5.082-11.15-5.082zm-219.125.566L81.07 500.793h15.844l6.467-15.844h29.857l6.461 15.844h16.237l-30.268-71.147h-14.342zm55.512.52v70.627h33.593c15.943 0 26.434-6.455 26.434-19.372v-.208c0-9.492-5.047-14.221-13.217-17.35 5.04-2.83 9.285-7.264 9.285-15.244v-.196c0-4.85-1.605-8.788-4.839-12.022-4.042-4.03-10.399-6.236-18.477-6.236zm15.122 13.609h15.348c6.553 0 10.185 2.621 10.185 7.263v.202c0 5.249-4.342 7.466-11.202 7.466h-14.33zm-63.664 4.544l9.383 22.905h-18.766zm63.664 23.298h17.963c7.968 0 11.502 2.933 11.502 7.68v.202c0 5.254-4.134 7.673-10.994 7.673H181.96v-15.555z" clip-rule="evenodd" fill-rule="evenodd"/></svg>