<svg viewBox="0 0 512 512" xmlns="http://www.w3.org/2000/svg"><g><path fill="#fff" d="M224.298 115.442a28.274 28.274 0 00-2.242.08 56.55 56.55 0 00-1.956.087c-2.64.79-5.45.763-8.095 1.522-3.586.449-7.098 1.345-10.684 1.8-6.605 1.217-13.223 2.37-19.837 3.534-2.649.443-5.292.914-7.94 1.377-6.99 1.239-13.985 2.428-20.963 3.73-3.518.471-6.976 1.273-10.488 1.777-4.66.886-9.35 1.64-14.01 2.502-4.547.791-9.09 1.598-13.636 2.39-2.69.635-5.495.763-8.173 1.475-6.237.968-12.431 2.19-18.652 3.254-7.477 1.35-14.984 2.541-22.451 3.945-8.86 1.494-17.683 3.196-26.552 4.635-4.15.822-8.406 1.537-12.17 3.592-8.324 4.311-14.668 12.37-16.544 21.593-1.015 3.865-.416 7.897-.665 11.837-.177 30.88-.023 61.76-.1 92.637-.005 19.657-.036 39.314.227 58.968.294 2.737 1.132 5.402 2.021 7.996 3.653 9.079 11.616 16.437 21.138 18.902 6.257 1.525 12.662 2.293 18.971 3.541 6.51 1.056 12.986 2.307 19.49 3.403 3.462.7 6.977 1.168 10.438 1.853 3.623.463 7.168 1.4 10.797 1.846 6.09 1.147 12.202 2.206 18.312 3.247 9.155 1.577 18.289 3.261 27.444 4.833 2.946.526 5.916.988 8.848 1.553 2.674.42 5.325.99 7.992 1.411 4.23.78 8.477 1.469 12.71 2.235 5.8.982 11.592 2.026 17.382 3.049 3.498.688 7.023 1.22 10.532 1.859 3.615.644 7.234 1.27 10.856 1.884 3.497.645 7.013 1.212 10.51 1.867 2.634.272 5.205 1.096 7.88.84 4.482-.08 8.915-1.266 13.034-2.985 9.134-4.113 16.068-12.772 17.955-22.626.832-3.742.419-7.599.587-11.399.072-16.379.004-32.757.051-49.136.007-55.157.131-110.315-.134-165.476-.137-3.797-1.31-7.484-2.784-10.954-3.445-7.304-9.737-13.31-17.28-16.238-3.787-1.375-7.787-2.23-11.82-2.246zm-.946 12.884a69.839 69.839 0 015.12.168v.001c2.805 1.252 5.882 2.125 8.124 4.348 4.18 3.582 7.156 8.93 6.912 14.542.24 36.603.106 73.211.131 109.819-.049 36.031.125 72.065-.13 108.098-.073 7.121-4.985 13.566-11.263 16.592-3.994 1.992-8.661 2.323-12.969 1.273-7.424-1.232-14.824-2.592-22.236-3.888-5.643-1.023-11.301-2-16.95-2.99-2.14-.493-4.363-.606-6.51-1.126-5.192-.922-10.395-1.796-15.576-2.77-4.85-.71-9.635-1.805-14.485-2.525-6.021-1.072-12.059-2.046-18.067-3.187-4.078-.655-8.124-1.46-12.2-2.134-4.994-.922-10.011-1.741-15.01-2.638a300.713 300.713 0 01-9.653-1.732c-7.169-1.146-14.294-2.55-21.454-3.746-6.893-1.165-13.776-2.405-20.655-3.647-3.724-.592-7.461-1.246-11.122-2.106-3.133-1.343-6.254-2.958-8.472-5.627-2.187-2.547-3.9-5.614-4.617-8.905-.623-4.405-.248-8.874-.385-13.305-.027-48.257-.176-96.517.094-144.77.447-7.129 5.492-13.544 12.01-16.26 3.43-1.548 7.249-1.606 10.867-2.45 2.672-.381 5.293-.984 7.976-1.312 2.555-.668 5.215-.834 7.793-1.446 9.19-1.58 18.369-3.249 27.562-4.81 2.07-.53 4.23-.569 6.3-1.148 6.717-1.163 13.433-2.362 20.154-3.51 5.072-.946 10.185-1.699 15.234-2.733 4.402-.708 8.786-1.53 13.183-2.282 5.517-.981 11.054-1.875 16.562-2.92 4.268-.696 8.509-1.558 12.783-2.224 3.716-.73 7.471-1.258 11.191-1.981 6.461-1.099 12.913-2.265 19.362-3.433 2.385-.461 4.811-.718 7.194-1.235 3.842-.574 7.648-1.446 11.494-1.95.57-.026 1.138-.04 1.708-.044zM478.48 205.703c-2.938 1.88-4.958 4.813-7.376 7.266-5.092 5.682-10.433 11.135-15.481 16.857-2.454 2.63-5.035 5.168-7.32 7.94-.88 1.929.928 3.662 2.248 4.837 2.05 2.135 3.973 4.41 5.96 6.613 2.057.934 3.49-1.258 4.572-2.656 5.74-6.287 11.72-12.361 17.405-18.702 1.63-1.713 3.304-3.855 5.806-4.172 2.202.99.542 4.259 1.026 6.207.004 28.905-.03 57.81.041 86.714.533 2.209 2.51 1.62 4.866 1.491 4.036-.289 5.042-.349 8.428-.732 1.91.106 4.145-.937 3.991-3.575.144-13.473.065-26.948.107-40.422.01-20.19-.005-40.383-.054-60.574-.197-1.988.933-5.945-2.373-5.6-7.558-.898-14.694-.686-21.722-1.51l-.113.014-.01.002M335.919 197.558c-3.173.063-6.386.061-9.482.824-3.209.308-6.346 1.164-9.433 2.056-7.816 2.641-14.539 8.852-17.078 16.791-1.166 3.65-2.217 7.4-2.36 11.252-.056 2.15-1.8 6.382 1.435 6.666 2.44.183 4.894.06 7.34.19 4.325.097 8.65.234 12.976.213 2.636-1.176 1.37-4.628 2.728-6.68 1.815-4.116 5.448-7.23 9.65-8.737 3.254-1.39 6.784-2.027 10.311-2.044 19.878 1.106 40.634-2.283 58.448 3.01 4.435 1.488 8.967 3.904 11.177 8.237 1.583 2.615.991 5.772 1.016 8.667.126 2.082-1.198 3.796-2.205 5.5-2.445 3.925-7.038 5.508-11.178 6.962-3.281 1.003-6.745.98-10.11 1.509-5.536.57-11.08-.127-16.592-.59-4.202-.112-8.406-.312-12.576-.846-1.935.236-6.035-1.295-6.277 1.44-.249 2.734.086 5.48-.087 8.219-.003 3.057 0 6.115 0 9.173 1.969 2.044 4.873.017 7.275.297 3.74-.188 7.542.117 11.21-.78 6.846-.417 13.713-.203 20.562-.187 2.143.35 4.27.85 6.406 1.268 3.259.955 6.454 2.429 9.018 4.692a15.433 15.433 0 014.492 7.846c.266 3.053.064 6.142.012 9.208-1.167 2.133-1.864 4.85-3.795 6.576-1.992 2.247-4.64 3.83-7.46 4.788-5.413 2.911-11.851 1.542-17.06 2.762-16.212.599-32.229 1.642-47.839 1.096-2.68-1.013-5.658-1.278-8.068-2.953-3.974-2.36-6.448-6.792-6.93-11.321.638-2.82-3.042-2.691-4.872-2.283-5.837.07-11.673.322-17.51.39-2.657-.047-2.133 3.105-1.704 4.813.412 3.052.508 6.166 1.49 9.113 1.367 5.538 4.025 10.912 8.437 14.648 4.897 4.381 11.465 6.107 17.806 7.079 4.722.611 9.471 1.155 14.244 1.005 14.198-.224 29.554-1.567 42.391-2.344 7.272-.492 14.554-1.075 21.726-2.416 4.77-.781 9.498-2.037 13.932-3.976 5.481-2.728 9.932-7.492 12.06-13.255 1.023-2.515 1.637-5.166 2.253-7.779-.169-2.565.99-4.944.86-7.494-.04-3.165-.005-6.332-.017-9.498-1.318-2.204-.199-5.004-1.51-7.21-.695-5.144-4.477-9.395-9.058-11.586-1.271-1.214-4.052-.81-4.58-2.464 1.731-1.348 4.245-1.233 6.094-2.496 3.68-1.814 6.455-5.224 7.479-9.194.79-2.328.72-4.816 1.38-7.165.371-2.868.124-5.773.195-8.66-.066-1.08.224-2.224-.376-3.196-.687-2.14-.194-4.557-1.325-6.574-1.984-8.218-8.707-14.712-16.557-17.483-6.18-2.227-12.724-3.182-19.191-4.144-20.183-1.768-39.627-2.903-58.362-2.955l-.407.009-.407.01"/><path fill="#fff" d="M159.323 181.45c-11.136.676-22.188 2.26-33.271 3.476-2.738.532-5.57.326-8.272 1.075-2.461.285-4.97.2-7.377.864-2.299.142-4.6.254-6.845.824-2.044.212-4.075.397-6.06.983-2.243.111-4.448.482-6.64 1.015-3.325.735-6.671 1.385-9.877 2.556-4.393 1.327-8.792 2.81-12.684 5.297-7.412 4.33-12.739 11.733-15.24 19.878-.84 2.479-1.252 5.09-1.745 7.634-.81 2.426-.318 5.121-1.251 7.503-.198 3.463.016 6.982-.788 10.385-.27 9.778-.302 19.574.02 29.347.438 2.78.876 5.584.648 8.407.456 2.75.924 5.484 1.327 8.236.703 4.588 2.113 9.043 3.678 13.402 2.682 6.73 8.174 11.982 14.451 15.412 3.778 2.188 7.987 3.432 12.07 4.905 4.762 1.33 9.585 2.46 14.444 3.36 2.418-.04 4.572 1.18 7.043.867 1.865.155 3.627.984 5.538.866 1.741-.053 3.437.315 5.118.68 2.645.265 5.314.391 7.916.946 3.264.187 6.454.9 9.712 1.102 5.952.846 11.93 1.483 17.9 2.191 7.355.838 14.757 1.144 22.151 1.302 5.184-.082 10.377-.474 15.502-1.25 3.98-.73 7.85-2.016 11.562-3.603 7.583-3.76 13.453-10.75 16.094-18.762.785-2.684 1.747-5.332 2.073-8.124.807-2.438.856-4.974.885-7.509-.093-2.256 1.617-6.255-2.026-6.35-1.922.084-3.81-.067-5.713-.317-6.493-.454-13.028-.2-19.5-.967-2.035-.496-4.906-.075-4.564 2.63-.346 3.06-.653 6.25-2.383 8.896-2.397 4.261-6.632 7.265-11.287 8.606-2.933.92-6.041 1.032-9.07 1.412-4.587.198-9.173-.036-13.74-.444-3.753-.142-7.51-.174-11.238-.693-5.151-.477-10.314-.812-15.465-1.305-9.064-.87-18.187-1.205-27.196-2.586-6.08-.992-12.397-2.301-17.418-6.088-5.112-3.923-7.72-10.306-8.158-16.604-.742-9.496-.801-19.034-.696-28.555.194-7.714.446-15.5 2.153-23.055.883-4.072 2.917-7.957 6.258-10.54 5.253-4.044 11.816-5.94 18.261-7.064 7.77-1.253 15.645-1.614 23.478-2.286 2.889-.092 5.753-.424 8.62-.773 2.723-.139 5.463-.051 8.162-.532 4.115-.643 8.34-.104 12.424-1.029 4.776-.353 9.566.002 14.306.557 5.268.378 10.49 2 15.008 4.738 3.962 2.52 6.995 6.754 7.559 11.468-.226 1.678-.18 4.273 2.293 3.73 5.476-.67 11.018-.247 16.517-.59 3.126-.145 6.219-.72 9.36-.587 1.625.09 3.872.196 4.053-1.979.297-1.898-.29-3.812-.118-5.71-.617-4.546-1.424-9.079-2.979-13.41-3.464-10.483-12.602-18.96-23.415-21.359-4.609-1.487-9.47-2.012-14.275-2.409-5.76-.306-11.528-.058-17.291-.068"/></g></svg>
