<svg xmlns="http://www.w3.org/2000/svg" height="512" width="512">
    <path fill="#9cc73b" d="M417.589 184.515c-.46 0-1.794.322-2.943.69-1.196.368-3.173 1.334-4.37 2.161-1.24.874-2.85 2.576-3.632 3.771-1.196 1.932-1.38 2.668-1.38 5.473 0 2.667.23 3.725 1.288 5.84.736 1.38 4.599 6.944 8.6 12.325 5.886 7.956 7.496 10.393 8.415 13.06a187.22 187.22 0 0 1 2.162 6.669c.69 2.3.965 4.093.827 5.61-.137 1.242-.505 2.575-.827 2.99-.322.367-1.288.69-2.162.69-.828 0-2.253-.323-3.173-.69-.874-.369-4.139-3.22-7.266-6.3-4.23-4.232-6.53-7.037-9.197-11.038-1.932-2.99-4.185-5.932-5.013-6.53-.828-.644-2.53-1.61-3.817-2.162-1.472-.69-3.127-1.011-4.829-1.011-1.61.046-3.449.414-4.829 1.011-1.241.552-2.943 1.656-3.817 2.484-.827.827-2.023 2.483-2.62 3.77-.737 1.564-1.105 3.128-1.105 4.83 0 1.7.368 3.31 1.104 4.874.598 1.334 1.84 3.22 2.76 4.23.92 1.013 3.219 2.898 5.104 4.186 1.886 1.333 4.323 2.76 5.38 3.265 1.104.46 2.898.966 4.048 1.15 1.15.184 2.575.643 3.219 1.057.644.368 2.575 2.07 4.277 3.725 1.747 1.656 3.863 4.001 4.736 5.151.874 1.196 1.84 2.99 2.208 3.955.598 1.655.552 2.023-.184 3.633-.414.966-2.622 3.725-4.829 6.07-2.207 2.346-5.335 5.197-6.944 6.347-1.61 1.15-3.863 3.127-5.013 4.414-1.287 1.472-2.3 3.174-2.759 4.645-.368 1.288-.69 2.851-.69 3.541s.322 2.254.69 3.541c.368 1.242 1.288 3.127 2.07 4.185.735 1.058 2.16 2.3 3.173 2.805 1.011.506 2.62 1.058 3.633 1.242 1.057.138 2.943.046 4.276-.276a9.44 9.44 0 0 0 4.185-2.207c1.012-.92 2.3-2.576 2.852-3.725.597-1.15 1.517-3.45 2.023-5.105.506-1.655 1.61-5.472 2.391-8.508.828-3.035 1.932-6.346 2.53-7.358.598-1.011 1.885-2.299 2.897-2.897 1.012-.552 3.403-1.242 5.426-1.517 2.024-.276 6.07-.92 9.106-1.38 2.99-.46 7.45-1.564 9.887-2.437 2.438-.828 5.933-2.116 7.818-2.806 2.898-1.057 4.001-1.195 7.128-1.057 3.495.138 4.14.322 10.302 3.265 3.633 1.747 9.105 3.955 12.186 5.012 3.036 1.012 6.76 1.978 8.186 2.07 2.116.23 3.035.046 5.105-.874 1.38-.644 2.989-1.793 3.495-2.575.552-.736 1.334-2.668 1.747-4.277.506-1.978.69-3.955.506-6.162-.138-1.748-.46-4.001-.782-4.967-.275-.966-1.15-2.437-1.885-3.311-.782-.828-2.115-1.794-3.035-2.116-.874-.276-2.897-.506-4.461-.506-1.518.046-4.369.368-6.254.782-1.886.368-5.427 1.012-7.91 1.38-2.484.368-5.887.69-7.634.69-1.702 0-3.817-.184-4.645-.46-.874-.23-2.161-1.012-2.897-1.702-.736-.69-1.518-2.023-1.794-3.035-.322-1.242-.322-2.483.046-4.139.276-1.333 1.288-3.909 2.208-5.702 1.333-2.622 3.357-5.105 9.29-11.451 4.184-4.461 8.231-9.06 9.059-10.21.828-1.15 1.747-3.219 2.07-4.598.413-1.932.413-3.081 0-5.059-.323-1.425-1.058-3.633-1.702-4.92-.598-1.288-1.794-2.99-2.622-3.818-.781-.873-2.115-1.885-2.85-2.299-.875-.46-2.53-.736-4.186-.736-1.517 0-3.817.368-5.104.782-1.288.46-3.173 1.518-4.14 2.345-1.011.874-2.39 2.622-3.126 3.91-.69 1.287-1.472 3.035-1.702 3.862-.23.828-.736 3.541-1.104 6.07-.322 2.53-1.38 6.76-2.299 9.428-.92 2.668-2.391 6.3-3.22 8.14-.827 1.794-2.16 4.23-2.988 5.427-.828 1.195-2.116 2.529-2.898 3.035-.827.46-2.207.874-3.127.874-1.011 0-2.161-.368-2.897-.966-.69-.506-1.61-1.702-2.07-2.621-.46-.966-1.379-3.358-2.023-5.381-.644-2.024-1.885-7.082-2.805-11.267-.92-4.185-2.162-10.44-2.805-13.888-.644-3.45-1.61-7.496-2.116-8.922-.598-1.61-1.747-3.357-2.897-4.553-1.334-1.287-2.621-2.07-4.047-2.437-1.196-.322-2.53-.552-2.99-.506zm-170.155 3.22c-.23 0-3.955 1.793-8.323 4l-7.91 4.001.092 47.597.138 47.598 8.186.138 8.14.092v-32.422l4.69-4.736c2.575-2.576 4.69-4.645 4.737-4.6.092.093 4.92 9.52 10.807 20.925l10.67 20.833h9.15c5.013 0 9.152-.138 9.152-.276s-6.162-12.187-13.658-26.765c-7.542-14.578-13.75-26.627-13.842-26.857-.092-.184 4.184-4.829 9.519-10.347l9.657-10.026-10.209-.137-10.21-.138-7.127 7.496c-3.91 4.138-8.508 8.921-10.21 10.715l-3.127 3.219v-25.201c0-13.843-.138-25.156-.322-25.11zm-206.162 27.27c-3.22-.092-5.933.092-8.048.552-1.748.368-4.783 1.425-6.668 2.345-2.53 1.196-4.323 2.53-6.715 4.92-2.483 2.484-3.725 4.186-5.15 7.175-1.058 2.161-2.3 5.656-2.805 7.818-.506 2.161-1.15 5.656-1.426 7.818-.23 2.115-.46 6.116-.46 8.875 0 2.714.23 6.944.506 9.382.276 2.391 1.012 6.162 1.61 8.324.643 2.207 1.793 5.242 2.62 6.76.829 1.563 2.852 4.139 4.691 5.978 1.748 1.794 4.277 3.817 5.611 4.507 1.288.69 4 1.702 5.978 2.207 2.392.644 5.197.966 8.416.966 3.403.046 5.657-.184 7.588-.736 1.518-.46 3.863-1.38 5.197-2.115l2.391-1.288v2.346c0 1.333-.322 3.679-.69 5.288-.368 1.564-1.333 4.14-2.115 5.749-.92 1.747-2.621 4-4.507 5.84-1.885 1.84-4.323 3.68-6.484 4.783-1.886.966-3.541 1.885-3.68 1.977-.091.092 1.242 3.081 2.99 6.577 1.747 3.54 3.449 6.438 3.77 6.438.369 0 1.932-.598 3.542-1.334 1.564-.69 4.093-2.07 5.564-3.035 1.472-.92 3.91-2.897 5.427-4.323 1.518-1.426 3.633-3.863 4.737-5.426 1.15-1.518 2.667-4.231 3.449-5.933.782-1.747 1.977-5.15 2.667-7.542l1.196-4.369.138-40.147.138-40.101H54.608v4.645l-1.747-1.426c-.966-.782-2.898-1.84-4.277-2.391-1.794-.69-3.771-1.012-7.312-1.104zm.69 15.636c2.069.092 4.092.506 5.656 1.195 1.564.644 3.22 1.932 4.69 3.541l2.3 2.53v33.387l-2.76 2.53c-1.747 1.609-3.678 2.896-5.288 3.494-1.793.69-3.633.966-6.116.966-2.943 0-4.047-.23-5.979-1.196-1.287-.644-2.989-1.977-3.77-2.897-.736-.966-1.794-2.76-2.3-4-.552-1.243-1.288-3.68-1.701-5.473-.414-2.024-.69-5.703-.69-9.888-.046-4.46.23-7.772.69-10.025.413-1.886 1.241-4.46 1.839-5.749.598-1.333 1.702-3.08 2.391-3.908.736-.874 2.07-2.024 3.036-2.622.92-.598 2.39-1.287 3.219-1.563.873-.276 3.035-.414 4.782-.322zm73.35-15.774c-2.392 0-5.565.322-7.082.69-1.472.368-4.14 1.425-5.887 2.345-1.747.92-4.415 2.851-5.84 4.277-1.472 1.472-3.725 4.323-5.013 6.438-1.287 2.07-2.989 5.565-3.77 7.68-.737 2.162-1.702 5.887-2.116 8.324-.552 3.311-.69 6.346-.506 11.819.184 5.886.46 8.278 1.426 11.91.643 2.53 2.023 6.3 3.08 8.37 1.104 2.3 2.944 5.013 4.6 6.76 1.471 1.656 3.862 3.726 5.242 4.645 1.38.92 3.817 2.208 5.473 2.806 1.61.597 4.598 1.333 6.53 1.563 2.345.276 5.012.276 7.542 0 2.161-.23 4.875-.736 6.07-1.104 1.242-.367 3.311-1.195 4.599-1.84 1.334-.689 3.449-1.977 4.645-2.896 1.241-.966 3.173-2.943 4.323-4.461 1.15-1.518 2.437-3.495 2.943-4.46.46-.92.874-1.886.874-2.116 0-.23-3.128-1.702-6.899-3.265l-6.944-2.852-2.3 2.53c-1.24 1.38-3.264 2.989-4.46 3.587-1.747.873-2.897 1.057-6.3 1.057-3.357 0-4.461-.184-5.979-1.011-1.011-.552-2.575-1.794-3.495-2.76-.92-.965-2.115-2.575-2.621-3.587-.506-1.011-1.196-3.127-1.472-4.69-.322-1.564-.46-3.174-.322-3.587.276-.598 2.898-.69 21.983-.69h21.706l-.276-7.036c-.184-4.277-.644-8.784-1.242-11.543-.552-2.53-1.471-6.025-2.07-7.726-.597-1.748-1.793-4.369-2.575-5.795-.827-1.425-2.943-4.093-4.736-5.886-2.162-2.161-4.277-3.725-6.255-4.69-1.655-.783-4.23-1.748-5.748-2.162-1.564-.414-4.553-.69-7.128-.644zm0 15.13c2.667 0 4 .276 5.748 1.104 1.288.551 2.99 1.84 3.863 2.805.874 1.012 2.07 2.897 2.668 4.23.643 1.334 1.241 3.588 1.38 4.967l.275 2.53h-28.282l.322-2.162c.184-1.195.735-3.265 1.195-4.552.506-1.334 1.748-3.358 2.805-4.553 1.104-1.242 2.944-2.668 4.277-3.265 1.748-.828 3.082-1.104 5.749-1.104zm76.11-14.992c-4.461-.138-7.313.046-9.336.506-1.564.322-4.46 1.38-6.392 2.345-2.53 1.196-4.37 2.53-6.577 4.783-1.977 2.023-3.679 4.323-4.92 6.714-1.058 2.024-2.346 5.059-2.898 6.852-.505 1.748-1.287 5.197-1.61 7.588-.367 2.392-.689 6.53-.689 9.198 0 2.667.23 6.622.46 8.737.276 2.162.92 5.473 1.426 7.358.505 1.886 1.793 5.197 2.85 7.358 1.426 2.944 2.76 4.737 5.381 7.404 2.392 2.438 4.37 3.955 6.439 4.921 1.655.828 4.323 1.794 5.978 2.254 2.07.551 4.737.781 8.738.735 3.725 0 6.852-.276 8.921-.781 1.748-.414 4.553-1.426 6.209-2.208 2.023-.966 4.047-2.483 6.07-4.46 1.978-1.978 3.633-4.186 4.69-6.301.875-1.747 1.702-3.587 1.794-4.047.092-.644-1.195-1.334-7.22-3.77-4.047-1.61-7.404-2.76-7.496-2.576-.046.23-.782 1.517-1.61 2.897-.92 1.518-2.299 3.035-3.678 3.955-1.196.782-3.311 1.702-4.737 1.977-1.426.322-3.541.414-4.737.23-1.15-.138-2.989-.69-4.047-1.195-1.057-.506-2.575-1.702-3.403-2.622-.828-.92-2.07-2.897-2.759-4.46-.736-1.518-1.656-4.415-2.07-6.439-.551-2.805-.69-5.242-.551-10.347.184-5.564.46-7.312 1.425-10.347.69-2.07 1.932-4.737 2.806-5.979.873-1.241 2.483-2.805 3.495-3.495 1.057-.735 2.85-1.425 4-1.61 1.15-.183 3.266-.183 4.691-.045 1.472.092 3.45.644 4.461 1.15 1.012.505 2.575 1.747 3.45 2.713.873.966 1.93 2.621 2.436 3.679l.828 1.885 7.45-3.035c4.047-1.655 7.496-3.035 7.588-3.127.092-.092-.69-1.886-1.747-4.001-1.288-2.667-2.714-4.737-4.507-6.622-1.472-1.472-3.633-3.22-4.783-3.91-1.195-.689-3.77-1.793-5.748-2.482-3.081-1.058-4.553-1.242-10.072-1.38zm138.33-.138c-1.977.046-4.506.23-5.61.46-1.15.23-3.357.828-4.92 1.333-1.61.552-4.094 1.748-5.565 2.714-1.472.965-3.863 3.035-5.335 4.599-1.471 1.61-3.311 4.184-4.093 5.702-.782 1.564-1.885 4.23-2.483 5.932-.552 1.702-1.38 5.197-1.84 7.772-.597 3.587-.69 6.393-.505 12.509.137 5.978.46 8.784 1.15 11.45.551 1.978 1.47 4.83 2.115 6.347.597 1.518 1.793 3.955 2.62 5.38.875 1.426 2.806 3.864 4.37 5.381 1.655 1.702 4.139 3.541 6.07 4.553 1.794.966 4.875 2.116 6.806 2.621 2.208.552 5.059.92 7.542.92 2.438 0 5.335-.368 7.45-.874 1.932-.505 4.6-1.471 5.979-2.115 1.333-.69 3.54-2.07 4.874-3.081 1.334-1.058 3.358-3.127 4.507-4.691 1.196-1.518 2.713-3.955 3.403-5.335s1.702-3.863 2.208-5.518c.552-1.656 1.287-4.829 1.701-7.082.368-2.3.69-6.806.69-10.393 0-3.587-.322-8.094-.69-10.394-.414-2.253-1.15-5.426-1.701-7.082-.506-1.655-1.702-4.46-2.576-6.208-1.103-2.207-2.667-4.277-5.104-6.714-2.622-2.622-4.37-3.91-6.944-5.15-1.886-.875-5.059-1.978-6.99-2.346-1.932-.414-5.151-.736-7.129-.69zm1.472 15.866c1.518.138 3.587.644 4.645 1.057 1.011.46 2.667 1.656 3.633 2.576.966.965 2.3 3.035 3.035 4.553.736 1.563 1.656 4.138 2.07 5.794.551 2.07.827 4.783.827 8.968 0 4.184-.276 6.852-.828 8.967-.413 1.656-1.287 4.047-1.885 5.38-.598 1.288-1.932 3.312-2.943 4.416-1.058 1.15-2.944 2.483-4.231 3.035-1.61.736-3.265 1.011-5.519 1.011-2.575 0-3.77-.23-5.702-1.195-1.334-.644-3.173-1.978-4.093-2.99-.874-1.011-2.116-2.805-2.76-4.046-.597-1.196-1.47-3.45-1.839-4.967-.414-1.472-.874-4.69-1.012-7.082-.184-2.391-.046-5.979.23-7.956.276-1.931.92-4.829 1.472-6.438.506-1.564 1.656-3.955 2.53-5.243.873-1.334 2.39-2.99 3.448-3.679 1.012-.644 2.806-1.471 4.001-1.84 1.288-.321 3.265-.46 4.921-.321z"/>
</svg>
