<svg version="1.1" viewBox="0 0 512 512" xmlns="http://www.w3.org/2000/svg">
 <g stroke-width="1.4984">
  <path d="m245.68 177.7c-17.531 12.437-33.264 29.369-46.45 48.848 1.0489 4.4952 1.7981 9.1402 2.2476 13.785 5.6939 57.688-40.307 78.666-40.307 78.666-3.8958 20.528-4.645 41.056-1.9479 60.086 57.838-41.056 96.497-131.11 86.458-201.38z" fill="#fff"/>
  <path d="m141.84 134.55s-20.828 27.87-30.867 65.33c30.418 15.883 53.643 44.802 60.685 80.614-20.528 3.5962-40.756 1.4984-59.187-5.0946 14.684 35.063 47.649 43.304 48.548 43.603 5.9936-32.365 19.479-65.031 38.059-92.451-11.688-52.744-57.239-92.002-57.239-92.002z" fill="#de0010"/>
  <path d="m110.97 199.88c-21.877-11.388-47.649-16.033-73.571-11.538 8.0914 41.506 37.76 73.571 75.07 87.057-2.9968-7.3422-5.3942-15.883-6.2933-25.623-1.6482-17.381 0.59936-34.463 4.7949-49.897z" fill="#ff6d00"/>
  <path d="m8.9281 262.81c28.919 30.717 86.308 55.141 128.41 54.841-28.919-30.717-86.308-55.141-128.41-54.841z" fill="#fff"/>
  <path d="m264.71 226.7c-4.9447 0-8.9902 4.0455-8.9902 8.9902v81.215h8.9902c4.9447 0 8.9902-4.0475 8.9902-8.9922v-49.146l41.057 54.691c1.6482 2.2476 4.1946 3.5957 7.1914 3.5957 4.9447 0 8.9902-4.0455 8.9902-8.9902v-81.363h-8.8398c-4.9447 0-8.9902 4.0455-8.9902 8.9902v48.998l-41.057-54.242c-1.6482-2.2476-4.345-3.7461-7.3418-3.7461zm86.607 0c-4.9447 0-8.9902 4.0455-8.9902 8.9902v81.215h8.9902c4.9447 0 8.9902-4.0475 8.9902-8.9922v-81.213h-8.9902zm140.85 0c-4.3454 0-7.7924 2.9973-8.6914 7.043l-20.078 50.346-21.127-51.693c-1.3486-3.2965-4.4962-5.5449-8.2422-5.5449h-68.627v8.9902c0 4.9447 4.0475 8.9902 8.9922 8.9902h17.08v72.223h8.9922c4.9447 0 8.9902-4.0455 8.9902-8.9902v-63.383h19.029l26.521 66.83c1.3486 3.2965 4.4942 5.543 8.2402 5.543 3.8958 0 7.1939-2.3974 8.3926-5.8438l33.713-84.51h-13.186z" fill="#fff"/>
 </g>
</svg>
