<svg version="1.1" viewBox="0 0 512 512" xmlns="http://www.w3.org/2000/svg">
 <g transform="matrix(1.4984 0 0 1.4984 8.9281 134.55)">
  <path d="m158 28.8c-11.7 8.3-22.2 19.6-31 32.6 0.7 3 1.2 6.1 1.5 9.2 3.8 38.5-26.9 52.5-26.9 52.5-2.6 13.7-3.1 27.4-1.3 40.1 38.6-27.4 64.4-87.5 57.7-134.4z"/>
  <path d="m88.7 0s-13.9 18.6-20.6 43.6c20.3 10.6 35.8 29.9 40.5 53.8-13.7 2.4-27.2 1-39.5-3.4 9.8 23.4 31.8 28.9 32.4 29.1 4-21.6 13-43.4 25.4-61.7-7.8-35.2-38.2-61.4-38.2-61.4z" fill="#de0010"/>
  <path d="m68.1 43.6c-14.6-7.6-31.8-10.7-49.1-7.7 5.4 27.7 25.2 49.1 50.1 58.1-2-4.9-3.6-10.6-4.2-17.1-1.1-11.6 0.4-23 3.2-33.3z" fill="#ff6d00"/>
  <path d="m0 85.6c19.3 20.5 57.6 36.8 85.7 36.6-19.3-20.5-57.6-36.8-85.7-36.6z"/>
  <path d="m228.5 61.5c-3.3 0-6 2.7-6 6v54.2h6c3.3 0 6-2.7 6-6v-54.2z"/>
  <path d="m209 61.5c-3.3 0-6 2.7-6 6v32.7l-27.4-36.2c-1.1-1.5-2.9-2.5-4.9-2.5-3.3 0-6 2.7-6 6v54.2h6c3.3 0 6-2.7 6-6v-32.8l27.4 36.5c1.1 1.5 2.8 2.4 4.8 2.4 3.3 0 6-2.7 6-6v-54.3z"/>
  <path d="m331.3 61.5h-8.8c-2.9 0-5.2 2-5.8 4.7l-13.4 33.6-14.1-34.5c-0.9-2.2-3-3.7-5.5-3.7h-45.8v6c0 3.3 2.7 6 6 6h11.4v48.2h6c3.3 0 6-2.7 6-6v-42.3h12.7l17.7 44.6c0.9 2.2 3 3.7 5.5 3.7 2.6 0 4.8-1.6 5.6-3.9z"/>
 </g>
</svg>
