<svg version="1.1" viewBox="0 0 512 512" xmlns="http://www.w3.org/2000/svg">
 <defs>
  <linearGradient id="d" x1="4.2137" x2="6.6575" y1="13.967" y2="4.6415" gradientTransform="scale(.73151 1.367)" gradientUnits="userSpaceOnUse">
   <stop stop-color="#4878BB" offset="0"/>
   <stop stop-color="#4D88C1" offset=".17"/>
   <stop stop-color="#5BB1D2" offset=".5"/>
   <stop stop-color="#62C8DB" offset=".66"/>
   <stop stop-color="#C7E8F0" offset="1"/>
  </linearGradient>
  <linearGradient id="c" x1="16.376" x2="21.121" y1="19.663" y2="-.82737" gradientTransform="scale(.7193 1.3902)" gradientUnits="userSpaceOnUse">
   <stop stop-color="#875C24" offset="0"/>
   <stop stop-color="#947128" offset=".17"/>
   <stop stop-color="#B5A532" offset=".5"/>
   <stop stop-color="#EEC85F" offset=".89"/>
   <stop stop-color="#FFD26C" offset="1"/>
  </linearGradient>
  <linearGradient id="b" x1="9.5798" x2="12.557" y1="17.324" y2="4.6566" gradientTransform="scale(.72129 1.3864)" gradientUnits="userSpaceOnUse">
   <stop stop-color="#528091" offset="0"/>
   <stop stop-color="#27A981" offset=".49"/>
   <stop stop-color="#4DB486" offset=".56"/>
   <stop stop-color="#7BC08B" offset=".66"/>
   <stop stop-color="#9FCB90" offset=".76"/>
   <stop stop-color="#BAD293" offset=".85"/>
   <stop stop-color="#C9D695" offset=".94"/>
   <stop stop-color="#CFD896" offset="1"/>
  </linearGradient>
  <linearGradient id="a" x1="25.195" x2="30.646" y1="25.077" y2="1.4519" gradientTransform="scale(.71221 1.4041)" gradientUnits="userSpaceOnUse">
   <stop stop-color="#A13423" offset="0"/>
   <stop stop-color="#B54024" offset=".09"/>
   <stop stop-color="#D55426" offset=".26"/>
   <stop stop-color="#E15C27" offset=".35"/>
   <stop stop-color="#E97422" offset=".57"/>
   <stop stop-color="#FBB016" offset="1"/>
  </linearGradient>
 </defs>
 <rect x="181.85" y="358.1" width="319.33" height="42.927" fill="#fff"/>
 <path id="e" d="m499.62 212.72-16.166 0.0119c-0.72363-3e-3 -1.3513 0.50328-1.5156 1.2081-1.4187 6.1149-8.0214 34.337-12.959 54.122-4.9382 19.785-10.005 37.668-10.456 39.153-0.21593 0.97185-0.60555 1.9033-1.1532 2.7347-0.54937 0.4982-1.3838 0.4982-1.9329 0-0.55219-0.82896-0.95317-1.7613-1.1642-2.7347-0.46165-1.4847-5.4954-19.28-10.466-39.153-4.9711-19.873-11.475-47.997-12.894-54.122-0.16421-0.70474-0.80293-1.2116-1.5266-1.2081h-16.166c-0.46334-5e-3 -0.90054 0.20356-1.1971 0.56006-0.29635 0.35651-0.41893 0.83008-0.32953 1.2849 0.68187 3.6623 2.1954 11.79 2.9873 15.398 0.47291 2.1996 4.8574 21.87 10.477 42.722 6.1589 22.843 13.596 46.037 14.168 47.796 0.50271 1.8121 1.4831 3.4583 2.8445 4.7555 1.2153 1.077 2.621 1.9063 4.1514 2.4491 1.5976 0.56705 3.2717 0.90263 4.9641 0.9994 1.6827 0.11026 3.3804 0.16471 5.03 0.16471h0.17543c1.6497 0 3.2924 2.8e-4 5.0191-0.16471 1.6924-0.0966 3.3666-0.43242 4.9642-0.9994 1.5283-0.54037 2.9418-1.3699 4.1514-2.4491 1.3684-1.2934 2.3533-2.9407 2.8555-4.7555 0.56119-1.7597 8.0087-24.954 14.168-47.796 5.62-20.896 9.9936-40.501 10.466-42.722 0.78089-3.6183 2.3274-11.746 3.0312-15.398 0.0888-0.45604-0.0225-0.92708-0.31828-1.2849-0.29633-0.35762-0.74359-0.57311-1.2081-0.57114zm-304.17 0.0119c-5.609 0-9.2557 1.2375-11.158 3.7561-1.9026 2.5186-2.6908 5.7381-2.6908 9.8954v100.9c-3e-3 0.4133 0.1591 0.80505 0.45041 1.0982 0.29127 0.29296 0.68507 0.46109 1.0983 0.46109h14.827c0.85826-5e-3 1.5486-0.70132 1.5486-1.5595l-0.0562-87.762v-3.5371c8.4e-4 -0.80107 0.58249-1.4837 1.3728-1.6145 0.79028-0.13102 1.5532 0.32897 1.8121 1.0873 0.24179 0.59387 0.90015 2.5029 1.2081 3.3058l24.03 62.436v-0.0563l5.5792 14.409c0.67893 1.9856 1.4761 3.9344 2.3723 5.8318 0.75354 1.6173 1.8272 3.0673 3.163 4.2503 1.4048 1.1594 3.0489 1.9965 4.8103 2.4601 1.9577 0.54995 7.6953 0.77976 10.225 0.77976 5.609 0 9.2447-1.2155 11.136-3.745 1.8917-2.5296 2.7127-5.7491 2.7127-9.9063v-100.92c0-0.85819-0.6903-1.5645-1.5486-1.5705h-14.816c-0.85821 5e-3 -1.5596 0.71227-1.5596 1.5705l0.0563 87.762v3.5696c-5e-3 0.79899-0.58406 1.4756-1.3728 1.6035-0.78869 0.12762-1.5539-0.3312-1.8121-1.0873-0.23111-0.59392-0.87817-2.4919-1.1862-3.2948l-9.8954-25.293-19.802-51.476c-0.68091-1.9848-1.467-3.9336-2.3612-5.8318-0.72579-1.6262-1.7843-3.0801-3.0971-4.2832-1.4123-1.1583-3.0531-2.0027-4.8214-2.4601-3.3812-0.54881-6.7995-0.8091-10.225-0.77974zm103.15 0c-4.4236 0-7.9844 3.5608-7.9844 7.9844v100.17c0 4.4236 3.5608 7.9844 7.9844 7.9844h3.3936c4.4236 0 7.9844-3.5608 7.9844-7.9844v-100.17c0-4.4236-3.5608-7.9844-7.9844-7.9844zm27.479 0c-0.84345 0.0225-1.5109 0.72675-1.5046 1.5705v13.618c0 0.85821 0.69035 1.5534 1.5486 1.5595h22.8c1.1732-1e-3 2.1379 0.92602 2.1966 2.0977v95.681c5e-3 0.86004 0.71047 1.5535 1.5705 1.5596h16.254c0.85999-5e-3 1.5536-0.69952 1.5595-1.5596v-95.56c0.0337-1.1081 0.88424-2.0258 1.9879-2.1306h23.02c0.42286-0.0119 0.82159-0.18388 1.1093-0.49427 0.2879-0.3104 0.43805-0.73045 0.41724-1.1532v-13.618c0-0.86248-0.69705-1.5705-1.5595-1.5705z"/>
 <g transform="matrix(5.6231 0 0 5.6231 10.82 157.6)">
  <path id="f" d="m3.5048 16.573c-0.36575 0.66695-1.6488 1.9559-2.0224 2.1769-0.11969 0.08513-0.26196 0.13278-0.40878 0.13691-0.10118-0.0016-0.20123-0.02147-0.29534-0.05868-0.22312-0.07088-0.42487-0.19664-0.58676-0.36575-0.16065-0.23206-0.22385-0.51788-0.17603-0.79604 0.04761-0.98401 0.24073-1.9555 0.57307-2.8829 0.2153 0.08123 0.43625 0.1466 0.66108 0.19559 1.0337 0.20841 2.1055 0.11331 3.0864-0.27382-0.031294 0.08019-0.064544 0.15647-0.097793 0.23666-0.21306 0.55732-0.45795 1.1019-0.73345 1.6312zm-2.2395-3.3113 0.20928-0.43225c0.10562-0.21319 0.21123-0.42833 0.31294-0.64544 0.070411-0.14864 0.14278-0.29729 0.2171-0.44789 0.10562-0.21123 0.20928-0.42442 0.30316-0.64152l0.5007-1.154 0.61805-1.4024 0.19559-0.44203c0.13887-0.3325 0.27773-0.66304 0.43811-0.97793 0.22888-0.45436 0.52566-0.87118 0.88014-1.2361 0.16038-0.17016 0.97793-1.021 1.3887-1.1892 0.28556-0.11931 0.6337 0.035206 0.77061 0.10757 0.13691 0.072367 0.43029 0.25035 0.48505 0.50461 0.040848 0.23 0.044809 0.46504 0.011735 0.69629-0.094753 0.8487-0.27562 1.6856-0.53982 2.4976-0.068455 0.17407-0.14669 0.34619-0.22492 0.51635l-0.11344 0.25622c-0.3325 0.77191-0.67021 1.5367-1.0131 2.2942-0.08997 0.19559-0.17798 0.39117-0.266 0.58676-0.13194 0.07312-0.25813 0.15616-0.37748 0.2484-1.0816 0.84102-2.347 1.1872-3.458 0.95055-0.11448-0.0232-0.22748-0.05324-0.33836-0.08997zm3.0257-1.8835c0.82929 0.52222 1.641-0.76474 0.81168-1.287-0.82929-0.52222-1.641 0.76279-0.81168 1.287zm-1.5041 1.0601c0.82733 0.52222 1.641-0.76279 0.81168-1.287-0.82929-0.52417-1.641 0.76474-0.81168 1.287z" fill="url(#d)"/>
  <path d="m12.846 23.543c-0.61753-0.30718-1.1567-0.75138-1.5764-1.2987-1.0147-1.2858-1.2011-3.0399-0.47919-4.5102 1.0679-2.0693 3.4853-2.6463 5.8128-2.9084l0.05085-0.1154c0.62588-1.3887 1.2615-2.834 1.8952-4.3029 0.03521-0.08215 0.07432-0.16429 0.10953-0.2484-0.83711 0.22884-1.6566 0.84298-2.5739 1.5295-1.3828 1.0386-2.9475 2.2121-5.0989 2.4566-0.17603 0.40486-0.3677 0.80386-0.55351 1.1892-0.13821 0.28295-0.27252 0.5659-0.40291 0.84884-0.19168 0.40682-0.38726 0.81234-0.58676 1.2165-0.47136 0.97793-0.95837 1.9969-1.3887 3.0296-0.7712 1.8825-1.2545 3.8705-1.4336 5.8969v0.08019c-0.041073 0.43616-0.095837 0.97793 0.23079 1.4121 0.25473 0.29759 0.58827 0.51724 0.96228 0.6337 0.1446 0.05733 0.29825 0.08846 0.45376 0.09192 0.26724-0.01203 0.5236-0.10937 0.73149-0.27773 0.64739-0.45767 2.8966-2.9005 3.5577-4.1425 0.09779-0.19168 0.18972-0.3853 0.28947-0.58089zm-4.3753-1.2928c-0.13964-0.32006-0.071542-0.69281 0.17226-0.94282 0.2438-0.25001 0.61472-0.32746 0.93819-0.19591s0.53505 0.4459 0.53516 0.7951-0.21128 0.66368-0.53467 0.79543c-0.11384 0.04571-0.23526 0.0696-0.35792 0.07041-0.33735 0.0065-0.64088-0.20398-0.75301-0.52222zm2.6991 1.819c-0.16352 0.28678-0.46414 0.46819-0.79408 0.47919h-0.0176c-0.28628 0.0012-0.55034-0.15412-0.68846-0.40487-0.2452-0.40615-0.11473-0.93418 0.29142-1.1794 0.40615-0.2452 0.93418-0.11473 1.1794 0.29142 0.16204 0.24482 0.17337 0.55976 0.02934 0.8156zm3.1568-3.9724c-0.13691 0.32272-0.26991 0.64739-0.40291 0.97793-0.133 0.33054-0.26209 0.63761-0.39117 0.95837-0.36618-0.19528-0.6863-0.46671-0.93881-0.79604-0.6237-0.77586-0.7462-1.841-0.31489-2.7382 0.58676-1.1383 1.9715-1.6273 3.5421-1.8855-0.34423 0.78234-0.67477 1.5647-0.99358 2.3118zm-2.3998-8.1423-0.14082 0.3325c1.2498-0.39117 2.2903-1.1735 3.3074-1.9246 1.2928-0.97793 2.6326-1.9676 4.2794-1.9559 0.40395-1.3391 0.70923-2.706 0.91339-4.0897 0.07123-0.41088 0.08178-0.82999 0.03129-1.2439-0.05476-0.37944-0.44984-0.71193-0.8019-0.89579-0.22101-0.11735-0.78234-0.36379-1.2694-0.12909-0.68651 0.33836-2.1319 1.9559-2.4155 2.2844-0.62678 0.69224-1.1583 1.4651-1.5803 2.2981-0.29925 0.6161-0.57307 1.2674-0.81364 1.8424-0.1154 0.27969-0.2347 0.55938-0.35401 0.83711-0.38139 0.88796-0.7667 1.7622-1.1559 2.6443zm5.6368-5.2476c0.0877-0.27496 0.31542-0.48225 0.59739-0.54379 0.28197-0.061536 0.57536 0.032033 0.76963 0.24546 0.19428 0.21343 0.25994 0.51429 0.17224 0.78925-0.09796 0.34013-0.40504 0.57756-0.75888 0.58676-0.08971-5.869e-4 -0.17879-0.015103-0.26404-0.043029-0.20962-0.063093-0.3839-0.20992-0.48165-0.4058s-0.11031-0.42341-0.034697-0.62885zm-1.1012-0.043029c0.2832 0.011627 0.53646 0.17971 0.65717 0.43616 0.1318 0.29312 0.1045 0.6333-0.07237 0.90165-0.14438 0.21113-0.38583 0.3348-0.64152 0.32858h-0.07823c-0.46016-0.037267-0.80299-0.44051-0.76572-0.90067 0.037267-0.46016 0.44051-0.80299 0.90068-0.76572zm-2.4116 1.4473c0.16844-0.22118 0.43795-0.34132 0.71505-0.31875 0.2771 0.022564 0.52362 0.18472 0.65406 0.43024 0.13413 0.29205 0.10672 0.63284-0.07237 0.8997-0.14338 0.21225-0.3855 0.33627-0.64152 0.32858h-0.07823c-0.28093-0.016056-0.53034-0.18509-0.64935-0.44007-0.13108-0.29258-0.1038-0.63183 0.072367-0.8997z" fill="url(#c)"/>
  <path d="m7.4792 20.017c-0.49288 0.9173-2.1867 2.7128-2.6776 3.0472-0.15243 0.11937-0.33854 0.18779-0.53199 0.19559-0.11809-0.002191-0.23477-0.026057-0.34423-0.070412-0.2804-0.08685-0.53146-0.24926-0.72563-0.46941-0.24644-0.31685-0.21123-0.73345-0.18385-1.0386 0.11277-1.5252 0.46387-3.0233 1.0405-4.4398 0.31685-0.76083 0.6826-1.5158 1.0347-2.2453 0.14082-0.29142 0.28164-0.58676 0.41855-0.87427 0.19559-0.12322 0.39117-0.25622 0.57111-0.40095 0.50266-0.39117 1.0503-0.25231 2.0497 0.05281 0.61257 0.20799 1.2473 0.34386 1.8913 0.40486-0.3012 0.68064-0.58676 1.3398-0.85862 1.9852l-0.3677 0.86645c-0.099749 0.23862-0.19559 0.47919-0.29729 0.72171-0.29965 0.77234-0.63979 1.5284-1.019 2.2649zm-0.54373-9.0498c0.28751-0.65326 0.57307-1.3026 0.85667-1.9559 0.088014-0.19559 0.17407-0.41073 0.26209-0.61805 0.19559-0.4518 0.39117-0.9173 0.60632-1.3691 0.31071-0.61689 0.70567-1.1876 1.1735-1.6957 0.21514-0.23666 1.3046-1.4317 1.8209-1.6742 0.35206-0.16429 0.78234 0.021514 0.94468 0.10953 0.12713 0.066499 0.54568 0.30903 0.6024 0.64935 0.04253 0.30989 0.03791 0.62444-0.01369 0.93295-0.1572 1.1679-0.42372 2.3184-0.79604 3.4365-0.09388 0.23862-0.19559 0.47332-0.30511 0.70802l-0.16234 0.36575c-0.38074 0.88405-0.76865 1.7648-1.1637 2.6424-0.1154 0.01173-0.23079 0.02152-0.34814 0.02543-0.58676 0.029334-1.1853-0.15256-1.8092-0.34228-0.62392-0.18972-1.3339-0.40682-2.0419-0.35792zm2.7089 0.69629c0.83907 0.50461 1.6253-0.79604 0.78235-1.3026-0.84298-0.50657-1.6214 0.79017-0.78235 1.2967zm-1.6547-0.44007c0.83907 0.50461 1.6253-0.79604 0.78235-1.3026-0.84298-0.50657-1.6214 0.79212-0.78235 1.2967z" fill="url(#b)"/>
  <path d="m18.223 13.248c0.46354-1.0542 0.92317-2.1045 1.3691-3.1587 1.5275 0.1506 2.1045 1.1872 2.1299 2.128 0.05251 1.1975-0.8495 2.2229-2.0439 2.3236-0.44398 0.05281-0.93295 0.09193-1.4513 0.13496l-0.64935 0.05281zm10.519-10.335c-0.26991 1.9265-1.0444 4.9464-1.4923 6.0847-0.17016 0.42638-0.35597 0.84493-0.54373 1.2635-0.09779 0.22101-0.19559 0.44007-0.29142 0.66108-0.82016 1.9154-1.6566 3.8211-2.5094 5.717l-0.24253 0.54373c-2.2864 0.58676-3.5049 1.9167-4.5493 3.0472-0.88405 0.95837-1.6488 1.7877-2.9201 2.0634-0.68352 0.16692-1.3982 0.1575-2.0771-0.02738 0.27578-0.58676 0.55742-1.1833 0.83515-1.7603 0.25622-0.53786 0.51244-1.0738 0.76279-1.6116 0.17407-0.39117 0.35792-0.7667 0.54177-1.15 0.20341-0.41986 0.399-0.84232 0.58676-1.2674 0.51635-0.05672 1.0347-0.09975 1.5412-0.14082 0.50657-0.04107 1.0386-0.0841 1.5138-0.14082 2.0474-0.20213 3.5848-1.9613 3.5108-4.0173-0.021382-1.8133-1.3329-3.3534-3.1196-3.6633 0.32467-0.78235 0.65913-1.5647 1.0327-2.3373 0.54564-1.0944 1.23-2.114 2.0361-3.0335 0.22492-0.26209 2.2121-2.5739 3.0785-3.0257 0.37944-0.19559 0.90556-0.14669 1.4512 0.13691 0.4166 0.2171 0.87818 0.60436 0.93686 1.0405 0.05175 0.53997 0.02672 1.0845-0.07432 1.6175zm-5.4823 4.8271c0.026705-0.2869-0.095327-0.56751-0.32339-0.74361-0.22806-0.17611-0.53041-0.2232-0.80123-0.12479-0.30291 0.13134-0.51712 0.40907-0.5672 0.7354-0.0402 0.29019 0.0851 0.57853 0.32467 0.74714 0.14288 0.11579 0.32071 0.17989 0.50461 0.1819 0.10276-3.609e-4 0.20445-0.020964 0.29925-0.060632 0.30235-0.13117 0.5154-0.40933 0.56329-0.7354zm0.78234 2.3236c0.26889-0.0067 0.51982-0.13646 0.68064-0.35206 0.26774-0.37027 0.18731-0.8871-0.18028-1.1585-0.3676-0.27141-0.8852-0.19612-1.1602 0.16876s-0.2049 0.8832 0.15723 1.1619c0.14134 0.11425 0.31701 0.17763 0.49874 0.17994zm1.3691 0.28556c-0.37807-0.28949-0.91923-0.21769-1.2087 0.16038-0.28949 0.37807-0.21769 0.91923 0.16038 1.2087 0.14299 0.11401 0.3198 0.1773 0.50266 0.17994 0.26953-6e-3 0.52101-0.13675 0.68064-0.35401 0.14946-0.17241 0.22027-0.39932 0.1954-0.62613-0.02487-0.22681-0.14318-0.43298-0.32644-0.5689zm-2.6893 8.9696c-0.44007 1.0053-0.85862 1.9813-1.2635 2.9338l-0.65913 1.5647c-0.1819 0.4342-0.35988 0.87036-0.53982 1.3085-0.55155 1.3476-1.1207 2.7382-1.8072 4.0389-0.86254 1.639-3.7553 4.874-4.5806 5.4882-0.36588 0.3492-0.90554 0.44479-1.3691 0.24253-0.43879-0.13599-0.8292-0.39535-1.1246-0.74714-0.36575-0.50852-0.29142-1.1853-0.23079-1.729l0.01173-0.10757c0.27652-2.6711 0.9352-5.2887 1.9559-7.7726 0.10366-0.25035 0.21319-0.5007 0.32272-0.75301 0.56622 0.19533 1.1613 0.29385 1.7603 0.29142 0.46042-0.0014 0.91939-0.05187 1.3691-0.1506 1.7857-0.39117 2.8047-1.4923 3.7905-2.5602 0.68651-0.76865 1.375-1.5138 2.3646-2.0478zm-7.9467 5.5155c-0.42737-0.1717-0.91409 0.02437-1.1031 0.44438-0.189 0.42001-0.01296 0.91433 0.39899 1.1203 0.11169 0.05147 0.23299 0.07879 0.35597 0.08019 0.33299-0.0106 0.62866-0.21589 0.75496-0.52417 0.10216-0.2012 0.11662-0.43569 0.03995-0.64792-0.07667-0.21223-0.23765-0.38334-0.44482-0.47279zm2.0595-0.12518c-0.4502-0.10778-0.90479 0.16074-1.0277 0.60704-0.12292 0.4463 0.13009 0.9097 0.57199 1.0476 0.07829 0.02203 0.15924 0.03321 0.24057 0.03325 0.37505-0.01268 0.69535-0.27452 0.78234-0.63957 0.07006-0.21397 0.04923-0.44731-0.05762-0.64549-0.10685-0.19818-0.29036-0.34381-0.50763-0.40285zm2.6111-0.27186c-0.12276-0.28365-0.39245-0.47603-0.70061-0.49979-0.30816-0.02376-0.60415 0.12502-0.76894 0.38649-0.16479 0.26148-0.1713 0.59269-0.01691 0.86044 0.13509 0.29092 0.42263 0.48085 0.74323 0.49092 0.1363-0.0011 0.27039-0.03461 0.39117-0.09779 0.20362-0.09865 0.35725-0.27726 0.42434-0.49335 0.06709-0.21608 0.04162-0.4503-0.07033-0.64692z" fill="url(#a)"/>
 </g>
 <path d="m312.94 362.91h-2.8452v33.625h5.6903v-14.484h15.002v14.484h5.6903v-33.625h-5.6903v13.45h-15.002v-13.45zm39.832 0.0517c-3.1038 0.0517-6.2076 0.20692-6.8284 0.31038l-1.1898 0.20692v32.952l3.4142 0.41385c1.914 0.15519 5.4317 0.20692 7.9147 0.0517 2.69-0.15519 5.5869-0.6725 7.3974-1.345 1.6554-0.67249 3.8798-2.0175 5.0696-3.2073 1.1898-1.1898 2.69-3.2073 3.259-4.5005 0.93115-2.0175 1.1381-3.4142 1.1381-7.863 0-4.5523-0.20692-5.8455-1.1898-8.0182-0.67249-1.3967-1.7071-3.1038-2.3279-3.828-0.62076-0.6725-2.0175-1.7588-3.1038-2.4313-1.0346-0.67249-3.259-1.6036-4.8626-2.0175-1.8623-0.5173-5.0696-0.72422-8.6907-0.72422zm2.483 5.2248c3.5177 0.15519 4.8109 0.46557 6.6732 1.6036 1.7071 0.98287 2.7417 2.0692 3.5694 3.828 0.93114 1.914 1.1898 3.3625 1.1898 6.3628 0 2.7417-0.25865 4.3971-0.93114 5.6903-0.5173 0.98287-1.345 2.2244-1.8106 2.7934-0.46557 0.51731-1.7588 1.3967-2.8452 1.9658-1.2933 0.6725-3.5177 1.1381-6.1042 1.2933l-4.035 0.31038v-24.106z"/>
</svg>
