<svg version="1.1" viewBox="0 0 512 512" xmlns="http://www.w3.org/2000/svg">
 <g fill="#1769b4">
  <path class="st0" d="m385.33 201.52c-1.31 31.665-26.206 55.25-59.181 55.25-23.804 0-43.567-12.556-53.067-31.556l8.299-2.62c8.19 16.27 24.677 27.08 44.768 27.08 26.97 0 47.716-19.328 50.227-45.424zm-96.197 18.78c7.098 12.995 20.637 21.511 37.016 21.511 21.51 0 38.325-14.631 41.929-34.831l-9.281 2.839c-4.368 13.867-16.925 23.585-32.648 23.585-11.684 0.218-22.712-5.787-28.826-15.724zm-279.64-7.97c-1.092-4.368-1.529-8.844-1.529-13.43 0-32.976 25.332-57.871 59.181-57.871 25.66 0 46.624 14.522 55.141 36.033l-8.298 2.62c-7.207-18.78-24.896-31.556-46.734-31.556-28.826 0-50.555 22.057-50.555 50.774 0 3.603 0.328 7.315 1.092 10.81zm88.771-27.734 7.971-2.512c-6.224-15.505-20.964-25.987-39.2-25.987-24.24 0-42.583 18.563-42.583 42.912 0 2.839 0.218 5.678 0.764 8.517l7.971-2.512c-0.328-1.965-0.437-3.93-0.437-6.005 0-19.545 14.74-34.504 34.286-34.504 14.413-0.11 26.096 8.08 31.228 20.09zm48.59-40.946h-8.299v151.77h8.299zm15.942 0h-8.3v151.77h8.299zm242.73 0h-8.299v110.61h8.299zm15.942 0h-8.299v110.61h8.299z"/>
  <path d="m322.22 275.44v75.996h7.8613v-30.791c0-10.264 7.0985-17.143 17.689-17.143 10.264 0 16.814 6.6588 16.814 16.924v30.9h7.9727v-32.758c0-13.649-9.1736-22.818-22.932-22.818-8.408 0-15.176 3.2743-19.436 9.2793v-29.59h-7.9707zm-26.096 20.309c-10.046 0-17.254 6.5525-17.254 15.396 0 8.19 5.2426 13.54 15.725 16.16 7.534 1.857 11.246 5.2402 11.246 9.8262s-3.9294 8.0801-9.6074 8.0801-9.9375-3.9309-9.9375-9.1719v-0.98242h-8.0801v0.98242c0 9.5 7.6432 16.598 17.906 16.598h0.00195c10.263 1e-5 17.797-6.6612 17.906-16.16 0-8.19-5.3508-13.758-16.051-16.379-5.023-1.091-10.918-3.7126-10.918-9.3906 0-4.258 4.0395-7.6426 9.0625-7.6426 5.241 0 9.1719 3.711 9.1719 8.625v0.98437h7.9707v-0.98437c0-9.062-7.4256-15.941-17.143-15.941zm112.46 0.10938c-16.378 0-28.717 12.229-28.717 28.389s12.339 28.391 28.717 28.391c16.27 1e-5 28.607-12.229 28.607-28.389s-12.229-28.391-28.607-28.391zm66.17 0c-8.627-0.109-16.815 4.0391-21.619 11.246v-10.045h-7.8633v73.922h7.8613v-29.59c4.805 7.097 12.995 11.354 21.621 11.246 15.833 1e-5 27.734-12.229 27.734-28.389s-11.902-28.391-27.734-28.391zm-66.17 7.6445c11.684 0 20.527 8.9541 20.527 20.746s-8.8433 20.744-20.527 20.744c-11.465 0-20.746-9.2781-20.746-20.744s9.2811-20.746 20.746-20.746zm65.188 0h0.98242c11.138 0.327 19.981 9.6071 19.654 20.744v0.10938c-0.11 11.465-9.3905 20.746-20.855 20.637s-20.747-9.3885-20.637-20.854 9.3905-20.747 20.855-20.637z"/>
 </g>
 <path d="m125.24 187.44c0.764 3.821 1.092 7.643 1.092 11.465 0 32.975-25.55 57.87-59.18 57.87-25.005 0-45.424-13.648-54.378-34.176l23.913-7.425c5.896 11.356 17.689 18.453 30.464 18.235 19.545 0 34.067-14.96 34.067-34.504 0-1.31-0.109-2.62-0.218-3.822zm258.24 3.275 1.31-0.436c-3.713-26.315-24.35-45.97-51.647-48.808h-0.328c-0.655-0.11-1.2-0.11-1.856-0.219h-0.764l-1.638-0.109h-2.511c-33.63 0-59.181 24.896-59.181 57.87 0 3.823 0.327 7.644 1.091 11.466 0.765 3.603 1.748 7.097 3.167 10.482 0.546 1.529 1.31 3.057 1.965 4.477l23.476-7.316 86.916-27.188zm-91.393 7.644c0.219-19.327 14.632-34.068 34.068-34.068 11.246-0.218 21.838 5.242 28.28 14.523zm-35.814 0.437c0 32.975-23.366 57.87-54.376 57.87-15.396 0.219-30.028-7.206-38.981-19.763v-76.106c8.844-12.556 23.476-19.981 38.871-19.763 31.01 0 54.486 24.895 54.486 57.762zm-25.114 0c0-19.545-14.522-34.505-34.067-34.505s-34.285 14.96-34.285 34.505 14.74 34.504 34.285 34.504 33.958-14.85 34.067-34.504zm271.45-14.304v69.554h-24.35v-61.365c0-16.925-10.81-28.171-27.515-28.171-17.58 0-29.263 11.465-29.263 28.608v-34.068c8.626-11.683 21.51-18.016 37.343-18.016 26.205 0 43.785 17.361 43.785 43.458z" fill="#d72485"/>
</svg>
