<svg xmlns="http://www.w3.org/2000/svg" height="512" width="512">
    <path fill="#ed1c24" d="M172.783 181.01v22.861h32.92v-22.86zM10 209.359v88.71h32.008v-25.331l10.743-.503c5.948-.28 12.792-1.143 15.321-1.935 12.875-4.025 18.626-14.391 17.625-31.769-.741-12.8-5.445-20.536-15.158-24.92-7.627-3.444-15.086-4.252-39.233-4.252zm78.646 0v88.71h31.002l.277-13.444.272-13.445 6.769 13.08c3.74 7.225 7.82 13.688 7.82 13.688h35.442l-11.435-17.713-11.342-17.378 3.749-1.658c10.617-5.152 11.966-13.948 11.979-22.115.523-16.921-11.665-26.42-25.424-28.808-3.125-.502-15.41-.917-27.388-.917zm84.137 0v88.71h32.92l-.226-44.125-.167-44.564zm82.947 0c-1.223.017-31.518.017-32.921.017l-7.455 43.425c-2.857 14.995-4.662 30.199-7.766 45.147h31.644c0-3.108 4.942-45.025 5.34-45.423.239-.24.456.368.456 1.281 0 .955 2.773 11.292 6.174 22.999l6.124 21.143h19.618l2.333-7.652 4.662-15.548c1.286-4.284 3.317-11.568 4.527-16.234 1.734-6.672 2.208-7.723 2.25-4.984 1.487 14.81 2.45 29.712 4.791 44.418h30.819s-2.983-22.927-6.627-46.064l-7.053-42.508-32.778-.017c-2.074 7.095-4.134 14.199-5.852 20.121-2.261 7.774-4.653 16.858-5.306 20.121l-1.19 5.943-.733-4.573c-.398-2.505-3.066-12.942-5.897-23.091zm73.431 0v44.355l.025 44.23h55.76v-24.57H361.17v-8.23h21.034V242.28H361.17v-8.226h24.695v-24.695h-28.356zm58.345 0l2.245 3.89c1.235 2.141 6.65 11.477 12.07 20.805a2371.842 2371.842 0 0011.226 19.07c12.636.209 19.254.125 35.413 0l11.02-18.844c5.98-10.425 11.664-20.314 12.619-21.947l1.738-2.974h-43.161zm89.167 1.168c-.402-.138-14.702 24.075-31.824 53.889a32932.562 32932.562 0 00-34.613 60.355l-3.522 6.22h51.94l21.671-38.823C492.22 270.86 502 252.976 502 252.524c0-1.098-24.498-41.709-25.332-41.998zm-356.932 22.61h8.389s.318.046.8.234a6.103 6.103 0 011.776 1.097c.322.285.649.633.955 1.052.31.419.599.909.85 1.487.251.573.465 1.235.62 1.989.16.758.251 1.613.276 2.576.021.963-.054 1.814-.205 2.563a8.398 8.398 0 01-.645 1.981 6.819 6.819 0 01-2.04 2.492 6.96 6.96 0 01-2.073 1.048c-.565.18-.947.217-.947.217h-7.756v-8.368zm-77.733 1.83h8.217s.31.042.784.192a6.207 6.207 0 012.676 1.76c.302.343.587.745.83 1.214.25.474.456 1.014.607 1.634.155.62.251 1.32.272 2.106a8.126 8.126 0 01-.201 2.103 6.056 6.056 0 01-.632 1.617 5.805 5.805 0 01-1.998 2.04 7.342 7.342 0 01-2.032.862c-.553.147-.925.176-.925.176H45.89c-.05 0-.083.013-.134.013h-3.748v-.013zM10 300.808v30.181h358.947l16.779-30.177z"/>
</svg>
