<svg version="1.1" viewBox="0 0 512 512" xmlns="http://www.w3.org/2000/svg">
 <g fill="#fff">
 <path d="m9.316 265.82c9.513-9.206 17.952-21.482 24.243-36.058 6.445-14.577 9.514-29.154 9.514-42.656-9.207 9.206-17.953 21.481-24.244 36.058-6.444 14.73-9.513 29.307-9.513 42.656"/>
 <path d="m19.29 286.23c12.582-12.276 24.243-28.847 32.989-48.334 8.44-19.64 12.582-39.587 13.042-57.08-12.735 12.276-24.243 28.847-32.529 48.334-8.9 19.794-13.196 39.434-13.502 57.08"/>
 <path d="m33.099 314.92c17.185-16.418 32.99-39.128 44.497-65.52 11.508-26.39 17.646-53.703 17.953-77.486h-0.46c-17.186 16.572-32.99 39.127-44.498 65.672s-17.185 53.244-17.492 77.334"/>
 <path d="m52.279 352.52c23.476-22.249 44.497-52.63 59.841-88.688 15.805-36.058 23.477-72.116 23.783-104.34l-0.46 0.307c-23.016 22.25-44.037 52.477-59.841 88.688-15.344 35.445-23.016 71.81-23.323 104.03"/>
 <path d="M238.652 320.986h-20.191l-8.161-27.7-9.326 27.84h-16.648L175 293.286l-8.161 27.7h-19.865l18.886-58.103h16.834l10.119 28.678 10.12-28.678h16.833zm30.078.979c-4.43 0-8.58-.792-12.404-2.285-3.824-1.538-7.135-3.637-9.98-6.342-2.844-2.704-5.036-5.875-6.621-9.512-1.586-3.638-2.378-7.555-2.378-11.752v-.186c0-4.197.792-8.068 2.424-11.752 1.633-3.637 3.824-6.854 6.669-9.56 2.844-2.704 6.155-4.849 10.026-6.434 3.824-1.586 7.974-2.332 12.45-2.332 4.477 0 8.58.793 12.405 2.285 3.823 1.539 7.134 3.637 9.979 6.342 2.844 2.705 5.036 5.876 6.622 9.513 1.585 3.637 2.378 7.554 2.378 11.751v.187c0 4.197-.793 8.114-2.425 11.751-1.632 3.637-3.87 6.855-6.668 9.56-2.845 2.704-6.156 4.85-10.026 6.435s-8.021 2.331-12.451 2.331zm.14-17.067c1.819 0 3.45-.373 4.943-1.072a11.533 11.533 0 003.777-2.845c1.026-1.166 1.819-2.518 2.378-4.057.56-1.539.84-3.171.84-4.85v-.186c0-1.679-.28-3.358-.886-4.897-.56-1.585-1.4-2.937-2.425-4.15-1.026-1.212-2.332-2.192-3.777-2.891-1.493-.7-3.171-1.073-5.037-1.073-1.818 0-3.45.373-4.943 1.073a11.533 11.533 0 00-3.777 2.844 12.246 12.246 0 00-2.378 4.057 14.145 14.145 0 00-.84 4.85v.187c0 1.725.28 3.357.887 4.896.606 1.539 1.398 2.938 2.424 4.15a11.047 11.047 0 003.778 2.892c1.492.746 3.17 1.072 5.036 1.072zm30.03-41.828h21.592l11.191 32.408 11.192-32.409h21.264l-23.41 58.104h-18.465zm69.53 0h19.305v57.683h-19.306zm27.559 0h49.197v15.807H414.92v5.83h28.166v13.942H414.92v6.249h30.684v15.808H395.99zm81.186 58.755c-5.876 0-11.378-.792-16.461-2.424-5.083-1.633-9.466-4.057-13.15-7.275l10.305-12.264c3.125 2.425 6.436 4.15 9.886 5.176 3.451 1.026 6.902 1.585 10.306 1.585 1.772 0 3.031-.233 3.777-.652.746-.42 1.166-1.026 1.166-1.82v-.186c0-.839-.56-1.492-1.679-2.051-1.119-.56-3.217-1.12-6.295-1.726-3.264-.653-6.342-1.445-9.28-2.285-2.938-.886-5.502-2.005-7.74-3.357-2.239-1.353-4.011-3.078-5.317-5.13-1.305-2.052-1.958-4.616-1.958-7.694v-.187c0-2.75.513-5.316 1.585-7.647 1.073-2.378 2.658-4.43 4.71-6.202 2.052-1.772 4.617-3.125 7.648-4.104 3.03-.98 6.575-1.492 10.492-1.492 5.596 0 10.492.653 14.736 1.958a35.536 35.536 0 0111.331 5.923l-9.373 13.01c-2.751-1.959-5.642-3.404-8.673-4.337-3.031-.886-5.923-1.352-8.627-1.352-1.446 0-2.472.233-3.171.653-.7.42-1.026 1.026-1.026 1.725v.187c0 .373.093.746.326 1.072.233.327.606.653 1.213.933.56.28 1.352.606 2.331.886.98.28 2.239.56 3.777.84 3.684.652 7.042 1.445 10.073 2.377 3.031.933 5.596 2.146 7.788 3.591a16.241 16.241 0 015.036 5.223c1.166 2.052 1.772 4.523 1.772 7.414v.187c0 3.031-.606 5.736-1.819 8.16a17.144 17.144 0 01-5.13 6.156c-2.191 1.679-4.896 2.984-8.02 3.87a43.816 43.816 0 01-10.539 1.26zM146.974 189.297h20.191l8.161 27.7 9.326-27.84H201.3l9.326 27.84 8.161-27.7h19.865l-18.886 58.104h-16.834l-10.119-28.679-10.12 28.679H165.86zm120.916 58.897c-4.43 0-8.58-.793-12.404-2.285-3.823-1.54-7.134-3.638-9.979-6.342-2.844-2.705-5.036-5.876-6.622-9.513-1.585-3.638-2.378-7.555-2.378-11.752v-.186c0-4.197.793-8.067 2.425-11.751 1.632-3.638 3.824-6.855 6.668-9.56 2.845-2.705 6.156-4.85 10.026-6.435 3.824-1.586 7.974-2.332 12.451-2.332s8.58.793 12.404 2.285c3.824 1.539 7.135 3.637 9.98 6.342 2.844 2.705 5.036 5.876 6.621 9.513 1.586 3.637 2.378 7.554 2.378 11.751v.187c0 4.197-.792 8.114-2.424 11.751-1.633 3.637-3.87 6.855-6.669 9.56-2.844 2.704-6.155 4.85-10.026 6.435-3.87 1.585-8.02 2.332-12.45 2.332zm.187-17.021c1.819 0 3.45-.373 4.943-1.073a11.533 11.533 0 003.777-2.844c1.026-1.166 1.819-2.518 2.379-4.057.56-1.54.839-3.171.839-4.85v-.187c0-1.725-.28-3.357-.886-4.896-.56-1.585-1.4-2.938-2.425-4.15-1.026-1.213-2.332-2.192-3.777-2.891-1.492-.7-3.171-1.073-5.036-1.073-1.82 0-3.451.373-4.943 1.073a11.533 11.533 0 00-3.778 2.844 12.246 12.246 0 00-2.378 4.057 14.144 14.144 0 00-.84 4.85v.186c0 1.726.28 3.358.887 4.897.56 1.585 1.399 2.938 2.425 4.15a11.047 11.047 0 003.777 2.891c1.492.7 3.124 1.073 5.036 1.073zm36.653-41.876h28.212c5.176 0 9.42.606 12.73 1.772 3.312 1.166 6.016 2.798 8.021 4.803 1.773 1.772 3.078 3.73 3.964 5.923.886 2.191 1.306 4.803 1.306 7.74v.187c0 4.244-1.026 7.788-3.031 10.725-2.052 2.892-4.803 5.223-8.347 6.902l13.43 19.632h-22.01l-10.866-16.508h-4.15v16.508h-19.306v-57.684zm27.606 27.42c2.285 0 4.104-.513 5.456-1.492 1.306-.98 1.959-2.379 1.959-4.104v-.186c0-1.866-.653-3.265-1.959-4.15-1.306-.887-3.124-1.353-5.363-1.353h-8.393v11.285zm33.948-27.42h19.306v41.176h27.093v16.508h-46.399zm51.062 0h22.104c5.736 0 10.725.653 15.062 2.005 4.29 1.353 7.88 3.265 10.772 5.736a23.686 23.686 0 016.435 8.954c1.446 3.497 2.145 7.367 2.145 11.658v.186c0 4.29-.746 8.207-2.191 11.798-1.446 3.59-3.638 6.668-6.576 9.233-2.937 2.565-6.575 4.57-10.958 6.016-4.384 1.445-9.466 2.145-15.295 2.145h-21.451zm22.477 40.85c4.43 0 7.974-.933 10.585-2.845 2.612-1.912 3.917-4.943 3.917-9.093v-.186c0-4.197-1.305-7.228-3.917-9.094-2.611-1.912-6.155-2.844-10.585-2.844h-3.218v24.062z"/>
 </g>
 <polygon class="st1" transform="matrix(.4666 0 0 .4666 9.1873 159.54)" points="415.2 188.3 451.3 188.3 491.8 63.7 449.2 63.7 413.7 184" fill="#939598"/>
 <polygon class="st1" transform="matrix(.46631 0 0 .46631 9.3179 159.59)" points="335.7 221.5 295.2 346.1 337.8 346.1 373.3 225.8 371.7 221.5" fill="#939598"/>
</svg>
