<svg width="512" height="512" xml:space="preserve" xmlns="http://www.w3.org/2000/svg">
    <g fill="#113547">
    <path d="M19.52 220.57c-6.94 15.468-10.172 30.99-10.172 45.24 10.171-9.8 19.23-22.779 25.64-38.3 6.94-15.47 10.172-30.992 10.172-45.242-9.695 9.8-19.072 22.833-25.64 38.301z"/>
    <path d="M34.247 226.768c-9.43 21.19-13.88 42.01-14.25 60.71 13.508-13.032 25.64-30.62 35.07-51.44 8.899-20.82 13.508-42.01 13.879-60.71-13.51 13.032-25.746 30.62-34.7 51.44z"/>
    <path d="M100.678 165.951c-18.33 17.588-35.07 41.64-47.307 69.77-12.238 28.13-18.383 56.578-18.754 82.377 18.33-17.588 35.07-41.64 47.308-69.77 12.131-28.13 18.7-57.107 19.071-82.377z"/>
    <path d="M143.536 153.29c-24.422 23.68-46.83 55.89-63.571 94.191-16.37 37.56-24.422 76.18-24.899 110.508 24.899-23.68 47.307-55.89 63.571-94.191 16.74-38.249 24.899-76.656 25.27-110.879z"/>
    <path d="m155.296 184.44 24.422 63.094h8.635l14.516-36.924 14.62 36.924h8.636l24.422-63.094h-15.098l-13.986 37.295-14.78-37.295h-7.523l-14.78 37.295-14.039-37.295zM265.327 215.96c0 8.795 6.622 16.052 15.151 17.059v18.17c-18.541-1.06-33.269-16.37-33.269-35.228 0-18.807 14.728-34.17 33.27-35.23v18.171c-8.583 1.06-15.152 8.318-15.152 17.059zm19.124-35.175v18.17c8.53 1.007 15.151 8.265 15.151 17.059s-6.622 16.051-15.15 17.058v18.17c18.54-1.06 33.321-16.37 33.321-35.228 0-18.86-14.727-34.223-33.322-35.23zM366.67 225.496c8.794-2.808 13.19-10.648 13.19-19.972 0-11.654-11.336-21.031-25.269-21.031h-30.673v63.041h14.78v-19.442h12.344l12.979 19.442h17.323zm-27.919-28.66h17.112a9.36 9.36 0 0 1 9.376 9.377 9.36 9.36 0 0 1-9.376 9.377H338.75zM401.58 235.138V184.44H386.8v63.094h45.772v-12.396zM470.025 184.44h-31.361v63.041h31.361c17.376 0 31.521-14.144 31.521-31.52 0-17.377-14.145-31.521-31.52-31.521zm0 50.698h-16.581v-38.302h16.581c9.377 0 17.059 8.53 17.059 19.125s-7.682 19.177-17.059 19.177zM155.296 260.036l26.594 66.962h4.08l17.852-44.87 17.906 44.87h4.026l26.647-66.962h-11.337l-17.588 46.142-17.323-46.142h-4.609l-17.323 46.142-17.588-46.142zM278.412 260.036h-3.867l-33.375 66.909h10.383l6.781-13.668h36.13l6.78 13.668h10.384zm-15.363 44.023 13.456-27.017 13.456 27.017zM333.189 268.566h24.634v-8.53h-59.174v8.53h24.58v58.432h9.96zM391.356 319.528c-13.561 0-23.892-11.601-23.892-25.958 0-14.356 10.33-25.958 23.892-25.958 13.456 0 19.92 6.357 22.462 15.416h9.695c-2.702-13.933-11.814-23.945-32.474-23.945-19.178 0-33.958 15.469-33.958 34.593 0 19.124 14.78 34.593 33.958 34.593 20.66 0 29.772-10.065 32.474-23.945h-9.695c-2.543 8.847-9.059 15.204-22.462 15.204zM442.743 326.998v-27.124h45.188v27.124h9.96v-66.962h-9.96v31.415h-45.188v-31.415h-9.96v66.962z"/>
	</g>
</svg>
