<svg xmlns="http://www.w3.org/2000/svg" height="512" width="512">
    <path fill="#fff" d="M88.07 196.726l-2.281 2.276c-8.172 8.172-16.74 19.706-23.894 32.164a223.814 223.814 0 00-5.317 9.841 53.828 53.828 0 01-1.585 2.972c-.021-.021.47-1.542 1.092-3.377 4.228-12.487 6.627-24.255 6.923-33.999l.08-2.406-1.55 1.521c-7.354 7.247-14.589 17.498-21.143 29.969-.793 1.51-1.46 2.73-1.485 2.71a14.16 14.16 0 01.478-1.545c3.04-8.952 4.911-18.031 5.14-24.932l.07-2.153-1.818 1.837c-4.691 4.732-9.724 11.737-13.689 19.054-1.668 3.082-2.145 3.93-2.065 3.684a91.812 91.812 0 003.166-12.332c.542-3.064.993-8.13.73-8.13-.158 0-2.433 2.419-3.638 3.866-9.556 11.462-16.5 28.626-17.238 42.644-.08 1.497-.078 1.506.188 1.369.355-.192 2.824-2.911 4.262-4.7a74.717 74.717 0 006.303-9.296c1.4-2.418 1.643-2.808 1.585-2.604l-1.09 3.295a97.19 97.19 0 00-2.497 8.517c-1.363 5.52-2.208 11.102-2.4 15.851l-.076 1.901 1.768-1.794c4.982-5.062 9.576-11.538 14.354-20.223.7-1.267 1.224-2.182 1.174-2.044-3.002 8.339-4.627 13.734-6.074 20.201-1.535 6.838-2.603 14.852-2.586 19.435v1.645l2.239-2.278c6.846-6.971 13.646-16.563 19.538-27.541 1.222-2.277 1.933-3.536 1.825-3.228a758.606 758.606 0 01-1.877 5.205c-4.561 12.508-8.012 26.893-9.442 39.368-.43 3.72-.908 11.612-.72 11.8.2.2 5.553-5.396 8.571-8.953 22.499-26.551 39.126-65.54 42.52-99.713.304-3.077.552-7.484.502-8.864zm95.175 34.294c-.748.013-1.364.043-1.722.092-9.898 1.347-17.19 7.827-19.63 17.442-1.388 5.483-1.141 12.061.652 17.37.45 1.342 1.689 3.882 2.485 5.103 3.682 5.654 9.757 9.104 17.558 9.972 1.697.187 5.678.185 7.154-.003 9.069-1.164 15.51-6.202 18.19-14.212.522-1.56 1.123-4.168 1.123-4.885v-.408h-14.88l-.341 1.418c-.61 2.522-1.848 4.473-3.52 5.545-1.4.905-3.66 1.304-5.761 1.025-4.616-.613-6.988-3.391-7.739-9.05-.262-1.992-.189-7.028.128-8.754.621-3.365 1.65-5.586 3.319-7.145 1.505-1.41 3.026-1.962 5.366-1.941 4.46.042 7.348 2.389 8.182 6.659l.216 1.1h14.778l-.076-.532a29.52 29.52 0 00-1.077-4.836c-2.523-7.705-8.396-12.315-17.46-13.695-1.264-.194-4.702-.303-6.945-.264zm222.96 1.208v47.779l11.943-.064c12.734-.067 13.149-.08 16.417-.74 9.982-2 15.72-8.238 17.163-18.658a35.145 35.145 0 00-.207-11.593c-.746-3.881-2.453-7.385-4.867-9.974-2.627-2.823-6.78-5.022-11.267-5.968-3.336-.705-2.716-.676-16.417-.73zm-316.544.012l1.007 2.945 8.15 23.836 7.138 20.895 7.836.033 7.83.028 8.222-23.706 8.277-23.872c.042-.126-1.574-.159-7.799-.159h-7.854l-.335 1.235-4.292 15.712c-2.176 7.963-4.013 14.472-4.076 14.476-.067.005-1.98-7.051-4.253-15.678l-4.127-15.678-7.858-.033zm50.89 0v47.737h15.572V232.24zm73.821 0v47.737h39.886V268.84H229.95v-7.595h21.272v-11.021H229.95v-6.963h23.422v-11.02zm46.724 0v47.737h37.099V268.84h-21.528v-36.6zm56.853 0l-.107.283a24666.66 24666.66 0 00-8.505 23.715l-8.447 23.58c-.046.125 1.482.154 7.574.125l7.635-.027.891-3.136.898-3.13h15.699l.69 2.375.922 3.16.234.792h15.465l-.073-.283c-.041-.159-3.875-10.903-8.52-23.87l-8.453-23.584zm35.459 0v23.87h-.01v23.867h14.949v-7.754c-.008-6.459-.06-8.616-.301-12.886a115.453 115.453 0 01-.238-5.19c.034-.037.147.05.268.205.117.146 3.94 5.961 8.505 12.937l8.292 12.675 7.316.01 7.307.002V232.24h-14.94l.007 7.949c.008 6.496.057 8.851.286 12.912.167 2.952.23 4.956.155 4.931-.063-.02-3.905-5.837-8.53-12.913l-8.42-12.879zm104.327.66v24.04h5.756v-10.193h8.496v10.193h5.755v-24.037h-5.755v9.163h-8.493v-9.163zm23.256 0v24.04h6.074c3.348 0 5.862-.258 7.538-.775a10.382 10.382 0 006.638-6.403 14.468 14.468 0 00.757-4.867c0-1.793-.248-3.398-.76-4.816a10.382 10.382 0 00-2.337-3.744 9.807 9.807 0 00-4.27-2.644c-1.656-.525-4.176-.79-7.566-.79zm5.755 4.688h2.065c2.364 0 4.169.623 5.403 1.874 1.234 1.242 1.852 3.052 1.852 5.433 0 2.393-.625 4.22-1.867 5.475-1.235 1.255-3.032 1.889-5.388 1.889h-2.065zm-64.966 5.67h2.118c1.167 0 2.769.063 3.552.134 5.462.513 7.954 2.869 8.78 8.289.275 1.785.239 6.633-.061 8.213-.53 2.814-1.361 4.544-2.92 6.099-1.23 1.226-2.519 1.943-4.354 2.418-1.096.292-1.549.334-4.167.393l-2.948.07zm-96.072 3.498c.031-.023.064-.023.089.006.058.059 1.2 3.845 2.543 8.402 1.334 4.557 2.46 8.366 2.494 8.453.042.125-1 .158-4.961.158-4.724 0-5.02-.013-4.962-.222l2.355-8.325 2.363-8.341a.255.255 0 01.08-.13z"/>
</svg>
