<svg version="1.1" viewBox="0 0 512 512" xmlns="http://www.w3.org/2000/svg">
 <path d="m224.21 164.06c-4.6592 0.14059-9.3182 1.5148-13.215 4.0898-1.3928 1.0528-2.3123 2.7776-4.1113 3.2266-1.9801 0.65694-4.0982 0.0126-5.8162-1.035-1.7807-1.0157-3.583-2.0605-5.6183-2.4681-5.1038-1.2903-10.53-1.2111-15.637 0.0175-6.1742 1.6718-11.489 5.7551-15.429 10.712-2.4865 3.1635-4.1758 6.9478-4.751 10.938-0.77132 4.588-0.8116 9.4105 0.61338 13.877 1.0001 2.687 2.338 5.2767 2.7846 8.1393 0.36915 0.71439-0.67323 0.83875-1.0731 1.2317-1.2162 0.84034-2.5863 1.5545-4.1007 1.5478-6.7915 0.78485-13.846 0.28279-20.36 2.6912-7.3157 2.6246-13.36 7.9846-17.85 14.229-3.4794 4.8342-6.1169 10.34-7.349 16.182-0.60293 5.2884-0.66545 10.619-0.89491 15.932-0.47595 14.6-0.61432 29.309-0.66273 43.955 0.0159 4.0407-0.0168 8.1053 0.52203 12.116 0.51794 2.4046 2.1093 4.4385 3.8611 6.0966 3.0355 2.7908 7.1865 4.0512 11.253 4.1188 3.3402 0.0752 6.7446-0.37247 9.8617-1.6062 2.504-1.0789 4.4413-3.2704 5.2767-5.8586 0.99325-2.6142 1.3546-5.522 1.5077-8.2006 0.22682-5.1061 0.0748-10.22 0.12041-15.33v-1.9121c3.9161-0.36478 7.8417-0.6196 11.754-1.0254 0.81396-0.0891 1.9025-0.23869 2.8113-0.43996 7.2412-1.4695 14.131-4.6634 19.911-9.2702 1.6215-1.2504 3.2584-2.4804 4.893-3.7137 3.8435 3.2986 7.3046 7.0834 11.569 9.8616 5.965 3.9046 13.177 5.703 20.275 5.4256 4.7794-0.15812 9.5421-1.0415 14.063-2.5939 2.2105-0.99817 4.361-2.3067 6.8354-2.5101 1.3888 0.55001 2.9037 1.4346 3.2629 3.022 0.64814 2.2632 0.5082 4.6492 0.67466 6.976 0.13744 4.1964 0.0312 8.5491 0.19643 12.647 0.0501 1.0454 0.0929 1.8706 0.18824 2.9316 0.29811 2.7092 0.44085 5.6324 2.0209 7.9584 1.1179 1.4977 3.032 2.0519 4.7375 2.5894 4.2032 1.0699 8.9718 0.63153 12.609-1.8567 2.3072-1.588 3.8892-4.1064 4.1127-6.9108 0.38812-4.0141 0.22989-8.0569 0.28442-12.084-0.0124-3.6728-7e-3 -7.3456-3e-3 -11.018 4.1756-0.11466 8.3681-0.16326 12.485-0.3106 5.8077-0.2102 11.498-2.3445 16.046-5.9537 3.4028-2.7089 6.4437-5.8303 9.6881-8.7201 1.0452-0.17647 2.1657 0.0736 2.8727 0.90623 1.4646 1.4184 3.01 2.8406 4.4455 4.194 3.1098 2.9435 6.7355 5.3217 10.593 7.1657 2.099 1.0291 4.3964 1.629 6.7369 1.6838 1.1115 0.0893 2.3219 0.14767 3.3092 0.18723 8.4498 0.22555 16.904 0.0348 25.355 9.7e-4 11.036-0.10534 22.075-0.16455 33.108-0.4563 0.77472-0.0252 1.5858-0.0475 2.3475-0.092 0.95871-0.0433 1.7964-0.0988 2.8085-0.18134 2.0693-0.20301 4.2446-0.30073 6.0635-1.4307 3.5467-2.0871 7.1013-4.1631 10.65-6.249-1e-3 2.8542-4e-3 5.7083-4e-3 8.5625 3.6122 0.27008 7.2384 0.31403 10.857 0.49016 2.2854 0.0892 4.5709 0.17879 6.8563 0.26765 0.19582 19.833 0.24354 39.668 0.60813 59.498 0.0713 2.7119 0.15437 5.3978 0.34109 8.1365 0.0616 0.83789 0.17805 1.9513 0.29865 2.8968 0.10576 0.69061 0.16867 1.6282 1.0293 1.7636 1.2119 0.36317 2.4997-0.23484 3.4201-0.97297 0.61851-3.6966 0.46993-7.4657 0.57422-11.199 0.1722-14.794-0.0616-29.59 0.20774-44.383 0.15711-3.7677 0.16447-7.5821 0.97995-11.28 0.56232-2.3349 1.9546-4.7526 4.3938-5.4766 2.386-0.84379 4.8562 0.0284 7.2347 0.41087 1.3647 0.26115 2.7293 0.52232 4.094 0.78345 0.20531 7.8614 0.40882 15.723 0.62304 23.584 0.0826 1.8761 0.11334 3.9527 0.28453 5.9023 0.15266 1.0622 0.12389 2.2064 0.55727 3.1953 0.89557 1.1207 2.5047 1.8772 3.8945 1.209 1.416-0.55081 2.4899-1.8884 2.5517-3.4315 0.19781-1.5438 0.28432-3.1164 0.33502-4.5831 0.17966-8.9254 0.0587-17.854 0.0976-26.78 12.971 0 25.941 1e-5 38.912 0-0.0506-11.241 0.18338-22.491-0.34519-33.723-0.11584-2.2568-0.28035-4.5109-0.51028-6.7591-0.0855-0.73553-0.19385-1.7612-0.3216-2.6092-0.61695-4.7895-1.9596-9.5703-4.6472-13.631-4.9651-7.8378-13.497-13.085-22.577-14.647-7.7856-1.4006-15.948-0.31891-23.191 2.7215-1.4682 0.65101-3.1532 1.0492-4.7098 0.449-1.941-0.62709-3.2647-2.3276-4.058-4.1326-1.141-2.2-1.4341-4.9716-0.13983-7.1763 1.4773-2.8636 3.8279-5.1311 5.8982-7.5587 1.0433-1.1632 2.0835-2.3293 3.1297-3.4899-6.3958-0.17084-12.792-0.33942-19.188-0.51171-3.4585-4.7996-6.8674-9.6355-10.379-14.396-1.7117 5.6388-3.3457 11.301-5.0117 16.953-5.6935 1.7754-11.395 3.5262-17.078 5.334 4.7151 2.4487 9.4754 4.8104 14.124 7.3857 2.6112 1.4048 5.2219 2.8106 7.8328 4.2159-7.7315 0.26956-15.464 0.5225-23.2 0.59266-4.8675 0.1941-9.9654 0.59491-14.284 3.0597-2.2657 1.3481-4.2067 3.1863-6.4226 4.5898-1.2271 0.62404-2.6875-0.2251-3.1803-1.4227-2.1759-3.1481-4.3259-6.4107-7.3098-8.8759-5.9504-5.1116-13.476-8.2228-21.197-9.387-0.45487-0.0595-1.2617-0.17327-1.8554-0.23244-6.2154-0.66735-12.609-7e-3 -18.453 2.2628-2.1497 0.698-4.4074 1.5638-6.7026 1.2123-1.9201-0.30396-3.4151-1.6337-4.7981-2.8937-2.5231-1.9356-5.5007-3.2226-8.5359-4.1124-1.5063-0.40073-3.2133-0.0762-4.5361-1.0666-1.79-1.1297-2.5833-3.2915-2.564-5.3368-0.21632-4.381 0.54098-8.7522 0.31496-13.132-0.17102-2.7558-1.6013-5.1741-2.8067-7.5832-2.3873-4.7283-5.9536-8.9251-10.535-11.645-4.0831-2.5001-8.8739-3.7722-13.657-3.6977-4.7876-0.0403-9.6646 0.48038-14.156 2.215-2.4122 1.0349-4.7268 2.3086-7.0715 3.4636-1.2277 0.44024-2.4329-0.31191-3.2575-1.1745-2.1644-1.7766-4.2072-3.8093-6.8155-4.934-1.8451-0.854-3.9852-1.5344-6.0633-1.8985-1.8205-0.33189-3.6746-0.47431-5.5246-0.44328z" fill="#fff"/>
 <g fill="#f9a351">
  <path d="M150.627 140.852c-.968 1.196-7.352 8.815-14.191 16.942-14.015 16.643-23.436 30.334-34.499 50.14-4.22 7.554-7.327 12.704-6.902 11.445 2.821-8.359 6.645-23.149 7.993-30.91 1.684-9.728 3.57-32.62 2.682-32.62-.75 0-15.522 17.514-21.439 25.41-2.695 3.597-8.178 12.305-12.213 19.401-4.042 7.1-7.327 12.65-7.327 12.365 0-.283 1.25-5.437 2.792-11.506 2.615-10.3 5.912-33.934 4.877-34.944-.46-.447-12.66 13.77-18.298 21.325-1.647 2.203-5.361 8.128-8.259 13.165-2.897 5.036-4.99 8.127-4.649 6.864 3.39-12.592 4.325-17.182 4.898-24.038l.665-8.01-2.632 2.287c-4.695 4.085-16.129 20.26-20.626 29.192-2.371 4.7-5.685 12.933-7.328 18.201-3.007 9.615-6.742 29.892-6.098 33.08.438 2.181 13.594-14.079 18.985-23.465 2.236-3.892 4.181-6.995 4.308-6.869.126.126-1.23 4.691-3.024 10.191-3.479 10.642-7.201 32.57-6.603 38.916l.353 3.778 8.014-9.446c4.397-5.18 10.697-13.964 13.965-19.456 3.268-5.496 6.443-10.793 7.041-11.737.602-.947-.859 5.955-3.268 15.456-3.975 15.682-8.696 46.163-7.803 50.366.223 1.04 4.62-3.432 11.138-11.332 12.192-14.765 16.989-21.73 24.14-35.03 2.707-5.036 5.053-9.028 5.213-8.868.156.155-1.727 7.496-4.182 16.31-2.455 8.814-5.727 22.206-7.273 29.76-2.88 14.083-6.927 46.366-6.115 48.767.716 2.114 18.543-18.774 27.352-32.052l7.9-11.905v-24.383c0-13.392.573-27.116 1.272-30.448 3.989-19 18.126-35.163 35.476-40.554 6.523-2.03 6.523-2.03 8.288-8.439 2.93-10.633 5.1-23.924 6.447-39.493.716-8.241 1.541-16.053 1.853-17.514.661-3.087-.581-3.235-2.923-.342"/>
  <path d="M219.607 160.523c-5.382 1.01-10.75 3.559-12.802 6.085-1.23 1.516-1.853 1.445-5.285-.606-5.466-3.264-15.792-4.026-23.583-1.74-8.127 2.384-16.424 9.548-20.075 17.343-3.221 6.864-3.68 17.847-1.01 24.151.968 2.29 1.743 4.25 1.743 4.41 0 .155-4.295.517-9.446.8-6.982.378-11.172 1.309-16.082 3.575-11.573 5.335-21.73 18.457-24.657 31.853-.602 2.767-1.276 20.488-1.5 39.375-.378 32.625-.286 34.537 1.896 38.234 4.61 7.837 13.391 11.114 24.378 9.092 10.065-1.853 13.965-8.292 13.965-23.056v-9.615l7.327-.619c7.783-.657 17.435-4.434 23.92-9.361l3.896-2.956 4.35 3.958c8.97 8.178 20.256 11.488 33.08 9.703 4.236-.59 9.154-1.84 10.99-2.788 1.832-.948 3.601-1.714 3.946-1.714.35 0 .632 5.605.632 12.592 0 15.223 1.524 19.872 7.328 22.32 8.127 3.427 17.982 1.187 22.13-5.038 2.24-3.364 2.594-5.377 2.594-14.882v-10.991l7.327-.165c8.928-.202 15.843-3.082 22.779-9.487l5.036-4.654 4.464 4.178c2.49 2.333 7.096 5.394 10.415 6.927 5.938 2.737 6.068 2.746 42.929 2.4 35.83-.328 37.101-.42 41.266-2.859l4.291-2.518v2.746c0 2.661.286 2.762 8.873 3.09l8.87.346.285 34.28c.253 29.878.531 34.552 2.194 36.346 2.304 2.49 5.993 2.599 9.312.274 2.51-1.756 2.518-1.874 2.518-35.871 0-36.747.055-37.08 5.837-35.964l3.09.59.4 15.455c.384 14.764.527 15.552 3.15 17.674 3.344 2.704 7.653 2.127 10.664-1.419 1.71-2.013 2.042-4.81 2.042-17.173v-14.765H502v-20.947c0-22.437-1.15-31.904-4.733-38.92-9.265-18.12-32.124-25.166-52.843-16.289-1.449.623-2.278.093-3.26-2.084-1.23-2.725-.8-3.491 6.41-11.505l7.728-8.583-12.937-.345-12.933-.341-6.814-9.5c-3.773-5.265-6.99-9.3-7.21-9.047-.218.253-1.831 5.323-3.55 11.16l-3.145 10.705-10.305 3.205c-5.723 1.781-11.063 3.512-12.019 3.891-1.12.45 1.263 2.215 6.869 5.096l8.586 4.405-6.868.08c-9.046.105-15.064 1.562-19.233 4.661l-3.318 2.472-1.828-2.632c-9.77-14.095-32.174-20.786-49.457-14.781-6.178 2.148-6.334 2.148-8.582.025-2.733-2.581-9.846-5.735-12.937-5.735-1.992 0-2.131-.746-1.66-8.874.485-8.355.295-9.302-3.352-16.31-4.253-8.17-11.126-13.825-19.599-16.108-6.982-1.882-18.706-.905-24.724 2.064l-5.036 2.485-3.205-2.696c-5.336-4.489-14.537-6.582-22.438-5.108zm-23.924 16.386c7.328 3.057 13.14 13.278 7.555 13.278-1.373 0-2.29-.733-2.29-1.832 0-1.01-1.487-3.318-3.32-5.15-2.8-2.796-4.236-3.319-9.158-3.319-7.328 0-9.636 1.146-11.569 5.728-2.366 5.609 1.04 9.193 11 11.576 10.414 2.493 13.013 3.643 16.508 7.307 2.034 2.14 2.834 4.236 2.834 7.441 0 11.265-16.596 17.4-29.302 10.831-6.295-3.255-10.713-14.267-5.727-14.267 1.461 0 2.464 1.377 3.437 4.695 1.073 3.664 2.231 5.05 5.264 6.309 8.245 3.42 19.27.85 20.715-4.822 1.823-7.189-1.6-9.99-16.706-13.67-8.587-2.093-12.365-5.218-13.224-10.94-1.583-10.525 12.192-18.088 23.983-13.165zm79.555.644c7.1 3.61 11.269 12.634 5.84 12.634-1.372 0-2.29-.733-2.29-1.832 0-1.01-1.487-3.318-3.319-5.15-2.787-2.788-4.236-3.319-9.045-3.319-7.437 0-11.674 3.117-11.674 8.587 0 4.885 2.518 6.645 12.933 9.046 10.073 2.32 14.112 4.476 16.289 8.696 6.388 12.36-7.357 22.627-23.844 17.81-6.982-2.043-10.17-5.324-11.64-11.973-.758-3.432-.598-3.74 1.798-3.378 1.866.287 2.898 1.432 3.546 3.95 1.423 5.517 4.696 7.728 12.137 8.191 10.991.683 17.999-6.018 13.476-12.886-1.74-2.645-4.435-3.714-18.858-7.47-7.096-1.854-10.402-5.56-10.36-11.645.042-5.837 2.359-9.235 7.96-11.648 5.49-2.371 11.917-2.228 17.055.387zm-37.312.413c5.146 2.127 6.865 4.666 6.865 10.162 0 3.89-.674 5.407-3.55 7.959-3.201 2.838-3.336 3.209-1.373 3.832 3.9 1.234 6.868 6.182 6.868 11.446 0 3.891-.716 5.643-3.432 8.355-4.098 4.098-7.328 4.81-21.865 4.81h-11.332v-48.08h12.078c7.555 0 13.446.564 15.737 1.512zm188.297 33.47c3.091 2.136 3.411 7.943.61 11.034-1.056 1.167-3.356 2.06-5.301 2.06-7.441 0-10.44-7.976-4.692-12.482 3.664-2.877 5.896-3.02 9.383-.611zm-258.01 15.789c9.956 5.837 16.643 19.283 15.11 30.388-1.676 12.128-10.401 23.288-21.06 26.922-6.527 2.224-16.31 2.3-21.406.169l-4.009-1.685v20.27l-7.723 6.927-7.728 6.923-.307-32.738c-.358-38.002.16-41.254 7.959-50.14 2.653-3.014 7.454-6.75 10.663-8.278 8.128-3.883 20.694-3.332 28.501 1.246zm178.574-2.207c5.377 2.253 12.953 9.357 15.846 14.849 1.997 3.794 2.557 7.269 2.927 18.146l.46 13.45h11.218c8.469 0 11.551-.408 12.592-1.663 1.14-1.38.454-2.286-4.123-5.432-10.419-7.147-12.103-9.096-12.655-14.655-.375-3.778.088-6.098 1.73-8.7 3.732-5.905 8.406-7.328 24.09-7.328 7.668 0 13.85.231 13.85.518 0 .286-.817 2.232-1.853 4.405-2.468 5.2-6.961 7.668-13.943 7.668-9.846 0-10.065 4.624-.46 9.594 4.464 2.307 9.025 7.828 9.947 12.044 1.222 5.592-2.85 13.16-8.687 16.141-4.33 2.216-6.865 2.536-21.06 2.67-18.088.169-20.821-.724-24.325-7.938l-1.89-3.891-2.106 3.318c-4.776 7.526-20.1 10.63-29.26 5.93-9.896-5.083-15.396-14.857-15.501-27.563-.118-13.855 6.102-24.42 17.792-30.245 6.864-3.42 18.908-4.043 25.41-1.318zm81.672 35.459l-.282 26.438h-12.591l-.346-14.883c-.19-8.241-.012-19.986.4-26.324l.746-11.45 6.182-.114 6.178-.114zm-206.443-24.404c10.516 2.905 18.95 15.93 17.426 26.918-1.933 13.964-12.574 23.351-26.472 23.351-10.414 0-17.653-4.851-22.21-14.878-2.779-6.128-2.99-11.678-.69-18.201 4.851-13.737 18.277-20.96 31.946-17.19zm60.326 1.945c14.878 7.538 18.05 26.64 6.578 39.628-5.61 6.342-12.301 9.084-20.66 8.464-3.319-.252-6.974-.867-8.069-1.368-1.815-.834-2.005 0-2.005 8.928v9.841l-5.95 6.582c-3.314 3.664-6.384 6.764-6.927 6.987-.556.227-.826-12.71-.632-30.338.32-28.501.526-31.108 2.783-35.884 6.717-14.192 21.478-19.628 34.882-12.84zm189.56.94c2.746 1.595 6.317 4.926 8.069 7.55 3.087 4.603 3.15 5.037 3.15 22.551v17.856h-16.142c-15.91 0-16.217-.046-21.687-3.432-4.014-2.485-6.452-5.155-8.78-9.619-12.13-23.237 12.923-47.949 35.39-34.91"/>
  <path d="M214.684 189.042v8.014h10.305c12.02 0 14.879-1.63 14.879-8.47 0-6.063-2.978-7.554-15.11-7.554h-10.074v8.01m0 21.637v9.273h10.76c13.278 0 16.142-1.604 16.142-9.046 0-7.441-2.064-8.654-15.455-9.109l-11.447-.391v9.273m-68.68 30.75c-15.148 7.61-10.301 29.723 6.409 29.252 5.466-.156 10.482-3.685 13.202-9.29 3.959-8.162.649-16.921-7.706-20.383-5.037-2.084-7.058-2.017-11.906.421m180.292.253c-9.994 6.603-9.728 22.74.455 28.005 2.354 1.217 6.695 1.777 13.796 1.777h10.36l-.035-9.391c-.058-15.91-4.893-22.66-16.221-22.66-2.978 0-6.28.896-8.355 2.269m-119.675 11.35c-3.803 3.836-4.376 8.586-1.668 13.854 3.117 6.064 11.96 6.662 16.93 1.141 4.32-4.809 4.24-10.54-.211-14.992-4.582-4.581-10.507-4.581-15.051 0m58.544-1.697c-6.177 3.454-7.5 11.076-2.872 16.576 2.502 2.969 3.79 3.55 7.91 3.55 6.754 0 10.847-4.08 10.805-10.764-.034-5.15-1.36-7.56-5.306-9.644-3.293-1.735-7.1-1.634-10.537.282m187.047 2.093c-1.77 1.533-3.235 4.296-3.61 6.814-.543 3.664-.164 4.704 2.805 7.724 3.1 3.15 4.123 3.495 10.419 3.495h6.982v-7.841c0-6.755-.366-8.187-2.632-10.314-3.529-3.31-10.073-3.25-13.964.118"/>
 </g>
</svg>
