<svg version="1.1" viewBox="0 0 512 512" xmlns="http://www.w3.org/2000/svg">
 <path d="m230.78 172.36c-8.3688 0.2155-16.363 3.6196-23.117 8.416-0.54607 0.39602-1.3479 0.9703-1.9782 1.4588-0.78951 0.60644-1.5612 1.2354-2.3383 1.8576-5.4744-0.78266-11.152-0.84137-16.494 0.75-6.4254 1.8321-11.991 6.0862-15.897 11.456-3.387 4.5346-5.6629 9.7725-7.5214 15.087-2.6889-1.135-5.5166-1.888-8.3893-2.3834-9.6495-1.6783-19.795-1.4514-29.117 1.7468-7.6609 2.5902-14.512 7.5329-19.294 14.065-1.0674 1.4354-2.0402 2.9405-2.9283 4.4932-0.52995 0.91316-1.1365 2.0765-1.64 3.1184-1.6893 3.6074-3.1297 7.364-3.9635 11.266-0.88042 4.4343-1.2842 8.9468-1.5762 13.453-0.08244 1.4066-0.16935 3.0504-0.22164 4.5491-0.22457 5.9663-0.23548 12.12-0.11716 18.16 0.12529 6.2186 0.3657 12.391 0.71184 18.635 0.1509 2.7402 0.34797 5.5426 0.53134 8.3083 0.64386 5.0706 3.6964 10.056 8.4936 12.133 3.7022 1.6507 7.904 1.5387 11.817 0.85123 4.9563-0.18563 9.6636-2.369 13.561-5.3429 4.4273-3.37 7.7661-7.9407 10.431-12.778 2.1671 0.54748 4.407 0.88502 6.6427 0.61753 4.1788-0.34548 8.1081-1.9593 12.23-2.6039 1.7477-0.27522 3.8823 0.0795 4.8332 1.7437 0.40805 0.83553 0.96514 1.352 1.5543 2.1064 4.4613 5.278 9.4669 10.24 15.45 13.776 3.7075 2.2231 7.9586 3.2953 12.174 4.0611 6.7051 1.1414 13.685 0.99452 20.234-0.93674 0.47401 4.7e-4 1.4478-0.62907 1.5936-0.21488-0.17972 3.7354-0.0828 7.5344 0.96582 11.15 1.0021 3.6774 3.1003 7.3841 6.6965 9.0348 3.6762 1.4946 7.69 2.3082 11.667 2.0407 4.4113-0.28196 8.4735-2.3119 12.052-4.7889 3.4029-2.2538 6.7302-5.0544 10.894-5.6857 3.7654-0.56726 7.5146 1.1281 10.321 3.5413 1.8537 1.5716 2.9665 4.1711 2.2158 6.57-0.8711 2.876-3.2975 4.9212-5.7051 6.543 5.1188 3.3652 11.079 5.9969 17.324 5.7355 5.1318-0.1743 9.9554-2.6101 13.682-6.05 0.25639-0.24305 0.79202-0.735 1.1444-1.0993 3.3368-3.3224 5.8339-7.3539 8.1056-11.448 2.1043 1.6051 4.2264 3.6991 7.032 3.7996 2.1278 0.0226 3.5099-1.9258 4.3488-3.6453 0.77133-1.622 1.0935-3.8074-0.24219-5.2363-1.6163 1.8473-4.2512 3.049-6.6854 2.2286-0.92657-0.29222-1.7622-0.80675-2.6447-1.2052 1.1794-3.2546 2.3525-6.5716 2.5367-10.06 5e-3 -0.66574 1.0659-0.21064 1.5322-0.38686 6.406-0.29702 12.837-0.5168 19.181-1.5176 0.6001-0.0981 1.526-0.25325 2.2449-0.40157 6.6402-1.2369 12.996-3.9554 18.434-7.9683 1.9635-1.4011 3.785-2.9854 5.6278-4.5384 4.7563 4.8907 10.42 9.0188 16.817 11.472 2.6025 1.0124 5.3576 1.5524 8.1304 1.8095 1.7382 0.24189 3.4878 0.36945 5.158 0.48227 4.421 0.29658 9.0599 0.45036 13.528 0.57 21.258 0.50149 42.524 0.39938 63.785 0.20816 7.8012-0.0892 15.608-0.16282 23.404-0.35163 3.8688-0.73726 7.7223-2.9788 9.3338-6.7184 1.1184-2.3818 1.0865-5.0571 1.0458-7.6279 0.0677-19.698 0.13791-39.396 0.20412-59.094 2.0205-6.7552 1.987-14.242-0.81834-20.773-1.1636-2.7497-2.7749-5.3068-4.7442-7.5509-0.21827-0.23687-0.69486-0.77365-1.0314-1.1069-2.0561-2.101-4.4444-3.8765-7.0506-5.2368-0.37963-0.18849-1.0816-0.54672-1.6048-0.76867-6.261-2.812-13.753-3.02-19.997-0.0459-6.221 2.8719-10.796 8.4359-13.701 14.522-0.56063 1.1439-1.1434 2.5351-1.5454 3.5873-0.86025 2.2124-1.5 4.4994-2.1445 6.7812-1.5262-0.21303-3.0505-0.44576-4.5879-0.56445-0.36442-0.0161-1.147-0.0851-1.6764-0.10824-7.2404-0.34627-14.705 0.37822-21.39 3.3399-1.3734 0.59589-2.6684 1.3489-3.9491 2.1199-7.3382-3.1468-15.165-5.3914-23.187-5.6265-1.0275-0.0529-2.055-0.10575-3.0824-0.15862 4.3675-5.968 8.5806-12.184 14.203-17.066 2.3864-1.9737 5.2424-3.9068 8.4766-3.7461 1.6249 0.0993 3.2132 0.8275 4.2126 2.1349 1.7525 1.8201 2.9695 4.4914 2.1799 7.0233-0.44973 1.5171-1.4885 2.798-2.7148 3.7695 3.537 2.6845 8.2004 4.1115 12.599 3.0782 2.5474-0.58747 5.0313-1.7618 6.9152-3.5937 3.7064-4.1054 6.915-9.0644 7.4585-14.694 0.50485-4.7855-1.3849-9.5174-4.2766-13.257-1.2019-1.5364-2.3597-3.132-3.9333-4.3164-4.4905-3.7988-10.437-5.7449-16.302-5.4544-6.1527 0.28782-12.245 2.4827-17.091 6.2971-1.3652 1.0716-2.5628 2.3739-3.3798 3.9082-3.0107 3.8843-3.7723 8.8782-4.6689 13.571-1.0054 5.657-2.5091 11.307-5.3792 16.329-1.402 2.5175-3.1004 4.8587-4.9541 7.0612-2.6769 0.64799-5.2905 1.6144-7.6088 3.122-0.50526 0.18909-0.78158-0.83681-1.1947-1.1368-1.5089-1.8993-3.0187-3.798-4.5266-5.6981 2.1408-1.5432 4.6532-2.9361 5.8457-5.4062 0.60831-1.1708-0.26215-2.3835-1.2078-3.0426-1.9059-1.5345-4.6278-1.0004-6.6637-0.0242-1.1347 0.51735-1.9221 1.5201-2.859 2.307-1.6727-2.2145-3.5381-4.2916-5.726-6.0109-7.3784-5.9503-16.427-9.4668-25.604-11.527-11.989-2.6632-24.39-2.8173-36.586-1.8138-1.2706-5.9987-4.2852-11.633-8.5918-16-4.4185-4.4982-10.468-7.2302-16.714-7.8891-3.9827-0.48109-8.0116-0.17684-11.962 0.43399-3.8849-4.799-9.3445-8.1456-15.134-10.154-3.8863-1.3162-7.9999-1.9434-12.102-1.8285z" fill="#fff"/>
 <path d="M137.446 144.614l-5.646 5.778c-14.725 15.091-30.007 35.928-40.936 55.824-1.31 2.378-2.445 4.257-2.528 4.174-.083-.083.241-1.426.723-2.993 3.916-12.713 7.11-30.926 7.816-44.583l.291-5.774-3.409 3.338c-10.048 9.786-22.175 25.93-30.232 40.251-3.392 6.028-4.656 7.974-4.003 6.144 1.933-5.38 4.398-16.06 5.57-24.133 1.065-7.304 1.647-16.047 1.073-16.047-.586 0-6.93 6.968-11.378 12.501-4.075 5.072-10.298 14.239-12.996 19.157-.915 1.663-1.734 2.935-1.83 2.84-.1-.1.32-2.058.928-4.353 1.563-5.87 2.823-13.649 3.13-19.315l.266-4.84-3.384 3.56c-17.003 17.818-28.585 44.848-30.63 71.48L10 251.178l2.507-2.445c3.55-3.459 8.797-10.073 12.393-15.631 1.696-2.62 3.143-4.702 3.218-4.627.074.074-.237 1.226-.695 2.56-1.338 3.883-3.94 14.393-4.88 19.698-1.343 7.595-2.495 20.645-1.821 20.645.515 0 7.55-7.724 11.411-12.539 3.576-4.452 10.269-14.242 12.306-17.988.703-1.285 1.33-2.274 1.41-2.2.07.075-.766 2.87-1.859 6.212-5.147 15.706-8.734 34.655-9.362 49.384l-.266 6.215 2.536-2.44c8.763-8.423 20.246-23.24 28.519-36.792 1.588-2.598 2.79-4.324 2.673-3.833a310.384 310.384 0 01-2.3 7.541c-6.909 22.067-11.04 45.074-12.051 67.05l-.283 6.214 3.642-3.55c6.722-6.556 15.81-17.116 22.936-26.64 3.326-4.448 6.26-9.541 9.383-14.347-.27-6.797-.574-13.565-.748-20.554-.125-5.138-.125-10.276.158-15.315.282-5.043.843-9.994 1.837-14.77a63.29 63.29 0 014.428-13.72 49.314 49.314 0 017.92-12.168 49.587 49.587 0 015.558-5.338 55.724 55.724 0 016.768-4.765 67.194 67.194 0 018.094-4.115c1.891-.811 4.053-1.489 6.144-2.2 1.102-4.494 2.582-9.038 3.426-13.482 2.532-13.349 4.51-30.805 4.465-39.444zm245.451 12.929l-4.743 13.511-13.753 1.06 10.842 8.888-3.284 13.973 11.45-8.015 11.719 7.574-3.767-13.843 10.527-9.284-13.778-.54zM230.744 170.36c-8.298.232-17.843 3.334-27.995 11.648-8.273-1.08-29.904-2.702-40.492 26.79-5.405-2.286-52.61-13.411-65.702 32.647-4.698 19.095-1.177 64.55-1.177 64.55 0 4.154 3.946 19.112 22.429 15.786 0 0 14.538.416 24.923-17.86 9.138 2.287 19.938-5.196 21.186-1.04 0 0 11.628 15.578 23.883 18.9 0 0 13.083 4.573 26.586.831 0 0-.94 16.422 10.273 20.155 23.26 7.895 27.604-14.226 40.193-7.691 11.964 6.21-3.01 13.39-3.01 13.39 22.72 16.796 37.095 3.6 44.545-9.715 2.623 2.141 8.514 5.708 12.33-1.447 0 0 3.66-6.07-2.095-9.412-2.635 3.804-5 3.592-6.527 2.786 1.131-3.106 1.776-5.787 1.9-7.442 19.523-.831 31.155-1.663 45.07-13.707 0 0 11.004 11.42 24.087 12.46 12.854 2.078 76.848 1.625 106.967 1.04 4.565-.832 12.668-4.158 12.252-14.955l.208-60.23c10.796-37.799-42.995-60.643-56.082-13.084 0 0-17.648-2.91-30.32 4.781-8.884-3.741-16.325-5.13-22.324-5.367 5.53-7.678 14.916-20.034 20.815-16.346 6.976 6.431-1.675 10.04-1.675 10.04 9.836 8.996 19.398 5.487 24.063 1.463 17.094-18.492 3.142-31.176 1.467-33.687-15.694-15.693-38.122-4.053-41.644 3.14-7.246 9.345-2.382 21.825-14.604 36.48-4.074 1.039-6.178 2.402-6.178 2.402l-3.122-3.928c2.648-1.788 8.302-6.39 2.91-10.506-3.6-2.852-9.088-.44-10.46.998-1.422-1.883-18.013-22.316-66.591-18.546 0 0-6.232-28.249-38.006-23.472-3.896-4.673-14.252-12.243-28.083-11.852zm143.344 26.453a19.59 19.59 0 00-1.555.029c-8.252.499-10.352 7.05-10.206 10.796 2.349 18.21 16.18 11.287 16.375 8.739-5.645-3.812 3.305-12.796 7.342 6.223 0 0 3.463-25.459-11.952-25.787zm-180.319.32l.004.004c8.793 0 14.605 4.386 15.644 11.806l.187 1.33h-3.534c-2.594 0-3.558-.09-3.629-.344-.765-2.819-1.114-3.592-2.037-4.54-1.505-1.55-3.118-2.166-6.111-2.324-3.047-.158-5.238.378-6.66 1.625-1.272 1.115-1.676 2.187-1.518 4.058.233 2.815 2.262 4.224 8.082 5.596 8.232 1.941 11.242 3.11 13.395 5.196 2.282 2.216 3.43 6.078 2.827 9.508-1.193 6.785-7.155 10.643-16.31 10.555-1.737-.016-3.72-.145-4.406-.278v.004c-5.06-.994-8.93-3.6-10.792-7.267-.732-1.447-1.51-4.482-1.518-5.92l-.008-.77h6.98l.163.77c.802 3.908 2.286 5.766 5.708 7.117 2.236.882 6.751.873 9.004-.012 1.933-.765 3.75-2.607 4.029-4.091.312-1.659-.017-3.405-.84-4.486-1.201-1.571-3.571-2.56-9.354-3.908-6.049-1.413-7.857-2.037-9.948-3.45-2.482-1.676-3.646-3.567-4.083-6.64-1.072-7.59 5.388-13.54 14.725-13.54zm72.204.05c7.97.133 13.37 3.982 14.754 10.613.237 1.156.316 2.108.175 2.25-.137.136-1.742.207-3.563.166l-3.313-.08-.333-1.288c-1.018-4.012-3.733-5.841-8.664-5.841-4.614 0-7.4 1.937-7.4 5.142 0 3.335 2.037 4.823 8.722 6.361 7.758 1.78 10.689 2.94 12.846 5.097 4.17 4.17 3.846 11.91-.673 16.005-1.796 1.622-4.677 2.994-7.533 3.58-2.686.557-7.774.545-10.422-.017-4.303-.914-8.178-3.575-9.895-6.789-.869-1.63-1.688-4.656-1.704-6.24l-.008-.769h6.947l.303 1.405c.798 3.734 3.268 6.107 7.234 6.947 4.294.915 8.551-.262 10.576-2.918 1.46-1.913 1.143-5.272-.644-6.889-.928-.835-3.617-1.912-6.577-2.623-7.192-1.73-8.593-2.137-10.464-3.052-3.447-1.687-5.176-3.957-5.729-7.508-.69-4.427 1.492-8.896 5.475-11.228 2.636-1.547 4.79-2.146 8.26-2.304.554-.02 1.098-.029 1.63-.02zm-52.66.927l11.744.008c11.54.008 11.773.02 13.544.652 4.628 1.655 6.311 4.17 6.303 9.408-.008 2.782-.075 3.21-.748 4.499-.79 1.504-2.162 2.876-3.646 3.641l-.89.466 1.713.806c3.658 1.73 5.383 4.428 5.612 8.772.191 3.7-.515 5.945-2.577 8.17-1.622 1.754-3.472 2.83-6.17 3.604-1.434.416-3.363.499-13.208.59-9.37.083-11.561.038-11.677-.262-.075-.203-.108-9.362-.067-20.358zm7.27 5.595l-.074 5.663-.075 5.662h6.727c5.417 0 6.926-.083 7.753-.433 2.141-.893 3.147-2.548 3.147-5.159 0-2.05-.47-3.28-1.63-4.257-1.567-1.318-2.486-1.459-9.412-1.467zm-.136 16.634v12.584h7.25c4.407 0 7.562-.117 8.04-.295 4.42-1.66 5.766-7.321 2.494-10.477-1.75-1.683-2.481-1.812-10.621-1.812zm-77.152 3.808a44.607 44.607 0 012.578.016s31.541.208 30.581 32.939c-.216 7.346-7.055 32.743-38.817 27.446l-.395-20.192c16.272 5.097 16.862-8.43 16.862-8.43 1.177-12.348-11.765-12.743-11.765-12.743-9.017-.195-10.584 8.231-10.584 8.231l.195 36.863c-2.353 5.879-9.412 11.957-17.843 15.091v-55.874s3.313-22.815 29.188-23.347zm148.47.944h35.453c7.895.848 34.755 6.402 34.34 39.993-1.027 12.368-6.648 42.342-47.448 38.455v-17.245h11.167c8.76-.977 16.642-9.753 17.132-21.38.466-10.934-6.568-21.324-16.16-22.575h-15.535v60.713l-18.945-.24zm182.214 1.704a10.867 10.626 0 0110.863 10.622 10.867 10.626 0 01-10.867 10.626 10.867 10.626 0 01-10.871-10.626 10.867 10.626 0 0110.871-10.622zm-83.852 24.042s31.682 1.633 22.582 29.629l-18.986-.17c6.356-9.617-3.226-10.103-3.226-10.103-6.353-.17-7.417 5.658-7.417 5.658-2.232 7.558 6.07 9.23 6.07 9.23h46.877c-1.205-3.95-17.71-11.591-17.302-22.034.37-9.508 8.8-9.541 8.8-9.541H457.4v15.79h-15.79c3.439 7.037 21.066 13.178 17.973 23.313 0 0-.686 9.728-9.957 10.934h-63.873s-18.97-.632-21.373-25.019c0 0-1.563-25.97 25.747-27.687zm-130.49 1.596c.832-.012 1.68-.008 2.557.02 0 0 24.873-1.48 24.395 29.958-.145 9.624-11.89 24.237-29.276 21.203l.025-18.317c12.206 3.305 14.742-12.535 4.806-15.05-7.882-1.151-9.034 3.642-9.728 6.14l-.499 32.427c-2.344 5.38-10.073 12.46-18.479 15.328v-51.064s.574-20.204 26.2-20.65zm-57.059.02c14.775 0 26.753 11.604 26.753 25.922 0 14.313-11.973 25.916-26.753 25.916-14.775 0-26.748-11.603-26.748-25.92 0-14.314 11.973-25.917 26.748-25.917zm262.305.79h17.519v50.495h-17.519zm-262.3 16.892c-4.573 0-8.282 3.687-8.282 8.231 0 4.553 3.709 8.24 8.282 8.24 4.577 0 8.285-3.687 8.285-8.236 0-4.548-3.708-8.231-8.285-8.231zm45.219 74.694l-2.753 8.556-8.572-.162 6.868 5.404-2.785 8.54 6.996-5.214 6.847 5.433-2.544-8.622 7.022-5.184-8.573-.112z" fill="#c9128e"/>
</svg>
