<svg version="1.1" viewBox="0 0 512 512" xmlns="http://www.w3.org/2000/svg">
 <ellipse cx="354.67" cy="333.49" rx="44.144" ry="46.005" fill="#fff" stroke-width=".2045"/>
 <g fill="#fff">
  <path d="m174.8 197.5h16.833c-0.396-18.527-14.533-31.152-37.305-31.152-19.452 0-34.992 11.501-34.992 28.287 0 37.468 58.006 19.292 58.006 44.314 0 9.82-9.806 14.775-20.12 14.775-14.102 0-24.052-6.808-24.716-20.615h-16.673c0 25.511 20.607 34.145 39.711 34.145 22.344 0 38.673-10.525 38.673-29.59 0-38.656-58.196-21.425-58.196-44.958 0-8 7.423-12.358 17.818-12.358 15.447 0 20.144 8.048 20.961 17.152zm-165.28 21.534c8.304-7.983 15.868-18.862 21.453-31.72 5.584-12.876 8.352-25.832 8.497-37.355l-0.096 0.097c-8.273 7.966-15.805 18.814-21.373 31.64-5.553 12.811-8.32 25.718-8.498 37.21"/>
  <path d="m18.505 237.1c11.187-10.708 21.375-25.3 28.914-42.589 7.538-17.305 11.295-34.712 11.529-50.208l-0.145 0.127c-11.139 10.692-21.295 25.268-28.8 42.494-7.507 17.225-11.263 34.568-11.529 50.016"/>
  <path d="m30.697 262.41c15.213-14.557 29.093-34.387 39.343-57.877 10.267-23.49 15.41-47.167 15.74-68.228l-0.198 0.162c-15.148 14.541-28.962 34.323-39.195 57.732-10.234 23.408-15.359 46.988-15.738 67.966"/>
  <path d="m47.525 295.55c20.458-19.652 39.083-46.457 52.81-78.142 13.76-31.702 20.587-63.63 20.949-92.017l-0.261 0.226c-20.362 19.652-38.905 46.36-52.6 77.948-13.694 31.588-20.504 63.663-20.914 91.952m153.11-126.86v96.249h46.981c18.595 0 32.755-9.062 32.755-26.74 0-12.32-4.335-20.683-17.987-25.054 7.566-3.28 13.415-8.373 13.415-20.844 0-15.91-10.564-23.61-28.063-23.61zm16.753 13.475h27.34c10.643 0 14.679 6.06 14.679 13.505 0 8.428-5.659 13.445-13.716 13.445h-28.303zm0 39.077h29.492c11.764 0 16.888 6.503 16.888 15.153 0 9.508-7.673 15.069-16.393 15.069h-29.987zm126.47-23.706h16.833c-0.397-18.527-14.533-31.152-37.305-31.152-19.453 0-34.992 11.501-34.992 28.287 0 37.468 58.006 19.292 58.006 44.314 0 9.82-9.806 14.775-20.12 14.775-14.102 0-24.052-6.808-24.717-20.615h-16.673c0 25.511 20.607 34.145 39.712 34.145 22.344 0 38.672-10.525 38.672-29.59 0-38.656-58.195-21.425-58.195-44.958 0-8 7.422-12.358 17.818-12.358 15.446 0 20.143 8.048 20.961 17.152z"/>
 </g>
 <path d="m184.78 301.31h-43.574v24.929h36.93c3.137 0 5.478 0.704 7.025 2.11 1.545 1.409 2.319 3.289 2.319 5.642 0 2.354-0.785 4.222-2.354 5.607-1.57 1.384-3.9 2.076-6.99 2.076h-36.93v32.405c0 4.246-0.958 7.395-2.872 9.448-1.916 2.053-4.886 3.08-7.885 3.08-3.046 0-6.04-1.038-7.955-3.115-1.915-2.076-2.872-5.214-2.872-9.413v-78.077c0-2.952 0.438-5.365 1.315-7.233 0.876-1.87 2.25-3.23 4.118-4.084 1.87-0.853 4.257-1.28 7.164-1.28h52.561c3.276 0 5.71 0.726 7.303 2.18 1.592 1.453 2.388 4.384 2.388 6.738 0 2.4-0.796 5.352-2.388 6.807-1.592 1.452-4.027 2.18-7.303 2.18zm61.272-19.636c10.52 0 19.553 2.135 27.096 6.403 7.546 4.269 13.256 10.337 17.132 18.203 3.876 7.869 5.814 17.109 5.814 27.722 0 7.846-1.061 14.975-3.184 21.388-2.122 6.414-5.306 11.975-9.552 16.682-4.245 4.706-9.46 8.306-15.643 10.798-6.183 2.491-13.265 3.737-21.248 3.737-7.938 0-15.045-1.28-21.32-3.84-6.276-2.563-11.513-6.172-15.712-10.834-4.2-4.66-7.372-10.267-9.517-16.82-2.146-6.551-3.219-13.635-3.219-21.25 0-7.797 1.118-14.95 3.357-21.456 2.238-6.507 5.48-12.044 9.725-16.613 4.245-4.568 9.414-8.064 15.505-10.485 6.09-2.424 13.013-3.635 20.765-3.635zm29.209 52.19c0-7.43-1.202-13.867-3.6-19.312-2.399-5.444-5.826-9.563-10.28-12.354-4.452-2.792-9.562-4.189-15.33-4.189-4.109 0-7.903 0.774-11.386 2.319-3.485 1.547-6.484 3.797-8.999 6.749-2.515 2.953-4.499 6.726-5.952 11.317-1.454 4.592-2.18 9.749-2.18 15.47 0 5.769 0.726 10.982 2.18 15.643 1.453 4.662 3.506 8.526 6.16 11.593 2.653 3.07 5.698 5.365 9.137 6.888 3.436 1.523 7.208 2.284 11.317 2.284 5.26 0 10.094-1.315 14.5-3.945 4.407-2.63 7.914-6.69 10.52-12.183 2.609-5.49 3.913-12.251 3.913-20.28zm152.08-50.459h27.814c6.967 0 12.944 0.647 17.927 1.938 4.984 1.292 9.506 3.714 13.567 7.267 10.566 9.045 15.85 22.797 15.85 41.254 0 6.09-0.53 11.652-1.591 16.681-1.063 5.03-2.7 9.564-4.915 13.6-2.215 4.04-5.053 7.65-8.513 10.834-2.724 2.446-5.7 4.407-8.93 5.883-3.23 1.478-6.703 2.516-10.417 3.115-3.715 0.6-7.902 0.9-12.563 0.9h-27.814c-3.738 0-6.552-0.565-8.444-1.695-1.893-1.131-3.127-2.723-3.704-4.777-0.577-2.053-0.865-4.717-0.865-7.995v-74.408c0-4.43 0.993-7.637 2.977-9.621 1.983-1.983 5.191-2.976 9.62-2.976zm8.987 17.293v65.79h15.574c3.415 0 6.091-0.093 8.03-0.278 1.937-0.183 3.944-0.646 6.021-1.384 2.077-0.737 3.876-1.776 5.399-3.115 6.876-5.814 10.313-13.772 10.313-27.986 0-10.012-1.511-16.484-4.534-21.468-3.022-4.984-6.748-8.156-11.178-9.518-4.43-1.36-9.784-2.041-16.058-2.041zm-38.031 5.582c-3.876-7.866-9.586-13.934-17.132-18.203-7.544-4.268-16.577-6.403-27.098-6.403-7.752 0-14.674 1.21-20.765 3.635-6.091 2.421-11.26 5.917-15.505 10.485-4.246 4.569-7.487 10.106-9.725 16.613-2.238 6.506-3.357 13.66-3.357 21.457 0 7.614 1.074 14.698 3.218 21.25 2.147 6.552 5.32 12.159 9.518 16.82 4.198 4.66 9.437 8.27 15.713 10.832 6.274 2.56 13.381 3.841 21.318 3.841 7.983 0 15.066-1.246 21.25-3.737 6.183-2.492 11.397-6.092 15.643-10.798 4.245-4.707 7.43-10.268 9.552-16.682 2.122-6.413 3.184-13.542 3.184-21.388 0-10.613-1.938-19.853-5.814-27.722zm-54.925 21.93c-8.558 2.294-17.34-2.776-19.633-11.335 8.559-2.293 17.34 2.777 19.633 11.336zm-19.431 23.313c2.293-8.558 11.074-13.628 19.633-11.335-2.294 8.559-11.075 13.629-19.633 11.335zm29.703-52.146c6.266 6.265 6.266 16.405 0 22.67-6.265-6.265-6.265-16.405 0-22.67zm0.403 69.296c-6.265-6.265-6.265-16.405 0-22.67 6.266 6.265 6.266 16.405 0 22.67zm29.704-52.147c-2.293 8.559-11.074 13.629-19.633 11.336 2.293-8.559 11.074-13.629 19.633-11.336zm-19.431 23.313c8.558-2.293 17.34 2.777 19.632 11.335-8.558 2.294-17.34-2.776-19.632-11.335z" fill="#96c321"/>
</svg>
