<svg xmlns="http://www.w3.org/2000/svg" height="512" width="512">
    <path fill="#fff" d="M94.34 192.57c-9.094 9.094-18.626 21.928-26.59 35.792a253.318 253.318 0 00-5.92 10.949c-.942 1.847-1.739 3.335-1.76 3.315a70.965 70.965 0 011.218-3.766c4.703-13.892 7.371-26.989 7.705-37.834l.083-2.676-1.722 1.692c-8.188 8.064-16.236 19.472-23.532 33.352-.88 1.676-1.626 3.04-1.647 3.015a15.76 15.76 0 01.525-1.718c3.382-9.965 5.466-20.068 5.72-27.748l.084-2.393-2.026 2.043c-5.216 5.266-10.816 13.063-15.236 21.206-1.855 3.427-2.385 4.374-2.297 4.103 1.593-4.891 2.814-9.649 3.527-13.726.597-3.411 1.101-9.048.81-9.048-.172 0-2.71 2.693-4.05 4.299-10.636 12.754-18.358 31.859-19.18 47.461-.09 1.66-.087 1.672.205 1.518.396-.213 3.144-3.24 4.745-5.225a83.148 83.148 0 007.017-10.34c1.56-2.694 1.822-3.136 1.756-2.906-.034.117-.576 1.76-1.21 3.665a108.157 108.157 0 00-2.776 9.481c-1.518 6.146-2.46 12.359-2.669 17.641l-.083 2.114 1.968-2.001c5.537-5.629 10.653-12.834 15.973-22.503.776-1.41 1.36-2.422 1.301-2.268-3.34 9.273-5.15 15.277-6.763 22.474-1.701 7.609-2.89 16.532-2.877 21.63l.004 1.836 2.49-2.54c7.621-7.763 15.189-18.429 21.743-30.646 1.364-2.539 2.156-3.94 2.03-3.594a769.81 769.81 0 01-2.084 5.792c-5.074 13.922-8.918 29.933-10.511 43.809-.475 4.14-1.01 12.925-.8 13.134.22.22 6.178-6.004 9.535-9.965 25.042-29.546 43.546-72.933 47.324-110.968.338-3.423.613-8.326.55-9.865l-.042-1.125-2.543 2.535m106.548 35.732c-11.02 1.501-19.134 8.706-21.848 19.41-1.543 6.1-1.272 13.425.72 19.33a33.148 33.148 0 002.77 5.678c4.098 6.296 10.861 10.132 19.542 11.1 1.889.208 6.317.208 7.964-.005 10.09-1.292 17.261-6.9 20.243-15.815.58-1.73 1.242-4.636 1.242-5.437v-.45H214.96l-.38 1.576c-.675 2.806-2.055 4.974-3.919 6.17-1.56 1.002-4.07 1.452-6.408 1.14-5.137-.68-7.78-3.774-8.615-10.07-.291-2.21-.208-7.818.146-9.74.688-3.748 1.835-6.221 3.69-7.956 1.677-1.567 3.37-2.18 5.975-2.155 4.962.042 8.173 2.656 9.102 7.405l.242 1.23h16.445l-.084-.592a32.856 32.856 0 00-1.196-5.383c-2.81-8.577-9.348-13.705-19.434-15.244-1.877-.283-8.048-.408-9.64-.192m-101.11 4.533l9.068 26.53 7.947 23.25 8.714.033 8.715.037 9.152-26.388c5.036-14.51 9.177-26.464 9.21-26.56.042-.142-1.751-.175-8.68-.175h-8.736l-.375 1.376-4.778 17.478c-2.419 8.86-4.462 16.107-4.537 16.111-.075.004-2.201-7.847-4.728-17.445l-4.59-17.45-8.757-.037-8.747-.033 1.121 3.273m55.509 23.286v26.56h17.333v-53.12h-17.329v26.56m82.152 0v26.56h44.384v-12.396H254.77v-8.456h23.67v-12.258h-23.674v-7.755h26.072v-12.258h-43.4v26.563m51.993 0v26.56h41.287v-12.396h-23.954v-40.723H289.43v26.56m63.152-26.243l-9.465 26.38-9.402 26.243c-.05.142 1.655.17 8.43.142l8.498-.034.996-3.49.993-3.485h17.47l.767 2.643 1.03 3.52.263.883h17.203l-.075-.317c-.042-.175-4.311-12.133-9.486-26.56l-9.402-26.247h-17.7zm11.683 25.183c1.488 5.075 2.74 9.31 2.777 9.41.045.139-1.118.176-5.525.176-5.254 0-5.587-.017-5.516-.25l2.618-9.26 2.627-9.282c.042-.142.133-.208.192-.142.062.067 1.334 4.278 2.827 9.353m27.89 1.054v26.56h16.632l-.004-8.63c-.008-7.185-.063-9.582-.334-14.335a134.175 134.175 0 01-.258-5.78c.037-.041.162.059.291.226.13.167 4.387 6.638 9.465 14.401l9.231 14.106 8.14.008 8.134.008v-53.124H426.82l.008 8.84c.004 7.23.062 9.852.317 14.376.183 3.281.254 5.512.175 5.487-.071-.025-4.349-6.496-9.494-14.372l-9.369-14.33h-16.303v26.559m58.761.008v26.585l13.288-.071c14.177-.071 14.635-.092 18.28-.822 11.107-2.23 17.49-9.173 19.096-20.764.63-4.557.554-8.79-.234-12.896-.834-4.328-2.73-8.222-5.412-11.104-2.923-3.14-7.547-5.59-12.537-6.642-3.711-.783-3.028-.754-18.275-.813l-14.206-.058zm23.641-14.16c6.075.567 8.856 3.186 9.774 9.219.308 1.989.262 7.384-.067 9.148-.588 3.127-1.514 5.053-3.252 6.784-1.364 1.363-2.802 2.16-4.841 2.693-1.222.317-1.726.367-4.645.434l-3.277.079V241.82h2.36c1.297 0 3.081.067 3.953.15"/>
</svg>
