<svg version="1.1" viewBox="0 0 512 512" xmlns="http://www.w3.org/2000/svg">
 <path d="m253.7 296.09-0.9707 0.0996c-2.557 0.18-4.6333 0.65469-6.0273 3.0547-0.686 1.18-0.90461 2.5661-1.2246 3.8711l-1.5625 6.7754-3.0781 13.275-1.6738 7.3262c-0.4-0.839-0.5357-1.9783-0.7207-2.9023l-0.99609-4.9785-3.1875-15.623c-0.633-3.166-1.0014-7.6331-3.8184-9.6191-2.873-2.023-7.8177-1.5203-10.221 1.0527-1.177 1.256-1.7494 2.9964-1.8164 4.6934-0.068 1.76 0.62683 3.7145 1.0488 5.3945l2.2832 8.9844 7.0938 27.52c0.827 3.209 1.3319 6.7713 4.3789 8.6953 0.587 0.371 1.2764 0.5972 1.9394 0.7832 0.81045 0.22679 1.6486 0.33985 2.4902 0.33594 1.927 2e-3 3.4377 0.0936 5.2637-0.73242 3.099-1.406 3.8352-3.8865 4.6152-6.8965l2.0449-8.2715 3.1133-12.721 1.1602-4.7012 2.0312 8.1582 3.25 13.273c1.107 4.42 1.5627 10.091 6.7637 11.555 1.487 0.42 2.9017 0.35394 4.4297 0.33594 0.732-0.01 1.5068-0.14608 2.2168-0.33008 4.739-1.21 5.44-5.8474 6.457-9.9004l7.1641-27.793 2.1426-8.2949c0.393-1.566 0.97023-3.3635 0.99023-4.9785 0.02-1.899-0.48145-3.7072-1.8144-5.1152-2.619-2.768-8.0135-3.1763-10.771-0.40234-1.6 1.61-2.0535 4.073-2.4805 6.209l-2.0762 10.094-3.3496 16.314-1.8867-7.8809-3.3164-14.104-1.3223-5.6699c-0.428-1.718-0.86823-3.3397-2.1152-4.6777-1.512-1.616-3.3925-1.9634-5.4805-2.1094l-0.9668-0.0996zm68.111 0-0.96875 0.0996c-2.447 0.17-4.7939 0.65062-6.4629 2.6406-1.372 1.637-1.8388 3.9929-1.8418 6.0859v42.307c2e-3 2.026 0.55503 4.3591 2.082 5.7871 2.605 2.435 8.1329 2.4988 10.795 0.13477 1.46-1.3 2.186-3.4432 2.209-5.3672v-25.58l4.7168 7.3281 9.8242 15.488 3.0703 4.8379c0.926 1.487 1.8686 3.0729 3.4336 3.9629 2.031 1.155 4.1291 1.0407 6.3711 1.0137 0.757-9e-3 1.4908-0.162 2.2148-0.375 3.888-1.155 5.2808-3.9732 5.5508-7.7832l0.12305-1.3828v-40.926c-2e-3 -2.164-0.39889-4.586-1.9629-6.209-2.71-2.819-8.9252-2.7057-11.492 0.27734-1.748 2.03-1.6328 4.147-1.6328 6.625v24.471c-0.618-0.575-1.237-1.7432-1.707-2.4902l-3.252-5.2539-10.125-16.312-2.4941-4.0137c-1.483-2.362-2.4107-3.96-5.2637-4.873-1.041-0.2812-2.1101-0.44562-3.1875-0.49024v-2e-3zm-21.877 0.0273c-1.176 0.165-1.87 0.12614-3.043 0.61915-3.02 1.274-4.3937 4.051-4.4297 7.209v42.863c5e-3 3.112 1.226 6.1552 4.291 7.4062 1.555 0.635 2.26 0.61528 3.877 0.61328 4.027-9e-3 7.2879-2.9477 7.3379-7.0527v-44.383c-5e-3 -2.718-1.397-5.2273-3.877-6.4473-1.112-0.547-2.3746-0.74513-3.5996-0.82813h-0.55664zm-150.31 13.686c-8.6129 5.5e-4 -15.595 6.9182-15.594 15.451 5.6e-4 8.532 6.9819 15.448 15.594 15.449 8.6121-5.5e-4 15.593-6.917 15.594-15.449 5.6e-4 -8.5328-6.9811-15.45-15.594-15.451zm21.836 0.58203v29.578h5.6582v-18.361l14.859 18.361h4.9336v-29.578h-5.6484v18.439l-14.729-18.439h-5.0742zm-21.711 5.2266c4.8933-8.4e-4 8.8602 4.3168 8.8594 9.6426-2e-4 5.3258-3.968 9.6426-8.8613 9.6406-4.8918-3.6e-4 -8.8572-4.3164-8.8574-9.6406-8.1e-4 -5.3258 3.9661-9.6434 8.8594-9.6426z" fill="#fff"/>
 <rect x="11.59" y="158.72" width="488.9" height="121.88" ry="12.641" fill="#fff"/>
 <path d="m23.746 157.12c-7.612-0.02-13.811 6.1751-13.799 13.787v96.492c-0.012 7.612 6.1868 13.802 13.799 13.783h184.48v-124.06h-184.48zm-0.10119 2c0.0293-1.1e-4 0.05859-1.1e-4 0.08789 0h184.45v120.06h-184.45c-6.5201 0.0267-11.815-5.2609-11.797-11.781v-96.498c-0.01826-6.4862 5.2228-11.76 11.709-11.783zm73.274 8.955c-10.517 0-12.348 5.6052-12.348 10.99v70.764c1.153 0.177 2.3602 0.27149 3.7422 0.27149 10.435 0 12.523-3.071 12.523-8.416v-73.203c-1.2881-0.27244-2.6014-0.40861-3.918-0.40626zm40.35 20.652c-7.307 0-11.36 2.6669-15.6 7.2539l-20.059 21.896 16.139 25.373c2.983 4.629 6.9122 6.9844 13.283 6.9844 4.188 0 7.6715-0.97442 9.2715-1.7324l-19.436-29.244 13.77-14.604 22.596 35.432-13.77 28.973c1.381 0.707 4.1869 1.5584 7.7109 1.6504 6.06 0.136 9.3644-2.1792 11.816-7.6172l32.5-72.363c-1.341-0.716-4.3244-1.5137-6.7344-1.5547-4.189-0.083-9.81 0.75665-13.377 9.3066l-10.518 24.781-20.641-33.561c-1.34-0.406-4.5931-0.97461-6.9531-0.97461zm-81.492 0.10351c-2.93 0.011-5.8737 0.13555-8.6387 0.43555-12.97 1.422-19.568 9.2037-19.568 18.514 0 7.66 5.5699 14.86 16.006 16.863l12.574 2.4082c4.594 0.892 6.9512 1.9102 6.9512 4.4102 0 1.91-1.785 3.9121-7.709 3.9121-5.353 0-12.566-0.79882-17.16-0.79883-4.417-0.01-9.1035 1.9927-9.1035 10.68 0 1.069 0.1753 2.4068 0.4043 3.4648 6.6 0.758 20.464 1.9616 30.047 0.93359 13.24-1.422 19.748-8.6745 19.748-18.646 0-8.593-5.3024-15.579-17.607-17.852l-11.994-2.2188c-3.836-0.665-6.2461-1.5583-6.2461-3.7383 0-2.044 2.5474-3.7344 8.6484-3.7344 6.017 0 11.275 0.62304 14.664 0.62304 4.417 0 9.002-1.8687 9.002-10.555 0-1.16-0.13647-2.2218-0.35547-3.3418-4.708-0.57-12.18-1.3594-19.662-1.3594z"/>
 <path d="m208.23 281.19h0.96679c0.0341-2.6e-4 0.06767-0.00186 0.10157-0.00586h278.96c7.09 0 12.801-5.7922 12.801-12.992v-98.084c0.0115-7.1879-5.7293-13.014-12.801-12.994h-279.06v0.01367h-0.96679v124.06zm252.96-99.779c11.348-0.274 21.936 5.1445 21.936 5.1445l-3.8496 11.543s-7.8403-3.4236-14.904-3.8066c-4.98-0.27-12.96 0.74284-13.914 5.7148-2.134 11.117 14.188 10.582 23.367 15.725 3.427 1.919 6.3902 3.7253 9.2402 7.6953 2.264 3.152 2.9456 9.173 2.3086 13.418-2.3 15.285-16.396 19.558-26.363 19.18-6.7-0.255-13.425-0.32303-22.352-5.207l2.7754-12.998s6.8256 4.5898 18.268 5.2598c5.407 0.317 13.939-0.17017 14.311-7.9512 0.273-5.656-7.791-7.8531-15.582-10.83-4.478-1.712-8.9733-3.7221-12.072-6.2031-6.653-5.324-8.4036-15.103-6.2676-22.633 1.09-3.845 3.0452-6.728 5.8262-9.127 3.356-2.895 8.4694-4.7098 17.273-4.9238zm-236.25 1.8672h0.00196l0.00195 0.00195h11.727l34.062 44.434v-44.434h13.057v71.264h-11.404l-34.365-44.232v44.23h-13.08v-71.264zm68.49 0.00195h46.75v11.537h-31.984v16.721h26.219v13.164h-26.219v18.256h31.992v11.586h-46.758v-71.264zm53.887 0h13.502s2.1928 17.988 3.7168 26.912c1.644 9.627 5.8476 28.701 5.8476 28.701l11.393-53.1h16.176l11.674 53.525s4.3215-21.321 6.1445-32.045c1.354-7.97 3.5586-23.994 3.5586-23.994h13.238s-3.1867 22.16-5.4297 33.09c-2.64 12.872-9.2793 38.174-9.2793 38.174h-16.531s-4.132-17.162-6.002-25.789c-1.933-8.919-5.3906-26.844-5.3906-26.844s-3.4297 18.3-5.4277 27.389c-1.86 8.456-6.1055 25.244-6.1055 25.244h-16.455s-6.9699-28.104-9.7949-42.303c-1.91-9.596-4.834-28.961-4.834-28.961z" fill="#ab0000"/>
</svg>
