<svg version="1.1" viewBox="0 0 512 512" xmlns="http://www.w3.org/2000/svg">
 <rect x="11.59" y="158.72" width="488.9" height="121.88" ry="12.641" fill="#fff"/>
 <path d="m488.25 157.11c0.44197-0.00127 0.8781 0.02113 1.3086 0.06445a12.764 12.974 0 0 0-1.3086-0.06445zm1.3086 0.06445c0.40802 0.04105 0.80925 0.1044 1.2051 0.18359a12.764 12.974 0 0 0-1.2051-0.18359zm1.2051 0.18359a12.764 12.974 0 0 1 0.13672 0.02735c-0.04546-0.00963-0.09107-0.01822-0.13672-0.02735zm0.13672 0.02735c0.36772 0.07784 0.73056 0.17199 1.0859 0.28125a12.764 12.974 0 0 0-1.0859-0.28125zm1.0859 0.28125a12.764 12.974 0 0 1 0.14649 0.04687c-0.04883-0.01567-0.09741-0.03179-0.14649-0.04687zm-468.24-0.54297c-7.612-0.02-13.811 6.1751-13.799 13.787v96.492c-0.012 7.612 6.1868 13.802 13.799 13.783h184.48v-124.06h-184.48zm468.39 0.59179c0.35537 0.11425 0.70376 0.24248 1.0449 0.38672a12.764 12.974 0 0 0-1.0449-0.38672zm1.0449 0.38672a12.764 12.974 0 0 1 0.07812 0.03321c-0.02598-0.0112-0.05205-0.02218-0.07812-0.03321zm0.08789 0.03711c0.35112 0.1516 0.6951 0.3182 1.0293 0.5a12.764 12.974 0 0 0-1.0293-0.5zm1.0293 0.5a12.764 12.974 0 0 1 0.11524 0.06445c-0.03848-0.02145-0.07652-0.04338-0.11524-0.06445zm0.11524 0.06445c0.33283 0.18559 0.65675 0.38364 0.9707 0.59766a12.764 12.974 0 0 0-0.9707-0.59766zm0.9707 0.59766a12.764 12.974 0 0 1 0.05078 0.03711c-0.01727-0.0119-0.03344-0.02529-0.05078-0.03711zm0.05078 0.03711c0.32559 0.22431 0.64214 0.46173 0.94532 0.71484a12.764 12.974 0 0 0-0.94532-0.71484zm-471.79-0.21484a11.75 11.75 0 0 1 0.087891 0h0.001953a1 1 0 0 0 0.001953 0h184.45v120.06h-184.45a1 1 0 0 0-0.001953 0 11.749 11.749 0 0 1-11.797-11.781 1 1 0 0 0 0-0.00196v-96.494a1 1 0 0 0 0-0.00195 11.75 11.75 0 0 1 11.709-11.783zm472.76 0.95703c0.30382 0.25532 0.59578 0.5262 0.875 0.80859a12.764 12.974 0 0 0-0.875-0.80859zm0.9082 0.8418c0.27592 0.28109 0.5393 0.57316 0.78906 0.8789a12.764 12.974 0 0 0-0.78906-0.8789zm0.78906 0.8789a12.764 12.974 0 0 1 0.03906 0.05078c-0.01344-0.01662-0.02554-0.03423-0.03906-0.05078zm0.03906 0.05078c0.23687 0.2929 0.46059 0.59858 0.67188 0.91211a12.764 12.974 0 0 0-0.67188-0.91211zm0.67188 0.91211a12.764 12.974 0 0 1 0.08789 0.13086c-0.02889-0.044-0.05849-0.08723-0.08789-0.13086zm0.08789 0.13086c0.19627 0.29902 0.38093 0.60605 0.55273 0.92188a12.764 12.974 0 0 0-0.55273-0.92188zm0.55273 0.92188a12.764 12.974 0 0 1 0.08204 0.15429c-0.02721-0.05164-0.05417-0.10307-0.08204-0.15429zm0.08399 0.1582c0.1623 0.30841 0.31135 0.6246 0.44922 0.94727a12.764 12.974 0 0 0-0.44922-0.94727zm0.44922 0.94727a12.764 12.974 0 0 1 0.09961 0.23828c-0.0323-0.07994-0.0658-0.15916-0.09961-0.23828zm0.09961 0.23828c0.12601 0.31193 0.23956 0.6315 0.34179 0.95507a12.764 12.974 0 0 0-0.34179-0.95507zm0.34179 0.95507a12.764 12.974 0 0 1 0.07032 0.23047c-0.02283-0.0772-0.04612-0.15387-0.07032-0.23047zm0.07032 0.23047c0.10106 0.34177 0.19023 0.68801 0.26367 1.041a12.764 12.974 0 0 0-0.26367-1.041zm0.26367 1.0449a12.764 12.974 0 0 1 0.03906 0.19532c-0.01254-0.06535-0.02556-0.13033-0.03906-0.19532zm0.03906 0.19532c0.07191 0.37471 0.12854 0.75512 0.16797 1.1406a12.764 12.974 0 0 0-0.16797-1.1406zm0.16797 1.1406a12.764 12.974 0 0 1 0.00976 0.08594c-0.00275-0.02878-0.00682-0.05721-0.00976-0.08594zm0.00976 0.08594c0.04066 0.42503 0.0632 0.85497 0.0625 1.291a12.764 12.974 0 0 0-0.0625-1.291zm-404.06-0.73438c-10.517 0-12.348 5.6052-12.348 10.99v70.764c1.153 0.177 2.3602 0.27149 3.7422 0.27149 10.435 0 12.523-3.071 12.523-8.416v-73.203a18.773 18.773 0 0 0-3.918-0.40626zm335.1 18.83c-0.66765 4.4966-1.8732 12.447-3.1016 19.676 1.2284-7.229 2.434-15.179 3.1016-19.676zm-294.75 1.8223c-7.307 0-11.36 2.6669-15.6 7.2539l-20.059 21.896 16.139 25.373c2.983 4.629 6.9122 6.9844 13.283 6.9844 4.188 0 7.6715-0.97442 9.2715-1.7324l-19.436-29.244 13.77-14.604 22.596 35.432-13.77 28.973c1.381 0.707 4.1869 1.5584 7.7109 1.6504 6.06 0.136 9.3644-2.1792 11.816-7.6172l32.5-72.363c-1.341-0.716-4.3244-1.5137-6.7344-1.5547-4.189-0.083-9.81 0.75665-13.377 9.3066l-10.518 24.781-20.641-33.561c-1.34-0.406-4.5931-0.97461-6.9531-0.97461zm-81.492 0.10351c-2.93 0.011-5.8737 0.13555-8.6387 0.43555-12.97 1.422-19.568 9.2037-19.568 18.514 0 7.66 5.5699 14.86 16.006 16.863l12.574 2.4082c4.594 0.892 6.9512 1.9102 6.9512 4.4102 0 1.91-1.785 3.9121-7.709 3.9121-5.353 0-12.566-0.79882-17.16-0.79883-4.417-0.00999-9.1035 1.9927-9.1035 10.68 0 1.069 0.1753 2.4068 0.4043 3.4648 6.6 0.758 20.464 1.9616 30.047 0.93359 13.24-1.422 19.748-8.6745 19.748-18.646 0-8.593-5.3024-15.579-17.607-17.852l-11.994-2.2188c-3.836-0.665-6.2461-1.5583-6.2461-3.7383 0-2.044 2.5474-3.7344 8.6484-3.7344 6.017 0 11.275 0.62304 14.664 0.62304 4.417 0 9.002-1.8687 9.002-10.555 0-1.16-0.13647-2.2218-0.35547-3.3418-4.708-0.57-12.18-1.3594-19.662-1.3594zm398.17 7.1035c-0.60171 0.29737-1.1508 0.6402-1.6309 1.0352 0.48004-0.39497 1.0292-0.73778 1.6309-1.0352zm-2.5274 9.8691c0.29473 0.42803 0.64039 0.82446 1.0293 1.1953-0.38892-0.37084-0.73457-0.76729-1.0293-1.1953zm-13.082 3.2988c0.31973 0.99235 0.7089 1.9609 1.1699 2.8926-0.46104-0.93171-0.85016-1.9002-1.1699-2.8926zm29.721 4.2129c1.3697 0.45288 2.7027 0.94324 3.9492 1.5059-1.2465-0.56261-2.5795-1.053-3.9492-1.5059zm-26.951 1.3516c0.60629 0.84486 1.2874 1.6393 2.043 2.3711-0.75552-0.73184-1.4367-1.5262-2.043-2.3711zm-13.984 1.6953c-0.66 3.218-1.5708 7.2124-2.5644 11.395 0.99368-4.1822 1.9044-8.1765 2.5644-11.395zm-2.5644 11.395c-1.9873 8.3644-4.3094 17.479-5.6367 22.625 1.3274-5.1464 3.6494-14.261 5.6367-22.625zm51.736-10.58c0.80424 0.5012 1.585 1.0312 2.3477 1.625-0.76272-0.59385-1.5434-1.1238-2.3477-1.625zm4.5879 3.6348c0.73211 0.75758 1.4516 1.6149 2.1641 2.6074-0.7125-0.99251-1.4319-1.8498-2.1641-2.6074zm3.2715 4.6524c0.31506 0.7621 0.5761 1.5948 0.78515 2.4668-0.20892-0.87197-0.47018-1.7047-0.78515-2.4668zm1.4277 7.9297c0.0097 1.2107-0.06731 2.3821-0.22656 3.4434 0.15925-1.0612 0.23639-2.2327 0.22656-3.4434zm-0.22656 3.4434c-0.35937 2.3883-1.0062 4.508-1.8809 6.3828 0.87464-1.8748 1.5215-3.9945 1.8809-6.3828zm-1.8809 6.3828c-0.34984 0.74993-0.73562 1.4596-1.1543 2.1328 0.41836-0.67281 0.80469-1.3834 1.1543-2.1328zm-11.539-7.3906c-0.05443 0.45822-0.13929 0.88857-0.25195 1.293 0.11267-0.4044 0.19751-0.83475 0.25195-1.293zm-0.44141 1.8789c-0.13971 0.37868-0.30641 0.73288-0.49609 1.0625 0.18969-0.32963 0.35637-0.68382 0.49609-1.0625zm-32.078 0.10351s1.7071 1.1477 4.8438 2.3789c-3.1365-1.2312-4.8438-2.3789-4.8438-2.3789zm30.945 1.8789c-0.23414 0.28373-0.49058 0.54415-0.76367 0.78516 0.27355-0.24129 0.52918-0.50103 0.76367-0.78516zm10.609 7.5723c-0.47973 0.59962-0.98848 1.1623-1.5215 1.6914 0.53303-0.52912 1.0417-1.0918 1.5215-1.6914zm-41.082 5.1621c1.0513 0.46978 2.0731 0.87407 3.0684 1.2227-0.99523-0.34859-2.017-0.75288-3.0684-1.2227zm33.223 0.88477c-1.9747 0.92044-4.0498 1.5798-6.1191 2.0195 2.0694-0.4397 4.1444-1.0991 6.1191-2.0195zm-24.459 1.8398c1.8173 0.32969 3.5632 0.51427 5.2754 0.63282-1.7121-0.11855-3.4581-0.30313-5.2754-0.63282zm43.4 25.445c-0.80257 0.25224-1.6394 0.42726-2.502 0.51562 0.86258-0.08837 1.6994-0.26335 2.502-0.51562zm-238.35 15.49-0.9707 0.09961c-2.557 0.18-4.6333 0.65469-6.0273 3.0547-0.686 1.18-0.90461 2.5661-1.2246 3.8711l-1.5625 6.7754-3.0781 13.275-1.6738 7.3262c-0.4-0.839-0.5357-1.9783-0.7207-2.9023l-0.99609-4.9785-3.1875-15.623c-0.633-3.166-1.0014-7.6331-3.8184-9.6191-2.873-2.023-7.8177-1.5203-10.221 1.0527-1.177 1.256-1.7494 2.9964-1.8164 4.6934-0.068 1.76 0.62683 3.7145 1.0488 5.3945l2.2832 8.9844 7.0938 27.52c0.827 3.209 1.3319 6.7713 4.3789 8.6953 0.587 0.371 1.2764 0.5972 1.9394 0.7832a9.074 9.063 0 0 0 2.4902 0.33594c1.927 2e-3 3.4377 0.09358 5.2637-0.73242 3.099-1.406 3.8352-3.8865 4.6152-6.8965l2.0449-8.2715 3.1133-12.721 1.1602-4.7012 2.0312 8.1582 3.25 13.273c1.107 4.42 1.5627 10.091 6.7637 11.555 1.487 0.42 2.9017 0.35394 4.4297 0.33594 0.732-0.01 1.5068-0.14608 2.2168-0.33008 4.739-1.21 5.44-5.8474 6.457-9.9004l7.1641-27.793 2.1426-8.2949c0.393-1.566 0.97023-3.3635 0.99023-4.9785 0.02-1.899-0.48145-3.7072-1.8144-5.1152-2.619-2.768-8.0135-3.1763-10.771-0.40234-1.6 1.61-2.0535 4.073-2.4805 6.209l-2.0762 10.094-3.3496 16.314-1.8867-7.8809-3.3164-14.104-1.3223-5.6699c-0.428-1.718-0.86823-3.3397-2.1152-4.6777-1.512-1.616-3.3925-1.9634-5.4805-2.1094l-0.9668-0.09961zm68.111 0-0.96875 0.09961c-2.447 0.17-4.7939 0.65062-6.4629 2.6406-1.372 1.637-1.8388 3.9929-1.8418 6.0859v42.307c2e-3 2.026 0.55503 4.3591 2.082 5.7871 2.605 2.435 8.1329 2.4988 10.795 0.13477 1.46-1.3 2.186-3.4432 2.209-5.3672v-25.58l4.7168 7.3281 9.8242 15.488 3.0703 4.8379c0.926 1.487 1.8686 3.0729 3.4336 3.9629 2.031 1.155 4.1291 1.0407 6.3711 1.0137 0.757-9e-3 1.4908-0.162 2.2148-0.375 3.888-1.155 5.2808-3.9732 5.5508-7.7832l0.12305-1.3828v-40.926c-2e-3 -2.164-0.39889-4.586-1.9629-6.209-2.71-2.819-8.9252-2.7057-11.492 0.27734-1.748 2.03-1.6328 4.147-1.6328 6.625v24.471c-0.618-0.575-1.237-1.7432-1.707-2.4902l-3.252-5.2539-10.125-16.312-2.4941-4.0137c-1.483-2.362-2.4107-3.96-5.2637-4.873a14.51 14.491 0 0 0-3.1875-0.49024v-0.00195zm-21.877 0.02734c-1.176 0.165-1.87 0.12614-3.043 0.61915-3.02 1.274-4.3937 4.051-4.4297 7.209v42.863c5e-3 3.112 1.226 6.1552 4.291 7.4062 1.555 0.635 2.26 0.61528 3.877 0.61328 4.027-9e-3 7.2879-2.9477 7.3379-7.0527v-44.383c-5e-3 -2.718-1.397-5.2273-3.877-6.4473-1.112-0.547-2.3746-0.74513-3.5996-0.82813h-0.55664zm-150.31 13.686a15.595 15.45 0 0 0-15.594 15.451 15.595 15.45 0 0 0 15.594 15.449 15.595 15.45 0 0 0 15.594-15.449 15.595 15.45 0 0 0-15.594-15.451zm21.836 0.58203v29.578h5.6582v-18.361l14.859 18.361h4.9336v-29.578h-5.6484v18.439l-14.729-18.439h-5.0742zm-21.711 5.2266a8.858 9.641 0 0 1 8.8594 9.6426 8.858 9.641 0 0 1-8.8613 9.6406 8.858 9.641 0 0 1-8.8574-9.6406 8.858 9.641 0 0 1 8.8594-9.6426z"/>
 <path d="m208.23 281.19h0.96679c0.0341-2.6e-4 0.06767-0.00186 0.10157-0.00586h278.96c7.09 0 12.801-5.7922 12.801-12.992v-98.084c0.0115-7.1879-5.7293-13.014-12.801-12.994h-279.06v0.01367h-0.96679v124.06zm252.96-99.779c11.348-0.274 21.936 5.1445 21.936 5.1445l-3.8496 11.543s-7.8403-3.4236-14.904-3.8066c-4.98-0.27-12.96 0.74284-13.914 5.7148-2.134 11.117 14.188 10.582 23.367 15.725 3.427 1.919 6.3902 3.7253 9.2402 7.6953 2.264 3.152 2.9456 9.173 2.3086 13.418-2.3 15.285-16.396 19.558-26.363 19.18-6.7-0.255-13.425-0.32303-22.352-5.207l2.7754-12.998s6.8256 4.5898 18.268 5.2598c5.407 0.317 13.939-0.17017 14.311-7.9512 0.273-5.656-7.791-7.8531-15.582-10.83-4.478-1.712-8.9733-3.7221-12.072-6.2031-6.653-5.324-8.4036-15.103-6.2676-22.633 1.09-3.845 3.0452-6.728 5.8262-9.127 3.356-2.895 8.4694-4.7098 17.273-4.9238zm-236.25 1.8672h0.00196l0.00195 0.00195h11.727l34.062 44.434v-44.434h13.057v71.264h-11.404l-34.365-44.232v44.23h-13.08v-71.264zm68.49 0.00195h46.75v11.537h-31.984v16.721h26.219v13.164h-26.219v18.256h31.992v11.586h-46.758v-71.264zm53.887 0h13.502s2.1928 17.988 3.7168 26.912c1.644 9.627 5.8476 28.701 5.8476 28.701l11.393-53.1h16.176l11.674 53.525s4.3215-21.321 6.1445-32.045c1.354-7.97 3.5586-23.994 3.5586-23.994h13.238s-3.1867 22.16-5.4297 33.09c-2.64 12.872-9.2793 38.174-9.2793 38.174h-16.531s-4.132-17.162-6.002-25.789c-1.933-8.919-5.3906-26.844-5.3906-26.844s-3.4297 18.3-5.4277 27.389c-1.86 8.456-6.1055 25.244-6.1055 25.244h-16.455s-6.9699-28.104-9.7949-42.303c-1.91-9.596-4.834-28.961-4.834-28.961z" fill="#ab0000"/>
</svg>
