<svg viewBox="0 0 512 512" xmlns="http://www.w3.org/2000/svg"><g transform="translate(0 36.848)"><rect x="11.59" y="158.72" width="488.9" height="121.88" ry="12.641" fill="#fff"/><path d="M23.746 157.12c-7.612-.02-13.811 6.175-13.799 13.787v96.492c-.012 7.612 6.187 13.802 13.799 13.783h184.48v-124.06H23.746zm-.101 2H208.183v120.06H23.733c-6.52.027-11.815-5.26-11.797-11.781v-96.498c-.019-6.486 5.222-11.76 11.709-11.783zm73.274 8.955c-10.517 0-12.348 5.605-12.348 10.99v70.764c1.153.177 2.36.271 3.742.271 10.435 0 12.523-3.07 12.523-8.416v-73.203a18.773 18.773 0 0 0-3.918-.406zm40.35 20.652c-7.307 0-11.36 2.667-15.6 7.254l-20.06 21.896 16.14 25.373c2.983 4.629 6.912 6.984 13.283 6.984 4.188 0 7.671-.974 9.271-1.732l-19.436-29.244 13.77-14.604 22.596 35.432-13.77 28.973c1.381.707 4.187 1.558 7.711 1.65 6.06.136 9.365-2.179 11.816-7.617l32.5-72.363c-1.34-.716-4.324-1.514-6.734-1.555-4.19-.083-9.81.757-13.377 9.307l-10.518 24.781-20.641-33.561c-1.34-.406-4.593-.975-6.953-.975zm-81.492.104c-2.93.01-5.874.135-8.639.435-12.97 1.422-19.568 9.204-19.568 18.514 0 7.66 5.57 14.86 16.006 16.863l12.574 2.408c4.594.892 6.951 1.91 6.951 4.41 0 1.91-1.785 3.913-7.709 3.913-5.353 0-12.566-.8-17.16-.8-4.417-.01-9.103 1.993-9.103 10.68 0 1.07.175 2.408.404 3.466 6.6.758 20.464 1.961 30.047.933 13.24-1.422 19.748-8.674 19.748-18.646 0-8.593-5.302-15.579-17.607-17.852l-11.994-2.219c-3.836-.665-6.246-1.558-6.246-3.738 0-2.044 2.547-3.734 8.648-3.734 6.017 0 11.275.623 14.664.623 4.417 0 9.002-1.869 9.002-10.555 0-1.16-.136-2.222-.355-3.342-4.708-.57-12.18-1.36-19.662-1.36z"/><path d="M208.23 281.19h.967a.922.922 0 0 0 .101-.006h278.96c7.09 0 12.801-5.792 12.801-12.992v-98.084c.012-7.188-5.729-13.014-12.8-12.994h-279.06v.014h-.967v124.06zm252.96-99.779c11.348-.274 21.936 5.144 21.936 5.144l-3.85 11.543s-7.84-3.423-14.904-3.806c-4.98-.27-12.96.743-13.914 5.715-2.134 11.117 14.188 10.582 23.367 15.725 3.427 1.919 6.39 3.725 9.24 7.695 2.265 3.152 2.946 9.173 2.31 13.418-2.3 15.285-16.397 19.558-26.364 19.18-6.7-.255-13.425-.323-22.352-5.207l2.776-12.998s6.825 4.59 18.268 5.26c5.407.317 13.939-.17 14.31-7.951.274-5.656-7.79-7.853-15.581-10.83-4.478-1.712-8.974-3.723-12.072-6.204-6.653-5.324-8.404-15.103-6.268-22.633 1.09-3.845 3.045-6.728 5.826-9.127 3.356-2.895 8.47-4.71 17.273-4.923zm-236.25 1.867h.002l.002.002h11.727l34.062 44.434V183.28h13.057v71.264h-11.404l-34.365-44.232v44.23h-13.08v-71.264zm68.49.002h46.75v11.537h-31.984v16.721h26.219v13.164h-26.219v18.256h31.992v11.586H293.43zm53.887 0h13.502s2.193 17.988 3.717 26.912c1.644 9.627 5.847 28.701 5.847 28.701l11.393-53.1h16.176l11.674 53.525s4.322-21.32 6.145-32.045c1.354-7.97 3.558-23.994 3.558-23.994h13.238s-3.186 22.16-5.43 33.09c-2.64 12.872-9.279 38.174-9.279 38.174h-16.53s-4.133-17.162-6.003-25.789c-1.933-8.919-5.39-26.844-5.39-26.844s-3.43 18.3-5.428 27.39c-1.86 8.455-6.105 25.243-6.105 25.243h-16.455s-6.97-28.104-9.795-42.303c-1.91-9.596-4.834-28.96-4.834-28.96z" fill="#ab0000"/></g></svg>