<svg version="1.1" viewBox="0 0 512 512" xmlns="http://www.w3.org/2000/svg">
 <g fill="#478034">
  <g transform="matrix(.031672 0 0 -.031672 3.6336 523.96)">
   <path d="m4741.4 16270c-123.57-38.7-199.98-142.5-199.98-271.5 0-51.1 12.73-92.6 63.19-205.9 18.37-41.2 107.26-245.3 197.81-454.1 169.59-391.1 200.25-461.6 342.77-788.2 46.02-105.4 120.53-276.5 165.13-379.2 44.92-103.5 98.68-226.9 120.19-275.9 21.62-49.2 51.17-117.1 66.49-152.7 15.21-35.3 59.4-136.9 98.52-226.5 38.92-89.3 112.23-258.2 162.48-374.4 133.71-309.3 224.34-517.2 226.79-520.2 4.31-5.2 349.58 130.1 349.58 137 0 4.3-199.8 540.8-444.3 1193-244.49 652.1-458.91 1225-476.8 1273.8-18.06 49.2-43.24 117.1-56.65 152.7-13.27 35.2-73.68 197-134.25 359.5-149.75 402-156.52 417.4-204.14 464.7-71.22 70.8-181.27 97.8-276.83 67.9" fill="#478034"/>
  </g>
  <g>
   <path d="m395.96 46.048c-1.7348 0.68331-3.0203 1.8097-5.922 5.1795-1.5632 1.8159-9.5133 11.108-17.651 20.624-8.1374 9.5165-19.913 23.289-26.147 30.577-6.2434 7.3012-11.938 13.963-12.668 14.821-0.73324 0.86116-4.078 4.7738-7.4728 8.7364-3.3947 3.9626-7.635 8.9236-9.4696 11.077-1.8343 2.1529-3.3997 3.9688-3.4946 4.0562-0.0942 0.0842-1.7857 2.0593-3.7442 4.3682-1.9582 2.3089-3.8755 4.5648-4.2434 4.9922-0.37036 0.43058-2.4521 2.8549-4.649 5.4135l-3.9782 4.6334-1.2793-0.17161c-2.8705-0.38378-6.5916 0.96101-8.6824 3.1358-5.0091 5.2107-3.3925 13.847 3.1598 16.88 4.1186 1.9033 9.3136 0.87364 12.414-2.4649 1.8487-1.9906 2.9941-6.4587 2.3594-9.2044-0.28237-1.22-0.23713-1.3417 0.99221-2.6521 2.5757-2.7457 12.871-13.626 15.47-16.35 1.479-1.5476 5.3979-5.6787 8.7364-9.2044 6.7988-7.1764 9.6132-10.14 14.381-15.133 1.8159-1.9033 4.6522-4.8924 6.3651-6.7083 1.7067-1.8097 4.2278-4.4618 5.6319-5.9283 1.3947-1.454 5.1358-5.3979 8.2902-8.7364 5.3979-5.7099 16.166-17.052 21.479-22.621 14.914-15.632 20.693-21.882 21.261-22.996 1.0016-1.9657 1.1264-4.9298 0.30266-7.1139-0.727-1.9345-2.571-4.0094-4.3276-4.8706-1.4353-0.70203-5.6787-0.90796-7.114-0.3401"/>
   <path d="m268.53 112.14c-18.502 1.2169-40.041 5.5414-58.347 11.713-1.8097 0.61155-3.4019 1.22-3.557 1.3635-0.27769 0.25586 9.4229 26.537 9.9221 26.88 0.15195 0.10609 0.81124 0.2777 1.4353 0.37754 2.718 0.43682 6.2078 3.7785 7.2026 6.8987 1.1339 3.557-0.0693 7.9657-2.8968 10.612-2.2733 2.1279-3.9314 2.7769-7.1139 2.7894-3.2138 0.0125-5.2996-0.81436-7.4572-2.9485-2.0665-2.0437-2.9701-4.2746-2.9841-7.3636-0.01-2.2777 0.0983-2.7395 1.0964-4.6802l1.1077-2.1529-1.8409-4.2122c-1.0091-2.3089-2.2322-5.1295-2.707-6.2403-1.0662-2.4961-4.9333-11.339-6.0306-13.791-0.44681-0.99845-0.96382-1.8097-1.1532-1.8097-0.91514 0-14.353 6.3058-20.156 9.4572-24.493 13.307-43.699 31.105-51.91 48.11-2.9077 6.0219-4.7479 12.399-5.069 17.566l-0.12013 1.9345 0.95165 0.14041c0.52418 0.078 6.0687 0.21841 12.34 0.31202 6.2709 0.0936 19.002 0.33385 28.331 0.53042l16.942 0.35882 1.6556-1.8409c1.9033-2.1155 3.9607-3.2762 6.3944-3.6069 4.5554-0.62091 8.7623 1.6911 10.883 5.9782 0.71888 1.454 0.84868 2.1217 0.84868 4.3682 0 2.2153-0.13604 2.9398-0.8259 4.3994-1.0206 2.1588-2.9183 4.0456-5.196 5.1663-2.4596 1.21-5.9907 1.2337-8.4868 0.0565-1.7473-0.82403-3.4933-2.2696-4.4618-3.694-0.51388-0.75601-0.62403-0.77754-3.557-0.6961-6.4587 0.17878-51.177 1.6468-52.356 1.7186-1.5616 0.0952-1.5451 0.31919 0.29922 4.0322 4.9869 10.04 14.428 18.121 27.938 23.914 23.014 9.8684 55.695 11.973 90.016 5.7957 21.467-3.8634 41.557-10.371 60.625-19.638 31.794-15.452 54.968-36.827 62.403-57.561 2.4056-6.7083 3.0422-10.624 2.7832-17.067-0.38378-9.4853-3.9969-17.517-11.183-24.868l-3.0203-3.089-2.9017 2.4712c-10.609 9.0266-18.549 17.451-21.111 22.396-0.63339 1.2231-0.82684 2.0593-0.83932 3.6194-0.0125 1.7785 0.0967 2.1747 0.88924 3.2138 0.50859 0.6646 1.4665 1.4758 2.1841 1.844 2.7052 1.3916 4.0562 1.5788 12.761 1.7754l8.3932 0.18721-5.8659 2.156c-17.878 6.571-21.439 8.8924-22.624 14.755-0.75507 3.7317 0.78628 9.9221 4.0905 16.412 1.0296 2.0281 1.8721 3.7223 1.8721 3.7754 0 0.053-2.2465-0.64899-5.0234-1.5632-5.8971-1.947-8.7782-2.596-12.605-2.83-8.5913-0.53354-13.88 2.8955-17.99 11.663-1.386 2.9563-3.5451 9.3916-4.6166 13.76-0.65055 2.6521-1.263 3.7564-1.263 2.2777 0-1.3301-2.1573-11.264-2.9542-13.604-2.3376-6.8643-6.2678-11.002-12.491-13.148-2.4066-0.82996-2.7145-0.86116-8.5804-0.86116-6.8144 0-10.328 0.4961-17.566 2.4836-2.2153 0.60842-4.074 1.0608-4.1342 1.0109-0.0596-0.0499 0.98285-0.9454 2.2933-1.9688 3.4946-2.727 11.268-10.568 13.147-13.258 3.2684-4.6802 4.6206-8.3433 4.2496-11.513-0.84837-7.2481-5.9458-14.412-14.745-20.724-1.9657-1.4103-3.4103-2.6022-3.2294-2.6615 0.18066-0.0593 2.1061 0.38378 4.2902 0.99221 6.1779 1.7161 9.0965 2.1716 13.822 2.1623 6.1779-0.0125 9.9807-1.1638 13.978-4.2247 3.4712-2.6584 6.4862-7.7754 7.6896-13.048 0.78628-3.4446 1.074-6.1779 1.1554-10.983 0.0431-2.5273 0.16318-4.6709 0.26584-4.7395 0.23526-0.14976 0.41685 0.2465 3.1436 6.8612 2.7913 6.7707 3.8509 8.7208 5.85 10.765 1.9835 2.0281 4.2559 2.9704 6.264 2.5991 3.4855-0.64587 10.418-6.7801 18.272-16.172 5.089-6.0843 7.4509-9.2232 7.1576-9.5102-0.81124-0.79876-12.761-3.4353-20.562-4.5336-9.2051-1.298-24.68-1.7566-35.414-1.0515"/>
   <path d="m374.21 199.72c-0.57723 0.63963-0.88924 1.9033-2.8362 11.451-0.77379 3.7882-2.1841 10.64-3.1482 15.289-0.96412 4.649-2.2933 11.081-2.9641 14.353-0.67395 3.2762-1.4946 7.2544-1.8409 8.8924-0.34322 1.6325-1.6256 7.8004-2.8549 13.729s-2.9953 14.479-3.9314 19.033c-0.93604 4.5554-2.2465 10.931-2.9173 14.197s-1.9907 9.6413-2.9361 14.197c-3.8908 18.69-5.2575 25.287-5.9408 28.674-0.73011 3.6194-1.1482 4.3994-2.3557 4.3994-0.63651 0-0.15601 0.45928-27.145-26.023-3.6896-3.6203-12.886-12.62-20.437-19.999-7.5508-7.3792-16.993-16.639-20.983-20.577-3.9938-3.9423-7.4225-7.2662-7.6288-7.3957-0.68643-0.43027-2.0184-0.28893-2.5039 0.26615-0.40437 0.46209-2.8734 8.83-5.7355 19.439-0.39501 1.4649-1.1273 4.1186-1.6359 5.9283-0.50796 1.8075-1.4864 5.3042-2.1835 7.8004-1.8381 6.5835-9.8694 35.295-11.303 40.406-0.67395 2.4025-1.7239 6.1935-2.3329 8.4244-0.61343 2.2465-1.3791 4.961-1.7161 6.0843-0.33385 1.113-1.3616 4.7738-2.2777 8.1124-1.4125 5.1482-1.7819 6.1417-2.4025 6.4587-0.56163 0.28674-0.89018 0.28674-1.4041 0-0.37005-0.20656-4.771-4.9922-9.8129-10.671-5.0418-5.6787-10.08-11.346-11.233-12.637-1.1532-1.2911-3.8877-4.3682-6.0999-6.8643-2.2119-2.4961-4.7158-5.2936-5.5851-6.2403-0.86646-0.94384-2.5585-2.8393-3.7598-4.2122s-2.8222-3.1982-3.6022-4.0562c-1.5404-1.6942-10.207-11.42-20.825-23.37-3.6871-4.1498-7.1227-8.0088-7.6668-8.6116-1.6531-1.8322-23.63-26.49-26.056-29.236-2.9782-3.3698-4.0032-3.9002-5.1252-2.6521-0.96132 1.0696-0.67395 2.1529 2.3744 8.9548 0.61436 1.3713 3.3894 7.7692 6.1576 14.197 2.7682 6.4275 5.2278 12.122 5.4581 12.637 0.65617 1.4652 6.3938 14.727 10.462 24.181 13.936 32.387 21.622 49.915 22.767 51.919 8.6506 15.142 27.632 26.64 51.002 30.892 13.958 2.5398 27.021 2.8861 42.184 1.1189 26.084-3.04 50.936-11.331 71.857-23.971 28.83-17.42 47.433-43.738 46.418-65.67-0.0811-1.7476-0.65211-7.0515-1.2699-11.763-0.61779-4.7192-1.8378-14.478-2.7145-21.685-0.87677-7.2076-2.3464-19.283-3.2699-26.833-2.8986-23.713-3.5445-29.041-4.8456-39.938-1.766-14.79-2.1498-17.588-2.4899-18.222-0.56786-1.0608-2.1248-1.2761-2.9111-0.40562"/>
   <path d="m26.005 205.69c-3.056 1.1888-4.8509 3.2886-5.5308 6.4712-0.71994 3.3698 0.77517 7.1636 3.5651 9.0469 2.8762 1.9414 0.37442 1.8908 34.821 0.70297 4.7236-0.16287 15.382-0.51108 23.713-0.77474 22.278-0.70515 31.264-1.0499 31.42-1.2059 0.0849-0.0849-0.0696-1.1233-0.33885-2.2777-0.66178-2.8393-1.1276-6.5492-1.1276-8.986v-1.9657l-6.9423-0.18721c-3.8241-0.10297-15.211-0.33386-25.351-0.51483s-24.926-0.45866-32.918-0.62091c-19.376-0.39002-19.513-0.39002-21.311 0.31202"/>
  </g>
 </g>
 <path d="m17.986 388.2v4.3848 4.3828h-6.8652v6.5527h3.4336 3.4316v10.781 10.779l3.1973-0.09375 3.1992-0.09375 0.078126-10.67 0.078124-10.672 6.707-0.1875v-3.1191-3.1211l-6.6758-0.1875-0.09375-4.2734-0.09375-4.2754-3.1992-0.09374-3.1973-0.09376zm31.826 0.03126v3.4336 3.4316h6.2402v-6.8652h-3.1211-3.1191zm41.809 0v18.41 18.408h6.2402v-36.818h-3.1191-3.1211zm54.9 0c-2.3089 0-3.1781 0.11173-3.293 0.42187-0.0864 0.23308-0.11429 1.731-0.0625 3.3535l0.09375 2.9336 3.1992 0.09375 3.1973 0.09375v-3.4473-3.4492h-3.1348zm-72.561 8.416c-1.3326 0.01443-2.6582 0.21782-3.9297 0.625-0.96725 0.30952-2.3913 0.92669-3.1211 1.3535-2.0225 1.1832-4.5091 3.99-5.6367 6.3613l-1.0098 2.1211-0.09375 13.027-0.09375 13.027h3.1367 3.1367v-4.0254-4.0254l5.5215-0.12304c6.2403-0.13947 7.4399-0.42089 10.422-2.4512 7.1139-4.8431 8.2907-14.937 2.4785-21.264-2.7623-3.007-6.8129-4.6702-10.811-4.627zm-27.27 0.00977-1.1699 0.01562c-0.63807 8e-3 -1.9507 0.22344-2.8867 0.47461-4.7788 1.2811-8.9113 5.7186-9.9492 10.68-0.20209 0.96569-0.3457 4.8977-0.3457 9.4531v7.8008l6.3945-0.1875 0.15234-8.2676c0.15975-8.674 0.16102-8.6752 1.7754-10.797 0.85492-1.1239 3.2213-2.4626 4.875-2.7578l1.1543-0.20508v-3.1055-3.1035zm68.52 0.03125c-1.2169 0.0162-2.7509 0.15712-3.4024 0.3125-2.0593 0.49142-4.9684 2.1911-6.6758 3.8984-4.118 4.118-5.2062 10.61-2.6816 16.008 1.2371 2.6453 4.6781 5.9126 7.4238 7.0508 2.1357 0.8855 2.3093 0.90464 7.8008 0.91992l5.6152 0.01562 0.09765-2.4961c0.16318-4.1772 0.52638-3.9004-5.1211-3.9004-4.5242 0-4.934-0.04853-6.3496-0.76367-0.84244-0.42559-2.0183-1.3585-2.6524-2.1055l-1.1387-1.3418 21.062-0.3125 0.28711-1.4043c0.3582-1.7454-0.16067-5.4289-1.0449-7.4258-2.2521-5.0858-7.6356-8.53-13.221-8.4551zm-65.398 0.27929v14.041 14.041h6.2402v-28.082h-3.1211-3.1191zm96.771 0c-1.6849 0-3.1663 0.09202-3.2773 0.20313-0.11139 0.11139-0.20312 6.2243-0.20312 13.588 0 14.821 0.01782 14.679-2.0527 16.818-1.093 1.1295-2.5963 1.9355-4.25 2.2812l-0.87305 0.18359v3.1524 3.1504l1.6699-0.125c1.0378-0.0777 2.5432-0.54381 3.9785-1.2324 3.6818-1.7666 6.0412-4.3333 7.3301-7.9726 0.7504-2.1195 0.75-2.1369 0.75-16.084v-13.963h-3.0723zm-31.344 6.0703c1.2046 0.01197 2.4201 0.34185 3.7774 0.99023 1.5289 0.73012 3.1816 2.3794 3.1816 3.1738 0 0.27176-1.9337 0.375-7.0508 0.375h-7.0527l0.54688-0.87305c0.87957-1.4041 1.7054-2.1902 2.8867-2.75 1.3128-0.62169 2.5064-0.92799 3.7109-0.91601zm-40.381 0.16992c0.74306 0.02213 1.4659 0.13933 2.1289 0.36133 4.337 1.4524 6.3819 6.775 4.166 10.842-1.0128 1.858-1.3898 2.2212-3.3867 3.2774-1.4571 0.77068-1.7613 0.80859-6.5039 0.80859h-4.9766l0.10938-4.8984c0.12169-5.3979 0.41593-6.4375 2.3242-8.2422 1.5017-1.42 3.9095-2.2148 6.1387-2.1484z"/>
 <g fill="#478034">
  <path d="m293.7 429.31c-0.11171 0.1117-0.20281 3.9626-0.20281 8.5804v8.3776l-13.261 0.156-0.078 6.1623-0.078 6.1623h13.417v42.122h12.481v-42.122h13.729l-0.078-6.1623-0.078-6.1623-13.573-0.156v-17.161h-6.0375c-3.3074 0-6.1292 0.0917-6.2403 0.20281"/>
  <path d="m322.65 429.5c-0.078 0.21435-0.10609 16.334-0.0624 35.804l0.078 35.414 12.293 0.156 0.10609-15.382c0.11232-16.724 0.10608-16.649 2.0187-20.094 2.4119-4.3473 8.1093-7.582 13.351-7.582 7.0515 0 13.685 5.317 15.098 12.106 0.22465 1.0777 0.34634 6.7551 0.34634 16.303v14.649h12.512l-0.1872-32.606-0.85805-2.7457c-2.6272-8.3932-8.2902-14.768-15.96-17.961-3.9626-1.6502-6.0843-2.0362-11.108-2.0216-3.9314 0.0115-4.8924 0.12137-7.3324 0.83995-1.5601 0.45928-3.8815 1.3744-5.2262 2.0593l-2.4181 1.2324v-20.562h-6.2559c-4.7114 0-6.2902 0.0964-6.3963 0.39002"/>
  <path d="m481.33 439.39v10.281l-2.4337-1.2106c-3.0796-1.5329-4.7114-2.0634-8.2684-2.6902-8.6428-1.5226-18.091 1.458-24.231 7.645-10.843 10.921-10.858 28.442-0.0374 39.345 3.4228 3.4502 7.0141 5.6126 11.788 7.1005l2.7457 0.85586 32.918 0.1872v-71.795h-12.481zm-10.172 19.333c4.649 1.6181 8.3433 5.44 9.6787 10.012 0.39938 1.3632 0.49299 3.401 0.49299 10.671v8.986h-8.3308c-11.576 0-13.832-0.57099-17.754-4.493-3.298-3.2992-4.6833-6.9267-4.4181-11.576 0.19345-3.3698 0.98909-5.6587 2.8393-8.1748 2.1467-2.9205 5.4166-5.0568 9.2232-6.0269 1.7317-0.44119 6.2091-0.11513 8.2684 0.60157"/>
  <path d="m100.67 445.55c-10.172 1.6044-17.65 6.9857-21.819 15.702-2.5985 5.4322-2.6125 5.5539-2.7445 23.62l-0.11701 16.006h12.512v-14.649c0-9.454 0.122-15.236 0.34446-16.303 1.6038-7.698 9.3904-13.07 17.191-11.861 3.3074 0.51296 6.8871 2.3847 9.0796 4.747 1.9835 2.1376 3.4992 4.9922 3.9598 7.4572 0.18221 0.97411 0.31482 7.7848 0.31482 16.147v14.462h12.481v-14.321c0-14.821-0.16443-17.536-1.2974-21.404-2.9991-10.241-11.901-17.904-22.634-19.483-2.1529-0.31669-5.6512-0.37379-7.27-0.11856"/>
  <path d="m157.58 445.78c-3.2138 0.60999-5.22 1.3142-8.2684 2.902-14.54 7.5726-19.205 26.394-9.9296 40.057 2.7354 4.0296 7.2774 7.8284 11.708 9.7924 1.0041 0.44522 3.167 1.1636 4.7582 1.5806 2.7854 0.72983 3.3542 0.76443 12.559 0.76443h9.6413v-12.481h-8.674c-9.3604 0-10.79-0.17879-14.041-1.7563-1.9969-0.96881-4.849-3.522-6.0546-5.42-0.47583-0.74883-0.87209-1.4864-0.87209-1.6225 0-0.13697 9.2668-0.24961 20.562-0.24961 19.283 0 20.575-0.0331 20.775-0.53042 0.43932-1.0936 0.57847-8.1436 0.20031-10.14-2.1148-11.17-9.9573-19.675-20.663-22.409-3.3074-0.84432-8.6475-1.0668-11.701-0.48706zm8.2684 12.558c2.5273 0.6284 4.415 1.5607 6.5211 3.2203 1.5601 1.2293 3.8066 4.123 3.8066 4.903 0 0.32075-2.9017 0.40562-13.885 0.40562-7.6444 0-13.88-0.11202-13.874-0.24962 0.0243-0.56287 1.6465-2.8081 3.088-4.2746 3.7046-3.7688 9.1633-5.2927 14.343-4.0047"/>
  <path d="m214.87 445.77c-8.5492 1.5632-15.916 7.055-19.751 14.724-2.3707 4.7414-3.2244 8.83-2.9451 14.103 0.3869 7.3012 3.1342 13.329 8.4366 18.51 2.3835 2.3292 3.9314 3.4217 7.0203 4.9557 4.5972 2.2828 6.1467 2.5751 14.478 2.7301l7.426 0.13835v-12.481l-6.3183-0.14041c-5.6163-0.1248-6.5401-0.21997-8.3152-0.8571-4.2434-1.523-7.9046-5.0047-9.3848-8.9246-0.85461-2.2637-1.1482-6.1779-0.64587-8.6116 1.137-5.5089 5.6936-10.132 11.466-11.633 7.2388-1.8824 15.245 2.3245 18.101 9.5112 0.49954 1.2568 0.57411 3.0578 0.71389 17.161l0.15601 15.757 12.325 0.156v-15.476c0-16.693-0.0902-17.837-1.7507-22.247-1.7744-4.7114-5.4241-9.4687-9.5754-12.482-2.4465-1.7754-6.3963-3.6272-9.4229-4.4175-3.2138-0.83901-8.8157-1.0615-12.013-0.47707"/>
  <path d="m274.46 445.53c-2.9953 0.51045-5.7798 1.2643-7.6444 2.0693-7.2871 3.1454-12.903 9.1864-15.445 16.612-1.4078 4.112-1.5594 6.2403-1.5594 21.872v14.79h12.481v-13.963c0-8.05 0.13541-14.821 0.31981-15.991 1.0038-6.3617 6.2637-11.67 12.754-12.871l2.2777-0.42122 0.0156-6.0687 0.0156-6.0687-1.2169-0.0468c-0.65523-0.0253-1.5769 0.0144-1.9969 0.0861"/>
  <path d="m404.14 445.64c-11.473 1.8013-20.393 10.236-23.105 21.843-0.60219 2.5791-0.61155 8.206-0.0187 11.014 2.4119 11.389 11.548 20.25 22.749 22.063 1.0484 0.16964 6.0063 0.30811 11.03 0.30811h9.1264v-12.418l-9.4385-0.1248c-9.0484-0.11982-9.5165-0.15508-11.311-0.85742-2.2777-0.89112-3.8097-1.8262-5.5227-3.3726-1.3417-1.2109-3.0578-3.6521-3.0578-4.3504 0-0.32918 3.8378-0.40562 20.406-0.40562 19.127 0 20.421-0.0343 20.64-0.54603 0.12793-0.30047 0.29018-2.5117 0.35882-4.9142 0.11233-3.9002 0.0406-4.6958-0.65835-7.426-2.5648-10.016-10.134-17.639-20.091-20.236-2.7769-0.72418-8.3308-1.0128-11.108-0.5766zm7.5196 12.651c3.9314 0.9273 7.713 3.5152 9.738 6.664 0.52418 0.81124 0.96412 1.5907 0.96412 1.7005 0 0.1117-6.3183 0.20281-14.056 0.20281h-14.056l0.85804-1.5913c0.46803-0.86553 1.6693-2.341 2.6365-3.235 3.8659-3.5748 8.8924-4.9255 13.916-3.7411"/>
  <path d="m18.205 446.49c-0.35735 0.35726-0.25691 29.142 0.11092 31.794 1.1729 8.4556 6.6903 16.334 14.211 20.291 4.7036 2.4752 7.8316 3.2346 13.323 3.2346 4.4306 0 6.8378-0.44353 10.546-1.9429 9.367-3.7877 15.984-12.566 17.14-22.737 0.20531-1.8059 0.29735-8.2684 0.23963-16.818l-0.0936-13.885-12.325-0.156v14.119c0 8.0812-0.13666 14.959-0.3195 16.084-1.6478 10.14-12.633 15.921-21.74 11.439-3.9064-1.9226-6.3215-4.6681-8.1416-9.2547-0.4689-1.1819-0.55105-3.1826-0.6884-16.786l-0.15601-15.445-5.9439-0.078c-3.2762-0.0431-6.0419 0.02-6.1623 0.14041"/>
 </g>
</svg>
