<svg version="1.1" viewBox="0 0 512 512" xmlns="http://www.w3.org/2000/svg">
 <ellipse cx="144.09" cy="256.65" rx="126.21" ry="127.25" fill="#fff" stroke-width=".20562"/>
 <path d="m311.62 195.52c-1.234 0-2.227 1.077-2.227 2.414v116.01c0 1.337 0.993 2.413 2.227 2.413h23.946c1.234 0 2.226-1.076 2.226-2.413v-45.957h34.084v45.957c0 1.337 0.994 2.413 2.228 2.413h23.945c1.234 0 2.228-1.076 2.228-2.413v-116.01c0-1.337-0.994-2.414-2.228-2.414h-23.945c-1.234 0-2.228 1.077-2.228 2.414v45.928h-34.084v-45.928c0-1.337-0.992-2.414-2.226-2.414zm100.71 0c-0.586 0-1.059 0.86-1.059 1.93v95.504c-0.0701 0.27245-0.10536 0.55268-0.105 0.834v20.651c0 1.064 0.46 1.921 1.033 1.921h47.105c34.382-2.635 43.624-21.48 42.95-40.342v-43.072l8e-3 -1e-3c-4e-3 -0.015-5e-3 -0.05-9e-3 -0.065 0.112-28.02-26.198-37.36-44.683-37.36l3e-3 0.133c-1.128-0.126-2.157-0.133-3.375-0.133h-40.699zm27.342 24.599h22.457c9.582 2.73 11.562 10.33 12.09 14.347v39.04c-0.19 11.942-8.768 18.444-15.396 18.308l-19.151 0.053z"/>
 <path d="m143.71 122.01c-74.003 0-133.99 59.991-133.99 133.99 0 74.002 59.991 133.99 133.99 133.99 74.003-5.5e-4 133.99-59.992 133.99-134-5.5e-4 -74.002-59.991-133.99-133.99-133.99zm-60.483 91.742 1.511 0.158c3.27 0.229 6.212 0.775 8.578 3.306 1.952 2.099 2.646 4.641 3.317 7.334l2.07 8.884 5.187 22.108 2.957 12.352 5.245-25.571 3.249-15.822c0.668-3.348 1.374-7.207 3.877-9.731 4.317-4.35 12.766-3.706 16.866 0.632 2.085 2.208 2.87 5.038 2.838 8.016-0.032 2.532-0.933 5.348-1.547 7.802l-3.358 13.002-11.216 43.561c-1.59 6.353-2.687 13.621-10.105 15.52-1.111 0.288-2.32 0.503-3.466 0.517-2.391 0.029-4.606 0.13-6.933-0.527-8.143-2.296-8.86-11.181-10.594-18.111l-5.087-20.804-3.174-12.787-1.816 7.37-4.877 19.934-3.198 12.967c-1.22 4.718-2.377 8.604-7.23 10.807-2.857 1.295-5.22 1.155-8.237 1.15-1.3191 7e-3 -2.6327-0.17028-3.903-0.526-1.037-0.292-2.113-0.647-3.03-1.228-4.771-3.016-5.563-8.6-6.856-13.632l-11.108-43.128-3.57-14.085c-0.661-2.633-1.752-5.695-1.646-8.452 0.106-2.661 1.005-5.39 2.847-7.359 3.762-4.032 11.501-4.82 15.998-1.65 4.41 3.113 4.99 10.116 5.98 15.078l4.986 24.488 1.561 7.802c0.289 1.448 0.502 3.234 1.125 4.55l2.627-11.484 4.815-20.807 2.447-10.618c0.5-2.046 0.84-4.22 1.913-6.069 2.184-3.762 5.434-4.507 9.438-4.789zm106.62 0c1.6852 0.0721 3.3572 0.33169 4.985 0.774 4.466 1.431 5.925 3.937 8.246 7.64l3.903 6.286 15.85 25.572 5.09 8.233c0.735 1.171 1.706 3.003 2.673 3.904v-38.36c0-3.884-0.18-7.2 2.555-10.381 4.019-4.676 13.747-4.853 17.99-0.437 2.448 2.546 3.07 6.344 3.073 9.736v64.147l-0.196 2.166c-0.422 5.97-2.601 10.39-8.687 12.2-1.132 0.334-2.286 0.574-3.47 0.588-3.51 0.043-6.79 0.222-9.969-1.589-2.45-1.396-3.93-3.882-5.379-6.213l-4.806-7.585-15.375-24.272-7.384-11.487v40.091c-0.035 3.017-1.177 6.378-3.462 8.413-4.167 3.706-12.82 3.606-16.898-0.21-2.39-2.238-3.255-5.896-3.26-9.07v-66.31c4e-3 -3.28 0.74-6.973 2.888-9.54 2.612-3.118 6.287-3.87 10.115-4.138zm-34.244 0.046h0.868c1.916 0.13 3.895 0.44 5.636 1.298 3.881 1.912 6.061 5.844 6.069 10.105v69.564c-0.077 6.434-5.183 11.041-11.486 11.055-2.532 3e-3 -3.636 0.03-6.07-0.964-4.798-1.962-6.708-6.728-6.714-11.605v-67.183c0.055-4.95 2.207-9.302 6.932-11.3 1.837-0.772 2.922-0.71 4.765-0.97z" fill="#2e6ac2"/>
</svg>
