<svg xmlns="http://www.w3.org/2000/svg" viewBox="0 0 512 512">
    <g>
        <path d="M273.43 211.58c-.357 0-.651.13-.879.357v.032c-.227.26-.357.554-.357.879v21.707q0 .292-.196.39-.194.098-.388-.195c-2.73-3.38-6.468-5.069-11.375-5.069-4.908 0-9.067 1.266-12.414 3.801-3.348 2.535-5.784 5.98-7.344 10.303-1.203 3.575-1.82 7.897-1.82 12.576s.585 8.776 1.722 12.285c1.463 4.582 3.932 8.221 7.344 10.854s7.28 3.965 12.22 3.965c4.939 0 8.84-1.885 11.667-5.59.13-.162.259-.194.389-.162.13.033.195.163.195.358v3.347c0 .358.13.65.357.877.26.228.554.358.88.358h11.86c.358 0 .65-.13.877-.358.228-.26.358-.552.358-.877v-68.604c0-.357-.13-.65-.358-.877-.26-.227-.552-.357-.877-.357zm75.037 17.451c-17.451 0-23.398 15.013-23.398 27.492 0 17.971 8.71 27.234 20.961 27.234 4.039 0 7.051-1.073 10.041-2.926v.26c0 .975.78 1.527 1.756 1.527h12.496c.975 0 1.527-.778 1.527-1.72v-31.2c0-10.886-5.964-20.636-23.383-20.636zm130.15 0c-17.451 0-23.398 15.013-23.398 27.492 0 17.971 8.71 27.234 20.961 27.234 4.038 0 7.053-1.073 10.043-2.926v.26c0 .975.779 1.527 1.754 1.527h12.496c.975 0 1.527-.778 1.527-1.72v-31.2c0-10.886-5.964-20.636-23.383-20.636zm-74.486.584c-5.85 0-10.04 2.048-12.803 6.176q-.195.292-.39.193-.196-.097-.196-.389v-3.964c0-.358-.13-.65-.357-.877-.26-.228-.552-.358-.877-.358h-11.861c-.358 0-.652.13-.88.358-.227.26-.357.552-.357.877v49.72c0 .358.13.652.358.88.26.227.554.357.879.357h11.86c.358 0 .65-.097.878-.357s.357-.554.357-.88V249.18q.439-3.413 2.633-5.364c1.462-1.267 3.055-1.916 5.428-1.916s4.257.845 5.752 2.502q2.242 2.486 2.242 6.532v30.45c0 .358.13.65.357.878.26.227.552.357.877.357h11.7c.357 0 .649-.097.876-.357.228-.26.358-.552.358-.877v-30.55c0-2.697.749-4.873 2.244-6.497s3.41-2.438 5.783-2.438c2.372 0 4.257.813 5.687 2.438 1.43 1.624 2.145 3.833 2.145 6.595v30.451c0 .358.13.65.357.877.26.228.554.358.88.358h11.796c.358 0 .65-.098.877-.358.228-.26.358-.552.358-.877v-33.57c0-5.752-1.43-10.204-4.42-13.389h-.098q-4.484-4.777-12.381-4.777c-3.185 0-6.012.649-8.547 2.014-2.535 1.332-4.55 3.413-6.045 6.175-.26.39-.52.39-.715 0-1.365-2.632-3.314-4.648-5.85-6.078-2.534-1.43-5.651-2.144-8.905-2.144zm-86.15.13c-4.647 0-8.386 2.015-11.148 6.077q-.097.195-.291.098-.195-.097-.195-.389v-3.87c0-.357-.13-.649-.358-.876-.26-.227-.552-.357-.877-.357H293.25c-.357 0-.65.13-.877.357-.227.26-.357.552-.357.877v49.723c0 .357.13.65.357.877.26.227.552.357.877.357h11.863c.358 0 .65-.097.877-.357.228-.26.358-.552.358-.877v-27.688q0-3.949 2.535-6.338c1.69-1.592 3.736-2.502 6.174-2.697.942-.13.91-.196 2.242-.196s2.535.195 3.543.52c.877.325 1.365.098 1.43-.715l2.144-11.568c.13-.747-.057-1.237-.617-1.56-.566-.373-1.242-.641-1.992-.87-1.146-.348-2.462-.527-3.825-.527zM263.059 241.9c2.957 0 5.231 1.332 6.791 3.965 1.495 2.567 2.242 6.14 2.242 10.658 0 4.322-.649 7.736-2.013 10.238-1.69 2.892-3.803 4.353-7.118 4.353s-5.818-1.429-7.508-4.353c-1.43-2.698-2.144-5.624-2.144-10.141s.845-8.124 2.535-10.756c1.625-2.633 4.258-3.965 7.215-3.965zm87.172.053c4.124.12 5.836 2.916 5.836 6.511v15.73c0 3.802-1.949 6.76-6.694 6.5-4.907-.293-9.393-4.584-9.685-14.366.292-9.814 4.778-14.103 9.686-14.363a10 10 0 0 1 .857-.011zm130.15 0c4.124.12 5.838 2.916 5.838 6.511v15.73c0 3.802-1.95 6.76-6.695 6.5-4.908-.293-9.392-4.584-9.684-14.366.292-9.814 4.776-14.103 9.684-14.363a10 10 0 0 1 .857-.011zM142.3 185.64c-25.576 0-50.273 14.038-62.688 38.379-9.424 18.459-25.154 31.556-43.223 38.023v61.422h43.969v-34.025c11.894 22.001 35.163 36.916 61.941 36.916 38.868 0 70.359-31.49 70.359-70.357s-31.492-70.357-70.359-70.357zm0 43.969c14.592 0 26.389 11.797 26.389 26.389 0 14.559-11.797 26.389-26.389 26.389s-26.389-11.797-26.389-26.389 11.797-26.389 26.389-26.389"/>
        <path d="M10 258.89c38.868 0 70.358-31.491 70.358-70.358h-43.97c0 14.559-11.797 26.388-26.388 26.388z"/>
    </g>
</svg>
