<svg width="512" height="512" xmlns="http://www.w3.org/2000/svg"> <path d="M144.842 122.961A132.943 132.951 0 0 0 11.9 255.913a132.943 132.951 0 0 0 132.943 132.951 132.943 132.951 0 0 0 132.944-132.952 132.943 132.951 0 0 0-132.944-132.95zm27.49 70.81a61.955 62.237 0 0 1 61.955 62.236 61.955 62.237 0 0 1-61.955 62.237 61.955 62.237 0 0 1-55.189-34.102v31.314h-38.43v-61.784c-11.836 4.615-22.105 4.956-23.296 4.848v-38.957s20.926 0 23.295-23.295h38.431v31.464a61.955 62.237 0 0 1 55.19-33.962zm0 38.684a23.445 23.552 0 0 0-23.446 23.552 23.445 23.552 0 0 0 23.446 23.552 23.445 23.552 0 0 0 23.445-23.552 23.445 23.552 0 0 0-23.445-23.552z"/><path d="M290 739.5V209l234.188-1.865C526.638 351.75 528.303 496.375 530 641l306.31.61c.236-143.88 1.997-290.523 3.69-434.39h230V1270H840V840H530v430H290V739.5m890 1.5V210h233c177 0 247.18 3.676 292 15.289 125 32.387 207.07 99.981 244.91 201.711 18.25 49.055 20.09 78 20.09 316 0 282-5.48 322.05-53.77 393-28.93 42.52-81.23 79.85-151.23 107.94-45.05 18.07-76.5 20.45-317.5 24.06l-267.5 4zm477 293c15.27-11.45 38.23-36 50.5-54 21.52-31.566 22.5-42 22.5-240s-.98-208.434-22.52-240c-44.26-64.883-67.48-74.551-188.48-78.469L1410 418v644l109.5-3.5c92-2.94 113.98-6.86 137.5-24.5" transform="matrix(.11366 0 0 -.11366 275.925 339.195)"/></svg>
