<svg version="1.1" viewBox="0 0 512 512" xmlns="http://www.w3.org/2000/svg">
 <g>
  <path d="m267.09 285.5c-1.0576-1.0576-2.3466-1.8839-3.8298-2.4499-1.4625-0.56187-3.1151-0.84693-4.9122-0.84693h-16.959v33.398h16.959c1.7972 0 3.4497-0.28506 4.9122-0.84693 1.4832-0.57013 2.7722-1.3923 3.8298-2.4499s1.8839-2.3508 2.454-3.8422c0.56187-1.4708 0.84693-3.1192 0.84693-4.8998v-9.3204c0-1.7806-0.28506-3.4291-0.84693-4.8998-0.57014-1.4914-1.3923-2.7846-2.454-3.8422m-3.4621 8.7379v9.3204c0 1.7641-0.4338 3.0531-1.3303 3.9496-0.89238 0.89238-2.1855 1.3303-3.9496 1.3303h-10.196v-19.876h10.196c0.87173 0 1.6484 0.12394 2.3136 0.36356 0.64037 0.23136 1.1651 0.55774 1.603 0.9998 0.43792 0.44206 0.7643 0.96262 0.99979 1.603 0.23962 0.66516 0.36357 1.4419 0.36357 2.3136zm59.732 0.21897v-3.5324c0-5.7054-3.0077-8.7214-8.7007-8.7214h-18.174v33.398h6.7631v-12.419h7.8331l5.7633 12.419h7.4778l-6.0236-12.94c2.5615-0.84694 5.061-3.0077 5.061-8.2008zm-6.7631-3.3175v3.0985c0 0.83455-0.15699 1.4543-0.44206 1.7393-0.28507 0.28507-0.90064 0.44206-1.7393 0.44206h-11.171v-7.4572h11.171c0.83454 0 1.4542 0.15699 1.7393 0.44206s0.44206 0.90064 0.44206 1.7393zm46.726-8.9404-12.878 33.398h6.9284l2.7515-7.1514h12.431l2.7515 7.1514h6.9284l-12.878-33.398h-6.0318zm6.6268 19.484h-7.2341l3.6315-9.3287zm56.03 2.516-11.122-22h-6.7259v33.398h6.759v-19.104l9.7253 19.104h2.7432l9.7253-19.104v19.104h6.7424v-33.398h-6.7052zm62.88-22h-6.0318l-12.878 33.398h6.9284l2.7515-7.1514h12.431l2.7515 7.1514h6.9284l-12.878-33.398zm0.5908 19.484h-7.2341l3.6315-9.3287z"/>
  <path d="m362.32 198.74c-1.2394-1.2394-2.9209-1.9376-4.6726-1.9376h-29.705c-1.7517 0-3.4332 0.69821-4.6726 1.9376l-9.0354 9.0354c-1.2394 1.2394-1.9376 2.9209-1.9376 4.6726v43.181c0 1.7517 0.6982 3.4332 1.9376 4.6726l9.0354 9.0395c1.2394 1.2394 2.9209 1.9376 4.6726 1.9376h29.705c1.7517 0 3.4332-0.69821 4.6726-1.9376l9.0354-9.0395c1.2394-1.2394 1.9376-2.9209 1.9376-4.6726v-43.181c0-1.7517-0.6982-3.4332-1.9376-4.6726zm-2.2475 53.328c0 0.45446-0.26441 1.0907-0.58253 1.4088l-3.9951 3.9951c-0.32225 0.32225-0.95435 0.58253-1.4088 0.58253h-22.578c-0.45445 0-1.0907-0.26441-1.4088-0.58253l-3.9951-3.9951c-0.32224-0.32225-0.58252-0.95435-0.58252-1.4088v-36.055c0-0.45446 0.26441-1.0907 0.58252-1.4088l3.9951-3.9951c0.32225-0.32225 0.95436-0.58253 1.4088-0.58253h22.578c0.45446 0 1.0907 0.26441 1.4088 0.58253l3.9951 3.9951c0.32225 0.32225 0.58253 0.95435 0.58253 1.4088zm139.99-44.293-9.0354-9.0354c-1.2394-1.2394-2.9209-1.9376-4.6726-1.9376h-45.354v74.477h45.354c1.7517 0 3.4332-0.69821 4.6726-1.9376l9.0354-9.0354c1.2394-1.2394 1.9376-2.9209 1.9376-4.6726v-43.181c0-1.7517-0.6982-3.4332-1.9376-4.6726zm-11.287 44.293c0 0.45446-0.2644 1.0907-0.5825 1.4088l-3.9951 3.9951c-0.3222 0.32225-0.9543 0.58253-1.4088 0.58253h-28.569v-48.036h28.569c0.4545 0 1.0907 0.26441 1.4088 0.58253l3.9951 3.9951c0.3222 0.32225 0.5825 0.95435 0.5825 1.4088v36.055zm-57.74 5.9905v13.22h-47.78v-74.477h13.22v61.256h34.563zm-139.68-59.319c-1.2394-1.2394-2.9209-1.9376-4.6726-1.9376h-45.354v74.477h45.354c1.7517 0 3.4332-0.69821 4.6726-1.9376l9.0354-9.0395c1.2394-1.2394 1.9376-2.9209 1.9376-4.6726v-10.903c0-1.7517-0.69821-3.4332-1.9376-4.6726l-6.0153-6.0153 6.0153-6.0153c1.2394-1.2394 1.9376-2.9209 1.9376-4.6726v-10.903c0-1.7517-0.69821-3.4332-1.9376-4.6726zm-2.2475 53.328c0 0.45446-0.26441 1.0907-0.58253 1.4088l-3.9951 3.9951c-0.32225 0.32225-0.95435 0.58253-1.4088 0.58253h-28.569v-17.406h26.92c0.45445 0 1.0907 0.26441 1.4088 0.58253l5.6476 5.6476c0.32224 0.32225 0.58252 0.95435 0.58252 1.4088v3.772zm0-32.283c0 0.45445-0.26441 1.0907-0.58253 1.4088l-5.6476 5.6476c-0.32225 0.32224-0.95436 0.58252-1.4088 0.58252h-26.92v-17.406h28.569c0.45445 0 1.0907 0.26441 1.4088 0.58253l3.9951 3.9951c0.32225 0.32225 0.58253 0.95435 0.58253 1.4088v3.772z"/>
  <path d="m113.28 152.72a103.28 103.29 0 0 0-103.28 103.29 103.28 103.29 0 0 0 103.28 103.28 103.28 103.29 0 0 0 103.28-103.28 103.28 103.29 0 0 0-103.28-103.29zm21.356 55.009a48.129 48.35 0 0 1 48.129 48.35 48.129 48.35 0 0 1-48.129 48.35 48.129 48.35 0 0 1-42.874-26.493v24.326h-29.856v-47.996c-9.1938 3.5845-17.172 3.8492-18.097 3.7655v-30.266s16.257 0 18.098-18.098h29.855v24.444a48.129 48.35 0 0 1 42.874-26.384zm0 30.054a18.213 18.296 0 0 0-18.215 18.296 18.213 18.296 0 0 0 18.215 18.297 18.213 18.296 0 0 0 18.213-18.297 18.213 18.296 0 0 0-18.213-18.296z"/>
 </g>
</svg>
