<svg xmlns="http://www.w3.org/2000/svg" width="512" height="512">
 <g transform="matrix(1.0206 0 0 1.0206 -5.659 -4.7624)">
  <path d="m97.36 168.35c-48.404 0-87.643 39.242-87.643 87.649s39.239 87.649 87.643 87.649c48.405 5.5e-4 87.645-39.242 87.644-87.65-5.5e-4 -48.407-39.24-87.649-87.644-87.648zm18.123 46.682c22.558 0 40.844 18.37 40.844 41.03s-18.286 41.03-40.844 41.03c-15.374-0.0185-29.435-8.7073-36.384-22.483v20.644h-25.335v-40.73c-7.802 3.042-14.573 3.266-15.358 3.195v-25.682s13.796 0 15.358-15.358h25.335v20.743c6.975-13.74 21.031-22.389 36.384-22.39zm0 25.503c-8.5361-5.5e-4 -15.456 6.9507-15.457 15.526 0 8.5757 6.9205 15.528 15.457 15.527 8.5361 0 15.456-6.9517 15.456-15.527-5.5e-4 -8.5749-6.9203-15.526-15.456-15.526z"/>
  <path d="m214.21 278.42c2.2079-3.9143 5.2239-6.9736 9.0408-9.1851 3.8169-2.2079 8.0559-3.3154 12.713-3.3154 5.4764 0 10.253 1.3204 14.337 3.9612 4.0803 2.6408 7.0602 6.3856 8.9326 11.238h-7.8539c-1.3926-3.0268-3.3984-5.3538-6.014-6.9881-2.6192-1.6307-5.7506-2.4496-9.4016-2.4496-3.651 0-6.6526 0.81894-9.4377 2.4496-2.7851 1.6343-4.9714 3.9504-6.5551 6.952-1.5838 3.0016-2.3775 6.5191-2.3775 10.552s0.79008 7.4823 2.3775 10.48c1.5838 3.0016 3.77 5.3177 6.5551 6.952 2.7851 1.6343 5.931 2.4496 9.4377 2.4496s6.7824-0.80451 9.4016-2.4135c2.6156-1.609 4.6214-3.9252 6.014-6.952h7.8539c-1.8724 4.8018-4.8523 8.5141-8.9326 11.13-4.0839 2.6192-8.8604 3.9252-14.337 3.9252-4.6575 0-8.8965-1.0895-12.713-3.2758-3.8169-2.1826-6.8329-5.2203-9.0408-9.113-2.2079-3.8891-3.3154-8.2832-3.3154-13.182 0-4.8992 1.104-9.3042 3.3154-13.219zm57.99 36.488c-3.0016-1.6812-5.3538-4.0695-7.0602-7.1684-1.7064-3.0954-2.5578-6.685-2.5578-10.769 0-4.0839 0.87666-7.6014 2.63-10.697 1.7533-3.0954 4.1416-5.4728 7.1684-7.1324 3.0268-1.6559 6.4108-2.4857 10.156-2.4857 3.7448 0 7.1324 0.82616 10.159 2.4857 3.0268 1.6559 5.4151 4.0226 7.1684 7.0963 1.7533 3.0737 2.63 6.6526 2.63 10.733s-0.90191 7.6735-2.7021 10.769c-1.8038 3.099-4.239 5.4873-7.3128 7.1684q-4.6106 2.5218-10.228 2.5218c-5.6172 0-7.0494-0.84059-10.051-2.5218m16.675-4.8992c2.0636-1.104 3.7339-2.7599 5.0074-4.9714 1.2735-2.2079 1.9085-4.8992 1.9085-8.0668 0-3.1675-0.62413-5.8589-1.8724-8.0668-1.2519-2.2079-2.8825-3.853-4.8992-4.9353s-4.2029-1.6234-6.5551-1.6234-4.5998 0.54115-6.5912 1.6234c-1.995 1.0787-3.5896 2.7238-4.791 4.9353-1.2014 2.2079-1.8002 4.8992-1.8002 8.0668 0 3.1675 0.58805 5.931 1.7642 8.1425q1.7642 3.3118 4.7188 4.9353c1.9698 1.0787 4.1308 1.6198 6.483 1.6198 2.3522 0 4.5601-0.55197 6.6273-1.6559zm72.976-31.517c2.3991 1.2735 4.2967 3.182 5.6893 5.7254 1.3926 2.547 2.0888 5.646 2.0888 9.2934v23.269h-6.483v-22.332c0-3.936-0.97407-6.952-2.9186-9.0408-1.9445-2.0888-4.5745-3.1351-7.8864-3.1351-3.3118 0-6.1222 1.0931-8.1425 3.2794-2.0167 2.1862-3.0232 5.343-3.0232 9.4738v21.754h-6.483v-22.332c0-3.936-0.97047-6.952-2.9186-9.0408-1.9445-2.0888-4.5745-3.1351-7.8864-3.1351-3.3118 0-6.1222 1.0931-8.1425 3.2794-2.0167 2.1862-3.0232 5.343-3.0232 9.4738v21.754h-6.5551v-39.475h6.5551v5.6893c1.2952-2.0636 3.0377-3.6474 5.2203-4.7549q3.2794-1.6559 7.2406-1.6559c3.3154 0 6.2449 0.74318 8.7883 2.2332s4.441 3.6726 5.6929 6.5551c1.104-2.7851 2.9294-4.9461 5.4728-6.483s5.379-2.3053 8.4997-2.3053 5.812 0.63856 8.2147 1.9085m49.342 21h-31.553c0.24171 3.8891 1.5729 6.9303 3.9973 9.113 2.4244 2.1863 5.3682 3.2758 8.8244 3.2758 2.832 0 5.1987-0.6602 7.0963-1.9806 1.8976-1.3204 3.2289-3.0882 3.9973-5.2961h7.0602c-1.057 3.7953-3.1711 6.8798-6.3387 9.2573-3.1711 2.3774-7.1071 3.568-11.815 3.568-3.7448 0-7.0963-0.84059-10.047-2.5218-2.9547-1.6812-5.2708-4.0695-6.952-7.1684q-2.5218-4.6431-2.5218-10.769c0-6.1258 0.81534-7.6591 2.4496-10.733 1.6307-3.0737 3.9251-5.4404 6.8798-7.0963 2.9547-1.6559 6.3495-2.4857 10.192-2.4857s7.0602 0.81895 9.9428 2.4496c2.8825 1.6307 5.1012 3.8782 6.6634 6.7355 1.5585 2.8573 2.3414 6.0862 2.3414 9.6902q0 1.8724-0.21646 3.9612m-8.2111-11.779c-1.104-1.8002-2.6047-3.1711-4.5024-4.1055-1.8976-0.93799-3.9973-1.4034-6.3026-1.4034q-4.9732 0-8.4636 3.1711c-2.3306 2.1141-3.6618 5.0435-3.9973 8.7883h24.925c0-2.4965-0.55198-4.6467-1.6559-6.4469zm93.395-10.408-23.775 58.062h-6.7716l7.7818-19.016-15.921-39.046h7.2767l12.392 31.982 12.244-31.982zm-48.191-11.382v18.442q-2.0888-3.458-6.0501-5.5847c-2.6408-1.4178-5.4981-2.1249-8.5718-2.1249-3.5536 0-6.7608 0.84059-9.6144 2.5218-2.8573 1.6812-5.1049 4.0478-6.7355 7.0963-1.6307 3.0521-2.4496 6.5912-2.4496 10.625s0.81533 7.54 2.4496 10.661c1.6307 3.1242 3.8782 5.5486 6.7355 7.2767 2.8573 1.7281 6.0392 2.5939 9.5459 2.5939s6.3856-0.75762 8.9326-2.2692c2.5434-1.5116 4.4663-3.4453 5.7651-5.8011v7.421h6.6273v-50.857h-6.6273zm-1.8038 38.865c-1.2014 2.2332-2.8212 3.936-4.8631 5.1157-2.0419 1.1761-4.2859 1.7642-6.7355 1.7642s-4.6828-0.58805-6.6994-1.7642-3.6257-2.8825-4.8271-5.1157c-1.2014-2.2332-1.8002-4.8632-1.8002-7.89s0.59888-5.5702 1.8002-7.7818q1.802-3.3118 4.8271-5.0435c2.0167-1.1508 4.2498-1.7281 6.6994-1.7281s4.6936 0.58805 6.7355 1.7642c2.0383 1.1761 3.6618 2.8717 4.8631 5.0796 1.1978 2.2115 1.8002 4.8018 1.8002 7.7818 0 2.9799-0.60248 5.5847-1.8002 7.8178m-181.96-88.031c0 6.8041-2.7166 12.057-8.0776 15.614-4.0153 2.6661-9.2934 4.5529-23.486 4.5529v20.733h5.3863v2.4676h-27.415v-2.4676h5.3863v-59.938h-5.3863v-2.4676h22.021c15.589 0 21.787 2.5903 25.845 6.3928 3.7989 3.5572 5.7254 8.644 5.7254 15.113m134.78 34.551c-1.0787 1.6126-2.7599 3.0232-4.993 4.1921-2.2332 1.1689-4.4663 1.7606-6.6309 1.7606-9.3691 0-14.12-6.8185-14.12-20.268 0-13.449 2.8898-20.759 8.579-21.66 2.2981-0.25254 3.7628 0.14431 4.3617 1.1761 0.30304 0.49425 0.48703 1.1941 0.55197 2.0744 0.0649 0.90913-0.018 2.3811-0.24171 4.3761-0.22729 2.0095-0.34273 3.5391-0.34273 4.5457 0 3.9504 2.1321 6.465 6.3387 7.4859 2.0059 0.47621 3.8891 0.21646 5.5955-0.77205 1.71-0.9885 2.8501-2.5578 3.384-4.6683 0.99572-3.8422-0.24171-7.6122-3.6726-11.202-3.4201-3.5752-8.6873-5.3863-15.657-5.3863-6.97 0-12.786 2.06-17.306 6.1186-4.5276 4.0695-6.8221 10.109-6.8221 17.955 0 15.91 8.6584 23.977 25.737 23.977 3.7303 0 7.154-0.77926 10.17-2.3089 3.0232-1.5369 5.3249-3.6041 6.8365-6.1511l0.11184-0.1912-1.7461-1.2699-0.1371 0.20563zm-39.951 5.3682v1.4034s-4.4194 2.9402-10.304 2.9402c-4.9281 0-8.6187-1.4034-10.408-5.2311-1.1941 1.1184-2.5975 2.0997-4.2174 2.9222-1.9806 1.0065-4.1416 1.6812-6.4433 2.0311-1.0823 0.18039-2.1033 0.27779-3.7267 0.27779-3.8638 0-6.8943-0.90191-9.196-2.5903-2.3666-1.7389-3.568-4.3436-3.568-7.7421 0-4.524 1.6704-8.1786 5.1806-10.542 6.768-4.5565 21.588-5.5702 21.588-5.5702v-4.7766c0-5.7326-0.4221-9.6361-1.2519-11.595-0.81173-1.9193-2.3883-2.8501-4.8126-2.8501s-4.0045 0.3319-4.6683 0.98128c-0.6602 0.64217-0.8911 1.3529-0.71432 2.1718 0.19481 0.89831 0.52311 2.0852 0.97046 3.5247 0.46179 1.4864 0.69629 2.6877 0.69629 3.5716 0 2.1213-0.72875 3.9432-2.1682 5.4187-1.4395 1.4755-3.2072 2.2223-5.2492 2.2223-2.042 0-3.8277-0.74679-5.2997-2.2187-1.4719-1.4719-2.2187-3.2938-2.2187-5.4187 0-3.4634 1.7605-6.4722 5.2311-8.9434 3.4453-2.4496 8.6512-3.6906 15.477-3.6906s11.79 1.3998 14.719 4.1633c2.9366 2.7671 4.423 7.7024 4.423 14.669v17.988c0 3.4526 0.40406 5.6316 1.205 6.4794 1.7894 1.7966 4.7549 0.41127 4.7549 0.41127zm-21.094-19.633s-7.1973 0.31026-10.383 3.6654c-1.7353 1.8291-2.5795 4.2751-2.327 7.4607 0.31387 2.3125 1.4322 7.6555 7.1252 7.6555 1.876 0 3.8674-1.4719 5.5847-3.0088zm-90.48-20.56v-0.33912c-0.0361-6.5335-1.104-11.281-3.182-14.117-2.0672-2.8212-5.9815-4.2715-11.631-4.3112v36.856c5.6568-0.0361 9.5712-1.3745 11.638-3.9757 2.1105-2.6516 3.1784-7.3993 3.1784-14.11v-7e-3zm32.105 23.028c0.73596 11.281 4.9966 17.75 14.153 17.75 2.1646 0 4.3942-0.59166 6.6309-1.7606 2.2332-1.1653 3.9107-2.5759 4.993-4.1921l0.13709-0.20564 1.7461 1.2699-0.11183 0.19121c-1.5152 2.5434-3.8169 4.6142-6.8366 6.1511-3.016 1.5333-7.0133 2.3089-10.744 2.3089-17.079 0-25.164-7.9802-25.164-23.977 0-7.1396 2.4496-13.835 6.0717-17.631 4.0839-4.2787 9.3583-6.4469 15.766-6.4469 6.4072 0 11.375 2.0203 15.766 6.4289 6.6273 6.6526 6.1872 20.116 6.1872 20.116h-28.591zm1.6415-17.443c-1.0318 4.2895-1.5766 9.3258-1.6343 14.975h13.37c-0.0577-5.6496-0.60248-10.686-1.6343-14.975-1.0607-4.4158-2.7599-6.6634-5.0508-6.6922-2.2909 0.0289-3.9901 2.2764-5.0507 6.6922m173.37 35.59v-25.283c0-12.879-5.931-19.409-17.631-19.409-3.1459 0-6.0717 0.60969-8.6945 1.8074-2.3486 1.0751-4.1669 2.4063-5.426 3.9648v-23.493h-20.019v2.4676h4.8848v59.938h-4.8848v2.4676h24.904v-2.4676h-4.8848v-34.457c2.1538-3.835 5.0652-5.7795 8.6512-5.7795 2.6408 0 4.6431 0.96686 5.9563 2.8753 1.3312 1.9373 2.0095 5.2636 2.0095 9.8922v27.469h-4.8848v2.4676h24.904v-2.4676h-4.8848z" stroke-width="0"/>
 </g>
</svg>
