<svg viewBox="0 0 512 512" xmlns="http://www.w3.org/2000/svg">
    <g style="fill:#000;stroke-width:.99885982;stroke-dasharray:none">
        <path style="fill:#000;fill-opacity:1;stroke:none;stroke-width:.99885982;stroke-linecap:butt;stroke-linejoin:miter;stroke-opacity:1;stroke-dasharray:none" d="m4598.631 168.085 1071.467 4.81 1.317 2425.81zm-3101.156 0h1071.467v2430.62zm0 0L149.623 2598.705V1521.93z" transform="translate(-2.112 122.043) scale(.0811)"/>
        <path style="fill:#000;fill-opacity:1;stroke:none;stroke-width:.99885982;stroke-linecap:butt;stroke-linejoin:miter;stroke-opacity:1;stroke-dasharray:none" d="m1497.475 168.085 1071.467 2430.62H149.623zm1071.467 1353.844h537.336l-537.336 1076.777z" transform="translate(-2.112 122.043) scale(.0811)"/>
        <path style="fill:#000;fill-opacity:1;stroke:none;stroke-width:.99885982;stroke-linecap:butt;stroke-linejoin:miter;stroke-opacity:1;stroke-dasharray:none" d="M3106.278 1521.929v1076.777h-537.336zM1497.475 2598.706h1071.467l-1071.04 537.026z" transform="translate(-2.112 122.043) scale(.0811)"/>
        <path style="fill:#000;fill-opacity:1;stroke:none;stroke-width:.99885982;stroke-linecap:butt;stroke-linejoin:miter;stroke-opacity:1;stroke-dasharray:none" d="M2568.942 2598.706v537.026H1497.475zm681.837-1076.777v1076.777h2420.636z" transform="translate(-2.112 122.043) scale(.0811)"/>
        <path style="fill:#000;fill-opacity:1;stroke:none;stroke-width:.99885982;stroke-linecap:butt;stroke-linejoin:miter;stroke-opacity:1;stroke-dasharray:none" d="M5670.098 2598.706 3250.779 1521.929 4598.631 168.085l1072.784 2430.62z" transform="translate(-2.112 122.043) scale(.0811)"/>
        <path style="fill:#000;fill-opacity:1;stroke:none;stroke-width:.99885982;stroke-linecap:butt;stroke-linejoin:miter;stroke-opacity:1;stroke-dasharray:none" d="M5671.415 1521.929h544.84l-544.84 1076.777z" transform="translate(-2.112 122.043) scale(.0811)"/>
        <path style="fill:#000;fill-opacity:1;stroke:none;stroke-width:.99885982;stroke-linecap:butt;stroke-linejoin:miter;stroke-opacity:1;stroke-dasharray:none" d="M6216.254 1521.929v1076.777h-544.84zM4598.631 2598.706h1072.784L4598.63 3135.732z" transform="translate(-2.112 122.043) scale(.0811)"/>
        <path style="fill:#000;fill-opacity:1;stroke:none;stroke-width:.99885982;stroke-linecap:butt;stroke-linejoin:miter;stroke-opacity:1;stroke-dasharray:none" d="M5671.415 2598.706v537.026H4598.63z" transform="translate(-2.112 122.043) scale(.0811)"/>
    </g>
</svg>
