<svg version="1.1" viewBox="0 0 512 512" xmlns="http://www.w3.org/2000/svg">
 <path d="m255.66 9.3496a245.89 245.89 0 0 0-245.89 245.89 245.89 245.89 0 0 0 245.89 245.89 245.89 245.89 0 0 0 245.89-245.89 245.89 245.89 0 0 0-245.89-245.89zm1.957 75.734h0.33593c4.668 0.186 9.1926 1.4007 12.85 3.5957 2.116 1.401 7.6985 5.0914 11.355 14.152l22.471 62.686v-57.08l-0.33594 0.93359-8.2774 23.166-10.635-30.174c1.636-6.959 6.4956-12.75 12.27-15.553 2.166-1.027 4.4283-1.5416 6.7383-1.6816a21.23 21.23 0 0 1 12.992 3.5039c5.726 4.203 7.3616 9.2951 7.6016 18.123v61.936c-0.721 10.229-7.1682 15.787-12.99 18.357-2.743 0.934-3.8977 1.168-6.9297 1.168-5.1 0.233-11.309-1.868-15.736-6.959-1.828-1.868-5.5312-10.885-5.5312-10.885l-21.318-56.891c-1.299-3.363-3.9944-5.1373-6.6894-5.2773s-5.3391 1.4476-6.4941 4.8105l-6.7383 17.891-11.309-29.707c5.582-9.996 10.926-12.519 17.133-14.855a28.1 28.1 0 0 1 9.2383-1.2598zm-50.428 0.09375c5.101 0 11.547 1.8684 15.734 7.1934 1.828 1.868 5.5332 10.932 5.5332 10.932l21.316 56.609c1.3 3.176 3.8504 4.9524 6.4004 5.2324 2.84 0.281 5.6784-1.2607 7.0254-4.7637l6.543-17.848 11.309 29.943c-5.581 9.996-10.874 12.284-17.129 14.619a28.6 28.6 0 0 1-7.459 1.2617c-5.341 0.234-10.779-0.9337-15.014-3.5957-2.069-1.355-7.6036-4.8579-11.309-13.92l-22.23-62.918v57.312l0.52929-1.541 7.7949-22.605 10.633 30.174c-1.394 6.726-6.4945 12.518-12.27 15.32-1.828 0.841-3.8482 1.3549-5.8691 1.5879-4.811 0.56099-9.7206-0.74766-13.811-3.2227-5.774-4.392-7.4105-9.2486-7.6035-18.309v-61.75c0.675-10.416 7.3636-15.975 13.186-18.545 2.502-0.934 3.7055-1.168 6.6894-1.168zm173.13 119.84c3.231 0 6.0026 0.92383 8.3105 2.9238 2.153 2 3.2285 4.4624 3.2285 7.6934v78.156c0 3.538 1.5395 5.2285 4.7695 5.2285h2.1543c3.231 0 5.6934 1.0762 7.6934 3.0762 1.847 2.154 2.7695 4.77 2.7695 8 0 3.0766-0.92288 5.693-2.7695 7.8476-2 2.153-4.4634 3.2305-7.6934 3.2305h-4c-17.386 0-26-9.9993-26-30.154v-75.385c0-3.231 1.0758-5.6934 3.3828-7.6934 2.154-2 4.9233-2.9238 8.1543-2.9238zm-35.229 5.0606c3.231 0 6.1532 1.2311 8.6152 3.5391 2.308 2.462 3.5391 5.3832 3.5391 8.6152 0 3.232-1.2311 6.1529-3.5391 8.4609-2.462 2.308-5.3842 3.5391-8.6152 3.5391-3.231 0-6.1529-1.2311-8.4609-3.5391-2.462-2.308-3.6934-5.23-3.6934-8.4609 0-3.23 1.2314-6.1542 3.6934-8.6152 2.308-2.308 5.2299-3.5391 8.4609-3.5391zm-289.65 2.4707h46.924c2.77 0 5.0775 0.92383 6.7695 2.9238 1.692 2 2.6152 4.4618 2.6152 7.3848 0 2.923-0.92225 5.2295-2.6152 7.2305-1.693 2.001-3.9995 2.9238-6.7695 2.9238h-34.461v23.385h27.205c2.769 0 5.0775 1.0765 6.7695 3.2305 1.693 2.153 2.6152 4.6148 2.6152 7.3848 0 2.922-0.92028 5.2305-2.6133 7.2305s-4.0015 3.0762-6.7715 3.0762h-27.205l-0.001953 33.078c0 3.231-1.0778 5.6914-3.3848 7.6914-2.307 2-5.2299 3.0781-8.4609 3.0781-3.231 0-6.0006-1.0781-8.3086-3.0781-2.308-2-3.3828-4.4614-3.3828-7.6914v-86.77c-6.66e-4 -3.078 1.0765-5.6943 3.2305-7.8477s4.769-3.2305 7.8457-3.2305zm160.01 26.299c5.693 0 9.3848 2.3069 10.924 6.9219 1.692-2 4.462-3.5369 8-4.9219 3.538-1.385 6.77-2 10-2 8.461 0 15.54 2.7693 21.232 8.1543 7.846-5.384 15.538-8.1543 23.078-8.1543 9.538 0 17.229 2.7677 23.229 8.3066 5.846 5.692 8.7695 12.77 8.7695 21.232v42.154c0 3.231-1.0765 5.6914-3.2305 7.6914-2.308 2-4.9214 2.9219-8.1523 2.9219-3.231 0-6.0003-0.92189-8.1543-2.9219-2.308-2-3.3848-4.4614-3.3848-7.6914v-36.309c0-9.692-4.3082-14.768-13.078-15.23-3.538-0.154-7.3845 0.92187-11.23 2.9219 0.462 1.692 0.61524 3.8479 0.61524 6.4629v42.154c0 3.231-1.0765 5.6914-3.2305 7.6914-2.308 2.001-5.0776 2.9238-8.3086 2.9238-3.231 0-5.846-0.92384-8-2.9238-2.308-1.999-3.3848-4.4614-3.3848-7.6914v-36.309c0-9.692-4.4605-14.768-13.23-15.23-3.538-0.153-7.2318 0.92187-10.924 2.9219v48.617c0 3.231-1.0765 5.6914-3.2305 7.6914-2.308 2-5.0786 2.9238-8.3086 2.9238s-5.846-0.92384-8-2.9238c-2.307-2-3.3828-4.4614-3.3828-7.6914v-61.078c0-3.23 1.0758-5.6934 3.3828-7.6934 2.154-2 4.77-2.9219 8-2.9219zm129.33 0c3.23 0 6.0006 0.92383 8.3086 2.9238 2.153 2.001 3.2285 4.4634 3.2285 7.6934v61.076c0 3.231-1.0755 5.6914-3.2285 7.6914-2.308 2-5.0776 2.9238-8.3086 2.9238s-6.0003-0.92384-8.1543-2.9238c-2.308-2-3.3848-4.4614-3.3848-7.6914v-61.076c0-3.231 1.0768-5.6934 3.3848-7.6934 2.154-2 4.9243-2.9238 8.1543-2.9238zm-193.24 0.01953c3.693 0 7.0766 0.46177 10.307 1.3848 3.077 1.077 5.2329 2.0008 6.4629 2.9238l2 1.3828c0.77-1.692 2-3.0773 4-4.1543s3.9986-1.5371 6.3066-1.5371c3.23 0 6.0006 0.92383 8.3086 2.9238 2.153 2 3.2305 4.4614 3.2305 7.6914v61.078c0 3.23-1.0765 5.6914-3.2305 7.6914-2.307 2-5.0786 2.9238-8.3086 2.9238-5.077 0-8.4609-2.0003-10.461-6.1543h-0.00195c-0.462 0.462-1.2296 0.92536-2.3066 1.6934-1.0767 0.77-3.3852 1.6929-6.9238 2.7695-3.692 1.077-7.6917 1.6934-11.846 1.6934-10.768 0-19.54-3.8474-26.309-11.693-6.769-7.846-10.152-17.693-10.152-29.693-6.7e-4 -6.9233 1.2294-13.079 3.6914-18.463 2.308-5.385 5.5388-9.6938 9.3848-12.924 3.846-3.23 7.9999-5.5365 12.461-7.2285 4.462-1.5386 8.9254-2.3086 13.387-2.3086zm312.6 0.14648c1.3654-0.07698 2.7885 0.07644 4.25 0.46094 3.077 0.924 5.3839 2.6158 6.9219 4.9238 1.539 2.461 1.6942 5.077 0.61719 8l-34.924 90.617c-1.077 2.923-1.5394 4.3094-5.6934 5.6934-2.7693 0.92266-5.5373 0.76777-8.3066-0.46289-2.923-1.231-4.923-3.2307-6-5.8457-1.231-2.616-1.2313-5.5399-0.15429-8.4629l8.1543-21.076-24.617-60.465c-1.077-2.616-0.61387-5.2297 1.0781-7.8457 1.692-2.616 3.8455-4.3081 6.7695-5.0781 2.769-0.769 5.384-0.61281 8 0.61719 2.461 1.231 4.1535 3.2307 5.2305 5.8457l14.307 39.539 15.078-39.691c1.076-2.769 2.7698-4.7687 5.3848-5.8457 1.231-0.5385 2.5389-0.84683 3.9043-0.92383zm-307.37 20.006c-6.0007-6.6e-4 -10.924 1.8457-14.77 5.5391-3.847 3.846-5.8477 8.7701-5.8477 15.078 0 6 1.5399 10.768 4.4629 14.307 2.923 3.692 7.3845 5.692 13.23 6 6 0.30667 11.076-0.6162 15.23-2.7695v-36c-4.307-1.384-8.4617-2.1543-12.307-2.1543z"/>
</svg>
