<svg xmlns="http://www.w3.org/2000/svg" height="512" width="512"><path d="M267.85 137.924c-.568.008-1.76.15-2.658.316-2.275.424-3.765.902-4.534 1.462-.776.564-2.13 2.09-3.447 3.885-.792 1.078-1.105 1.36-2 1.802-.88.432-1.124.49-1.412.335-.65-.353-.848-1.04-.848-2.952 0-2.192-.162-2.604-1.046-2.673-.515-.042-1.046.167-2.89 1.136-3.214 1.687-4.451 2.494-8.604 5.616-3.223 2.425-4.093 3.187-7.4 6.494-2.922 2.922-4.398 4.564-6.717 7.482-1.639 2.06-3.719 4.594-4.633 5.646-1.975 2.273-4.925 5.98-7.02 8.82a67.784 67.784 0 01-3.136 3.887c-2.85 3.222-6.174 7.333-7.676 9.5-.795 1.146-2.018 2.732-2.7 3.505-2.29 2.59-5.163 6.071-6.608 8.005-2.285 3.058-4.25 5.53-6.925 8.72-2.259 2.69-6.35 8.016-7.146 9.301-.545.88-1.096 1.48-1.94 2.116-.703.528-.964.624-1.695.624-1.331 0-2.41-.764-3.634-2.574-2.524-3.732-6.863-8.155-11.048-11.263-2.295-1.703-2.674-1.91-5.697-3.092-4.342-1.7-2.458-1.571-23.486-1.599-17.456-.023-18.467-.009-19.033.272-.66.325-.814.584-.814 1.365 0 .626.234 1.03 1.886 3.256a51.14 51.14 0 012.415 3.645 63.56 63.56 0 002.583 3.928c.79 1.096 1.818 2.666 2.285 3.488.862 1.52 1.804 2.94 3.512 5.298a35.646 35.646 0 011.793 2.816c.47.834 1.474 2.433 2.226 3.546a84.627 84.627 0 012.234 3.487c.475.804 1.596 2.508 2.491 3.787.896 1.28 2.148 3.185 2.782 4.236a70.872 70.872 0 002.525 3.82c.75 1.046 1.674 2.436 2.043 3.073.375.647.893 1.545 1.17 2.026.274.474 1.273 1.86 2.216 3.073 2.013 2.59 2.627 3.687 2.455 4.384-3.025 4.465-8.59 14.908-13.44 15.513-.903 0-1.86-.78-2.341-1.91-.224-.526-.31-1.478-.414-4.567-.146-4.335-.363-6.448-.794-7.74-.157-.473-.915-1.96-1.674-3.289-1.197-2.093-1.684-2.75-3.554-4.8-10.195-12.954-26.557-15.666-40.967-18.41-6.424-.885-11.6-.772-18.436-.405-10.186.79-21.796 2.18-31.192 6.565-5.564 2.608-9.99 5.631-13.752 9.393-4.316 4.663-7.173 8.95-8.92 13.77-2.445 10.362-4.59 15.238-1.921 25.843.107.411.894 2.458 1.75 4.551 4.863 10.735 16.438 21.438 29.952 23.11 2.79.279 4.329.571 6.926 1.315 12.232 1.901 25.28 3.413 40.559 1.004 1.637-.327 3.82-1.105 5.996-2.136 2.857-1.353 3.673-1.474 4.324-.638.387.496.426 1.511.084 2.176-.13.254-.74 1.096-1.347 1.86-1.385 1.744-2.465 3.35-3.395 5.05-1.3 2.374-1.862 3.122-4.052 5.397a47.713 47.713 0 00-4.026 4.825c-1.02 1.412-3.424 4.451-5.349 6.76-1.924 2.308-4.23 5.186-5.13 6.403-2.186 2.956-6.344 7.923-8.537 10.198-2.018 2.092-2.335 2.711-1.986 3.87.274.905.68 1.123 2.341 1.253 3.837.3 8.578 1.046 12.191 1.92 1.096.264 2.202.48 2.458.48.812 0 1.562.43 3.023 1.733 1.86 1.658 2.68 2.088 3.986 2.088 1.537 0 2.591.348 4.252 1.404 1.844 1.172 2.708 1.51 4.7 1.844.848.142 2.12.406 2.857.593 3.88.986 4.12 1.01 10.58 1.095 5.714.075 6.23.057 8.222-.286 1.744-.3 2.442-.344 3.886-.247 2.392.162 2.876.053 4.585-1.028 2.973-1.88 2.973-1.88 6.112-1.872 2.524.007 2.821-.023 3.52-.361 1.65-.798 4.494-4.049 5.764-6.59.515-1.03.72-1.266 1.478-1.7 1.24-.71 1.711-.657 3.854.424 2.61 1.317 3.056 1.42 5.896 1.365 2.84-.056 2.84-.056 6.826-2.448 3.372-2.023 4.458-2.84 7.043-5.302 5.597-5.33 11.7-12.108 14.89-16.539.79-1.096 2.016-2.665 2.724-3.488 1.342-1.559 2.642-3.454 3.551-5.182.298-.564.693-1.165.875-1.33.662-.599 2.308-.208 3.57.847.277.232.837 1.081 1.26 1.912.798 1.568 1.765 3.072 3.527 5.497a42.073 42.073 0 011.893 2.89c1.209 2.061 2.233 3.538 3.992 5.747.832 1.046 1.937 2.601 2.442 3.438 1.38 2.29 3.43 4.743 6.601 7.898 3.737 3.718 5.103 4.877 6.097 5.173.65.195 4.609.241 23.992.283l23.21.05.307-.382c.174-.216.308-.483.308-.615 0-.764-1.665-3.62-3.92-6.727a55.2 55.2 0 01-2.276-3.48c-.618-1.042-1.871-2.914-2.774-4.143-.9-1.23-2.15-3.083-2.765-4.103-.617-1.025-1.813-2.807-2.664-3.97-.852-1.162-2.042-2.936-2.65-3.952a68.125 68.125 0 00-2.466-3.754 64.825 64.825 0 01-2.492-3.82c-.624-1.054-1.814-2.84-2.658-3.986-1.664-2.259-2.354-3.296-3.37-5.066-.368-.644-1.376-2.126-2.26-3.321-.882-1.196-2.095-3.012-2.715-4.07a61.615 61.615 0 00-2.55-3.903c-.785-1.096-1.903-2.797-2.482-3.778a48.712 48.712 0 00-2.326-3.497c-1.79-2.408-5.373-7.57-5.697-8.205-.661-1.297-.18-2.624 1.695-4.684 1.806-1.983 3.167-3.703 5-6.328a74.078 74.078 0 013.242-4.235c3.07-3.654 5.547-6.99 6.907-9.3 1.065-1.811 2.263-3.094 3.66-3.922.98-.58 1.223-.824 1.677-1.676.606-1.136 1.196-1.683 2.457-2.277.836-.393 1.132-.436 3.439-.49 3.157-.074 4.045.135 5.115 1.205 1.353 1.352 1.278-.414 1.067 25.03l-.187 22.522.349.79c.268.605 1.263 1.684 4.27 4.633 2.16 2.118 4.114 3.95 4.351 4.078.359.193 3.33.228 17.797.207 9.55-.013 18.187.043 19.191.125 1.529.125 1.918.107 2.376-.107.714-.335 1.264-1.129 1.227-1.77-.018-.283-.057-4.318-.09-8.986-.038-5.547-.123-8.702-.249-9.143-.103-.365-.377-.85-.598-1.063-.383-.367-.523-.388-2.366-.365-1.861.024-2.03-.004-3.323-.533-1.66-.68-3.005-1.478-4.035-2.395-.878-.78-1.877-2.528-2.171-3.79-.122-.53-.209-3.654-.245-8.953-.033-4.484-.138-8.81-.234-9.633-.095-.826-.174-2.99-.174-4.833 0-4.02.138-4.657 1.255-5.78 1.21-1.218 1.867-1.343 6.218-1.18 1.961.073 3.804.136 4.088.138.65.007 1.443-.553 1.77-1.25.215-.462.231-.864.097-2.541-.087-1.096-.144-4.834-.126-8.305.033-6.71.006-6.978-.762-7.483-.373-.246-.574-.253-1.952-.074-.933.12-2.748.177-4.625.141-3.074-.058-3.094-.06-3.753-.52-.748-.518-1.572-1.598-1.853-2.428-.2-.586-.44-17.207-.44-30.328 0-5.83.03-6.564.304-7.341.438-1.24 1.399-2.641 3.678-5.365 2.222-2.658 3.475-4.287 5.107-6.644.6-.867 1.721-2.325 2.492-3.238 2.995-3.555 5.626-6.923 6.928-8.87.75-1.121 2.295-3.138 3.461-4.517 3.579-4.236 4.12-4.992 4.596-6.427.233-.708.647-2.277.923-3.506.274-1.228.762-2.988 1.087-3.927.326-.94.845-3.007 1.163-4.619.317-1.61.803-3.53 1.087-4.292.286-.764.659-1.772.837-2.259.607-1.66.372-3.775-.454-4.09-.168-.062-.748.009-1.313.16l-1.012.275-1.985-.79-1.985-.788h-3.903c-3.672 0-3.944.02-4.584.349-.93.474-1.85 1.58-2.145 2.575-.35 1.18-.826 1.861-1.94 2.79-1.28 1.064-2.365 1.685-2.825 1.618-.353-.053-.377-.122-.326-.903.09-1.346-.704-2.58-2.132-3.32-.508-.264-.946-.297-3.47-.256-3.49.053-3.658.115-6.113 2.269-2.575 2.258-3.713 2.656-6.178 2.159-2.245-.454-2.792-.274-5.499 1.815-1.86 1.433-2.67 1.796-3.836 1.715-.748-.05-1.142-.193-1.87-.68-.782-.52-1.01-.796-1.504-1.826-.799-1.66-1.31-3.617-1.31-5.016 0-.927.106-1.411.524-2.39.567-1.33.695-2.66.29-2.993-.4-.329-2.06-.677-3.14-.661zm172.912 96.258c-3.563-.008-6.968.01-9.428.06-6.601-.187-13.52 1.724-19.32 2.318-1.985.191-3.17.49-6.176 1.557-.914.324-2.186.749-2.825.943-1.34.407-5.014 2.268-6.76 3.423-1.3.862-4.898 4.346-7.01 6.787-.875 1.012-1.552 2.01-2.094 3.09-.867 1.726-1.594 2.506-3.019 3.236-1.079.553-1.774.53-2.36-.081-.845-.876-.913-1.628-.923-10.032-.003-4.434-.075-7.89-.171-8.238-.268-.963-.764-1.635-1.298-1.753-.261-.059-1.378.047-2.456.233a86.89 86.89 0 01-4.22.591c-2.852.32-4.118.74-7.807 2.59-4.2 2.108-5.135 2.77-8.319 5.9-3.604 3.543-4.287 3.874-5.157 2.504-.361-.57-.361-.498-.03-7.125l.105-2.11-.698-.697-.699-.697-14.324.124c-10.763.093-14.81.073-16.27-.08-2.176-.23-2.582-.148-3.361.67l-.443.465.019 37.345c.01 21.16-.05 38.174-.134 39.255-.125 1.595-.106 2.001.106 2.459.337.714 1.128 1.26 1.77 1.215.285-.02 7.908-.066 16.96-.102 9.051-.037 16.76-.108 17.149-.158.38-.05.942-.213 1.219-.357.505-.26.515-.283.409-1.097a8.34 8.34 0 00-.453-1.677c-.449-1.106-.539-3.67-.813-22.887-.156-11.029-.162-14.612-.013-15.364.278-1.425.97-2.707 2.725-5.049 1.572-2.094 2.149-2.609 4.87-4.35 3.43-2.194 6.994-2.814 17.839-3.101 5.232-.14 5.232-.14 7.227-1.738 1.513-1.215 2.757-1.87 4.319-2.273 1.58-.408 4.565-.493 19.93-.572 9.916-.05 11.4-.09 12.173-.331.71-.221 1.213-.587 2.591-1.885 1.39-1.309 2.176-1.881 4.187-3.048 1.36-.79 2.922-1.588 3.47-1.773 1.872-.63 8.953-.96 15.529-.722 4.917.178 5.59.296 7.773 1.368 2.89 1.418 5.316 3.767 6.33 6.134.436 1.018.411 2.276-.072 3.688-.733 2.126-4.911 5.029-7.817 5.43-1.094.151-4.702.32-14.767.687-5.88.215-8.59.42-12.123.913-1.562.218-3.455.438-4.237.494-.774.054-2.423.242-3.655.415-1.234.174-4.218.391-6.64.484-7.78.626-17.014 3.004-23.22 8.791-1.429 1.402-3.474 4.892-3.842 6.553-.387 1.751-.711 6.893-.618 9.833.741 10.09 11.585 19.603 21.833 22.013.882.197 2.772.657 4.184 1.019 3.262.836 3.97.871 12.706.64 9.5-.25 10.483-.328 13.205-1.052 1.228-.327 2.878-.718 3.654-.865 1.724-.328 2.972-.7 4.733-1.407a20.376 20.376 0 012.822-.85c.827-.173 2.292-.59 3.274-.93 1.494-.516 1.843-.583 2.192-.423.38.176.4.233.224.698-.183.484-.158.54.55 1.254.408.415 1.031.888 1.402 1.063.643.305 1.41.313 24 .249l23.335-.067.459-.498c.258-.282.455-.642.455-.83 0-.184-.405-1.545-.901-3.04-1.038-3.113-1.129-3.803-1.425-10.995-.172-4.219-.745-14.381-.91-16.194-.047-.504-.269-2.624-.496-4.733-.396-3.7-.749-7.64-1.089-12.125-.09-1.188-.206-4.102-.259-6.478-.115-5.115-.314-6.444-1.353-9.052-1.827-4.584-2.903-6.46-4.932-8.603-1.506-1.591-2.489-2.33-5.21-3.925-13.967-7.195-30.546-7.086-45.58-7.127zM72.595 249.24c1.736.004 4.343.156 5.147.337 1.329.298 7.05 2.808 8.321 3.65 2.358 1.561 5.876 4.914 7.42 7.072 1.378 1.926 2.212 5.144 1.627 6.278-.333.643-1.274 1.469-2.071 1.816-.784.342.299.333-22.373.185a59080.16 59080.16 0 00-19.2-.125c-.433 0-1.77-.98-2.13-1.56-.747-1.204-.427-2.243 1.448-4.701 2.116-2.774 6.087-6.73 8.422-8.391 2.85-2.027 8.205-4.034 12.042-4.512.286-.035.768-.05 1.347-.049zm383.968 29.205c1.233-.001 1.886.067 2.39.24 1.295.44 2.027 1.82 1.557 2.94-.55 1.311-3.683 5.065-8.176 9.799-1.64 1.727-3.364 3.64-3.835 4.252-1.865 2.425-4.263 4.128-6.286 4.467-.549.092-2.31.257-3.904.366-2.525.173-3.233.163-5.397-.076-3.873-.428-4.537-.65-7.144-2.377-2.207-1.465-3.707-2.973-4.427-4.456-.518-1.066-.555-1.263-.555-2.807 0-2.508.708-4.075 2.725-6.032 1.144-1.111 3.32-2.75 4.319-3.255 1.085-.548 4.832-1.886 6.045-2.158 2.136-.48 7.406-.694 22.123-.899.201-.003.389-.004.565-.004zm-331.885 1.334c.761.003 1.334.083 1.811.24 1.146.378 1.396.637 1.396 1.456 0 .81-.372 1.445-2.153 3.67-1.065 1.332-1.686 2.425-2.799 4.933-.275.62-.562.92-1.393 1.454-.57.367-1.544.827-2.142 1.013-1.086.337-1.23.339-14.534.183l-13.436-.158-1.08.365c-.596.202-1.86.87-2.823 1.493-8.636 5.413-17.834 5.949-23.851 2.17-5.514-3.222-10.216-6.631-13.558-10.954-2.449-3.19-2.642-4.04-1.075-4.738.67-.299 2.076-.319 35.826-.502 26.458-.144 35.559-.244 36.872-.404 1.23-.15 2.178-.224 2.94-.221z"/></svg>
