<svg xmlns="http://www.w3.org/2000/svg" width="512" height="512">
    <g transform="translate(-18.335 53.848) scale(.7147)">
        <path d="M58.58 197.86c-10.682-.007-19.342 8.659-19.33 19.342 0 10.674 8.64 19.326 19.327 19.326 10.672-.01 19.324-8.654 19.342-19.326-.007-10.679-8.661-19.334-19.34-19.342zm50.166 0c-10.678 0-19.334 8.656-19.334 19.334 0 10.678 8.656 19.334 19.334 19.334 10.675.002 19.329-8.652 19.326-19.326.011-10.681-8.645-19.345-19.326-19.342zm50.191 0c-10.68-.002-19.337 8.661-19.326 19.342 0 10.673 8.653 19.326 19.326 19.326 10.68.009 19.342-8.647 19.342-19.326.009-10.686-8.656-19.351-19.342-19.342zM58.581 246.338c-10.676-.016-19.337 8.638-19.33 19.314 0 10.678 8.656 19.334 19.334 19.334 10.678 0 19.334-8.656 19.334-19.334-.016-10.67-8.67-19.312-19.34-19.314zm50.165 0c-10.677-.013-19.34 8.637-19.342 19.314 0 10.678 8.656 19.334 19.334 19.334 10.678 0 19.334-8.656 19.334-19.334.005-10.673-8.652-19.326-19.326-19.314zm50.191 0c-10.673-.01-19.329 8.641-19.326 19.314 0 10.678 8.656 19.334 19.334 19.334 10.678 0 19.334-8.656 19.334-19.334.003-10.679-8.663-19.332-19.342-19.314zm-100.356 48.75c-10.68.007-19.334 8.669-19.33 19.349-.008 10.676 8.65 19.33 19.326 19.32 10.672-.004 19.327-8.648 19.342-19.32-.02-10.674-8.665-19.324-19.34-19.349zm50.165 0c-10.681.01-19.336 8.668-19.342 19.349 0 10.679 8.663 19.332 19.342 19.32 10.679 0 19.326-8.64 19.326-19.32.001-10.678-8.648-19.337-19.326-19.349zm50.191 0c-10.677.014-19.325 8.672-19.326 19.349-.006 10.675 8.651 19.329 19.326 19.32 10.679.012 19.343-8.641 19.342-19.32-.003-10.682-8.66-19.342-19.342-19.349zm49.789-94.097h17.661v131.256h-17.661zm87.669 42.544c-8.992.243-14.958 6.491-17.56 9.899v-8.692h-15.653v87.506h15.654v-67.87c1.3-1.9 5.415-7.188 11.129-7.2 9.633-.022 10.144 8.304 10.144 8.304v66.766h15.655v-66.766s1.951-7.976 10.976-8.46c9.622-.517 10.967 8.46 10.967 8.46v66.766h15.654v-66.766s2.16-21.664-18.86-21.947c-11.197-.15-19.366 10.584-19.366 10.584s-7.177-10.897-18.74-10.584zm123.904-.369c-9.513-.162-16.302 8.162-17.834 10.22v-8.644h-14.852V367.57h14.852v-44.4c4.562 6.081 10.241 11.683 19.002 10.865 20.586-1.92 21.088-28 21.133-44.515.047-17.3.346-42.99-20.084-46.163a16.238 16.238 0 00-2.217-.191zm-5.488 14.422a8.3 8.3 0 01.896.096c11.35 1.83 11.586 15.398 11.272 31.404-.317 16.09.311 28.976-11.895 30.283-5.108.547-9.55-2.979-12.62-13.619v-35.637c1.538-4.268 5.497-12.88 12.347-12.527zm78.8-14.422c-.723.012-1.463.074-2.216.191-18.73 1.498-19.512 27.47-20.084 46.163.044 16.515 1.784 42.727 21.132 44.515 8.76.818 14.44-4.784 19.002-10.865v9.078h14.852v-87.506h-14.852v8.645c-1.532-2.06-8.321-10.383-17.834-10.221zm5.489 14.422c6.85-.352 10.808 8.26 12.345 12.527v35.637c-3.069 10.64-7.51 14.166-12.619 13.62-12.206-1.308-11.578-14.194-11.894-30.284-.315-16.006-.078-29.574 11.271-31.404a8.32 8.32 0 01.897-.096zm196.663-14.422c-.723.012-1.463.074-2.216.191-18.73 1.498-19.512 27.47-20.084 46.163.044 16.515 1.784 42.727 21.132 44.515 8.76.818 14.44-4.784 19.002-10.865v9.078h14.852v-87.506h-14.852v8.645c-1.532-2.06-8.321-10.383-17.834-10.221zm5.489 14.422c6.85-.352 10.808 8.26 12.345 12.527v35.637c-3.069 10.64-7.51 14.166-12.619 13.62-12.206-1.308-11.578-14.194-11.894-30.284-.315-16.006-.078-29.574 11.271-31.404a8.32 8.32 0 01.897-.096zm-103.338-14.272c-12.64-.202-19.345 9.981-21.475 13.918v-12.379h-15.062v87.393h15.062v-58.447c7.203-15.582 13.379-13.877 21.475-14.197zm28.33 1.539h14.59v122.987h-14.59z"/>
        <circle cx="633.344" cy="218.329" r="10.319"/>
    </g>
</svg>
