<svg version="1.1" viewBox="0 0 512 512" xmlns="http://www.w3.org/2000/svg">
  <path d="m71.432 222.2c-2.7805 0-5.3768 1.1502-7.2676 3.0039-1.9278 1.8537-3.0391 4.4851-3.0391 7.2656 0 2.8917 1.1854 5.3768 3.0391 7.2676l2.2617 2.2969c3.7444 3.8556 4.0043 4.7828 0.44531 8.416l-2.0391 2.0762c-1.6683 1.7424-2.707 4.0416-2.707 6.5996v33.254h18.648v-33.254c0-2.558-1.0758-4.8942-2.707-6.5996l-2.0391-2.0762c-3.5961-3.7073-3.2991-4.5604 0.44531-8.416l2.2617-2.2969c1.8537-1.8907 3.0391-4.3759 3.0391-7.2676 0-2.8917-1.1113-5.412-3.0391-7.2656-1.9278-1.8537-4.374-3.0039-7.3027-3.0039zm406.17 23.469c-6.6732 0-12.752 2.7426-17.238 7.1543-4.4117 4.3746-7.082 10.528-7.082 17.312v22.281h18.426v-21.947c0-2.6693 0.62992-5.0036 1.668-6.709 1.0751-1.7424 2.484-2.7812 4.1523-2.7812s3.0401 1.0388 4.1523 2.7812c1.1122 1.7424 1.668 4.0397 1.668 6.709v21.947h18.648v-22.391c0-6.7102-2.7075-12.903-7.1934-17.314-4.4117-4.3746-10.565-7.043-17.201-7.043zm-443.29 0.11133c-6.6732 0-12.826 2.7796-17.127 7.1543-4.3376 4.4117-7.1934 10.491-7.1934 17.201v22.281h18.537v-21.836c0-2.6693 0.62992-5.0036 1.668-6.709 1.0751-1.7424 2.4841-2.7812 4.1523-2.7812 1.6683 0 3.0401 1.0388 4.1523 2.7812 1.1122 1.7424 1.668 4.0397 1.668 6.709v21.836h18.537v-22.281c0-6.7102-2.7446-12.864-7.1934-17.312-4.3376-4.3376-10.454-7.043-17.201-7.043zm73.441 0c-6.7473 0-12.901 2.7796-17.313 7.1543-4.3746 4.3746-7.1172 10.639-7.0801 17.312 0.07415 6.7102 2.6684 12.94 7.0801 17.314 1.4535 1.4535 3.4509 2.9354 5.8008 4.2051 7.283-1.0397 8.9938-1.5684 15.133-4.543 3.9189-1.8941 9.2086-4.8976 11.887-6.7266 2.3634-1.5565 6.0148-4.6943 8.7578-7.3965 0.02462-0.19029 0.07106-0.36114 0.0918-0.55468h-18.646c-0.22244 2.0761-0.78006 3.9311-1.5586 5.4141-1.1122 2.0761-2.484 3.2246-4.1523 3.2246-1.6683 0-3.0402-1.1485-4.1523-3.2246-1.1122-2.0761-1.668-4.7471-1.668-7.75 0-3.0029 0.66699-5.7832 1.668-7.748 1.1122-2.0761 2.484-3.2246 4.1523-3.2246 1.6683 0 3.0402 1.1485 4.1523 3.2246 0.81562 1.4829 1.3362 3.338 1.5586 5.4141h18.535c-0.5561-5.7834-3.1503-11.086-7.0801-15.016-4.3746-4.3005-10.567-7.0801-17.166-7.0801zm-11.512 45.986c2.2472 1.2142 4.8291 2.2112 7.875 2.6582-3.0157-0.4613-5.6303-1.4453-7.875-2.6582zm7.875 2.6582c0.14354 0.02196 0.2784 0.05279 0.42383 0.07227-0.14574-0.01873-0.27985-0.05114-0.42383-0.07227zm0.42383 0.07227c1.0302 0.13238 2.0952 0.21875 3.2129 0.21875-1.1205 0-2.1883-0.08153-3.2129-0.21875zm3.2129 0.21875c1.4922 0 2.9616-0.13842 4.3926-0.4043-1.431 0.26587-2.9004 0.4043-4.3926 0.4043zm4.3926-0.4043c1.431-0.26588 2.8226-0.65859 4.1621-1.166-1.3395 0.50743-2.7312 0.90015-4.1621 1.166zm4.1621-1.166c1.3395-0.50742 2.626-1.1308 3.8438-1.8555-1.2178 0.72465-2.5043 1.348-3.8438 1.8555zm3.8438-1.8555c1.2178-0.72466 2.3677-1.5512 3.4336-2.4688-1.0659 0.91755-2.2158 1.7441-3.4336 2.4688zm306.4-45.51c0.81243 0 1.6144 0.04412 2.4062 0.12109-0.79095-0.07863-1.5933-0.12109-2.4062-0.12109zm2.4062 0.12109c0.57016 0.05669 1.1283 0.15034 1.6856 0.2461-0.55832-0.09388-1.1149-0.19062-1.6856-0.2461zm1.6856 0.2461c0.20413 0.03432 0.41287 0.05441 0.61523 0.09375-0.20198-0.04012-0.41142-0.05873-0.61523-0.09375zm0.61523 0.09375c0.18637 0.03701 0.36407 0.09543 0.54883 0.13672-0.18537-0.04057-0.36189-0.10038-0.54883-0.13672zm0.54883 0.13672c1.3257 0.29009 2.6072 0.6919 3.8418 1.1875-1.2308-0.5029-2.5187-0.89182-3.8418-1.1875zm3.8418 1.1875c0.39787 0.16257 0.77897 0.35434 1.166 0.53711-0.38958-0.1811-0.76552-0.37635-1.166-0.53711zm1.166 0.53711c0.92596 0.43042 1.8216 0.91197 2.6797 1.4512-0.85542-0.54355-1.7572-1.0155-2.6797-1.4512zm2.6797 1.4512c0.54464 0.34607 1.0691 0.7208 1.584 1.1074-0.51829-0.38667-1.035-0.76242-1.584-1.1074zm1.584 1.1074c0.69431 0.51798 1.3637 1.0643 1.998 1.6523-0.63403-0.58778-1.3059-1.1326-1.998-1.6523zm1.998 1.6523c-2.0773 3.9663-3.7571 6.1321-7.3223 9.6973-1.3168 1.291-2.6548 2.392-3.9883 3.4668 0.38276 1.4609 0.64258 3.0438 0.64258 4.7695 0 6.0058-2.595 10.975-5.8574 10.975-2.9531 0-5.2554-4.137-5.6856-9.3633-2.0451 0.82254-4.1635 1.5897-5.8828 2.1055-2.6843 0.76711-7.6487 1.6452-12.029 2.2402 2.6431 10.656 12.15 18.586 23.598 18.586 13.495 0 24.393-10.974 24.393-24.506 0-7.1668-3.0559-13.51-7.8672-17.971zm-11.311 13.164c-0.23996-0.91591-0.54553-1.7618-0.90234-2.5195 0.36212 0.75342 0.6619 1.6018 0.90234 2.5195zm-0.90234-2.5195c-0.63838-1.3282-1.4207-2.3809-2.3398-3 0.90939 0.63094 1.7101 1.6627 2.3398 3zm-2.3398-3c-0.18779-0.13028-0.37923-0.24278-0.57618-0.33593 0.1971 0.09071 0.38774 0.20901 0.57618 0.33593zm-0.57618-0.33593c-0.11763-0.05414-0.2331-0.10978-0.35351-0.15039 0.1199 0.04154 0.23657 0.09507 0.35351 0.15039zm-0.35351-0.15039c-0.33819-0.11718-0.68425-0.19727-1.043-0.19727 0.35817 0 0.70344 0.08273 1.043 0.19727zm-56.154-13.301c-1.5844 0.32894-3.1096 0.81467-4.5625 1.4355 1.453-0.62087 2.9781-1.1066 4.5625-1.4355zm-4.5625 1.4355c-1.453 0.62087-2.8345 1.3781-4.127 2.2539 1.2924-0.87578 2.674-1.633 4.127-2.2539zm-4.127 2.2539c-1.2925 0.87577-2.4967 1.8692-3.5996 2.9629 1.1029-1.0937 2.3072-2.0871 3.5996-2.9629zm-3.5996 2.9629c-1.0937 1.0937-2.0895 2.3046-2.9688 3.6113 0.87926-1.3068 1.8751-2.5177 2.9688-3.6113zm-2.9688 3.6113c-0.87926 1.3068-1.6421 2.71-2.2676 4.1836 0.62551-1.4736 1.3883-2.8768 2.2676-4.1836zm-2.2676 4.1836c-0.62551 1.4736-1.1148 3.0192-1.4473 4.6133 0.33242-1.5941 0.82175-3.1397 1.4473-4.6133zm67.715-14.34c-1.5895 0.32645-3.1223 0.80769-4.582 1.4277 1.4598-0.62004 2.9925-1.1013 4.582-1.4277zm-4.582 1.4277c-1.4598 0.62004-2.8469 1.379-4.1445 2.2598 1.2976-0.88077 2.6848-1.6397 4.1445-2.2598zm-4.1445 2.2598c-1.2976 0.88076-2.5064 1.8836-3.6094 2.9922 1.103-1.1086 2.3118-2.1114 3.6094-2.9922zm-3.6094 2.9922c-1.103 1.1086-2.1007 2.3233-2.9766 3.627 0.87587-1.3036 1.8736-2.5183 2.9766-3.627zm-2.9766 3.627c-0.87588 1.3036-1.6297 2.6963-2.2461 4.1621 0.61636-1.4658 1.3702-2.8585 2.2461-4.1621zm-2.2461 4.1621c-0.61636 1.4658-1.0955 3.0046-1.4199 4.5996 0.3244-1.595 0.80356-3.1338 1.4199-4.5996zm-18.186-13.141c1.4574 0.63017 2.8474 1.4058 4.1641 2.3164-1.3166-0.91056-2.7067-1.6862-4.1641-2.3164zm4.1641 2.3164c1.3166 0.91055 2.5607 1.9552 3.7285 3.123-1.1678-1.1678-2.4119-2.2125-3.7285-3.123zm3.7285 3.123c0.99171 0.9917 1.8268 2.0443 2.5293 3.127-0.7025-1.0826-1.5376-2.1352-2.5293-3.127zm2.5293 3.127c0.7025 1.0826 1.2719 2.1945 1.7324 3.3066-0.46051-1.1122-1.0299-2.224-1.7324-3.3066zm-24.031 5.8828c-0.48195 1.038-0.89095 2.3353-1.2246 3.707 0.33366-1.3717 0.74266-2.669 1.2246-3.707zm50.137 0.41211c-0.5262 0.98926-0.95187 2.169-1.248 3.4844 0.29618-1.3154 0.72185-2.4951 1.248-3.4844zm-1.248 3.4844c-0.29617 1.3154-0.46338 2.7657-0.47265 4.2949 0.00927-1.5293 0.17648-2.9795 0.47265-4.2949zm-19.008 4.332c0 2.0505 0.32324 4.0103 0.79492 5.9141-0.47184-1.9037-0.79492-3.8635-0.79492-5.9141zm-270.14 2.834c-0.51662 3.9711-1.8565 7.2388-3.4492 9.8398 1.6019-2.5977 2.9318-5.8625 3.4492-9.8398zm-3.4492 9.8398c-0.74479 1.2078-1.5415 2.2702-2.3359 3.1934 0.79372-0.92717 1.5929-1.98 2.3359-3.1934zm-2.3359 3.1934c-0.06269 0.07323-0.12489 0.16096-0.1875 0.23243 0.06421-0.07289 0.1232-0.15771 0.1875-0.23243zm226.23-11.094c0.33242 1.596 0.82175 3.1398 1.4473 4.6113-0.62551-1.4715-1.1148-3.0153-1.4473-4.6113zm1.4473 4.6113c0.62551 1.4715 1.3883 2.8698 2.2676 4.1738-0.87926-1.304-1.6421-2.7023-2.2676-4.1738zm2.2676 4.1738c0.87926 1.304 1.8751 2.5138 2.9688 3.6074-1.0937-1.0936-2.0895-2.3034-2.9688-3.6074zm2.9688 3.6074c0.80711 0.80712 1.7122 1.5276 2.6621 2.2031-0.92904-0.69694-1.8571-1.3981-2.6621-2.2031zm2.6621 2.2031c0.74124 0.55605 1.5279 1.0459 2.3418 1.5215-0.81126-0.474-1.5883-0.98569-2.3418-1.5215zm2.3418 1.5215c3.5685 2.085 7.7428 3.4297 12.42 3.4297 7.3034 0 13.422-3.0763 17.314-7.2656 3.6994-4.0404 4.8048-8.3296 5.1641-10.553-5.1617 0.64799-9.6011 1.5311-13.006 2.666-3.1353 1.0451-8.4922 3.5256-11.889 5.4199-3.3966 1.9597-7.0537 4.1163-8.1641 4.7695-0.32709 0.2249-1.2589 1.0681-1.8398 1.5332zm34.898-14.389c0.14842-0.91824 0.21094-1.5703 0.21094-1.5703s-0.06252 0.65207-0.21094 1.5703z"/>
  <circle cx="94.939" cy="169.61" r="23.977"/>
  <path d="m261.88 68.598c-4.0498 0-8.0346 0.45748-11.17 1.3066-2.6781 0.6532-6.6628 2.0896-8.8184 3.1348-2.1556 0.97979-5.749 3.2665-8.0352 4.9648-2.6781 2.0249-6.7935 6.4664-11.758 12.672-4.1805 5.2256-9.994 11.822-12.803 14.631-2.8088 2.7434-7.185 6.4013-9.7324 8.0996-2.4822 1.633-6.7272 3.8553-9.4707 4.9004-2.6781 1.0451-7.8381 2.4827-11.496 3.2012-3.6579 0.65317-8.2318 1.8939-10.191 2.6777-1.9596 0.78383-5.355 2.4816-7.4453 3.7226-2.1556 1.2411-5.8789 4.1808-8.2305 6.5977-2.4169 2.3515-5.5523 6.3353-7.0547 8.8828-1.437 2.4822-3.4616 6.8583-4.4414 9.7324-1.2411 3.7232-1.8294 7.1201-2.0254 11.758-0.32658 5.291-0.13083 7.5769 1.0449 12.084 0.84917 3.462 3.3317 9.6674 6.5977 16.33 2.8741 5.9441 5.8138 13.13 6.5976 16.004 1.0452 3.9192 1.3722 7.2506 1.4375 13.391 0 5.4869-0.32747 9.6683-1.1113 12.738-0.58787 2.4822-1.8288 7.0549-2.8086 10.125-0.20634 0.6927-0.52458 1.476-0.78906 2.2324 1.9936 1.6962 3.2949 4.1927 3.2949 7.0059v10.047l8.4141-15.014c1.6335-2.8848 4.637-4.4677 7.7246-4.5625 0.20584-0.00632 0.41097-5e-3 0.61719 0.00195 1.4829 0.07414 2.9662 0.51836 4.4121 1.334 4.3746 2.558 5.7085 8.268 3.2617 12.717l-7.0801 12.826 10.121 15.35c0.33366 0.51902 0.44531 1.149 0.44531 1.7422 1e-5 1.8537-1.3356 3.2246-3.041 3.2246h-14.939l-9.7871-14.68v14.68h-18.537v-22.551c-0.68327 0.73092-1.2707 1.4712-1.8848 2.0996-0.32287 0.33824-0.80796 0.73727-1.1738 1.0976-1.0317 7.9744-5.392 13.114-8.4336 15.721-4.2634 3.6702-9.8632 5.8945-15.832 5.8945-4.6218 0-8.4091-1.2715-11.514-2.9492-0.23215 0.03313-0.36145 0.05946-0.60547 0.09375-4.7684 0.71852-10.386 1.8948-12.477 2.6133-2.0902 0.7838-5.4212 2.2872-7.3809 3.4629-1.9596 1.1758-5.3564 4.1144-7.6426 6.5312-2.5475 2.6781-5.0298 6.1398-6.4668 9.1445-1.3064 2.6128-2.8086 6.6622-3.3965 9.0137-0.84914 3.2007-0.98005 5.9448-0.71875 11.432 0.19595 4.3112 0.84899 8.7531 1.6328 11.17 0.65319 2.1555 2.4173 6.1402 3.7891 8.8184 1.7636 3.3966 4.1151 6.4656 8.0996 10.385 3.8539 3.8538 6.9896 6.3377 10.125 7.9707 2.5475 1.3064 6.7926 3.0688 9.4707 3.918 4.1152 1.2411 6.2707 1.5028 13.391 1.4375 7.5118 0 9.079-0.19516 13.717-1.8281 2.874-0.97982 7.1211-2.9408 9.4726-4.3125 2.3515-1.3718 7.1201-5.1606 10.582-8.3613 3.462-3.2007 7.9026-6.8585 9.7969-8.0996 1.8943-1.3064 5.553-3.3312 8.0352-4.5723 2.5475-1.3064 6.7281-3.069 9.4062-4.0488 2.6781-0.9798 7.4466-2.2873 10.582-3.0059 3.2007-0.71847 9.4714-1.6315 13.979-2.0234 6.0094-0.52256 10.32-0.52256 16.525 0 4.6377 0.39196 11.3 1.436 14.893 2.2852 3.5273 0.91448 8.6871 2.4167 11.365 3.3965 2.6781 0.91446 6.6628 2.6142 8.8184 3.7246 2.1556 1.0452 5.8792 3.1999 8.3613 4.7676 2.4168 1.5677 6.8586 5.2255 9.8633 8.0996 3.0047 2.874 6.9247 7.3814 8.623 9.9941 1.7636 2.6129 4.1152 7.0536 5.291 9.9277 1.1758 2.8741 2.5477 7.2514 3.0703 9.7988 0.52256 2.4822 1.3053 7.0539 1.6973 10.059 0.39192 3.0047 1.5035 7.513 2.418 10.061 0.9798 2.4822 3.0693 6.5962 4.7676 9.209 1.6983 2.5475 4.8336 6.2709 6.9238 8.2305 2.0902 2.025 5.6179 4.7034 7.7734 6.0098 2.1556 1.3064 6.2704 3.2018 9.1445 4.1816 4.2458 1.437 6.729 1.8938 12.869 2.0898 5.6175 0.19594 9.0129-4.5e-4 12.605-0.84961 2.7434-0.58789 7.1854-2.222 9.9941-3.5938 2.7434-1.4371 6.729-3.9178 8.7539-5.5508 2.0902-1.633 5.0936-4.6383 6.7266-6.7285 1.633-2.025 4.1157-6.0086 5.5527-8.752 1.3717-2.8088 3.0039-7.3171 3.5918-10.061 0.84916-3.6579 1.0456-6.7928 0.84961-11.953-0.26129-4.8336-0.783-8.2305-1.8281-11.17-0.78384-2.3515-2.6793-6.5321-4.1816-9.4062-1.437-2.8087-4.3755-7.0539-6.4004-9.4707-2.0902-2.3515-5.5515-6.4673-7.707-9.0801-2.1556-2.6782-5.0951-7.1856-6.4668-10.125-1.3717-2.9394-2.9401-6.9232-3.332-8.8828-0.52256-2.1556-0.65299-5.6826-0.45703-9.1445 0.19596-3.2007 0.97983-7.3809 1.7637-9.7324 0.78384-2.2209 2.8086-6.2055 4.5723-8.8184 1.6983-2.5475 4.7034-6.3373 6.5976-8.2969 1.9596-1.9596 5.2898-5.226 7.4453-7.1856 1.4802-1.3456 2.7621-2.3423 4.0371-3.3633-1.834-1.0716-3.5566-2.2773-5.0039-3.7246-4.3746-4.3746-7.1914-10.604-7.1914-17.314 0-6.6732 2.8168-12.938 7.1914-17.312 4.4117-4.3746 10.456-7.1543 17.203-7.1543 6.8585 0 12.753 2.7057 17.424 7.377 7.9337 7.9337 5.8574 19.76 5.8574 19.76h-28.77c0.33366 1.8537 0.77813 3.56 1.5566 4.9688 1.1493 2.0761 2.484 3.2246 4.1524 3.2246 3.9298 0 6.1914-5.7832 6.1914-5.7832h16.498s-0.06276 0.65105-0.21094 1.5684c0.48422-0.0608 0.86847-0.15296 1.3672-0.20899 0.76733-0.08409 1.6929-0.25894 2.5332-0.37305-0.47235-1.905-0.79687-3.8659-0.79687-5.918 0-13.532 10.9-24.504 24.395-24.504 6.4073 0 12.181 2.503 16.529 6.5352 0.32097-0.61274 0.62479-1.1501 0.97461-1.8672 1.8943-3.7232 3.5924-8.2303 3.9844-10.451 0.39192-2.1556 0.58854-6.7283 0.39258-10.125-0.19596-3.5926-0.97982-8.1645-1.7637-10.777-0.78383-2.5474-2.4827-6.6623-3.7891-9.1445-1.5677-2.9394-4.181-6.3364-7.3164-9.5371-3.6579-3.7232-6.1409-5.5527-9.7988-7.3164-2.6781-1.3064-6.793-2.873-9.1445-3.4609-3.2007-0.78386-6.1394-0.98004-12.41-0.71875-5.8135 0.19594-9.3401 0.65299-12.41 1.6328-2.3515 0.78386-6.0105 2.4815-8.166 3.7227-2.1556 1.3064-6.5317 4.3764-9.7324 6.9238-3.266 2.5475-7.5111 5.4216-9.4707 6.4668-2.0249 0.97979-6.0107 2.5484-8.8848 3.4629-2.8741 0.9145-8.0988 2.0241-11.691 2.416-3.7232 0.52259-8.8844 0.653-12.15 0.45703-3.2007-0.26126-8.033-1.1754-10.842-2.0898-2.8741-0.84919-7.5135-2.9404-10.322-4.6387-3.0047-1.7636-7.25-5.0938-10.189-8.0332-2.7434-2.7434-6.0736-6.8591-7.4453-9.0801-1.3064-2.2862-3.0061-5.9432-3.7246-8.1641-0.71852-2.1556-1.5013-5.8789-1.6973-8.2305-0.19596-2.6781 0.06553-6.1398 0.71875-9.1445 0.52256-2.6128 2.1548-7.1856 3.5918-10.125 1.437-2.8741 4.1144-7.3811 5.9434-9.8633 1.829-2.5474 4.5072-6.9248 5.8789-9.7988 1.437-2.8741 3.0048-7.1192 3.5274-9.4707 0.58789-2.3515 1.0449-7.1867 1.0449-10.779 0-3.5926-0.45595-8.3602-0.97852-10.646-0.52256-2.2861-1.9601-6.2708-3.2012-8.8184-1.1758-2.6128-3.5274-6.5321-5.291-8.8184-1.6983-2.2862-4.8983-5.6172-7.1191-7.3809-2.1556-1.7636-6.0092-4.2453-8.5566-5.4863-2.4822-1.2411-6.9256-2.8752-9.7344-3.5938-3.462-0.84916-7.2492-1.3055-11.43-1.2402zm-23.846 153.38c5.079 0 9.3438 4.1534 9.3438 9.2324v61.207h-18.537v-61.207c0-5.079 4.0402-9.2324 9.1934-9.2324zm102.36 0c5.042 0 9.2324 4.1533 9.2324 9.1953v38.928c0 6.7844-2.6702 12.975-6.9707 17.312-2.7805 2.8176-8.8969 7.1543-17.312 7.1543-8.4527 0-14.532-4.3367-17.312-7.1543-4.3005-4.3376-7.082-10.602-7.082-17.312 0-6.6732 2.6703-12.94 7.082-17.314 4.4859-4.4117 10.565-7.1543 17.312-7.1543 1.9278 0 3.9296 0.25825 5.8574 0.70313v-15.125c1e-5 -5.079 4.0402-9.2324 9.1934-9.2324zm-137.28 23.691c6.7473 0 12.641 2.7057 17.312 7.377 7.9337 7.9337 5.8574 19.76 5.8574 19.76h-28.768c0.33366 1.8537 0.7781 3.56 1.5566 4.9688 1.1493 2.0761 2.484 3.2246 4.1523 3.2246 3.9298 0 6.1914-5.7832 6.1914-5.7832h16.498s-0.14962 6.4138-5.377 12.123c-3.8927 4.1893-10.12 7.2656-17.312 7.2656-7.081 0-13.123-2.8909-17.424-7.1543-4.4858-4.4117-7.1934-10.604-7.1934-17.314-1e-5 -6.6732 2.7816-12.938 7.1934-17.312 4.4859-4.4117 10.565-7.1543 17.312-7.1543zm71.105 0.11133c13.495 0 24.395 10.972 24.395 24.504 0 13.532-10.9 24.506-24.395 24.506-13.495 0-24.393-10.974-24.393-24.506 0-13.532 10.898-24.504 24.393-24.504zm-71.105 13.049c-1.6683 0-3.3738 1.4841-4.1894 3.2266-0.44488 1.038-0.889 2.3353-1.2227 3.707l10.676-0.11133c-0.22244-1.1863-0.62938-2.6689-1.1113-3.5957-1.0751-2.0761-2.484-3.2266-4.1524-3.2266zm173.35 0c-1.7054 0-3.2977 1.4841-4.1875 3.2266-0.48195 1.038-0.89095 2.3353-1.2246 3.707l10.789-0.11133c-0.22244-1.1863-0.70558-2.6689-1.2246-3.5957-1.1493-2.039-2.484-3.2266-4.1523-3.2266zm-102.25 0.44531c-3.2624 0-5.8203 4.8556-5.8574 10.973 0 6.0058 2.595 10.975 5.8574 10.975 3.2624 0 5.8594-4.9688 5.8594-10.975 0-6.0059-2.5969-10.973-5.8594-10.973zm51.014 0c-3.1512 0-5.8574 4.8556-5.8574 10.973 0 6.0058 2.595 10.975 5.8574 10.975 3.2624 0 5.9316-4.9688 5.8574-10.975-0.07414-6.0059-2.595-10.973-5.8574-10.973zm101.32 0c-3.2624 0-5.8223 4.8556-5.8594 10.973 0 0.56954 0.12876 1.0638 0.17382 1.6113 1.8412-0.74045 3.6292-1.526 4.8984-2.207 1.9342-1.0657 3.9635-2.5292 6.002-4.1719-0.94915-3.6246-2.8894-6.2051-5.2148-6.2051z"/>
</svg>
