<svg xmlns="http://www.w3.org/2000/svg" height="512" width="512">
    <path d="M140.415 136.077a244.289 244.289 0 00-3.764 6.078c-10.184 16.97-18.768 36.301-23.729 53.44a440.683 440.683 0 01-1.013 3.472c-.041.133-1.221-.359-3.385-1.414-13.081-6.378-26.417-9.975-42.509-11.464-3.772-.35-15.9-.291-19.676.092-3.218.33-6.878.834-8.392 1.155l-.925.2.1.805c.058.446.5 2.392.975 4.314 2.135 8.613 5.887 18.26 10.306 26.488 10.371 19.323 25.058 34.743 43.605 45.786a147.936 147.936 0 0013.285 6.787c2.08.892 7.784 3.089 7.854 3.026a19.768 19.768 0 00-.642-1.71c-2.847-7.078-4.815-15.507-5.765-24.686-.371-3.61-.521-13.645-.267-17.91.396-6.57 1.447-14.32 2.86-21.106.796-3.818 2.28-9.83 2.472-10.021.167-.167 3.18 1.438 6.378 3.38 19.406 11.806 34.338 28.21 44.452 48.837 4.393 8.955 7.724 18.497 9.358 26.797.109.55.217.971.25.938.026-.033.513-1.263 1.076-2.726a253.235 253.235 0 0119.597-39.704c1.826-2.972 6.078-9.492 6.141-9.42.104.116 1.142 5.76 1.447 7.874 1.471 10.055 1.471 19.893 0 28.53-2.723 15.95-10.268 29.932-22.112 40.95-4.723 4.398-10.709 8.663-15.382 10.968-1.305.647-1.488.792-1.572 1.264l-.696 3.797a220.735 220.735 0 00-3.193 27.33c-.225 4.144-.225 14.745 0 18.564.267 4.573.921 10.889 1.184 11.38.083.155.804-.27 2.35-1.375 10.548-7.537 23.242-19.956 33.5-32.779 17.922-22.403 31.934-48.557 41.25-76.988 7.671-23.408 11.59-48.041 11.206-70.402a201.876 201.876 0 00-.279-8.25c-.208-2.735-.83-8.475-1.005-9.334l-.12-.567-2.114 1.5a166.958 166.958 0 00-10.005 7.976c-11.652 10.213-23.007 23.044-32.796 37.068-.875 1.255-1.626 2.289-1.659 2.289-.029 0-.22-.709-.425-1.584a151.234 151.234 0 00-3.564-12.219c-7.7-22.57-22.136-46.04-42.159-68.53-2.785-3.127-10.601-11.172-10.855-11.172-.084 0-.822 1.021-1.643 2.276m122.924 91.579c-3.18.659-5.403 2.676-6.59 5.99-.263.726-.293 4.265-.33 41.838l-.042 41.046 5.887-.05c5.669-.05 5.923-.067 6.865-.447a8.638 8.638 0 005.103-5.244l.45-1.238.042-24.208c.033-18.876.092-24.195.258-24.137.121.046 8.972 11.63 19.681 25.763 10.714 14.128 19.893 26.075 20.41 26.567 1.092 1.03 2.806 2.039 4.386 2.585 1.338.463 3.693.53 5.136.142 3.014-.809 5.169-2.98 6.136-6.195.296-.984.313-3.018.363-41.813l.054-40.778h-5.378c-5.949 0-6.795.104-8.562 1.046-2.039 1.084-3.219 2.514-4.06 4.903l-.48 1.354-.042 24.388c-.029 15.14-.104 24.353-.208 24.316-.088-.033-9.063-11.935-19.935-26.443-21.32-28.447-20.26-27.134-22.887-28.455a9.713 9.713 0 00-6.257-.93m84.822.092a8.638 8.638 0 00-6.053 5.486l-.392 1.034-.042 41.12-.042 41.125h5.466c6.015 0 6.64-.08 8.475-1.055a8.963 8.963 0 003.43-3.64c1.084-2.296 1.018.397 1.018-43.896v-40.445l-5.453.008c-4.198.008-5.678.067-6.407.263m16.024 5.11c.063 6.045.117 6.345 1.418 8.284 1.204 1.784 2.98 2.835 5.386 3.185.633.092 5.148.167 10.046.167h8.897v72.019h5.465c6.049 0 6.636-.075 8.525-1.08 2.03-1.08 3.439-2.943 4.056-5.365.334-1.313.346-1.989.346-33.458v-32.116l8.88.041 8.875.042 12.227 31.111 13.065 33.225c2.25 5.711 4.593 7.6 9.392 7.6 3.802 0 6.128-1.392 8.033-4.815.408-.738 33.204-83.846 33.204-84.15 0-.042-3.39-.071-7.533-.071-6.22 0-7.7.046-8.538.262-2.042.526-3.947 2.06-5.315 4.277-.583.943-2.889 6.962-10.25 26.743a3398.106 3398.106 0 01-9.601 25.646c-.054.067-4.377-11.38-9.618-25.438-6.39-17.175-9.742-25.954-10.209-26.763-.825-1.426-2.455-3.085-3.668-3.735-1.955-1.055.429-.992-38.003-.992h-35.134l.054 5.377"/>
    <path d="M10.821 261.731c1.472 1.735 6.554 6.379 10.697 9.776 23.208 19.043 55.432 34.392 86.698 41.296 9.78 2.16 19.676 3.476 27.326 3.639l4.21.088-2.918-2.885c-12.348-12.198-31.37-24.838-51.05-33.921-24.65-11.381-50.205-18.01-72.603-18.835L10 260.773l.821.958m102.998 14.337c5.481 12.464 14.69 23.295 26.28 30.923 6.023 3.96 12.79 7.137 19.009 8.922 2.15.617 2.564.642 2.564.154 0-.154.354-1.876.792-3.835a241.045 241.045 0 018.22-28.465c.784-2.18 1.405-3.972 1.384-3.993a8.617 8.617 0 00-1.25.208c-1.543.325-5.586.863-8.717 1.159-3.719.35-16.329.292-20.285-.092-9.422-.917-19.101-2.897-26.638-5.444a20.802 20.802 0 00-1.66-.517c-.07 0 .067.446.3.98"/>
</svg>
