<svg xmlns="http://www.w3.org/2000/svg" height="512" width="512">
    <path d="M101.595 161.886c25.82 0 33.679 14.22 31.06 28.44-1.872 10.104-8.982 17.962-19.834 22.078l1.123 2.994c4.865 10.478 8.233 13.846 16.09 13.098l-3.741 18.336c-17.588 3.368-26.57-2.62-34.053-20.208l-3.368-7.858c-2.245 0-4.49-.374-6.736-.374l-5.613 28.814H53.696L69.039 167.5c13.845-4.49 21.33-5.613 32.556-5.613zm-12.349 19.459l-3.742 19.833c2.62.374 5.613.374 8.233.374 7.484 0 13.845-3.367 15.342-11.226.749-4.865-1.497-9.73-10.852-9.73-3.742 0-6.362.375-8.981.749zm110.766-17.588c12.35 22.453 17.214 49.396 12.723 72.597l-2.245 10.852h-23.575l2.245-10.852c.374-2.245.749-4.116 1.123-6.362h-29.189c-.748 2.246-1.122 4.49-1.496 6.362l-2.246 10.852h-23.575l2.245-10.852c4.49-23.201 19.833-50.144 40.79-72.597zm-32.93 48.273h23.575c-.374-9.73-2.62-19.833-5.987-29.188h-.375c-7.11 9.73-12.723 19.459-17.213 29.188zm108.895-50.144c8.607 0 16.84 1.871 21.33 5.239l-3.742 19.085c-7.484-3.368-12.723-4.49-19.46-4.49-18.71 0-25.071 12.348-27.316 23.2-2.246 11.227-.375 23.201 18.336 23.201 6.736 0 12.349-1.122 21.33-4.49l-3.742 19.085c-5.988 3.367-14.969 5.238-23.576 5.238-31.807 0-40.788-20.207-36.298-43.034 4.49-22.827 20.956-43.034 53.138-43.034zm57.254 1.871l-16.09 83.075h-23.576l16.09-83.45h23.576zm26.943 33.679c-.748 7.11-1.497 13.472-2.62 18.336l-5.987 31.06h-21.704l16.091-83.45h19.833l24.324 34.803c1.123 1.496 2.245 3.742 2.994 5.613.748-6.362 1.122-12.35 2.245-16.84l4.49-23.575h21.705l-16.091 83.449h-16.466c-1.496-7.484-4.116-13.846-7.484-19.085zm136.587 10.104l-6.736 35.176c-8.232 3.367-22.827 5.238-29.562 5.238-35.176 0-43.035-19.458-38.544-42.285 4.49-23.576 22.453-43.783 57.254-43.783 8.981 0 18.336 1.871 22.827 5.239l-3.742 19.085c-7.484-3.368-12.723-4.49-22.827-4.49-18.336 0-26.943 10.103-29.563 24.323-2.245 11.226-.374 23.575 18.337 23.575 2.245 0 4.116 0 5.987-.374l4.116-21.704zM25.63 324.668c7.11 0 11.6 5.613 10.104 12.723-1.497 7.11-8.233 12.723-15.343 12.723-7.11 0-11.6-5.613-10.103-12.723 1.496-7.11 8.232-12.723 15.342-12.723zm69.23-60.997c8.606 0 16.839 1.871 21.33 5.24l-3.743 19.084c-7.858-3.368-12.723-4.865-19.459-4.865-18.71 0-25.072 12.35-27.317 23.201-2.246 11.227-.374 23.201 18.336 23.201 6.736 0 12.349-1.122 21.33-4.49l-3.742 19.085c-5.987 3.367-14.968 5.238-23.575 5.238-31.808 0-40.79-20.207-36.299-43.034 4.49-22.078 21.33-42.66 53.138-42.66zm105.152 43.035c-4.49 23.575-22.452 43.408-50.518 43.408-28.44 0-38.544-19.459-34.053-43.408 4.49-23.576 22.078-42.66 50.518-42.66 28.44-.375 38.544 19.084 34.053 42.66zm-47.15 24.697c11.6 0 20.207-9.73 22.827-24.697 2.993-14.969-1.871-24.324-13.472-24.324-11.6 0-20.207 9.355-22.827 24.324-2.994 14.968 1.871 24.697 13.472 24.697zm77.836-36.298c-.749 8.233-1.497 15.717-2.62 21.704l-5.987 31.808h-21.705l15.717-83.075h27.692l11.226 33.305c.749 2.62 1.497 5.613 1.871 8.233 1.497-2.994 3.368-5.613 5.24-8.233l23.949-33.305h27.317l-15.717 83.45h-21.704l5.987-31.809c1.123-5.987 3.368-14.22 5.988-22.826l-12.35 17.587c-14.593 20.582-14.968 26.195-17.213 32.557h-16.84c0-5.988.375-11.6-5.987-32.557z" class="st0"/>
</svg>
