<svg version="1.1" viewBox="0 0 512 512" xmlns="http://www.w3.org/2000/svg">
 <path d="m612.06-512.71" />
 <g transform="matrix(.73718 0 0 .73718 -754.8 -161.45)">
  <path d="m1200.7 443.15s-37.781 32.812-70.26 101.42c19.554-50.545 18.227-86.012 18.227-86.012s-27.341 23.864-51.203 73.748c13.919-36.626 12.925-62.145 12.925-62.145s-19.885 17.235-37.45 53.361c9.7784-26.514 9.1146-44.91 9.1146-44.91s-17.235 14.913-30.821 46.237c-13.422 31.154-12.594 53.861-12.594 53.861s13.919-12.1 26.678-37.289c-14.58 37.453-13.586 63.636-13.586 63.636s19.388-16.735 36.62-51.869c-20.215 51.539-18.89 87.667-18.89 87.667s26.844-23.201 50.375-71.924c-28.169 70.599-26.347 120.48-26.347 120.48s42.255-36.626 75.728-113.52c33.473-76.895 31.485-132.74 31.485-132.74z"/>
  <path d="m1254.5 507.01h14.634l53.66 136.76h-13.988l-16.579-42.605h-62.28l-16.424 42.605h-13.982zm-20.651 83.097h53.818l-26.338-70.088zm97.401-45.207h11.056v23.254h0.3269c6.178-15.937 19.506-25.205 37.394-24.553v12.031c-21.787-1.1363-36.748 14.961-36.748 35.451v52.688h-12.029zm54.96 30.246c1.1363-23.254 17.397-33.173 39.996-33.173 17.397 0 36.427 5.3658 36.427 31.873v52.524c0 4.5537 2.2726 7.317 7.1506 7.317 1.2998 0 2.9268-0.32426 3.9052-0.81206v10.083c-2.6054 0.65134-4.551 0.81206-7.8049 0.81206-12.198 0-14.149-6.8292-14.149-17.236h-0.327c-8.4504 12.846-17.07 20.163-35.931 20.163-18.212 0-33.173-8.9439-33.173-28.944 0-27.807 26.99-28.786 53.006-31.873 9.9195-1.1391 15.449-2.439 15.449-13.337 0-16.261-11.707-20.327-25.853-20.327-14.961 0-26.017 6.832-26.505 22.929zm64.389 14.637h-0.327c-1.4634 2.9268-6.8319 3.9024-10.083 4.3902-20.485 3.5781-46.014 3.4146-46.014 22.766 0 12.034 10.732 19.515 21.948 19.515 18.378 0 34.636-11.707 34.476-31.061zm36.097-82.773h12.031v56.754h0.3243c5.205-14.146 19.515-21.627 34.312-21.627 30.077 0 44.392 24.393 44.392 52.361 0 27.971-14.315 52.363-44.392 52.363-15.934 0-29.758-8.2926-35.285-21.627h-0.3271v18.7h-11.056zm46.831 45.207c-25.692 0-34.636 21.629-34.636 42.12 0 20.49 8.9439 42.117 34.636 42.117 22.926 0 32.355-21.627 32.355-42.117 0-20.49-9.4289-42.12-32.355-42.12zm57.557-45.207h12.034v19.351h-12.034zm0 37.89h12.034v98.87h-12.034zm99.84 31.061c-3.2511-14.8-12.198-23.744-27.968-23.744-23.254 0-34.636 21.142-34.636 42.12 0 21.139 11.546 42.117 34.636 42.117 14.961 0 27.153-11.707 28.78-28.131h12.034c-3.2511 23.741-18.703 38.375-40.814 38.375-30.243 0-46.665-23.902-46.665-52.361 0-28.298 16.422-52.363 46.665-52.363 21.139 0 37.4 11.383 39.999 33.988z"/>
 </g>
</svg>
