<svg xmlns="http://www.w3.org/2000/svg" height="512" width="512">
    <path d="M186.183 122.187l-7.805 7.993c-20.356 20.852-41.487 49.668-56.597 77.17-1.806 3.294-3.377 5.892-3.494 5.775-.117-.117.333-1.977 1-4.14 5.42-17.58 9.832-42.75 10.808-61.635l.408-7.98-4.724 4.607c-13.884 13.53-30.646 35.846-41.787 55.647-4.69 8.335-6.441 11.024-5.533 8.497 2.669-7.438 6.075-22.198 7.702-33.36 1.467-10.099 2.268-22.19 1.476-22.19-.81 0-9.574 9.631-15.728 17.282-5.637 7.005-14.235 19.685-17.962 26.485-1.26 2.293-2.398 4.061-2.535 3.924-.134-.134.446-2.84 1.292-6.013 2.156-8.118 3.899-18.871 4.328-26.706l.363-6.687-4.678 4.915c-23.504 24.638-39.515 62.001-42.342 98.818L10 269.51l3.46-3.377c4.908-4.79 12.163-13.935 17.137-21.619 2.344-3.62 4.34-6.496 4.445-6.392.104.1-.33 1.697-.959 3.54-1.851 5.366-5.45 19.897-6.746 27.227-1.86 10.499-3.452 28.54-2.519 28.54.71 0 10.437-10.678 15.778-17.332 4.94-6.159 14.197-19.68 17.012-24.863.967-1.776 1.838-3.144 1.943-3.044.1.104-1.051 3.97-2.565 8.59-7.113 21.71-12.079 47.907-12.946 68.267l-.367 8.59 3.51-3.37c12.113-11.645 27.99-32.126 39.432-50.868 2.19-3.59 3.853-5.975 3.69-5.3a413.73 413.73 0 01-3.177 10.433c-9.552 30.504-15.269 62.305-16.662 92.688l-.391 8.594 5.032-4.908c9.29-9.06 21.857-23.666 31.705-36.834 34.895-46.657 62.239-109.008 73.225-166.956 3.503-18.458 6.234-42.583 6.171-54.529zm18.337 70.874c-14.255 0-24.128 9.081-22.485 20.68.667 4.687 2.443 7.573 6.233 10.129 3.198 2.151 5.954 3.11 15.19 5.262 8.83 2.06 12.446 3.569 14.276 5.97 1.26 1.651 1.76 4.316 1.284 6.847-.425 2.264-3.198 5.078-6.15 6.246-3.435 1.359-10.336 1.367-13.75.016-5.221-2.064-7.485-4.89-8.715-10.861l-.242-1.172h-10.657l.012 1.168c.013 2.201 1.201 6.833 2.319 9.04 2.839 5.599 8.751 9.58 16.482 11.098v-.008c1.042.208 4.06.396 6.713.421 13.98.138 23.086-5.758 24.904-16.12.917-5.232-.834-11.132-4.315-14.51-3.29-3.189-7.88-4.973-20.452-7.938-8.88-2.097-11.979-4.24-12.337-8.54-.234-2.86.375-4.494 2.314-6.195 2.168-1.901 5.516-2.719 10.165-2.477 4.57.238 7.038 1.176 9.336 3.54 1.405 1.447 1.938 2.627 3.11 6.93.104.392 1.584.534 5.541.534h5.4l-.288-2.027c-1.584-11.333-10.465-18.033-23.891-18.033zm110.227.08a40.978 40.978 0 00-2.485.028c-5.296.238-8.59 1.155-12.613 3.515-6.08 3.561-9.41 10.39-8.356 17.145.842 5.42 3.486 8.881 8.748 11.462 2.852 1.397 4.995 2.023 15.973 4.662 4.524 1.084 8.631 2.723 10.049 4.003 2.727 2.464 3.206 7.597.975 10.52-3.093 4.052-9.59 5.84-16.14 4.452-6.058-1.284-9.827-4.907-11.05-10.607l-.462-2.143h-10.603l.012 1.168c.013 2.422 1.276 7.046 2.602 9.531 2.619 4.912 8.531 8.973 15.102 10.366 4.045.858 11.817.867 15.915.02 4.357-.896 8.756-2.985 11.5-5.466 6.9-6.246 7.392-18.062 1.026-24.433-3.294-3.29-7.764-5.066-19.61-7.789-10.203-2.343-13.313-4.611-13.313-9.702 0-4.9 4.249-7.852 11.3-7.852 7.521 0 11.662 2.794 13.221 8.915l.504 1.972 5.062.125c2.781.067 5.229-.05 5.437-.254.213-.217.096-1.676-.27-3.436-2.11-10.128-10.354-16.003-22.524-16.207zm-80.389 1.417l-.108 30.52c-.063 16.787-.017 30.772.104 31.085.175.458 3.523.53 17.825.396 15.03-.138 17.983-.271 20.168-.897 4.123-1.18 6.942-2.827 9.423-5.504 3.144-3.398 4.228-6.825 3.932-12.466-.346-6.638-2.986-10.758-8.573-13.397l-2.614-1.234 1.363-.71a13.597 13.597 0 005.558-5.557c1.03-1.964 1.138-2.627 1.147-6.871.016-7.998-2.556-11.842-9.62-14.364-2.701-.964-3.056-.98-20.68-.989zm11.1 8.535l9.814.012c10.579.013 11.98.23 14.373 2.244 1.772 1.492 2.489 3.369 2.489 6.496 0 3.986-1.539 6.513-4.8 7.88-1.267.534-3.568.659-11.84.659h-10.27l.12-8.644zm-.213 25.396h10.94c12.426 0 13.543.192 16.212 2.769 4.999 4.812 2.935 13.46-3.811 15.99-.73.275-5.546.455-12.271.455h-11.07v-9.607z"/>
    <path d="M207.92 273.241l-10.708 29.037h21.456zm-4.454-7.776h8.948l22.236 58.344h-8.206l-5.316-14.969h-26.301l-5.316 14.969h-8.323zm61 21.298q-1.209-.705-2.656-1.018-1.41-.35-3.127-.35-6.096 0-9.381 3.986-3.24 3.949-3.24 11.37v23.058h-7.23v-43.768h7.23v6.797q2.264-3.982 5.9-5.9 3.636-1.951 8.83-1.951.743 0 1.644.116.896.075 1.993.271zm23.8 15.043q-8.714 0-12.075 1.993-3.36 1.998-3.36 6.801 0 3.832 2.501 6.1 2.54 2.226 6.88 2.226 5.975 0 9.569-4.22 3.636-4.26 3.636-11.298v-1.602zm14.343-2.968v24.975h-7.192v-6.646q-2.46 3.986-6.134 5.9-3.673 1.876-8.99 1.876-6.72 0-10.707-3.752-3.948-3.79-3.948-10.12 0-7.388 4.92-11.137 4.966-3.752 14.777-3.752h10.082v-.705q0-4.962-3.282-7.66-3.244-2.735-9.144-2.735-3.752 0-7.309.897-3.556.9-6.838 2.698v-6.642q3.945-1.527 7.66-2.269 3.71-.78 7.23-.78 9.494 0 14.184 4.92 4.691 4.929 4.691 14.932zm42.554 3.127q0-7.935-3.281-12.425-3.244-4.537-8.948-4.537-5.708 0-8.99 4.533-3.243 4.494-3.243 12.425 0 7.938 3.244 12.467 3.28 4.498 8.989 4.498 5.704 0 8.948-4.494 3.281-4.533 3.281-12.467zm-24.462-15.281q2.268-3.907 5.704-5.784 3.481-1.918 8.284-1.918 7.977 0 12.938 6.334 5.004 6.33 5.004 16.649 0 10.315-5.004 16.649-4.961 6.33-12.938 6.33-4.803 0-8.284-1.877-3.436-1.914-5.704-5.82v6.562h-7.23v-60.804h7.23zm40.135-6.643h7.189v43.768h-7.189zm0-17.04h7.189v9.106h-7.189zm49.98 18.72v6.722q-3.047-1.68-6.137-2.502-3.044-.859-6.17-.859-6.997 0-10.867 4.454-3.869 4.42-3.869 12.425 0 8.014 3.87 12.467 3.869 4.42 10.861 4.42 3.127 0 6.175-.822 3.086-.859 6.138-2.54v6.643q-3.01 1.409-6.255 2.114-3.202.7-6.838.7-9.886 0-15.71-6.212-5.825-6.213-5.825-16.766 0-10.707 5.862-16.845 5.904-6.133 16.144-6.133 3.32 0 6.484.7 3.169.667 6.138 2.035z" aria-label="Arabic" font-weight="400" font-size="110.52" letter-spacing="-5.13" word-spacing="0" font-family="sans-serif"/>
    <g style="line-height:1.25;-inkscape-font-specification:Arial">
        <path style="-inkscape-font-specification:Arial" d="M455.985 316.708v6.934h-38.814q-.08-2.606.842-5.007 1.48-3.966 4.724-7.81 3.286-3.844 9.453-8.893 9.573-7.848 12.938-12.413 3.364-4.608 3.364-8.694 0-4.286-3.085-7.209-3.044-2.96-7.968-2.96-5.212 0-8.33 3.119-3.128 3.127-3.17 8.651l-7.405-.758q.76-8.294 5.725-12.617 4.97-4.366 13.343-4.366 8.447 0 13.371 4.687 4.929 4.686 4.929 11.616 0 3.523-1.443 6.926-1.443 3.406-4.807 7.171-3.324 3.765-11.091 10.332-6.488 5.446-8.331 7.41-1.843 1.922-3.044 3.885zm30.875 6.934v-14.064h-25.475v-6.608l26.797-38.047h5.888v38.047H502v6.608h-7.93v14.06zm0-20.668v-26.477l-18.383 26.477z" aria-label="24" font-weight="400" font-size="113.263" letter-spacing="0" word-spacing="0" font-family="Arial"/>
    </g>
</svg>
