<svg xmlns="http://www.w3.org/2000/svg" height="512" width="512"><path d="M324.358 10.027c-1.39.029-2.795.224-4.193.602-9.832 2.655-15.752 10.429-15.333 20.136l.23 5.374-19.207 19.207-19.21 19.21H245.36L226.354 55.55 207.35 36.544v-5.372c0-8.92-3.36-14.997-10.238-18.51-5.27-2.694-10.824-3.237-15.508-1.52-5.777 2.119-8.869 4.728-11.484 9.69-7.451 14.144 4.592 31.356 20.303 29.016l4.257-.634 12.62 12.62c8.311 8.311 12.117 12.776 11.149 13.076-.807.25-7.956.729-15.862 1.06-46.12 1.936-93.2 9.934-111.6 18.96-9.63 4.723-20.176 13.985-26.202 23.008-7.39 11.069-14.793 35.071-18.508 60.007-9 60.411-8.99 135.34.029 195.628 3.32 22.198 9.867 45.216 15.856 55.75 9.883 17.385 25.986 28.902 46.968 33.593 5.677 1.269 10.463 2.854 10.744 3.556.28.699-.744 4.815-2.28 9.173-1.609 4.562-2.83 10.2-2.888 13.33-.093 4.966.213 5.712 3.648 8.858 4.73 4.332 9.63 5.264 14.698 2.797 2.948-1.435 5.708-4.611 11.758-13.531a4833.17 4833.17 0 009.123-13.48c1.155-1.734 2.027-1.75 17.434-.31 52.1 4.87 117.175 4.87 169.275 0 15.407-1.44 16.279-1.424 17.434.31.666.999 4.792 7.094 9.123 13.48 6.05 8.92 8.81 12.096 11.758 13.531 5.068 2.467 9.966 1.535 14.697-2.797 3.435-3.146 3.741-3.892 3.65-8.859-.06-3.128-1.282-8.767-2.89-13.329-1.537-4.358-2.56-8.474-2.28-9.173.276-.69 5.068-2.297 10.541-3.532 9.528-2.15 20.49-6.679 27.064-11.18 5.911-4.047 15.037-13.924 18.86-20.41 7.106-12.063 13.498-33.653 17.106-57.777 9.016-60.287 9.026-135.217.025-195.628-3.715-24.936-11.117-48.938-18.508-60.007-6.025-9.023-16.571-18.285-26.2-23.009-18.402-9.025-65.48-17.023-111.6-18.959-7.906-.331-15.056-.81-15.863-1.06-.968-.3 2.838-4.765 11.15-13.077l12.62-12.619 4.257.631c12.412 1.843 23.425-8.74 22.39-21.512-.857-10.554-9.882-18.506-19.616-18.306zm-60.854 99.903l58.333.305 58.335.303 5.575 3.152c9.919 5.607 14.207 16.208 11.153 27.56-1.265 4.702-72.378 168.262-78.18 179.817-4.022 8.008-7.86 12.065-14.67 15.505-19.575 9.884-41.357-2.125-41.357-22.802 0-3.75.808-8.97 1.876-12.113 1.031-3.041 14.541-34.16 30.053-69.23 15.513-35.072 28.453-64.573 28.788-65.633.587-1.857-.508-1.938-30.612-2.23l-31.22-.303-5.17-2.726c-19.77-10.427-19.36-38.352.71-48.406zm-67.916.263c2.22.012 4.324.463 7.302 1.354 5.676 1.7 8.673 4.409 10.994 9.938 1.388 3.309 1.575 15.51 1.575 103.593 0 108.154.213 103.765-5.359 109.774-4.954 5.343-9.542 6.792-21.503 6.792-10.643 0-11.403-.143-16.724-3.142-4.258-2.4-6.174-4.304-8.109-8.058l-2.534-4.916-.305-73.792c-.167-40.545-.577-73.791-.911-73.791-.335 0-5.069 2.048-10.543 4.564-12.264 5.635-18.434 6.124-24.833 1.969-7.634-4.957-12.873-15.454-12.873-25.793 0-12.055 3.852-15.366 34.26-29.452 30.916-14.322 35.412-16.245 41.558-17.772 3.447-.855 5.785-1.28 8.005-1.268zm-85.04 255.47c2.864.083 5.727.522 7.906 1.298 8.008 2.85 10.342 8.519 5.17 12.56-2.635 2.06-2.635 2.06-7.602.073-6.285-2.514-8.214-2.52-10.472-.04-2.656 2.917-.779 5.269 8.445 10.583 10.542 6.073 12.77 9.199 12.77 17.9 0 7.298-1.498 10.155-7.499 14.286-7.298 5.025-25.15 3.35-29.127-2.732-1.98-3.028-1.08-6.962 2.062-9.017 2.168-1.418 2.738-1.339 8.11 1.122 6.69 3.065 10.674 2.433 12.2-1.936 1.216-3.476.065-4.717-9.564-10.298-8.92-5.17-12.205-9.02-12.917-15.144-.89-7.664 4.605-15.427 12.612-17.814 2.18-.65 5.043-.923 7.907-.84zm83.815.165c5.08.07 12.01 1.017 14.912 2.229 12.569 5.245 15.174 20.557 5.069 29.806l-3.144 2.876 6.792 8.97c3.76 4.966 7.027 9.558 7.319 10.287.947 2.37-2.86 5.272-6.914 5.272-5.079 0-8.251-2.838-14.619-13.076-4.288-6.892-5.462-8.116-7.832-8.16l-2.787-.05v8.412c0 10.137-1.423 12.874-6.69 12.874-2.13 0-4.222-.775-5.474-2.027-1.92-1.92-2.027-3.346-2.027-26.862 0-29.395-.44-28.199 11.15-30.306 1.064-.193 2.552-.268 4.245-.245zm-45.442.116c5.226.011 10.636.824 14.335 2.435 5.88 2.56 10.4 8.112 11.245 13.81 1.847 12.468-6.379 21.421-20.874 22.722l-6.588.59-.507 8.922c-.363 6.385-.939 9.193-2.027 9.884-2.23 1.416-7.502 1.161-9.732-.47-1.79-1.31-1.947-3.029-2.24-24.619-.355-26.05-.034-29.183 3.154-30.9 2.964-1.596 8.007-2.386 13.234-2.374zm92.219.499c1.79 0 3.86.035 6.248.035 11.049 0 13.88.302 15.18 1.622 1.897 1.926 2.04 7.864.226 9.356-.717.59-5.22 1.223-9.883 1.388l-8.564.304-.304 4.308-.305 4.309h6.386c8.414 0 11.202 1.784 10.77 6.892-.397 4.684-3.27 6.284-11.277 6.284h-5.879l.305 5.829.304 5.828 9.579.304c5.27.167 10.17.782 10.895 1.368.719.58 1.319 2.585 1.319 4.41 0 5.7-2.434 6.588-18.044 6.588-12.974 0-13.574-.093-15.964-2.483l-2.483-2.484v-24.833c0-27.317-1.045-29.025 11.491-29.025zm42.312 0c1.75 0 3.77.035 6.103.035 11.048 0 13.698.287 15.204 1.652 2.129 1.926 2.508 7.754.607 9.323-.717.592-5.22 1.226-9.882 1.39l-8.565.305-.304 4.308-.304 4.309H293c7.298 0 10.643 2.005 10.643 6.384 0 4.73-2.23 6.2-10.036 6.613l-7.197.382v11.96h9.934c11.048 0 12.367.617 12.367 5.779 0 5.774-2.636 6.626-19.26 6.226-12.873-.31-14.542-.556-15.811-2.324-1.133-1.578-1.42-7.046-1.42-27.115 0-27.495-1.014-29.224 11.231-29.227zm67.122.035c11.454 0 20.897.434 21.996 1.013 1.318.693 2.118.693 2.534 0 .332-.552 2.888-1.013 5.625-1.013 4.561 0 5.198.295 6.995 3.243 1.088 1.786 4.617 10.441 7.854 19.26 3.238 8.818 6.108 16.015 6.386 16.015.28 0 3.403-7.958 6.943-17.689 3.541-9.73 7.235-18.393 8.211-19.258 1.069-.945 3.65-1.57 6.487-1.57 3.954 0 4.893.383 5.828 2.381.961 2.054-.371 5.879-9.68 27.773-5.946 13.988-11.636 26.142-12.669 27.064-1.309 1.167-3.194 1.583-6.235 1.376-5.83-.396-6.532-1.528-17.024-27.375-8.312-20.475-8.569-20.948-10.596-19.513-1.314.93-4.612 1.47-8.971 1.47h-6.892v21.235c0 17.941-.251 21.484-1.622 22.833-2.252 2.219-8.11 1.95-10.542-.482-1.898-1.899-2.027-3.345-2.027-22.807v-20.78h-6.791c-7.906 0-10.441-1.622-10.441-6.688 0-6.007 1.825-6.488 24.631-6.488zM196.57 376.49c-1.147-.062-2.12.152-2.7.732-.392.392-.71 3.6-.71 7.147v6.436h3.65c6.487 0 10.155-3.598 8.887-8.717-.678-2.737-5.685-5.411-9.127-5.598zm-46.967.299c-1.335.018-2.333.35-2.595 1.042-.316.831-.438 4.46-.272 8.008l.304 6.487 3.649.32c5.27.464 9.021-2.873 9.021-8.025 0-3.04-.56-4.318-2.432-5.537-2.28-1.485-5.449-2.325-7.675-2.295z"/></svg>
