<svg xmlns="http://www.w3.org/2000/svg" width="512" height="512">
 <path d="m93.707 167.06c-49.401 0-89.448 40.05-89.448 89.455s40.047 89.455 89.448 89.455c49.402 5.6e-4 89.45-40.05 89.449-89.456-5.6e-4 -49.404-40.048-89.455-89.449-89.454zm18.496 47.644c23.023 0 41.685 18.748 41.685 41.875 0 23.127-18.663 41.875-41.685 41.875-15.691-0.0189-30.041-8.8867-37.134-22.946v21.069h-25.857v-41.569c-7.9627 3.1047-14.873 3.3333-15.674 3.2608v-26.211s14.08 0 15.674-15.674h25.857v21.17c7.1187-14.023 21.464-22.85 37.134-22.851zm0 26.028c-8.7119-5.6e-4 -15.774 7.0939-15.775 15.846 0 8.7524 7.0631 15.848 15.775 15.847 8.7119 0 15.774-7.0949 15.774-15.847-5.6e-4 -8.7516-7.0628-15.846-15.774-15.846z" fill="none" stroke="#000" stroke-width="3"/>
 <path d="m212.96 279.39c2.2534-3.9949 5.3315-7.1172 9.227-9.3743 3.8955-2.2534 8.2218-3.3837 12.975-3.3837 5.5892 0 10.464 1.3476 14.632 4.0428 4.1644 2.6952 7.2056 6.5172 9.1166 11.47h-8.0157c-1.4213-3.0892-3.4684-5.4641-6.1379-7.1321-2.6732-1.6643-5.8691-2.5001-9.5953-2.5001s-6.7896 0.83581-9.6321 2.5001c-2.8425 1.668-5.0738 4.0318-6.6901 7.0952-1.6164 3.0634-2.4265 6.6534-2.4265 10.769 0 4.116 0.80635 7.6364 2.4265 10.696 1.6164 3.0634 3.8477 5.4272 6.6901 7.0952 2.8425 1.668 6.0532 2.5001 9.6321 2.5001 3.5789 0 6.9221-0.82108 9.5953-2.4632 2.6695-1.6422 4.7166-4.0061 6.1379-7.0952h8.0157c-1.911 4.9007-4.9523 8.6895-9.1166 11.359-4.168 2.6732-9.0429 4.0061-14.632 4.0061-4.7534 0-9.0798-1.1119-12.975-3.3433-3.8955-2.2276-6.9737-5.3278-9.227-9.3007-2.2534-3.9692-3.3837-8.4538-3.3837-13.454 0-5.0001 1.1267-9.4959 3.3837-13.491zm59.185 37.24c-3.0634-1.7158-5.4641-4.1533-7.2056-7.3161-1.7416-3.1592-2.6105-6.8227-2.6105-10.991 0-4.168 0.89472-7.758 2.6842-10.917 1.7894-3.1592 4.2269-5.5855 7.3161-7.2793 3.0892-1.69 6.5429-2.5369 10.365-2.5369 3.8219 0 7.2793 0.84318 10.368 2.5369 3.0892 1.69 5.5266 4.1055 7.3161 7.2425 1.7894 3.137 2.6842 6.7896 2.6842 10.954 0 4.1645-0.92049 7.8316-2.7578 10.991-1.841 3.1628-4.3263 5.6003-7.4634 7.3161q-4.7056 2.5738-10.439 2.5738c-5.7329 0-7.1946-0.8579-10.258-2.5738m17.018-5.0001c2.1061-1.1267 3.8108-2.8168 5.1106-5.0738 1.2997-2.2534 1.9478-5.0001 1.9478-8.233 0-3.2328-0.63699-5.9796-1.911-8.233-1.2777-2.2534-2.9419-3.9324-5.0001-5.037-2.0582-1.1046-4.2895-1.6568-6.6901-1.6568-2.4006 0-4.6946 0.55229-6.727 1.6568-2.0361 1.1009-3.6635 2.7799-4.8897 5.037-1.2262 2.2534-1.8373 5.0001-1.8373 8.233 0 3.2328 0.60017 6.0532 1.8006 8.3102q1.8005 3.38 4.816 5.037c2.0104 1.1009 4.2159 1.6532 6.6166 1.6532 2.4007 0 4.654-0.56334 6.7638-1.69zm74.479-32.166c2.4485 1.2997 4.3852 3.2476 5.8065 5.8433 1.4213 2.5995 2.1318 5.7623 2.1318 9.4848v23.748h-6.6166v-22.792c0-4.0171-0.99414-7.0952-2.9787-9.227-1.9846-2.1318-4.6687-3.1997-8.0489-3.1997-3.38 0-6.2483 1.1156-8.3102 3.347-2.0582 2.2312-3.0855 5.4531-3.0855 9.669v22.202h-6.6166v-22.792c0-4.0171-0.99046-7.0952-2.9787-9.227-1.9846-2.1318-4.6687-3.1997-8.0489-3.1997-3.38 0-6.2483 1.1156-8.3102 3.347-2.0582 2.2312-3.0855 5.4531-3.0855 9.669v22.202h-6.6901v-40.288h6.6901v5.8065c1.3219-2.1061 3.1003-3.7225 5.3278-4.8528q3.347-1.69 7.3898-1.69c3.3837 0 6.3735 0.75849 8.9693 2.2792 2.5958 1.5207 4.5325 3.7483 5.8102 6.6901 1.1267-2.8425 2.9898-5.048 5.5855-6.6166 2.5958-1.5686 5.4898-2.3528 8.6748-2.3528 3.185 0 5.9317 0.65172 8.3839 1.9478m50.358 21.433h-32.203c0.24669 3.9692 1.6053 7.0731 4.0796 9.3007 2.4743 2.2313 5.4788 3.3433 9.0062 3.3433 2.8903 0 5.3058-0.6738 7.2425-2.0214 1.9367-1.3476 3.2954-3.1518 4.0796-5.4052h7.2056c-1.0788 3.8735-3.2364 7.0215-6.4693 9.448-3.2364 2.4264-7.2535 3.6415-12.058 3.6415-3.8219 0-7.2425-0.85791-10.254-2.5738-3.0156-1.7158-5.3794-4.1533-7.0952-7.3161q-2.5738-4.7388-2.5738-10.991c0-6.252 0.83214-7.8169 2.5001-10.954 1.6643-3.137 4.006-5.5525 7.0215-7.2425s6.4803-2.5369 10.402-2.5369c3.9217 0 7.2056 0.83582 10.148 2.5001 2.9419 1.6643 5.2063 3.9581 6.8007 6.8742 1.5906 2.9162 2.3896 6.2116 2.3896 9.8898q0 1.911-0.22092 4.0428m-8.3802-12.022c-1.1268-1.8373-2.6584-3.2364-4.5952-4.1901-1.9367-0.95731-4.0796-1.4323-6.4324-1.4323q-5.0756 0-8.638 3.2364c-2.3786 2.1576-3.7372 5.1474-4.0796 8.9693h25.438c0-2.5479-0.56335-4.7424-1.69-6.5797zm95.319-10.622-24.265 59.258h-6.9111l7.9421-19.408-16.249-39.85h7.4266l12.647 32.641 12.496-32.641zm-49.184-11.616v18.822q-2.1318-3.5292-6.1747-5.6997c-2.6952-1.447-5.6114-2.1687-8.7484-2.1687-3.6268 0-6.9001 0.8579-9.8125 2.5737-2.9162 1.7158-5.2101 4.1312-6.8742 7.2425-1.6643 3.115-2.5001 6.727-2.5001 10.844 0 4.1169 0.83212 7.6953 2.5001 10.881 1.6643 3.1886 3.9581 5.6629 6.8742 7.4266s6.1636 2.6473 9.7426 2.6473c3.5789 0 6.5171-0.77322 9.1166-2.3159 2.5958-1.5427 4.5583-3.5163 5.8839-5.9206v7.5739h6.7638v-51.905h-6.7638zm-1.841 39.666c-1.2262 2.2792-2.8793 4.0171-4.9633 5.2211-2.084 1.2003-4.3742 1.8005-6.8742 1.8005s-4.7793-0.60016-6.8374-1.8005-3.7004-2.9419-4.9265-5.2211c-1.2262-2.2792-1.8373-4.9634-1.8373-8.0525 0-3.0892 0.61122-5.6849 1.8373-7.9421q1.8391-3.38 4.9265-5.1474c2.0582-1.1745 4.3374-1.7637 6.8374-1.7637s4.7903 0.60017 6.8742 1.8006c2.0803 1.2003 3.7372 2.9308 4.9633 5.1842 1.2225 2.257 1.8373 4.9007 1.8373 7.9421 0 3.0413-0.61489 5.6998-1.8373 7.9788m-185.71-89.844c0 6.9443-2.7726 12.305-8.244 15.936-4.098 2.721-9.4848 4.6467-23.97 4.6467v21.16h5.4973v2.5184h-27.98v-2.5184h5.4973v-61.173h-5.4973v-2.5184h22.475c15.91 0 22.236 2.6437 26.377 6.5245 3.8772 3.6305 5.8434 8.8221 5.8434 15.424m137.56 35.263c-1.1009 1.6458-2.8168 3.0855-5.0958 4.2785-2.2792 1.193-4.5583 1.7969-6.7675 1.7969-9.5621 0-14.411-6.959-14.411-20.686 0-13.726 2.9493-21.187 8.7557-22.106 2.3454-0.25774 3.8403 0.14728 4.4516 1.2003 0.30928 0.50443 0.49706 1.2187 0.56334 2.1171 0.0662 0.92786-0.0184 2.4302-0.24669 4.4662-0.23197 2.0509-0.34979 3.612-0.34979 4.6393 0 4.0318 2.176 6.5982 6.4693 7.6401 2.0472 0.48602 3.9692 0.22092 5.7108-0.78795 1.7452-1.0089 2.9088-2.6105 3.4537-4.7645 1.0162-3.9214-0.24669-7.769-3.7482-11.433-3.4906-3.6488-8.8663-5.4973-15.98-5.4973-7.1136 0-13.049 2.1024-17.662 6.2446-4.6209 4.1533-6.9626 10.317-6.9626 18.325 0 16.238 8.8368 24.471 26.267 24.471 3.8071 0 7.3014-0.79531 10.38-2.3565 3.0855-1.5686 5.4346-3.6784 6.9773-6.2778l0.11415-0.19514-1.7821-1.2961-0.13993 0.20986zm-40.774 5.4788v1.4323s-4.5104 3.0008-10.516 3.0008c-5.0296 0-8.7962-1.4323-10.622-5.3389-1.2187 1.1414-2.651 2.143-4.3043 2.9824-2.0214 1.0272-4.2269 1.7158-6.576 2.0729-1.1046 0.18411-2.1466 0.28351-3.8035 0.28351-3.9434 0-7.0363-0.92048-9.3854-2.6437-2.4154-1.7747-3.6415-4.4331-3.6415-7.9016 0-4.6172 1.7048-8.3471 5.2873-10.759 6.9074-4.6504 22.033-5.6849 22.033-5.6849v-4.875c0-5.8507-0.43079-9.8346-1.2777-11.834-0.82845-1.9588-2.4375-2.9088-4.9117-2.9088s-4.087 0.33874-4.7645 1.0015c-0.6738 0.6554-0.90945 1.3808-0.72903 2.2165 0.19882 0.91682 0.53389 2.1282 0.99045 3.5973 0.4713 1.517 0.71063 2.7431 0.71063 3.6452 0 2.165-0.74376 4.0244-2.2129 5.5303-1.4692 1.5059-3.2733 2.2681-5.3573 2.2681-2.0841 0-3.9066-0.76217-5.4089-2.2644-1.5022-1.5022-2.2644-3.3617-2.2644-5.5303 0-3.5348 1.7968-6.6055 5.3389-9.1276 3.5163-2.5001 8.8294-3.7666 15.796-3.7666 6.9664 0 12.033 1.4286 15.022 4.2491 2.9971 2.8241 4.5141 7.8611 4.5141 14.971v18.359c0 3.5237 0.41238 5.7476 1.2298 6.6129 1.8263 1.8336 4.8528 0.41975 4.8528 0.41975zm-21.529-20.037s-7.3456 0.31665-10.597 3.7409c-1.771 1.8668-2.6326 4.3632-2.3749 7.6144 0.32034 2.3601 1.4617 7.8132 7.272 7.8132 1.9146 0 3.9471-1.5022 5.6997-3.0708zm-92.344-20.984v-0.34611c-0.0368-6.6681-1.1267-11.513-3.2476-14.408-2.1098-2.8793-6.1047-4.3595-11.871-4.4v37.615c5.7733-0.0369 9.7684-1.4028 11.878-4.0576 2.154-2.7062 3.2439-7.5517 3.2439-14.401v-7e-3zm32.766 23.502c0.75112 11.513 5.0995 18.116 14.445 18.116 2.2092 0 4.4847-0.60385 6.7675-1.7969 2.2792-1.1893 3.9913-2.629 5.0959-4.2785l0.13991-0.20987 1.7821 1.2961-0.11413 0.19514c-1.5464 2.5958-3.8955 4.7093-6.9774 6.2778-3.0781 1.5649-7.1578 2.3565-10.965 2.3565-17.431 0-25.682-8.1446-25.682-24.471 0-7.2867 2.5001-14.12 6.1968-17.994 4.168-4.3668 9.5511-6.5797 16.091-6.5797 6.5392 0 11.609 2.0619 16.091 6.5613 6.7638 6.7896 6.3147 20.53 6.3147 20.53h-29.18zm1.6753-17.802c-1.0531 4.3779-1.6091 9.5179-1.668 15.283h13.645c-0.0589-5.766-0.61489-10.906-1.668-15.283-1.0826-4.5068-2.8168-6.8007-5.1548-6.8301-2.3381 0.0295-4.0723 2.3233-5.1548 6.8301m176.94 36.323v-25.804c0-13.144-6.0532-19.809-17.994-19.809-3.2107 0-6.1968 0.62225-8.8736 1.8446-2.397 1.0972-4.2527 2.4559-5.5378 4.0465v-23.977h-20.431v2.5184h4.9854v61.173h-4.9854v2.5184h25.417v-2.5184h-4.9854v-35.167c2.1982-3.914 5.1695-5.8986 8.8294-5.8986 2.6952 0 4.7388 0.98677 6.079 2.9345 1.3586 1.9772 2.0509 5.372 2.0509 10.096v28.035h-4.9854v2.5184h25.417v-2.5184h-4.9854z" fill="none" stroke="#000" stroke-width="3"/>
</svg>
