<svg xmlns="http://www.w3.org/2000/svg" width="512" height="512">
 <g transform="matrix(.56892 0 0 .56892 -107.61 63.418)" fill="none" stroke="#000">
  <path d="m904.4 227.75-33.99 6e-3v124.63h33.99v-47.77h46.551v47.77h59.187c44.532-6.2554 59.584-33.698 60.857-62.48-0.6064-33.59-22.691-58.235-60.857-62.152h-59.187v47.217h-46.551zm130.57 62.395c-0.6869 32.69-28.07 30.746-28.07 30.746h-20.834v-60.1l18.321-0.58984c3.4994 0.32035 31.232-0.90761 30.583 29.943z" stroke-width="3"/>
  <path d="m855.21 212.04-1.2273 2.5204c-1.2642 2.5993-3.1538 6.6072-4.941 10.443a3031.5 3031.5 0 0 1-5.2406 11.197c-0.67543 1.4573-1.7766 3.7833-2.4573 5.2288a718.61 718.61 0 0 0-2.4731 5.3076l-2.6045 5.5559a1336 1336 0 0 0-4.8201 10.276c-0.51118 1.1117-1.6492 3.5388-2.5178 5.3851a9747.2 9747.2 0 0 0-10.033 21.396 613.25 613.25 0 0 0-2.7635 5.8976 683.28 683.28 0 0 1-2.5283 5.3851 792.25 792.25 0 0 0-2.5283 5.397 575.29 575.29 0 0 1-2.7333 5.824 1107.1 1107.1 0 0 0-4.912 10.513c-0.56638 1.2195-1.5112 3.2326-2.1328 4.5454-3.9515 8.3195-5.5494 11.728-5.5494 11.816 0 0.0435-0.91198 2-2.0237 4.3234-1.1038 2.3259-2.0211 4.3982-2.0211 4.5796 0 0.60448-0.56769 0.33903-0.92381-0.44153a85.221 85.221 0 0 1-1.2865-3.1302c-1.4126-3.5835-4.891-10.206-7.28-13.845-3.6006-5.4955-6.5901-9.1395-11.53-14.079-9.7544-9.761-19.607-15.872-33.556-20.823-9.1434-3.2432-22.97-4.87-33.852-3.9633-6.3142 0.52168-10.003 1.1958-17.35 3.1617-5.326 1.4244-14.475 5.4075-19.706 8.5731a82.709 82.709 0 0 0-16.542 13.036c-5.7426 5.7255-9.6033 10.661-13.443 17.196-0.86993 1.4836-1.7582 2.8056-1.9672 2.9435-0.21946 0.14323-13.448 0.25361-29.379 0.25361h-28.989l-0.96323 2.1104c-0.52827 1.1538-1.7569 3.7912-2.7464 5.8411a878.78 878.78 0 0 0-5.1118 10.916 507.26 507.26 0 0 1-2.5165 5.3891 2075.5 2075.5 0 0 0-4.7373 10.113c-3.573 7.6112-4.6177 9.8635-4.6177 9.9686 0 0.0709 10.635 0.13141 23.605 0.13141 20.383 0 23.625 0.0709 23.794 0.50462 0.24837 0.66491-2.5046 6.0303-5.1092 9.9371-10.036 15.086-26.923 24.949-44.337 25.901-13.377 0.73065-23.897-1.7412-34.667-8.1552a64.666 64.666 0 0 1-4.8884-3.2366c-2.3233-1.7582-9.6717-8.9699-11.249-11.036-4.121-5.414-7.694-12.162-9.5731-18.125-1.5007-4.7478-1.845-6.259-2.4376-10.749-2.0066-15.19 2.4942-31.439 11.991-43.287 12.832-15.998 30.742-23.966 50.757-22.576 6.2971 0.4402 12.309 1.8292 18.492 4.2918 1.3469 0.53878 1.8252 0.60448 2.0552 0.29699 0.16559-0.21946 1.0066-1.9225 1.8686-3.7754 1.7477-3.7688 4.4061-9.4312 6.3194-13.476a737.7 737.7 0 0 0 2.4508-5.2209c1.3575-2.9173 3.2064-6.8372 6.0133-12.766 1.0881-2.2918 1.979-4.3614 1.979-4.5809 0-0.45597-0.47305-0.70564-4.8871-2.5362-7.7321-3.2142-16.266-5.4061-26.443-6.7964-1.9672-0.27463-6.7045-0.43889-12.293-0.43889-9.7058 0-13.266 0.33903-21.564 2.0539-14.723 3.0382-29.37 9.8084-41.775 19.305-3.3352 2.5559-10.588 9.3655-14.028 13.174-12.184 13.476-20.797 30.754-24.351 48.845-1.5007 7.6388-1.6768 9.7374-1.6768 20.212 0 10.48 0.17608 12.576 1.6768 20.215 2.0658 10.552 6.5087 22.513 11.454 30.894 0.81998 1.3798 1.4941 2.5848 1.4941 2.661 0 0.0775 1.1432 1.8187 2.5559 3.9068 17.158 25.301 42.283 40.914 72.904 45.31 5.9357 0.85285 20.953 0.84629 26.949 0 4.2471-0.60448 4.7806-0.70829 10.276-1.9554 23.686-5.3851 45.808-20.091 60.146-39.985 0.82396-1.1432 1.5822-2.0894 1.6702-2.0894 0.0986 0 1.1643 1.6479 2.3522 3.6374 7.4009 12.343 18.502 23.137 31.17 30.303 2.2918 1.2983 8.8136 4.4639 9.1986 4.4639 0.12615 0 0.63865 0.20763 1.1117 0.45468 1.0644 0.54928 6.33 2.3864 8.2196 2.8594 8.5192 2.159 11.981 2.7202 18.526 3.0224 10.04 0.45599 18.761-0.3456 27.016-2.4889 3.4074-0.88044 7.5731-2.2274 9.3694-3.0237a158.12 158.12 0 0 1 3.1985-1.3535c14.59-6.0001 29.286-18.628 38.266-32.89 5.7636-9.1552 9.1828-17.822 11.772-29.846l0.16426-0.74247h30.16c23.818 0 30.204-0.088 30.32-0.42312 0.088-0.23128 0.11564-40.743 0.0709-90.028zm-617.85 41.236a30.089 30.089 0 0 0-30.116 30.127 30.093 30.093 0 0 0 30.116 30.106 30.154 30.154 0 0 0 30.121-30.106 30.154 30.154 0 0 0-30.121-30.125zm78.147 0a30.116 30.116 0 1 0 0 60.232 30.099 30.099 0 0 0 30.106-30.106 30.099 30.099 0 0 0-30.1-30.125zm78.191 0a30.099 30.099 0 0 0-30.103 30.127 30.106 30.106 0 0 0 30.103 30.106 30.11 30.11 0 0 0 30.127-30.106 30.106 30.106 0 0 0-30.127-30.125zm-156.34 75.523a30.066 30.066 0 0 0-30.116 30.083 30.11 30.11 0 0 0 30.116 30.146 30.171 30.171 0 0 0 30.121-30.146c0-16.64-13.552-30.083-30.121-30.083zm78.147 0a30.089 30.089 0 0 0-30.127 30.083 30.116 30.116 0 1 0 60.232 0 30.072 30.072 0 0 0-30.1-30.083zm78.185 0a30.077 30.077 0 0 0-30.098 30.083 30.116 30.116 0 1 0 60.23 0 30.082 30.082 0 0 0-30.132-30.083zm313.92 6.8254c4.0001-0.0722 9.4903 0.26547 11.668 0.81868 8.5889 2.1814 13.915 5.1867 20.075 11.341 5.2156 5.1998 8.0724 9.7847 10.195 16.358 6.2484 19.338-2.2327 39.858-20.5 49.601-2.6597 1.4179-7.3458 3.0552-10.952 3.824-3.7754 0.80816-12.184 0.80816-15.828 0-8.7321-1.9291-15.3-5.4732-21.241-11.452-12.849-12.936-15.92-31.902-7.7478-47.867 2.1314-4.1762 3.7636-6.4548 7.0882-9.9069 6.6335-6.8687 14.849-11.171 23.918-12.501 0.82526-0.1222 1.9908-0.19184 3.3246-0.2155zm-470.25 69.11a30.132 30.132 0 0 0-30.116 30.142 30.077 30.077 0 0 0 30.116 30.087c16.569 0 30.121-13.452 30.121-30.087 0-16.619-13.552-30.142-30.121-30.142zm78.147 0a30.154 30.154 0 0 0-30.127 30.142 30.093 30.093 0 0 0 30.132 30.087 30.082 30.082 0 0 0 30.1-30.087 30.137 30.137 0 0 0-30.1-30.142zm78.185 0a30.142 30.142 0 0 0-30.098 30.142 30.082 30.082 0 0 0 30.098 30.087 30.089 30.089 0 0 0 30.132-30.087 30.149 30.149 0 0 0-30.132-30.142zm432.13 0.52172a27.918 27.918 0 0 0-27.94 27.955 27.923 27.923 0 0 0 27.94 27.935 27.977 27.977 0 0 0 27.951-27.935 27.973 27.973 0 0 0-27.951-27.955z" stroke-width="3"/>
 </g>
</svg>
