<svg version="1.1" viewBox="0 0 512 512" xmlns="http://www.w3.org/2000/svg">
 <path d="m269.18 50.426c-2.964-0.02193-8.3433 0.29888-8.4061 0.3042-0.69966 0.0507-1.4297 0.11154-1.6224 0.14196s-1.2067 0.09126-2.2511 0.1521-2.9202 0.23322-4.1573 0.4056c-1.2472 0.16224-2.8799 0.34476-3.6302 0.4056s-2.0787 0.23322-2.9406 0.36504c-0.8619 0.14196-2.3018 0.31434-3.1941 0.39546-0.90246 0.08112-2.1295 0.2535-2.7379 0.39546-0.61854 0.13182-1.5006 0.3042-1.9772 0.36504s-1.2474 0.2028-1.7239 0.3042-1.5717 0.3042-2.4336 0.44616-1.9874 0.37518-2.4944 0.507c-0.507 0.14196-1.3586 0.32448-1.8758 0.41574-0.52728 0.09126-1.2472 0.2535-1.6124 0.3549-0.36504 0.1014-1.0647 0.27378-1.5717 0.36504-0.49686 0.09126-1.2269 0.2535-1.6224 0.3549-0.38532 0.11154-1.0951 0.28392-1.5717 0.39546-0.47658 0.12168-1.3181 0.34476-1.8758 0.507-0.5577 0.16224-1.5109 0.43602-2.1294 0.61854-0.6084 0.17238-1.6225 0.44616-2.2411 0.59826-0.62868 0.16224-1.2371 0.34476-1.3689 0.4056-0.12168 0.07098-0.78065 0.29406-1.4499 0.507-0.67938 0.21294-1.592 0.52728-2.0381 0.7098s-1.3588 0.52728-2.028 0.78078-1.5617 0.57798-1.9774 0.73008-0.92274 0.3549-1.1154 0.44616-0.69966 0.3042-1.1154 0.48672c-0.41574 0.17238-1.1458 0.46644-1.6224 0.66924-0.47658 0.19266-1.0241 0.43602-1.2168 0.53742s-0.90246 0.44616-1.5717 0.7605c-0.66924 0.32448-1.4196 0.67938-1.6731 0.8112-0.2535 0.12168-0.95316 0.48672-1.5717 0.8112-0.6084 0.32448-1.2979 0.7098-1.521 0.85176-0.22308 0.1521-0.58812 0.3549-0.8112 0.4563-0.22308 0.09126-0.6591 0.33462-0.9633 0.53742-0.3042 0.19266-1.1255 0.71994-1.8251 1.1661-0.69966 0.4563-1.521 0.99372-1.8455 1.2067-0.31434 0.22308-0.59826 0.39546-0.62868 0.39546-0.0304 0-0.41574 0.23322-0.84162 0.52728-0.43602 0.29406-1.156 0.8112-1.6021 1.1458-0.44616 0.34476-0.90246 0.67938-1.0241 0.74022-0.12168 0.06084-0.39546 0.26364-0.62868 0.44616-0.22308 0.18252-0.68952 0.5577-1.0444 0.84162-0.34476 0.27378-1.0039 0.82134-1.45 1.2067-0.4563 0.38532-1.1255 0.92274-1.5007 1.1965-0.38532 0.27378-0.68939 0.5577-0.68939 0.62868s-0.22308 0.33462-0.49686 0.57798-0.80106 0.71994-1.1661 1.0444c-0.36504 0.33462-0.66924 0.6591-0.66924 0.73008 0 0.07098-0.0913 0.16224-0.2028 0.19266-0.11154 0.03042-0.2028 0.11154-0.2028 0.16224s-0.071 0.09126-0.16224 0.09126c-0.0913 0-0.12168 0.0507-0.0811 0.12168 0.0608 0.1014 0.0406 0.1014-0.071 0-0.071-0.06084-0.16224-0.12168-0.21294-0.12168-0.0406 0-0.0608 0.11154-0.0507 0.24336 0.0101 0.17238-0.16224 0.44616-0.57798 0.9126-0.32448 0.36504-0.6591 0.66924-0.73008 0.66924-0.0811 0-0.14196 0.09126-0.14196 0.2028 0 0.13182-0.071 0.2028-0.19266 0.2028-0.11154 0-0.23322 0.09126-0.26364 0.2028-0.0304 0.11154-0.11154 0.2028-0.16224 0.2028s-0.13182 0.08112-0.16224 0.17238c-0.0406 0.09126-0.14196 0.24336-0.22308 0.33462-0.0913 0.09126-0.36504 0.41574-0.61854 0.7098-0.2535 0.3042-0.67938 0.80106-0.95316 1.1053-0.26364 0.31434-0.56784 0.67938-0.6591 0.82134-0.0811 0.14196-0.31434 0.4563-0.49686 0.7098s-0.44616 0.58812-0.57798 0.7605c-0.13182 0.16224-0.6591 0.88218-1.1864 1.5818-0.51714 0.69966-1.1053 1.5514-1.2978 1.9063-0.19266 0.34476-0.63894 1.0647-0.99384 1.6021-0.34476 0.52728-0.78078 1.2472-0.9633 1.592-0.19266 0.33462-0.53742 0.93301-0.78078 1.3285-0.24336 0.38532-0.73008 1.2674-1.0748 1.9469-0.34476 0.67951-0.66924 1.3385-0.7098 1.4703-0.0406 0.12168-0.2028 0.39533-0.36504 0.59813s-0.33462 0.53742-0.39546 0.74022c-0.0608 0.21294-0.24336 0.61854-0.41574 0.90246-0.17238 0.29406-0.39546 0.77064-0.49686 1.0748-0.11154 0.3042-0.23322 0.59826-0.29406 0.66924-0.0608 0.071-0.22308 0.46644-0.36504 0.87204-0.14196 0.41574-0.32448 0.85176-0.39546 0.9633-0.0811 0.12168-0.3042 0.62868-0.507 1.1154-0.2028 0.49686-0.51714 1.3689-0.7098 1.9367s-0.41574 1.1358-0.49686 1.2675c-0.0811 0.13182-0.24336 0.5577-0.34476 0.95316-0.11154 0.39546-0.27378 0.8619-0.36504 1.0241-0.0811 0.17238-0.2535 0.66924-0.37518 1.1154-0.12168 0.43602-0.32448 1.0241-0.44616 1.3081s-0.3042 0.8112-0.39546 1.1661c-0.0913 0.3549-0.32436 1.1053-0.51702 1.663s-0.3549 1.1053-0.3549 1.2168-0.1521 0.75036-0.34476 1.4196-0.43614 1.6021-0.55782 2.0787c-0.11154 0.47658-0.31434 1.3183-0.4563 1.876s-0.45618 1.8758-0.69954 2.9405c-0.2535 1.0546-0.54756 2.3322-0.6591 2.8392-0.12168 0.49686-0.3042 1.5717-0.42588 2.3829-0.11154 0.8112-0.29418 1.8353-0.40572 2.2815s-0.31434 1.582-0.4563 2.5351c-0.13182 0.94302-0.29406 1.957-0.34476 2.2511-0.0608 0.29406-0.1521 0.9126-0.21294 1.3689-0.0608 0.46644-0.19266 1.5209-0.31434 2.3625-0.11154 0.83148-0.28392 2.1598-0.38532 2.9406s-0.21294 1.7339-0.2535 2.1294c-0.0304 0.38532-0.0811 1.0546-0.11154 1.4703-0.0304 0.41574-0.11154 1.2371-0.16224 1.8251-0.0608 0.58812-0.13182 1.085-0.14196 1.1154-0.0203 0.0304-0.071 0.7605-0.1014 1.6224-0.0406 0.8619-0.11154 1.9773-0.1521 2.4843-0.0406 0.49686-0.0913 1.6632-0.11154 2.586-0.0203 0.92274-0.0406 2.3119-0.0406 3.0927s0.0406 2.8595 0.071 4.6137c0.0406 1.7542 0.12168 3.6706 0.18252 4.2587 0.0608 0.58812 0.1521 1.3385 0.2028 1.6731s0.14208 1.1965 0.20292 1.9266c0.0608 0.71994 0.2028 1.8455 0.31434 2.4843 0.1014 0.63882 0.32448 1.9672 0.49686 2.9406s0.39546 2.0888 0.49686 2.4843c0.11154 0.38532 0.27378 1.0951 0.36504 1.5717 0.0913 0.47658 0.24324 1.0241 0.32436 1.2168 0.0811 0.19266 0.29406 0.90246 0.48672 1.5717 0.18252 0.66924 0.52728 1.7441 0.77064 2.3829 0.23322 0.63882 0.56784 1.6021 0.7605 2.1395 0.18252 0.53742 0.44616 1.2168 0.57798 1.521s0.27378 0.67938 0.31434 0.85176c0.0406 0.16224 0.26364 0.68952 0.48672 1.1661s0.66924 1.3892 0.99372 2.028 0.83148 1.6427 1.1357 2.2308 0.80106 1.4703 1.0951 1.9773c0.3042 0.49686 0.69966 1.1255 0.88218 1.379 0.18252 0.26364 0.33474 0.49686 0.33474 0.53742 0 0.0406 0.28392 0.47658 0.63882 0.98358 0.34476 0.507 0.9126 1.3385 1.2675 1.8455 0.3549 0.51714 0.82122 1.1458 1.0443 1.4095s0.56784 0.69966 0.77064 0.9633c0.2028 0.27378 0.62868 0.78078 0.93288 1.1357 0.31434 0.3549 0.87204 0.97344 1.2371 1.3689 0.37518 0.39546 0.83148 0.90246 1.014 1.1154 0.19266 0.22308 1.1255 1.1864 2.0888 2.1294 0.95316 0.95316 2.2815 2.2511 2.9406 2.8696 0.6591 0.62868 1.3993 1.2878 1.6427 1.4703s0.83148 0.61854 1.3182 0.9633c0.47658 0.34476 0.92274 0.66924 0.97344 0.7098 0.0608 0.0507 0.37518 0.29406 0.7098 0.54756s0.93288 0.66937 1.3182 0.93301c0.39546 0.26364 0.82134 0.54756 0.9633 0.64896 0.14196 0.0913 0.39546 0.29406 0.5577 0.43602 0.17238 0.1521 0.64896 0.47658 1.0647 0.71994 0.41574 0.2535 0.87204 0.52728 1.0039 0.6084 0.14196 0.071 0.33462 0.21281 0.44616 0.29393 0.11154 0.0811 0.34476 0.27378 0.52728 0.42588 0.17238 0.1521 0.6084 0.42601 0.97344 0.61867 0.3549 0.19266 0.97344 0.56784 1.3588 0.83148 0.39546 0.26364 0.94302 0.58812 1.2168 0.73008 0.28392 0.14196 0.57798 0.31434 0.6591 0.39546 0.0913 0.071 0.4563 0.29406 0.8112 0.49686 0.36504 0.2028 0.8619 0.44616 1.1053 0.5577s0.5577 0.29406 0.7098 0.39546c0.14196 0.1014 0.8619 0.49673 1.5818 0.87191 0.73008 0.38532 1.9773 1.0241 2.7885 1.4196 0.8112 0.4056 2.4539 1.2169 3.6504 1.8049 1.1965 0.58812 2.7072 1.2979 3.3461 1.5818 0.63882 0.29406 1.5311 0.69966 1.9773 0.9126s1.085 0.49686 1.4196 0.61854c0.33462 0.13182 0.6591 0.26364 0.7098 0.3042 0.0608 0.0406 0.37518 0.17238 0.7098 0.3042s0.71994 0.31434 0.85176 0.39546c0.13182 0.0913 0.47658 0.23322 0.7605 0.33462s0.56784 0.18252 0.63882 0.18252c0.071 0 0.4563 0.1521 0.8619 0.34476 0.4056 0.18252 0.85176 0.37518 0.99372 0.4056 0.14196 0.0406 0.43602 0.14196 0.6591 0.23322 0.22308 0.0913 0.59826 0.2535 0.83148 0.3549s0.47658 0.18252 0.54756 0.18252c0.0608 0 0.46644 0.1521 0.89232 0.34476s0.98358 0.39546 1.2371 0.4563c0.26364 0.0608 0.7605 0.24336 1.1154 0.4056s0.79092 0.33462 0.95316 0.36504c0.17238 0.0406 0.71994 0.24336 1.2168 0.4563 0.507 0.2028 1.1661 0.47658 1.4703 0.6084 0.3042 0.12168 0.8112 0.31434 1.1154 0.41574s0.83148 0.27378 1.1661 0.38532c0.33462 0.1014 0.99372 0.33462 1.4703 0.507s0.95316 0.36504 1.0647 0.41574 0.33462 0.14196 0.48672 0.2028c0.16224 0.0608 0.63882 0.17238 1.0546 0.26364 0.41574 0.0811 1.004 0.26364 1.298 0.39546 0.29406 0.12168 0.8619 0.3042 1.2574 0.39546 0.39546 0.0913 1.0546 0.29406 1.4602 0.4563 0.39546 0.16224 0.97344 0.34476 1.2776 0.4056 0.3042 0.0608 0.81132 0.24336 1.1155 0.4056 0.31434 0.1521 0.75036 0.34476 0.97344 0.4056 0.22308 0.071 0.67938 0.23322 1.014 0.36504s0.99372 0.31434 1.4703 0.4056c0.47658 0.0913 1.1661 0.27378 1.5413 0.4056s1.085 0.31434 1.5818 0.4056c0.48672 0.0811 1.1153 0.21294 1.3992 0.29406 0.27378 0.0811 0.84162 0.22308 1.2574 0.3042 0.41574 0.0811 1.4196 0.22308 2.2308 0.31434 0.8112 0.0913 1.7644 0.24336 2.1294 0.32448 0.51714 0.12168 1.5818 0.17238 5.1207 0.2028 3.0319 0.0304 4.7759 0.0101 5.4249-0.071 0.52728-0.0608 1.3283-0.1521 1.7745-0.2028s1.6325-0.16224 2.6364-0.2535c1.0039-0.0913 2.0787-0.22308 2.3829-0.3042 0.3042-0.0811 0.97344-0.21294 1.4804-0.29406 0.507-0.0913 1.2776-0.19266 1.7238-0.22308 0.43602-0.0304 1.0546-0.12168 1.3588-0.19266 0.3042-0.071 0.8112-0.2028 1.1154-0.28392 0.3042-0.0913 0.99372-0.23322 1.521-0.32448 0.52728-0.1014 1.3082-0.28392 1.7239-0.41574s1.2371-0.34476 1.8252-0.48672c0.588-0.14196 1.5717-0.39546 2.1902-0.5577s1.2979-0.37518 1.521-0.46644c0.21294-0.0913 0.7605-0.27378 1.2067-0.4056 0.44616-0.12168 1.5616-0.48672 2.4843-0.8112 0.92274-0.31434 1.9976-0.67938 2.3829-0.8112 0.39546-0.13182 1.3081-0.47658 2.028-0.77064 0.73008-0.28392 1.4095-0.58812 1.521-0.64896 0.11154-0.071 0.49686-0.23322 0.8619-0.3549 0.36504-0.13182 0.75036-0.29406 0.8619-0.36504 0.11154-0.071 0.56784-0.28392 1.014-0.47658s1.1053-0.48672 1.4703-0.6591c0.36504-0.16224 1.0444-0.46644 1.521-0.6591s1.6832-0.78078 2.6871-1.2878c1.0039-0.51714 1.9874-1.0444 2.1801-1.1661 0.19266-0.11154 0.71994-0.38532 1.1661-0.59826 0.44616-0.2028 1.0444-0.54756 1.3182-0.7605 0.28392-0.21294 0.71982-0.49686 0.96318-0.61854 0.2535-0.12168 0.56784-0.31434 0.7098-0.4056 0.14196-0.1014 0.507-0.32448 0.8112-0.49686s0.8112-0.4563 1.1154-0.61854 0.79092-0.44616 1.0647-0.64896c0.28392-0.19266 1.0546-0.68952 1.7238-1.1053s1.379-0.84162 1.5717-0.93288c0.19266-0.1014 0.95328-0.63882 1.6935-1.2067 0.73008-0.56784 2.2308-1.6832 3.3361-2.4944 1.0951-0.8112 2.2511-1.663 2.5756-1.8962 0.31434-0.24336 0.7098-0.55744 0.87204-0.71968s0.6387-0.58812 1.0646-0.94302c0.41574-0.3549 0.88218-0.75036 1.0241-0.87204 0.1521-0.12168 0.37518-0.28405 0.507-0.37531 0.13182-0.0811 0.57798-0.47658 0.99372-0.87204s0.98358-0.9126 1.2574-1.1458 0.9126-0.8112 1.4196-1.2878c0.507-0.46644 1.4703-1.4095 2.1395-2.0787 0.66924-0.67938 1.7644-1.8049 2.4336-2.5046s1.45-1.5413 1.7441-1.8658a69.966 69.966 0 0 1 0.94302-1.0546c0.23322-0.2535 0.62868-0.73008 0.89232-1.0647 0.2535-0.33462 0.88218-1.0951 1.3892-1.6832 0.49686-0.58812 1.1154-1.3588 1.3588-1.7035 0.2535-0.34476 0.6591-0.84162 0.90246-1.1053 0.2535-0.26364 0.74022-0.8619 1.0951-1.3385s0.89232-1.2574 1.2067-1.7542c0.3042-0.48672 0.83148-1.2574 1.1661-1.7238 0.33462-0.4563 0.69966-0.97344 0.8112-1.1357 0.11154-0.17238 0.4056-0.6084 0.63882-0.98358 0.23322-0.36504 0.54756-0.87204 0.7098-1.1154 0.1521-0.23322 0.51714-0.8112 0.8112-1.2675 0.28392-0.4563 0.67938-1.0951 0.87204-1.4196s0.52728-0.93288 0.75036-1.3486 0.69966-1.3588 1.0647-2.0787c0.3549-0.73008 0.73008-1.4297 0.83148-1.5717 0.0913-0.14196 0.36504-0.61854 0.58812-1.0647 0.23322-0.44616 0.67938-1.3588 0.98358-2.028s0.62868-1.3283 0.71994-1.4703c0.0811-0.14196 0.22308-0.41561 0.3042-0.60827 0.0811-0.19266 0.2028-0.46644 0.26364-0.6084 0.0507-0.14196 0.18252-0.43602 0.29406-0.6591 0.1014-0.22308 0.41574-0.95316 0.68952-1.6224s0.52728-1.3283 0.56784-1.4703c0.0406-0.14196 0.17238-0.48672 0.3042-0.7605 0.12168-0.28392 0.39546-0.9633 0.6084-1.521s0.46644-1.2878 0.57798-1.6224 0.33462-0.93288 0.49686-1.3182c0.16224-0.39546 0.4056-1.0951 0.54756-1.5717s0.37518-1.2776 0.51714-1.7745c0.14196-0.507 0.41574-1.3893 0.59826-1.9774s0.38532-1.3182 0.43602-1.6224c0.0608-0.3042 0.26364-1.0647 0.4563-1.6731 0.19266-0.61854 0.37518-1.3486 0.41574-1.6325 0.0304-0.29406 0.17238-0.90246 0.31434-1.3588 0.13182-0.4563 0.32448-1.3183 0.4056-1.9064 0.0913-0.59826 0.29406-1.6832 0.4563-2.4032 0.1521-0.73008 0.37518-1.9365 0.48672-2.6868 0.12168-0.75036 0.28392-2.1397 0.37518-3.0827 0.12168-1.2574 0.17238-2.7175 0.17238-5.4249-0.0101-2.0381-0.0507-4.2588-0.11154-4.928-0.0507-0.66924-0.17238-1.7846-0.2535-2.4843-0.0811-0.69966-0.2028-1.7035-0.26364-2.2308-0.0608-0.52728-0.1521-1.2574-0.21294-1.6224-0.0507-0.36504-0.18252-1.1155-0.29406-1.6732s-0.29406-1.5413-0.4056-2.1801-0.29406-1.5311-0.39546-1.9773-0.24336-1.156-0.31434-1.5717c-0.0608-0.41574-0.23322-1.1053-0.37518-1.521-0.13182-0.41574-0.3549-1.2371-0.48672-1.8252-0.12168-0.58812-0.3549-1.5007-0.507-2.028s-0.4056-1.379-0.57798-1.8759c-0.17238-0.507-0.4056-1.2776-0.53742-1.7238-0.12168-0.44616-0.37518-1.2878-0.54756-1.8759-0.18252-0.58812-0.43602-1.3182-0.57798-1.6224-0.13182-0.3042-0.39546-1.014-0.58812-1.5717-0.18252-0.5577-0.49686-1.45-0.69966-1.9773-0.19266-0.52728-0.41574-1.1255-0.507-1.3182-0.0913-0.19266-0.37518-0.90246-0.62868-1.5717s-0.66924-1.6325-0.92274-2.1294c-0.24336-0.507-0.44616-0.95303-0.44616-0.99359 0-0.0406-0.1014-0.29406-0.21294-0.5577-0.12168-0.26364-0.46644-1.0039-0.77064-1.6427s-0.78078-1.6224-1.0647-2.1801-0.57798-1.085-0.64896-1.1762c-0.0811-0.0913-0.42588-0.73008-0.7605-1.4196-0.34476-0.68952-0.71994-1.3991-0.85176-1.5613-0.12168-0.17238-0.3549-0.55795-0.507-0.86215s-0.3549-0.64896-0.4563-0.7605c-0.0913-0.11154-0.2028-0.32448-0.23322-0.46644-0.0406-0.14196-0.26364-0.56771-0.51714-0.96317-0.2535-0.38532-0.79092-1.2269-1.2067-1.8658s-0.9633-1.5107-1.2168-1.9265c-0.26364-0.41574-0.58812-0.90246-0.74022-1.0647-0.14196-0.17238-0.37518-0.507-0.507-0.7605-0.14196-0.2535-0.39546-0.68952-0.57798-0.97344s-0.47658-0.69966-0.64896-0.92274c-0.18252-0.23322-0.33462-0.4563-0.33462-0.507s-0.18252-0.32448-0.4056-0.62868c-0.22308-0.29406-0.57798-0.74022-0.80106-0.99372-0.22308-0.24336-0.62868-0.78078-0.89232-1.1762-0.26364-0.4056-0.7098-0.98358-0.99372-1.2878-1.5977-2.1043-3.3408-3.991-5.1714-5.8915-0.66924-0.69966-1.531-1.6021-1.9265-2.0179-0.38532-0.41574-0.69978-0.79092-0.6795-0.83148 0.0101-0.0507-0.0913-0.13182-0.23322-0.18252-1.3119-1.2716-1.97-1.7224-3.3462-3.042-0.84162-0.78078-1.7745-1.592-2.0787-1.7948s-0.7401-0.51714-0.96318-0.68952c-0.22308-0.16224-0.74022-0.57798-1.156-0.9126s-0.9633-0.78078-1.2168-0.98358c-0.2535-0.21294-0.66924-0.48672-0.92274-0.62868-0.2535-0.13182-0.77064-0.47658-1.1661-0.7605-0.38532-0.28392-0.82134-0.59826-0.9633-0.7098-0.14196-0.1014-0.78078-0.52728-1.4297-0.95316-0.64896-0.41574-1.2776-0.79092-1.3892-0.82134-0.12168-0.04056-0.47658-0.26364-0.80106-0.49686s-0.90246-0.61854-1.2979-0.85176c-0.38532-0.22308-1.1864-0.64896-1.7644-0.93288s-1.1762-0.6084-1.3182-0.7098-0.37518-0.22308-0.51714-0.26364-0.507-0.2028-0.8112-0.3549-0.94302-0.46644-1.4196-0.68952c-0.47658-0.23322-1.1762-0.53742-1.5717-0.68952-0.38532-0.14196-1.2168-0.507-1.8353-0.8112s-1.3993-0.63882-1.7238-0.74022c-0.32448-0.11154-0.82134-0.28392-1.1053-0.39546-0.27378-0.11154-1.0343-0.36504-1.6731-0.56784-0.63882-0.19266-1.4804-0.42588-1.8759-0.51714-0.38532-0.09126-0.95316-0.28392-1.2371-0.42588-0.29406-0.14196-0.53729-0.3042-0.53729-0.3549s-0.1014-0.08112-0.22308-0.07098c-0.13182 0.01014-0.507-0.01014-0.84162-0.06084-0.33462-0.04056-0.90259-0.18252-1.2675-0.31434-0.36504-0.12168-1.0647-0.3042-1.5514-0.39546-0.49686-0.09126-1.0647-0.22308-1.2675-0.29406-0.21294-0.07098-0.99372-0.23322-1.7441-0.36504-0.75036-0.12168-2.0077-0.33462-2.7885-0.46644-0.78078-0.14196-2.0787-0.31434-2.8899-0.39546s-1.9974-0.2028-2.6363-0.2535c-0.63882-0.06084-2.0787-0.17238-3.1941-0.24336s-3.1434-0.14196-4.5224-0.1521zm-13.102 38.579c1.6021-0.01014 3.3565 0.04056 3.904 0.09126 0.53742 0.06084 1.6021 0.22308 2.3525 0.36504s1.7644 0.36504 2.2511 0.507c0.47658 0.13182 1.3488 0.39533 1.9267 0.58799s1.3892 0.47658 1.8049 0.64896 1.2067 0.507 1.744 0.7605 1.3182 0.67938 1.7238 0.94302c0.4056 0.2535 1.2472 0.85176 1.8658 1.3182s1.6934 1.3588 2.3829 1.9976c0.68952 0.62868 1.7339 1.6934 2.3119 2.3626 0.57798 0.6591 1.3081 1.5514 1.6325 1.9672 0.31434 0.41574 0.89232 1.2371 1.2878 1.8252 0.38532 0.58812 0.97344 1.521 1.2978 2.0787 0.32436 0.5577 0.83148 1.5109 1.1154 2.1294 0.29406 0.6084 0.68952 1.5007 0.89232 1.9773s0.49686 1.2269 0.66924 1.6731c0.16224 0.44616 0.45643 1.2472 0.64909 1.7745s0.49686 1.3692 0.67938 1.8762c0.17238 0.49686 0.4056 1.1661 0.51714 1.4703 0.12168 0.3042 0.43602 1.1761 0.69966 1.9265 0.27378 0.75036 0.69966 1.9367 0.9633 2.6364 0.2535 0.69966 0.66924 1.8556 0.9126 2.5857 0.24336 0.71994 0.63882 1.8151 0.8619 2.4336 0.23322 0.6084 0.63882 1.7542 0.9126 2.535s0.62868 1.8049 0.80106 2.2815c0.16224 0.47658 0.48672 1.3892 0.71994 2.028s0.66924 1.8759 0.98358 2.7378c0.3042 0.8619 0.82134 2.3221 1.1458 3.2448s0.7605 2.1094 0.9633 2.6366 0.59826 1.6021 0.88218 2.3829 0.6591 1.8556 0.85176 2.3829c0.18252 0.52728 0.44616 1.2776 0.58812 1.6731 0.14196 0.38532 0.41574 1.1458 0.61854 1.6731 0.19266 0.52728 1.0241 2.8291 1.8353 5.1207 0.8112 2.2815 1.663 4.6543 1.8759 5.2728 0.22308 0.6084 0.64896 1.7947 0.95316 2.6363 0.29406 0.83148 0.7098 1.9773 0.9126 2.535s0.87204 2.4235 1.4906 4.1574c0.61854 1.7238 1.521 4.3196 2.0179 5.7494 0.49686 1.4399 0.9633 2.7378 1.0343 2.8899 0.13182 0.24336 0.1521 0.2535 0.2028 0.071 0.0304-0.1014 0.0406-13.679 0.0304-30.156-0.0203-16.478-0.0406-29.984-0.0507-30.014-0.0101-0.0304-0.0811 0.0607-0.1521 0.20267-0.0811 0.14196-0.46657 1.1864-0.85189 2.3322-0.39546 1.1458-0.95303 2.7174-1.237 3.4982s-0.74022 2.0787-1.014 2.8899-0.82134 2.3626-1.2168 3.4476-0.9633 2.7074-1.2675 3.5997c-0.29406 0.89232-0.77064 2.2612-1.0444 3.042-0.28392 0.78078-0.71994 1.9874-0.98358 2.6871-0.2535 0.69966-0.61854 1.7137-0.8112 2.2511-0.18252 0.53742-0.36504 1.0343-0.4056 1.085-0.0304 0.0608-0.1521 0.11154-0.2535 0.11154-0.11154 0-0.26364-0.1014-0.34476-0.23322-0.0811-0.12168-0.38532-0.9126-0.66924-1.7441-0.29406-0.84162-0.6084-1.7745-0.7098-2.0787s-0.37518-1.085-0.6084-1.7238-0.56784-1.6021-0.75036-2.1294c-0.19266-0.52728-0.66924-1.9266-1.0748-3.0927-0.39546-1.1762-0.8619-2.4944-1.0343-2.9406-0.16224-0.44616-0.41574-1.1053-0.5577-1.4703s-0.8112-2.1902-1.4703-4.056c-0.66924-1.8658-1.4602-4.1067-1.7644-4.9686s-0.69966-1.9672-0.8619-2.4539c-0.16224-0.49686-0.57785-1.6526-0.91247-2.5854-0.33462-0.94302-0.77064-2.16-0.97344-2.7176-0.32448-0.9126-0.3549-1.085-0.3042-1.7238 0.0304-0.41574 0.2028-1.1357 0.41574-1.7238 0.19266-0.5577 0.44616-1.2575 0.56784-1.5617s0.48672-1.1053 0.8112-1.7745c0.33462-0.67938 0.8112-1.5717 1.0546-2.0077 0.2535-0.42588 0.94302-1.4095 1.521-2.2004 0.58812-0.78078 1.5614-1.9367 2.1597-2.5553s1.5516-1.5007 2.1092-1.957 1.2675-1.014 1.5717-1.2371c0.3042-0.23322 0.90246-0.62868 1.3283-0.88218 0.41574-0.2535 1.3082-0.73008 1.9774-1.0647 0.6591-0.32448 1.7745-0.79092 2.4742-1.0241 0.69966-0.22308 1.8151-0.53742 2.4843-0.67938 1.0444-0.22308 1.5513-0.26364 3.5793-0.31434 1.5514-0.04056 2.6974-0.01014 3.3463 0.07098 0.53742 0.06084 1.4196 0.2028 1.9469 0.31434s1.4398 0.33462 2.0279 0.507c0.58812 0.18252 1.511 0.49686 2.0585 0.7098 0.53742 0.22308 1.4905 0.64896 2.109 0.9633 0.61854 0.3042 1.5007 0.80106 1.9469 1.0951 0.4563 0.29406 1.3892 1.0241 2.0686 1.6224 0.68952 0.59826 1.592 1.5109 2.028 2.0179 0.42588 0.51714 1.0444 1.3385 1.3789 1.8455 0.32448 0.49686 0.83148 1.4095 1.1255 2.028 0.3042 0.6084 0.67938 1.5514 0.85176 2.0787s0.42588 1.4196 0.56784 1.9773c0.14196 0.56784 0.33462 1.4804 0.41574 2.028 0.0913 0.5577 0.24336 1.6934 0.32448 2.535 0.1521 1.3588 0.17238 5.2122 0.2028 36.301 0.0304 22.805 0 35.622-0.0607 37.214-0.0913 2.0483-0.1521 2.6567-0.4056 3.8025-0.16224 0.75036-0.48672 1.9367-0.7098 2.6364-0.23322 0.69966-0.68952 1.8252-1.0241 2.5147-0.33462 0.67938-0.8619 1.6427-1.1762 2.1294s-0.89232 1.3182-1.2878 1.8455c-0.38532 0.52728-1.3283 1.5818-2.0888 2.3322-0.7605 0.7605-1.8457 1.7137-2.4034 2.1395-0.5577 0.41574-1.4398 1.0241-1.9569 1.3486-0.51714 0.31434-1.3588 0.80106-1.8658 1.0748-0.51714 0.27378-1.2775 0.62881-1.6932 0.79105s-1.2878 0.44616-1.9266 0.61854c-0.63882 0.16224-1.7339 0.38532-2.4336 0.47658-0.88218 0.12168-1.9976 0.17238-3.7011 0.18252-1.8252 0-2.7175-0.0407-3.5591-0.17251-0.61854-0.1014-1.6427-0.3042-2.2815-0.46644s-1.6123-0.4563-2.17-0.66924c-0.5577-0.2028-1.5717-0.63882-2.2511-0.97344s-1.8255-0.99372-2.5353-1.4703-1.4904-1.0546-1.744-1.2878c-0.2535-0.24336-0.64896-0.56784-0.8619-0.73008-0.22308-0.17238-0.89232-0.8619-1.4906-1.5514-0.59826-0.67938-1.2979-1.5514-1.5514-1.9367s-0.89232-1.5413-1.4196-2.5553c-0.52728-1.0241-1.2675-2.5249-1.6427-3.3361s-0.8112-1.7948-0.97344-2.1801c-0.17238-0.39546-0.46644-1.0951-0.6591-1.5717s-0.62868-1.5514-0.9633-2.3829c-0.33462-0.84162-0.83148-2.1395-1.0951-2.8899-0.27378-0.75036-0.79092-2.17-1.1661-3.1434s-0.78078-2.0686-0.9126-2.4336c-0.12168-0.36504-0.28392-0.77064-0.33462-0.9126-0.0608-0.14196-0.48672-1.2574-0.94302-2.4843s-0.9633-2.5756-1.1255-2.9913-0.54756-1.4703-0.85176-2.3322-0.6591-1.8455-0.80106-2.1801c-0.13182-0.33462-0.47658-1.2067-0.77064-1.9265-0.28392-0.73008-0.62868-1.6123-0.75036-1.9773-0.13182-0.36504-0.37518-1.0344-0.54756-1.5007-0.17238-0.4563-0.44616-1.1864-0.6084-1.6224-0.16224-0.42588-0.71994-1.8759-1.2269-3.2144s-1.0546-2.7986-1.2168-3.2448-0.54756-1.4703-0.8619-2.2815-0.84162-2.2207-1.1762-3.1434c-0.34476-0.92274-0.77064-2.0888-0.95316-2.5857-0.18252-0.507-1.1864-3.1738-2.2308-5.9319s-1.9773-5.2525-2.0787-5.5263c-0.1014-0.28392-0.29406-0.85176-0.44616-1.2675-0.14196-0.41574-0.51714-1.3993-0.82134-2.1801s-0.83148-2.17-1.1762-3.0927-0.83148-2.2104-1.0748-2.8695c-0.2535-0.6591-0.69966-1.5818-0.98358-2.0686-0.28392-0.47658-0.78078-1.156-1.1053-1.5109s-0.9126-0.85176-1.3081-1.1154-1.1762-0.6591-1.7441-0.88218c-0.95316-0.38532-1.1053-0.41574-2.2409-0.4563-0.92274-0.0304-1.3689 0-1.8759 0.13182-0.36504 0.0913-0.97344 0.31434-1.3689 0.49686-0.38532 0.18252-0.95316 0.51714-1.2574 0.75036-0.3042 0.22308-0.71994 0.62868-0.94302 0.89232s-0.57798 0.78078-0.79092 1.1458c-0.21294 0.37518-0.47658 0.89232-0.59826 1.1762-0.11154 0.27378-0.6591 1.7137-1.2269 3.1941-0.5577 1.4804-1.1357 2.9812-1.2675 3.3462s-0.3549 0.95316-0.49686 1.3182-0.46644 1.2065-0.71994 1.8756c-0.26364 0.66924-0.6591 1.6934-0.88218 2.2815s-0.61854 1.6832-0.89232 2.4336-0.66924 1.8253-0.89232 2.383-0.61841 1.5514-0.88205 2.2004-0.54756 1.2067-0.63882 1.2472c-0.0913 0.0304-0.23322-0.0203-0.33462-0.12168-0.0913-0.1014-0.39546-0.78078-0.67938-1.5007-0.28392-0.73008-0.88218-2.3018-1.3182-3.4983-0.44616-1.1965-1.0951-2.9102-1.4399-3.8025-0.33462-0.89232-0.84162-2.2207-1.1154-2.9406-0.26364-0.73008-0.75036-1.9773-1.0647-2.7885s-1.2168-3.1637-1.9976-5.2221c-0.78078-2.0686-1.531-4.0256-1.6628-4.3602s-0.37518-0.97344-0.54756-1.4196-0.47658-1.2472-0.66924-1.7846-0.48672-1.3182-0.6591-1.7238c-0.17238-0.41574-0.53742-1.3486-0.8112-2.0888s-0.49686-1.4906-0.49686-1.6832c0-0.22308 0.17238-0.62855 0.53742-1.2471 0.3042-0.49686 0.9126-1.4804 1.3588-2.1801s1.0039-1.5414 1.2472-1.876c0.24336-0.32448 0.84162-1.0748 1.3283-1.6628 0.48672-0.58812 1.521-1.6832 2.2916-2.4437 0.77064-0.75036 1.8151-1.6933 2.3119-2.0887 0.507-0.39546 1.5717-1.1357 2.3829-1.6528 0.8112-0.507 1.9266-1.1458 2.4843-1.4196 0.5577-0.26364 1.7035-0.77064 2.535-1.1154 0.84162-0.34476 1.9367-0.78078 2.4336-0.9633 0.507-0.18252 1.4906-0.47658 2.1902-0.64896 0.69966-0.18252 1.9976-0.43615 2.8899-0.56797 1.3892-0.2028 2.0077-0.23309 4.5326-0.24323zm-55.902 0.01014c0.36504-0.01014 1.2979 0.03042 2.0787 0.08112 0.78078 0.06084 1.9468 0.19266 2.5856 0.31434 0.63882 0.11154 1.6631 0.34463 2.2715 0.51701 0.61854 0.16224 1.531 0.4563 2.0279 0.63882 0.507 0.18252 1.2574 0.47658 1.6631 0.64896 0.4056 0.18252 1.1762 0.57798 1.7238 0.89232 0.53742 0.3042 1.2168 0.73008 1.4906 0.92274 0.28392 0.2028 1.0039 0.78078 1.6124 1.2776 0.6084 0.507 1.5107 1.369 2.0076 1.9369 0.507 0.5577 1.156 1.3588 1.45 1.7745s0.79092 1.2168 1.1154 1.7745 1.1154 2.089 1.7644 3.397 1.4602 3.042 1.8049 3.8532 0.84162 2.0179 1.0951 2.6871c0.26364 0.66924 0.71994 1.8759 1.0343 2.6871 0.3042 0.8112 0.7605 2.0381 1.0039 2.7378 0.2535 0.69966 0.67938 1.8353 0.95316 2.535s0.80106 2.0888 1.1661 3.0927c0.37518 1.0039 0.78078 2.099 0.9126 2.4437 0.13182 0.33462 0.67938 1.7948 1.2168 3.2448 0.53742 1.4399 1.1255 3.0116 1.3081 3.4882 0.19266 0.47658 0.507 1.2675 0.69966 1.7745 0.19266 0.49686 0.46644 1.2067 0.6084 1.5717s0.5577 1.4806 0.93288 2.4844c0.36504 1.0039 0.7605 2.0483 0.8619 2.3322 0.11154 0.27378 0.49686 1.2572 0.85176 2.1801 0.3549 0.92287 0.8112 2.1294 1.0039 2.6871 0.2028 0.5577 0.51714 1.4502 0.71994 1.9774 0.19266 0.52728 0.49686 1.3283 0.66924 1.7745s0.44616 1.156 0.6084 1.5717 0.43602 1.1255 0.6084 1.5717 0.44616 1.1762 0.6084 1.6224 0.57798 1.5413 0.9126 2.4336c0.34476 0.89232 0.73008 1.9165 0.8619 2.2815s0.42588 1.1561 0.6591 1.7746c0.23322 0.6084 0.52728 1.4095 0.6591 1.7745s0.39546 1.0951 0.59826 1.6224 0.57798 1.5311 0.83148 2.2308c0.26364 0.69966 0.54756 1.4906 0.6591 1.7745 0.1014 0.27378 0.34476 0.9126 0.53742 1.4196 0.19266 0.49686 0.64896 1.7138 1.0241 2.6872 0.36504 0.97344 0.8112 2.1193 0.98358 2.535s0.4563 1.0546 0.63882 1.4196 0.6084 1.0343 0.93288 1.4703c0.33462 0.44616 0.8112 0.99372 1.0546 1.2269 0.2535 0.22308 0.79092 0.6084 1.1864 0.84162 0.4056 0.23322 1.0241 0.53742 1.379 0.66924s1.0241 0.31434 1.4906 0.41574c0.58812 0.12168 1.0647 0.1521 1.592 0.1014 0.4056-0.0304 1.146-0.19266 1.6325-0.3549 0.4866-0.16224 1.1764-0.46644 1.5314-0.67938 0.36504-0.2028 0.98332-0.69966 1.3688-1.0951 0.51714-0.52728 0.84162-0.97344 1.1864-1.6325 0.2535-0.507 0.62868-1.3485 0.82134-1.8758 0.2028-0.52728 0.57798-1.5109 0.83148-2.1801 0.26364-0.66924 0.57798-1.5107 0.7098-1.8758s0.41574-1.1661 0.63882-1.7745c0.22308-0.61854 0.62868-1.7542 0.9126-2.535s0.67938-1.8759 0.88218-2.4336 0.56784-1.5922 0.8112-2.2919c0.23322-0.69966 0.80106-2.2814 1.2675-3.5286 0.4563-1.2371 0.92274-2.3525 1.0241-2.4742 0.14196-0.18252 0.21294-0.20293 0.36504-0.11167 0.1014 0.0608 0.46644 0.80106 0.8112 1.6731 0.3549 0.8619 0.73008 1.8151 0.83148 2.1193 0.11154 0.3042 0.36504 0.99372 0.56784 1.521s0.507 1.3283 0.66924 1.7745c0.17238 0.44616 0.38532 1.0344 0.49686 1.3182 0.1014 0.27378 0.39546 1.0546 0.6591 1.7238 0.2535 0.66924 0.7605 2.0179 1.1357 2.9913 0.36504 0.97344 0.95303 2.5249 1.3181 3.4476s0.77064 1.9469 0.89232 2.2815c0.13182 0.33462 0.56797 1.4703 0.96343 2.535 0.39546 1.0546 0.8112 2.1294 0.9126 2.3829s0.3549 0.89245 0.5577 1.4196c0.2028 0.52728 0.4563 1.1864 0.5577 1.4703 0.1014 0.27378 0.41574 1.1255 0.69966 1.8759 0.27378 0.75036 0.75036 2.0179 1.0647 2.7986 0.31434 0.79092 0.56771 1.5717 0.56771 1.7238 0 0.17238-0.24336 0.68952-0.58812 1.2574-0.32448 0.52728-0.77064 1.2472-0.98358 1.6021-0.22308 0.34476-0.69966 1.0546-1.0647 1.5717s-1.095 1.4906-1.6427 2.1598c-0.53742 0.6591-1.6528 1.8658-2.4843 2.677-0.82134 0.8112-2.0483 1.886-2.7175 2.393-0.66924 0.49686-1.4399 1.0546-1.7238 1.2269-0.27378 0.17238-0.9633 0.5577-1.521 0.87204s-1.7848 0.90246-2.7379 1.3182c-0.94302 0.41574-2.0686 0.88206-2.4843 1.0342s-1.1965 0.4056-1.7238 0.56784-1.2576 0.36504-1.6225 0.4563c-0.36504 0.0811-0.88218 0.20292-1.1661 0.25362-0.27378 0.0507-1.2371 0.1824-2.1294 0.29394s-2.2815 0.23322-3.0927 0.26364c-0.8112 0.0406-2.2916 0.0101-3.2955-0.0507-1.0039-0.071-2.3221-0.19266-2.9406-0.27378-0.6084-0.0811-1.6528-0.26364-2.3018-0.4056-0.6591-0.14196-1.6427-0.38532-2.1801-0.5577-0.54756-0.16224-1.3385-0.43602-1.7542-0.59826s-1.1255-0.4563-1.5717-0.6591-1.2675-0.62868-1.8252-0.93288c-0.5577-0.31434-1.45-0.87204-1.9773-1.2371s-1.2269-0.8619-1.5413-1.1053c-0.32448-0.24336-1.0951-0.92274-1.7238-1.521-0.62868-0.58812-1.5007-1.4602-1.9367-1.9367-0.43602-0.46644-1.1357-1.2979-1.5413-1.8353s-1.1255-1.5718-1.6021-2.2918c-0.46644-0.71994-1.0444-1.6528-1.2878-2.0686s-0.67951-1.2674-0.98371-1.896c-0.29406-0.62868-0.64883-1.4299-0.79079-1.7746-0.1521-0.3549-0.49686-1.2574-0.77064-2.0076-0.27378-0.75024-0.57798-1.5514-0.66924-1.7745-0.0811-0.22308-0.41574-1.1864-0.74022-2.1294-0.32448-0.95316-0.90246-2.5958-1.298-3.6504-0.39546-1.0647-1.0546-2.9306-1.4703-4.1575s-0.9633-2.7985-1.2168-3.4982c-0.24336-0.69966-0.507-1.4297-0.57798-1.6224-0.0608-0.19266-0.42588-1.2472-0.8112-2.3322-0.37518-1.085-1.4703-4.1675-2.4133-6.8445-0.95316-2.677-1.957-5.4859-2.2308-6.2362s-0.68952-1.9163-0.9126-2.5856c-0.23322-0.66924-0.74022-2.1091-1.1357-3.1941s-1.0444-2.8899-1.4399-4.0053-1.0039-2.8291-1.3486-3.8025c-0.3549-0.97344-0.9126-2.5756-1.2472-3.549s-1.1154-3.184-1.7339-4.8976c-0.61854-1.7238-1.1661-3.2754-1.2168-3.4477-0.0507-0.18252-0.4563-1.3485-0.90246-2.6058s-1.1053-3.1232-1.4703-4.1575c-0.37518-1.0343-0.71994-2.0786-0.78078-2.3219-0.0913-0.33462-0.14196-0.41574-0.23322-0.32448-0.0913 0.0913-0.13182 7.3616-0.1521 30.491-0.0101 17.36 0.0101 30.44 0.071 30.532 0.0608 0.12168 0.12168 0.0608 0.23322-0.28392 0.0913-0.24336 0.49686-1.4703 0.9126-2.7277s1.4602-4.3095 2.3119-6.7938 1.9874-5.8102 2.535-7.4022 1.3182-3.7924 1.7137-4.8976c0.38532-1.0951 0.7605-2.1801 0.82134-2.4032 0.0608-0.22308 0.21294-0.51714 0.33462-0.6591 0.14196-0.17238 0.28392-0.24336 0.38532-0.2028 0.0913 0.0304 0.22308 0.18252 0.29406 0.33462 0.0608 0.1521 0.32448 0.84162 0.57798 1.5413s0.71994 2.0381 1.0546 2.9913c0.32448 0.94302 0.78078 2.2511 1.0039 2.8899 0.23322 0.63882 0.52728 1.4602 0.6591 1.8252s0.507 1.4297 0.84162 2.3829c0.33462 0.94302 0.79092 2.2207 1.014 2.8392 0.22308 0.6084 0.75036 2.099 1.1864 3.2955s0.9633 2.677 1.1661 3.2955c0.21294 0.6084 0.7605 2.1598 1.2168 3.4476 0.4563 1.2776 1.1357 3.2245 1.521 4.3095 0.37518 1.085 0.85176 2.4437 1.0546 3.0217 0.2028 0.56784 0.36504 1.2269 0.36504 1.4703 0 0.23322-0.18252 0.95303-0.4056 1.592-0.21294 0.63882-0.51714 1.4802-0.6591 1.8756-0.14196 0.38532-0.53742 1.2575-0.87204 1.9267-0.33462 0.6591-1.0039 1.7948-1.4806 2.5147-0.47671 0.71994-1.2675 1.7745-1.7542 2.3423-0.48672 0.5577-1.2878 1.4095-1.7846 1.886s-1.3588 1.2472-1.9165 1.7137-1.5311 1.1864-2.1497 1.6021c-0.62868 0.4056-1.6123 0.99372-2.1801 1.2979-0.57798 0.29406-1.4093 0.67938-1.8656 0.84162-0.44616 0.17238-1.3386 0.44616-1.9774 0.6084-0.62868 0.17238-1.592 0.38532-2.1193 0.46644-0.52728 0.0913-1.5007 0.21294-2.1598 0.27378-0.8619 0.0811-1.6224 0.0811-2.7885 0-0.87204-0.0608-2.1394-0.2028-2.8087-0.31434-0.66924-0.12168-1.7137-0.34476-2.3322-0.507-0.6084-0.17238-1.521-0.4563-2.028-0.64896-0.49686-0.18252-1.3487-0.53742-1.876-0.77064s-1.3385-0.63882-1.8049-0.89232c-0.4563-0.2535-1.2067-0.75036-1.6731-1.0951-0.4563-0.34476-1.2269-1.014-1.7035-1.4804s-1.2879-1.3993-1.7949-2.0888c-0.507-0.67938-1.1051-1.5413-1.3181-1.9266-0.22308-0.37518-0.5577-1.0039-0.7605-1.3892-0.19266-0.39546-0.53742-1.2575-0.7605-1.9268-0.22308-0.66924-0.507-1.6123-0.61854-2.0888-0.12168-0.47658-0.3042-1.3892-0.4056-2.028-0.11154-0.63882-0.2535-1.7034-0.33462-2.3726-0.11154-0.99372-0.13182-8.1221-0.13182-38.177 0-35.46 0.0101-37.001 0.18252-38.076 0.11154-0.61854 0.31421-1.6224 0.47645-2.2308 0.1521-0.61854 0.44629-1.5717 0.64909-2.1294 0.21294-0.5577 0.66924-1.6123 1.0241-2.3322 0.3549-0.73008 1.014-1.8353 1.45-2.464s1.1357-1.5616 1.5514-2.0686 1.2574-1.379 1.8658-1.9367c0.61854-0.5577 1.4599-1.2675 1.8756-1.592 0.41574-0.31434 1.2676-0.9126 1.876-1.3182 0.61854-0.4056 1.8049-1.0647 2.6364-1.4703 0.84162-0.4056 1.886-0.85189 2.3322-0.99385 0.44616-0.1521 1.1762-0.3549 1.6224-0.46644s1.2472-0.24336 1.7745-0.3042 1.1458-0.13182 1.3689-0.14196c0.22308-0.02028 0.69966-0.04056 1.0647-0.0507z" fill="none" stroke="#000" stroke-width="3"/>
 <path d="m185.33 242.34c-0.22308 0.0101-0.8619 0.0406-1.4196 0.0811-0.5577 0.0406-1.6021 0.17238-2.3322 0.29406-0.71994 0.12168-1.8455 0.3549-2.4843 0.51714s-1.4602 0.41574-1.8252 0.5577c-0.36504 0.1521-1.2979 0.58812-2.0888 0.97344-0.78078 0.38532-1.7644 0.94302-2.1902 1.2269-0.42588 0.29406-1.2269 0.9126-1.7745 1.3689-0.5577 0.4563-1.3892 1.2371-1.8658 1.7238-0.46644 0.48672-1.1661 1.2776-1.5311 1.7542-0.37518 0.47658-0.98358 1.3283-1.3486 1.8962s-0.9126 1.5311-1.2067 2.1294c-0.3042 0.59826-0.68952 1.5109-0.85176 2.028-0.17238 0.507-0.37518 1.2574-0.46644 1.6731-0.0811 0.4056-0.2535 1.2371-0.38532 1.8556-0.17238 0.8619-0.22308 1.4703-0.22308 2.6871-0.0101 1.3283 0.0406 1.8556 0.31434 3.407 0.18252 1.014 0.44616 2.2207 0.59826 2.6871 0.14196 0.46644 0.37518 1.1458 0.51714 1.5109 0.1521 0.36504 0.43602 1.0039 0.64896 1.4196 0.2028 0.41574 0.6084 1.1458 0.90246 1.6224 0.28392 0.47658 0.78078 1.2067 1.085 1.6224 0.31434 0.41574 1.0748 1.2776 1.6934 1.9063 0.61854 0.63882 1.5109 1.4602 1.9874 1.8353 0.47658 0.38532 1.0951 0.85176 1.3689 1.0343 0.28392 0.19266 0.87204 0.56784 1.3182 0.83148 0.44616 0.2535 1.2979 0.68952 1.8759 0.97344 0.58812 0.27378 1.4703 0.63882 1.9672 0.8112 0.49686 0.18252 1.4095 0.42588 2.028 0.56784 0.61854 0.13182 1.5717 0.28392 2.1091 0.34476 0.54756 0.0608 1.7846 0.11154 2.7581 0.11154 0.9633 0 2.2308-0.0507 2.8088-0.11154 0.57798-0.0507 1.5818-0.22308 2.2207-0.36504s1.7238-0.43602 2.4032-0.64896c0.66924-0.22308 1.7035-0.63882 2.2815-0.93288 0.56784-0.29406 1.4906-0.8112 2.028-1.156 0.53742-0.33462 1.3385-0.88218 1.7745-1.2067s1.3283-1.1357 1.9874-1.8049c0.6591-0.6591 1.6021-1.7339 2.099-2.393s1.1053-1.5109 1.3486-1.8962c0.2535-0.37518 0.58812-0.9633 0.7605-1.2979 0.16224-0.33462 0.507-1.156 0.7605-1.8252 0.24336-0.66924 0.54756-1.5818 0.6591-2.028 0.12168-0.44616 0.3042-1.3486 0.42588-1.9976 0.14196-0.8619 0.2028-1.6224 0.2028-2.8088 0-0.94302-0.0608-2.0686-0.1521-2.6567-0.0811-0.5577-0.2535-1.4602-0.36504-1.9976-0.12168-0.53742-0.39546-1.521-0.6084-2.1801-0.22308-0.6591-0.63882-1.663-0.9126-2.2308-0.28392-0.56784-0.80106-1.4399-1.1357-1.9469-0.33462-0.49686-0.82134-1.1661-1.0647-1.4703-0.2535-0.3042-0.84162-0.98358-1.3182-1.5109-0.47658-0.51714-1.3486-1.3283-1.9367-1.8049-0.59826-0.46644-1.4602-1.1154-1.9367-1.4399s-1.592-0.9633-2.4944-1.4095c-0.9126-0.4563-2.17-0.99372-2.8899-1.2269-0.68952-0.22308-1.8759-0.51714-2.6263-0.6591s-1.7542-0.3042-2.2308-0.36504c-0.46644-0.0507-1.0444-0.0913-1.2675-0.0811zm169.3 1.2067c-1.014 0.0101-2.2308 0.0811-3.0521 0.19266-0.75036 0.1014-1.6123 0.23322-1.9063 0.29406-0.3042 0.0608-1.0546 0.27378-1.6731 0.46644-0.62868 0.2028-1.4804 0.49686-1.8962 0.6591-0.41574 0.1521-1.0343 0.41574-1.3588 0.56784-0.33462 0.1521-0.94302 0.47658-1.3588 0.71994-0.42588 0.2535-1.1053 0.67938-1.5311 0.9633s-1.0444 0.73008-1.379 0.98358-1.014 0.85176-1.5109 1.3283-1.1864 1.2269-1.5311 1.6731-0.9126 1.2776-1.2574 1.8455c-0.34476 0.57798-0.80106 1.4602-1.0343 1.9672-0.22308 0.51714-0.53742 1.3993-0.68952 1.9672-0.16224 0.56784-0.38532 1.5007-0.507 2.0888-0.11154 0.57798-0.39546 2.5147-0.61854 4.2994-0.23322 1.7846-0.59826 4.5934-0.8112 6.2462-0.22308 1.6528-0.54756 4.1168-0.7098 5.4756-0.17238 1.3588-0.32448 2.5451-0.3549 2.6263-0.0203 0.0811-0.13182 0.99372-0.2535 2.028-0.11154 1.0343-0.2535 2.1294-0.3042 2.4336s-0.21294 1.45-0.34476 2.535c-0.14196 1.085-0.39546 2.9812-0.56784 4.2081s-0.4056 2.9812-0.51714 3.8938-0.22308 1.7035-0.2535 1.7542c-0.0304 0.0406-0.1014 0.0811-0.16224 0.0811-0.0507 0-0.6084-0.32448-1.2371-0.71994-0.61854-0.39546-1.8962-1.0951-2.8493-1.5616-0.94302-0.46644-1.9469-0.94302-2.2308-1.0444-0.27378-0.11154-1.0748-0.42588-1.7745-0.69966-0.69966-0.28392-1.6123-0.62868-2.028-0.77064s-1.2878-0.41574-1.9266-0.6084-1.4297-0.42588-1.7441-0.51714c-0.32448-0.0913-1.2371-0.33462-2.028-0.52728-0.80106-0.19266-2.1801-0.507-3.0724-0.68952-0.89232-0.19266-1.8455-0.37518-2.1294-0.4056-0.27378-0.0406-0.9633-0.16224-1.521-0.26364-0.5577-0.11154-1.7441-0.29406-2.6364-0.4056-0.89232-0.12168-2.3525-0.28392-3.2448-0.3549-1.0951-0.1014-3.2245-0.14196-6.5403-0.1521-3.4273 0-5.4553 0.0507-6.6924 0.1521-0.97344 0.0811-2.5046 0.23322-3.3969 0.34476-0.89232 0.12168-2.17 0.31434-2.8392 0.42588-0.66925 0.12168-1.9672 0.39546-2.8899 0.6084-0.92275 0.22308-2.2612 0.54756-2.9913 0.74022-0.71993 0.18252-1.7238 0.46644-2.2308 0.61854-0.49686 0.1521-1.2979 0.4056-1.7745 0.5577-0.47659 0.16224-1.2979 0.4563-1.8252 0.6591-0.52729 0.2028-1.3081 0.49686-1.7238 0.6591-0.41575 0.16224-1.379 0.54756-2.1294 0.8619-0.75036 0.3042-2.4843 1.1255-3.8532 1.8049s-3.1231 1.6021-3.9039 2.0483c-0.78078 0.44616-1.7035 0.99372-2.0584 1.2168s-1.0546 0.67938-1.5717 1.014-1.6325 1.1053-2.4944 1.7238c-0.85176 0.6084-2.2409 1.6832-3.0927 2.3626-0.84162 0.68952-2.0888 1.7542-2.7784 2.3728s-2.0686 1.9874-3.0826 3.0623c-1.0039 1.0647-2.4235 2.6871-3.1637 3.6098-0.73008 0.92274-1.6123 2.0584-1.9469 2.535s-0.90246 1.2979-1.2574 1.8252-1.1458 1.7846-1.7542 2.7885c-0.61854 1.0039-1.7846 3.1434-2.6161 4.7658-0.82134 1.6123-1.663 3.3462-1.8658 3.8532-0.21294 0.49686-0.69966 1.7137-1.085 2.6871s-0.99372 2.6668-1.3486 3.7518-0.7605 2.3829-0.90246 2.8899c-0.14196 0.49686-0.51714 1.9165-0.82134 3.1434-0.31434 1.2269-0.71994 3.0014-0.9126 3.9546-0.19266 0.94302-0.4563 2.4539-0.59826 3.3462s-0.37518 2.5553-0.51714 3.7011c-0.14196 1.1357-0.32448 3.1941-0.41574 4.563-0.12168 1.9469-0.1521 3.7112-0.11154 8.2134 0.0304 3.1535 0.1014 6.2057 0.16224 6.7938 0.0608 0.58812 0.2028 1.8353 0.31434 2.7885 0.12168 0.94302 0.32448 2.3829 0.46644 3.1941 0.13182 0.8112 0.43602 2.3322 0.6591 3.3969 0.23322 1.0546 0.58812 2.5654 0.8112 3.3462 0.21294 0.78078 0.52728 1.8556 0.68952 2.3829s0.4056 1.3283 0.5577 1.7745c0.14196 0.44616 0.4056 1.2472 0.59826 1.7745s0.77064 1.9874 1.2979 3.2448c0.51714 1.2574 1.521 3.4172 2.2308 4.8165 0.69966 1.3892 1.4804 2.8798 1.7339 3.2955s0.69966 1.1458 0.99372 1.6224 0.79092 1.2472 1.0951 1.7238c0.31434 0.47658 1.1154 1.592 1.7846 2.4843s1.4399 1.8962 1.7238 2.2308 0.98358 1.1357 1.5514 1.7745c0.5577 0.63882 1.9063 2.0381 2.9913 3.0927 1.0748 1.0647 2.5553 2.4437 3.2752 3.0724 0.73008 0.61854 1.592 1.3486 1.9266 1.6021s1.0647 0.8112 1.6224 1.2269c0.5577 0.42588 1.9266 1.3689 3.042 2.1091s2.3423 1.5311 2.7175 1.7644c0.37519 0.23322 1.6427 0.89232 2.7986 1.4804 1.1661 0.57798 2.6567 1.2776 3.3158 1.5514 0.66925 0.28392 2.099 0.85176 3.1941 1.2776 1.0951 0.41574 2.6668 0.9633 3.4983 1.2168 0.83148 0.24336 2.0381 0.58812 2.6871 0.7605s1.9367 0.46644 2.8595 0.66924c0.93288 0.19266 2.3626 0.46644 3.184 0.6084 0.83148 0.13182 2.0077 0.31434 2.6161 0.39546 0.61854 0.0913 1.8252 0.22308 2.6871 0.31434 0.8619 0.0913 2.4843 0.2028 3.5997 0.2535s2.8291 0.1014 3.8025 0.1014 2.6161-0.0507 3.6504-0.1014c1.0343-0.0608 2.3119-0.1521 2.8392-0.2028 0.52728-0.0608 1.5616-0.2028 2.2815-0.31434 0.73008-0.11154 1.8658-0.32448 2.535-0.4563 0.66924-0.14196 1.9469-0.43602 2.8392-0.6591s2.0077-0.52728 2.4843-0.66924 1.5717-0.48672 2.4336-0.77064 2.0483-0.69966 2.6364-0.94302c0.58812-0.23322 1.6224-0.6591 2.3119-0.94302 0.67938-0.28392 1.2574-0.51714 1.2878-0.51714 0.0203 0 0.18252 0.28392 0.3549 0.62868 0.18252 0.34476 0.61854 1.0748 0.97344 1.6224 0.36504 0.54756 0.92274 1.3283 1.2472 1.7238 0.32448 0.4056 1.0241 1.156 1.5413 1.6528 0.52728 0.507 1.3385 1.2168 1.8151 1.5818s1.3689 0.97344 1.9976 1.3486 1.6528 0.92274 2.2815 1.2168 1.5818 0.67938 2.1091 0.85176 1.3993 0.42588 1.9266 0.56784c0.52728 0.13182 1.4703 0.33462 2.0787 0.4563 0.61854 0.11154 1.4602 0.24336 1.8759 0.3042 0.41574 0.0507 1.4196 0.12168 2.2308 0.16224 0.8112 0.0304 2.2308 0.0101 3.1535-0.0406 1.1864-0.071 2.1091-0.19266 3.1434-0.41574 0.80106-0.17238 1.8962-0.4563 2.4235-0.62868 0.52728-0.16224 1.2574-0.41574 1.6224-0.5577s1.0444-0.4563 1.521-0.69966 1.3689-0.77064 1.9773-1.1661c0.61854-0.39546 1.4804-1.0343 1.9266-1.4095 0.44616-0.38532 1.2269-1.1154 1.7339-1.6427 0.49686-0.51714 1.0951-1.1965 1.3283-1.5007 0.22308-0.31434 0.66924-1.014 0.98358-1.5616s0.7098-1.2979 0.88218-1.663c0.17238-0.37518 0.46644-1.1154 0.6591-1.6528 0.18252-0.53742 0.4563-1.4703 0.59826-2.0787s0.3549-1.8759 0.46644-2.8291c0.11154-0.94302 0.24336-1.8962 0.29406-2.1294 0.0507-0.22308 0.16224-1.1154 0.2535-1.9773 0.0913-0.8619 0.22308-1.9367 0.3042-2.3829 0.0811-0.44616 0.21294-1.4095 0.3042-2.1294 0.0811-0.73008 0.26364-2.1193 0.4056-3.0927a1039.4 1039.4 0 0 0 0.90246-6.8952c0.0811-0.63882 0.24336-1.9165 0.36504-2.8392 0.11154-0.92274 0.27378-2.1497 0.36504-2.7378 0.0811-0.58812 0.28392-2.0888 0.44616-3.3462s0.32448-2.393 0.3549-2.535c0.0304-0.14196 0.18252-1.3081 0.3549-2.5857 0.16224-1.2878 0.49686-3.9749 0.75036-5.9826 0.26364-2.0077 0.5577-4.3399 0.66924-5.1714 0.11154-0.84162 0.29406-2.2511 0.4056-3.1434s0.34476-2.606 0.507-3.8025c0.17238-1.1965 0.46644-3.3868 0.6591-4.8672s0.41574-3.2549 0.49686-3.9546c0.0811-0.69966 0.3549-2.8899 0.6084-4.8672s0.5577-4.3095 0.66924-5.1714c0.12168-0.8619 0.34476-2.6263 0.51714-3.9039 0.16224-1.2878 0.38532-3.042 0.49686-3.9039s0.29407-2.2308 0.4056-3.0319c0.11154-0.8112 0.2535-1.8556 0.3042-2.3322s0.18252-1.5616 0.3042-2.393c0.12168-0.84162 0.3042-2.2511 0.4056-3.1434 0.11154-0.89232 0.24336-1.9672 0.29406-2.3829 0.0608-0.41574 0.2028-1.45 0.31434-2.2815 0.11154-0.84162 0.34476-2.5756 0.51714-3.8532 0.16225-1.2878 0.43602-3.407 0.59826-4.7151 0.1521-1.3081 0.36504-2.9507 0.44616-3.6504 0.0913-0.69966 0.26364-1.9976 0.37518-2.8899s0.33462-2.606 0.49686-3.8025 0.4056-3.0724 0.54756-4.1574 0.28392-2.0888 0.31434-2.2308c0.0304-0.14196 0.16224-1.1864 0.29406-2.3322 0.14196-1.1458 0.34476-2.8595 0.46644-3.8025 0.11154-0.95316 0.32448-2.5046 0.4563-3.4476 0.13182-0.95316 0.29406-2.2004 0.3549-2.7885 0.0608-0.58812 0.2028-1.592 0.3042-2.2308 0.11155-0.63882 0.31434-2.0787 0.4563-3.1941s0.48673-3.8126 0.7605-5.9826c0.28392-2.1801 0.59826-4.6847 0.7098-5.577s0.31434-2.464 0.4563-3.4983c0.13182-1.0343 0.29406-2.4336 0.3549-3.113 0.0507-0.67938 0.1014-1.6224 0.1014-2.1091 0-0.47658-0.0507-1.3081-0.1014-1.8556-0.0608-0.53742-0.22308-1.5109-0.36504-2.1497-0.1521-0.63882-0.39546-1.5109-0.5577-1.9367-0.1521-0.42588-0.507-1.2371-0.79092-1.7948-0.27378-0.5577-0.88218-1.5717-1.3385-2.2612-0.65911-0.98358-1.1864-1.6123-2.4539-2.9-1.2979-1.3182-1.9063-1.8455-3.0521-2.6465-0.79091-0.5577-1.9874-1.2878-2.677-1.6325-0.68951-0.34476-1.7542-0.8112-2.3829-1.0241-0.61854-0.22308-1.8151-0.58812-2.6465-0.80106-0.84162-0.22308-1.8049-0.4563-2.1395-0.51714-0.33462-0.0608-1.2371-0.17238-2.0179-0.2535-0.77064-0.0811-2.1598-0.1521-3.0927-0.14196zm-56.693 81.637c0.97344-0.0101 2.3221 0.0304 2.9913 0.0811s1.8759 0.19266 2.6871 0.3042c0.8112 0.12168 2.1598 0.3549 2.9913 0.51714 0.84162 0.17238 2.1192 0.46644 2.8595 0.6591 0.74022 0.19266 1.7644 0.507 2.2815 0.7098 0.51713 0.2028 1.3385 0.56784 1.8252 0.8112s1.1965 0.62868 1.5717 0.87204c0.37518 0.23322 1.0343 0.67938 1.45 0.98358 0.41574 0.31434 1.1661 0.95316 1.663 1.4297s1.1661 1.2168 1.5007 1.6528c0.33462 0.42588 0.8112 1.1357 1.0647 1.5717 0.2535 0.42588 0.61854 1.1458 0.8112 1.5818 0.2028 0.44616 0.49686 1.1965 0.6591 1.663s0.3549 1.3182 0.43602 1.886c0.0811 0.5577 0.1521 1.5311 0.1521 2.1598 0 0.61854-0.071 1.7542-0.1521 2.535-0.0811 0.77064-0.26364 2.2207-0.4056 3.2245-0.13182 1.0039-0.38532 2.8291-0.54756 4.056s-0.42588 3.1434-0.56784 4.2588-0.46644 3.6504-0.71994 5.6277c-0.24336 1.9773-0.6084 4.8266-0.80106 6.3375-0.19266 1.5007-0.48672 3.7822-0.6591 5.07-0.17238 1.2776-0.42588 3.2042-0.5577 4.2689s-0.33462 2.5857-0.44616 3.3969c-0.11154 0.80106-0.2535 1.7846-0.3042 2.17-0.0608 0.39546-0.22308 0.97344-0.36504 1.2979s-0.49686 0.94302-0.78078 1.3689-0.93288 1.1965-1.4399 1.6934c-0.507 0.507-1.3081 1.1762-1.7846 1.4906-0.47658 0.3042-1.0647 0.67938-1.3182 0.82134s-0.84162 0.41574-1.3182 0.6084-1.2979 0.48672-1.8252 0.6591-1.4399 0.43602-2.0077 0.56784c-0.57797 0.14196-1.7238 0.3549-2.535 0.48672-1.3385 0.21294-1.8354 0.23322-4.8875 0.23322-2.6871-0.0101-3.6504-0.0507-4.6137-0.19266-0.66924-0.0913-1.8556-0.31434-2.6364-0.47658-0.78078-0.17238-1.9874-0.46644-2.6871-0.66924s-1.7238-0.53742-2.2815-0.75036c-0.5577-0.2028-1.3588-0.51714-1.7745-0.68952-0.41574-0.18252-1.3588-0.63882-2.099-1.0241-0.74022-0.38532-1.6934-0.93288-2.1294-1.2269-0.43602-0.28392-1.014-0.67938-1.2979-0.88218-0.27378-0.2028-0.98359-0.7605-1.5717-1.2472-0.58812-0.48672-1.3182-1.156-1.6325-1.4804-0.30421-0.32448-0.83148-0.9126-1.1661-1.2979-0.33461-0.39546-0.84161-1.0343-1.1255-1.4196-0.28391-0.39546-0.70979-1.0343-0.94302-1.4196-0.24336-0.39546-0.77064-1.3689-1.1762-2.1801-0.39546-0.8112-0.90246-1.9266-1.1053-2.4843-0.21294-0.5577-0.53741-1.521-0.73008-2.1294-0.18252-0.61854-0.49686-1.8049-0.67938-2.6364-0.19266-0.84162-0.41574-1.9773-0.507-2.535-0.0913-0.5577-0.21294-1.521-0.28391-2.1294-0.0609-0.61854-0.12169-2.3018-0.12169-3.7518s0.0608-3.184 0.12169-3.8532c0.071-0.66924 0.22307-1.8759 0.33461-2.6871s0.31434-2.0686 0.4563-2.7885c0.14196-0.73008 0.43602-2.0483 0.66924-2.9406 0.22309-0.89232 0.6084-2.2105 0.8619-2.9203 0.2535-0.71994 0.74022-1.957 1.0951-2.7479 0.34476-0.79092 0.79092-1.7542 0.98358-2.1497 0.19266-0.38532 0.75036-1.4095 1.2472-2.2714 0.48672-0.8619 1.1053-1.9165 1.3689-2.3423 0.26364-0.43602 0.9126-1.3486 1.4297-2.028 0.52728-0.68952 1.3385-1.663 1.8151-2.1598 0.47658-0.48672 1.2979-1.2675 1.8252-1.7238 0.52728-0.46644 1.4196-1.1357 1.9773-1.4906 0.5577-0.36504 1.379-0.87204 1.8252-1.1255s1.2878-0.66924 1.8759-0.92274 1.4196-0.57798 1.8658-0.71994c0.43602-0.1521 1.3892-0.42588 2.1294-0.61854 0.73008-0.19266 1.9266-0.43602 2.6567-0.5577s1.6427-0.2535 2.028-0.29406c0.38532-0.0507 1.5007-0.0913 2.4742-0.0913zm-177.83-73.779c-1.3892-0.0304-2.9507-0.0101-3.478 0.0406-0.52728 0.0406-1.3892 0.17238-1.9165 0.29406-0.51714 0.11154-1.5007 0.37518-2.1801 0.57798-0.66924 0.21294-1.6832 0.54756-2.2409 0.75036s-1.3081 0.52728-1.6731 0.7098-1.0647 0.5577-1.5717 0.84162c-0.49686 0.27378-1.2776 0.7605-1.7238 1.0647-0.44616 0.31434-1.2472 0.90246-1.7745 1.3283-0.52728 0.41574-1.3486 1.1255-1.8151 1.5818-0.46644 0.44616-1.1762 1.1965-1.5818 1.6731-0.39546 0.47658-0.97344 1.2269-1.2878 1.6731-0.3042 0.44616-0.8112 1.2675-1.1255 1.8252s-0.9633 1.9063-1.4399 2.9913c-0.48672 1.085-1.379 3.0927-1.9976 4.4616s-1.7035 3.7619-2.4133 5.3235c-0.71994 1.5616-1.5717 3.4679-1.9165 4.2385s-0.61854 1.4196-0.61854 1.4399c0 0.0203-0.22308 0.507-0.49686 1.085-0.27378 0.56784-0.8619 1.8658-1.3081 2.8696s-1.1864 2.6465-1.6427 3.6504-1.085 2.393-1.3892 3.0927-1.5311 3.407-2.7175 6.0333c-1.1864 2.6161-2.5147 5.5669-2.9406 6.5403-0.43602 0.97344-0.94302 2.1193-1.1357 2.535-0.2028 0.41574-0.74022 1.6021-1.1965 2.6364-0.46644 1.0343-1.2979 2.8899-1.8658 4.1371s-1.0241 2.2916-1.0241 2.3221c0 0.0304-0.4563 1.0546-1.014 2.2714s-1.2878 2.8392-1.6123 3.6098-1.0951 2.4944-1.7137 3.8329c-0.6084 1.3385-1.7846 3.914-2.606 5.7291s-1.5311 3.3361-1.5818 3.3868-0.11154 0.071-0.14196 0.0406c-0.03042-0.0203-0.12168-0.58812-0.21294-1.2574-0.08112-0.6591-0.39546-2.5046-0.69966-4.0966-0.29406-1.592-0.6084-3.2752-0.69966-3.7518s-0.3042-1.6832-0.47658-2.6871-0.39546-2.2815-0.49686-2.8392-0.32448-1.8151-0.48672-2.7885c-0.17238-0.97344-0.4563-2.5046-0.61854-3.3969s-0.48672-2.6263-0.71994-3.8532-0.507-2.7074-0.6084-3.2955c-0.11154-0.58812-0.33462-1.8151-0.49686-2.7378s-0.57798-3.1535-0.92274-4.9686-0.78078-4.1675-0.97344-5.2221c-0.19266-1.0647-0.48672-2.7277-0.64896-3.7011-0.17238-0.97344-0.3549-2.0077-0.4056-2.2815-0.0507-0.28392-0.28392-1.4906-0.507-2.6871s-0.57798-2.7784-0.77064-3.4983c-0.2028-0.73008-0.56784-1.8455-0.82134-2.4843s-0.69966-1.6427-1.0039-2.2308c-0.29406-0.58812-0.75036-1.3892-1.014-1.7745-0.26364-0.39546-0.78078-1.0951-1.156-1.5717s-1.1357-1.2979-1.6832-1.8252c-0.5577-0.53742-1.5007-1.3385-2.099-1.7948-0.6084-0.44616-1.6123-1.085-2.2308-1.4095-0.62868-0.32448-1.5109-0.7605-1.9672-0.97344-0.46644-0.2028-1.3993-0.5577-2.0787-0.78078-0.68952-0.21294-1.6832-0.48672-2.2105-0.59826s-1.4906-0.26364-2.1294-0.33462c-0.63882-0.071-1.8759-0.13182-2.7378-0.13182s-2.1598 0.0507-2.8899 0.13182c-0.71994 0.071-1.9063 0.24336-2.6263 0.38532s-1.8151 0.4056-2.4336 0.58812-1.592 0.51714-2.17 0.75036c-0.56784 0.22308-1.5413 0.66924-2.17 0.98358-0.61854 0.31434-1.5007 0.79092-1.9469 1.0748-0.44616 0.27378-1.2979 0.88218-1.8759 1.3283-0.58812 0.4563-1.5616 1.3283-2.17 1.9469-0.6084 0.6084-1.4399 1.5311-1.8556 2.0381-0.4056 0.507-0.90246 1.1661-1.1053 1.4703s-0.6591 1.1357-1.0241 1.8556c-0.36504 0.7098-0.80106 1.6731-0.95316 2.1294-0.1521 0.44616-0.38532 1.2776-0.507 1.8353-0.11154 0.5577-0.28392 1.4906-0.36504 2.0787-0.09126 0.6084-0.1521 1.8353-0.1521 2.8696 0 0.99372 0.03042 2.1294 0.06084 2.535 0.04056 0.4056 0.2535 1.8049 0.46644 3.113 0.22308 1.3081 0.42588 2.4539 0.44616 2.535 0.02028 0.0811 0.16224 0.79092 0.29406 1.5717 0.14196 0.78078 0.61854 3.4476 1.0748 5.9319 0.44616 2.4843 0.95316 5.2627 1.1255 6.1854 0.16224 0.92274 0.39546 2.1497 0.49686 2.7378 0.11154 0.58812 0.42588 2.3423 0.7098 3.9039 0.27378 1.5616 0.64896 3.5693 0.8112 4.4616 0.17238 0.89232 0.44616 2.393 0.61854 3.3462 0.16224 0.94302 0.38532 2.2004 0.49686 2.7885 0.1014 0.58812 0.37518 2.0483 0.59826 3.2448s0.58812 3.184 0.82134 4.4109 0.507 2.7581 0.61854 3.3969 0.2535 1.3689 0.3042 1.6224c0.06084 0.2535 0.19266 0.95316 0.29406 1.5717 0.1014 0.6084 0.3549 2.0077 0.5577 3.0927s0.4563 2.4336 0.56784 2.9913c0.1014 0.5577 0.37518 1.9672 0.59826 3.1434 0.23322 1.1661 0.52728 2.8088 0.66924 3.6504 0.13182 0.83148 0.31434 1.7846 0.38532 2.1294 0.08112 0.33462 0.17238 0.83148 0.2028 1.1154 0.04056 0.27378 0.18252 1.0951 0.31434 1.8252 0.14196 0.71994 0.38532 2.0686 0.5577 2.9913s0.4056 2.1497 0.51714 2.7378 0.31434 1.7238 0.4563 2.535 0.29406 1.6325 0.34476 1.8252 0.14196 0.66924 0.2028 1.0647c0.06084 0.38532 0.27378 1.6021 0.46644 2.6871 0.2028 1.085 0.58812 3.184 0.8619 4.6644s0.63882 3.4172 0.80106 4.3095 0.54756 3.0826 0.8619 4.8672c0.3042 1.7846 0.79092 4.4312 1.0647 5.8812 0.28392 1.45 0.64896 3.407 0.8112 4.3602 0.16224 0.94302 0.47658 2.7277 0.7098 3.9546 0.22308 1.2269 0.48672 2.6161 0.56784 3.0927s0.33462 1.7745 0.54756 2.8899c0.22308 1.1154 0.51714 2.6668 0.64896 3.4476 0.14196 0.78078 0.41574 2.3119 0.61854 3.3969 0.19266 1.085 0.44616 2.4742 0.54756 3.0927 0.11154 0.6084 0.32448 1.7745 0.46644 2.5857 0.1521 0.8112 0.4563 2.4235 0.67938 3.5997 0.22308 1.1661 0.507 2.7581 0.63882 3.5186 0.13182 0.77064 0.33462 1.886 0.44616 2.4843 0.11154 0.6084 0.34476 1.8658 0.51714 2.8189 0.17238 0.94302 0.4563 2.4742 0.61854 3.3969 0.17238 0.92274 0.43602 2.3525 0.59826 3.1941 0.16224 0.83148 0.3549 1.886 0.44616 2.3322 0.08112 0.44616 0.27378 1.3588 0.41574 2.028 0.13182 0.66924 0.4056 1.7441 0.59826 2.3829s0.5577 1.6325 0.80106 2.1902c0.24336 0.56784 0.66924 1.4095 0.93288 1.8759s0.74022 1.2371 1.0546 1.7035c0.3042 0.46644 1.0444 1.379 1.6325 2.0077 0.58812 0.63882 1.4297 1.4602 1.8759 1.8252 0.44616 0.3549 1.2472 0.94302 1.7745 1.2979s1.5818 0.94302 2.3322 1.3081 1.8151 0.82134 2.3728 1.0241c0.54756 0.19266 1.5413 0.48672 2.2105 0.6591 0.67938 0.16224 1.7339 0.37518 2.3525 0.47658 0.83148 0.13182 1.7745 0.17238 3.6098 0.18252 2.1598 0 2.6567-0.0304 3.8431-0.23322 0.75036-0.13182 1.9165-0.37518 2.5857-0.53742 0.67938-0.16224 1.6123-0.41574 2.0888-0.56784 0.47658-0.14196 1.3892-0.46644 2.028-0.7098s1.6021-0.67938 2.1294-0.9633c0.52728-0.27378 1.6224-0.94302 2.4336-1.4804 1.2269-0.82134 1.7238-1.2371 2.9913-2.5046 1.0647-1.0546 1.7846-1.8759 2.3525-2.6871 0.44616-0.63882 1.0241-1.5514 1.2776-2.028s0.64896-1.2979 0.8619-1.8252c0.22308-0.52728 0.52728-1.3283 0.66924-1.7745 0.1521-0.44616 0.38532-1.4297 0.53742-2.1801 0.24336-1.2472 0.26364-1.592 0.27378-3.8532 0-1.886-0.04056-2.7479-0.17238-3.5997-0.09126-0.61854-0.29406-1.7542-0.43602-2.535s-0.41574-2.2207-0.59826-3.1941-0.36504-1.9773-0.4056-2.2308c-0.03042-0.2535-0.1521-0.93288-0.26364-1.521-0.1014-0.58812-0.56784-3.0927-1.014-5.577s-0.92274-5.1106-1.0546-5.8305c-0.13182-0.73008-0.44616-2.464-0.69966-3.8532-0.2535-1.3993-0.59826-3.3158-0.77064-4.2588-0.17238-0.95316-0.44616-2.4133-0.6084-3.2448-0.16224-0.84162-0.42588-2.2714-0.59826-3.1941s-0.37518-2.0888-0.4563-2.5857c-0.08112-0.507-0.3549-2.0584-0.61854-3.4476-0.2535-1.3993-0.64896-3.5186-0.87204-4.7151-0.23322-1.1965-0.53742-2.8392-0.69966-3.6504-0.1521-0.8112-0.36504-1.9165-0.4563-2.464-0.1014-0.54756-0.1521-1.0241-0.11154-1.0546 0.03042-0.0304 0.4056 0.2535 0.83148 0.63882s1.1053 0.99372 1.5109 1.3588 1.6021 1.45 2.6567 2.4235c1.0444 0.9633 2.6567 2.4539 3.5794 3.2955s2.0381 1.8759 2.4843 2.3018c0.44616 0.41574 1.9063 1.7644 3.2347 2.9913 1.3385 1.2168 2.7581 2.5147 3.1637 2.8798s1.4804 1.3385 2.393 2.1801c0.90246 0.83148 2.1801 1.9976 2.8189 2.5958s1.45 1.3283 1.7948 1.6224c0.34476 0.3042 1.5818 1.4399 2.7378 2.5249 1.1661 1.085 2.8899 2.6871 3.8329 3.549s2.1294 1.957 2.6364 2.4336 1.6021 1.4804 2.4336 2.2409c0.84161 0.7605 2.0686 1.8759 2.7479 2.4843 0.66924 0.6084 2.099 1.9266 3.1738 2.9305s2.4843 2.3119 3.1333 2.9203c0.6591 0.59826 1.5514 1.4196 2.0077 1.8252 0.44616 0.39546 1.9266 1.7542 3.2752 3.0116 1.3588 1.2574 3.0521 2.8088 3.7619 3.4476s2.17 1.9874 3.2448 2.9913 2.464 2.2714 3.0826 2.8189 1.8049 1.45 2.6465 2.0077c0.83148 0.5577 2.0686 1.2878 2.7378 1.6123 0.66924 0.33462 1.663 0.7605 2.2207 0.9633 0.54756 0.2028 1.6021 0.51714 2.3322 0.7098 0.74022 0.18252 1.7745 0.42588 2.3018 0.52728 0.79092 0.1521 1.4602 0.18252 3.8938 0.17238 2.6161 0 3.0623-0.0304 3.9952-0.22308 0.58812-0.12168 1.7137-0.4056 2.5147-0.62868 0.80106-0.23322 2.0179-0.61854 2.6972-0.88218 0.67938-0.2535 1.8252-0.71994 2.535-1.0444s1.6224-0.78078 2.028-1.014c0.4056-0.24336 1.1661-0.71994 1.6934-1.0748 0.52728-0.34476 1.4602-1.1053 2.0584-1.6731 0.6084-0.56784 1.5717-1.6021 2.1497-2.2916 0.58812-0.69966 1.3385-1.7542 1.6832-2.3423s0.80106-1.4399 1.014-1.9063 0.52728-1.1965 0.68952-1.6325 0.43602-1.2979 0.59826-1.9063c0.17238-0.61854 0.37518-1.6224 0.46644-2.2308 0.0811-0.61854 0.18252-1.4804 0.21294-1.9266 0.0406-0.56784 0-1.2979-0.14196-2.393s-0.32448-1.9266-0.56784-2.677c-0.19266-0.59826-0.62868-1.6123-0.9633-2.2612-0.33462-0.6591-0.9126-1.6021-1.2675-2.099-0.37518-0.52728-1.2574-1.5109-2.099-2.3322-0.80106-0.78078-2.0686-1.9672-2.8291-2.6364s-2.0584-1.8556-2.8899-2.6364c-0.84163-0.78078-2.5147-2.3322-3.7417-3.4476-1.2168-1.1154-2.5857-2.3728-3.0319-2.7885-0.45629-0.41574-1.5311-1.3993-2.393-2.1801s-1.886-1.7238-2.2815-2.0888c-0.38532-0.36504-1.3081-1.2067-2.028-1.8759-0.73008-0.6591-1.9367-1.7542-2.677-2.4235-0.75036-0.66924-2.0077-1.8049-2.7885-2.5249-0.79092-0.71994-1.886-1.7441-2.4437-2.2815s-2.1091-1.957-3.4476-3.1535-2.8189-2.5451-3.2955-2.9913-1.592-1.4703-2.4843-2.2815c-0.88219-0.8112-2.028-1.8556-2.535-2.3322-0.50701-0.47658-1.8353-1.6832-2.9507-2.6871-1.1053-1.0039-2.3626-2.1395-2.7784-2.535s-1.1661-1.0748-1.6731-1.521c-0.49686-0.44616-1.3892-1.2675-1.9773-1.8252-0.58812-0.5577-2.2308-2.0686-3.6504-3.3462-1.4196-1.2878-2.9507-2.677-3.3969-3.0927-0.4563-0.41574-1.4804-1.3588-2.2815-2.0888-0.8112-0.74022-2.5857-2.3525-3.9343-3.5896-1.3588-1.2472-2.4944-2.3119-2.5147-2.3829-0.0304-0.071 0.29406-0.85176 0.71994-1.7339 0.43602-0.89232 1.4602-3.0927 2.2815-4.9078s1.8252-4.0053 2.2308-4.8672 0.8112-1.7745 0.9126-2.028 0.64896-1.4602 1.2168-2.6871c0.57798-1.2269 1.2979-2.8291 1.6224-3.549 0.31434-0.73008 0.90246-2.0077 1.2979-2.8392 0.39546-0.84162 1.0241-2.2308 1.3993-3.0927s1.1053-2.4742 1.6224-3.5693c0.52728-1.0951 0.95316-2.0179 0.95316-2.0483 0-0.0203 1.014-2.2308 2.2409-4.8976 1.2371-2.6668 2.5147-5.4655 2.8493-6.2158s1.0343-2.2815 1.5514-3.3969 1.5514-3.3563 2.2916-4.9686c0.73009-1.6224 1.4095-3.1028 1.4906-3.2955 0.0811-0.19266 0.58813-1.3385 1.1357-2.535 0.54757-1.1965 1.4095-3.113 1.9266-4.2588 0.51713-1.1458 1.2979-2.8392 1.7339-3.7619 0.43602-0.93288 1.1661-2.5147 1.6123-3.5287s1.0951-2.4235 1.4297-3.1333c0.34476-0.7098 0.90246-1.9266 1.2574-2.7074 0.34476-0.78078 0.80106-1.8556 1.014-2.3829 0.2028-0.52728 0.507-1.4703 0.66924-2.0888s0.36504-1.6731 0.44616-2.3322c0.0811-0.6591 0.1521-1.5311 0.1521-1.9266 0-0.4056-0.0507-1.1965-0.11154-1.7745-0.0507-0.57798-0.19266-1.4196-0.30421-1.8658-0.12167-0.44616-0.35489-1.1965-0.54755-1.6731-0.18252-0.47658-0.52728-1.2472-0.7605-1.7238s-0.63882-1.1762-0.88218-1.5717c-0.2535-0.38532-0.74022-1.0647-1.0748-1.521-0.34476-0.44616-1.1864-1.3689-1.8759-2.0584-0.77064-0.7605-1.6934-1.5413-2.3829-2.028-0.61854-0.42588-1.3081-0.89232-1.5413-1.014-0.22309-0.13182-0.84162-0.46644-1.3689-0.73008-0.52729-0.27378-1.6021-0.69966-2.3829-0.9633-0.78078-0.2535-1.9266-0.57798-2.5553-0.71994-0.61854-0.13182-1.592-0.31434-2.1497-0.39546-0.59826-0.0913-2.0483-0.17238-3.5287-0.19266zm70.95 39.151c-0.63882-0.0203-1.7137-0.0101-2.3829 0.0304-0.66924 0.0507-1.7441 0.1521-2.3829 0.24336-0.63882 0.0811-1.663 0.27378-2.2815 0.42588-0.6084 0.1521-1.6832 0.4563-2.3829 0.67938s-1.8353 0.66924-2.535 1.0039c-0.68952 0.32448-1.7137 0.87204-2.2815 1.2168-0.5577 0.34476-1.2675 0.82134-1.5818 1.0647-0.32448 0.24336-1.014 0.82134-1.5413 1.2878s-1.2776 1.2168-1.6731 1.6528c-0.4056 0.43602-0.99372 1.1458-1.3182 1.5818-0.33462 0.43602-0.89232 1.3689-1.2574 2.0787s-0.83148 1.7441-1.0241 2.3018c-0.2028 0.5577-0.4563 1.4602-0.57798 2.0077-0.11154 0.5577-0.2535 1.7644-0.3042 2.7378-0.071 1.1661-0.071 2.2612 0 3.3158 0.0608 0.8619 0.26364 2.9812 0.4563 4.7151 0.2028 1.7238 0.46644 4.1878 0.60839 5.4756 0.13183 1.2776 0.30421 2.8798 0.39546 3.549 0.0811 0.66924 0.2028 1.7441 0.26364 2.3829 0.0608 0.63882 0.17238 1.8455 0.2535 2.6871 0.0811 0.83148 0.37518 3.6403 0.6591 6.2361s0.55771 5.1207 0.6084 5.6277c0.0507 0.49686 0.2535 2.3322 0.4563 4.056 0.19266 1.7339 0.41574 3.8532 0.49686 4.7151 0.0913 0.8619 0.27378 2.6668 0.41574 4.0053s0.36504 3.5084 0.507 4.8165 0.29406 2.8798 0.3549 3.4983c0.0507 0.6084 0.19266 1.957 0.3042 2.9913s0.29406 2.677 0.4056 3.6504c0.1014 0.97344 0.28392 2.6364 0.4056 3.7011 0.11155 1.0546 0.27379 2.5857 0.36505 3.3969 0.0811 0.8112 0.22308 2.1091 0.29406 2.8899 0.0811 0.78078 0.26363 2.4437 0.4056 3.7011 0.13182 1.2574 0.38532 3.5997 0.5577 5.2221 0.17237 1.6123 0.39546 3.7112 0.507 4.6644 0.11154 0.94302 0.27378 2.4336 0.3549 3.2955 0.0913 0.8619 0.26363 2.5553 0.4056 3.7518 0.13182 1.1965 0.31434 2.9305 0.4056 3.8532 0.0913 0.92274 0.2535 2.5249 0.3549 3.5591 0.11154 1.0444 0.22308 2.0686 0.24336 2.2815 0.0304 0.22308 0.1014 0.94302 0.16224 1.6123 0.071 0.66924 0.18252 1.7441 0.26364 2.3829 0.0811 0.63882 0.26363 1.6731 0.4056 2.3018 0.14196 0.61854 0.3549 1.4399 0.48672 1.8252 0.13181 0.37518 0.44616 1.1864 0.70979 1.7948 0.26364 0.6084 0.64896 1.4095 0.87205 1.7745 0.21294 0.36504 0.62868 1.014 0.92273 1.4297 0.28393 0.41574 1.1965 1.4297 2.0077 2.2409 1.156 1.1458 1.7542 1.6528 2.7378 2.3119 0.69966 0.46644 1.8556 1.1255 2.5857 1.4804 0.73008 0.3549 1.7441 0.78078 2.2409 0.95316 0.507 0.16224 1.2675 0.39546 1.6934 0.507 0.42588 0.11154 1.3588 0.3042 2.0787 0.43602 1.1762 0.21294 1.5818 0.23322 4.2892 0.22308 2.8899 0 3.0521-0.0203 4.7658-0.32448 0.97344-0.17238 2.3322-0.47658 3.0217-0.67938 0.67938-0.19266 1.5717-0.48672 1.9773-0.64896s1.0444-0.44616 1.4297-0.61854 1.156-0.59826 1.7238-0.94302c0.56784-0.33462 1.4602-0.94302 1.9874-1.3385 0.52728-0.4056 1.5109-1.2574 2.1801-1.8962 0.66924-0.64896 1.4804-1.5109 1.7948-1.9165 0.31434-0.41574 0.7605-1.0748 1.0039-1.4602 0.23322-0.39546 0.68952-1.2574 1.014-1.9266 0.31434-0.66924 0.75036-1.7644 0.95316-2.4336 0.19266-0.66924 0.4563-1.8049 0.56784-2.5249 0.17238-1.0748 0.2028-1.6224 0.16224-3.1434-0.0203-1.0039-0.11154-2.4539-0.2028-3.2042-0.0913-0.75036-0.3042-2.7175-0.47658-4.3602-0.17237-1.6427-0.37518-3.6504-0.46644-4.4616-0.0811-0.8112-0.22308-2.0888-0.3042-2.8392-0.0811-0.75036-0.28392-2.6465-0.44616-4.2081-0.17238-1.5616-0.42588-3.8431-0.56784-5.07-0.13182-1.2269-0.33462-3.0724-0.44616-4.1067s-0.26364-2.535-0.34476-3.3462c-0.0913-0.8112-0.2028-1.9469-0.26364-2.535-0.0608-0.58812-0.1521-1.3588-0.2028-1.7238s-0.23322-1.9874-0.39546-3.5997c-0.17237-1.6224-0.37518-3.5794-0.46644-4.3602-0.0913-0.78078-0.27378-2.4032-0.4056-3.5997s-0.27378-2.5046-0.3042-2.8899c-0.0406-0.39546-0.13182-1.2371-0.2028-1.8759-0.0811-0.63882-0.21294-1.9672-0.3042-2.9406-0.0811-0.97344-0.2028-2.1598-0.2535-2.6364-0.0608-0.47658-0.22308-1.9367-0.3549-3.2448-0.14196-1.3081-0.34476-3.113-0.4563-4.0053s-0.33462-2.9203-0.507-4.5123c-0.16224-1.592-0.32448-3.1637-0.35489-3.4983-0.0304-0.33462-0.12168-1.1762-0.2028-1.8759-0.0913-0.69966-0.24336-2.0888-0.3549-3.0927s-0.26364-2.3322-0.34476-2.9406c-0.0811-0.61854-0.2028-1.7745-0.26364-2.5857-0.0608-0.8112-0.17238-2.1091-0.2535-2.8899-0.0811-0.78078-0.22308-2.1497-0.3042-3.042-0.0913-0.89232-0.22308-2.17-0.3042-2.8392-0.0811-0.66924-0.31435-2.7479-0.51714-4.6137-0.19266-1.8658-0.4056-3.8126-0.4563-4.3095-0.0507-0.507-0.21295-1.8252-0.3549-2.9406-0.14196-1.1154-0.41574-2.6465-0.59826-3.3969-0.19266-0.75036-0.48672-1.7339-0.6591-2.1801s-0.54756-1.2371-0.83148-1.7644-0.67938-1.2067-0.89232-1.5007c-0.2028-0.3042-0.66924-0.9126-1.0241-1.3588-0.34476-0.4563-1.1864-1.3182-1.8556-1.9367-0.67938-0.61854-1.6731-1.4095-2.2105-1.7745-0.53742-0.3549-1.5413-0.93288-2.2308-1.2878-0.68952-0.34476-1.7948-0.82134-2.464-1.0444-0.66924-0.23322-1.6528-0.53742-2.1801-0.67938-0.52729-0.14196-1.6021-0.34476-2.3829-0.4563-0.78078-0.1014-1.9469-0.21294-2.5857-0.24336zm240.62 15.656c-1.6427 0.0101-3.6504 0.0608-4.4616 0.1014-0.8112 0.0507-2.2409 0.18252-3.1941 0.29406-0.94302 0.12168-2.3829 0.32448-3.1941 0.46644s-2.1497 0.41574-2.9913 0.61854c-0.83148 0.19266-2.0686 0.51714-2.7378 0.7098-0.66924 0.2028-1.5311 0.46644-1.9266 0.59826-0.38532 0.12168-1.0039 0.34476-1.3689 0.48672-0.36504 0.13182-0.9126 0.36504-1.2168 0.49686-0.3042 0.14196-0.94302 0.42588-1.4196 0.62868-0.47658 0.21294-1.4095 0.64896-2.0787 0.99372-0.66924 0.33462-1.6934 0.90246-2.2815 1.2675-0.58812 0.3549-1.379 0.8619-1.7745 1.1154-0.38532 0.2535-1.2371 0.8619-1.8759 1.3486s-1.7644 1.4297-2.5046 2.0888c-0.73008 0.6591-1.7542 1.6528-2.2815 2.2105-0.51714 0.5577-1.1965 1.3081-1.5109 1.6731s-0.95316 1.1864-1.4297 1.8252c-0.46644 0.63882-1.1458 1.6224-1.521 2.1801-0.36504 0.5577-0.93288 1.4906-1.2675 2.0787s-0.92274 1.6832-1.2979 2.4336-0.84162 1.7339-1.0343 2.1801-0.64896 1.6021-0.99372 2.5553c-0.3549 0.9633-0.83148 2.3626-1.0546 3.0927-0.22308 0.74022-0.51714 1.7846-0.64896 2.3119-0.14196 0.52728-0.37518 1.5109-0.51714 2.1902-0.14196 0.66924-0.37518 1.9469-0.51714 2.8392-0.14196 0.88218-0.3042 2.4539-0.36504 3.4882-0.071 1.0444-0.0913 2.7277-0.0608 3.8025 0.0406 1.0546 0.13182 2.4437 0.22308 3.0623 0.0811 0.62868 0.24336 1.6021 0.3549 2.1598 0.11154 0.56784 0.31434 1.4906 0.46644 2.0584 0.14196 0.56784 0.39546 1.4703 0.5577 1.9976 0.17238 0.52728 0.46644 1.3993 0.66924 1.9266s0.62868 1.5109 0.94302 2.1801 0.93288 1.8556 1.3588 2.6364c0.43602 0.78078 1.0241 1.7339 1.3081 2.1294 0.29406 0.38532 0.95316 1.2472 1.4703 1.9063 0.52728 0.66924 1.4297 1.7238 2.028 2.3626 0.58812 0.63882 1.7745 1.8151 2.6465 2.6161 0.87204 0.79092 1.9469 1.7542 2.393 2.1294s1.2472 1.0444 1.7745 1.4703c0.52728 0.43602 1.6731 1.3182 2.535 1.957 0.87204 0.64896 2.2815 1.663 3.1434 2.2511s2.5756 1.7137 3.8025 2.5147c1.2269 0.79092 3.2854 2.0787 4.563 2.8595 1.2878 0.77064 3.0623 1.8252 3.9546 2.3423 0.89232 0.507 2.3322 1.3081 3.1941 1.7745 0.8619 0.4563 2.3728 1.2776 3.3462 1.8049 0.97344 0.53742 2.5249 1.379 3.4476 1.8759s2.5958 1.4095 3.7315 2.0077c1.1357 0.6084 2.4133 1.3182 2.8392 1.5818 0.42588 0.2535 1.3486 0.84162 2.0483 1.3081 0.69966 0.4563 1.6528 1.1458 2.1294 1.521s1.3892 1.2168 2.0381 1.8658c0.77064 0.78078 1.3993 1.521 1.8353 2.1902 0.3549 0.54756 0.77064 1.2776 0.9126 1.6224 0.14196 0.33462 0.34476 0.94302 0.43602 1.3385 0.13182 0.53742 0.16224 0.95316 0.12168 1.521-0.0304 0.42588-0.13182 1.0546-0.22308 1.3892-0.0913 0.33462-0.36504 1.0343-0.61854 1.5413-0.32448 0.67938-0.61854 1.1053-1.0343 1.521-0.33462 0.34476-0.93288 0.79092-1.45 1.0647-0.47658 0.27378-1.2574 0.61854-1.7339 0.79092-0.67938 0.23322-1.1965 0.32448-2.2815 0.41574-0.80106 0.0608-2.0077 0.0811-2.8189 0.0406-0.78078-0.0304-1.7137-0.11154-2.0787-0.16224s-1.2776-0.23322-2.028-0.4056-1.8049-0.42588-2.3322-0.56784-1.8658-0.52728-2.9609-0.85176c-1.0951-0.33462-2.5046-0.80106-3.1434-1.0444-0.62868-0.24336-1.7644-0.68952-2.5147-1.0039-0.75036-0.3042-1.8658-0.77064-2.4843-1.0343-0.6084-0.26364-2.0483-0.95316-3.1941-1.5413s-2.4843-1.2979-2.9913-1.5818c-0.49686-0.28392-1.7542-1.0444-2.7885-1.7035-1.0343-0.64896-2.6668-1.7339-3.6403-2.4133-0.97344-0.68952-2.2308-1.6123-2.7885-2.0686-0.56784-0.4563-1.6427-1.3588-2.393-1.9976-0.75036-0.64896-1.7137-1.4297-2.1294-1.7441-0.41574-0.3042-1.2878-0.88218-1.9266-1.2878s-1.6325-0.9633-2.2105-1.2371c-0.56784-0.28392-1.4095-0.64896-1.8759-0.8112-0.4563-0.16224-1.379-0.4563-2.0483-0.64896-0.66924-0.18252-1.6528-0.42588-2.1801-0.52728-0.74022-0.13182-1.45-0.18252-3.042-0.17238-1.5413 0-2.3322 0.0507-3.042 0.18252-0.52728 0.1014-1.4095 0.29406-1.9672 0.42588-0.54756 0.14196-1.3689 0.39546-1.8252 0.5577-0.44616 0.17238-1.2574 0.53742-1.7846 0.8112s-1.3993 0.82134-1.9266 1.2168c-0.52728 0.38532-1.4196 1.1255-1.9672 1.6427-0.5577 0.507-1.4703 1.5007-2.028 2.2004s-1.1965 1.5616-1.4399 1.9266c-0.23322 0.36504-0.6591 1.0951-0.93288 1.6224-0.28392 0.52728-0.69966 1.4602-0.93288 2.0584-0.22308 0.59826-0.53742 1.5717-0.7098 2.1801-0.16224 0.59826-0.38532 1.6528-0.49686 2.3525s-0.2535 1.8556-0.31434 2.5857c-0.0608 0.71994-0.0913 1.6325-0.0507 2.028 0.0304 0.38532 0.1014 1.0546 0.16224 1.4703 0.0507 0.41574 0.19266 1.2168 0.3042 1.7745 0.12168 0.5577 0.3042 1.3283 0.41574 1.7238 0.1014 0.38532 0.27378 0.9126 0.3549 1.1661 0.0913 0.2535 0.42588 1.0343 0.75036 1.7441s0.85176 1.7137 1.1661 2.2207 0.92274 1.3689 1.3588 1.9063 1.3993 1.5717 2.1395 2.3018c0.75036 0.71994 1.7948 1.7035 2.3221 2.1801 0.52728 0.46644 1.2878 1.1357 1.6731 1.4703 0.39546 0.34476 1.1458 0.98358 1.6832 1.4297 0.52728 0.43602 1.663 1.3486 2.5147 2.0077 0.85176 0.66924 1.6427 1.2878 1.7644 1.3689 0.12168 0.0811 0.77064 0.53742 1.4399 1.0039 0.66924 0.47658 1.8151 1.2371 2.535 1.7035 0.73008 0.4563 1.886 1.1661 2.5857 1.5818 0.69966 0.4056 1.6325 0.95316 2.0787 1.2067s1.6528 0.90246 2.677 1.45 2.7682 1.4196 3.8735 1.9367c1.0951 0.51714 2.6972 1.2371 3.5591 1.592 0.85176 0.36504 1.9672 0.82134 2.4742 1.0241s1.5311 0.58812 2.2714 0.87204 1.7441 0.63882 2.2207 0.80106 1.5109 0.47658 2.2916 0.71994c0.78078 0.23322 1.7644 0.52728 2.1801 0.6591s1.3588 0.39546 2.0787 0.59826c0.73008 0.19266 1.8658 0.49686 2.5451 0.6591 0.66924 0.17238 1.8556 0.44616 2.6364 0.6084 0.77064 0.16224 2.0686 0.41574 2.8798 0.5577s2.5249 0.42588 3.8025 0.61854c1.2878 0.19266 3.2245 0.44616 4.3095 0.5577s3.4577 0.26364 5.2627 0.32448c2.4742 0.0811 4.0053 0.0811 6.2361 0 1.6224-0.071 3.5693-0.19266 4.3196-0.27378 0.75036-0.0811 1.9874-0.24336 2.7378-0.3549s2.1902-0.36504 3.1941-0.5577c1.0039-0.2028 2.6465-0.56784 3.6504-0.82134 1.0039-0.26364 2.4235-0.6591 3.1434-0.90246 0.73008-0.24336 1.6427-0.5577 2.028-0.7098 0.39546-0.14196 1.1255-0.42588 1.6224-0.62868 0.507-0.2028 1.5311-0.64896 2.2815-0.99372 0.7605-0.34476 2.1294-1.0444 3.042-1.5616s2.1902-1.2979 2.8493-1.7441c0.6591-0.43602 1.7542-1.2168 2.4437-1.7339 0.68952-0.507 1.7948-1.4196 2.464-2.0179s1.8049-1.7137 2.5249-2.4742c0.7098-0.75036 1.7035-1.886 2.2004-2.5147 0.507-0.62868 1.2472-1.6427 1.6528-2.2511 0.4056-0.61854 1.085-1.6832 1.5007-2.3829s0.98358-1.7035 1.2574-2.2308 0.73008-1.4703 1.0241-2.0787c0.28392-0.61854 0.69966-1.5514 0.92274-2.0787s0.6084-1.5818 0.8619-2.3322 0.66924-2.1193 0.92274-3.042c0.26364-0.92274 0.53742-1.9063 0.61854-2.1902 0.0811-0.28392 0.31434-1.3283 0.507-2.3322 0.2028-0.99372 0.4563-2.4742 0.56784-3.2854 0.1014-0.8112 0.24336-2.3119 0.3042-3.3462 0.071-1.3283 0.071-2.4437-0.0101-3.8025-0.0608-1.0647-0.2028-2.535-0.31434-3.2752-0.1014-0.74022-0.3042-1.8658-0.44616-2.4843-0.14196-0.62868-0.39546-1.6123-0.56784-2.2004s-0.44616-1.45-0.61854-1.9266-0.46644-1.2979-0.66924-1.8252c-0.19266-0.52728-0.63882-1.5413-0.99372-2.2511s-1.0039-1.8962-1.45-2.6364c-0.43602-0.74022-1.014-1.6427-1.2776-2.0077-0.27378-0.36504-0.83148-1.0951-1.2472-1.6224-0.42588-0.52728-1.8151-2.0179-3.1028-3.2955-1.2878-1.2878-2.8189-2.7074-3.407-3.1637s-1.4703-1.156-1.9773-1.5514c-0.49686-0.39546-1.7644-1.2878-2.8088-1.9773-1.0444-0.69966-2.6263-1.6832-3.4983-2.1902-0.88218-0.51714-2.7378-1.5818-4.1371-2.3728-1.3892-0.79092-3.2448-1.8455-4.1067-2.3322s-2.3728-1.3486-3.3462-1.9063-2.6161-1.4906-3.6504-2.0686c-1.0343-0.58812-2.1902-1.2574-2.5857-1.4906-0.38532-0.24336-1.0241-0.6084-1.4196-0.82134-0.38532-0.21294-1.3486-0.7605-2.1294-1.2168s-2.1497-1.2269-3.042-1.7238-2.3322-1.3081-3.1941-1.8049c-0.8619-0.507-2.1902-1.3081-2.9406-1.7846s-1.7542-1.1357-2.2105-1.4602c-0.46644-0.33462-1.3182-0.97344-1.8759-1.4196-0.56784-0.4563-1.4804-1.2472-2.0179-1.7745s-1.2168-1.2878-1.5007-1.7035-0.64896-1.0444-0.8112-1.3993-0.37518-0.95316-0.46644-1.3182c-0.16224-0.62868-0.16224-0.73008 0.0101-1.5616 0.0913-0.48672 0.31434-1.1762 0.48672-1.5413 0.18252-0.3549 0.58812-0.93288 0.9126-1.2776 0.44616-0.47658 0.80106-0.74022 1.521-1.0951 0.507-0.2535 1.2979-0.5577 1.7441-0.66924 0.44616-0.1014 1.4297-0.24336 2.1801-0.31434 0.82134-0.071 1.9976-0.0913 2.9406-0.0608 0.8619 0.0406 2.0381 0.13182 2.606 0.22308 0.56784 0.0811 1.4196 0.24336 1.8759 0.3549 0.46644 0.12168 1.9165 0.57798 3.2245 1.014s2.8189 0.9633 3.3462 1.1661 1.7137 0.73008 2.6364 1.156 2.17 1.0444 2.7784 1.3689c0.6084 0.33462 2.1395 1.2776 3.3868 2.1091s2.5756 1.7441 2.9507 2.0381c0.36504 0.28392 0.9633 0.75036 1.3283 1.0241 0.36504 0.28392 1.3892 1.085 2.2815 1.7846 0.89232 0.68952 2.1902 1.7238 2.8899 2.2815 0.69966 0.56784 1.6325 1.2776 2.0787 1.5818s1.1357 0.74022 1.521 0.97344c0.39546 0.22308 1.1762 0.64896 1.7542 0.93288 0.56784 0.28392 1.3892 0.6591 1.8252 0.83148 0.42588 0.17238 1.2269 0.44616 1.7745 0.6084 0.54756 0.1521 1.3486 0.3549 1.7745 0.43602 0.42588 0.0913 1.2979 0.23322 1.9367 0.31434 0.63882 0.0811 1.8252 0.1521 2.6364 0.1521s1.886-0.0507 2.393-0.1014c0.49686-0.0608 1.3689-0.2028 1.9266-0.31434 0.5577-0.12168 1.45-0.3549 1.9773-0.51714 0.52728-0.17238 1.3081-0.47658 1.7339-0.68952s0.99372-0.507 1.2675-0.66924c0.27378-0.1521 0.90246-0.5577 1.4095-0.89232 0.49686-0.33462 1.2371-0.87204 1.6427-1.1965 0.39546-0.32448 1.1458-1.0343 1.6528-1.5818 0.507-0.53742 1.3081-1.4906 1.7644-2.099 0.4563-0.61854 1.0444-1.45 1.3081-1.8556 0.2535-0.41574 0.66924-1.2371 0.93288-1.8455 0.2535-0.6084 0.59826-1.5717 0.7605-2.1497 0.16224-0.56784 0.39546-1.592 0.507-2.2612s0.24336-1.7644 0.28392-2.4437c0.0507-0.67938 0.0507-1.7948 0.0101-2.4843s-0.17238-1.8049-0.29406-2.464c-0.12168-0.66924-0.37518-1.7441-0.5577-2.3829-0.19266-0.64896-0.507-1.5514-0.69966-2.0077-0.19266-0.46644-0.507-1.1255-0.7098-1.4804-0.19266-0.36504-0.68952-1.1458-1.085-1.7441-0.39546-0.6084-1.0343-1.4703-1.4095-1.9165-0.37518-0.4563-1.2776-1.3892-1.9874-2.0888-0.71994-0.69966-1.8049-1.7137-2.4235-2.2511-0.6084-0.53742-1.6123-1.3689-2.2308-1.8556-0.6084-0.47658-1.4297-1.1154-1.8252-1.4095-0.38532-0.3042-1.3892-1.0343-2.2308-1.6325-0.83148-0.59826-2.5654-1.7846-3.8532-2.6364-1.2776-0.85176-2.5553-1.6832-2.8392-1.8455-0.27378-0.17238-1.2168-0.74022-2.0787-1.2675s-2.3018-1.3385-3.1941-1.8049-2.0483-1.0647-2.5654-1.3283c-0.51714-0.27378-1.592-0.78078-2.3829-1.1458-0.79092-0.3549-1.8962-0.84162-2.4539-1.0748s-1.379-0.56784-1.8252-0.73008c-0.44616-0.17238-1.4703-0.52728-2.2815-0.8112-0.8112-0.27378-2.2714-0.74022-3.2448-1.0343s-2.7277-0.78078-3.9039-1.0748c-1.1661-0.29406-2.6263-0.63882-3.2448-0.77064-0.6084-0.14196-1.7542-0.36504-2.535-0.49686-0.78078-0.14196-1.8556-0.34476-2.3829-0.4563s-2.0787-0.3549-3.4476-0.54756-3.1231-0.41574-3.9039-0.507c-0.78078-0.0913-2.2612-0.2028-3.2955-0.26364-1.0343-0.0507-3.2245-0.0913-4.8672-0.0913z" fill="none" stroke="#000" stroke-width="3"/>
</svg>
