<svg version="1.1" viewBox="0 0 512 512" xmlns="http://www.w3.org/2000/svg">
 <g fill="none" stroke="#000" stroke-width="3">
  <path d="m306.61 364.79c-3.384 0-6.1609 1.0406-8.3301 3.123-2.1692 2.1692-3.2969 4.9464-3.2969 8.5039 0 3.384 0.86703 6.0727 2.5156 8.0684 1.6486 2.0824 4.1657 3.2112 7.4629 3.3848 3.384 0.17354 6.2471-0.34773 8.5898-1.5625v-20.303c-2.4295-0.78093-4.7722-1.2148-6.9414-1.2148z"/>
  <path d="m362.38 223.98c-17.206 0.11647-34.24 3.434-50.232 9.7832 0.44749 3.624 0.0829 7.3482-0.87304 10.867-0.89069 3.5542-2.3358 6.9693-4.3613 10.027-4.06 6.2229-10.758 10.398-17.893 12.188-5.542 1.4492-11.342 1.6163-17.02 1.0449-2.9877-0.3315-5.9526-0.87243-8.8691-1.6016-25.16 25.782-39.3 60.343-39.426 96.367 7.8e-4 76.587 62.087 138.67 138.67 138.67 76.588 2.9e-4 138.68-62.086 138.68-138.67 2.9e-4 -76.589-62.087-138.68-138.68-138.68zm1.1035 42.709h0.18946c2.6324 0.10537 5.1836 0.79116 7.2461 2.0293 1.1941 0.79031 4.3437 2.8718 6.4062 7.9824l12.672 35.352v-32.191l-0.18945 0.52734-4.668 13.066-5.998-17.018c0.92272-3.9251 3.6652-7.1929 6.9219-8.7734 1.2213-0.57955 2.4962-0.86827 3.7988-0.94727 2.6053-0.15806 5.1842 0.55207 7.3281 1.9746 3.2295 2.3709 4.1514 5.2438 4.2871 10.223v34.93c-0.40707 5.7692-4.0444 8.9046-7.3281 10.354-1.5469 0.52686-2.1965 0.6582-3.9062 0.6582-2.8767 0.13172-6.3782-1.0524-8.875-3.9238-1.0313-1.0537-3.1211-6.1387-3.1211-6.1387l-12.023-32.086c-0.73275-1.8967-2.2517-2.8976-3.7715-2.9766s-3.0127 0.81617-3.6641 2.7129l-3.7988 10.09-6.377-16.754c3.148-5.6374 6.1593-7.0618 9.6602-8.3789 1.6826-0.52687 3.4469-0.76363 5.2109-0.71093zm-28.441 0.05273c2.8767 0 6.5139 1.0535 8.875 4.0566 1.0312 1.0537 3.1211 6.166 3.1211 6.166l12.021 31.928c0.73274 1.7914 2.171 2.7912 3.6094 2.9492 1.6012 0.15806 3.203-0.70981 3.9629-2.6856l3.6914-10.064 6.377 16.887c-3.1481 5.6374-6.1341 6.9289-9.6621 8.2461-1.3569 0.42149-2.7667 0.65834-4.2051 0.71094-3.0124 0.13173-6.0805-0.52772-8.4688-2.0293-1.167-0.76396-4.2873-2.739-6.377-7.8496l-12.539-35.484v32.322l0.29882-0.86914 4.3965-12.75 5.998 17.018c-0.78698 3.7934-3.6633 7.06-6.9199 8.6406-1.0313 0.47419-2.1707 0.76477-3.3105 0.89648-2.7139 0.31613-5.4823-0.42216-7.7891-1.8184-3.2566-2.4763-4.1805-5.2156-4.2891-10.326v-34.826c0.37994-5.8746 4.1537-9.0101 7.4375-10.459 1.4112-0.52687 2.0889-0.6582 3.7715-0.6582zm97.406 68.088c1.8187 0 3.3766 0.51875 4.6758 1.6445 1.2119 1.1258 1.8184 2.5133 1.8184 4.332v43.992c0 1.9915 0.8674 2.9434 2.6855 2.9434h1.2129c1.8187 0 3.2043 0.60664 4.3301 1.7324 1.0397 1.2125 1.5586 2.6858 1.5586 4.5039 0 1.7318-0.51913 3.2032-1.5586 4.416-1.1258 1.2119-2.5119 1.8184-4.3301 1.8184h-2.252c-9.7864 0-14.635-5.6276-14.635-16.973v-42.434c1e-5 -1.8187 0.6057-3.2062 1.9043-4.332 1.2125-1.1258 2.7711-1.6445 4.5898-1.6445zm-19.83 2.8477c1.8187 0 3.4638 0.69304 4.8496 1.9922 1.2992 1.3858 1.9922 3.0303 1.9922 4.8496s-0.69303 3.4645-1.9922 4.7637c-1.3858 1.2992-3.0309 1.9922-4.8496 1.9922s-3.4645-0.69303-4.7637-1.9922c-1.3858-1.2992-2.0781-2.945-2.0781-4.7637 0-1.8181 0.69229-3.4643 2.0781-4.8496 1.2991-1.2992 2.945-1.9922 4.7637-1.9922zm-163.04 1.3906h26.414c1.5592 0 2.8581 0.52072 3.8106 1.6465 0.95242 1.1258 1.4727 2.5109 1.4727 4.1562s-0.51968 2.944-1.4727 4.0703c-0.95297 1.1263-2.2513 1.6465-3.8106 1.6465h-19.398v13.162h15.314c1.5586 0 2.8581 0.6059 3.8106 1.8184 0.95298 1.2119 1.4726 2.599 1.4726 4.1582 0 1.6448-0.51968 2.9426-1.4726 4.0684-0.95299 1.1258-2.2513 1.7324-3.8106 1.7324h-15.314v18.619c0 1.8187-0.60766 3.2043-1.9062 4.3301-1.2986 1.1258-2.943 1.7324-4.7617 1.7324s-3.3786-0.60665-4.6777-1.7324c-1.2992-1.1258-1.9043-2.5119-1.9043-4.3301v-48.842c-3.7e-4 -1.7326 0.60588-3.2059 1.8184-4.418 1.2125-1.2121 2.6842-1.8184 4.416-1.8184zm90.068 14.805c3.2046 0 5.2821 1.2987 6.1484 3.8965 0.95241-1.1258 2.5124-1.9919 4.5039-2.7715 1.9915-0.77961 3.8108-1.125 5.6289-1.125 4.7626 0 8.7472 1.5587 11.951 4.5898 4.4164-3.0306 8.746-4.5898 12.99-4.5898 5.3689 0 9.6988 1.5579 13.076 4.6758 3.2907 3.204 4.9356 7.188 4.9356 11.951v23.729c0 1.8187-0.60589 3.2023-1.8184 4.3281-1.2992 1.1258-2.7712 1.6465-4.5898 1.6465-1.8187 0-3.3774-0.52071-4.5898-1.6465-1.2992-1.1258-1.9043-2.51-1.9043-4.3281v-20.438c0-5.4556-2.4248-8.3142-7.3613-8.5742-1.9915-0.08669-4.1574 0.51875-6.3223 1.6445 0.26008 0.95241 0.3457 2.1667 0.3457 3.6387v23.729c0 1.8187-0.60589 3.2023-1.8184 4.3281-1.2992 1.1263-2.8571 1.6465-4.6758 1.6465s-3.2914-0.52071-4.5039-1.6465c-1.2992-1.1252-1.9043-2.51-1.9043-4.3281v-20.438c0-5.4556-2.5107-8.3142-7.4473-8.5742-1.9915-0.08612-4.0702 0.51875-6.1484 1.6445v27.367c1e-5 1.8187-0.60785 3.2043-1.8203 4.3301-1.2992 1.1258-2.8576 1.6445-4.6758 1.6445-1.8181 0-3.2914-0.51876-4.5039-1.6445-1.2986-1.1258-1.9043-2.5119-1.9043-4.3301v-34.381c0-1.8181 0.6057-3.2043 1.9043-4.3301 1.2125-1.1258 2.6858-1.6445 4.5039-1.6445zm72.799 0c1.8181 0 3.3786 0.51875 4.6777 1.6445 1.2119 1.1264 1.8184 2.5119 1.8184 4.3301v34.381c0 1.8187-0.60645 3.2043-1.8184 4.3301-1.2992 1.1258-2.859 1.6445-4.6777 1.6445s-3.3774-0.51876-4.5898-1.6445c-1.2992-1.1258-1.9043-2.5119-1.9043-4.3301v-34.381c0-1.8187 0.60514-3.2043 1.9043-4.3301 1.2125-1.1258 2.7717-1.6445 4.5898-1.6445zm-108.77 0.00977c2.0788 0 3.9826 0.25974 5.8008 0.77929 1.732 0.60623 2.9463 1.127 3.6387 1.6465l1.125 0.77929c0.43342-0.95241 1.1262-1.7316 2.252-2.3379s2.2516-0.86718 3.5508-0.86718c1.8182 0 3.3766 0.52071 4.6758 1.6465 1.2119 1.1258 1.8184 2.5119 1.8184 4.3301v34.379c0 1.8181-0.60589 3.2043-1.8184 4.3301-1.2986 1.1258-2.8576 1.6465-4.6758 1.6465-2.8578 0-4.7629-1.1266-5.8887-3.4648-0.26006 0.26007-0.69455 0.52083-1.3008 0.95313-0.60605 0.43342-1.9046 0.95255-3.8965 1.5586-2.0782 0.60624-4.3297 0.95313-6.668 0.95313-6.0612 0-10.998-2.1656-14.809-6.582-3.8102-4.4164-5.7148-9.9601-5.7148-16.715-3.7e-4 -3.8971 0.69229-7.36 2.0781-10.391 1.2992-3.0312 3.1183-5.4573 5.2832-7.2754s4.5026-3.1179 7.0137-4.0703c2.5116-0.86611 5.0239-1.2988 7.5352-1.2988zm175.96 0.08398c0.76856-0.04334 1.5699 0.04334 2.3926 0.25977 1.732 0.52011 3.0308 1.4723 3.8965 2.7715 0.86629 1.3853 0.9539 2.8566 0.34766 4.502l-19.658 51.008c-0.60622 1.6453-0.86684 2.426-3.2051 3.2051-1.5588 0.51936-3.117 0.43102-4.6758-0.26172-1.6453-0.69291-2.7707-1.8171-3.377-3.2891-0.69292-1.4725-0.69411-3.1183-0.08789-4.7637l4.5898-11.865-13.855-34.033c-0.60624-1.4725-0.34695-2.9454 0.60547-4.418 0.95241-1.4725 2.1646-2.424 3.8105-2.8574 1.5586-0.43286 3.0314-0.3447 4.5039 0.34766 1.3853 0.69292 2.3391 1.8171 2.9453 3.2891l8.0527 22.258 8.4863-22.342c0.60568-1.5586 1.5593-2.6848 3.0312-3.291 0.69293-0.30312 1.4287-0.47619 2.1973-0.51953zm-173.01 11.26c-3.3777-3.7e-4 -6.1496 1.0402-8.3145 3.1191-2.1654 2.1649-3.291 4.9356-3.291 8.4863 0 3.3774 0.86639 6.0626 2.5117 8.0547 1.6453 2.0782 4.1566 3.2036 7.4473 3.377 3.3774 0.17263 6.234-0.34844 8.5723-1.5605v-20.264c-2.4244-0.77904-4.7615-1.2129-6.9258-1.2129z"/>
  <path d="m172.41 9.3457c-0.85782-0.00635-1.5688 4.684e-4 -1.5879 0.019531-0.0127 0.012708-0.66719 0.045391-1.4551 0.064453-0.78792 0.025417-1.7862 0.0693-2.2246 0.10742-0.43843 0.031771-0.89489 0.070784-1.0156 0.089844-0.12073 0.019059-0.75565 0.055626-1.4102 0.09375-0.65451 0.038125-1.8302 0.14588-2.6055 0.25391-0.78157 0.10167-1.8052 0.21773-2.2754 0.25586-0.47021 0.03812-1.3036 0.14591-1.8438 0.22852-0.54011 0.08896-1.4408 0.19721-2 0.24805-0.56553 0.05083-1.3356 0.15714-1.7168 0.24609-0.3876 0.0826-0.93963 0.19234-1.2383 0.23047-0.29865 0.03813-0.78144 0.12591-1.0801 0.18945-0.29864 0.06354-0.98528 0.19034-1.5254 0.2793-0.5401 0.08896-1.2448 0.23575-1.5625 0.31836-0.31771 0.08896-0.85172 0.20258-1.1758 0.25977-0.33042 0.05719-0.78295 0.15911-1.0117 0.22266-0.22875 0.06354-0.66665 0.17133-0.98437 0.22852-0.31134 0.05719-0.7678 0.15911-1.0156 0.22266-0.24146 0.0699-0.68767 0.17815-0.98632 0.24805-0.29865 0.07625-0.82434 0.21669-1.1738 0.31836-0.34948 0.10167-0.94833 0.27234-1.3359 0.38672-0.38125 0.10802-1.0167 0.27969-1.4043 0.375-0.39396 0.10167-0.77484 0.21578-0.85742 0.25391-0.0763 0.04448-0.48882 0.18492-0.9082 0.31836-0.42573 0.13344-0.99777 0.33094-1.2773 0.44531-0.27959 0.11438-0.85211 0.32942-1.2715 0.48828-0.41938 0.15886-0.97776 0.36367-1.2383 0.45898-0.26052 0.09531-0.57849 0.22211-0.69922 0.2793s-0.43869 0.19031-0.69922 0.30469c-0.26051 0.10802-0.71696 0.29284-1.0156 0.41992-0.29865 0.12073-0.64295 0.2724-0.76367 0.33594-0.12073 0.06354-0.56499 0.27958-0.98438 0.47656-0.41938 0.20334-0.88997 0.42521-1.0488 0.50781-0.15884 0.07625-0.59676 0.30643-0.98437 0.50977-0.38125 0.20334-0.81334 0.44424-0.95313 0.5332-0.1398 0.09531-0.36802 0.22161-0.50781 0.28516-0.1398 0.05719-0.41485 0.21081-0.60547 0.33789-0.19063 0.12073-0.70417 0.45088-1.1426 0.73047-0.43844 0.28594-0.95291 0.62242-1.1562 0.75586-0.19698 0.13979-0.37547 0.24805-0.39453 0.24805-0.0191 0-0.26046 0.14581-0.52734 0.33008-0.27323 0.18427-0.72434 0.50906-1.0039 0.71875-0.27958 0.21604-0.56633 0.42477-0.64258 0.46289-0.0763 0.03813-0.24644 0.16492-0.39258 0.2793-0.13979 0.11438-0.4319 0.34943-0.65429 0.52734-0.21605 0.17156-0.63061 0.5144-0.91016 0.75586-0.28594 0.24146-0.70437 0.57844-0.93945 0.75-0.24146 0.17156-0.43164 0.35005-0.43164 0.39453s-0.14093 0.20883-0.3125 0.36133c-0.17156 0.1525-0.50172 0.45292-0.73047 0.65625-0.22875 0.20969-0.41992 0.41255-0.41992 0.45703s-0.05709 0.10203-0.12696 0.12109c-0.0699 0.01906-0.12695 0.069792-0.12695 0.10156 0 0.03177-0.04438 0.05664-0.10156 0.05664-0.0572 0-0.07618 0.031702-0.05078 0.076172 0.0381 0.06354 0.02498 0.06354-0.04492 0-0.0445-0.03812-0.10105-0.076172-0.13282-0.076172-0.0254 0-0.03755 0.069741-0.03125 0.15234 6e-3 0.10802-0.10275 0.27997-0.36328 0.57227-0.20333 0.22875-0.41255 0.41992-0.45703 0.41992-0.0508 0-0.08789 0.057062-0.08789 0.12695 0 0.08261-0.04483 0.12695-0.12109 0.12695-0.0699 0-0.14696 0.057051-0.16602 0.12695-0.0191 0.06989-0.06978 0.12695-0.10156 0.12695-0.0318 0-0.08247 0.050228-0.10156 0.10742-0.0254 0.05719-0.08784 0.15375-0.13868 0.21094-0.0572 0.05719-0.22981 0.25909-0.38867 0.44336-0.15885 0.19063-0.42608 0.50273-0.59765 0.69336-0.16521 0.19698-0.35492 0.42471-0.41211 0.51367-0.0508 0.08896-0.19812 0.28646-0.3125 0.44531-0.11437 0.15885-0.27873 0.36854-0.36133 0.47656-0.0826 0.10167-0.41372 0.55379-0.74414 0.99219-0.32407 0.43844-0.6918 0.97096-0.8125 1.1934-0.12073 0.21604-0.40065 0.66714-0.62305 1.0039-0.21604 0.33042-0.48914 0.78197-0.60351 0.99805-0.12073 0.20969-0.33774 0.58422-0.49024 0.83203-0.1525 0.24146-0.45583 0.79496-0.67187 1.2207-0.21604 0.42573-0.4199 0.83927-0.44532 0.92188-0.0254 0.07625-0.12684 0.24792-0.22851 0.375-0.10166 0.12708-0.20992 0.33581-0.24805 0.46289-0.0381 0.13344-0.15174 0.38849-0.25977 0.56641-0.10801 0.18427-0.24896 0.4832-0.3125 0.67383-0.06989 0.19063-0.14546 0.37349-0.18359 0.41797-0.0381 0.04448-0.13956 0.29271-0.22851 0.54688-0.089 0.26052-0.20358 0.53362-0.24805 0.60352-0.0508 0.07625-0.19127 0.39422-0.31836 0.69922-0.12707 0.31136-0.32459 0.85705-0.44531 1.2129-0.12073 0.35584-0.25971 0.71236-0.31055 0.79492-0.0508 0.08257-0.15325 0.34984-0.2168 0.59766-0.0699 0.24782-0.17132 0.53896-0.22851 0.64062-0.0508 0.10802-0.15813 0.41963-0.23438 0.69922-0.0762 0.27323-0.20304 0.64238-0.27929 0.82031-0.0763 0.17793-0.19086 0.50807-0.24805 0.73047-0.0572 0.2224-0.20349 0.69346-0.32422 1.043-0.12073 0.34948-0.22266 0.69182-0.22266 0.76172s-0.09603 0.47126-0.21679 0.89062c-0.12073 0.41938-0.27336 1.0021-0.34961 1.3008-0.0699 0.29865-0.1962 0.8263-0.28516 1.1758-0.089 0.34948-0.285 1.1766-0.4375 1.8438-0.15886 0.66084-0.34417 1.4616-0.41406 1.7793-0.0763 0.31136-0.19133 0.98385-0.26758 1.4922-0.0699 0.50834-0.18402 1.1501-0.25391 1.4297-0.0699 0.27959-0.1962 0.99255-0.28515 1.5898-0.0826 0.59094-0.18503 1.2259-0.2168 1.4102-0.0381 0.18427-0.09465 0.57151-0.13281 0.85742-0.0381 0.2923-0.12102 0.95307-0.19727 1.4805-0.0699 0.52104-0.17669 1.3545-0.24023 1.8438-0.06354 0.48927-0.13474 1.0862-0.16016 1.334-0.019059 0.24146-0.051252 0.66136-0.070312 0.92188s-0.069789 0.77407-0.10156 1.1426c-0.03813 0.36854-0.081541 0.68016-0.087891 0.69922-0.01271 0.01906-0.045383 0.47746-0.064453 1.0176-0.02542 0.54011-0.070283 1.2389-0.095703 1.5566-0.02542 0.31136-0.05565 1.0409-0.06836 1.6191-0.01271 0.57823-0.02539 1.4502-0.02539 1.9395 0 0.48928 0.023898 1.7913 0.042968 2.8906 0.02542 1.0993 0.077107 2.2994 0.11524 2.668 0.03813 0.36854 0.09518 0.83914 0.12695 1.0488 0.03177 0.20969 0.088831 0.74954 0.12695 1.207 0.03812 0.45115 0.12737 1.1563 0.19727 1.5566 0.06354 0.40032 0.20253 1.2337 0.31054 1.8438 0.10802 0.61 0.24896 1.3088 0.3125 1.5566 0.0699 0.24146 0.17133 0.68572 0.22852 0.98438 0.0572 0.29866 0.15228 0.64099 0.20312 0.76172 0.0508 0.12073 0.18396 0.56694 0.30469 0.98633 0.11438 0.41938 0.32992 1.0919 0.48242 1.4922 0.14615 0.40032 0.35584 1.005 0.47657 1.3418 0.11437 0.33677 0.28067 0.7625 0.36328 0.95312 0.0826 0.19063 0.17184 0.42518 0.19726 0.5332 0.0254 0.10167 0.16489 0.43182 0.30469 0.73047 0.13979 0.29865 0.41972 0.87117 0.62305 1.2715 0.20334 0.40031 0.5203 1.0299 0.71093 1.3984 0.19062 0.36855 0.50128 0.92057 0.68555 1.2383 0.19063 0.31135 0.43836 0.70442 0.55274 0.86328 0.11436 0.1652 0.21093 0.31248 0.21093 0.3379 0 0.02539 0.17799 0.29752 0.40039 0.61523 0.21604 0.31771 0.57061 0.84049 0.79297 1.1582 0.22239 0.32407 0.51645 0.71758 0.65625 0.88281 0.13979 0.16523 0.35534 0.43831 0.48242 0.60352 0.12709 0.17156 0.39337 0.48854 0.58399 0.71094 0.19699 0.2224 0.54663 0.60963 0.77539 0.85742 0.2351 0.24782 0.52038 0.56578 0.63476 0.69922 0.12073 0.13979 0.7069 0.74302 1.3106 1.334 0.59729 0.59729 1.4288 1.4112 1.8418 1.7988 0.41302 0.39396 0.8768 0.8075 1.0293 0.92188s0.52118 0.38746 0.82618 0.60351c0.29865 0.21604 0.5776 0.41989 0.60937 0.44531 0.0381 0.0318 0.23563 0.18295 0.44531 0.3418 0.20969 0.15886 0.58475 0.42073 0.82618 0.58594 0.24781 0.16521 0.51455 0.34271 0.60351 0.40625 0.089 0.0572 0.24794 0.18449 0.34961 0.27344 0.10802 0.0953 0.40745 0.29867 0.66797 0.45117 0.26052 0.15886 0.54631 0.33002 0.62891 0.38086 0.089 0.0445 0.20939 0.13276 0.27929 0.18359 0.0699 0.0508 0.2157 0.17227 0.33008 0.26758 0.10802 0.0953 0.38062 0.26599 0.60938 0.38672 0.22239 0.12073 0.61008 0.35627 0.85156 0.52148 0.24782 0.16521 0.5921 0.36807 0.76367 0.45703 0.17791 0.0889 0.36127 0.19721 0.41211 0.24805 0.0572 0.0445 0.28541 0.18541 0.50781 0.3125 0.22875 0.12708 0.54086 0.27971 0.69336 0.34961s0.35 0.18451 0.44531 0.24805c0.089 0.0636 0.53912 0.30981 0.99024 0.54492 0.45751 0.24146 1.2397 0.64282 1.748 0.89062 0.50834 0.25417 1.5373 0.76233 2.2871 1.1309 0.7498 0.36853 1.6974 0.81232 2.0977 0.99024 0.40032 0.18427 0.95869 0.43883 1.2383 0.57226 0.27958 0.13344 0.68092 0.31243 0.89063 0.38868 0.20969 0.08259 0.41159 0.16404 0.44336 0.18945 0.0381 0.0254 0.23562 0.1088 0.44531 0.1914 0.20968 0.0826 0.4506 0.19722 0.5332 0.24805 0.0826 0.0572 0.29865 0.14545 0.47656 0.20899 0.17791 0.0635 0.35592 0.11523 0.4004 0.11523 0.0445 0 0.28684 0.09408 0.54101 0.21484 0.25417 0.11437 0.53409 0.23485 0.62305 0.25391 0.089 0.0254 0.27231 0.08924 0.41211 0.14648 0.13979 0.0572 0.37533 0.15912 0.52148 0.22266 0.14615 0.0635 0.29927 0.11523 0.34375 0.11523 0.0381 0 0.29172 0.09409 0.5586 0.21485 0.26688 0.12073 0.61654 0.24898 0.77539 0.28711 0.16521 0.0381 0.47682 0.15223 0.69921 0.2539 0.2224 0.10167 0.49599 0.20945 0.59766 0.22852 0.10802 0.0254 0.45036 0.15172 0.76172 0.28516 0.31771 0.12709 0.73123 0.30021 0.92188 0.38281 0.19062 0.0763 0.50859 0.19622 0.69921 0.25976 0.19063 0.0635 0.52078 0.17229 0.73047 0.24219 0.20969 0.0635 0.62128 0.20839 0.91992 0.31641s0.59807 0.22994 0.66797 0.26172c0.0699 0.0318 0.20937 0.0888 0.30469 0.12695 0.10166 0.0381 0.40159 0.10687 0.66211 0.16406 0.26052 0.0508 0.6282 0.16544 0.8125 0.24805 0.18427 0.0762 0.5393 0.19086 0.78711 0.24805 0.24782 0.0572 0.66182 0.18348 0.91602 0.28515 0.24781 0.10167 0.61012 0.21774 0.80078 0.25586 0.19066 0.0381 0.5086 0.15224 0.69922 0.25391 0.19697 0.0953 0.46958 0.21578 0.60937 0.2539 0.1398 0.0445 0.42508 0.14591 0.63477 0.22852 0.20968 0.0826 0.62323 0.19672 0.92187 0.25391 0.29864 0.0572 0.73167 0.17129 0.9668 0.2539 0.23513 0.0826 0.67891 0.19672 0.99023 0.25391 0.305 0.0508 0.69904 0.13471 0.87696 0.18555 0.17155 0.0508 0.52854 0.13861 0.78906 0.18945 0.26052 0.0508 0.88814 0.14007 1.3965 0.19726 0.50834 0.0572 1.1052 0.1523 1.334 0.20313 0.32406 0.0763 0.99135 0.10789 3.209 0.12695 1.8999 0.0191 2.9937 0.00763 3.4004-0.04297 0.33042-0.0381 0.83175-0.0952 1.1113-0.12695 0.27959-0.0318 1.0233-0.10298 1.6523-0.16016 0.62907-0.0572 1.3035-0.13862 1.4941-0.18945 0.19063-0.0508 0.61004-0.13471 0.92774-0.18555 0.31771-0.0572 0.8005-0.11961 1.0801-0.13867 0.27324-0.0191 0.66091-0.07662 0.85156-0.12109 0.19065-0.0445 0.50859-0.12691 0.69922-0.17774 0.19061-0.0572 0.6227-0.14593 0.95312-0.20312 0.33041-0.0635 0.81955-0.17911 1.0801-0.26172 0.26052-0.0826 0.77406-0.21573 1.1426-0.30469 0.36851-0.089 0.98544-0.24794 1.373-0.34961 0.3876-0.10167 0.81333-0.23382 0.95312-0.29101 0.13344-0.0572 0.47628-0.17326 0.75586-0.25586 0.27959-0.0762 0.9784-0.30448 1.5566-0.50781 0.57823-0.19698 1.2527-0.42522 1.4941-0.50782 0.24781-0.0826 0.81838-0.29815 1.2695-0.48242 0.4575-0.17792 0.88324-0.37007 0.95313-0.4082 0.0699-0.0445 0.31225-0.14445 0.54101-0.2207 0.22875-0.0826 0.47112-0.18599 0.54102-0.23047 0.0699-0.0445 0.35518-0.17811 0.63476-0.29883 0.27959-0.12073 0.69314-0.30409 0.92188-0.41211 0.22875-0.10167 0.65447-0.29138 0.95312-0.41211 0.29864-0.12073 1.0545-0.49089 1.6836-0.80859 0.62907-0.32406 1.2445-0.65422 1.3652-0.73047 0.12073-0.0699 0.45089-0.24156 0.73047-0.375 0.27959-0.12709 0.65464-0.34313 0.82617-0.47656 0.17792-0.13344 0.45102-0.31047 0.60352-0.38672 0.15886-0.0762 0.35635-0.19673 0.44531-0.25391 0.089-0.0635 0.31719-0.20448 0.50781-0.3125 0.19063-0.10802 0.50859-0.28505 0.69922-0.38672s0.4964-0.27917 0.66797-0.40625c0.17791-0.12073 0.66067-0.43283 1.0801-0.69336 0.41941-0.26052 0.86364-0.52679 0.98437-0.58398 0.12073-0.0635 0.59863-0.40002 1.0625-0.75586 0.4575-0.35583 1.3972-1.0561 2.0898-1.5645 0.68626-0.50832 1.41-1.0414 1.6133-1.1875 0.19698-0.1525 0.4452-0.3495 0.54687-0.45117 0.10166-0.10167 0.40109-0.36939 0.66797-0.59179 0.26052-0.22239 0.55167-0.46868 0.64063-0.54493 0.0953-0.0763 0.23575-0.17913 0.31836-0.23632 0.0826-0.0508 0.36252-0.29907 0.62304-0.54688 0.26053-0.24782 0.61554-0.57065 0.78711-0.7168 0.17156-0.14615 0.57293-0.508 0.89063-0.80664 0.31771-0.29229 0.92046-0.88335 1.3398-1.3027 0.41937-0.42573 1.106-1.1319 1.5254-1.5703s0.90752-0.96659 1.0918-1.1699c0.17791-0.20332 0.44565-0.5013 0.5918-0.66015 0.14615-0.15886 0.39338-0.45828 0.55859-0.66797 0.15886-0.20969 0.55337-0.68617 0.87109-1.0547 0.31135-0.36854 0.69906-0.85035 0.85157-1.0664 0.15886-0.21604 0.41195-0.52815 0.56445-0.69336 0.15885-0.16521 0.4651-0.53925 0.6875-0.83789s0.55888-0.78824 0.75586-1.0996c0.19063-0.305 0.52078-0.78776 0.73047-1.0801 0.20969-0.28594 0.43792-0.61122 0.50781-0.71289 0.0699-0.10802 0.25424-0.38014 0.40039-0.61524 0.14614-0.22876 0.34364-0.54672 0.44531-0.69922 0.0953-0.14614 0.32355-0.50898 0.50782-0.79492 0.17792-0.28593 0.42614-0.68535 0.54687-0.88867 0.12074-0.20332 0.33091-0.58515 0.4707-0.8457s0.43727-0.85158 0.66602-1.3027c0.2224-0.4575 0.45794-0.89542 0.52148-0.98438 0.0572-0.08896 0.22936-0.38838 0.36914-0.66797 0.14615-0.27959 0.42657-0.85015 0.61719-1.2695s0.39398-0.83292 0.45117-0.92188c0.0508-0.08896 0.13863-0.26013 0.18946-0.38086 0.0508-0.12073 0.12788-0.2919 0.16601-0.38086 0.0318-0.08896 0.11371-0.27427 0.1836-0.41406 0.0635-0.13979 0.26008-0.59623 0.43164-1.0156 0.17157-0.41939 0.33005-0.83292 0.35547-0.92188 0.0254-0.088959 0.10879-0.305 0.1914-0.47656 0.0763-0.17792 0.24742-0.60364 0.38086-0.95312 0.13343-0.34948 0.29339-0.80789 0.36328-1.0176 0.0699-0.20969 0.20889-0.58474 0.31055-0.82617 0.10167-0.24782 0.25479-0.68572 0.34375-0.98438 0.089-0.29865 0.23526-0.79997 0.32422-1.1113 0.089-0.31771 0.26063-0.87169 0.375-1.2402 0.11438-0.36854 0.24167-0.825 0.27344-1.0156 0.0381-0.19062 0.16442-0.66755 0.28515-1.0488 0.12073-0.38761 0.23435-0.84552 0.25977-1.0234 0.0191-0.18427 0.1083-0.5656 0.19726-0.85156 0.0826-0.28594 0.20307-0.82481 0.25391-1.1934 0.0572-0.3749 0.18545-1.0547 0.28711-1.5059 0.0953-0.4575 0.23479-1.2153 0.30469-1.6855 0.0763-0.47021 0.17718-1.3407 0.23437-1.9316 0.0762-0.78792 0.10938-1.7019 0.10938-3.3984-6e-3 -1.2772-0.03222-2.6685-0.07032-3.0879-0.0318-0.41938-0.10737-1.1182-0.1582-1.5566-0.0508-0.43844-0.12789-1.068-0.16601-1.3984-0.0381-0.33042-0.09466-0.78881-0.13282-1.0176-0.0318-0.22875-0.11565-0.69741-0.18554-1.0469-0.0699-0.34948-0.18401-0.96687-0.25391-1.3672-0.0699-0.40031-0.18451-0.9587-0.24805-1.2383-0.0635-0.27958-0.15278-0.7258-0.19726-0.98633-0.0381-0.26052-0.14542-0.6926-0.23438-0.95312-0.0826-0.26052-0.2221-0.77403-0.30469-1.1426-0.07629-0.36854-0.22304-0.94107-0.31835-1.2715-0.0953-0.33042-0.25331-0.86442-0.36133-1.1758-0.10803-0.31771-0.25529-0.80049-0.33789-1.0801-0.0763-0.27959-0.23378-0.80724-0.3418-1.1758-0.11438-0.36854-0.27433-0.825-0.36328-1.0156-0.0826-0.19063-0.24646-0.63684-0.36719-0.98633-0.11437-0.34948-0.31236-0.90786-0.43945-1.2383-0.12073-0.33042-0.26117-0.70547-0.31836-0.82617-0.0572-0.1207-0.23372-0.56499-0.39258-0.98438-0.15885-0.41938-0.41926-1.0226-0.57812-1.334-0.15249-0.31771-0.28125-0.59763-0.28125-0.62305s-0.06287-0.1844-0.13282-0.34961c-0.0763-0.16521-0.29179-0.62902-0.48242-1.0293-0.19062-0.40032-0.49005-1.0177-0.66797-1.3672-0.17792-0.34948-0.36177-0.67914-0.40625-0.73633-0.0508-0.05719-0.26687-0.4566-0.47656-0.88867-0.21604-0.43209-0.45059-0.87685-0.5332-0.97852-0.0763-0.10802-0.22304-0.35039-0.31836-0.54102-0.0953-0.19063-0.22162-0.40667-0.28516-0.47656-0.0572-0.0699-0.12741-0.20401-0.14648-0.29297-0.0254-0.08896-0.16536-0.3557-0.32422-0.60352-0.15885-0.24146-0.49534-0.76767-0.75586-1.168-0.26052-0.40032-0.60482-0.94651-0.76367-1.207-0.16521-0.26052-0.36757-0.5663-0.46289-0.66797-0.089-0.10802-0.23575-0.31771-0.31836-0.47656-0.089-0.15886-0.24695-0.43146-0.36133-0.60938-0.11437-0.17792-0.29823-0.43833-0.40625-0.57812-0.11438-0.14615-0.21094-0.28659-0.21094-0.31836s-0.11411-0.2039-0.2539-0.39453c-0.13979-0.18427-0.36217-0.46419-0.50196-0.62305-0.13979-0.1525-0.39338-0.48851-0.55859-0.73633-0.16521-0.25417-0.44513-0.61603-0.62305-0.80664-0.17156-0.19698-0.47003-0.54127-0.6543-0.76367-0.18427-0.22875-0.45833-0.57792-0.61718-0.78125-0.15886-0.19698-0.27297-0.36133-0.25391-0.36133 0.0191 0-0.18966-0.22286-0.46289-0.49609-0.26688-0.27323-0.83257-0.85062-1.252-1.2891-0.41938-0.43844-0.95922-1.0051-1.207-1.2656-0.24146-0.26052-0.4385-0.49607-0.42579-0.52148 6e-3 -0.03177-0.05755-0.081523-0.14648-0.11328-0.089-0.03177-0.27914-0.18539-0.43164-0.33789-0.14614-0.14615-0.35096-0.33-0.45899-0.40625-0.10165-0.0826-0.1519-0.14648-0.10742-0.14648 0.0381 0 0.07617-0.03073 0.07618-0.0625 0-0.03813-0.05166-0.064453-0.11524-0.064453-0.0635 0-0.53954-0.39941-1.0606-0.88867-0.5274-0.48928-1.1121-0.99792-1.3027-1.125-0.19062-0.12708-0.46373-0.32362-0.60352-0.43164-0.1398-0.10167-0.46409-0.36258-0.72461-0.57226-0.26053-0.20969-0.60285-0.4901-0.76171-0.61719-0.15885-0.13344-0.41927-0.30362-0.57813-0.39258-0.15885-0.08261-0.48265-0.29864-0.73047-0.47656-0.24146-0.17792-0.51455-0.37542-0.60351-0.44531-0.089-0.06354-0.4898-0.33078-0.89649-0.59766-0.40667-0.26052-0.80119-0.49461-0.87109-0.51367-0.0763-0.02542-0.29862-0.16635-0.50195-0.3125s-0.56467-0.38706-0.8125-0.5332c-0.24146-0.13979-0.74328-0.40607-1.1055-0.58398-0.36219-0.17792-0.73725-0.38177-0.82618-0.44531-0.0889-0.06354-0.23525-0.1406-0.32421-0.16602-0.089-0.02542-0.3172-0.12734-0.50782-0.22266-0.19063-0.09531-0.59199-0.29185-0.89062-0.43164-0.29865-0.14615-0.73655-0.33633-0.98438-0.43164-0.24146-0.08896-0.76278-0.31719-1.1504-0.50781-0.38761-0.19062-0.87674-0.4013-1.0801-0.46484-0.20333-0.0699-0.51544-0.17815-0.69335-0.24805-0.17157-0.0699-0.64853-0.22838-1.0488-0.35547-0.4003-0.12073-0.92601-0.26703-1.1738-0.32422-0.24146-0.05719-0.59747-0.17667-0.77539-0.26562-0.18427-0.08896-0.33789-0.19088-0.33789-0.22266 0-0.03177-0.06242-0.051282-0.13867-0.044922-0.0826 0.0064-0.31766-0.007302-0.52735-0.039062-0.20969-0.02542-0.5662-0.11271-0.79492-0.19531-0.22875-0.07625-0.66765-0.19086-0.97266-0.24805-0.31136-0.05719-0.66593-0.14107-0.79296-0.18555-0.13344-0.04448-0.62353-0.14591-1.0938-0.22852-0.4702-0.07625-1.2588-0.20841-1.748-0.29102-0.48927-0.088959-1.3022-0.19721-1.8106-0.24805-0.50834-0.050834-1.252-0.12839-1.6523-0.16016-0.40031-0.038125-1.303-0.10786-2.002-0.15234-0.69894-0.04448-1.9698-0.089349-2.834-0.095703zm-8.1934 24.119h0.00195c0.20134 0.001112 0.40198 0.004224 0.60352 0.007812 0.08088 0.0012 0.167-0.0024 0.25 0 3.2497 0.11405 6.4495 0.96754 9.0254 2.4902 1.4695 0.98321 5.3727 3.5791 7.957 9.9102l15.752 43.838v-39.932l-0.24023 0.67188-5.7695 16.201-7.4688-21.104a16.246 16.246 0 0 1 0.23633-0.90234 16.154 16.154 0 0 1 1.4394-3.3867 16.753 16.753 0 0 1 2.7168-3.5781 15.444 15.444 0 0 1 4.2051-3.0117 13.076 13.076 0 0 1 4.7148-1.1699c3.234-0.19846 6.4937 0.73347 9.1016 2.4629 4.0403 2.929 5.1928 6.5025 5.3438 12.678v43.33c-0.49192 7.1534-5.0322 11.046-9.0976 12.834-1.934 0.64899-2.7517 0.80859-4.8652 0.80859-3.5681 0.16412-7.9485-1.2935-11.039-4.8691-1.2874-1.3034-3.8945-7.623-3.8945-7.623l-14.938-39.775c-0.89165-2.3476-2.7933-3.6054-4.6738-3.6934-1.89-0.08817-3.7607 1.0049-4.5703 3.3633l-4.7266 12.506-7.9375-20.779c3.9059-6.987 7.6387-8.7787 12.012-10.396 1.6786-0.52548 3.4634-0.81357 5.2559-0.87305 0.20135-0.008173 0.40393-0.007812 0.60547-0.007812zm-34.764 0.074218c3.5681 0 8.1149 1.3007 11.039 5.0332 1.3101 1.2896 3.8945 7.6309 3.8945 7.6309l14.938 39.607c0.92951 2.2359 2.6972 3.4678 4.4922 3.6582a4.5312 4.5312 0 0 0 0.37109 0.023438h0.00196a4.6716 4.6716 0 0 0 0.36718-0.003907c1.4762-0.0856 2.8932-0.89904 3.7812-2.4883a6.1135 6.1135 0 0 0 0.20899-0.41406c0.0275-0.059287 0.05258-0.1237 0.08008-0.18555 0.03568-0.085587 0.07402-0.16947 0.10742-0.25977l4.5527-12.514 7.9492 20.939a36.129 36.129 0 0 1-0.72851 1.25 26.189 26.189 0 0 1-1.4512 2.1523c-0.12013 0.16176-0.2404 0.31739-0.35937 0.4707a21.48 21.48 0 0 1-0.72461 0.87109l-0.03516 0.039062a19.488 19.488 0 0 1-1.0547 1.0996 15.944 15.944 0 0 1-2.2051 1.7734 17.084 17.084 0 0 1-1.5039 0.89257 18.387 18.387 0 0 1-0.76367 0.38477c-0.51235 0.24479-1.0337 0.46961-1.5625 0.68359a59.305 59.305 0 0 1-1.6133 0.61914 18.615 18.615 0 0 1-1.2734 0.34766 21.566 21.566 0 0 1-3.959 0.5332c-3.7524 0.16863-7.5445-0.63213-10.523-2.5078-1.462-0.96254-5.35-3.4048-7.9414-9.7402l-15.58-43.988v40.1l0.375-1.084 5.4609-15.812 7.459 21.109a13.182 13.182 0 0 1-0.48243 1.7324 14.161 14.161 0 0 1-0.70117 1.6562 15.686 15.686 0 0 1-1.9629 3.0059 16.74 16.74 0 0 1-1.209 1.3184 16.128 16.128 0 0 1-4.2461 3.0078 12.348 12.348 0 0 1-0.50195 0.2207l-0.19726 0.07617c-0.10326 0.04044-0.20591 0.08104-0.31055 0.11914-0.11189 0.04046-0.22502 0.07834-0.33789 0.11524-0.05694 0.019-0.11433 0.03904-0.17383 0.05664a13.156 13.156 0 0 1-2.5977 0.53906c-3.3732 0.36007-6.8041-0.54461-9.6758-2.2695-4.0666-3.08-5.1986-6.4918-5.3496-12.82v-43.184c0.47939-7.2997 5.1818-11.201 9.252-12.988 1.7712-0.64542 2.5972-0.80664 4.6953-0.80664z"/>
  <path d="m119.86 129.61c-0.13979 6e-3 -0.54011 0.0254-0.88959 0.0508s-1.004 0.10802-1.4615 0.18427c-0.45115 0.0762-1.1565 0.2224-1.5568 0.32406-0.40031 0.10167-0.915 0.26053-1.1438 0.34949-0.22875 0.0953-0.81334 0.36854-1.309 0.61-0.48928 0.24146-1.1056 0.59094-1.3725 0.76886-0.26687 0.18427-0.76886 0.57188-1.112 0.85782-0.34949 0.28594-0.87053 0.77522-1.1692 1.0802-0.29229 0.305-0.73074 0.80063-0.95949 1.0993-0.2351 0.29865-0.61636 0.8324-0.84511 1.1882-0.22875 0.35583-0.57188 0.95948-0.75615 1.3344-0.19063 0.3749-0.43209 0.94678-0.53376 1.2708-0.10802 0.31771-0.2351 0.78792-0.29229 1.0484-0.0508 0.25417-0.15885 0.77522-0.24146 1.1628-0.10802 0.54011-0.13979 0.92137-0.13979 1.6839-6e-3 0.83241 0.0254 1.1628 0.19698 2.135 0.11437 0.63542 0.27958 1.3916 0.3749 1.6839 0.089 0.29229 0.2351 0.71803 0.32406 0.94678 0.0953 0.22875 0.27323 0.62906 0.40667 0.88959 0.12709 0.26052 0.38126 0.71802 0.56553 1.0167 0.17792 0.29865 0.48927 0.75616 0.6799 1.0167 0.19698 0.26052 0.67355 0.80063 1.0612 1.1946 0.38761 0.40032 0.94678 0.91501 1.2454 1.1501 0.29865 0.24147 0.68626 0.53376 0.85782 0.64814 0.17792 0.12073 0.54646 0.35583 0.82605 0.52104 0.27958 0.15886 0.81334 0.43209 1.1755 0.61001 0.36854 0.17156 0.92136 0.40031 1.2327 0.50833 0.31135 0.11438 0.88323 0.26688 1.2708 0.35584 0.38761 0.0826 0.98491 0.17792 1.3217 0.21604 0.34313 0.0381 1.1183 0.0699 1.7284 0.0699 0.60365 0 1.3979-0.0318 1.7601-0.0699 0.36219-0.0318 0.99125-0.13979 1.3916-0.22875 0.40032-0.089 1.0802-0.27323 1.506-0.40667 0.41938-0.13979 1.0675-0.40031 1.4297-0.58459 0.35584-0.18427 0.93407-0.50833 1.2708-0.72438 0.33678-0.20969 0.83876-0.55281 1.112-0.75615 0.27323-0.20333 0.8324-0.71167 1.2454-1.131 0.41302-0.41302 1.004-1.0866 1.3153-1.4996 0.31136-0.41302 0.69261-0.94678 0.84511-1.1882 0.15886-0.2351 0.36855-0.60365 0.47657-0.81334 0.10167-0.20968 0.31771-0.72438 0.47657-1.1438 0.1525-0.41938 0.34312-0.99126 0.41302-1.2708 0.0762-0.27958 0.19063-0.84511 0.26688-1.2518 0.089-0.54011 0.12708-1.0167 0.12708-1.7601 0-0.59094-0.0381-1.2963-0.0953-1.6648-0.0508-0.34949-0.15886-0.91501-0.22875-1.2518-0.0762-0.33677-0.24782-0.95313-0.38126-1.3662-0.13979-0.41303-0.40031-1.0421-0.57188-1.3979-0.17791-0.35584-0.50198-0.9023-0.71167-1.22-0.20969-0.31136-0.51469-0.73074-0.66719-0.92136-0.15886-0.19063-0.5274-0.61636-0.82605-0.94678-0.29865-0.32407-0.84511-0.8324-1.2137-1.131-0.3749-0.2923-0.915-0.69897-1.2136-0.9023-0.29865-0.20334-0.99761-0.60365-1.5631-0.88324-0.57188-0.28594-1.3598-0.62271-1.811-0.76886-0.43209-0.13979-1.1755-0.32406-1.6458-0.41302-0.47021-0.089-1.0993-0.19063-1.3979-0.22875-0.2923-0.0318-0.65449-0.0572-0.79428-0.0508zm106.09 0.75615c-0.63542 6e-3 -1.3979 0.0508-1.9126 0.12073-0.47021 0.0635-1.0103 0.14615-1.1946 0.18428-0.19063 0.0381-0.66084 0.17156-1.0484 0.29229-0.39396 0.12708-0.92771 0.31136-1.1882 0.41302-0.26052 0.0953-0.64813 0.26053-0.85146 0.35584-0.20969 0.0953-0.59094 0.29865-0.85147 0.45115-0.26688 0.15886-0.69261 0.42573-0.95948 0.60365-0.26688 0.17792-0.65449 0.45751-0.86418 0.61636-0.20969 0.15886-0.63542 0.53376-0.94678 0.8324-0.31135 0.29865-0.74344 0.76886-0.95948 1.0484-0.21605 0.27959-0.57188 0.80063-0.78793 1.1565-0.21604 0.36219-0.50198 0.91501-0.64813 1.2327-0.13979 0.32406-0.33677 0.87688-0.43209 1.2327-0.10166 0.35584-0.24146 0.94043-0.31771 1.309-0.0699 0.36219-0.24781 1.5758-0.3876 2.6942-0.14615 1.1184-0.3749 2.8785-0.50834 3.9142-0.13979 1.0357-0.34313 2.5798-0.4448 3.4313-0.10802 0.85147-0.20333 1.5949-0.22239 1.6457-0.0127 0.0508-0.0826 0.62272-0.15886 1.2708-0.0699 0.64813-0.15885 1.3344-0.19063 1.525-0.0318 0.19063-0.13343 0.90865-0.21604 1.5886-0.089 0.67991-0.24781 1.8681-0.35584 2.637-0.10802 0.76886-0.25416 1.8681-0.32406 2.44-0.0699 0.57187-0.13979 1.0675-0.15886 1.0993-0.0191 0.0254-0.0635 0.0508-0.10166 0.0508-0.0318 0-0.38126-0.20334-0.77522-0.45115-0.38761-0.24782-1.1882-0.68626-1.7855-0.97855-0.59095-0.29229-1.22-0.59094-1.3979-0.65449-0.17157-0.0699-0.67355-0.26687-1.112-0.43844-0.43844-0.17791-1.0103-0.39396-1.2708-0.48292-0.26053-0.089-0.80699-0.26052-1.2073-0.38125s-0.89594-0.26688-1.0929-0.32407c-0.20334-0.0572-0.77522-0.20968-1.2708-0.33041-0.50198-0.12073-1.3662-0.31772-1.9253-0.43209-0.55918-0.12073-1.1565-0.23511-1.3344-0.25417-0.17156-0.0254-0.60365-0.10167-0.95313-0.16521-0.34949-0.0699-1.0929-0.18427-1.6521-0.25417-0.55917-0.0762-1.4742-0.17792-2.0334-0.2224-0.68626-0.0635-2.0206-0.089-4.0985-0.0953-2.1477 0-3.4186 0.0318-4.1938 0.0953-0.61 0.0508-1.5695 0.14615-2.1287 0.21605-0.55917 0.0763-1.3598 0.19698-1.7792 0.26687-0.41938 0.0762-1.2327 0.24782-1.811 0.38126-0.57824 0.13979-1.417 0.34313-1.8745 0.46386-0.45115 0.11437-1.0802 0.29229-1.3979 0.3876-0.31135 0.0953-0.81334 0.25417-1.112 0.34948-0.29865 0.10167-0.81334 0.28594-1.1438 0.41303-0.33042 0.12708-0.8197 0.31136-1.0802 0.41302-0.26052 0.10167-0.86418 0.34313-1.3344 0.54011-0.47021 0.19063-1.5568 0.70532-2.4146 1.131-0.85782 0.42574-1.9571 1.004-2.4464 1.2836-0.48927 0.27958-1.0675 0.62271-1.2899 0.7625s-0.66084 0.42573-0.98491 0.63542c-0.32406 0.20969-1.023 0.69261-1.5631 1.0802-0.53376 0.38125-1.4043 1.0548-1.938 1.4805-0.5274 0.43209-1.309 1.0993-1.7411 1.4869-0.43208 0.38761-1.2963 1.2454-1.9317 1.919-0.62907 0.66719-1.5187 1.6839-1.9825 2.2621-0.4575 0.57823-1.0103 1.2899-1.22 1.5886-0.20968 0.29865-0.56552 0.81334-0.78792 1.1438s-0.71803 1.1183-1.0993 1.7474c-0.38761 0.62907-1.1183 1.9698-1.6394 2.9865-0.51469 1.0103-1.0421 2.0969-1.1692 2.4146-0.13344 0.31135-0.43844 1.0739-0.67991 1.6839-0.24146 0.61-0.62271 1.6712-0.84511 2.3511-0.22239 0.6799-0.47656 1.4932-0.56552 1.811-0.089 0.31136-0.32407 1.201-0.51469 1.9698-0.19698 0.76886-0.45115 1.8808-0.57188 2.4781-0.12073 0.59095-0.28594 1.5377-0.3749 2.0969-0.089 0.55917-0.23511 1.6013-0.32407 2.3193-0.089 0.71167-0.20333 2.0016-0.26052 2.8594-0.0763 1.22-0.0953 2.3256-0.0699 5.1469 0.0191 1.9762 0.0636 3.8888 0.10167 4.2573 0.0381 0.36854 0.12709 1.1501 0.19698 1.7474 0.0763 0.59094 0.20334 1.4932 0.2923 2.0016 0.0826 0.50834 0.27323 1.4615 0.41302 2.1287 0.14615 0.66084 0.36854 1.6076 0.50834 2.0969 0.13344 0.48928 0.33042 1.1628 0.43208 1.4932 0.10167 0.33041 0.25417 0.8324 0.34949 1.112 0.089 0.27959 0.25417 0.78157 0.3749 1.112s0.48292 1.2454 0.81334 2.0334c0.32406 0.78793 0.95313 2.1414 1.3979 3.0183 0.43844 0.87052 0.92772 1.8046 1.0866 2.0651 0.15885 0.26052 0.43844 0.71802 0.62271 1.0167s0.49563 0.78157 0.68625 1.0802c0.19698 0.29865 0.69897 0.99761 1.1184 1.5568s0.9023 1.1882 1.0802 1.3979c0.17792 0.20969 0.61636 0.71167 0.9722 1.112 0.34948 0.40032 1.1946 1.2772 1.8745 1.938 0.67355 0.66719 1.6013 1.5314 2.0524 1.9253 0.4575 0.3876 0.99761 0.84511 1.2073 1.004 0.20969 0.15886 0.66719 0.50834 1.0167 0.76886 0.34949 0.26688 1.2073 0.85782 1.9063 1.3217s1.4678 0.95949 1.7029 1.1056c0.23511 0.14615 1.0294 0.55918 1.7538 0.92772 0.73074 0.36219 1.6648 0.80063 2.0778 0.9722 0.41938 0.17791 1.3153 0.53375 2.0016 0.80063 0.68626 0.26052 1.6712 0.60365 2.1922 0.7625 0.52105 0.15251 1.2772 0.36855 1.6839 0.47657s1.2136 0.29229 1.7919 0.41938c0.58459 0.12073 1.4805 0.29229 1.9952 0.38125 0.52105 0.0826 1.2581 0.19698 1.6394 0.24782 0.38761 0.0572 1.1438 0.13979 1.6839 0.19698 0.54011 0.0572 1.5568 0.12708 2.2558 0.15885 0.69896 0.0318 1.7728 0.0635 2.3828 0.0635s1.6394-0.0318 2.2875-0.0635c0.64813-0.0381 1.4488-0.0953 1.7792-0.12708 0.33042-0.0381 0.97855-0.12709 1.4297-0.19698 0.4575-0.0699 1.1692-0.20334 1.5886-0.28594 0.41938-0.089 1.22-0.27323 1.7792-0.41303 0.55918-0.13979 1.2581-0.33042 1.5568-0.41938 0.29865-0.089 0.9849-0.305 1.525-0.48292 0.54011-0.17791 1.2836-0.43844 1.6521-0.59094 0.36854-0.14615 1.0167-0.41302 1.4488-0.59094 0.42573-0.17792 0.78792-0.32407 0.80699-0.32407 0.0127 0 0.11437 0.17792 0.22239 0.39397 0.11438 0.21604 0.38761 0.67354 0.61001 1.0167 0.22875 0.34313 0.57823 0.8324 0.78157 1.0802 0.20333 0.25417 0.64177 0.72438 0.96584 1.0357 0.33042 0.31771 0.83876 0.7625 1.1374 0.99125 0.29865 0.22876 0.85782 0.61001 1.2518 0.84512 0.39397 0.2351 1.0357 0.57823 1.4297 0.7625 0.39397 0.18427 0.99126 0.42573 1.3217 0.53376 0.33042 0.10802 0.87688 0.26687 1.2073 0.35583 0.33042 0.0826 0.92137 0.20969 1.3026 0.28594 0.38761 0.0699 0.91501 0.1525 1.1755 0.19063 0.26052 0.0318 0.88959 0.0762 1.3979 0.10167 0.50833 0.0191 1.3979 6e-3 1.9762-0.0254 0.74344-0.0445 1.3217-0.12073 1.9698-0.26052 0.50198-0.10803 1.1882-0.28594 1.5187-0.39397 0.33041-0.10166 0.78792-0.26052 1.0167-0.34948 0.22875-0.089 0.65449-0.28594 0.95313-0.43844 0.29865-0.1525 0.85782-0.48292 1.2391-0.73073 0.3876-0.24782 0.92771-0.64813 1.2073-0.88324 0.27958-0.24146 0.76886-0.69896 1.0866-1.0294 0.31136-0.32407 0.68626-0.7498 0.8324-0.94043 0.13979-0.19698 0.41938-0.63542 0.61636-0.97855s0.4448-0.81334 0.55282-1.0421c0.10802-0.23511 0.29229-0.69896 0.41302-1.0357 0.11438-0.33677 0.28594-0.92136 0.3749-1.3026 0.089-0.38126 0.2224-1.1755 0.2923-1.7728 0.0699-0.59094 0.1525-1.1882 0.18427-1.3344 0.0318-0.13979 0.10167-0.69896 0.15885-1.2391 0.0572-0.54011 0.1398-1.2136 0.19063-1.4932 0.0508-0.27959 0.13344-0.88324 0.19063-1.3344 0.0508-0.4575 0.16521-1.328 0.25417-1.938 0.0826-0.61001 0.22239-1.6712 0.31135-2.3511 0.089-0.67991 0.20334-1.5695 0.25417-1.9698 0.0508-0.40032 0.1525-1.201 0.22875-1.7792 0.0699-0.57824 0.17157-1.3471 0.22875-1.7156 0.0508-0.36855 0.17792-1.309 0.27959-2.0969 0.10167-0.78793 0.20334-1.4996 0.2224-1.5886 0.0191-0.089 0.11437-0.81969 0.2224-1.6203 0.10166-0.80698 0.31135-2.4908 0.47021-3.749 0.16521-1.2581 0.34948-2.7196 0.41938-3.2407 0.0699-0.5274 0.18427-1.4106 0.25417-1.9698 0.0699-0.55918 0.21604-1.633 0.31771-2.3828 0.10802-0.74979 0.29229-2.1223 0.41302-3.05 0.12073-0.92772 0.26052-2.0397 0.31136-2.4782 0.0508-0.43844 0.22239-1.811 0.38125-3.05 0.15886-1.2391 0.34948-2.7006 0.41938-3.2406 0.0762-0.54011 0.21604-1.6458 0.32406-2.4464 0.10167-0.80698 0.24146-1.9063 0.31136-2.4464s0.18427-1.3979 0.25417-1.8999c0.0699-0.50834 0.15885-1.1628 0.19063-1.4615 0.0318-0.29864 0.11437-0.97854 0.19062-1.4996 0.0763-0.5274 0.19063-1.4106 0.25417-1.9698 0.0699-0.55917 0.1525-1.2327 0.18427-1.4932 0.0381-0.26052 0.12709-0.90865 0.19698-1.4297 0.0699-0.5274 0.21605-1.614 0.32407-2.4146 0.10167-0.80699 0.27323-2.135 0.3749-2.9547 0.0953-0.8197 0.22875-1.8491 0.27958-2.2875 0.0572-0.43844 0.16521-1.2518 0.23511-1.811 0.0699-0.55917 0.20969-1.633 0.31136-2.3828 0.10166-0.7498 0.25417-1.9253 0.34312-2.6052 0.089-0.6799 0.17792-1.309 0.19699-1.3979 0.0191-0.089 0.10166-0.74344 0.18427-1.4615 0.089-0.71802 0.21604-1.7919 0.29229-2.3828 0.0699-0.5973 0.20334-1.5695 0.28594-2.1604 0.0826-0.5973 0.18427-1.3789 0.2224-1.7474 0.0381-0.36855 0.12708-0.99762 0.19063-1.3979 0.0699-0.40032 0.19698-1.3026 0.28594-2.0016 0.089-0.69897 0.305-2.3892 0.47656-3.749 0.17792-1.3662 0.3749-2.9356 0.4448-3.4948s0.19698-1.5441 0.28594-2.1922c0.0826-0.64813 0.18427-1.525 0.2224-1.9507 0.0318-0.42573 0.0635-1.0167 0.0635-1.3217 0-0.29865-0.0318-0.81969-0.0635-1.1628-0.0381-0.33678-0.1398-0.94678-0.22876-1.3471-0.0953-0.40031-0.24781-0.94677-0.34948-1.2136-0.0953-0.26688-0.31771-0.77522-0.49563-1.1247-0.17156-0.34948-0.55281-0.9849-0.83875-1.417-0.41303-0.61636-0.74345-1.0103-1.5377-1.8173-0.81334-0.82604-1.1946-1.1565-1.9126-1.6584-0.49562-0.34948-1.2454-0.80698-1.6775-1.023-0.43209-0.21604-1.0993-0.50833-1.4932-0.64177-0.38761-0.1398-1.1374-0.36855-1.6584-0.50199-0.5274-0.13979-1.131-0.28594-1.3407-0.32406-0.20969-0.0381-0.77522-0.10802-1.2645-0.15886-0.48292-0.0508-1.3534-0.0953-1.938-0.089zm-35.526 51.158c0.61001-6e-3 1.4551 0.0191 1.8745 0.0508 0.41937 0.0318 1.1755 0.12073 1.6839 0.19062 0.50834 0.0762 1.3534 0.2224 1.8745 0.32407 0.5274 0.10802 1.328 0.29229 1.7919 0.41302s1.1056 0.31771 1.4297 0.4448c0.32406 0.12708 0.83876 0.35583 1.1438 0.50834 0.305 0.1525 0.7498 0.39396 0.9849 0.54646 0.23511 0.14615 0.64813 0.42573 0.90865 0.61636 0.26053 0.19698 0.73074 0.59729 1.0421 0.89594 0.31135 0.29865 0.73073 0.76251 0.94042 1.0357 0.20969 0.26688 0.50834 0.71167 0.66719 0.9849 0.15886 0.26688 0.38761 0.71803 0.50834 0.99126 0.12709 0.27959 0.31136 0.7498 0.41303 1.0421 0.10166 0.2923 0.22239 0.82605 0.27323 1.1819 0.0508 0.34948 0.0953 0.95949 0.0953 1.3534 0 0.38761-0.0445 1.0993-0.0953 1.5886-0.0508 0.48292-0.16521 1.3916-0.25417 2.0206-0.0826 0.62907-0.24146 1.7728-0.34313 2.5417s-0.26688 1.9698-0.35584 2.6688c-0.0889 0.69897-0.29229 2.2875-0.45114 3.5266-0.15251 1.2391-0.38126 3.0246-0.50199 3.9714-0.12073 0.94043-0.305 2.3701-0.41302 3.1771-0.10802 0.80063-0.26688 2.0079-0.34948 2.6751s-0.20969 1.6203-0.27959 2.1287c-0.0699 0.50199-0.15886 1.1183-0.19063 1.3598-0.0381 0.24782-0.13979 0.61001-0.22875 0.81334-0.089 0.20334-0.31136 0.59095-0.48927 0.85782-0.17792 0.26688-0.58459 0.7498-0.9023 1.0612-0.31771 0.31771-0.8197 0.73709-1.1184 0.93407-0.29864 0.19063-0.66719 0.42573-0.82604 0.51469-0.15886 0.089-0.5274 0.26052-0.82605 0.38125s-0.81334 0.30501-1.1438 0.41303-0.9023 0.27323-1.2581 0.35583c-0.36219 0.089-1.0802 0.2224-1.5886 0.30501-0.83876 0.13344-1.1501 0.14614-3.0627 0.14614-1.6839-6e-3 -2.2875-0.0318-2.8912-0.12073-0.41937-0.0572-1.1628-0.19698-1.6521-0.29864-0.48928-0.10803-1.2454-0.2923-1.6839-0.41938-0.43844-0.12709-1.0802-0.33678-1.4297-0.47021-0.34948-0.12709-0.85146-0.32407-1.112-0.43209-0.26052-0.11438-0.85146-0.40032-1.3153-0.64178s-1.0612-0.58459-1.3344-0.76886c-0.27323-0.17792-0.63542-0.42573-0.81334-0.55282-0.17156-0.12708-0.61636-0.47656-0.9849-0.78156-0.36855-0.30501-0.82605-0.72439-1.023-0.92772-0.19063-0.20334-0.52105-0.57188-0.73074-0.81334-0.20969-0.24782-0.5274-0.64813-0.70531-0.88959-0.17792-0.24782-0.4448-0.64813-0.59095-0.88959-0.1525-0.24782-0.48292-0.85782-0.73709-1.3662-0.24781-0.50834-0.56552-1.2073-0.69261-1.5568-0.13343-0.34948-0.33677-0.95314-0.4575-1.3344-0.11438-0.38761-0.31136-1.131-0.42573-1.6521-0.12073-0.5274-0.26053-1.2391-0.31771-1.5886-0.0572-0.34948-0.13344-0.95313-0.17792-1.3344-0.0381-0.3876-0.0763-1.4424-0.0763-2.3511 0-0.90865 0.0381-1.9952 0.0763-2.4146 0.0445-0.41938 0.13979-1.1755 0.20969-1.6839s0.19698-1.2963 0.28594-1.7474c0.089-0.4575 0.27323-1.2836 0.41938-1.8427 0.13979-0.55917 0.38125-1.3852 0.5401-1.83 0.15886-0.45115 0.46386-1.2264 0.68626-1.722 0.21604-0.49563 0.49563-1.0993 0.61636-1.3471 0.12073-0.24146 0.47021-0.88323 0.78157-1.4233 0.305-0.54011 0.69261-1.201 0.85782-1.4678 0.16521-0.27323 0.57188-0.84511 0.89594-1.2708 0.33042-0.43209 0.83876-1.0421 1.1374-1.3534 0.29865-0.305 0.81334-0.79428 1.1438-1.0802 0.33042-0.29229 0.88959-0.71167 1.2391-0.93407 0.34948-0.22875 0.86417-0.54646 1.1438-0.70531 0.27959-0.15886 0.80699-0.41938 1.1755-0.57824 0.36855-0.15885 0.88959-0.36219 1.1692-0.45115 0.27323-0.0953 0.87052-0.26687 1.3344-0.3876 0.45751-0.12074 1.2073-0.27324 1.6648-0.34949 0.4575-0.0763 1.0294-0.15885 1.2708-0.18427 0.24146-0.0318 0.94043-0.0572 1.5504-0.0572zm-111.44-46.233c-0.87053-0.0191-1.8491-6e-3 -2.1795 0.0254-0.33042 0.0254-0.87053 0.10802-1.2009 0.18427-0.32406 0.0699-0.94042 0.23511-1.3662 0.36219-0.41938 0.13344-1.0548 0.34313-1.4043 0.47022-0.34948 0.12708-0.81969 0.33042-1.0484 0.44479-0.22875 0.11438-0.66719 0.34948-0.9849 0.5274-0.31136 0.17157-0.80063 0.47657-1.0802 0.66719-0.27959 0.19699-0.78157 0.56553-1.112 0.83241-0.33042 0.26052-0.84511 0.70532-1.1374 0.99126-0.29229 0.27958-0.73709 0.74979-0.99126 1.0484-0.24781 0.29865-0.61 0.76886-0.80699 1.0484-0.19063 0.27958-0.50834 0.79427-0.70532 1.1438-0.19698 0.34948-0.60365 1.1946-0.9023 1.8745-0.305 0.6799-0.86417 1.938-1.2518 2.7959-0.38761 0.85782-1.0675 2.3574-1.5123 3.336-0.45115 0.97855-0.9849 2.1732-1.2009 2.6561s-0.38761 0.88959-0.38761 0.9023c0 0.0127-0.13979 0.31771-0.31136 0.6799-0.17156 0.35583-0.54011 1.1692-0.81969 1.7982-0.27959 0.62907-0.74344 1.6584-1.0294 2.2875s-0.6799 1.4996-0.87053 1.938-0.95949 2.135-1.7029 3.7808c-0.74344 1.6394-1.5758 3.4885-1.8427 4.0985-0.27323 0.61-0.59094 1.328-0.71167 1.5886-0.12708 0.26053-0.46386 1.004-0.7498 1.6521-0.29229 0.64813-0.81334 1.811-1.1692 2.5925s-0.64178 1.4361-0.64178 1.4551c0 0.0191-0.28594 0.66084-0.63542 1.4233-0.34948 0.76251-0.80699 1.7792-1.0103 2.2621-0.20334 0.48292-0.68626 1.5631-1.0739 2.4019-0.38125 0.83876-1.1183 2.4527-1.633 3.5901-0.51469 1.1374-0.95949 2.0905-0.99126 2.1223s-0.0699 0.0445-0.08896 0.0254c-0.01906-0.0127-0.07625-0.36854-0.13344-0.78792-0.05083-0.41303-0.24782-1.5695-0.43844-2.5671-0.18427-0.99761-0.38125-2.0524-0.43844-2.3511-0.05719-0.29865-0.19063-1.0548-0.29865-1.6839-0.10802-0.62906-0.24781-1.4297-0.31136-1.7792-0.06354-0.34948-0.20334-1.1374-0.305-1.7474-0.10802-0.61-0.28594-1.5695-0.38761-2.1287-0.10167-0.55917-0.305-1.6457-0.45115-2.4146-0.14615-0.76887-0.31771-1.6966-0.38125-2.0651-0.0699-0.36854-0.20969-1.1374-0.31136-1.7156-0.10167-0.57823-0.36219-1.9762-0.57823-3.1136s-0.48928-2.6116-0.61-3.2724c-0.12073-0.66719-0.305-1.7093-0.40667-2.3193-0.10802-0.61-0.2224-1.2581-0.25417-1.4297-0.03177-0.17792-0.17792-0.93408-0.31771-1.6839-0.13979-0.7498-0.36219-1.7411-0.48292-2.1922-0.12708-0.4575-0.35584-1.1565-0.51469-1.5568-0.15886-0.40032-0.43844-1.0294-0.62907-1.3979-0.18427-0.36855-0.47021-0.87053-0.63542-1.112-0.16521-0.24781-0.48927-0.68625-0.72438-0.9849s-0.71167-0.81334-1.0548-1.1438c-0.34948-0.33678-0.94042-0.83876-1.3153-1.1247-0.38125-0.27958-1.0103-0.6799-1.3979-0.88324-0.39396-0.20333-0.94678-0.47656-1.2327-0.61-0.29229-0.12709-0.87688-0.34948-1.3026-0.48928-0.43209-0.13343-1.0548-0.305-1.3852-0.37489-0.33042-0.0699-0.93407-0.16521-1.3344-0.20969-0.40032-0.0445-1.1755-0.0826-1.7156-0.0826s-1.3534 0.0318-1.811 0.0826c-0.45115 0.0445-1.1946 0.1525-1.6457 0.24146-0.45115 0.089-1.1374 0.25417-1.525 0.36854-0.38761 0.11438-0.99761 0.32407-1.3598 0.47021-0.35584 0.1398-0.96584 0.41938-1.3598 0.61636-0.38761 0.19698-0.94042 0.49563-1.22 0.67355-0.27958 0.17156-0.81334 0.55282-1.1755 0.8324-0.36854 0.28594-0.97855 0.83241-1.3598 1.22-0.38125 0.38126-0.9023 0.95949-1.1628 1.2772-0.25417 0.31771-0.56553 0.73074-0.69261 0.92136-0.12708 0.19063-0.41302 0.71168-0.64178 1.1628-0.22875 0.4448-0.50198 1.0484-0.5973 1.3344-0.09531 0.27959-0.24146 0.80063-0.31771 1.1501-0.0699 0.34949-0.17792 0.93407-0.22875 1.3026-0.057188 0.38125-0.095313 1.1501-0.095313 1.7982 0 0.62272 0.019063 1.3344 0.038125 1.5886 0.025417 0.25417 0.15886 1.131 0.29229 1.9507 0.13979 0.8197 0.26688 1.5377 0.27959 1.5886 0.01271 0.0508 0.10167 0.49563 0.18427 0.9849 0.08896 0.48928 0.38761 2.1604 0.67355 3.7172 0.27959 1.5568 0.5973 3.2978 0.70532 3.8761 0.10167 0.57824 0.24781 1.3471 0.31136 1.7156 0.0699 0.36855 0.26688 1.4678 0.4448 2.4464 0.17156 0.97855 0.40667 2.2367 0.50834 2.7958 0.10802 0.55918 0.27959 1.4996 0.38761 2.0969 0.10167 0.59094 0.24146 1.3789 0.31136 1.7474 0.06354 0.36854 0.23511 1.2836 0.3749 2.0334 0.13979 0.74979 0.36854 1.9952 0.51469 2.7641s0.31771 1.7284 0.38761 2.1287c0.0699 0.40031 0.15886 0.85782 0.19063 1.0167 0.03813 0.15886 0.12073 0.5973 0.18427 0.9849 0.06354 0.38126 0.2224 1.2581 0.34948 1.938s0.28594 1.525 0.35584 1.8745c0.06354 0.34948 0.23511 1.2327 0.3749 1.9698 0.14615 0.73074 0.33042 1.7601 0.41938 2.2875 0.08261 0.52105 0.19698 1.1184 0.24146 1.3344 0.05083 0.20969 0.10802 0.52105 0.12708 0.69896 0.02542 0.17157 0.11438 0.68626 0.19698 1.1438 0.08896 0.45115 0.24146 1.2963 0.34948 1.8745 0.10802 0.57823 0.25417 1.3471 0.32406 1.7156 0.0699 0.36854 0.19698 1.0802 0.28594 1.5886 0.08896 0.50834 0.18427 1.023 0.21604 1.1438 0.03177 0.12073 0.08896 0.41938 0.12708 0.66719 0.03812 0.24146 0.17156 1.004 0.29229 1.6839 0.12708 0.6799 0.36854 1.9952 0.54011 2.9229 0.17156 0.92772 0.40032 2.1414 0.50198 2.7006 0.10167 0.55917 0.34313 1.9317 0.54011 3.05 0.19063 1.1183 0.49563 2.7768 0.66719 3.6854 0.17792 0.90865 0.40667 2.135 0.50834 2.7323 0.10167 0.59095 0.29865 1.7093 0.4448 2.4782 0.13979 0.76886 0.305 1.6394 0.35584 1.938 0.05083 0.29865 0.20969 1.112 0.34313 1.811 0.13979 0.69896 0.32407 1.6712 0.40667 2.1604 0.08896 0.48928 0.26052 1.4488 0.38761 2.1287 0.12073 0.6799 0.27958 1.5504 0.34313 1.938 0.0699 0.38126 0.20334 1.112 0.29229 1.6203 0.09531 0.50834 0.28594 1.5187 0.42573 2.2558 0.13979 0.73073 0.31771 1.7283 0.40032 2.2049 0.08261 0.48292 0.20969 1.1819 0.27959 1.5568 0.0699 0.38126 0.21604 1.1692 0.32406 1.7665 0.10802 0.59094 0.28594 1.5504 0.38761 2.1287 0.10802 0.57823 0.27323 1.4742 0.3749 2.0016 0.10167 0.52105 0.2224 1.1819 0.27959 1.4615 0.05083 0.27959 0.17156 0.85146 0.26052 1.2708 0.0826 0.41938 0.25417 1.0929 0.3749 1.4932 0.12073 0.40032 0.34948 1.023 0.50198 1.3725 0.1525 0.35583 0.41938 0.88323 0.58459 1.1755 0.16521 0.29229 0.46386 0.77521 0.66084 1.0675 0.19063 0.29229 0.65448 0.86417 1.023 1.2581 0.36854 0.40032 0.89594 0.91501 1.1755 1.1438 0.27959 0.2224 0.78157 0.59094 1.112 0.81334 0.33042 0.2224 0.99126 0.59094 1.4615 0.81969 0.47021 0.22876 1.1374 0.5147 1.4869 0.64178 0.34313 0.12073 0.96584 0.305 1.3852 0.41303 0.42573 0.10166 1.0866 0.2351 1.4742 0.29864 0.52105 0.0826 1.112 0.10803 2.2621 0.11438 1.3534 0 1.6648-0.0191 2.4082-0.14615 0.47021-0.0826 1.2009-0.2351 1.6203-0.33677 0.42573-0.10167 1.0103-0.26052 1.309-0.35584 0.29865-0.089 0.87053-0.29229 1.2708-0.44479s1.004-0.42574 1.3344-0.60365c0.33042-0.17157 1.0167-0.59095 1.525-0.92772 0.76886-0.51469 1.0802-0.77521 1.8745-1.5695 0.66719-0.66084 1.1183-1.1755 1.4742-1.6839 0.27959-0.40032 0.64178-0.9722 0.80063-1.2708 0.15886-0.29865 0.40667-0.81334 0.54011-1.1438 0.13979-0.33042 0.33042-0.83241 0.41938-1.112 0.09531-0.27959 0.24146-0.89595 0.33677-1.3662 0.1525-0.78157 0.16521-0.99761 0.17156-2.4146 0-1.1819-0.02542-1.722-0.10802-2.2558-0.05719-0.38761-0.18427-1.0993-0.27323-1.5886-0.08896-0.48928-0.26052-1.3916-0.3749-2.0016-0.11438-0.61001-0.22875-1.2391-0.25417-1.3979-0.01906-0.15886-0.09531-0.58459-0.16521-0.95313-0.06354-0.36855-0.35584-1.938-0.63542-3.4948-0.27959-1.5568-0.57823-3.2025-0.66084-3.6537-0.08261-0.45751-0.27959-1.5441-0.43844-2.4146-0.15886-0.87689-0.3749-2.0778-0.48292-2.6688-0.10802-0.59729-0.27959-1.5123-0.38125-2.0334-0.10167-0.5274-0.26688-1.4233-0.3749-2.0016-0.10802-0.57823-0.23511-1.309-0.28594-1.6203-0.05083-0.31771-0.2224-1.2899-0.38761-2.1604-0.15886-0.87688-0.40667-2.2049-0.54646-2.9547-0.14615-0.7498-0.33677-1.7792-0.43844-2.2875-0.09531-0.50833-0.22875-1.2009-0.28594-1.5441-0.06354-0.34313-0.09531-0.64178-0.0699-0.66084 0.01906-0.0191 0.25417 0.15885 0.52105 0.40031s0.69261 0.62272 0.94678 0.85147 1.004 0.90865 1.6648 1.5187c0.65448 0.60365 1.6648 1.5377 2.243 2.0651s1.2772 1.1755 1.5568 1.4424c0.27958 0.26052 1.1946 1.1056 2.027 1.8745 0.83876 0.76251 1.7283 1.5758 1.9825 1.8046s0.92772 0.83876 1.4996 1.3662c0.56552 0.52104 1.3662 1.2518 1.7665 1.6267 0.40032 0.3749 0.90865 0.8324 1.1247 1.0167 0.21604 0.19063 0.99126 0.9023 1.7156 1.5822 0.73074 0.6799 1.811 1.6839 2.4019 2.224 0.59094 0.54011 1.3344 1.2264 1.6521 1.525 0.31771 0.29865 1.004 0.92772 1.525 1.4043 0.5274 0.47657 1.2963 1.1755 1.722 1.5568 0.41938 0.38125 1.3153 1.2073 1.9889 1.8364s1.5568 1.4488 1.9635 1.83c0.41302 0.3749 0.9722 0.88959 1.2581 1.1438 0.27959 0.24782 1.2073 1.0993 2.0524 1.8872 0.85146 0.78792 1.9126 1.7601 2.3574 2.1604 0.4448 0.40032 1.3598 1.2454 2.0334 1.8745 0.67355 0.62907 1.5441 1.4234 1.9317 1.7665 0.38761 0.34313 1.1311 0.90865 1.6585 1.2581 0.52105 0.34949 1.2963 0.80699 1.7156 1.0103 0.41938 0.20969 1.0421 0.47657 1.3916 0.60365 0.34313 0.12709 1.004 0.32407 1.4615 0.4448 0.46386 0.11438 1.112 0.26688 1.4424 0.33042 0.49563 0.0953 0.91501 0.11438 2.44 0.10802 1.6394 0 1.919-0.0191 2.5036-0.13979 0.36855-0.0762 1.0739-0.25417 1.5758-0.39396 0.50198-0.14615 1.2645-0.38761 1.6902-0.55282 0.42574-0.15886 1.1438-0.45115 1.5886-0.65448 0.44479-0.20334 1.0167-0.48928 1.2708-0.63543 0.25417-0.1525 0.73074-0.45115 1.0612-0.67354 0.33042-0.21605 0.915-0.69261 1.2899-1.0484 0.38126-0.35584 0.98491-1.004 1.3471-1.436 0.36854-0.43844 0.83875-1.0993 1.0548-1.4678 0.21604-0.36854 0.50198-0.9023 0.63542-1.1946s0.33042-0.7498 0.43209-1.023c0.10166-0.27323 0.27323-0.81334 0.3749-1.1946 0.10802-0.38761 0.2351-1.0167 0.29229-1.3979 0.0508-0.38761 0.11438-0.92772 0.13344-1.2073 0.0254-0.35584 0-0.81334-0.089-1.4996s-0.20334-1.2073-0.35584-1.6775c-0.12073-0.3749-0.39396-1.0103-0.60365-1.417-0.20969-0.41303-0.57188-1.004-0.79428-1.3153-0.2351-0.33042-0.78792-0.94678-1.3153-1.4615-0.50198-0.48927-1.2963-1.2327-1.7728-1.6521-0.47656-0.41938-1.2899-1.1628-1.811-1.6521-0.5274-0.48928-1.5758-1.4615-2.3447-2.1604-0.7625-0.69896-1.6203-1.4869-1.8999-1.7474-0.28594-0.26052-0.95948-0.87688-1.4996-1.3662-0.54011-0.48928-1.1819-1.0802-1.4297-1.309-0.24146-0.22875-0.81969-0.75616-1.2708-1.1755-0.4575-0.41303-1.2137-1.0993-1.6775-1.5187-0.47021-0.41938-1.2581-1.131-1.7474-1.5822-0.49563-0.45115-1.1819-1.0929-1.5314-1.4297-0.34948-0.33678-1.3217-1.2264-2.1604-1.9762-0.83876-0.7498-1.7665-1.5949-2.0651-1.8745-0.29865-0.27958-0.99761-0.92136-1.5568-1.4297-0.55282-0.50834-1.2708-1.1628-1.5886-1.4615s-1.1501-1.0548-1.8491-1.6839c-0.69261-0.62906-1.4805-1.3407-1.7411-1.5886-0.26052-0.24782-0.73074-0.67355-1.0484-0.95313-0.31136-0.27959-0.87053-0.79428-1.2391-1.1438-0.36854-0.34949-1.3979-1.2963-2.2875-2.0969-0.88959-0.80698-1.8491-1.6775-2.1287-1.938-0.28594-0.26053-0.92772-0.85147-1.4297-1.309-0.50834-0.46386-1.6203-1.4742-2.4654-2.2494-0.85146-0.78156-1.5631-1.4488-1.5758-1.4932-0.01906-0.0445 0.18427-0.53375 0.45115-1.0866 0.27323-0.55917 0.91501-1.938 1.4297-3.0754s1.1438-2.5099 1.3979-3.05c0.25417-0.5401 0.50834-1.112 0.57188-1.2708 0.06354-0.15886 0.40667-0.91501 0.76251-1.6839 0.36219-0.76886 0.81334-1.7728 1.0167-2.224 0.19698-0.45751 0.56553-1.2581 0.81334-1.7792 0.24782-0.5274 0.64178-1.3979 0.87688-1.938 0.23511-0.54011 0.69261-1.5504 1.0167-2.2367 0.33042-0.68625 0.5973-1.2645 0.5973-1.2836 0-0.0127 0.63542-1.3979 1.4043-3.0691 0.77521-1.6712 1.5758-3.4249 1.7855-3.8951 0.20969-0.47022 0.64813-1.4297 0.9722-2.1287 0.32406-0.69896 0.9722-2.1032 1.4361-3.1136 0.4575-1.0167 0.88324-1.9444 0.93407-2.0651 0.05083-0.12073 0.36854-0.83875 0.71167-1.5886s0.88324-1.9508 1.2073-2.6688c0.32406-0.71803 0.81334-1.7792 1.0866-2.3574 0.27323-0.58459 0.73074-1.5758 1.0103-2.2113s0.68626-1.5187 0.89594-1.9634c0.21604-0.4448 0.56552-1.2073 0.78792-1.6966 0.21604-0.48927 0.50198-1.1628 0.63542-1.4932 0.12708-0.33042 0.31771-0.92136 0.41938-1.309 0.10167-0.38761 0.22875-1.0484 0.27958-1.4615 0.05083-0.41302 0.09531-0.95949 0.09531-1.2073 0-0.25417-0.03177-0.7498-0.0699-1.112-0.03177-0.36219-0.12073-0.88959-0.19063-1.1692-0.07625-0.27959-0.2224-0.7498-0.34313-1.0484-0.11438-0.29865-0.33042-0.78157-0.47657-1.0802s-0.40032-0.73709-0.55282-0.9849c-0.15886-0.24146-0.46386-0.6672-0.67355-0.95314-0.21604-0.27958-0.74344-0.85781-1.1755-1.2899-0.48292-0.47657-1.0612-0.96584-1.4932-1.2708-0.38761-0.26687-0.81969-0.55917-0.96584-0.63542-0.13979-0.0826-0.5274-0.29229-0.85782-0.4575-0.33042-0.17157-1.004-0.43844-1.4932-0.60365-0.48927-0.15886-1.2073-0.36219-1.6013-0.45115-0.38761-0.0826-0.99761-0.19698-1.3471-0.24782-0.3749-0.0572-1.2836-0.10802-2.2113-0.12073zm44.46 24.534c-0.40031-0.0127-1.0739-6e-3 -1.4932 0.0191-0.41938 0.0318-1.0929 0.0953-1.4932 0.1525-0.40031 0.0508-1.0421 0.17156-1.4297 0.26688-0.38125 0.0953-1.0548 0.28594-1.4932 0.42573s-1.1501 0.41938-1.5886 0.62907c-0.43209 0.20333-1.0739 0.54646-1.4297 0.7625-0.34949 0.21605-0.79428 0.51469-0.99126 0.66719-0.20334 0.15251-0.63542 0.5147-0.96584 0.80699s-0.80063 0.76251-1.0484 1.0357c-0.25417 0.27323-0.62271 0.71803-0.82605 0.99126-0.20969 0.27323-0.55917 0.85782-0.78792 1.3026-0.22875 0.4448-0.52105 1.0929-0.64178 1.4424-0.12708 0.34948-0.28594 0.91501-0.36219 1.2581-0.0699 0.34949-0.15885 1.1056-0.19062 1.7156-0.0445 0.73074-0.0445 1.417 0 2.0778 0.0381 0.54011 0.16521 1.8681 0.28594 2.9547 0.12708 1.0802 0.29229 2.6243 0.38125 3.4313 0.0826 0.80064 0.19063 1.8046 0.24781 2.224 0.0508 0.41938 0.12709 1.0929 0.16521 1.4932 0.0381 0.40032 0.10802 1.1565 0.15886 1.6839 0.0508 0.52105 0.2351 2.2812 0.41302 3.9078s0.34948 3.2089 0.38126 3.5266c0.0318 0.31135 0.15885 1.4615 0.28594 2.5417 0.12073 1.0866 0.26052 2.4146 0.31135 2.9547 0.0572 0.54011 0.17157 1.6712 0.26053 2.5099 0.0889 0.83876 0.22875 2.1986 0.31771 3.0183 0.089 0.81969 0.18427 1.8046 0.22239 2.1922 0.0318 0.38126 0.12073 1.2264 0.19063 1.8745s0.18427 1.6775 0.25417 2.2875c0.0635 0.61 0.17792 1.6521 0.25417 2.3193 0.0699 0.66084 0.17156 1.6203 0.22875 2.1287 0.0508 0.50834 0.13979 1.3217 0.18427 1.811 0.0508 0.48928 0.16521 1.5314 0.25417 2.3193 0.0826 0.78793 0.24146 2.2558 0.34948 3.2724 0.10802 1.0103 0.24782 2.3256 0.31771 2.9229 0.0699 0.59094 0.17157 1.525 0.2224 2.0651 0.0572 0.54011 0.16521 1.6013 0.25417 2.3511 0.0826 0.7498 0.19698 1.8364 0.25417 2.4146 0.0572 0.57824 0.15885 1.5822 0.2224 2.2303 0.0699 0.65449 0.13979 1.2963 0.1525 1.4297 0.0191 0.13979 0.0635 0.59094 0.10167 1.0103 0.0445 0.41938 0.11437 1.0929 0.16521 1.4932 0.0508 0.40032 0.16521 1.0484 0.25416 1.4424 0.089 0.38761 0.2224 0.9023 0.30501 1.1438 0.0826 0.23511 0.27958 0.74345 0.44479 1.1247s0.40667 0.88323 0.54646 1.112c0.13344 0.22875 0.39397 0.63542 0.57824 0.89594 0.17792 0.26052 0.7498 0.89595 1.2581 1.4043 0.72439 0.71803 1.0993 1.0357 1.7156 1.4488 0.43844 0.29229 1.1628 0.70531 1.6203 0.92771s1.0929 0.48928 1.4043 0.5973c0.31771 0.10167 0.79428 0.24781 1.0612 0.31771 0.26687 0.0699 0.85146 0.19063 1.3026 0.27323 0.73709 0.13344 0.99126 0.14615 2.6878 0.13979 1.811 0 1.9126-0.0127 2.9865-0.20333 0.61-0.10802 1.4615-0.29865 1.8936-0.42573 0.42573-0.12073 0.9849-0.30501 1.2391-0.40667 0.25417-0.10167 0.65448-0.27959 0.89594-0.38761s0.72439-0.3749 1.0802-0.59094c0.35584-0.20969 0.91501-0.59095 1.2454-0.83876 0.33042-0.25417 0.94678-0.78792 1.3662-1.1882 0.41937-0.40667 0.92771-0.94678 1.1247-1.201 0.19698-0.26052 0.47657-0.67354 0.62907-0.915 0.14615-0.24782 0.43209-0.78793 0.63542-1.2073 0.19698-0.41937 0.47021-1.1056 0.5973-1.525 0.12073-0.41938 0.28594-1.131 0.35583-1.5822 0.10803-0.67355 0.12709-1.0167 0.10167-1.9698-0.0127-0.62907-0.0699-1.5377-0.12708-2.0079-0.0572-0.47021-0.19063-1.7029-0.29865-2.7323s-0.23511-2.2875-0.29229-2.7958c-0.0508-0.50834-0.1398-1.309-0.19063-1.7792-0.0508-0.47022-0.17792-1.6584-0.27959-2.637-0.10802-0.97855-0.26687-2.4082-0.35583-3.1771-0.0826-0.76886-0.20969-1.9253-0.27959-2.5735s-0.16521-1.5886-0.21604-2.0969c-0.0572-0.50834-0.12709-1.22-0.16521-1.5886-0.0381-0.36854-0.0953-0.85146-0.12709-1.0802-0.0318-0.22875-0.14614-1.2454-0.24781-2.2557-0.10802-1.0167-0.23511-2.243-0.29229-2.7323-0.0572-0.48927-0.17157-1.506-0.25417-2.2558-0.0826-0.74979-0.17157-1.5695-0.19063-1.811-0.0254-0.24781-0.0826-0.77521-0.12708-1.1755-0.0508-0.40032-0.13344-1.2327-0.19063-1.8427-0.0508-0.61001-0.12709-1.3534-0.15886-1.6521-0.0381-0.29865-0.13979-1.2137-0.22239-2.0334-0.089-0.81969-0.21605-1.9508-0.28594-2.5099-0.0699-0.55917-0.20969-1.83-0.31772-2.8276-0.10166-0.99762-0.20333-1.9825-0.22239-2.1922-0.0191-0.20969-0.0762-0.73709-0.12709-1.1755-0.0572-0.43844-0.1525-1.309-0.22239-1.938-0.0699-0.62907-0.16521-1.4615-0.21605-1.8427-0.0508-0.38761-0.12708-1.112-0.16521-1.6203-0.0381-0.50833-0.10802-1.3217-0.15885-1.811-0.0508-0.48927-0.1398-1.3471-0.19063-1.9063-0.0572-0.55917-0.13979-1.3598-0.19063-1.7792-0.0508-0.41937-0.19698-1.722-0.32406-2.8912-0.12073-1.1692-0.25417-2.3892-0.28594-2.7005-0.0318-0.31771-0.13344-1.1438-0.2224-1.8427-0.089-0.69897-0.26052-1.6584-0.3749-2.1287-0.12073-0.47021-0.305-1.0866-0.41302-1.3662-0.10802-0.27959-0.34313-0.77522-0.52105-1.1056s-0.42573-0.75615-0.55917-0.94042c-0.12708-0.19063-0.41938-0.57188-0.64178-0.85147-0.21604-0.28594-0.74344-0.82605-1.1628-1.2136-0.42573-0.38761-1.0484-0.88324-1.3852-1.112-0.33677-0.2224-0.96584-0.58459-1.3979-0.80699-0.43208-0.21604-1.1247-0.51469-1.5441-0.65448-0.41938-0.14615-1.0357-0.33678-1.3662-0.42573-0.33042-0.089-1.004-0.21605-1.4932-0.28594-0.48927-0.0635-1.22-0.13344-1.6203-0.15251zm150.79 9.8109c-1.0294 6e-3 -2.2875 0.0381-2.7959 0.0635-0.50834 0.0318-1.4043 0.11438-2.0016 0.18427-0.59094 0.0763-1.4932 0.20334-2.0016 0.2923-0.50834 0.089-1.3471 0.26052-1.8745 0.3876-0.52105 0.12073-1.2963 0.32407-1.7156 0.4448-0.41938 0.12708-0.95949 0.29229-1.2073 0.3749-0.24146 0.0762-0.62907 0.21604-0.85782 0.305-0.22876 0.0826-0.57188 0.22875-0.76251 0.31136-0.19063 0.089-0.59094 0.26688-0.88959 0.39396-0.29865 0.13344-0.88324 0.40667-1.3026 0.62271-0.41937 0.20969-1.0612 0.56553-1.4297 0.79428-0.36854 0.2224-0.86417 0.54011-1.112 0.69896-0.24146 0.15886-0.77522 0.54011-1.1755 0.84512-0.40032 0.305-1.1056 0.89594-1.5695 1.309-0.4575 0.41302-1.0993 1.0357-1.4297 1.3852-0.32406 0.34949-0.74979 0.8197-0.94677 1.0484s-0.5973 0.74344-0.89595 1.1438c-0.29229 0.40032-0.71803 1.0167-0.95313 1.3662-0.22875 0.34948-0.58459 0.93407-0.79428 1.3026-0.20969 0.36855-0.57823 1.0548-0.81334 1.525-0.23511 0.47021-0.5274 1.0866-0.64813 1.3662-0.12073 0.27959-0.40667 1.004-0.62271 1.6013-0.2224 0.60365-0.52105 1.4805-0.66084 1.938-0.13979 0.46386-0.32407 1.1183-0.40667 1.4488-0.089 0.33042-0.23511 0.94678-0.32407 1.3725-0.089 0.41937-0.2351 1.22-0.32406 1.7792-0.089 0.55281-0.19063 1.5377-0.22875 2.1858-0.0445 0.65448-0.0572 1.7093-0.0381 2.3828 0.0254 0.66084 0.0826 1.5314 0.13979 1.919 0.0508 0.39397 0.1525 1.004 0.2224 1.3534 0.0699 0.35584 0.19698 0.93407 0.29229 1.2899 0.089 0.35584 0.24782 0.92136 0.34949 1.2518 0.10802 0.33042 0.29229 0.87688 0.41938 1.2073 0.12708 0.33042 0.39396 0.94678 0.59094 1.3662s0.58459 1.1628 0.85146 1.6521c0.27323 0.48927 0.64178 1.0866 0.8197 1.3344 0.18427 0.24146 0.59729 0.78157 0.92136 1.1946 0.33042 0.41937 0.89594 1.0802 1.2708 1.4805 0.36855 0.40032 1.112 1.1374 1.6584 1.6394 0.54647 0.49563 1.22 1.0993 1.4996 1.3344 0.27959 0.23511 0.78157 0.65449 1.112 0.92137 0.33042 0.27323 1.0484 0.82604 1.5886 1.2264 0.54647 0.40667 1.4297 1.0421 1.9698 1.4106 0.54011 0.36854 1.614 1.0739 2.3828 1.5758 0.76886 0.49563 2.0588 1.3026 2.8594 1.7919 0.80699 0.48292 1.919 1.1438 2.4782 1.4678 0.55917 0.31771 1.4615 0.81969 2.0016 1.112 0.54011 0.28594 1.4869 0.80063 2.0969 1.131 0.61 0.33677 1.5822 0.86417 2.1604 1.1755 0.57824 0.31135 1.6267 0.88323 2.3384 1.2581 0.71167 0.38126 1.5123 0.82605 1.7792 0.99126 0.26687 0.15886 0.84511 0.5274 1.2836 0.8197 0.43844 0.28594 1.0357 0.71802 1.3344 0.95313 0.29864 0.2351 0.87052 0.7625 1.2772 1.1692 0.48292 0.48928 0.87689 0.95314 1.1501 1.3725 0.2224 0.34312 0.48292 0.80063 0.57188 1.0167 0.089 0.20969 0.21604 0.59094 0.27323 0.83876 0.0826 0.33677 0.10167 0.59729 0.0763 0.95313-0.0191 0.26688-0.0826 0.66084-0.13979 0.87053-0.0572 0.20969-0.22876 0.64813-0.38761 0.96584-0.20334 0.42573-0.38761 0.69261-0.64813 0.95313-0.20969 0.21605-0.58459 0.49563-0.90865 0.6672-0.29865 0.17156-0.78793 0.3876-1.0866 0.49563-0.42573 0.14614-0.74979 0.20333-1.4297 0.26052-0.50198 0.0381-1.2581 0.0508-1.7665 0.0254-0.48927-0.0191-1.0739-0.0699-1.3026-0.10166-0.22876-0.0318-0.80063-0.14615-1.2708-0.25417-0.47021-0.10802-1.131-0.26688-1.4615-0.35584-0.33042-0.089-1.1692-0.33042-1.8554-0.53375-0.68626-0.20969-1.5695-0.50199-1.9698-0.65449-0.39396-0.1525-1.1056-0.43208-1.5758-0.62906-0.47022-0.19063-1.1692-0.48293-1.5568-0.64813-0.38125-0.16521-1.2836-0.5973-2.0016-0.96585-0.71802-0.36854-1.5568-0.81334-1.8745-0.99125-0.31136-0.17792-1.0993-0.65449-1.7474-1.0675-0.64813-0.40667-1.6712-1.0866-2.2812-1.5123-0.61-0.43208-1.3979-1.0103-1.7474-1.2963-0.35583-0.28594-1.0294-0.85146-1.4996-1.2518-0.47021-0.40667-1.0739-0.89594-1.3344-1.0929-0.26052-0.19063-0.80698-0.55282-1.2073-0.80699s-1.023-0.60365-1.3852-0.77522c-0.35584-0.17791-0.88324-0.40667-1.1755-0.50833-0.28594-0.10167-0.86417-0.28594-1.2836-0.40667-0.41938-0.11438-1.0357-0.26688-1.3662-0.33042-0.46386-0.0826-0.90865-0.11438-1.9063-0.10802-0.96584 0-1.4615 0.0318-1.9063 0.11437-0.33042 0.0635-0.88324 0.18427-1.2327 0.26688-0.34313 0.089-0.85782 0.24781-1.1438 0.34948-0.27958 0.10802-0.78792 0.33677-1.1183 0.50834-0.33042 0.17156-0.87688 0.51469-1.2073 0.7625-0.33042 0.24147-0.88959 0.70532-1.2327 1.0294-0.34948 0.31771-0.92136 0.94042-1.2708 1.3789-0.34948 0.43845-0.74979 0.97855-0.90229 1.2073-0.14615 0.22875-0.41303 0.68625-0.58459 1.0167-0.17792 0.33042-0.43844 0.91501-0.58459 1.2899-0.13979 0.3749-0.33677 0.9849-0.4448 1.3662-0.10166 0.3749-0.24146 1.0357-0.31135 1.4742-0.0699 0.43844-0.15886 1.1628-0.19698 1.6203-0.0381 0.45115-0.0572 1.023-0.0318 1.2708 0.0191 0.24146 0.0636 0.66084 0.10167 0.92136 0.0318 0.26053 0.12073 0.76251 0.19063 1.112 0.0762 0.34949 0.19063 0.83241 0.26052 1.0802 0.0635 0.24146 0.17157 0.57188 0.2224 0.73074 0.0572 0.15885 0.26688 0.64813 0.47021 1.0929 0.20334 0.4448 0.53376 1.0739 0.73074 1.3916 0.19698 0.31771 0.57823 0.85781 0.85146 1.1946 0.27323 0.33677 0.87688 0.9849 1.3407 1.4424 0.47021 0.45115 1.1247 1.0675 1.4551 1.3662 0.33042 0.2923 0.80698 0.71168 1.0484 0.92137 0.24782 0.21604 0.71803 0.61635 1.0548 0.89594 0.33041 0.27323 1.0421 0.84511 1.5758 1.2581 0.53376 0.41937 1.0294 0.80698 1.1056 0.85782 0.0763 0.0508 0.48292 0.33677 0.9023 0.62906 0.41937 0.29865 1.1374 0.77522 1.5886 1.0675 0.4575 0.28594 1.1819 0.73074 1.6203 0.99126 0.43844 0.25417 1.023 0.5973 1.3026 0.75615 0.27959 0.15886 1.0357 0.56553 1.6775 0.90866 0.64178 0.34312 1.7347 0.88959 2.4273 1.2136 0.68625 0.32407 1.6902 0.77522 2.2303 0.99761 0.53375 0.22876 1.2327 0.5147 1.5504 0.64178s0.95948 0.36854 1.4233 0.54646 1.0929 0.40032 1.3916 0.50199c0.29864 0.10166 0.94677 0.29864 1.436 0.45115 0.48927 0.14614 1.1056 0.33041 1.3662 0.41302 0.26052 0.0826 0.85146 0.24781 1.3026 0.3749 0.45751 0.12073 1.1692 0.31136 1.5949 0.41302 0.41938 0.10802 1.1628 0.27959 1.6521 0.38126 0.48292 0.10166 1.2963 0.26052 1.8046 0.34948 0.50833 0.089 1.5822 0.26688 2.3828 0.38761 0.80698 0.12073 2.0206 0.27958 2.7005 0.34948s2.1668 0.16521 3.2978 0.20333c1.5504 0.0508 2.5099 0.0508 3.9078 0 1.0167-0.0445 2.2367-0.12073 2.7069-0.17156 0.47022-0.0508 1.2454-0.1525 1.7156-0.2224s1.3725-0.22875 2.0016-0.34948c0.62907-0.12709 1.6584-0.35584 2.2875-0.51469 0.62907-0.16521 1.5187-0.41303 1.9698-0.56553 0.4575-0.1525 1.0294-0.34948 1.2708-0.44479 0.24782-0.089 0.70532-0.26688 1.0167-0.39397 0.31771-0.12708 0.95948-0.40667 1.4297-0.62271 0.47656-0.21604 1.3344-0.65448 1.9063-0.97855 0.57188-0.32406 1.3725-0.81334 1.7855-1.0929 0.41302-0.27324 1.0993-0.76251 1.5314-1.0866 0.43209-0.31771 1.1247-0.88959 1.5441-1.2645 0.41938-0.37489 1.131-1.0739 1.5822-1.5504 0.4448-0.47022 1.0675-1.1819 1.3789-1.5758 0.31771-0.39396 0.78156-1.0294 1.0357-1.4106 0.25417-0.38761 0.67991-1.0548 0.94043-1.4932s0.61636-1.0675 0.78792-1.3979c0.17157-0.33042 0.45751-0.92136 0.64178-1.3026 0.17792-0.38761 0.43844-0.9722 0.57823-1.3026s0.38125-0.99126 0.54011-1.4615 0.41938-1.328 0.57823-1.9063c0.16521-0.57824 0.33678-1.1946 0.38761-1.3725 0.0508-0.17791 0.19698-0.8324 0.31771-1.4615 0.12709-0.62271 0.28594-1.5504 0.35584-2.0588 0.0635-0.50834 0.1525-1.4488 0.19063-2.0969 0.0445-0.83241 0.0445-1.5314-6e-3 -2.3828-0.0381-0.66719-0.12708-1.5886-0.19698-2.0524-0.0635-0.46386-0.19063-1.1692-0.27959-1.5568-0.089-0.39397-0.24781-1.0103-0.35583-1.3789-0.10802-0.36854-0.27959-0.90865-0.38761-1.2073s-0.29229-0.81334-0.41938-1.1438c-0.12073-0.33042-0.40031-0.96584-0.62271-1.4106-0.2224-0.44479-0.62907-1.1882-0.90865-1.6521-0.27324-0.46386-0.63543-1.0294-0.80064-1.2581-0.17156-0.22875-0.52104-0.68625-0.78157-1.0167-0.26687-0.33042-1.1374-1.2645-1.9444-2.0651-0.80698-0.80698-1.7665-1.6966-2.135-1.9825-0.36855-0.28594-0.92137-0.72438-1.2391-0.9722-0.31135-0.24781-1.1056-0.80698-1.7601-1.2391-0.65448-0.43844-1.6457-1.0548-2.1922-1.3725-0.55282-0.32407-1.7156-0.99126-2.5925-1.4869-0.87053-0.49563-2.0334-1.1565-2.5735-1.4615s-1.4869-0.84511-2.0969-1.1946c-0.61001-0.34948-1.6394-0.93407-2.2875-1.2963-0.64813-0.36855-1.3725-0.78793-1.6203-0.93407-0.24146-0.1525-0.64177-0.38126-0.88959-0.5147-0.24146-0.13343-0.84511-0.47656-1.3344-0.7625-0.48928-0.28594-1.3471-0.76886-1.9063-1.0802s-1.4615-0.81969-2.0016-1.131c-0.54011-0.31771-1.3725-0.81969-1.8427-1.1183-0.47022-0.29865-1.0993-0.71167-1.3852-0.91501-0.2923-0.20969-0.82605-0.61-1.1755-0.88959-0.35584-0.28594-0.92772-0.78157-1.2645-1.112-0.33678-0.33042-0.76251-0.80698-0.94043-1.0675s-0.40667-0.65448-0.50834-0.87688c-0.10166-0.2224-0.2351-0.5973-0.29229-0.82605-0.10167-0.39396-0.10167-0.4575 6e-3 -0.97855 0.0572-0.305 0.19699-0.73709 0.30501-0.96584 0.11437-0.2224 0.36854-0.58459 0.57188-0.80063 0.27958-0.29865 0.50198-0.46386 0.95313-0.68626 0.31771-0.15885 0.81334-0.34948 1.0929-0.41938 0.27958-0.0635 0.89594-0.1525 1.3662-0.19698 0.51469-0.0445 1.2518-0.0572 1.8427-0.0381 0.5401 0.0254 1.2772 0.0826 1.633 0.13979 0.35584 0.0508 0.88959 0.1525 1.1755 0.2224 0.2923 0.0762 1.201 0.36219 2.0206 0.63542 0.8197 0.27323 1.7665 0.60365 2.0969 0.73074 0.33041 0.12708 1.0739 0.4575 1.6521 0.72438 0.57824 0.26687 1.3598 0.65448 1.7411 0.85782 0.38125 0.20969 1.3407 0.80063 2.1223 1.3217 0.78157 0.52105 1.614 1.0929 1.8491 1.2772 0.22875 0.17792 0.60365 0.47021 0.8324 0.64178 0.22875 0.17792 0.87053 0.6799 1.4297 1.1183 0.55917 0.43209 1.3725 1.0802 1.811 1.4297 0.43844 0.35584 1.023 0.80063 1.3026 0.99126 0.27959 0.19063 0.71168 0.46386 0.95314 0.61 0.24781 0.1398 0.73709 0.40667 1.0993 0.58459 0.35583 0.17792 0.87053 0.41303 1.1438 0.52105 0.26687 0.10802 0.76886 0.27958 1.112 0.38125 0.34312 0.0953 0.84511 0.2224 1.112 0.27323 0.26688 0.0572 0.81334 0.14615 1.2137 0.19698 0.40032 0.0508 1.1438 0.0953 1.6521 0.0953 0.50833 0 1.1819-0.0318 1.4996-0.0635 0.31136-0.0381 0.85782-0.12708 1.2073-0.19698 0.34949-0.0763 0.90866-0.22239 1.2391-0.32406 0.33042-0.10802 0.81969-0.29865 1.0866-0.43209s0.62271-0.31771 0.79428-0.41938c0.17156-0.0953 0.56552-0.34948 0.88323-0.55917 0.31136-0.20969 0.77522-0.54646 1.0294-0.7498 0.24781-0.20333 0.71802-0.64813 1.0357-0.99125 0.31771-0.33678 0.8197-0.93407 1.1056-1.3153 0.28594-0.38761 0.65448-0.90865 0.81969-1.1628 0.15886-0.26052 0.41938-0.77521 0.58459-1.1565 0.15886-0.38125 0.3749-0.9849 0.47657-1.3471 0.10166-0.35584 0.24781-0.99761 0.31771-1.417s0.1525-1.1056 0.17792-1.5314c0.0318-0.42573 0.0318-1.1247 6e-3 -1.5568-0.0254-0.43209-0.10802-1.131-0.18427-1.5441-0.0763-0.41938-0.23511-1.0929-0.34948-1.4932-0.12073-0.40667-0.31772-0.9722-0.43845-1.2581-0.12073-0.29229-0.31771-0.70531-0.44479-0.92771-0.12073-0.22875-0.43209-0.71803-0.6799-1.0929-0.24782-0.38125-0.64813-0.92136-0.88324-1.201-0.23511-0.28593-0.80063-0.87052-1.2454-1.309-0.45115-0.43845-1.131-1.0739-1.5186-1.4106-0.38126-0.33677-1.0103-0.85782-1.3979-1.1628-0.38126-0.29865-0.89595-0.69897-1.1438-0.88324-0.24146-0.19063-0.87053-0.64813-1.3979-1.023-0.52105-0.3749-1.6076-1.1183-2.4146-1.6521-0.80064-0.53375-1.6013-1.0548-1.7792-1.1565-0.17156-0.10803-0.7625-0.46386-1.3026-0.79428s-1.4424-0.83876-2.0016-1.131c-0.55917-0.2923-1.2836-0.6672-1.6076-0.8324-0.32406-0.17157-0.99761-0.48928-1.4932-0.71803-0.49563-0.2224-1.1882-0.5274-1.5377-0.67355s-0.86417-0.35584-1.1438-0.4575c-0.27958-0.10802-0.92136-0.33042-1.4297-0.50834-0.50834-0.17156-1.4233-0.46386-2.0334-0.64813-0.61-0.18427-1.7093-0.48928-2.4464-0.67355-0.73074-0.18427-1.6458-0.40031-2.0334-0.48292-0.38126-0.089-1.0993-0.22875-1.5886-0.31136-0.48927-0.089-1.1628-0.21604-1.4932-0.28593-0.33042-0.0699-1.3026-0.2224-2.1604-0.34313s-1.9571-0.26053-2.4464-0.31771c-0.48927-0.0572-1.417-0.12709-2.0651-0.16521-0.64813-0.0318-2.0206-0.0572-3.05-0.0572z"/>
 </g>
</svg>
