<svg xmlns="http://www.w3.org/2000/svg" height="512" width="512">
    <path fill-opacity="0" stroke="#000" stroke-width="3" d="M255.372 10.805a244.818 244.818 0 100 489.635 244.818 244.818 0 000-489.635zm15.194 167.985h10.157v66.666l-4.368-.122-4.367-.122-.406-2.112-.407-2.112-1.604 1.218c-.882.67-2.803 1.805-4.266 2.52-2.579 1.26-2.823 1.3-7.942 1.3-5.078 0-5.387-.05-8.004-1.286-6.191-2.926-9.33-8.871-9.916-18.784-1.07-18.119 7.847-28.892 22.308-26.952 3.331.447 5.534 1.202 7.677 2.631l1.138.759v-11.802zm22.315.088c2.426.082 4.765 1.282 5.767 3.162 1.04 1.95 1.014 5.864-.05 7.597-1.145 1.868-2.478 2.598-5.16 2.824-4.59.388-7.434-2.168-7.434-6.683 0-3.454 1.524-5.702 4.468-6.594a7.453 7.453 0 012.41-.306zm-201.734 2.008l.545.008c.073 0 .15-.003.224 0 2.93.103 5.817.872 8.139 2.245 1.324.886 4.843 3.225 7.173 8.933l14.199 39.52v-35.999l-.217.605-5.2 14.608-6.734-19.025a14.562 14.562 0 011.511-3.867 15.103 15.103 0 012.45-3.225 13.923 13.923 0 013.79-2.717 11.788 11.788 0 014.252-1.054c2.915-.18 5.854.66 8.205 2.22 3.642 2.64 4.68 5.863 4.816 11.43v39.061c-.443 6.45-4.536 9.96-8.202 11.571-1.743.585-2.48.728-4.386.728-3.217.148-7.164-1.165-9.95-4.388-1.16-1.176-3.512-6.873-3.512-6.873l-13.467-35.858c-.804-2.116-2.519-3.25-4.214-3.329-1.704-.08-3.39.906-4.12 3.032l-4.26 11.273-7.157-18.732c3.521-6.299 6.887-7.915 10.83-9.373a17.913 17.913 0 014.738-.787c.182-.007.364-.007.547-.007zm-31.342.067c3.217 0 7.315 1.171 9.951 4.536 1.181 1.163 3.512 6.88 3.512 6.88l13.467 35.708c.838 2.015 2.432 3.126 4.05 3.298.11.012.222.019.334.021h.004c.11.003.221.001.332-.006 1.33-.077 2.607-.809 3.408-2.241a5.94 5.94 0 00.19-.373c.024-.054.046-.113.071-.168.032-.078.066-.153.097-.234l4.104-11.281 7.166 18.877c-.212.38-.43.756-.657 1.127a23.6 23.6 0 01-1.308 1.94c-.108.147-.218.287-.325.425-.21.267-.428.528-.652.784l-.032.036c-.304.343-.62.673-.95.991a14.368 14.368 0 01-1.99 1.599 16.55 16.55 0 01-2.044 1.152c-.462.22-.93.422-1.407.615-.482.193-.967.38-1.455.56-.379.117-.761.222-1.147.312a19.51 19.51 0 01-3.57.48c-3.383.152-6.802-.57-9.488-2.26-1.318-.869-4.822-3.069-7.159-8.78l-14.045-39.656v36.15l.337-.978 4.924-14.254 6.724 19.03c-.109.53-.254 1.051-.435 1.562-.179.51-.39 1.009-.632 1.492a14.143 14.143 0 01-1.768 2.711 15.1 15.1 0 01-1.09 1.19 14.54 14.54 0 01-3.829 2.71c-.15.07-.3.136-.452.198l-.178.069c-.093.036-.186.074-.28.108-.101.037-.203.07-.305.103-.051.017-.103.037-.157.053a11.86 11.86 0 01-2.341.485c-3.042.324-6.136-.492-8.724-2.047-3.667-2.776-4.687-5.85-4.823-11.556v-38.932c.432-6.58 4.672-10.098 8.341-11.71 1.597-.581 2.341-.726 4.233-.726zm88.073.68h13.528c14.625 0 17.018.25 21.125 2.205 2.803 1.334 5.578 3.768 6.936 6.084 2.948 5.022 3.041 13.447.212 19.012-1.146 2.256-4.995 6.073-7.27 7.21-1.016.509-1.89.978-1.97 1.058-.078.078 1.415 3.026 3.323 6.56 3.535 6.55 3.883 7.191 8.562 15.845 1.471 2.721 2.679 5.148 2.679 5.382 0 .276-1.99.426-5.647.426h-5.647l-.792-1.523a345.87 345.87 0 00-2.112-3.961 965.02 965.02 0 01-3.575-6.703c-1.246-2.356-2.828-5.266-3.535-6.5a135.356 135.356 0 01-2.478-4.57l-1.199-2.336H158.44l-.102 12.695-.1 12.695-5.181.122-5.18.122v-31.91zm10.562 8.938v20.8l7.008-.182c5.16-.135 7.48-.361 8.796-.857 4.488-1.692 6.302-4.567 6.317-10.01.015-5.566-1.659-7.786-6.886-9.133-1.669-.43-4.347-.618-8.816-.618zm56.685 8.192c3.868-.016 7.79.547 10.184 1.568 2.682 1.143 5.276 3.776 6.316 6.41.87 2.2.927 3.026 1.139 16.676.212 13.65.263 14.389 1.016 14.93.561.403 1.361.492 2.742.305l1.95-.265v6.257l-1.381.578c-2.074.867-6.663 1.184-8.775.605-1.87-.511-4.469-2.784-4.469-3.905 0-.812-.549-.732-1.39.203-1.004 1.115-5.435 3.192-7.954 3.727-1.189.253-3.9.392-6.053.31-4.957-.186-7.83-1.43-10.18-4.403-3.883-4.916-3.02-13.773 1.77-18.178 3.873-3.561 8.37-4.972 16.86-5.29l5.81-.216-.285-3.494c-.456-5.606-1.62-7.115-5.89-7.63-4.713-.568-8.034 1.08-8.986 4.46-.263.935-.608 1.854-.762 2.032-.26.3-6.706-.59-8.656-1.197-.802-.25-.765-.51.607-4.328 1.613-4.488 6.015-7.902 11.297-8.762 1.587-.259 3.333-.386 5.09-.393zm109.757.074c.452-.005.916-.005 1.385.003 3.13.053 6.512.41 8.284.97 8.531 2.693 13.203 10.465 13.203 21.962 0 10.725-4.166 19.025-11.172 22.257-3.922 1.81-6.865 2.3-12.593 2.1-4.55-.16-5.661-.34-8.024-1.303-1.503-.612-3.458-1.633-4.327-2.26-3.803-2.746-6.52-7.835-7.394-13.847-.667-4.591-.277-12.04.803-15.317 2.639-8.003 8.362-13.039 16.26-14.309.971-.156 2.22-.238 3.575-.256zm-37.253.631l5.18.122 5.18.122v45.5h-10.36l-.02-18.687c-.012-10.278-.012-20.57 0-22.872zm-27.22 7.807c-3.087.599-3.97.883-5.077 1.64-3.585 2.445-5.35 8.063-4.958 15.782.26 5.118 1.086 8.05 2.83 10.034 1.74 1.979 3.346 2.56 7.084 2.56 3.534 0 6.654-1.127 8.775-3.169l1.097-1.057V210.6l-2.336-1.24c-1.295-.687-3.413-1.437-4.753-1.685-1.341-.248-2.526-.426-2.661-.4zm65.442.24c-5.04.081-8.788 2.814-10.158 7.675-.723 2.565-.96 8.654-.473 12.107.81 5.728 2.632 8.567 6.412 9.987 6.272 2.356 11.818-.318 13.972-6.737 1.274-3.795 1.377-11.578.208-15.722-.962-3.412-3.186-6.166-5.445-6.741-1.591-.405-3.104-.59-4.516-.568zm-106.879 18.173c-6.175-.042-9.046.72-10.95 2.909-1.111 1.276-1.238 1.686-1.238 4.001 0 2.194.158 2.768 1.052 3.84 2.468 2.953 8.901 2.453 13.492-1.05l1.34-1.022-.12-4.327-.123-4.326zM73.358 258.557c1.139-.011 2.572 0 4.034.041 4.428.12 5.76.311 8.247 1.186 6.663 2.345 11.657 6.517 14.408 12.039 1.417 2.843 1.472 3.081.827 3.572-.975.743-8.279 4.146-8.897 4.146-.262 0-.61-.487-.753-1.056-.719-2.857-4.366-7.078-7.494-8.673-5.647-2.88-14.034-1.654-18.525 2.706-4.408 4.28-6.517 12.426-5.5 21.242 1.214 10.522 5.554 16.096 13.95 17.914 2.8.607 6.54.031 9.872-1.519 2.408-1.12 5.769-4.492 7.069-7.092.487-.975.949-1.843 1.015-1.91.066-.066 1.483.508 3.108 1.26s3.875 1.78 4.936 2.255l1.95.874-1.34 2.559c-2.076 3.969-7.028 8.705-11.294 10.8-4.761 2.34-8.328 3.02-14.625 2.789-7.313-.267-12.6-2.227-17.185-6.37-7.278-6.575-10.707-19.041-8.827-32.082 1.946-13.488 9.832-22.003 22.762-24.58.281-.055 1.124-.09 2.262-.101zm136.27.225v62.603h-14.015l-.855-1.503c-1.519-2.674-14.324-25.635-18.534-33.232-2.229-4.022-4.207-7.477-4.398-7.678-.195-.207-.345 8.857-.345 20.923v21.287l-5.708.122-5.708.122v-62.604l6.744.101 6.744.102 2.722 4.875a938.993 938.993 0 014.155 7.516c1.334 2.458 9.587 17.387 15.047 27.219l2.37 4.266.101-21.938.102-21.938 5.79-.121zm-88.401.04l7.11.101 7.109.102 1.138 3.25 7.454 21.329c3.478 9.953 6.51 18.534 6.744 19.093.238.566.85 2.276 1.382 3.86.522 1.555 1.884 5.504 3.006 8.714 1.121 3.209 2.051 5.935 2.051 6.012 0 .08-2.721.089-6.093.021l-6.094-.122-2.418-7.069c-1.333-3.9-2.571-7.224-2.762-7.414-.19-.19-5.525-.3-11.863-.243l-11.517.101-2.478 7.414-2.478 7.415h-5.992c-3.332 0-5.993-.163-5.993-.366 0-.198.363-1.361.793-2.54a746.57 746.57 0 002.01-5.626 8725.013 8725.013 0 009.405-26.813 3586.734 3586.734 0 015.281-15.031 714.581 714.581 0 003.149-9.039zm93.276 0h14.523c13.082 0 14.86.08 17.896.813 6.866 1.657 10.035 4.36 11.668 9.953 1.009 3.453.671 8.558-.777 11.78-1.186 2.642-2.4 4.13-4.797 5.887l-1.503 1.101 1.625.742c2.134.975 5.059 4.174 6.302 6.896 1.227 2.682 1.68 7.8 1.011 11.376-1.304 6.962-6.338 11.764-14.057 13.409-2.196.468-6.155.606-17.368.606h-14.523v-31.282zm49.97 0h19.073c10.482 0 19.138.137 19.216.305.079.169-.139 2.295-.488 4.773l-.63 4.469-12.898.102-12.898.1v15.44h24.781v10.154h-24.781v17.065h27.219v10.156h-38.595v-31.282zm42.656 0h13.244c12.025 0 13.546.077 16.534.837 4.185 1.065 6.787 2.394 9.304 4.754 3.754 3.52 5.6 8.181 5.589 14.112-.016 7.76-3.112 13.769-8.84 17.152l-1.706 1.008 5.749 11.233c3.16 6.175 5.996 11.59 6.297 12.025.31.447.548.934.548 1.117 0 .179-2.925.325-6.5.325-6.378 0-6.507-.017-6.866-.914-.2-.501-1.723-3.758-3.372-7.211a834.873 834.873 0 01-4.814-10.258l-1.807-3.961h-11.985v22.344H307.13v-31.282zm63.66 0c14.584 0 16.642.252 21.49 2.64 2.682 1.319 6.227 4.686 7.444 7.07 3.59 7.027 2.976 16.786-1.42 22.547-1.292 1.695-4.155 4.213-6.064 5.338-.663.39-.323 1.222 3.656 8.941 2.41 4.672 5.185 10.005 6.155 11.823.976 1.828 1.768 3.51 1.768 3.757 0 .305-2.073.447-6.5.447-3.82 0-6.5-.16-6.5-.386 0-.211-.94-2.376-2.072-4.773-3.299-6.988-5.423-11.5-6.81-14.463l-1.275-2.722H368.88v22.385l-5.789-.122-5.788-.122-.103-30.672c-.055-16.86-.019-30.901.082-31.18.14-.392 3.23-.508 13.508-.508zm63.6 0h7.048l.467 1.32c.258.73 1.673 4.774 3.164 9.04 3.407 9.75 5.217 14.927 6.74 19.296.666 1.91 1.552 4.362 1.979 5.485 1.434 3.778 9.343 26.682 9.343 27.057 0 .205-2.62.365-5.992.365h-5.992l-2.01-5.992c-1.105-3.29-2.268-6.679-2.58-7.516l-.57-1.523h-23.4l-2.457 7.413-2.458 7.415-6.155.122c-5.728.113-6.14.071-5.931-.61.123-.405 1.066-3.088 2.112-6.013 1.039-2.904 3.17-8.937 4.733-13.406 1.564-4.468 3.713-10.592 4.774-13.609 1.06-3.011 3.697-10.522 5.85-16.656a9566.89 9566.89 0 014.103-11.68c.137-.381 1.95-.508 7.231-.508zm-65.51 9.668v20.395h6.379c6.906 0 8.722-.313 11.171-1.926 2.516-1.656 3.702-4.087 3.898-7.987.151-3.007.065-3.482-.993-5.505-.926-1.77-1.604-2.462-3.391-3.453-2.229-1.236-2.255-1.24-9.649-1.38zm-142.595.041l.102 7.638.101 7.638h7.516c7.191 0 7.604-.045 9.548-1.023 2.637-1.328 3.962-3.609 4.004-6.9.04-3.006-1.006-5.044-3.192-6.228-1.485-.805-2.336-.892-9.852-1.003zm92.22.04v20.314h6.419c9.222 0 12.18-1.148 14.338-5.566 1.31-2.681 1.325-7.283.03-9.75-1.144-2.183-3.603-3.988-6.203-4.554-1.118-.244-4.854-.443-8.307-.443zm-190.177 5.13c-.258-.04-.505.377-.745 1.25-.232.848-2.05 5.93-4.04 11.293-3.133 8.45-3.526 9.788-2.945 10.035.368.156 4.124.293 8.308.304l7.638.02-.264-.913c-.145-.504-1.723-5.018-3.514-10.055-1.791-5.038-3.422-9.724-3.633-10.44-.28-.956-.548-1.453-.805-1.493zm306.067.214c-.288-.01-.603.593-1.04 1.888-1.098 3.25-6.238 17.282-6.92 18.891-.345.813-.601 1.512-.557 1.523.044.011 3.798.058 8.308.102 6.175.061 8.227-.04 8.227-.406 0-.269-.657-2.275-1.463-4.47a1063.92 1063.92 0 01-3.615-10.074c-1.192-3.372-2.278-6.402-2.43-6.784-.174-.435-.337-.663-.51-.67zm-208.11 19.763v17.55h8.085c10.156 0 12.073-.57 13.897-4.143.703-1.378.825-2.235.708-4.957-.178-4.103-1.072-5.55-4.368-7.073-2.154-.996-2.701-1.06-10.298-1.214z"/>
</svg>
