<svg version="1.1" viewBox="0 0 512 512" xmlns="http://www.w3.org/2000/svg">
 <g fill="none" stroke="#000" stroke-width="3">
  <path d="m372.64 104.6c-7.2104-4.9076-16.238-7.5456-25.189-6.9811-4.4436 0.27529-8.8675 1.3321-13.048 3.3136-11.217 5.5245-20.694 17.046-23.796 30.864l20.669 59.858 15.962-45.962 0.66122-1.9094v113.26l-43.584-124.34c-7.1527-17.959-17.953-25.314-22.024-28.109-7.1334-4.3175-15.982-6.732-24.983-7.0602h-0.68742c-1.1172-0.02619-2.228-0.03902-3.3452 0-4.9632 0.17105-9.9008 0.98462-14.55 2.4738-12.097 4.5864-22.434 9.6714-33.24 29.487l21.972 58.933 13.08-35.465c2.2408-6.6924 7.4157-9.7896 12.642-9.5399 5.2075 0.2491 10.466 3.8188 12.938 10.472l41.344 112.81s7.2168 17.926 10.781 21.626c8.5521 10.138 20.669 14.264 30.544 13.799 5.8495 0 8.1095-0.44634 13.465-2.29 11.249-5.0717 23.815-16.108 25.176-36.403v-122.9c-0.41748-17.512-3.6023-27.65-14.788-35.956z"/>
  <path d="m267.46 246.89c-2.5749 6.9944-8.1288 10.032-13.613 9.4421-4.9568-0.53828-9.8558-4.0352-12.431-10.374l-41.337-112.34s-7.1527-17.985-10.781-21.639c-8.0903-10.59-20.669-14.278-30.551-14.278-5.804 0-8.0903 0.45917-12.996 2.29-11.256 5.0717-24.277 16.135-25.6 36.836v122.48c0.41748 17.952 3.551 27.623 14.8 36.357 7.9492 4.8948 17.446 7.4664 26.782 6.4428 3.8652-0.41962 7.7049-1.4433 11.397-3.195 11.224-5.5378 21.118-17.047 23.802-30.412l-20.63-59.868-15.115 44.84-1.0402 3.0774v-113.73l43.11 124.77c7.1719 17.972 17.927 24.888 21.978 27.624 8.2448 5.3208 18.743 7.5915 29.131 7.112 4.9317-0.2229 9.8436-1.0103 14.473-2.4931 12.116-4.6259 22.435-9.1989 33.215-29.034l-21.992-59.393-12.604 35.491z"/>
  <path d="m27.008 375.7h25.95v-15.576h-25.95v-13.466h26.523l2.0115-15.047h-45.774v75.049h45.937v-15.685h-28.697z"/>
  <path d="m97.487 350.14c-7.9363 0-14.694 3.5563-17.832 9.3256-1.6148-5.2128-6.2824-8.7964-11.569-8.7964h-4.2448v56.324h17.135v-26.354c0-5.7351 1.3674-15.353 10.514-15.353 5.4427 0 7.5584 3.2917 7.5584 11.735v29.972h17.239v-36.671c0-12.638-7.0244-20.185-18.795-20.185z"/>
  <path d="m157.79 390.86c-1.3935 0.50193-3.9845 1.432-6.4065 1.432-3.9385 0-5.9307-2.4097-5.9307-7.1607v-19.397h10.241l2.1157-14.511h-12.356v-16.316l-14.355 1.873-2.0313 14.443h-7.5653v14.511h6.7186v22.058c0 3.8006 0.69009 9.2235 3.9652 13.506 3.1768 4.147 8.0272 6.2509 14.42 6.2509 6.3931 0 12.109-2.1718 14.153-3.1084l0.20206-0.0882-2.4348-13.744-0.7227 0.25818z"/>
  <path d="m189.71 350.14c-16.361 0-26.933 11.015-26.933 28.058 0 18.916 9.6356 29.334 27.142 29.334 11.21 0 20.279-6.2712 23.665-16.364l0.0914-0.27796-15.696-5.2877-0.085 0.2785c-1.1129 3.8006-4.1341 6.0745-8.079 6.0745-7.4151 0-9.1342-5.4977-9.4662-8.9995h33.639l0.2213-3.9909c0.52117-8.3009-1.8228-15.8-6.5882-21.122-4.4463-4.968-10.807-7.7032-17.903-7.7032zm-8.6264 21.169c0.63183-3.312 3.0667-7.0859 8.0208-7.2959 2.0767-0.0545 3.8348 0.57676 5.0717 1.8121 1.2562 1.2626 1.9724 3.1559 2.0703 5.4908h-15.163z"/>
  <path d="m248.87 349.77c-6.8293-0.0337-12.259 3.3328-14.759 11.036-2.0959-6.4749-7.1612-10.086-13.763-10.086h0.10423v56.324h17.135v-25.927c0-6.6379 1.5427-15.889 10.325-16.92 3.444-0.40732 6.5171-0.11547 9.3619 1.432l0.32554 0.14219v-14.09c-1.7057-0.93652-5.9569-1.9072-8.7237-1.9206z"/>
  <path d="m301.55 390.86c-1.393 0.50193-3.9845 1.432-6.4059 1.432-3.939 0-5.9313-2.4097-5.9313-7.1607v-19.397h10.241l2.1162-14.511h-12.357v-16.316l-14.355 1.873-2.0312 14.443h-8.3003v14.511h7.4478v22.058c0 3.8006 0.69009 9.2235 3.9647 13.506 3.1768 4.147 8.0272 6.2509 14.42 6.2509 6.3931 0 12.109-2.1718 14.154-3.1084l0.20152-0.0882-2.4348-13.744-0.7227 0.25818z"/>
  <path d="m362.65 393.8s-1.478 0.80769-3.5093 0.60403c-1.9858-0.21756-2.4022-1.6972-2.4022-2.9052v-18.834c0-15.054-7.4087-22.425-22.662-22.527-6.8555 0-12.981 1.1471-21.152 3.9502l-0.23466 0.0813 2.7668 13.568 0.30629-0.12936c0.0716-0.0267 6.979-2.9592 15.976-3.0608 5.1428 0 7.8642 2.2531 7.8642 6.5225v1.7036c-2.5391-0.23787-5.9441-0.50247-8.372-0.50247-8.3917 0-14.492 1.989-18.144 5.9051-2.7866 2.9929-4.1341 7.1195-4.0037 12.264 0.28651 10.703 7.1222 17.09 18.287 17.09 3.9192 0 9.557-1.2487 14.173-7.1944 2.0703 4.7104 5.989 7.1944 11.367 7.1944 5.3775 0 8.6782-1.4866 9.9734-2.043l0.16945-0.0748v-11.836zm-23.145-12.041v9.3796c-1.1583 0.86221-4.0946 2.4161-7.6626 2.6267-1.842 0-3.2484-0.50889-4.186-1.5133-0.87237-0.93705-1.2888-2.26-1.2369-3.9369 0.0914-3.5429 2.5262-5.8842 6.6796-6.4273h6e-3c1.0354-0.16945 2.2007-0.25124 3.4895-0.25124 0.91139 0 1.8816 0.0406 2.91 0.12241z"/>
  <path d="m376 350.63h-11.588v15.047h6.8164v41.279h17.239v-43.295c0-7.1874-5.5924-13.031-12.468-13.031z"/>
  <path d="m377.61 345.02c4.9082 0 8.8867-4.1053 8.8867-9.1695s-3.9786-9.1695-8.8867-9.1695c-4.9076 0-8.8867 4.1053-8.8867 9.1695s3.9791 9.1695 8.8867 9.1695z"/>
  <path d="m430.18 350.14c-7.9363 0-14.694 3.5563-17.832 9.3256-1.6213-5.2128-6.2824-8.7964-11.575-8.7964h-4.2448v56.324h17.135v-26.354c0-5.7351 1.3668-15.353 10.514-15.353 5.4427 0 7.5584 3.2917 7.5584 11.735v29.972h17.239v-36.671c0-12.638-7.0244-20.185-18.795-20.185z"/>
  <path d="m481.18 370.74c-4.303-0.86168-7.7016-1.5336-7.923-3.529-0.0583-0.7398 0.15609-1.3914 0.63183-1.9409 0.94399-1.0728 2.8774-1.6902 5.2989-1.6902h0.26727c7.6493 0 14.375 4.3843 14.44 4.4249l0.26086 0.16999 5.95-12.549-0.22771-0.13577c-0.0909-0.0545-9.1406-5.355-19.98-5.355-14.349 0-22.396 5.796-23.268 16.757-1.0349 13.757 10.43 16.439 18.795 18.4 5.0193 1.1744 8.9776 2.097 8.9776 4.8189 0 2.4434-1.7773 3.4344-6.1392 3.4344-10.058 0-17.259-5.9387-17.33-5.9997l-0.26032-0.21756-6.2632 12.767 0.3063 0.23734c7.7209 5.9521 16.79 7.2013 23.04 7.2013 14.446 0 23.782-7.0452 23.782-17.952 0-14.776-11.771-17.124-20.364-18.841z"/>
 </g>
</svg>
