<svg xmlns="http://www.w3.org/2000/svg" height="512" width="512">
    <path fill-opacity="0" stroke="#000" stroke-width="3" d="M390.056 190.684l3.613-.905-7.953-21.663c-.76-1.944-2.179-6.113-4.082-7.069-4.223-2.124-2.312 4.728-1.698 6.164zm55.205-19.789c-4.957 3.681-11.267 12.152-15.62 17.08l-8.15 9.065-4.694 4.206c-2.079 2.57-.138 4.674 2.044 4.123 1.42-.359 5.087-5.224 6.369-6.58l18.11-18.938c1.524-1.536 6.686-6.014 5.259-8.471-.835-1.453-2.237-.718-3.318-.485zm-50.69 19.79c1.243 6.851 4.09 8.458 3.739 10.67-.246 1.569-1.97 2.3-3.243.613l-3.205-9.481c-9.848 2.662-20.635 9.832-21.666 20.744 6.956-.07 12.39.034 18.57-.75 5.5 2.945-1.54 3.66-5.037 3.66h-12.632c2.775 7.882 11.26 9.66 18.959 9.747h8.125c11.375-.133 29.303-6.906 36.063-16.283 2.033-2.825 3.823-6.301 3.43-9.894-.917-8.53-8.187-6.435-10.603 1.807l4.51.901c-5.37 3.213-6.03 3.639-4.51 9.932-6.23-2.124-7.866-1.127-10.834 4.511-2.745-6.552-5.3-5.417-11.734-5.417 4.736-4.306 5.37-6.293 1.803-11.734 6.113-.363 8.513-1.753 9.026-8.125 4.515 6.61 7.97 3.321 10.833-2.709-12.022-2.157-19.976-.813-31.594 1.807zm11.735 8.124v.902l-.902-.902zm33.4 12.636l-8.124 37.917-21.667-19.864-7.22 27.083c-5.245-3.755-14.117-13.77-18.803-18.954-3.64-4.027-4.958-6.602-10.086-9.03l9.164 20.765c1.836 4.257 3.593 9.18 7.177 12.286 4.236 3.672 9.824 4.799 15.257 4.865 14.022.163 31.895-3.847 38.31-18.052 2.031-4.478.976-8.017.462-12.64l-2.662-24.371zm-70.412 5.417c-.559-1.506-.713-2.6-2.186-3.589-2.174-1.465-11.914-.935-14.965-.926-2.003 0-6.005-.288-7.386 1.402-2.392 2.921 3.321 3.088 4.674 3.113h9.931zM10 264.706v15.35c6.372.75 7.136 2.987 7.22 9.025v36.11c-.034 6.293-.243 9.118-7.22 9.932v14.443h35.208c12.557 0 23.979.188 35.209-6.744 10.95-6.76 16.183-18.632 16.245-31.173.076-15.578-.087-30.972-15.344-40.186-11.088-6.71-23.67-6.757-36.11-6.757zm235.617 0v15.35c5.804 1.264 6.238 3.454 6.318 9.025v37.917c-.008 1.786.108 4.507-.918 6.039-2.045 3.025-8.83 2.762-9.014-6.94v-40.634h-32.496v16.255h6.318v29.787c-3.464 0-7.896.572-10.55-2.087-2.382-2.387-2.078-5.646-2.086-8.742v-35.208h-32.5v16.25c1.519.25 2.78.242 3.973 1.443 2.312 2.32 1.444 13.1 1.444 16.61 0 5.074-.597 17.514 1.039 21.666 4.244 10.85 17.602 11.13 26.945 7.729 5.137-1.878 7.762-4.09 11.735-7.729.822 7.691 2.921 8.108 9.932 8.125h37.917c6.626-.008 8.367-.134 11.734-6.318 3.952 3.727 6.327 5.842 11.735 7.186 20.152 4.991 33.176-10.896 33.401-29.754.092-7.829.543-16.133-2.67-23.474-4.658-10.624-16.267-14.752-27.121-11.951-5.65 1.452-8.4 3.584-12.636 7.436v-18.053s.43-6.418-1.57-8.484c-1.556-1.61-6.555-1.448-6.555-1.448zm74.927 0v15.35c8.639 1.009 5.676 8.566 6.323 12.635-.355 5.116 0 32.5 0 32.5-.008 5.788.288 8.847-6.323 9.932v14.443h39.724v-14.443c-6.58-1.419-6.314-3.956-6.322-9.932v-50.553c0-2.503.292-6.58-1.57-8.483-1.714-1.753-5.174-1.436-7.457-1.449zm145.345 0v15.35c9.014.73 8.112 8.087 8.125 15.344v25.284c-.046 3.184-.175 7.149-2.312 9.724-5.12 6.163-9.894-1.21-13.976-2.358h-12.602c0 2.199.125 16.68.125 16.68 6.66 5.508 16.776 6.79 25.151 6.355 12.811-.955 26.01-2.525 30.497-16.86 1.043-3.358 1.085-5.591 1.102-9.03v-52.364c-.017-2.462.242-5.642-2.087-7.202-1.895-1.265-7.261-.918-9.652-.918zm-418.874 16.25c6.135.823 10.425.46 15.157 5.509 2.942 3.15 4.052 6.627 4.874 10.741 1.932 9.632 1.515 26.892-6.76 33.581-3.856 3.118-9.427 3.389-14.176 3.43v-36.11zm80.345 4.027c-7.303 1.628-14.285 4.144-19.593 9.67-10.09 10.516-11.751 31.54-2.629 43.178 7.553 9.624 17.752 12.549 29.441 13.38 9.715.684 22.994-4.19 29.32-11.656 10.003-11.789 9.582-32.609-.722-44.072-8.989-10.003-23.064-12.26-35.817-10.5zm296.998 44.865h-12.636c-2.963.835-16.847 11.748-23.19-1.043-.905-1.844-.993-3.443-1.185-5.417h39.724c0-11.5.359-23.886-9.064-32.312-8.947-7.995-29.078-8.187-39.686-3.61-4.036 1.732-8.668 5.417-11.384 8.84-5.86 7.385-6.77 15.356-6.669 24.37.267 23.231 19.622 32.95 40.62 30.171 5.488-.722 19.322-1.147 22.552-6.147 1.119-1.744.918-4.84.918-6.869zm-22.564-19.1h-14.451c.146-2.921.355-6.343 2.437-8.638 2.863-3.143 8.542-2.825 10.825 1.469 1.169 2.186 1.127 4.757 1.185 7.17zm-268.12-8.605c11.434-2.274 11.901 15.87 9.898 23.954-.976 3.935-2.754 7.87-7.207 8.638-5.45.939-8.709-3.91-9.623-8.638-1.523-7.946-2.462-22.08 6.936-23.954zm144.443 2.287c4.448-.793 9.54-1.878 12.953 2.057 5.571 6.419 4.315 26.729-5.73 28.294-5.642.876-7.123-1.953-7.223-6.881v-9.932z"/>
</svg>
