<svg xmlns="http://www.w3.org/2000/svg" width="512" height="512">
    <g font-weight="400" font-family="Arial Black" fill-opacity="0" stroke="#000" stroke-width="3">
        <path style="line-height:125%;-inkscape-font-specification:'Arial Black';text-align:start" d="M65.772 251.855v-20.542h49.481v42.093c-9.472 6.151-17.848 10.338-25.13 12.56-7.28 2.223-15.916 3.335-25.906 3.335-12.3 0-22.326-1.998-30.078-5.994-7.752-3.996-13.76-9.946-18.025-17.848-4.265-7.902-6.397-16.972-6.397-27.209 0-10.776 2.333-20.148 6.998-28.118 4.665-7.97 11.498-14.02 20.5-18.15 7.02-3.188 16.47-4.782 28.345-4.782 11.451 0 20.016.987 25.695 2.963 5.678 1.976 10.39 5.04 14.137 9.193 3.747 4.154 6.562 9.418 8.448 15.794l-30.89 5.253c-1.273-3.727-3.43-6.578-6.469-8.554-3.04-1.975-6.916-2.963-11.628-2.963-7.022 0-12.618 2.324-16.788 6.97-4.17 4.648-6.256 12-6.256 22.057 0 10.687 2.109 18.32 6.326 22.899 4.218 4.58 10.097 6.87 17.637 6.87 3.581 0 6.998-.494 10.25-1.482 3.251-.988 6.974-2.672 11.168-5.051v-9.294zm51.365-64.678h30.873l11.13 56.286 16.226-56.286h30.802l16.298 56.286 11.13-56.286h30.73l-23.192 100.75h-31.879l-18.452-63.432-18.38 63.433h-31.88zm150.706-.156h30.324l39.57 55.705v-55.705h30.611v100.695h-30.61l-39.356-55.293v55.293h-30.539z"/>
        <path d="M452.167 324.845l50.116-88.842-29.614-48.977-79.73 137.82zm-80.869-137.819l28.475 48.977h41.004l28.475-48.977z" clip-rule="evenodd" fill-rule="evenodd"/>
        <path d="M17.699 324.979V291.83h350.016l-15.75 33.148z" style="line-height:125%;-inkscape-font-specification:'Arial Black';text-align:start"/>
    </g>
</svg>
