<svg xmlns="http://www.w3.org/2000/svg" width="512" height="512">
    <path fill-opacity="0" stroke="#000" stroke-width="3" d="M203.88 455.413h24.416s-3.37 47.869-50.587 47.225c-43.129-.589-57.655-34.879-57.167-63.308.463-26.983 21.073-58.364 56.29-58.19 45.732.227 50.44 41.23 50.44 41.23h-24.416s-5.733-20.363-25.878-19.738c-22.41.696-30.782 21.558-30.996 37.868-.391 29.845 13.32 39.598 30.119 40.5 25.767 1.381 27.779-25.587 27.779-25.587z"/>
    <path fill-opacity="0" stroke="#000" stroke-width="3" d="M110.87 385.152v113.592H87.113V385.152zm118.782 18.958v-18.958h93.839v18.958h-35.239v94.634h-23.757V404.11zm204.307-18.958L393.73 498.744h-24.707l-39.99-113.592h26.29l26.054 85.35 26.132-85.35z" style="line-height:1.25;-inkscape-font-specification:'sans-serif Bold'" font-weight="700" font-size="550.332" font-family="sans-serif" letter-spacing="0" word-spacing="0"/>
    <path fill-opacity="0" stroke="#000" stroke-width="3" d="M245.579 9.446c-.097.096-1.93.312-4.095.48-8.483.659-17.476 2.092-25.711 4.096-.563.137-1.55.374-2.194.527-.64.153-2.164.56-3.364.893a673.93 673.93 0 01-4.24 1.17c-4.184 1.134-12.897 4.165-16.176 5.626-.673.3-1.4.546-1.609.546a1.16 1.16 0 00-.658.25c-.153.137-.804.452-1.448.705-4.592 1.789-18.26 8.775-21.704 11.09-.672.45-1.308.825-1.404.825-.402 0-10.793 7.11-14.45 9.889-10.098 7.673-20.129 17.315-28.877 27.757-4.047 4.829-12.254 16.525-15.66 22.319-8.751 14.877-15.277 29.979-19.528 45.19a366.705 366.705 0 01-1.162 4.095 46.212 46.212 0 00-.585 2.267c-.176.761-.453 1.944-.61 2.619-1.34 5.696-2.55 12.723-3.238 18.807-1.29 11.406-1.043 27.972.572 38.463.163 1.06.425 2.808.59 3.949.252 1.726.9 5.06 2.387 12.285.13.633.381 1.74.548 2.413l.573 2.326c1.876 7.634 5.459 18.936 7.63 24.072.305.72.952 2.311 1.428 3.51 2.64 6.65 6.441 14.245 11.269 22.523 1.382 2.37 7.308 11.26 7.809 11.714.08.072.467.6.848 1.156a19.37 19.37 0 001.375 1.755c.376.41.672.822.672.936 0 .111.544.848 1.185 1.609.651.772 2.064 2.457 3.139 3.744 2.687 3.218 11.968 12.635 14.952 15.172 4.739 4.029 7.737 6.418 10.706 8.532 5.674 4.04 10.48 7.175 13.601 8.871 1.053.572 2.293 1.266 2.779 1.555 1.362.81 11.525 5.894 13.309 6.658.877.376 2.3 1.001 3.13 1.376.848.383 1.624.694 1.754.702.13.008.761.265 1.405.57.643.306 1.282.563 1.418.571.14.008.658.198 1.185.434 1.985.89 10.705 3.797 16.702 5.567 3.765 1.112 10.705 2.773 15.94 3.815 1.2.238 2.792.563 3.511.716 2.863.608 11.261 1.85 15.795 2.336 16.736 1.79 29.367 1.949 47.24.591 2.251-.171 5.12-.438 6.376-.592 8.658-1.066 9.956-1.263 17.316-2.632 8.862-1.648 19.904-4.573 26.179-6.936 5.265-1.983 8.17-3.117 9.36-3.655 7.049-3.187 8.456-3.872 11.378-5.54 1.346-.768 2.497-1.402 2.545-1.402.112 0 3.568-2.077 5.09-3.058 10.557-6.815 15.98-11.168 24.423-19.611 3.072-3.071 6.402-6.604 7.445-7.897 1.036-1.288 1.966-2.406 2.06-2.487.1-.081.618-.731 1.17-1.462.553-.732 1.074-1.382 1.171-1.463.097-.081.85-1.053 1.698-2.193a167.3 167.3 0 011.755-2.34c.125-.16.562-.761.949-1.317.39-.556.799-1.094.892-1.176.344-.298 6.065-9.032 7.564-11.548 4.173-6.99 7.392-13.143 9.798-18.72a894.847 894.847 0 011.836-4.241c1.351-3.1 4.673-13.455 5.437-16.965 1.374-6.289 2.042-9.991 2.526-14.04.184-1.521.471-3.666.633-4.739.406-2.645.4-21.937-.009-25.096a667.525 667.525 0 01-.615-4.972c-.306-2.541-.465-3.306-1.314-6.23-.54-1.874-1.436-2.738-2.485-2.401-.35.112-1.22.79-1.913 1.492-2.77 2.806-3.568 5.619-7.726 27.174-2.335 12.096-3.006 14.538-7.713 28.022-.877 2.516-1.967 5.214-2.41 5.967-.983 1.667-2.994 3.89-3.521 3.89-1.258 0-1.967-4.24-1.492-8.92.224-2.2 1.91-11.818 2.822-16.089.137-.646.393-2.281.57-3.656l.622-4.768c.615-4.68.169-10.205-1.002-12.432-.65-1.233-2.485-2.844-4.27-3.749-1.93-.977-4.83-1.133-6.318-.337-3.343 1.789-5.207 5.608-7.676 15.729-2.603 10.676-2.994 12.233-3.677 14.771-1.76 6.523-4.523 13.861-6.665 17.697-3.137 5.616-8.247 13.631-10.444 16.38-5.938 7.424-11.639 12.878-19.332 18.493-1.872 1.366-9.004 6.22-10.003 6.808-.274.16-2.75 1.655-5.5 3.32-4.562 2.76-10.828 5.894-11.787 5.894-.205 0-.502.11-.644.238-.64.58-9.77 3.476-15.356 4.873-8.414 2.104-15.18 3.26-26.764 4.573-3.832.435-20.06.44-23.108.008a372.39 372.39 0 00-4.826-.645c-4.621-.58-11.25-1.641-14.625-2.34-.724-.15-2.37-.483-3.656-.74-2.75-.55-4.57-.944-5.997-1.297a69.043 69.043 0 00-1.9-.439c-3.598-.76-14.997-4.472-18.516-6.028-.673-.297-1.321-.543-1.433-.543-.46 0-8.746-4.225-11.233-5.727-2.384-1.441-3.48-2.153-6.522-4.236-4.724-3.236-10.584-8.406-17.914-15.807-5.824-5.879-7.931-8.199-9.539-10.5a65.127 65.127 0 00-1.534-2.048c-.569-.731-1.121-1.511-1.243-1.755-.12-.241-1.103-1.784-2.18-3.422-1.075-1.638-2.236-3.485-2.573-4.095-.343-.62-1.131-2.019-1.782-3.16-4.176-7.326-9.617-19.246-12.484-27.348-4.668-13.193-6.381-27.026-5.326-42.999 1.103-16.672 1.555-19.962 3.802-27.641.385-1.314 2.186-5.91 3.419-8.715 1.526-3.48 7.467-15.118 8.69-17.025.207-.322.807-1.374 1.335-2.338 1.454-2.663 5.585-8.834 8.046-12.024 9.543-12.365 18.519-20.3 37.444-33.107a156.078 156.078 0 0110.383-6.484c3.16-1.804 11.583-5.862 12.168-5.862.095 0 .6-.197 1.097-.424.511-.238 2.355-.906 4.14-1.502 11.644-3.892 22.873-5.331 38.843-4.976 4.3.094 9.12.306 10.677.466 1.55.159 4.098.427 5.616.59 3.451.365 6.368.77 9.799 1.357 1.462.25 3.282.556 4.095.687 8.014 1.286 21.899 5.397 28.08 8.316 7.312 3.452 9.94 4.81 12.431 6.43.563.369 1.814 1.17 2.779 1.789 9.038 5.772 18.908 15.345 25.92 25.144 1.737 2.428 5.577 8.212 6.254 9.42.162.294.883 1.433 1.626 2.573 5.098 7.822 6.955 11.556 10.345 20.767.59 1.61 1.32 3.584 1.62 4.389 1.901 5.12 2.416 6.59 3.746 10.676.815 2.506 2.017 6.758 2.688 9.505 1.623 6.642 1.698 6.964 2.2 9.508 1.583 8.013 1.942 9.068 3.106 9.068.675 0 2.79-2.079 4.146-4.067.496-.73.99-1.411 1.077-1.493.087-.08.53-.643.99-1.257 1.485-1.989 3.242-3.278 4.054-2.972.808.3 2.8 3.705 4.445 7.594a184.05 184.05 0 002.532 5.632c1.233 2.603 1.514 2.996 2.135 2.996.6 0 .914-.38 1.92-2.31 3.452-6.636 4.051-13.834 2.11-25.33-.484-2.86-2.56-11.728-4.573-19.538-.384-1.492.643-.878 2.403 1.432.937 1.227 1.823 2.373 1.985 2.56.163.184.909 1.068 1.667 1.973.762.908 1.795 1.813 2.313 2.032.846.359.984.337 1.446-.247.287-.359.605-1.432.72-2.428.247-2.101-.05-12.664-.436-15.62-.147-1.13-.415-3.16-.6-4.533-1.208-9.111-3.877-18.72-7.84-28.256-1.256-3.012-5.08-10.457-6.522-12.695-3.474-5.382-6.574-9.933-6.98-10.248-.096-.072-.496-.603-.877-1.158-.384-.556-.783-1.093-.88-1.17-.097-.082-.621-.731-1.183-1.465-4.14-5.397-13.878-15.18-19.378-19.462a362.075 362.075 0 01-2.223-1.748c-4.651-3.696-13.307-9.634-16.848-11.56-.966-.524-1.887-1.051-2.048-1.17-.907-.665-13.32-7.008-13.718-7.008-.08 0-.849-.318-1.697-.702-3.744-1.692-4.296-1.932-4.475-1.932-.115 0-.614-.178-1.14-.41-1.827-.805-6.436-2.553-8.63-3.274-1.228-.406-2.484-.843-2.808-.98a9.567 9.567 0 00-1.17-.396 82.441 82.441 0 01-2.632-.78c-2.399-.747-8.225-2.27-10.091-2.642a159.37 159.37 0 01-2.78-.583c-2.656-.581-4.328-.884-9.593-1.73-5.673-.914-7.605-1.152-14.83-1.826-3.335-.312-33.401-.69-33.667-.424"/>
    <path fill-opacity="0" stroke="#000" stroke-width="3" d="M253.068 108.521c-3.013.383-5.982.845-7.4 1.158-2.37.52-4.013.919-4.74 1.15a87.28 87.28 0 01-2.047.602c-1.93.541-6.159 1.986-7.166 2.446-.488.222-1.463.629-2.194.915-1.901.743-8.12 3.896-9.506 4.818-.644.43-1.368.866-1.609.968-.395.17-2.75 1.693-4.71 3.048-6.317 4.367-14.092 11.753-18.608 17.679-8.605 11.293-12.327 21.586-13.991 38.698-.543 5.587-.542 9.509.005 14.479.74 6.727 1.31 9.336 3.419 15.648 1.543 4.62 2.171 6.114 4.918 11.7 5.364 10.91 13.181 20.442 23.41 28.542 3.494 2.766 8.775 5.758 14.098 7.986 5.865 2.455 11.496 4.01 19.832 5.478 2.457.433 10.4 1.139 12.812 1.139 2.896 0 11.404-.899 13.806-1.458.558-.13 1.755-.395 2.632-.582 2.78-.593 11.683-3.33 13.31-4.092.323-.152 1.696-.73 3.07-1.293 6.582-2.697 13.336-6.999 19.744-12.574 9.914-8.624 18.881-22.707 21.072-33.09 1.37-6.494 1.405-16.422.074-21.06-.856-2.984-2.631-5.298-4.56-5.944-1.329-.445-2.737.21-3.907 1.819-1.05 1.445-1.437 2.31-2.888 6.464-1.993 5.704-2.94 8.132-4.244 10.881-1.054 2.223-1.52 2.873-2.68 3.727-2 1.477-2.28 1.334-2.265-1.153.007-1.132.183-3.422.392-5.118.633-5.12-.266-11.083-1.9-12.613-.872-.813-2.019-.793-2.925.056-.997.933-1.43 1.939-2.3 5.332-.808 3.159-2.8 7.573-4.645 10.296-2.563 3.785-8.382 9.995-12.624 13.47-5.561 4.56-11.934 7.663-19.012 9.26-3.422.77-12.666 1.055-16.966.52-11.553-1.434-19.736-5.472-26.546-13.1-5.7-6.386-8.961-13.397-10.775-23.166-.619-3.335-.537-13.804.132-16.82 1.2-5.41 3.966-11.93 6.765-15.94 6.59-9.449 16.472-16.138 26.768-18.118.878-.17 2.314-.445 3.16-.606 2.366-.447 12.928-.345 15.707.155 4.563.822 5.307 1.004 8.482 2.06 6.289 2.09 10.439 4.595 14.772 8.918 4.753 4.741 6.447 7.24 10.719 15.81 3.528 7.078 5.192 9.69 7.955 12.49 2.297 2.328 4.14 3.32 6.51 3.5 1.433.112 1.713.042 2.56-.663.515-.43 1.145-1.258 1.376-1.814.968-2.322.816-8.014-.334-12.577-.258-1.024-.386-1.957-.282-2.063.107-.105.556.03 1.024.308.468.277 1.154.497 1.565.497.673 0 .756-.146 1.05-1.843.407-2.34.414-8.05.013-10.325-.737-4.183-.968-5.137-2.07-8.541-2.057-6.348-5.32-12.113-9.585-16.936-2.095-2.37-5.1-5.192-6.637-6.24-6.263-4.255-9.097-5.835-16.058-8.947-1.6-.717-6.699-2.39-9.507-3.12-4.056-1.06-6.464-1.504-12.138-2.253-2.745-.363-11.379-.342-14.333.032"/>
</svg>
