<svg version="1.1" viewBox="0 0 512 512" xmlns="http://www.w3.org/2000/svg">
 <g fill="none" stroke="#000">
  <path d="m96.021 291.73c-4.7684 0.71852-10.765 2.0144-12.855 2.7329-2.0902 0.78379-5.4215 2.2862-7.3811 3.4618-1.9596 1.1758-5.3562 4.1151-7.6423 6.5319-2.5474 2.6781-5.0296 6.1401-6.4666 9.1448-1.3064 2.6128-2.8087 6.6625-3.3965 9.0142-0.84912 3.2006-0.97978 5.9442-0.71849 11.431 0.19595 4.311 0.84915 8.7527 1.633 11.17 0.65319 2.1555 2.4168 6.1401 3.7886 8.818 1.7636 3.3965 4.1151 6.4666 8.0997 10.386 3.8539 3.8539 6.9893 6.336 10.125 7.9691 2.5474 1.3064 6.7931 3.07 9.4713 3.9192 4.1151 1.241 6.2707 1.5023 13.391 1.437 7.5117 0 9.0795-0.19599 13.717-1.8289 2.8741-0.9798 7.1199-2.9394 9.4713-4.311 2.3515-1.3717 7.1199-5.1602 10.582-8.3609 3.4618-3.2006 7.9038-6.8584 9.7978-8.0997 1.8943-1.3064 5.5521-3.3312 8.0344-4.5722 2.5474-1.3064 6.7278-3.07 9.406-4.0498 2.6781-0.97978 7.4464-2.2862 10.582-3.0047 3.2006-0.71846 9.4713-1.6329 13.978-2.0249 6.0095-0.52255 10.32-0.52255 16.526 0 4.6376 0.39195 11.3 1.437 14.893 2.2862 3.5271 0.91448 8.6874 2.4168 11.366 3.3965 2.6781 0.91445 6.6625 2.6127 8.818 3.723 2.1556 1.0451 5.8789 3.2006 8.3609 4.7682 2.4168 1.5677 6.8584 5.2256 9.8631 8.0997 3.0047 2.8738 6.924 7.3811 8.6221 9.9937 1.7636 2.6128 4.1151 7.0546 5.2909 9.9287 1.1757 2.8741 2.5474 7.2505 3.07 9.7978 0.52256 2.4822 1.3064 7.0546 1.6983 10.059 0.39192 3.0047 1.5023 7.5117 2.4168 10.059 0.97978 2.4821 3.07 6.5972 4.7684 9.2101 1.6983 2.5474 4.8338 6.2707 6.924 8.2303 2.0902 2.025 5.6174 4.7031 7.7729 6.0095s6.2707 3.2006 9.1448 4.1804c4.2457 1.437 6.7278 1.8942 12.868 2.0902 5.6174 0.19593 9.0142 0 12.607-0.84915 2.7434-0.58789 7.1852-2.2208 9.9937-3.5927 2.7434-1.4371 6.7278-3.9192 8.7527-5.5521 2.0902-1.633 5.0949-4.6376 6.7278-6.7278 1.633-2.0249 4.1151-6.0094 5.5521-8.7527 1.3717-2.8088 3.0047-7.3158 3.5924-10.059 0.84914-3.658 1.0451-6.7931 0.84914-11.953-0.26128-4.8334-0.78381-8.2303-1.8289-11.17-0.78385-2.3515-2.6781-6.5319-4.1804-9.406-1.437-2.8087-4.3764-7.0546-6.4013-9.4713-2.0902-2.3515-5.5521-6.4666-7.7076-9.0795-2.1555-2.6781-5.0949-7.1852-6.4666-10.125-1.3717-2.9394-2.9394-6.9237-3.3312-8.8833-0.52255-2.1556-0.65318-5.6827-0.45722-9.1448 0.19596-3.2006 0.97978-7.3811 1.7636-9.7325 0.78381-2.2208 2.8087-6.2054 4.5722-8.818 1.6983-2.5474 4.7029-6.336 6.5972-8.2956 1.9596-1.9596 5.2908-5.2256 7.4464-7.1852 1.2437-1.1307 2.6615-2.3484 3.8391-3.3142m35.116-14.489c0.44289-0.0551 0.89185-0.10821 1.3468-0.15933 0.78602-0.0861 1.6218-0.19002 2.4838-0.30756m17.873-4.3617c1.8861-0.75488 3.6897-1.5584 4.9873-2.2546 1.9679-1.0844 4.0346-2.4897 6.109-4.1706m11.316-13.309c0.27796-0.53707 0.56427-1.1092 0.86437-1.7244 1.8943-3.723 3.5924-8.2303 3.9845-10.451 0.39192-2.1556 0.58788-6.7278 0.39192-10.125-0.19595-3.5924-0.97978-8.165-1.7636-10.778-0.78382-2.5474-2.4821-6.6625-3.7886-9.1448-1.5677-2.9394-4.1804-6.336-7.3158-9.5366-3.6577-3.723-6.1401-5.5521-9.7978-7.3158-2.6781-1.3064-6.7931-2.8741-9.1448-3.4618-3.2006-0.78384-6.1401-0.97981-12.411-0.71851-5.8136 0.19593-9.3407 0.65318-12.411 1.633-2.3515 0.78385-6.0094 2.4821-8.165 3.7233-2.1555 1.3064-6.5319 4.3764-9.7325 6.9237-3.2659 2.5475-7.5117 5.4214-9.4713 6.4666-2.0249 0.97978-6.0094 2.5474-8.8833 3.4618-2.8741 0.91448-8.0997 2.0249-11.692 2.4168-3.7233 0.52259-8.8833 0.65322-12.15 0.45726-3.2006-0.26127-8.0344-1.1758-10.843-2.0902-2.8741-0.84918-7.5117-2.9394-10.32-4.6376-3.0047-1.7636-7.2505-5.0949-10.19-8.0344-2.7434-2.7434-6.0748-6.8584-7.4464-9.0795-1.3064-2.2861-3.0047-5.9442-3.7233-8.165-0.71852-2.1556-1.5023-5.8788-1.6983-8.2303-0.19596-2.678 0.0653-6.14 0.71852-9.1448 0.52255-2.6128 2.1555-7.1852 3.5924-10.124 1.437-2.8741 4.1151-7.3811 5.9442-9.8634 1.8289-2.5474 4.507-6.9237 5.8788-9.7978 1.437-2.8741 3.0047-7.1199 3.5271-9.4713 0.58789-2.3515 1.0451-7.1852 1.0451-10.778 0-3.5927-0.45722-8.3609-0.97978-10.647-0.52255-2.2861-1.9596-6.2707-3.2006-8.818-1.1757-2.6128-3.5271-6.5319-5.2908-8.818-1.6983-2.2862-4.899-5.6174-7.1199-7.3811-2.1555-1.7636-6.0094-4.2457-8.5568-5.4868-2.4822-1.2411-6.924-2.8741-9.7325-3.5927-3.4618-0.84915-7.2505-1.3064-11.431-1.2411l-9.9e-4 0.00112c-4.0498 0-8.0344 0.45725-11.17 1.3064-2.6781 0.65319-6.6625 2.0902-8.818 3.1353-2.1555 0.97978-5.748 3.2659-8.0344 4.9643-2.6781 2.0249-6.7931 6.4666-11.757 12.672-4.1804 5.2256-9.9937 11.823-12.803 14.632-2.8087 2.7434-7.1852 6.4013-9.7325 8.0997-2.4822 1.633-6.7278 3.8539-9.4713 4.899-2.6781 1.0451-7.8382 2.4821-11.496 3.2006-3.6577 0.65315-8.2303 1.8942-10.19 2.6781-1.9596 0.78382-5.3562 2.4821-7.4464 3.7233-2.1555 1.241-5.8786 4.1804-8.2303 6.5972-2.4168 2.3515-5.5521 6.336-7.0546 8.8833-1.437 2.4822-3.4618 6.8584-4.4416 9.7325-1.241 3.723-1.8289 7.1199-2.0249 11.757-0.32656 5.2908-0.13062 7.577 1.0451 12.084 0.84915 3.4618 3.3312 9.6672 6.5972 16.33 2.8741 5.9442 5.8136 13.129 6.5972 16.003 1.0451 3.9192 1.3717 7.2505 1.437 13.391 0 5.4868-0.32656 9.6672-1.1104 12.737-0.58785 2.4821-1.8289 7.0546-2.8087 10.125-0.20552 0.68995-0.44111 1.4316-0.71059 2.1827m-15.249 22.323c-0.56095 0.60043-0.92204 1.0348-1.4408 1.5712-0.12395 0.12816-0.24622 0.25394-0.36656 0.37708-0.37319 0.39097-0.77902 0.80007-1.2084 1.2196"/>
  <path d="m238.04 221.98c-5.1531 0-9.1953 4.1515-9.1953 9.2305v61.207h18.537v-61.207c0-5.079-4.2628-9.2305-9.3418-9.2305zm102.36 0c-5.1531 0-9.1934 4.1515-9.1934 9.2305v15.127c-1.9278-0.44487-3.9296-0.70508-5.8574-0.70508-6.7473 0-12.827 2.7426-17.312 7.1543-4.4117 4.3746-7.082 10.641-7.082 17.314 0 6.7102 2.7816 12.975 7.082 17.312 2.7805 2.8175 8.8599 7.1543 17.312 7.1543 8.4155 0 14.532-4.3368 17.312-7.1543 4.3004-4.3375 6.9707-10.528 6.9707-17.312v-38.928c0-5.0419-4.1905-9.1934-9.2324-9.1934zm-268.96 0.22265c-2.7805 0-5.3769 1.1483-7.2676 3.002-1.9278 1.8536-3.0391 4.4871-3.0391 7.2676 0 2.8917 1.1854 5.3749 3.0391 7.2656l2.2617 2.2988c3.7444 3.8556 4.0043 4.7829 0.44531 8.416l-2.0391 2.0742c-1.6683 1.7424-2.707 4.0416-2.707 6.5996v33.254h18.648v-33.254c0-2.558-1.0758-4.8943-2.707-6.5996l-2.0391-2.0742c-3.5961-3.7073-3.299-4.5604 0.44531-8.416l2.2617-2.2988c1.8536-1.8907 3.041-4.3739 3.041-7.2656s-1.1132-5.4139-3.041-7.2676c-1.9278-1.8536-4.374-3.002-7.3027-3.002zm63.654 47.827v22.426h18.535v-14.68l9.7871 14.68h14.941c1.7054 0 3.0391-1.371 3.0391-3.2246 0-0.59317-0.10971-1.2232-0.44336-1.7422l-10.121-15.348 7.0801-12.828c2.4468-4.4488 1.1129-10.159-3.2617-12.717-1.4458-0.8156-2.9292-1.2598-4.4121-1.334-0.20622-7e-3 -0.41331-6e-3 -0.61914 0l5e-4 2e-4c-3.0876 0.0948-6.0891 1.6758-7.7227 4.5606l-8.416 15.014v-10.047c0-5.079-4.1514-9.2305-9.1934-9.2305-5.1531 0-9.1934 4.1515-9.1934 9.2305v15.24m68.028-24.36c-6.7473 0-12.827 2.7426-17.312 7.1543-4.4117 4.3746-7.1914 10.641-7.1914 17.314 0 6.7102 2.7056 12.901 7.1914 17.312 4.3004 4.2634 10.343 7.1543 17.424 7.1543 7.1921 0 13.422-3.0764 17.314-7.2656 5.2273-5.7092 5.375-12.123 5.375-12.123h-16.498s-2.2617 5.7832-6.1914 5.7832c-1.6683 0-3.0031-1.1485-4.1524-3.2246-0.77853-1.4088-1.223-3.1151-1.5566-4.9688h28.77s2.0762-11.826-5.8574-19.76c-4.6712-4.6712-10.567-7.377-17.314-7.377zm173.24 0c-6.7473 0-12.79 2.7797-17.201 7.1543-4.3746 4.3746-7.1934 10.641-7.1934 17.314 0 6.7102 2.8188 12.938 7.1934 17.312 4.2634 4.2634 10.343 7.1543 17.424 7.1543 7.3034 0 13.42-3.0764 17.312-7.2656 5.2273-5.7092 5.377-12.123 5.377-12.123h-16.498s-2.2617 5.7832-6.1914 5.7832c-1.6683 0-3.0031-1.1485-4.1523-3.2246-0.77854-1.4088-1.223-3.1151-1.5566-4.9688h28.768s2.0762-11.826-5.8574-19.76c-4.6712-4.6712-10.565-7.377-17.424-7.377zm101.25 0c-6.6731 0-12.752 2.7426-17.238 7.1543-4.4117 4.3746-7.082 10.53-7.082 17.314v22.279h18.426v-21.947c0-2.6692 0.62993-5.0036 1.668-6.709 1.0751-1.7424 2.484-2.7812 4.1523-2.7812s3.0402 1.0388 4.1523 2.7812c1.1122 1.7424 1.668 4.0397 1.668 6.709v21.947h18.648v-22.391c0-6.7102-2.7056-12.903-7.1914-17.314-4.4117-4.3746-10.567-7.043-17.203-7.043zm-443.28 0.11133c-6.6731 0-12.826 2.7797-17.127 7.1543-4.3375 4.4117-7.1914 10.493-7.1914 17.203v22.279h18.535v-21.836c0-2.6692 0.62993-5.0036 1.668-6.709 1.0751-1.7424 2.4841-2.7812 4.1523-2.7812 1.6683 0 3.0402 1.0388 4.1523 2.7812 1.1122 1.7424 1.668 4.0397 1.668 6.709v21.836h18.537v-22.279c0-6.7102-2.7427-12.866-7.1914-17.314-4.3375-4.3375-10.456-7.043-17.203-7.043zm73.441 0c-6.7473 0-12.901 2.7797-17.313 7.1543-4.3746 4.3746-7.1172 10.641-7.0801 17.314 0.07415 6.7102 2.6684 12.938 7.0801 17.312 3.3736 3.3736 9.1935 7.1543 17.313 7.1543 5.9687 0 11.567-2.2243 15.83-5.8945 3.1141-2.6692 7.6376-7.9711 8.5274-16.275h-18.646c-0.22244 2.0761-0.78006 3.9311-1.5586 5.4141-1.1122 2.0761-2.4841 3.2246-4.1523 3.2246-1.6683 0-3.0382-1.1485-4.1504-3.2246s-1.6699-4.7452-1.6699-7.748c0-3.0029 0.66896-5.7851 1.6699-7.75 1.1122-2.0761 2.4821-3.2246 4.1504-3.2246s3.0402 1.1485 4.1523 3.2246c0.8156 1.4829 1.3362 3.338 1.5586 5.4141h18.535c-0.55609-5.7834-3.1504-11.086-7.0801-15.016-4.3746-4.3005-10.567-7.0801-17.166-7.0801zm166.46 0c-13.495 0-24.395 10.974-24.395 24.506s10.9 24.504 24.395 24.504 24.393-10.972 24.393-24.504-10.898-24.506-24.393-24.506zm152.33 0c-13.495 0-24.395 10.974-24.395 24.506s10.9 24.504 24.395 24.504 24.395-10.972 24.395-24.504c0-7.1674-3.0083-13.567-7.8208-18.028-4.348-4.0303-10.169-6.4777-16.574-6.4777zm-223.44 13.049c1.6683 0 3.0772 1.1505 4.1523 3.2266 0.48195 0.92682 0.89084 2.4094 1.1133 3.5957l-10.678 0.11133c0.33366-1.3717 0.77973-2.669 1.2246-3.707 0.8156-1.7424 2.5192-3.2266 4.1875-3.2266zm173.35 0c1.6683 0 3.0031 1.1876 4.1524 3.2266 0.51902 0.92682 1.0002 2.4094 1.2226 3.5957l-10.787 0.11133c0.33365-1.3717 0.74072-2.669 1.2227-3.707 0.88975-1.7424 2.4841-3.2266 4.1894-3.2266zm-102.25 0.44531c3.2624 0 5.8574 4.9688 5.8574 10.975s-2.595 10.973-5.8574 10.973-5.8574-4.9669-5.8574-10.973c0.0371-6.117 2.595-10.975 5.8574-10.975zm51.012 0c3.2624 0 5.7833 4.9688 5.8574 10.975 0.0742 6.0058-2.595 10.973-5.8574 10.973s-5.8574-4.9669-5.8574-10.973c0-6.117 2.7062-10.975 5.8574-10.975zm101.32 0c3.2624 0 5.8574 4.9688 5.8574 10.975s-2.595 10.973-5.8574 10.973-5.8574-4.9669-5.8574-10.973c0.0371-6.117 2.595-10.975 5.8574-10.975z"/>
  <circle cx="94.938" cy="169.61" r="23.977"/>
 </g>
</svg>
