<svg height="512" width="512" xmlns="http://www.w3.org/2000/svg"><path style="stroke-linejoin:round;fill:none;stroke:#000" d="M324.941 218.552c17.153-.067 25.263 2.064 25.46 10.868.243 11.003-3.725 14.24-25.16 14.111-7.75-.046-14.264-.12-14.362-.123v-24.76h.111v.022l1.686-.022h1.576v-.015c2.55-.028 6.087-.061 10.69-.08l-.001-.001M219.64 194.312a66.413 66.413 0 0 0-2.013.006c-31.963.581-47.28 20.55-44.475 41.123 3.144 23.062 28.435 27.522 44.305 31.926 4.719 1.31 24.794 4.703 24.072 15.451-.748 11.118-14.976 12.905-24.414 12.121-22.432-1.862-19.549-21.17-19.549-21.17l-28-.083c-.085 36.024 29.12 45.121 52.5 44.554 34.854-.845 50.242-22.282 47.293-43.275-5.995-42.672-72.145-24.973-68.463-47.633 1.113-6.85 9.615-10.641 17.84-10.33 10.514.398 19.89 4.012 19.207 17.5l27.489.342c1.075-30.102-24.808-40.278-45.791-40.531l-.001-.001"/><path style="fill:none;stroke:#000;stroke-linejoin:round" d="M310.879 318.238s13.537.014 21.545.1c24 .255 53.127-2.242 52.613-39.135-.176-12.585-10.505-26.707-19.828-28.074 9.921-4.274 15.487-15.425 14.037-28.6-2.46-22.368-18.71-28.264-56.084-28.39h-1.822c-3.487.006-6.975.05-10.461.134h-29.59v123.965h29.59"/><path style="fill:none;stroke:#000;stroke-linejoin:round" d="m310.887 294.293-.008-29.828c.357 0 6.953.017 14.86.062 22.564.127 29.065 2.291 29.292 13.975.224 11.541-3.791 15.636-28.49 15.709-8.206.025-16.151.077-16.151.077"/><path style="stroke-linejoin:round;fill:none;stroke:#000" d="m425.182 194.062-27.993.211v123.965H424.9V240.78l47.579 77.46h28.974V194.272h-27.71v77.551l-48.561-77.762v.001"/><path style="fill:none;stroke:#000;stroke-linejoin:round" d="M89.436 188.781c.076.035.203.183.37.434.225.332.522.844.874 1.5.705 1.31 1.63 3.196 2.63 5.385a141.551 141.551 0 0 0 2.028 4.275c.173.347.37.691.545 1.033l14.352-11.436c7.57 2.943 14.509 7.91 18.456 11.39l-15.509 14.154 29.132 6.873-22.257 19.966-4.461-1.494c.062.306.136.604.193.914.325 1.804.57 3.622.736 5.448.1 1.06.227 1.987.287 2.093.03.051.173.05.377.008a4.24 4.24 0 0 0 .74-.238c.536-.224 1.16-.556 1.842-.973a31.324 31.324 0 0 0 2.198-1.49 49.303 49.303 0 0 0 4.715-3.98 54.907 54.907 0 0 1 2.423-2.22 21.369 21.369 0 0 1 2.082-1.58 19.79 19.79 0 0 1 2.217-1.257 45.403 45.403 0 0 1 2.823-1.246c2.134-.874 3.545-1.494 4.601-2.05.47-.244.925-.516 1.363-.813.396-.272.75-.553 1.106-.866.337-.298.837-.66 1.37-1.006a15.173 15.173 0 0 1 1.581-.904c.72-.346 1.161-.536 1.447-.601a.617.617 0 0 1 .33-.008c.08.03.147.087.188.162.17.272.845 2.23 1.476 4.185.632 1.955 1.221 3.906 1.221 4.163 0 .113-.173.406-.455.789-.282.383-.672.856-1.107 1.332a748.558 748.558 0 0 0-3.25 3.59c-.392.436-.704.774-.977 1.044a5.11 5.11 0 0 1-.754.635 3.95 3.95 0 0 1-.806.406c-.308.118-.67.23-1.133.362-.83.24-1.379.436-1.85.709-.239.14-.464.3-.674.48a9.78 9.78 0 0 0-.713.688c-.343.358-.752.839-1.136 1.328-.383.488-.74.982-.977 1.363-.3.482-.542.855-.78 1.158-.21.279-.46.525-.741.73-.277.198-.599.361-1.018.526-.42.165-.936.331-1.602.54a23.2 23.2 0 0 0-1.273.421c-.338.128-.6.25-.826.387-.22.133-.421.294-.6.478a7.84 7.84 0 0 0-.597.71c-.533.69-1.218 1.446-1.99 2.216a40.158 40.158 0 0 1-2.518 2.297 38.82 38.82 0 0 1-2.67 2.055c-.873.61-1.71 1.129-2.444 1.5-.816.413-1.466.825-1.466.931a.507.507 0 0 0 .107.287c.073.103.18.214.324.33.29.237.724.5 1.303.793.58.293 1.306.617 2.176.97.87.351 1.889.733 3.05 1.144 1.796.635 2.896 1.051 3.708 1.449.406.2.738.396 1.05.611.313.216.604.452.924.733.232.204.443.42.63.652.376.466.662.997.843 1.567.095.291.167.6.217.923.05.324.076.666.08 1.024a9.82 9.82 0 0 1-.053 1.127c-.08.788-.25 1.647-.51 2.586a47.561 47.561 0 0 0-.867 3.847l-.312 1.836-.694-.463c-.387-.258-1.208-.947-1.861-1.56a8.74 8.74 0 0 0-.95-.78 5.567 5.567 0 0 0-.915-.525 3.45 3.45 0 0 0-.862-.264 2.217 2.217 0 0 0-.783.008c-.18.036-.555.303-1.02.707-.464.405-1.017.946-1.548 1.53a18.542 18.542 0 0 1-1.72 1.693c-.514.432-.963.728-1.339.88-.753.307-1.359.57-1.92.864a11.24 11.24 0 0 0-1.65 1.063c-.573.44-1.202.994-1.992 1.736a155.9 155.9 0 0 0-2.95 2.873 136.652 136.652 0 0 0-3.533 3.625c-.923.989-1.516 1.68-1.564 1.842-.061.202-.042.443.064.74.107.296.3.647.586 1.068.324.48.614.951.873 1.414.26.463.485.918.678 1.36.192.44.352.87.477 1.285.12.39.21.79.273 1.193.058.381.08.745.068 1.088-.009.326-.055.65-.138.965-.08.3-.198.576-.35.826-.152.25-.338.473-.56.668-.272.238-.413.358-.465.36-.051 0-.016-.115.068-.348.107-.3.194-.657.254-1.033.06-.376.095-.77.105-1.143a6.236 6.236 0 0 0-.044-1.014c-.04-.29-.109-.518-.204-.644-.133-.177-.262-.286-.382-.332a.318.318 0 0 0-.327.043c-.094.073-.172.203-.226.385-.06.225-.089.458-.084.691 0 .258-.03.51-.08.705-.048.196-.118.339-.194.385-.042.025-.08.015-.113-.022a.505.505 0 0 1-.086-.203c-.047-.193-.072-.496-.072-.89 0-.483-.04-.944-.115-1.377a6.575 6.575 0 0 0-.334-1.215 5.426 5.426 0 0 0-.526-1.033 4.526 4.526 0 0 0-.691-.828 3.926 3.926 0 0 0-.836-.6 3.7 3.7 0 0 0-2.005-.428c-.382.025-.759.1-1.122.22-.442.145-.85.311-1.268.534-.46.251-.897.54-1.308.865-.471.363-.99.81-1.596 1.375a76.29 76.29 0 0 0-2.117 2.078c-1.748 1.768-3.992 3.894-4.996 4.733-.6.495-1.23.95-1.89 1.363a22.383 22.383 0 0 1-4.395 2.14 16.07 16.07 0 0 1-2.172.61c-.748.15-1.37.323-1.916.537-.516.2-1.005.463-1.455.785-.475.34-.858.605-1.198.817a6.28 6.28 0 0 1-.94.498c-.32.13-.65.23-.987.299-.37.08-.797.15-1.334.228-.965.137-1.922.325-2.867.563a19.97 19.97 0 0 0-2.49.81c-.166.072-.337.13-.512.174a.879.879 0 0 1-.412-.002c-.279-.069-.6-.282-1.184-.693l-1.238-.87-1.957.405c-.64.132-1.167.23-1.621.29-.392.06-.788.086-1.184.08a4.165 4.165 0 0 1-.977-.144 6.838 6.838 0 0 1-1.006-.37l-1.197-.534.164-1.428c.09-.788.242-1.809.34-2.283l.178-.855-1.606-.184c-.802-.09-1.432-.194-1.908-.334a2.95 2.95 0 0 1-.6-.24 1.258 1.258 0 0 1-.382-.313.888.888 0 0 1-.18-.4 1.42 1.42 0 0 1 .014-.506c.068-.376.255-.833.54-1.396.18-.351.3-.63.343-.856a.75.75 0 0 0 .003-.302.518.518 0 0 0-.128-.243c-.133-.145-.362-.259-.711-.367-.35-.108-.817-.208-1.422-.322a9.985 9.985 0 0 1-1.364-.342 4.4 4.4 0 0 1-.984-.455 2.444 2.444 0 0 1-.654-.602c-.17-.235-.297-.5-.373-.78a3.378 3.378 0 0 1-.137-.905c-.002-.3.04-.598.129-.897.089-.3.223-.6.408-.906.186-.306.423-.616.711-.935.29-.32.631-.648 1.03-.987.397-.34.852-.69 1.365-1.056 1.026-.732 2.288-1.526 3.81-2.405 2.257-1.303 3.726-2.16 4.649-2.728.923-.568 1.303-.846 1.386-.983.028-.046-.029-.084-.172-.11a4.845 4.845 0 0 0-.693-.058c-.635-.02-1.62-.008-2.967.041-1.495.054-2.754.058-3.818 0a17.41 17.41 0 0 1-1.451-.134 9.58 9.58 0 0 1-1.182-.237 5.484 5.484 0 0 1-.94-.341 3.557 3.557 0 0 1-.724-.457 2.958 2.958 0 0 1-.541-.579 3.394 3.394 0 0 1-.379-.709 53.32 53.32 0 0 0-.82-1.93 6.337 6.337 0 0 1-.512-1.68 4.537 4.537 0 0 1 .016-1.52 3.28 3.28 0 0 1 .193-.657 2.69 2.69 0 0 1 .316-.558c.249-.342.588-.607.979-.766.144-.054.281-.124.41-.209a.625.625 0 0 0 .225-.275c.098-.233.105-.59.086-1.229a8.927 8.927 0 0 1 0-.785c.013-.205.042-.362.1-.496.06-.137.15-.259.263-.357.123-.114.283-.23.492-.372.31-.21.696-.381 1.166-.513a9.049 9.049 0 0 1 1.664-.28 19.613 19.613 0 0 1 2.186-.05c.913.028 1.825.088 2.734.18 4.582.444 7.675.722 10.106.888a84.38 84.38 0 0 0 6.129.22c1.094 0 2.143-.024 3.146-.077a46.35 46.35 0 0 0 2.867-.237 34.841 34.841 0 0 0 2.578-.39 25.33 25.33 0 0 0 2.28-.543 17.894 17.894 0 0 0 1.966-.69 12.38 12.38 0 0 0 1.647-.836c.468-.283.908-.61 1.314-.976a6.26 6.26 0 0 0 .973-1.115c.246-.364.423-.65.518-.874.095-.224.11-.385.035-.501-.076-.117-.244-.189-.512-.23-.269-.043-.639-.056-1.121-.056-.462 0-1-.032-1.49-.084a8.217 8.217 0 0 1-1.217-.2c-.421-.119-.676-.22-.826-.36a.553.553 0 0 1-.153-.25 1.237 1.237 0 0 1-.04-.356c0-.308.07-.646.212-1.015.143-.37.359-.771.645-1.201a13.4 13.4 0 0 1 1.068-1.38c.43-.491.93-1.014 1.5-1.566a41.7 41.7 0 0 0 1.612-1.636c.415-.45.673-.768.673-.842 0-.075-.32-.277-.836-.543a29.887 29.887 0 0 0-2.02-.928 30.904 30.904 0 0 1-2.4-1.107 12.343 12.343 0 0 1-1.724-1.07 7.146 7.146 0 0 1-1.225-1.165 7.628 7.628 0 0 1-.898-1.388l-.822-1.606.068-6.076c.02-1.673.065-3.397.125-4.828.023-.562.052-.754.078-1.205L24.903 299.07c-3.644-4.638-11.108-15.944-13.002-29.433l54.636-44.465-29.623-9.656 19.148-13.584 24.672 5.804c.036-.165.062-.38.1-.533.17-.673.353-1.203.533-1.517a5.38 5.38 0 0 0 .305-.588 1.71 1.71 0 0 0 .133-.49c.036-.33-.031-.703-.178-1.329a12.274 12.274 0 0 1-.254-1.617 15.449 15.449 0 0 1-.064-1.668c.003-.476.041-.95.115-1.42.069-.398.166-.706.293-.87.095-.124.17-.215.236-.274.066-.06.125-.086.188-.075.126.02.27.186.545.512.162.192.384.366.615.496.232.13.474.214.678.225.408.024.96.119 1.277.219.099.037.205.05.31.039.1-.02.192-.073.26-.15.172-.175.35-.514.615-1.1.166-.366.307-.652.436-.862.13-.21.25-.343.371-.41a.418.418 0 0 1 .389-.008c.14.06.299.18.488.35.224.202.404.317.545.313a.241.241 0 0 0 .185-.098.84.84 0 0 0 .135-.303c.077-.274.126-.7.156-1.308.03-.608.04-1.4.04-2.407 0-1.074.02-2.066.054-2.804.035-.738.084-1.22.137-1.274.014-.014.033-.015.059-.004"/><path style="stroke-linejoin:round;fill:none;stroke:#000" d="M82.258 184.29A71.71 71.71 0 0 0 10.547 256a71.71 71.71 0 0 0 71.71 71.71A71.71 71.71 0 0 0 153.972 256a71.71 71.71 0 0 0-71.711-71.71h-.003"/></svg>