<svg version="1.1" viewBox="0 0 512 512" xmlns="http://www.w3.org/2000/svg">
 <path d="m612.06-512.71"/>
 <g fill="none" stroke="#000" stroke-width="3">
  <path d="m130.33 165.23s-27.851 24.188-51.794 74.765c14.415-37.261 13.437-63.406 13.437-63.406s-20.155 17.592-37.746 54.366c10.261-27 9.5281-45.812 9.5281-45.812s-14.659 12.705-27.607 39.337c7.2084-19.546 6.7191-33.107 6.7191-33.107s-12.705 10.994-22.721 34.085c-9.8944 22.966-9.284 39.705-9.284 39.705s10.261-8.9199 19.666-27.489c-10.748 27.61-10.015 46.911-10.015 46.911s14.292-12.337 26.996-38.237c-14.902 37.994-13.925 64.626-13.925 64.626s19.789-17.103 37.135-53.021c-20.766 52.044-19.422 88.815-19.422 88.815s31.15-27 55.825-83.685c24.676-56.685 23.21-97.853 23.21-97.853z"/>
  <path d="m169.99 212.31h10.788l39.557 100.82h-10.312l-12.222-31.408h-45.912l-12.107 31.408h-10.307zm-15.224 61.257h39.674l-19.416-51.667zm71.802-33.326h8.1503v17.142h0.24098c4.5543-11.748 14.379-18.581 27.566-18.1v8.869c-16.061-0.83766-27.09 11.029-27.09 26.134v38.841h-8.8675zm40.515 22.297c0.83766-17.142 12.825-24.454 29.484-24.454 12.825 0 26.853 3.9556 26.853 23.496v38.72c0 3.3569 1.6753 5.3939 5.2713 5.3939 0.95819 0 2.1576-0.23904 2.8788-0.59863v7.433c-1.9206 0.48016-3.3549 0.59864-5.7536 0.59864-8.9921 0-10.43-5.0344-10.43-12.706h-0.24105c-6.2295 9.4698-12.584 14.864-26.488 14.864-13.426 0-24.454-6.5933-24.454-21.337 0-20.499 19.896-21.22 39.075-23.496 7.3125-0.83972 11.389-1.798 11.389-9.8318 0-11.987-8.6302-14.985-19.058-14.985-11.029 0-19.179 5.0364-19.539 16.903zm47.466 10.79h-0.24106c-1.0788 2.1576-5.0363 2.8768-7.433 3.2364-15.101 2.6377-33.921 2.5172-33.921 16.783 0 8.8712 7.9114 14.386 16.18 14.386 13.548 0 25.533-8.6302 25.415-22.898zm26.61-61.019h8.869v41.838h0.23907c3.837-10.428 14.386-15.943 25.294-15.943 22.172 0 32.725 17.982 32.725 38.599 0 20.62-10.553 38.601-32.725 38.601-11.746 0-21.937-6.1131-26.011-15.943h-0.24113v13.785h-8.1503zm34.523 33.326c-18.94 0-25.533 15.944-25.533 31.05 0 15.105 6.5933 31.048 25.533 31.048 16.901 0 23.851-15.943 23.851-31.048s-6.9508-31.05-23.851-31.05zm42.43-33.326h8.8712v14.265h-8.8712zm0 27.932h8.8712v72.885h-8.8712zm73.6 22.898c-2.3966-10.91-8.9921-17.504-20.617-17.504-17.142 0-25.533 15.585-25.533 31.05 0 15.583 8.5115 31.048 25.533 31.048 11.029 0 20.017-8.6302 21.216-20.738h8.8712c-2.3966 17.501-13.787 28.289-30.087 28.289-22.295 0-34.4-17.62-34.4-38.599 0-20.861 12.106-38.601 34.4-38.601 15.583 0 27.571 8.3913 29.486 25.055z"/>
 </g>
</svg>
