<svg xmlns="http://www.w3.org/2000/svg" height="512" width="512">
    <path fill-opacity="0" stroke="#000" stroke-width="3" d="M137.446 144.614l-5.646 5.778c-14.725 15.091-30.007 35.928-40.936 55.824-1.31 2.378-2.445 4.257-2.528 4.174-.083-.083.241-1.426.723-2.993 3.916-12.713 7.11-30.926 7.816-44.583l.291-5.774-3.409 3.338c-10.048 9.786-22.175 25.93-30.232 40.251-3.392 6.028-4.656 7.974-4.003 6.144 1.933-5.38 4.398-16.06 5.57-24.133 1.065-7.304 1.647-16.047 1.073-16.047-.586 0-6.93 6.968-11.378 12.501-4.075 5.072-10.298 14.239-12.996 19.157-.915 1.663-1.734 2.935-1.83 2.84-.1-.1.32-2.058.928-4.353 1.563-5.87 2.823-13.649 3.13-19.315l.266-4.84-3.384 3.56c-17.003 17.818-28.585 44.848-30.63 71.48L10 251.178l2.507-2.445c3.55-3.459 8.797-10.073 12.393-15.631 1.696-2.62 3.143-4.702 3.218-4.627.074.074-.237 1.226-.695 2.56-1.338 3.883-3.94 14.393-4.88 19.698-1.343 7.595-2.495 20.645-1.821 20.645.515 0 7.55-7.724 11.411-12.539 3.576-4.452 10.269-14.242 12.306-17.988.703-1.285 1.33-2.274 1.41-2.2.07.075-.766 2.87-1.859 6.212-5.147 15.706-8.734 34.655-9.362 49.384l-.266 6.215 2.536-2.44c8.763-8.423 20.246-23.24 28.519-36.792 1.588-2.598 2.79-4.324 2.673-3.833a310.384 310.384 0 01-2.3 7.541c-6.909 22.067-11.04 45.074-12.051 67.05l-.283 6.214 3.642-3.55c6.722-6.556 15.81-17.116 22.936-26.64 3.326-4.448 6.26-9.541 9.383-14.347-.27-6.797-.574-13.565-.748-20.554-.125-5.138-.125-10.276.158-15.315.282-5.043.843-9.994 1.837-14.77a63.29 63.29 0 014.428-13.72 49.314 49.314 0 017.92-12.168 49.587 49.587 0 015.558-5.338 55.724 55.724 0 016.768-4.765 67.194 67.194 0 018.094-4.115c1.891-.811 4.053-1.489 6.144-2.2 1.102-4.494 2.582-9.038 3.426-13.482 2.532-13.349 4.51-30.805 4.465-39.444zm245.451 12.929l-4.743 13.511-13.753 1.06 10.842 8.888-3.284 13.973 11.45-8.015 11.719 7.574-3.767-13.843 10.527-9.284-13.778-.54zM230.744 170.36c-8.298.232-17.843 3.334-27.995 11.648-8.273-1.08-29.904-2.702-40.492 26.79-5.405-2.286-52.61-13.411-65.702 32.647-4.698 19.095-1.177 64.55-1.177 64.55 0 4.154 3.946 19.112 22.429 15.786 0 0 14.538.416 24.923-17.86 9.138 2.287 19.938-5.196 21.186-1.04 0 0 11.628 15.578 23.883 18.9 0 0 13.083 4.573 26.586.831 0 0-.94 16.422 10.273 20.155 23.26 7.895 27.604-14.226 40.193-7.691 11.964 6.21-3.01 13.39-3.01 13.39 22.72 16.796 37.095 3.6 44.545-9.715 2.623 2.141 8.514 5.708 12.33-1.447 0 0 3.66-6.07-2.095-9.412-2.635 3.804-5 3.592-6.527 2.786 1.131-3.106 1.776-5.787 1.9-7.442 19.523-.831 31.155-1.663 45.07-13.707 0 0 11.004 11.42 24.087 12.46 12.854 2.078 76.848 1.625 106.967 1.04 4.565-.832 12.668-4.158 12.252-14.955l.208-60.23c10.796-37.799-42.995-60.643-56.082-13.084 0 0-17.648-2.91-30.32 4.781-8.884-3.741-16.325-5.13-22.324-5.367 5.53-7.678 14.916-20.034 20.815-16.346 6.976 6.431-1.675 10.04-1.675 10.04 9.836 8.996 19.398 5.487 24.063 1.463 17.094-18.492 3.142-31.176 1.467-33.687-15.694-15.693-38.122-4.053-41.644 3.14-7.246 9.345-2.382 21.825-14.604 36.48-4.074 1.039-6.178 2.402-6.178 2.402l-3.122-3.928c2.648-1.788 8.302-6.39 2.91-10.506-3.6-2.852-9.088-.44-10.46.998-1.422-1.883-18.013-22.316-66.591-18.546 0 0-6.232-28.249-38.006-23.472-3.896-4.673-14.252-12.243-28.083-11.852zm143.344 26.453a19.59 19.59 0 00-1.555.029c-8.252.499-10.352 7.05-10.206 10.796 2.349 18.21 16.18 11.287 16.375 8.739-5.645-3.812 3.305-12.796 7.342 6.223 0 0 3.463-25.459-11.952-25.787zm-180.319.32l.004.004c8.793 0 14.605 4.386 15.644 11.806l.187 1.33h-3.534c-2.594 0-3.558-.09-3.629-.344-.765-2.819-1.114-3.592-2.037-4.54-1.505-1.55-3.118-2.166-6.111-2.324-3.047-.158-5.238.378-6.66 1.625-1.272 1.115-1.676 2.187-1.518 4.058.233 2.815 2.262 4.224 8.082 5.596 8.232 1.941 11.242 3.11 13.395 5.196 2.282 2.216 3.43 6.078 2.827 9.508-1.193 6.785-7.155 10.643-16.31 10.555-1.737-.016-3.72-.145-4.406-.278v.004c-5.06-.994-8.93-3.6-10.792-7.267-.732-1.447-1.51-4.482-1.518-5.92l-.008-.77h6.98l.163.77c.802 3.908 2.286 5.766 5.708 7.117 2.236.882 6.751.873 9.004-.012 1.933-.765 3.75-2.607 4.029-4.091.312-1.659-.017-3.405-.84-4.486-1.201-1.571-3.571-2.56-9.354-3.908-6.049-1.413-7.857-2.037-9.948-3.45-2.482-1.676-3.646-3.567-4.083-6.64-1.072-7.59 5.388-13.54 14.725-13.54zm72.204.05c7.97.133 13.37 3.982 14.754 10.613.237 1.156.316 2.108.175 2.25-.137.136-1.742.207-3.563.166l-3.313-.08-.333-1.288c-1.018-4.012-3.733-5.841-8.664-5.841-4.614 0-7.4 1.937-7.4 5.142 0 3.335 2.037 4.823 8.722 6.361 7.758 1.78 10.689 2.94 12.846 5.097 4.17 4.17 3.846 11.91-.673 16.005-1.796 1.622-4.677 2.994-7.533 3.58-2.686.557-7.774.545-10.422-.017-4.303-.914-8.178-3.575-9.895-6.789-.869-1.63-1.688-4.656-1.704-6.24l-.008-.769h6.947l.303 1.405c.798 3.734 3.268 6.107 7.234 6.947 4.294.915 8.551-.262 10.576-2.918 1.46-1.913 1.143-5.272-.644-6.889-.928-.835-3.617-1.912-6.577-2.623-7.192-1.73-8.593-2.137-10.464-3.052-3.447-1.687-5.176-3.957-5.729-7.508-.69-4.427 1.492-8.896 5.475-11.228 2.636-1.547 4.79-2.146 8.26-2.304.554-.02 1.098-.029 1.63-.02zm-52.66.927l11.744.008c11.54.008 11.773.02 13.544.652 4.628 1.655 6.311 4.17 6.303 9.408-.008 2.782-.075 3.21-.748 4.499-.79 1.504-2.162 2.876-3.646 3.641l-.89.466 1.713.806c3.658 1.73 5.383 4.428 5.612 8.772.191 3.7-.515 5.945-2.577 8.17-1.622 1.754-3.472 2.83-6.17 3.604-1.434.416-3.363.499-13.208.59-9.37.083-11.561.038-11.677-.262-.075-.203-.108-9.362-.067-20.358zm7.27 5.595l-.074 5.663-.075 5.662h6.727c5.417 0 6.926-.083 7.753-.433 2.141-.893 3.147-2.548 3.147-5.159 0-2.05-.47-3.28-1.63-4.257-1.567-1.318-2.486-1.459-9.412-1.467zm-.136 16.634v12.584h7.25c4.407 0 7.562-.117 8.04-.295 4.42-1.66 5.766-7.321 2.494-10.477-1.75-1.683-2.481-1.812-10.621-1.812zm-77.152 3.808a44.607 44.607 0 012.578.016s31.541.208 30.581 32.939c-.216 7.346-7.055 32.743-38.817 27.446l-.395-20.192c16.272 5.097 16.862-8.43 16.862-8.43 1.177-12.348-11.765-12.743-11.765-12.743-9.017-.195-10.584 8.231-10.584 8.231l.195 36.863c-2.353 5.879-9.412 11.957-17.843 15.091v-55.874s3.313-22.815 29.188-23.347zm148.47.944h35.453c7.895.848 34.755 6.402 34.34 39.993-1.027 12.368-6.648 42.342-47.448 38.455v-17.245h11.167c8.76-.977 16.642-9.753 17.132-21.38.466-10.934-6.568-21.324-16.16-22.575h-15.535v60.713l-18.945-.24zm182.214 1.704a10.867 10.626 0 0110.863 10.622 10.867 10.626 0 01-10.867 10.626 10.867 10.626 0 01-10.871-10.626 10.867 10.626 0 0110.871-10.622zm-83.852 24.042s31.682 1.633 22.582 29.629l-18.986-.17c6.356-9.617-3.226-10.103-3.226-10.103-6.353-.17-7.417 5.658-7.417 5.658-2.232 7.558 6.07 9.23 6.07 9.23h46.877c-1.205-3.95-17.71-11.591-17.302-22.034.37-9.508 8.8-9.541 8.8-9.541H457.4v15.79h-15.79c3.439 7.037 21.066 13.178 17.973 23.313 0 0-.686 9.728-9.957 10.934h-63.873s-18.97-.632-21.373-25.019c0 0-1.563-25.97 25.747-27.687zm-130.49 1.596c.832-.012 1.68-.008 2.557.02 0 0 24.873-1.48 24.395 29.958-.145 9.624-11.89 24.237-29.276 21.203l.025-18.317c12.206 3.305 14.742-12.535 4.806-15.05-7.882-1.151-9.034 3.642-9.728 6.14l-.499 32.427c-2.344 5.38-10.073 12.46-18.479 15.328v-51.064s.574-20.204 26.2-20.65zm-57.059.02c14.775 0 26.753 11.604 26.753 25.922 0 14.313-11.973 25.916-26.753 25.916-14.775 0-26.748-11.603-26.748-25.92 0-14.314 11.973-25.917 26.748-25.917zm262.305.79h17.519v50.495h-17.519zm-262.3 16.892c-4.573 0-8.282 3.687-8.282 8.231 0 4.553 3.709 8.24 8.282 8.24 4.577 0 8.285-3.687 8.285-8.236 0-4.548-3.708-8.231-8.285-8.231zm45.219 74.694l-2.753 8.556-8.572-.162 6.868 5.404-2.785 8.54 6.996-5.214 6.847 5.433-2.544-8.622 7.022-5.184-8.573-.112z"/>
</svg>
