<svg width="512" height="512" xmlns="http://www.w3.org/2000/svg"><path fill-opacity="0" stroke="#000" stroke-width="3" d="M209.195 193.963v.013H23.746c-7.612-.02-13.811 6.175-13.799 13.787v96.492c-.012 7.612 6.188 13.803 13.8 13.784 154.84-.001 309.665-.006 464.505-.006 7.09 0 12.8-5.793 12.8-12.993v-98.083c.011-7.188-5.729-13.016-12.8-12.995H209.195zm-185.45 2.013h184.451v120.063H23.743c-6.52.026-11.815-5.262-11.797-11.782V207.759c-.018-6.521 5.276-11.81 11.797-11.783zm73.185 8.955c-10.517 0-12.348 5.605-12.348 10.99v70.764c1.153.177 2.36.272 3.742.272 10.435 0 12.524-3.072 12.524-8.417v-73.203a18.773 18.773 0 0 0-3.918-.406zm364.256 13.328c11.348-.274 21.935 5.145 21.935 5.145l-3.85 11.543s-7.84-3.424-14.904-3.807c-4.98-.27-12.96.743-13.914 5.715-2.134 11.117 14.188 10.582 23.367 15.725 3.427 1.919 6.39 3.725 9.24 7.695 2.264 3.152 2.947 9.173 2.31 13.418-2.3 15.285-16.397 19.558-26.364 19.18-6.7-.255-13.425-.323-22.352-5.207l2.776-13s6.825 4.59 18.267 5.26c5.407.318 13.938-.17 14.31-7.95.273-5.656-7.79-7.853-15.581-10.83-4.478-1.712-8.973-3.722-12.072-6.203-6.653-5.324-8.404-15.103-6.268-22.633 1.09-3.845 3.045-6.728 5.826-9.127 3.356-2.895 8.47-4.71 17.274-4.924zm-236.245 1.867.002.002h11.727l34.062 44.434v-44.434h13.057v71.264h-11.404L238.02 247.16v44.23h-13.08v-71.264zm68.489.002h46.75v11.537h-31.985v16.72h26.22v13.165h-26.22v18.256h31.993v11.586H293.43zm53.886 0h13.502s2.193 17.988 3.717 26.912c1.644 9.627 5.848 28.702 5.848 28.702l11.392-53.1h16.176l11.674 53.525s4.322-21.32 6.145-32.044c1.354-7.97 3.558-23.995 3.558-23.995h13.238s-3.187 22.16-5.43 33.09c-2.64 12.872-9.279 38.174-9.279 38.174h-16.53s-4.133-17.162-6.003-25.79c-1.933-8.918-5.39-26.843-5.39-26.843s-3.43 18.3-5.428 27.389c-1.86 8.456-6.106 25.244-6.106 25.244h-16.455s-6.97-28.104-9.795-42.303c-1.91-9.596-4.834-28.96-4.834-28.96zm-210.029 5.455c-7.307 0-11.36 2.667-15.6 7.254l-20.058 21.897 16.139 25.373c2.983 4.629 6.912 6.984 13.283 6.984 4.188 0 7.671-.974 9.271-1.732l-19.435-29.244 13.77-14.604 22.595 35.432-13.77 28.972c1.381.707 4.187 1.558 7.711 1.65 6.06.136 9.365-2.178 11.817-7.616l32.5-72.364c-1.341-.716-4.325-1.513-6.735-1.554-4.189-.083-9.81.756-13.377 9.306l-10.517 24.782-20.64-33.56c-1.34-.406-4.594-.976-6.954-.976zm-81.492.104c-2.93.01-5.874.136-8.639.436-12.97 1.422-19.568 9.203-19.568 18.513 0 7.66 5.57 14.86 16.006 16.863l12.574 2.409c4.594.892 6.951 1.91 6.951 4.41 0 1.91-1.785 3.912-7.709 3.912-5.353 0-12.566-.8-17.16-.8-4.417-.01-9.104 1.994-9.104 10.68 0 1.07.176 2.408.405 3.466 6.6.758 20.464 1.96 30.047.933 13.24-1.422 19.748-8.674 19.748-18.646 0-8.593-5.303-15.58-17.608-17.852l-11.994-2.22c-3.836-.664-6.246-1.557-6.246-3.737 0-2.044 2.547-3.734 8.648-3.734 6.017 0 11.276.623 14.665.623 4.417 0 9.001-1.87 9.001-10.556 0-1.16-.136-2.222-.355-3.342-4.708-.57-12.18-1.359-19.662-1.359z"/></svg>
