<svg xmlns="http://www.w3.org/2000/svg" height="512" width="512">
    <path fill-opacity="0" stroke="#000" stroke-width="3" d="M293.25 437.41v8.623h-13.376v12.42h13.376v42.085l6.234-.143 6.234-.143-.024-20.876-.024-20.875 6.807-.143 6.807-.144v-11.942l-6.83-.144-6.832-.143.072-8.455.071-8.455-6.257-.144-6.258-.143v8.622m29.14 27.253v35.828h12.42v-15.263c0-14.426.055-15.411 1.01-17.985 1.23-3.308 4.483-6.765 7.875-8.368 3.248-1.534 9.458-1.578 12.707-.09 2.961 1.358 6.146 4.372 7.572 7.168 1.156 2.266 1.172 2.484 1.408 18.296l.24 16.003 6.09.143 6.09.143v-16.194c0-17.77-.086-18.472-3.008-24.458-2.052-4.204-7.596-9.746-11.8-11.795-8.217-4.006-17.778-3.967-25.844.104l-2.34 1.182v-20.541h-12.42v35.827m158.596-25.557c0 5.637-.076 10.27-.168 10.27-.09 0-1.122-.531-2.269-1.17-1.149-.64-3.726-1.616-5.684-2.153-11.943-3.28-24.721 1.83-31.138 12.448-2.792 4.619-3.782 8.36-3.782 14.283 0 7.978 2.458 13.968 7.93 19.328 3.63 3.556 3.815 3.694 7.213 5.393 5.479 2.74 7.882 3.018 24.792 2.876l15.287-.13.12-35.707.119-35.708h-12.42zm-10.844 19.1c4.942 1.491 8.623 5.263 10.076 10.327.604 2.106.742 4.442.648 10.987l-.12 8.312h-9.076c-6.066 0-9.757-.206-11.13-.62-3.028-.912-6.78-4.205-8.545-7.501-1.366-2.552-1.537-3.296-1.558-6.784-.02-3.2.199-4.389 1.194-6.496 3.28-6.945 11.154-10.443 18.51-8.224M96.772 446.059c-1.767.506-4.163 1.398-5.255 1.957-2.914 1.494-7.12 4.85-8.707 6.95-.758 1.003-1.511 1.922-1.683 2.054-.173.133-.962 1.529-1.783 3.153-2.772 5.484-2.97 7.118-2.97 24.506v15.86l6.091-.144 6.09-.143.24-16.003.238-16.003 1.26-2.389c4.812-9.124 16.372-11.106 23.963-4.109 4.885 4.503 4.872 4.444 5.026 22.835l.133 15.908h12.372v-15.669c0-16.767-.193-18.528-2.617-23.837-2.422-5.303-7.223-10.277-12.526-12.977-5.716-2.91-13.757-3.7-19.872-1.95m58.948-.25c-12.185 2.963-21.122 14.365-21.067 26.88.033 7.596 2.496 13.608 7.825 19.109 4.009 4.136 7.844 6.427 12.956 7.738 3.1.795 5.278.956 12.97.956h9.243v-12.325l-9.411-.173c-10.223-.188-11.813-.546-15.764-3.55-1.386-1.052-3.965-4.442-3.965-5.21 0-.131 9.22-.239 20.493-.239 18.248 0 20.525-.084 20.78-.764.158-.421.287-2.866.287-5.446 0-10.605-5.726-19.973-15.143-24.774-5.32-2.712-13.328-3.63-19.204-2.202zm10.51 12.198c2.388.761 3.818 1.478 5.636 2.822 1.625 1.2 4.347 4.56 4.347 5.364 0 .21-6.21.382-13.853.382s-13.853-.171-13.853-.382c0-.594 2.484-3.915 3.917-5.237 3.052-2.815 9.745-4.245 13.806-2.95m46.766-12.185c-6.544 1.587-13.94 7.121-17.14 12.824-2.772 4.94-3.592 8.169-3.592 14.14 0 4.73.17 5.959 1.224 8.838 3.358 9.171 10.862 15.968 20.034 18.143 1.915.455 5.422.726 9.387.726h6.329v-12.42h-5.398c-5.732 0-7.978-.404-11.226-2.019-6.458-3.21-9.785-11.5-7.279-18.14 1.966-5.207 4.728-7.932 9.763-9.63 5.446-1.838 11.21-.417 15.43 3.802 4.419 4.419 4.442 4.538 4.442 22.69v15.717h12.42v-16.147c0-18.964-.299-20.752-4.547-27.133-3.566-5.357-10.93-10.287-17.331-11.602-3.344-.687-9.222-.588-12.516.21m56.846.391c-4.538 1.373-6.667 2.498-10.222 5.4-4.805 3.922-8.371 10.14-9.406 16.397-.24 1.446-.435 9.34-.435 17.556v14.928h12.42v-14.905c0-18.152.243-19.287 5.112-23.842 2.34-2.19 6.689-4.246 8.98-4.246h1.195v-12.42l-2.03.023c-1.11.013-3.655.516-5.614 1.108m131.416-.413c-10.032 2.433-19.122 12.101-20.659 21.972-1.502 9.65 1.062 17.56 7.904 24.385 6.944 6.926 11.656 8.435 25.7 8.232l9.22-.133v-11.943l-9.315-.284c-9.937-.303-11.42-.581-14.905-2.794-1.815-1.152-5.159-5.009-5.159-5.95 0-.158 9.244-.287 20.517-.287h20.518l.33-2.245c.451-3.057-.12-9.998-1.033-12.563-2.55-7.166-7.631-12.956-14.154-16.129-2.197-1.069-5.093-2.16-6.497-2.446-3.343-.683-9.25-.595-12.467.185zm11.942 12.846c1.48.61 3.358 1.584 4.204 2.182 1.528 1.081 4.347 4.53 4.347 5.32 0 .237-6.21.43-13.853.43-7.644 0-13.854-.182-13.854-.406 0-.223.622-1.266 1.382-2.317 4.075-5.636 11.468-7.802 17.774-5.209M18.406 446.343c-.172.171-.311 6.808-.311 14.785 0 16.576.35 19.247 3.313 25.27 3.357 6.826 9.776 12.045 17.324 14.085 3.175.858 4.777 1.02 8.455.851 11.656-.532 20.952-7.374 25.16-18.518l1.352-3.583.191-16.624.191-16.624-6.234.143-6.234.144-.143 15.525-.143 15.525-1.311 2.675c-3.886 7.93-12.922 11.155-20.663 7.374-3.476-1.697-5.253-3.552-7.11-7.421l-1.489-3.105-.143-15.406-.144-15.406h-5.875c-3.249 0-6.015.139-6.186.31M162.417 10.769c-1.539.652-3.469 2.106-4.274 3.217-2.86 3.945-2.796 4.144 11.38 35.616a2630.617 2630.617 0 017.646 17.19 3552.956 3552.956 0 0011.568 26.006 5323.29 5323.29 0 015.905 13.224c7.656 17.19 8.12 18.072 9.497 18.072 1.448 0 8.591-2.54 9.684-3.444.348-.287-8.618-24.502-19.91-53.77-21.292-55.186-21.378-55.366-26.88-56.823-.993-.262-3.077.06-4.616.712m246.259 36.528c-1.996.833-7.703 6.712-17.215 17.732-3.5 4.055-8.13 9.36-10.388 11.901-2.222 2.5-7.158 8.11-10.86 12.342-3.703 4.232-8.434 9.64-10.408 11.901-1.975 2.26-6.706 7.67-10.408 11.901a1705.793 1705.793 0 01-10.86 12.298c-2.23 2.486-6.94 7.89-10.408 11.945-3.47 4.056-8.383 9.62-10.86 12.298-2.529 2.733-5.405 6.099-6.517 7.626-1.602 2.197-2.806 2.824-6.154 3.2-5.069.57-8.243 3.176-9.525 7.82-1.47 5.327 1.65 10.68 7.172 12.299 7.26 2.13 13.666-2.603 13.666-10.096 0-3.61-4.2.97 53.82-58.712 50.563-52.012 51.163-52.67 51.163-55.98 0-5.73-7.06-10.628-12.218-8.475"/>
    <path fill-opacity="0" stroke="#000" stroke-width="3" d="M274.28 113.138c-17.559 1.897-33.457 4.99-47.696 9.276-4.706 1.417-8.871 2.768-9.322 3.024-.76.432 1.005 6.237 4.016 13.202.621 1.438 2.071 5.157 3.179 8.154 1.108 2.997 2.531 5.51 3.122 5.51 2.031 0 6.156 3.79 7.483 6.876 1.668 3.879.368 8.044-3.5 11.214-6.692 5.484-18.36-.459-16.654-8.481.308-1.448.78-3.703 1.087-5.201.357-1.743-.059-3.923-1.222-6.392-.98-2.081-3.293-7.273-5.204-11.68-1.91-4.408-3.717-8.247-4.064-8.64-.713-.803-24.716 10.908-32.137 15.68-19.549 12.568-33.801 26.741-40.792 40.564-3.879 7.67-6.466 16.88-5.473 19.483.39 1.023 5.538 1.234 30.155 1.234 27.604 0 29.758-.111 30.714-1.587 1.675-2.586 7.84-4.176 11.099-2.861 4.755 1.917 6.878 4.977 6.878 9.914 0 3.879-.358 4.718-2.987 6.993-5.068 4.388-9.782 4.438-14.142.147l-2.42-2.38-28.191 1.058c-15.476.58-28.39 1.256-28.63 1.499-.838.846 3.775 8.463 7.689 12.694 10.009 10.82 27.14 18.082 52.028 22.053 13.726 2.19 43.442.99 63.262-2.554 57.198-10.228 108.051-41.189 121.8-74.156 6.288-15.075 3.383-32.017-7.223-42.132l-4.072-3.886-6.064 5.217c-8.055 6.929-16.4 15.912-18.246 19.644-1.309 2.644-1.325 3.267-.139 5.289 2.058 3.509 5.081 4.496 13.77 4.496 4.344 0 7.873.296 7.873.661 0 .365-2.715 1.585-6.064 2.724-9.321 3.172-14.07 5.486-17.286 8.426-2.585 2.363-2.896 3.176-2.896 7.583 0 4.903 1.012 8.64 3.77 13.93 1.753 3.36 1.117 3.55-4.765 1.41-5.612-2.04-17.593-2.135-21.269-.169-4.03 2.157-7.879 8.279-10.855 17.27l-2.54 7.67-1.085-3.966a2421.42 2421.42 0 01-2.272-8.375c-1.28-4.76-5.69-10.212-10.218-12.63-3.688-1.97-19.548-1.907-27.15.107l-5.34 1.415 7.568-7.405c9.459-9.257 11.982-13.508 11.356-19.13-.255-2.292-1.106-5.364-1.903-6.876-1.943-3.682-7.247-9.35-11.772-12.58l-3.62-2.583 3.167.525c11.766 1.951 14.487 2.216 18.101 1.77 5.702-.705 9.254-2.457 12.877-6.35 3.873-4.162 5.845-9.786 6.678-19.042l.627-6.965 2.143 5.202c6.25 15.163 10.284 17.676 18.492 11.518 5.611-4.21 19.82-20.051 19.82-22.097 0-.582-5.43-2.097-13.575-3.786-5.624-1.167-40.908-2.29-47.967-1.528"/>
    <path fill-opacity="0" stroke="#000" stroke-width="3" d="M386.73 199.247c-.523.606-2.62 9.036-4.662 18.733a7410.45 7410.45 0 01-6.47 30.414 4676.31 4676.31 0 00-5.43 25.566 8390.71 8390.71 0 01-6.245 29.532c-1.976 9.257-4.21 19.905-4.994 23.802-1.844 9.169-3.294 14.546-3.921 14.546-.639 0-6.154-5.153-47.152-44.063-17.105-16.234-31.582-29.547-32.129-29.547-1.115 0-2.826 5.2-9.57 29.091-2.613 9.257-5.499 19.314-6.449 22.48-.95 3.166-2.874 9.874-4.299 14.987a6976.246 6976.246 0 01-4.567 16.309c-4.35 15.427-5.613 18.953-6.791 18.953-.644 0-5.44-4.672-10.589-10.314s-11.872-12.95-14.842-16.133c-2.966-3.178-9.743-10.578-14.934-16.309-5.19-5.73-11.967-13.13-14.933-16.308-2.987-3.202-9.5-10.359-14.48-15.913S162.963 282.6 160.2 279.69c-2.774-2.92-7.348-7.934-10.215-11.196-6.046-6.876-8.538-7.74-7.89-2.733.122.949 19.6 45.4 23.138 52.806.757 1.587 1.347 3.033 1.347 3.306 0 .27 1.406 3.438 3.168 7.14 1.762 3.703 3.167 6.833 3.167 7.053 0 .217.984 2.513 2.172 5.069 1.2 2.582 4.825 10.667 8.101 18.072 7.177 16.22 8.68 18.603 16.064 25.452 4.706 4.366 15.788 11.838 17.557 11.838.248 0 2.173.748 4.254 1.653 8.207 3.568 18.1 5.96 30.138 7.286 9.774 1.078 32.323.514 40.455-1.01 16.11-3.018 22.635-4.675 35.567-9.026 9.956-3.35 26.763-11.461 35.297-17.034 21.178-13.829 35.03-30.697 40.209-48.956 2.05-7.23 2.252-11.46.959-20.011-.494-3.26-2.11-15.78-3.61-27.946-1.498-12.165-3.1-25.001-3.574-28.65a2239.84 2239.84 0 01-1.88-14.987c-3.85-31.648-4.796-37.9-5.858-38.776-.695-.572-1.428-.498-2.037.207M34.264 205.04c-4.973.57-7.694 7.387-5.129 12.852 1.906 4.063 5.672 4.636 25.674 3.915 9.927-.358 29.277-1.031 42.853-1.49 13.575-.46 24.855-.977 24.979-1.146.123-.169-.186-3.174-.679-6.612l-.905-6.303-21.811-.555c-26.97-.686-61.695-1.04-64.982-.662"/>
</svg>
