<svg xmlns="http://www.w3.org/2000/svg" width="512" height="512">
    <path fill-opacity="0" stroke="#000" stroke-width="3" d="M255.45 9.355A246.1 246.1 0 009.348 255.453a246.1 246.1 0 00246.1 246.1 246.1 246.1 0 00246.098-246.1A246.1 246.1 0 00255.45 9.355zM144.361 177.852l2.777.29c6.005.42 11.409 1.423 15.755 6.072 3.583 3.855 4.858 8.525 6.09 13.47l3.804 16.317 9.525 40.605 5.431 22.685 9.634-46.964 5.967-29.06c1.227-6.148 2.523-13.237 7.121-17.873 7.929-7.987 23.447-6.806 30.977 1.163 3.829 4.054 5.27 9.253 5.211 14.722-.058 4.649-1.712 9.822-2.84 14.33l-6.168 23.879-20.6 80.006c-2.919 11.67-4.934 25.018-18.558 28.506-2.041.528-4.262.923-6.366.948-4.392.053-8.46.239-12.734-.968-14.956-4.216-16.273-20.536-19.457-33.263l-9.344-38.21-5.83-23.484-3.334 13.535-8.957 36.613-5.875 23.815c-2.24 8.666-4.365 15.801-13.277 19.85-5.249 2.376-9.588 2.119-15.129 2.112a26.088 26.088 0 01-7.168-.968c-1.906-.537-3.882-1.188-5.567-2.255-8.762-5.54-10.216-15.796-12.592-25.036l-20.4-79.212-6.559-25.869c-1.213-4.836-3.216-10.46-3.021-15.524.194-4.888 1.846-9.899 5.229-13.515 6.909-7.407 21.123-8.854 29.382-3.03 8.098 5.716 9.163 18.58 10.985 27.692l9.155 44.975 2.868 14.33c.53 2.66.922 5.94 2.066 8.355l4.824-21.09 8.845-38.215 4.494-19.502c.917-3.758 1.544-7.75 3.514-11.146 4.01-6.91 9.979-8.279 17.334-8.795zm195.83 0a41.716 41.716 0 019.154 1.42c8.202 2.63 10.882 7.233 15.144 14.032l7.169 11.547 29.111 46.966 9.349 15.122c1.35 2.15 3.133 5.516 4.909 7.169v-70.452c0-7.134-.331-13.223 4.693-19.067 7.38-8.59 25.248-8.914 33.042-.802 4.495 4.675 5.637 11.65 5.644 17.88v117.816l-.36 3.978c-.775 10.965-4.778 19.082-15.956 22.407-2.08.614-4.198 1.055-6.374 1.08-6.445.079-12.47.408-18.308-2.917-4.5-2.565-7.22-7.131-9.88-11.412l-8.827-13.93-28.237-44.581-13.563-21.096v73.632c-.065 5.542-2.162 11.715-6.359 15.452-7.652 6.807-23.544 6.623-31.036-.384-4.39-4.113-5.978-10.83-5.986-16.662V203.264c.008-6.025 1.358-12.807 5.303-17.52 4.798-5.728 11.547-7.11 18.579-7.601zm-62.897.085h1.595c3.52.238 7.155.808 10.352 2.383 7.129 3.513 11.133 10.733 11.146 18.559v127.765c-.141 11.817-9.519 20.279-21.096 20.304-4.649.005-6.678.057-11.146-1.77-8.814-3.603-12.321-12.358-12.334-21.315v-123.39c.103-9.092 4.054-17.086 12.734-20.753 3.373-1.42 5.365-1.307 8.75-1.783z"/>
</svg>
