<svg xmlns="http://www.w3.org/2000/svg" width="512" height="512">
 <path d="m230.77 157.76c-1.506 0.0101-2.9173 0.0318-3.149 0.0528-0.23169 0.0101-1.0848 0.0841-1.8957 0.13683-5.129 0.4002-11.722 1.7694-16.609 3.465-3.7072 1.2744-5.3397 1.9589-8.9837 3.7599-3.6019 1.7798-5.3501 2.7804-8.8467 5.0869-2.6119 1.7061-5.8346 4.1494-8.2674 6.2558-3.5492 3.0753-9.8682 9.6577-12.343 12.859-0.27381 0.34758-0.9058 1.1585-1.4008 1.801-2.7909 3.5913-5.7608 7.9514-7.4775 10.953-0.34754 0.61082-0.78986 1.3796-0.98997 1.7166-0.40022 0.6951-2.2118 4.2655-2.8542 5.6557-1.506 3.2332-3.2436 8.0146-4.2231 11.638-0.50552 1.8746-1.3166 5.4134-1.5588 6.8458-0.2633 1.5798-0.64245 4.2336-0.74775 5.3184-0.0631 0.63192-0.16844 1.5587-0.22109 2.0538-0.0632 0.49496-0.13702 1.8642-0.16862 3.0543-0.0948 3.2544 0.10529 4.6551 1.0742 7.7409 2.0116 6.3611 5.1396 11.216 10.1 15.64 3.7177 3.307 8.8151 6.2876 12.796 7.4672 1.2217 0.36861 3.5807 0.88461 4.9078 1.0847 1.2533 0.17903 6.5929 0.17903 8.3728 0 0.7267-0.0737 2.454-0.30545 3.8442-0.50558 9.2364-1.3586 16.925-3.981 25.55-8.7203 1.6851-0.91625 2.2854-1.2638 2.5698-1.4744 0.17903-0.12641 0.52663-0.33703 0.77938-0.47393 0.47395-0.24227 2.5486-1.5798 2.6434-1.7062 0.0316-0.0318 0.38966-0.27379 0.78988-0.51606 0.41073-0.24221 0.91642-0.58985 1.1481-0.76888 0.22116-0.17903 0.53698-0.42116 0.7055-0.53703 0.15797-0.12634 0.57929-0.43185 0.93737-0.69515 1.7483-1.2849 2.4539-1.8326 3.465-2.6751 0.80041-0.67399 1.6744-1.4427 2.2748-2.0114 0.12637-0.11586 0.41084-0.36868 0.64254-0.56881 1.1164-0.9584 3.4123-3.2017 4.9815-4.8656 3.5387-3.7388 5.7398-6.4033 9.1731-11.1 4.2022-5.7398 7.9199-12.459 10.553-19.063 1.5798-3.9599 2.791-8.1094 3.6546-12.48 0.55818-2.8435 0.81091-4.7813 1.1163-8.3937 0.15799-1.9694 0.27383-2.3802 0.90574-3.1595 0.20011-0.24227 0.78987-1.0006 1.3059-1.6747 1.2322-1.6008 2.7488-3.4649 3.6651-4.5181 2.159-2.4855 2.6329-3.0226 4.2337-4.7394 3.1385-3.3701 5.6766-5.7503 9.8367-9.2469 2.317-1.9484 5.1817-3.8652 7.6461-5.108 4.4444-2.2433 7.7725-3.0648 10.584-2.6119 2.3802 0.38964 3.5702 1.0216 4.1495 2.1906 0.33702 0.6635 0.34745 1.1901 0.0632 2.2855-0.77935 3.0647-2.8224 7.5618-4.855 10.669-0.13691 0.21068-0.53726 0.83192-0.87427 1.3691-0.88468 1.3902-1.4533 2.2748-3.0647 4.7709-1.3059 2.0221-1.8536 2.8647-2.1591 3.3175-0.17904 0.26332-0.63185 0.94792-1.0005 1.5272-0.3686 0.5793-0.86359 1.3376-1.1058 1.6851-0.23167 0.34758-0.9584 1.4427-1.6114 2.4433-0.64244 1.0006-2.0116 3.0753-3.0227 4.613s-2.0326 3.0964-2.2643 3.465c-0.2317 0.37917-0.61082 0.95846-0.832 1.2955-0.44234 0.65296-3.4123 5.15-3.5914 5.4238-0.0527 0.0949-0.48448 0.7373-0.93737 1.4218-1.1585 1.7272-2.9804 4.5182-4.7498 7.2459-0.33701 0.51607-1.0215 1.5692-1.5165 2.338-1.7272 2.6435-3.6335 5.666-4.4866 7.0878-3.1279 5.1922-5.9084 12.407-6.5087 16.851-0.1685 1.2217-0.13685 2.8436 0.0632 3.7914 0.30543 1.348 1.2322 4.3075 1.8325 5.7925 0.61085 1.506 1.6956 3.707 2.2538 4.5812 1.8852 2.9384 3.4229 4.8763 5.3186 6.6878 5.4028 5.1816 9.9842 7.3195 14.692 6.8561 1.2217-0.11585 3.7494-0.65288 5.5082-1.1689 4.3075-1.2532 9.9104-4.2023 13.912-7.3197 3.0121-2.338 3.9493-3.1488 6.7402-5.8029 2.6119-2.496 7.446-7.6461 10.616-11.332 1.4639-1.6956 2.7805-2.8752 3.2966-2.9595 0.94785-0.158 1.148 0.16848 4.8973 8.141 2.2327 4.7394 4.7918 9.784 5.6765 11.164 2.7067 4.2443 5.5504 6.8984 8.8152 8.2254 2.317 0.93736 3.6649 1.19 6.0346 1.1163 1.506-0.042 1.9064-0.0948 3.0438-0.38965 3.4334-0.88468 6.2664-2.2853 10.595-5.2343 1.1058-0.75826 3.7703-2.9173 5.9399-4.813 1.6851-1.4745 6.7931-6.572 8.594-8.5835 1.7272-1.9379 3.6651-4.1494 4.4234-5.0762 0.34754-0.41076 0.95832-1.1375 1.3585-1.6114 0.41074-0.47392 1.464-1.7587 2.3487-2.8541 0.88468-1.1058 2.4538-3.0648 3.507-4.3707 1.1269-1.4007 1.8957-2.4538 1.8957-2.5908 0-0.20007-1.032-2.3276-1.2953-2.6541-0.0527-0.0635-0.158-0.12633-0.23172-0.12633-0.10532 0-2.5172 2.8435-4.6867 5.5291-0.31595 0.4002-1.0531 1.2638-1.6324 1.9378-0.90572 1.0427-2.9068 3.4124-4.0022 4.7394-1.6114 1.9589-6.9615 7.7303-9.1731 9.9209-7.2459 7.1195-13.228 11.185-17.999 12.217-0.93733 0.20006-3.012 0.17903-3.844-0.042-0.90573-0.2422-2.2854-0.92681-2.7172-1.348-0.80043-0.77937-0.81083-1.1481-0.18944-3.9916 1.169-5.2765 2.5064-9.1942 5.1605-15.092 0.48447-1.0847 3.2017-6.4664 3.8652-7.6881 0.76883-1.3797 3.3385-5.9506 4.2021-7.4461 0.22116-0.37915 0.49504-0.86356 0.62141-1.0847 0.11586-0.21061 0.32646-0.56868 0.44231-0.78985 0.12638-0.21062 0.49498-0.86371 0.83201-1.4429 0.33701-0.57923 0.99001-1.7166 1.4534-2.5276 0.46339-0.81095 1.2743-2.2328 1.822-3.1595 0.53711-0.92681 1.2218-2.1168 1.5167-2.6328 0.30541-0.5266 1.011-1.7272 1.5798-2.6856 0.56872-0.95838 1.2532-2.117 1.527-2.5804 0.26329-0.46338 0.97944-1.6534 1.5798-2.6328 0.58977-0.98999 1.2533-2.0749 1.4534-2.4224 0.34756-0.60033 2.4434-3.981 4.6446-7.5092 0.55819-0.88467 1.348-2.1274 1.7587-2.7593 0.41074-0.62136 0.77942-1.2006 0.81101-1.2743 0.10532-0.2422 3.9599-6.0031 5.982-8.9414 0.84254-1.2322 4.9289-6.9617 6.119-8.573 0.42128-0.56869 0.86364-1.169 0.97949-1.327 0.11584-0.15793 0.49494-0.65295 0.84249-1.1058 0.34755-0.44234 0.68462-0.89523 0.73728-0.98999 0.0631-0.0949 0.12638-0.18964 0.15798-0.22123 0.0316-0.0318 0.24223-0.29482 0.47392-0.57917 0.2317-0.29488 0.54763-0.66364 0.71614-0.83212 0.40022-0.41075 0.34755-0.56861-0.63191-2.001-1.169-1.7061-1.7167-2.3591-3.5176-4.1706-1.7272-1.7378-2.5487-2.4434-4.3075-3.7072-3.486-2.4855-8.4886-4.7181-10.584-4.7181-0.58977 0-1.506 0.34744-2.1905 0.81081-1.0742 0.72674-2.9912 2.9173-4.8658 5.5713-0.56871 0.8004-1.1584 1.6325-1.3164 1.8326-0.27382 0.35812-2.1801 3.2544-2.8014 4.2338-0.97947 1.5692-1.8536 2.9805-2.2959 3.7177-1.4218 2.3486-3.4649 5.6872-3.9599 6.477-0.30541 0.49502-0.70567 1.1586-0.89525 1.4746-0.17904 0.31593-0.51607 0.87412-0.74777 1.2322-0.22117 0.35807-0.69509 1.1163-1.0321 1.685-0.34755 0.56868-0.80048 1.3166-1.0111 1.6641-0.21065 0.34758-0.51606 0.84254-0.67403 1.1058-0.15798 0.26331-0.54764 0.89523-0.87412 1.4218-0.32649 0.51607-0.8003 1.3059-1.0531 1.7377-0.56872 0.96895-1.0637 1.7798-1.4955 2.4749-0.17905 0.28434-0.84265 1.3797-1.4746 2.4224s-1.4218 2.317-1.7482 2.8436c-0.32648 0.51606-0.82148 1.3269-1.1058 1.7903-0.53712 0.87419-1.1585 1.8853-2.0642 3.3492-0.2949 0.47392-0.81092 1.3164-1.148 1.8641-0.6635 1.0743-1.3481 2.1695-1.959 3.1384-0.21064 0.32654-0.69503 1.0954-1.0847 1.7063-2.3802 3.8019-5.7188 8.8677-7.8567 11.901-3.1911 4.5392-4.5708 6.456-6.5613 9.0469-0.33704 0.44226-0.7794 1.0321-0.9795 1.327-0.21064 0.28441-0.54763 0.74771-0.75826 1.011-1.2849 1.5903-3.4861 4.2865-4.2339 5.1923-1.327 1.6114-5.2764 6.1294-6.6876 7.6459-3.6019 3.8757-5.9611 6.0873-9.584 9.0152-6.2664 5.0552-10.648 7.3406-16.061 8.3727-0.37913 0.0737-1.3691 0.13697-2.2117 0.13697-1.7377 0-2.6329-0.18952-3.9494-0.83198-1.4744-0.72668-2.2327-1.5272-2.6961-2.8647-0.38968-1.1374-0.28449-2.0326 0.54752-4.6972 0.60031-1.9168 1.148-3.1806 2.8647-6.5402 2.1801-4.2654 3.149-5.9611 5.803-10.142 0.41075-0.65295 1.1479-1.8114 1.6324-2.5802 0.49499-0.76882 1.1796-1.8536 1.5376-2.4013 0.35809-0.54763 0.89527-1.4007 1.2112-1.8958 0.93734-1.4955 3.4018-5.3397 4.3391-6.772 0.47393-0.74778 1.2532-1.9378 1.7166-2.6644 0.4634-0.72674 1.3165-2.0538 1.8957-2.949 0.57926-0.89515 1.4219-2.2011 1.8748-2.9173 0.45287-0.70564 1.5798-2.4433 2.496-3.865 2.4644-3.8125 3.686-5.7083 4.2126-6.572 0.2633-0.42124 0.81097-1.2848 1.2217-1.9167 0.96894-1.485 4.5077-7.0668 5.94-9.3628 0.94785-1.5271 3.1805-5.3292 3.7282-6.3402 1.3691-2.5803 2.9699-6.6035 3.328-8.4044 0.37915-1.8431 0.14759-3.3174-0.90558-5.8662-2.0642-5.0131-5.0132-9.0469-9.1522-12.501-3.3596-2.812-7.5724-4.9921-10.732-5.5608-1.169-0.21062-4.1285-0.23172-5.4345-0.042-2.2222 0.32648-6.1295 1.5272-8.6887 2.6646-1.6324 0.73723-4.4654 2.2853-5.9503 3.2648-3.9178 2.5803-7.3513 5.4555-11.438 9.584-3.5387 3.5597-8.0673 8.615-9.1731 10.226-0.18959 0.27385-0.46337 0.54765-0.60029 0.60026-0.13691 0.0527-0.28448 0.14759-0.3266 0.21076-0.12639 0.20013-0.33703-0.0738-0.47393-0.61096-0.70563-2.675-1.8115-5.35-3.4755-8.3937-0.71617-1.306-2.4223-3.8232-3.5597-5.266-0.78989-1.0005-4.6129-4.8025-5.666-5.6451-5.2764-4.1706-10.732-6.814-15.534-7.5197-0.82148-0.11586-1.8537-0.15806-3.8442-0.13696zm-156.88 0.63064c-0.32255 0-0.64112 0.0331-1.3362 0.0961-4.3075 0.37916-9.4048 2.159-14.155 4.9499-1.0532 0.61083-3.7599 2.4328-5.0236 3.3702-6.4455 4.7814-14.913 13.723-22.19 23.423-3.1806 4.2548-6.3086 8.7625-8.3518 12.048-0.2633 0.4213-0.7373 1.1795-1.0533 1.6745-0.32648 0.50552-0.8635 1.3902-1.2005 1.9695-0.33703 0.57923-0.78992 1.3376-1.0111 1.6851-0.85309 1.3902-1.3586 2.2328-1.5798 2.6857-0.13696 0.26323-0.36861 0.66337-0.52654 0.89509-0.158 0.23165-0.68461 1.1796-1.1796 2.1064-0.49496 0.92681-1.4111 2.6329-2.0325 3.7914-1.7483 3.2543-3.4229 6.5928-3.4229 6.8245 0 0.22117 1.7589 2.0432 2.2012 2.2749 0.31593 0.17903 0.45282 0.042 0.75826-0.70571 0.1369-0.32647 0.81095-1.664 1.4955-2.9699 0.69509-1.306 1.327-2.5171 1.4218-2.6856 0.08421-0.17903 0.38965-0.70564 0.67399-1.1901 0.27386-0.47393 0.50558-0.90578 0.50558-0.93737 0-0.0629 0.58972-1.0952 1.7903-3.1384 0.27386-0.46345 0.8426-1.4324 1.2638-2.1591 0.4213-0.72675 1.2744-2.138 1.8853-3.1386 0.61082-1.0005 1.2111-1.9799 1.3164-2.1589 0.21062-0.34757 1.0111-1.5903 1.801-2.8119 0.85309-1.3165 4.1705-6.2771 4.9078-7.3197 0.4002-0.57923 0.90571-1.2954 1.1058-1.5798 0.20006-0.2949 0.46337-0.67399 0.60026-0.84248 0.12641-0.17903 0.80047-1.1058 1.4956-2.0537 0.69509-0.95838 1.3375-1.8325 1.4323-1.9484 0.20013-0.23165 0.97943-1.2322 1.6219-2.0537 2.7699-3.5808 6.0453-7.2565 9.742-10.964 5.1816-5.1921 9.9842-9.0995 13.849-11.28 1.6535-0.9373 2.0431-1.1374 3.3701-1.7166 4.6761-2.0748 8.6045-2.4749 11.29-1.1585 0.93736 0.46337 1.6114 1.169 1.8641 1.98 0.16848 0.53709 0.16848 0.61081-0.03178 1.506-0.26324 1.2112-1.1373 3.6546-2.043 5.6766-0.84254 1.8957-2.7488 5.2238-4.9289 8.5729-0.32648 0.49496-0.75826 1.1689-0.95833 1.4849-0.4213 0.6635-2.1169 3.265-4.7709 7.3197-2.7909 4.2759-7.4354 11.301-7.8568 11.901-0.15793 0.23172-0.61075 0.91633-1.0005 1.5271-0.8004 1.2428-1.1163 1.7271-1.8536 2.7908-0.27386 0.4002-0.56888 0.83198-0.64261 0.94785-0.08421 0.11585-0.47379 0.7057-0.86344 1.3166-0.4002 0.61081-1.3587 2.0746-2.1381 3.2648-0.77936 1.19-1.664 2.5382-1.9695 3.0015-0.29489 0.46344-0.76868 1.2007-1.0531 1.6325-0.28434 0.43186-1.0427 1.5903-1.6851 2.5802-0.65295 0.9795-1.4533 2.2117-1.7903 2.7382-0.33703 0.51607-0.76881 1.1797-0.95833 1.4746-1.3586 2.1063-2.2539 3.6229-3.6968 6.3191-2.0327 3.7809-4.1601 9.4891-4.7288 12.701-0.26331 1.485-0.24214 3.6546 0.05276 5.0448 0.66351 3.1384 3.2648 8.4149 5.8978 12.006 1.0427 1.4323 1.7167 2.2117 3.17 3.7177 2.0958 2.1695 4.4234 4.0337 6.5929 5.2764 1.2217 0.6951 3.3703 1.7062 4.0443 1.8958 1.822 0.51606 3.686 0.61069 5.5922 0.27366 1.6009-0.2738 5.0869-1.1585 6.2033-1.5798 0.49496-0.17903 1.1584-0.42117 1.4744-0.53702 0.78985-0.28435 3.0858-1.3797 4.3707-2.0748 2.0853-1.1374 3.8651-2.2854 5.6134-3.6019 0.6635-0.49503 1.327-0.98999 1.4955-1.1058 2.5803-1.8536 7.8672-6.793 10.985-10.269 0.70564-0.77936 1.78-1.9693 2.3909-2.6328 0.61082-0.6635 1.6956-1.8958 2.4222-2.7279 3.9283-4.5392 5.1606-5.6976 6.0452-5.6976 0.54765 0 0.8004 1.2744 0.44234 2.2749-0.20014 0.57923-0.97936 2.1168-1.327 2.6224-0.33696 0.49496-0.98998 1.5587-1.6535 2.6856-0.25276 0.43178-0.74785 1.2112-1.0849 1.7378-0.34751 0.51599-0.7793 1.2322-0.95833 1.5798-0.17903 0.34751-0.46344 0.8215-0.62144 1.0532-0.27379 0.41075-1.0425 1.6641-2.0009 3.265-0.26331 0.44234-0.68454 1.1374-0.94785 1.5586-0.2633 0.41076-0.64254 1.0216-0.84267 1.3376-0.36861 0.61081-2.0431 3.349-2.6329 4.318-0.20007 0.31599-0.58985 0.96901-0.88474 1.4429-1.1058 1.7798-1.5692 2.5276-1.8957 3.0858-0.18958 0.31592-0.7373 1.2216-1.2217 2.0009-1.3691 2.2011-2.1485 3.4755-2.5277 4.1074-0.18958 0.31593-0.50544 0.81096-0.69496 1.1058-0.17903 0.28434-0.4213 0.69516-0.51606 0.89523-0.10531 0.20013-0.35813 0.63192-0.5793 0.94791-0.21062 0.31592-0.54771 0.84247-0.7373 1.1584-0.18958 0.31599-0.58978 0.95839-0.87412 1.4218-0.29489 0.46337-0.75819 1.2217-1.0426 1.6851-0.28434 0.46337-0.72668 1.169-0.97943 1.5798-0.43185 0.68454-0.91633 1.4639-2.1591 3.4754-0.26324 0.4318-0.68454 1.1163-0.94784 1.5482-0.2633 0.42125-0.62137 1.0006-0.78985 1.285-0.17903 0.28434-0.54765 0.88454-0.84254 1.3269-0.28434 0.45289-0.75833 1.2112-1.0532 1.6851-0.28434 0.474-0.7582 1.2323-1.0531 1.6852-0.28434 0.45288-0.75833 1.2111-1.0532 1.6745-0.28434 0.46337-0.76874 1.2428-1.0742 1.7167-0.30544 0.48448-0.76875 1.2322-1.0426 1.664-0.27379 0.43179-0.7373 1.169-1.0427 1.6324-0.29489 0.46338-0.82137 1.2954-1.1689 1.8431-0.78985 1.2744-5.6661 8.5728-6.635 9.9314-0.4002 0.5793-0.94791 1.3587-1.2217 1.7378-0.27386 0.38972-0.70571 1.011-0.96902 1.3902-0.2633 0.37917-0.68447 0.96895-0.92674 1.3271-0.25275 0.35806-0.87412 1.2111-1.3796 1.8957-0.50558 0.68461-1.2429 1.6851-1.6325 2.2117-0.38972 0.5266-1.1058 1.485-1.6008 2.1274-0.49496 0.64247-1.2006 1.5798-1.5798 2.0853-0.3791 0.50552-1.0427 1.3585-1.4745 1.8746-0.43179 0.52662-1.1585 1.4114-1.6008 1.959-1.7272 2.1274-2.0431 2.5171-3.0753 3.6861-1.5693 1.7904-5.3081 5.5082-6.6983 6.6562-3.6229 3.0015-6.7719 4.8025-9.7734 5.5818-1.1164 0.2949-1.3902 0.32661-2.9699 0.33709-1.9589 0.0101-2.5277-0.0949-3.8968-0.75839-3.2227-1.5482-4.8763-7.0142-3.7493-12.406 0.46337-2.2117 1.685-5.7925 2.8541-8.4149 0.52654-1.169 2.3486-4.7604 3.0332-5.961 0.60027-1.0532 1.2849-2.1802 2.6751-4.4129 0.81088-1.2954 3.0753-4.6865 4.1916-6.2663 0.17903-0.24227 0.56875-0.81102 0.87412-1.2534 0.70564-1.011 4.5814-6.2032 5.0131-6.7087 0.17903-0.21069 0.53709-0.65302 0.8004-0.99006 0.94784-1.2427 2.2854-2.8751 3.4755-4.2654 0.6635-0.7793 1.3271-1.5692 1.4534-1.7377 0.4213-0.53716 5.4871-6.1505 6.6562-7.3617 2.0221-2.1064 6.8036-6.8457 9.7841-9.6999 1.0321-0.98998 1.19-1.2743 0.83199-1.5481-0.26331-0.20014-1.2217-0.56868-1.7378-0.67407-0.46337-0.0948-0.90578 0.17897-2.8226 1.7167-0.92681 0.73723-2.1064 1.6746-2.633 2.0748-0.51606 0.41075-1.7272 1.3585-2.6856 2.1168-0.9584 0.75834-2.3802 1.8747-3.1595 2.4751-0.77936 0.61082-2.138 1.6956-3.0121 2.4222-0.87412 0.72675-2.2327 1.8326-3.0015 2.4751-2.3275 1.9062-4.1284 3.5492-6.5823 6.0031-3.328 3.328-5.2449 5.508-7.9621 9.0573-1.2323 1.6219-3.5388 5.1712-4.8447 7.4776-3.2859 5.7924-5.4343 12.333-6.4243 19.536-0.22117 1.5798-0.17917 7.9095 0.0629 9.5314 0.73723 5.0026 2.4855 8.8994 5.4766 12.196 2.3486 2.5908 5.5923 4.518 8.5833 5.0867 2.6646 0.5055 5.8453 0.20006 9.8578-0.94792 4.5603-1.3059 8.1726-2.9488 13.059-5.9398 1.4745-0.90578 4.4655-2.9278 4.8447-3.286 0.12641-0.11585 0.2633-0.21068 0.30544-0.21068 0.04193 0 0.45282-0.29476 0.92674-0.66337 0.46337-0.35813 1.0005-0.76895 1.19-0.9164 0.36861-0.2844 0.65302-0.51599 2.6856-2.201 3.2544-2.7066 4.1812-3.5704 8.0043-7.3723 2.9804-2.9699 4.5181-4.613 6.6245-7.0668 1.0216-1.1901 1.9799-2.3065 2.1168-2.4855 0.14745-0.17904 0.75833-0.91619 1.3692-1.6324 0.61082-0.71612 1.3587-1.6324 1.6747-2.0432 0.31593-0.4002 0.78971-1.0216 1.0635-1.3692 1.1375-1.4639 1.4325-1.8536 2.2961-3.0121 1.6219-2.1801 2.0853-2.812 5.3291-7.3617 1.7693-2.4749 9.152-13.523 11.522-17.23 7.4144-11.617 14.323-23.149 21.654-36.166 0.8004-1.4218 1.7587-3.107 2.1168-3.7388 0.35807-0.64247 0.85308-1.5376 1.1058-2.0009 0.24223-0.46343 0.48441-0.89522 0.52655-0.9479 0.0737-0.0948 5.624-10.205 7.4039-13.481 0.41074-0.75826 0.91618-1.6745 1.1268-2.0537 0.22117-0.37917 0.93739-1.685 1.6009-2.8962 1.4112-2.5802 3.4966-6.319 4.4866-8.0567 1.9484-3.4228 3.3175-5.8242 4.318-7.5303 0.61085-1.0427 1.4428-2.4539 1.8325-3.1384 0.40019-0.68455 1.1058-1.8747 1.5798-2.633 0.46338-0.76881 1.0638-1.7482 1.3166-2.1801 0.26331-0.43179 0.78987-1.3164 1.1901-1.9483 0.40021-0.6424 0.87408-1.4008 1.0426-1.6851 0.16851-0.29489 0.78995-1.2638 1.3692-2.1591 0.57925-0.89516 1.2323-1.9167 1.4534-2.2643 0.42127-0.68454 4.971-7.5196 5.287-7.9514 0.11584-0.14745 0.81088-1.1374 1.5586-2.2011 0.73722-1.0637 1.5271-2.1802 1.7378-2.475 0.21062-0.29489 0.47398-0.65289 0.57931-0.8004 0.1053-0.14738 0.44225-0.61081 0.76874-1.0321 0.31595-0.4213 0.67398-0.90577 0.80037-1.0637 0.11584-0.16855 0.36863-0.48453 0.54768-0.7268 0.18957-0.23173 0.33709-0.45276 0.33709-0.49489 0-0.042 0.17902-0.28435 0.40018-0.52655 0.21063-0.24227 0.66345-0.81109 1.0005-1.2744 0.33701-0.4529 0.82145-1.0952 1.0742-1.4112 0.26329-0.316 0.54772-0.69522 0.65304-0.84267s0.66356-0.83198 1.2533-1.5376c1.3481-1.6009 1.3797-1.6535 1.1375-2.0221-0.35807-0.54764-2.6436-2.8014-4.2023-4.1495-2.8331-2.4539-6.14-4.6551-9.5312-6.3507-3.1701-1.5902-4.8657-2.1801-6.3191-2.2011-0.82148-0.0108-0.95845 0.021-1.6851 0.36868-0.61085 0.29489-1.0426 0.6213-1.9167 1.4428-2.001 1.9168-3.465 3.8546-6.2981 8.2885-0.36861 0.57923-0.82138 1.2849-1.011 1.5798-0.56872 0.88468-2.5909 4.0968-3.0648 4.8656-0.24225 0.38965-0.99006 1.5904-1.643 2.6646-0.6635 1.0742-1.3164 2.1169-1.4428 2.3171-0.49501 0.75827-1.306 2.0747-1.6535 2.6856-0.2001 0.34751-0.51608 0.86351-0.70564 1.1584-0.18958 0.28441-0.62134 0.9795-0.95836 1.5272-0.33701 0.54765-0.81096 1.3269-1.0637 1.7377-0.25276 0.4002-0.68452 1.1058-0.95836 1.5587-0.27382 0.45283-0.73735 1.2006-1.0322 1.664-0.28436 0.45288-0.78989 1.2638-1.1058 1.7799-0.31596 0.52655-0.7688 1.2533-0.98998 1.6114-0.23169 0.35812-0.56873 0.91625-0.74776 1.2322-0.18958 0.31593-0.58967 0.9795-0.89511 1.4745-0.30542 0.49496-0.99003 1.6007-1.5272 2.4748-0.52658 0.86365-1.148 1.8747-1.3797 2.2328-0.22117 0.35812-0.64239 1.0216-0.91623 1.4744-0.28436 0.45282-0.84248 1.3375-1.2427 1.98-0.40021 0.63186-0.94791 1.5167-1.2112 1.9484s-0.76881 1.2427-1.1058 1.7904c-0.34756 0.54764-0.74777 1.2111-0.90574 1.4744-0.14745 0.26331-0.51611 0.85315-0.82151 1.3165-0.52661 0.80047-1.4744 2.2959-2.338 3.6861-0.40021 0.6424-1.6536 2.5803-2.8226 4.3707-0.3686 0.54772-0.96888 1.4745-1.348 2.0538-0.37916 0.57924-0.95832 1.4323-1.2848 1.8957-0.32649 0.46337-0.80044 1.1478-1.0532 1.527-0.5266 0.8004-3.3386 4.6867-4.4655 6.1822-0.43179 0.56875-1.0532 1.3902-1.3692 1.822-0.32655 0.43185-1.0111 1.3164-1.5377 1.9589-0.51606 0.6424-1.2322 1.5378-1.5798 1.9801-0.83199 1.0847-1.5269 1.9167-3.7492 4.497-1.0216 1.1796-2.3486 2.7173-2.9489 3.4124-2.1275 2.454-6.5719 7.0037-8.9416 9.1205-2.8962 2.6014-7.2247 5.824-10.058 7.4881-2.6435 1.5587-5.0447 2.5171-7.4986 3.0015-1.306 0.25276-1.6957 0.28447-3.7705 0.28447-2.5066 0.0108-2.9277-0.0527-4.1072-0.64254-1.0637-0.53715-1.5589-1.0005-2.0222-1.8958-0.5582-1.0953-0.74764-2.0852-0.57916-3.0225 0.1791-0.94791 0.6424-2.4224 1.4428-4.5392 1.0953-2.8962 1.5693-3.8441 4.0548-8.0568 0.58978-1.0111 1.2006-2.0538 1.348-2.317 0.14745-0.26324 0.52661-0.92675 0.86357-1.4744 0.32655-0.54765 0.84254-1.4323 1.1585-1.9483 0.30544-0.52661 0.6635-1.1165 0.78992-1.3166 0.12634-0.20007 0.5793-0.95826 1.0111-1.685 0.68454-1.1796 1.2954-2.18 3.6545-6.0031 0.36861-0.61089 0.83198-1.3482 1.0216-1.6326 0.17903-0.29489 0.56882-0.89515 0.85315-1.348 0.69509-1.1163 1.4006-2.2222 3.4227-5.3606 0.38972-0.60033 1.1691-1.8219 1.7484-2.7171 1.2007-1.8747 2.4011-3.7177 3.349-5.1606 2.1696-3.307 3.6442-5.5713 4.3498-6.6667 0.45289-0.68453 1.2532-1.9167 1.8009-2.7382 0.5371-0.8215 1.2532-1.9274 1.5902-2.4434 0.32648-0.52661 1.1165-1.7588 1.7589-2.7382 1.0005-1.5587 2.296-3.5808 4.1495-6.477 1.1796-1.8536 2.9174-5.2132 4.4129-8.5307 1.2743-2.8225 1.4218-3.2334 1.7482-4.8237 0.31593-1.5692 0.29496-2.0326-0.17896-4.002-0.5371-2.2222-2.2328-5.6662-3.981-8.1201-3.1701-4.4234-7.0248-7.7408-11.838-10.184-2.6013-1.327-4.0232-1.7798-6.1085-1.9378-0.71085-0.0581-1.0374-0.087-1.3599-0.0856zm158.53 2.238c1.0782 0.0386 2.192 0.14347 2.9556 0.30146 4.5497 0.95839 7.5302 3.8231 8.4254 8.1305 0.37914 1.7904 0.2528 4.6024-0.32644 7.7409-0.26331 1.3796-1.2322 5.2552-1.7378 6.9087-0.64244 2.1274-1.5271 4.9078-1.8115 5.6766-0.14744 0.40027-0.47391 1.306-0.71614 2.0011-0.70564 2.001-1.4745 4.0863-1.6114 4.3391-0.0737 0.12641-0.27374 0.64241-0.4528 1.148-0.17902 0.50551-0.4846 1.2322-0.67418 1.6114-0.18956 0.37916-0.37904 0.81095-0.42116 0.95839-0.10532 0.33703-1.4008 3.2438-2.5909 5.7925-1.3902 2.9594-4.2232 8.5307-5.2554 10.321-0.21063 0.3791-0.66344 1.1795-1.0005 1.7903-0.33702 0.61088-0.85307 1.5166-1.148 2.0221s-0.72681 1.2534-0.9585 1.6746c-0.2317 0.41068-0.86349 1.4955-1.4112 2.4013-0.53713 0.90571-1.1375 1.9062-1.3271 2.2222-0.66351 1.1374-2.0116 3.349-2.633 4.318-0.24223 0.37909-0.73722 1.1585-1.1058 1.7377-3.0121 4.771-6.14 9.3207-9.3206 13.554-0.69511 0.92674-1.4533 1.9589-1.685 2.2854-0.48446 0.70563-1.0111 1.3691-1.8536 2.3275-0.32648 0.3791-0.85302 1.0215-1.1584 1.4322-2.8752 3.802-9.0259 10.153-12.364 12.754-2.6856 2.0853-4.6444 3.0648-6.9403 3.465-2.5908 0.45289-6.8247-0.20007-9.584-1.4744-2.3697-1.0954-3.8336-3.0965-4.4971-6.1718-0.34755-1.5692-0.3475-4.5812-0.0104-7.0562 1.0111-7.3196 3.3596-14.881 7.7935-25.066 2.8436-6.5192 7.4566-15.25 12.027-22.749 2.1169-3.465 2.5066-4.0968 3.3912-5.4659 0.10533-0.14745 0.25266-0.4002 0.34744-0.5582 0.42125-0.74771 6.1717-9.4155 7.2143-10.879 0.2949-0.41075 0.65305-0.92674 0.81104-1.1585 0.69509-1.0427 2.8856-4.0232 4.6128-6.256 0.17904-0.22116 0.69524-0.89509 1.1481-1.4954 0.73724-0.9584 1.6112-2.0326 4.539-5.5186 2.0537-2.4434 5.8242-6.3824 7.3092-7.6461 0.37914-0.316 0.87413-0.73723 1.1058-0.94792 0.48447-0.41068 2.0431-1.6323 2.8646-2.2326 1.3797-1.0005 3.328-1.7798 5.308-2.1379 0.62137-0.11058 1.664-0.13953 2.7422-0.10139zm202.42 46.683v0.51607c0 1.4113-0.65292 4.2443-1.4323 6.2348-1.8536 4.7814-5.2238 8.0568-10.363 10.068-0.77935 0.30545-1.8852 0.73723-2.4539 0.9584l-1.0321 0.38965 0.0632 0.70571c0.0842 0.92675 0.55822 2.5066 0.77938 2.5908 0.24223 0.0948 3.2227 0.25268 4.7814 0.26317h1.3374v12.786c0 7.9199 0.0422 13.291 0.10539 14.134 0.41073 5.0447 1.5481 8.1831 3.8335 10.563 1.9168 1.9905 4.0022 2.9174 8.278 3.6968 2.3697 0.43179 6.6034 0.46331 8.7413 0.0628 4.5602-0.8426 7.4566-1.7166 7.8779-2.3591 0.15798-0.2422 0.17901-0.67405 0.16847-4.1811 0-3.5281-0.021-3.9705-0.21059-4.6234-0.17904-0.65303-0.23185-0.74785-0.5162-0.82157-0.49499-0.14745-1.7692-0.021-3.7492 0.37922-4.0126 0.81095-5.803 0.78985-7.5408-0.0628-1.3797-0.68455-2.2644-1.7799-2.7384-3.4017-0.1685-0.58978-0.18957-1.5798-0.20008-13.344l-0.021-12.712 0.75826-0.063c1.011-0.0948 11.027-0.0108 11.248 0.0948 0.0948 0.042 0.20007 0.2422 0.24219 0.44233 0.0316 0.20007 0.2316 0.77937 0.42117 1.2849 0.20011 0.50551 1.2638 3.2648 2.3592 6.1295 1.0953 2.8646 2.7382 7.151 3.644 9.5312 0.90574 2.3696 1.9484 5.0975 2.317 6.0559 0.36861 0.95839 1.2217 3.1805 1.8957 4.9498s1.6325 4.2549 2.117 5.5292c2.1801 5.7398 2.338 6.1084 2.7487 6.298 0.22118 0.0948 1.8748 0.12633 7.0038 0.12633 6.6034 0 6.7087 7e-5 7.0036-0.22109 0.43179-0.31593 0.54759-0.58979 2.8224-6.5191 1.6535-4.3181 2.0538-5.3713 2.633-6.8984 0.36862-0.95839 1.0952-2.8752 1.6324-4.2654 0.52657-1.3902 1.169-3.0752 1.4218-3.7387 0.25277-0.66344 0.7583-1.9696 1.1059-2.8963 0.35807-0.92681 0.85306-2.2327 1.1058-2.8962 0.25276-0.6635 0.68468-1.7799 0.9585-2.475 0.2633-0.6951 0.70551-1.8536 0.97934-2.5802 0.27381-0.72675 1.1058-2.9068 1.8536-4.8447 0.73723-1.9379 1.4323-3.7703 1.5376-4.0547 0.0948-0.29488 0.47394-1.2849 0.83202-2.2117 1.7798-4.655 2.0011-5.3081 2.0011-5.8979 0-0.75826-0.22114-1.2848-0.60027-1.4322-0.58979-0.22117-3.6229-0.32654-8.1411-0.27386-2.5171 0.021-4.7183 0.0949-4.8868 0.14745-0.29488 0.0842-0.35801 0.2211-0.8846 1.7271-0.31595 0.89522-0.75831 2.2118-0.97948 2.9384-0.22117 0.72674-0.71621 2.2117-1.0954 3.3175-0.38967 1.0953-0.85312 2.4749-1.0532 3.0542-0.18956 0.5793-0.66338 1.9274-1.0531 3.0016-0.75829 2.1274-1.0638 2.991-2.6751 7.7409-1.8852 5.5397-3.1596 9.9736-3.6967 12.859-0.42127 2.2538-0.53711 2.7066-0.71614 2.8224-0.21065 0.12642-0.35807-0.28433-0.71614-2.1063-0.20011-1.0426-0.44228-2.1696-0.52654-2.5171-0.6951-2.7172-10.627-32.469-10.943-32.796-0.12638-0.11587-5.5503-0.21069-13.702-0.22117h-8.8572l-0.0633-0.78992c-0.0316-0.43178-0.0316-1.6746 0-2.7593 0.0527-1.7904-0.10527-6.9509-0.21058-7.0562-0.0842-0.0737-1.8958-0.22123-3.7284-0.30543zm-30.696 36.909c-0.79383 0.0101-1.6048 0.0628-2.1103 0.15258-1.4639 0.26331-2.3907 0.56874-3.6861 1.2217-1.4639 0.72667-2.1064 1.1902-3.2333 2.2749-2.8225 2.7278-4.2442 6.4139-4.0546 10.5 0.0842 1.7588 0.42118 3.012 1.2848 4.7603 0.37915 0.75833 0.96887 1.7695 1.3164 2.2223 1.7167 2.2749 4.297 3.9599 7.3828 4.8236 1.3375 0.36861 3.9284 0.47385 5.2344 0.21062 2.0432-0.41075 4.3496-1.4114 5.8872-2.5593 3.0016-2.2327 4.9394-5.9189 5.2658-10.037 0.0948-1.2849-0.33691-3.465-1.0531-5.2554-1.2322-3.0964-3.3703-5.3923-6.4456-6.9088-1.2111-0.60033-2.7276-1.127-3.7808-1.306-0.43707-0.079-1.2139-0.11051-2.0077-0.1z" fill="none" stroke="#000" stroke-width="3"/>
</svg>
